<svg xmlns="http://www.w3.org/2000/svg" xmlns:xlink="http://www.w3.org/1999/xlink" width="115" height="115" viewBox="0 0 115 115"><defs><clipPath id="a"><rect width="60.364" height="60.401" fill="none"/></clipPath></defs><g transform="translate(-533 -861)"><circle cx="57.5" cy="57.5" r="57.5" transform="translate(533 861)" fill="#6e2034"/><g transform="translate(560 888)"><g transform="translate(0 0)" clip-path="url(#a)"><path d="M17.6,29.231H13.7V25.547a5.713,5.713,0,0,0-2.1-2.124H2.138a4.858,4.858,0,0,0-2.083,2.19c0,2.846.013,5.841-.013,8.836a1.7,1.7,0,0,0,.435,1.157,4.453,4.453,0,0,0,1.767,1.43c2.788,0,5.739-.011,8.691.014.411,0,.7-.38,1.135-.249.439-.458.885-.92,1.322-1.375.522-1.339.156-2.75.309-4.176h3.747a8.235,8.235,0,0,1,.567,2.244,11.955,11.955,0,0,0,1.478,3.4,12.346,12.346,0,0,1,.989,1.64l-6.608,6.608c.479.478.909.909,1.326,1.326l6.52-6.519c.75.015,1.131.526,1.594.824a18.772,18.772,0,0,0,2.921,1.473c.393.165.923-.122,1.18.38.609-.161,1.129.257,1.764.267v3.842H25.561c-.332.261-.689.39-.994.647a3.243,3.243,0,0,0-1.2,2.808c.078,2.709.025,5.423.025,8.106a5.649,5.649,0,0,0,2.075,2.078c2.26,0,4.528.011,6.8-.005a7.833,7.833,0,0,0,3.235-.309l1.116-1.116a6.009,6.009,0,0,0,.39-2.917c0-2.188-.01-4.375.009-6.563A1.86,1.86,0,0,0,36.427,48a4.262,4.262,0,0,0-1.672-1.246H31.21V42.914c.924-.2,1.9-.351,2.846-.634a11.774,11.774,0,0,0,3.5-1.8c.282-.206.592-.339.788-.464l4.881,4.881c-.062.211-.442.161-.782.194A6.594,6.594,0,0,0,40.9,46.964V58.3a5.521,5.521,0,0,0,2.081,2.08c4.822,0,9.681-.014,14.541.023.463,0,.775-.437,1.243-.262.423-.432.849-.864,1.237-1.26a6.7,6.7,0,0,0,.344-3.062c.008-2.958,0-5.916,0-8.874-.233-.257-.317-.6-.548-.871a3.378,3.378,0,0,0-2.893-1.286c-3.6.092-7.2.032-10.74.032l-6.24-6.239c.018-.609.521-1,.816-1.459a18.772,18.772,0,0,0,1.476-2.92c.164-.393-.121-.924.383-1.178-.168-.611.269-1.129.261-1.767h3.845V34.86c.256.341.388.7.647,1a3.206,3.206,0,0,0,2.806,1.2c1.9-.089,3.807-.019,5.711-.025a6.672,6.672,0,0,0,3.019-.362L60,35.56a5.393,5.393,0,0,0,.346-2.65q0-3.709,0-7.415a5.954,5.954,0,0,0-2.081-2.075c-2.957,0-5.952.013-8.945-.011a1.641,1.641,0,0,0-1.156.433,3.714,3.714,0,0,0-1.431,1.981v3.394H42.941c-.344-.9-.374-1.9-.679-2.841a12.5,12.5,0,0,0-1.811-3.5c-.2-.283-.336-.6-.463-.788l9.365-9.365c2.167,0,4.675-.015,7.184.005A3.931,3.931,0,0,0,60.36,8.86a4.007,4.007,0,0,0-2.207-3.575c-.2-.121-.381-.064-.587-.108-.112-.336-.306-.639-.409-1.014a4.29,4.29,0,0,0-1.3-2.133,2.038,2.038,0,0,1-.342-.344A3.977,3.977,0,0,0,53.4.338a5.785,5.785,0,0,0-4.692.483,7.34,7.34,0,0,0-1.972,1.886c-.587.683-.622,1.606-1.054,2.423-.953.028-1.517.777-2.128,1.426a3,3,0,0,0-.692,1.771,3.742,3.742,0,0,0,.815,2.939,4.783,4.783,0,0,0,2.5,1.489l-7.719,7.719a6.677,6.677,0,0,1-.917-.507,15.1,15.1,0,0,0-3.4-1.773c-.39-.142-.919.133-1.183-.365-.606.14-1.134-.211-1.745-.289V13.748c1.36-.22,2.817.224,4.264-.375.381-.376.839-.828,1.178-1.161a6.515,6.515,0,0,0,.35-2.945c.009-2.35,0-4.7,0-7.05-.238-.3-.366-.66-.624-.965A3.233,3.233,0,0,0,33.58.056C30.87.133,28.156.08,25.472.08a5.646,5.646,0,0,0-2.078,2.073v9.465a5.634,5.634,0,0,0,2.12,2.1H29.2v3.775c-1.252.437-2.6.488-3.825,1.047a34.014,34.014,0,0,0-3.338,1.94l-4.621-4.62a9.45,9.45,0,0,0,2.021-7.4,9.06,9.06,0,0,0-3.672-6.346,9.4,9.4,0,0,0-7.284-2A9.491,9.491,0,0,0,2.62,3.243C-.633,7.05-.938,11.593,2.165,15.881a8.524,8.524,0,0,0,3.083,2.48A10.677,10.677,0,0,0,8.783,19.5a8.821,8.821,0,0,0,3.932-.441A17.443,17.443,0,0,0,16,17.368l4.47,4.471c-.036.573-.468.947-.741,1.389a9.926,9.926,0,0,0-1.94,5.036c-.05.29-.344.526-.2.966" transform="translate(0 0)" fill="#040506"/><path d="M.172,39.919c1.019,1.133,1.019,1.133,1.593,1.246A8.734,8.734,0,0,1,7.83,38.741a8.83,8.83,0,0,1,5.989,2.428h.336c.423-.394.806-.751,1.243-1.161a6.968,6.968,0,0,0-2.639-1.981,11.4,11.4,0,0,0-3.2-1.079A8.831,8.831,0,0,0,6.143,36.9a9.8,9.8,0,0,0-3.191,1.086,11.613,11.613,0,0,0-2.78,1.932" transform="translate(0.047 9.969)" fill="#060707"/><path d="M3.868,44.989v1.693a6.014,6.014,0,0,0,2.047,2.047,4.449,4.449,0,0,0,2.3-.314L9.4,47.2A4.691,4.691,0,0,0,9.68,45c-.8-1.444-1.89-2.465-3.866-2.007a5.452,5.452,0,0,0-1.946,2" transform="translate(1.049 11.63)" fill="#060607"/><path d="M10.671,43.249l1.089-1.079a.748.748,0,0,0-.347-.852A6.84,6.84,0,0,0,9.124,40.1a6.817,6.817,0,0,0-2.568-.247A6.91,6.91,0,0,0,2.908,41.3a.741.741,0,0,0-.352.877c.341.313.726.666,1.107,1.014a5.185,5.185,0,0,1,3.6-1.391,4.787,4.787,0,0,1,3.409,1.444" transform="translate(0.682 10.801)" fill="#070809"/><path d="M49.223,37.357c-.163-.163-.364-.362-.563-.563-.039,0-.079-.008-.118-.008H34.289l-.573.746V47.885l.732.547h14.23l.545-.545Z" transform="translate(9.144 9.977)" fill="#efc5a5"/><path d="M16.036,13.274A7.889,7.889,0,0,0,17.1,10.337,7.12,7.12,0,0,0,16.8,7.1a8.118,8.118,0,0,0-5.132-5.185c-.459-.09-.942-.126-1.439-.268a6.959,6.959,0,0,0-3.16.261A6.284,6.284,0,0,0,4.89,3.058,7.962,7.962,0,0,0,2.208,6.41,7.779,7.779,0,0,0,1.6,8.825a7.851,7.851,0,0,0,1.053,4.453,7.216,7.216,0,0,1,3.812-3.254A3.887,3.887,0,0,1,6.8,4.5a3.987,3.987,0,0,1,4.982-.118,3.87,3.87,0,0,1,.493,5.621,7.225,7.225,0,0,1,3.765,3.267" transform="translate(0.422 0.416)" fill="#dfe4e9"/><path d="M38.173,6.478C36.888,6.367,35.767,6.438,35.237,8A2.028,2.028,0,0,0,36.7,10.35c3.234,0,6.59,0,9.947,0a1.921,1.921,0,0,0,2.206-2.2V7.931a2.1,2.1,0,0,0-2.513-1.45A2.071,2.071,0,0,0,44.92,8.367H43.065a2.749,2.749,0,0,1,.45-1.9A4.558,4.558,0,0,1,45.658,4.7V3.946a4.235,4.235,0,0,0-2.676-2.251,3.425,3.425,0,0,0-1.959.056,4.138,4.138,0,0,0-2.85,4.728" transform="translate(9.548 0.428)" fill="#dfe4e9"/><path d="M14.237,12.94A5.68,5.68,0,0,0,9.043,9.274a5.69,5.69,0,0,0-5.591,3.651c3.562,2.837,7.12,2.874,10.785.015" transform="translate(0.936 2.514)" fill="#ea695c"/><path d="M20.727,23.815h7.711c.249-1.1-.472-2.158-.153-3.219-.23-.2-.4-.361-.289-.636h-6.67a2,2,0,0,0-.386,1.522,1.95,1.95,0,0,1-.174,1.025c-.186.331-.039.848-.039,1.308" transform="translate(5.606 5.414)" fill="#5ec1e5"/><path d="M27.933,28.392a11.868,11.868,0,0,0,.338-1.87,9.79,9.79,0,0,0,.192-1.864.35.35,0,0,0-.064-.069.19.19,0,0,0-.1-.043c-2.506,0-5.012,0-7.508,0a3.825,3.825,0,0,0,.139,1.977c.1.608-.136,1.269.411,1.87Z" transform="translate(5.612 6.657)" fill="#5ec1e5"/><path d="M48,24.912V23.045H38.323c-.065.577-.01,1.2-.033,1.867Z" transform="translate(10.384 6.25)" fill="#ffcd58"/><path d="M29.636,43.276v-1.87H19.962c-.065.58-.01,1.206-.034,1.87Z" transform="translate(5.404 11.23)" fill="#ffcd58"/><rect width="9.679" height="1.861" transform="translate(2.022 29.298)" fill="#ffcd58"/><path d="M19.951,4.686V6.548h9.675c.066-.572.008-1.2.033-1.862Z" transform="translate(5.411 1.271)" fill="#ffcd58"/><path d="M29.634,40.213V38.882l-.7-.55H20.5c-.116.155-.283.379-.543.728v1.153Z" transform="translate(5.411 10.396)" fill="#ffcd58"/><path d="M10.682,28.029c.2-.2.4-.4.605-.605v-1.21A86.917,86.917,0,0,0,1.6,26.128v1.33l.569.571h8.508" transform="translate(0.435 7.063)" fill="#ffcd58"/><path d="M38.308,26.109V27.44l.7.55h8.418l.561-.562V26.109Z" transform="translate(10.389 7.081)" fill="#ffcd58"/><path d="M11.274,21.852V20.521l-.7-.55H2.138l-.4.655-.145-.118v1.345Z" transform="translate(0.432 5.417)" fill="#ffcd58"/><path d="M38.9,19.955c-.2.2-.4.4-.605.605v1.21a86.911,86.911,0,0,0,9.683.085v-1.33l-.569-.571H38.9" transform="translate(10.386 5.412)" fill="#ffcd58"/><path d="M29.043,9.668l.6-.609V7.854a86.486,86.486,0,0,0-9.683-.088V9.1c.168.167.369.367.568.568h8.511" transform="translate(5.414 2.084)" fill="#ffcd58"/><path d="M29.042,46.391l.605-.608V44.576a87.041,87.041,0,0,0-9.683-.086v1.332c.169.168.369.369.569.569h8.508" transform="translate(5.414 12.043)" fill="#ffcd58"/><path d="M20.541,1.594c-.2.2-.4.4-.606.605v1.21a86.97,86.97,0,0,0,9.683.085V2.165l-.566-.571H20.541" transform="translate(5.406 0.433)" fill="#ffcd58"/><path d="M28.5,24.576c-.15,1.3-.3,2.547-.444,3.821h3.955c.9-1.079.844-2.507,1.33-3.821Z" transform="translate(7.609 6.665)" fill="#5ec1e5"/><path d="M20.686,28.391c-.441-.658.006-1.425-.277-1.969-.325-.625-.048-1.247-.261-1.856H15.341A11.824,11.824,0,0,0,16.6,28.391Z" transform="translate(4.16 6.663)" fill="#5ec1e5"/><path d="M20.666,19.974H16.621c-.814,1.12-.9,2.474-1.3,3.847,1.611.042,3.2.008,4.809.02.235-.642-.034-1.312.283-1.964.254-.521-.127-1.244.249-1.9" transform="translate(4.156 5.417)" fill="#5ec1e5"/><path d="M28.464,23.82h4.872a12.726,12.726,0,0,0-1.285-3.842H28.006c.328.608.006,1.317.23,1.885a7.348,7.348,0,0,1,.228,1.956" transform="translate(7.595 5.418)" fill="#5ec1e5"/><path d="M21.491,19.237h5.756A16.021,16.021,0,0,0,26.112,16.7a2.8,2.8,0,0,0-.9-1.064,1.289,1.289,0,0,0-1.6-.025,2.98,2.98,0,0,0-.95,1.007,16.22,16.22,0,0,0-1.172,2.617" transform="translate(5.828 4.162)" fill="#5ec0e5"/><path d="M27.22,29.162H21.536a11.353,11.353,0,0,0,1.134,2.687,2.4,2.4,0,0,0,.9.923,1.354,1.354,0,0,0,1.7-.076,3.083,3.083,0,0,0,.885-1.078,14.345,14.345,0,0,0,1.065-2.456" transform="translate(5.84 7.909)" fill="#5ec0e5"/><path d="M8.713,4.7a2.062,2.062,0,0,0-2.55,1.417v.957a2.038,2.038,0,0,0,2.38,1.467,2.1,2.1,0,0,0,1.489-1.56V6.01A2.16,2.16,0,0,0,8.713,4.7" transform="translate(1.671 1.262)" fill="#ecc2a3"/><path d="M21.839,15.943a8.773,8.773,0,0,0-4.416,3.094H20.57a10.582,10.582,0,0,1,1.269-3.094" transform="translate(4.725 4.324)" fill="#5cbee1"/><path d="M26.642,15.975a9.672,9.672,0,0,1,1.222,3.057h3.071c.208-.3-.061-.426-.215-.585a10.41,10.41,0,0,0-4.078-2.472" transform="translate(7.225 4.333)" fill="#5cbee1"/><path d="M21.819,32.263a9.889,9.889,0,0,1-1.236-3.126c-.515,0-1.068-.011-1.618,0a6.064,6.064,0,0,0-1.547.075,8.832,8.832,0,0,0,4.4,3.047" transform="translate(4.724 7.9)" fill="#5cbee1"/><path d="M27.894,29.138a10.612,10.612,0,0,1-1.239,3.074,8.692,8.692,0,0,0,4.395-2.957,3.91,3.91,0,0,0-1.511-.112c-.526-.022-1.053-.005-1.644-.005" transform="translate(7.229 7.899)" fill="#5cbee1"/><path d="M5.4,45.776l.606.6h.755l.564-.664V45l-.8-.566H5.994l-.6.825Z" transform="translate(1.464 12.051)" fill="#e46458"/><path d="M41.034,42.2H39.161v1.909H37.2V38.34H35.332c-.123,1.072-.14,6.239-.023,7.725H46.862v-1.88H44.993V40.31H43.034v3.784h-2Z" transform="translate(9.554 10.398)" fill="#040506"/></g></g></g></svg>