<svg xmlns="http://www.w3.org/2000/svg" xmlns:xlink="http://www.w3.org/1999/xlink" width="167" height="167" viewBox="0 0 167 167"><defs><clipPath id="a"><rect width="97.172" height="98.776" fill="none"/></clipPath></defs><g transform="translate(-721.948 -7105)"><circle cx="83.5" cy="83.5" r="83.5" transform="translate(721.948 7105)" fill="#ced371"/><g transform="translate(756.948 7139)"><g clip-path="url(#a)"><path d="M56.29,121.667H75.449c.772-1.124,1.759-2.136,2.539-3.334.534-.82,1.293-1.5,1.907-2.29,1.435-1.853,2.876-3.708,4.369-5.509,1.309-1.579,2.607-3.179,3.874-4.786,1.492-1.891,3.229-3.582,4.547-5.616A5.363,5.363,0,0,1,93.9,98.906a3.107,3.107,0,0,0,1.133-2.393,3.708,3.708,0,0,0-1.473-3.306,34.151,34.151,0,0,1-4.183-3.41c-.5-.367-1.3.191-1.683-.52-.483-.231-.6.354-1.008.408a2.1,2.1,0,0,0-1.957,1.331c-.261.658-1.036,1.112-1.671,1.746-.376-.392-.733-.814-1.141-1.178a2.386,2.386,0,0,0-3.7.222,3.283,3.283,0,0,0-.568,1.1c-.362.8.276.987.214,1.333-.275,1.533.693,2.944.383,4.366l-7.213,8.514a14.423,14.423,0,0,0-1.369-4.627c-.362-.892-.939-1.537-.335-2.689.591-1.126.7-5.789.43-6.932-.448-1.886-.561-3.834-1.129-5.7-.558-1.827-1.082-3.665-1.615-5.5-.367-1.262-.792-2.512-1.075-3.793a25.834,25.834,0,0,1-.728-8.73,30.438,30.438,0,0,0,.3-5.628,16.053,16.053,0,0,0-3.4-9.2,18.98,18.98,0,0,0-5.7-4.84,22.518,22.518,0,0,0-5.189-1.9,17.748,17.748,0,0,0-6.586-.276,12.749,12.749,0,0,0-6.262,2.532,23.842,23.842,0,0,0-4.172,4.241,7.8,7.8,0,0,0-1.378,3.465,19.9,19.9,0,0,0-.5,5.034c.024.568.5.865.434,1.484a8.916,8.916,0,0,0-2.4,1.949c-.778.722-.439,1.875-1.055,2.669.439,1.491.621,3.152,2.185,3.981.464,1.414-.6,2.626-.272,3.934-.7,1.012-.2,2.285-.748,3.354-.292.573-.267,1.3-.531,1.9-.773,1.737-1.661,3.423-2.423,5.165-.738,1.685-1.388,3.408-2.041,5.129a2.825,2.825,0,0,0-.038.948c0,1.156.055,2.317-.016,3.469a7.885,7.885,0,0,0,.811,3.218C24.561,101.454,23.849,103.7,23,105.9a31.317,31.317,0,0,1-4.317-5.04A15.448,15.448,0,0,0,16.661,98.8a3.68,3.68,0,0,1,.28-2.318c.237-.753-.2-1.57.327-2.382.422-.65-.069-1.438-.447-2.047a7.318,7.318,0,0,0-1.163-1.2c-1.809-.4-2.844.727-3.894,1.912A12.4,12.4,0,0,1,9.837,90.49a1.8,1.8,0,0,0-1.552-.814,1.175,1.175,0,0,1-.78-.4,7.316,7.316,0,0,0-4.071,2.243C2.3,92.639.582,93.18,0,95.164v2.573c6.707,7.679,13.007,15.873,19.4,23.93h19.15c1.122-.641.891-1.741.938-2.749.1-3.554-.071-7.118.1-10.654a6.9,6.9,0,0,1,3.409.418c3.936.887,7.759.131,11.587-.617,1.068.316.746,1.214.761,1.919.065,3.054-.088,6.108-.022,9.163.021.942-.068,1.953.963,2.521" transform="translate(0 -22.891)" fill="#040506"/><path d="M4.493,65.852l.539.54h19.7c.638-.338.589-.854.588-1.373q-.012-5.393,0-10.786v-6.1c-.236-.407-.921.052-.857-.658H16.418c.31-.547.927-.782.873-1.382.559-.311,1.205-.355,1.653-.868,1.621-.056,3.359.318,4.724-1.008-.354-.565-.588-1.359-1.387-1.7a2.529,2.529,0,0,1-1.765.373,6.421,6.421,0,0,0-5.469,2.391c-1.109-1.922-3.176-2.089-4.975-2.775-.266-.322-.266-.822-.75-1.1H7.337a4.784,4.784,0,0,0,1.987,3.365,11.922,11.922,0,0,1,3.412,1.271c.425.276.3.858.675,1.088-.125.327-.249.41-.471.409-2.5-.008-5-.005-7.459-.005l-.989.958Z" transform="translate(-2.182 -20.109)" fill="#050506"/><path d="M165.149,44.963l-.523-.524H160.39c-.516-.476-.109-1.047-.284-1.428a3.142,3.142,0,0,0-2.581-.966c-3.531.033-7.063.013-10.595.013-.421.348-1.033.4-1.425.955-.017.352-.039.784-.064,1.287H141.1l-1.024,1.071c0,.712-.291,1.684.069,2.2.517.737.061,1.487.441,2.151a17.983,17.983,0,0,0,1.127,2.219,28.162,28.162,0,0,0,2.317,2.4c1.009.212,1.76.36,2.281,1.382a7.621,7.621,0,0,0,2.277,2.316,4.836,4.836,0,0,0,1.859.592,5.582,5.582,0,0,0,1.153.014v6.483h-3.707V67.45h9.814c.294-.657-.035-1.408.186-2.207H154.04v-6.11c.117-.1.349-.46.588-.465,2.182-.047,3.41-1.567,4.725-2.967-.075-.9.767-.975,1.249-1.155,2.362-.883,3.313-2.851,4.165-4.981.616-1.537.236-3.1.382-4.6" transform="translate(-67.977 -20.42)" fill="#050607"/><path d="M83.46,21.635A8.188,8.188,0,0,0,88.242,20.6a11.348,11.348,0,0,0,5.693-6.853A11.341,11.341,0,0,0,91.3,3.369,12.033,12.033,0,0,0,81.681.039C79.863.8,77.869,1.1,76.389,2.659c-1.5,1.583-2.9,3.14-3.435,5.347a6.21,6.21,0,0,0-.246,1.235c-.027.77.019,1.543-.012,2.313a9.412,9.412,0,0,0,2.054,6.075,10.7,10.7,0,0,0,5.2,3.674,15,15,0,0,0,3.515.332" transform="translate(-35.303 0)" fill="#060606"/><path d="M92.7,178.167a2.461,2.461,0,0,1-.389-1.761q.009-5.761,0-11.523a2.574,2.574,0,0,0-.105-1.3c-.388-.014-.882-.405-1.046.314.858,5.775.6,6.22-4.6,8.863a24.824,24.824,0,0,1-10.323,2.435,1.307,1.307,0,0,0-.886.273,7.415,7.415,0,0,0,.016,1.332,2.146,2.146,0,0,1-.4,1.368Z" transform="translate(-36.406 -79.39)" fill="#b6b7c7"/><path d="M35.769,11.534l-.448.448v1.794c1.128-.337,2.089.542,3.36.345v3.054h2.326V14.2h3.434V11.87H41.086V8.41H38.761v3.418c-1.1.06-1.991-.748-2.991-.294" transform="translate(-17.155 -4.085)" fill="#080909"/><path d="M139.673,22.812h3.22v3.41h2.231c.571-1-.431-2.37.674-3.391h2.871V20.574c-1.019-.229-2.163.053-3.334-.147V17.508h-2.329v2.949h-3.132a4,4,0,0,0,.033,1.425c.206.454-.671.518-.234.93" transform="translate(-67.776 -8.503)" fill="#0a0a0b"/><path d="M99.665,100.774a4.337,4.337,0,0,0,.572-2.386,30.871,30.871,0,0,0-1.564-9.963c-.4-1.315-.685-2.669-1.183-3.943A24.636,24.636,0,0,1,96.4,80.318c-.109-.542-.548-.955-.452-1.568a3.749,3.749,0,0,0-.008-1.722,14.854,14.854,0,0,1-.278-6.2c.135-1.618.308-3.231.3-4.857a12.963,12.963,0,0,0-2.255-6.962,15.331,15.331,0,0,0-7.791-6.2,12.358,12.358,0,0,0-4.4-1.009c-1.027.012-2.059-.057-3.081.014a11.1,11.1,0,0,0-6.711,2.848c-.673.594-1.273,1.269-1.914,1.9a8.9,8.9,0,0,0-2.022,4.371,21.079,21.079,0,0,0-.376,4.7,16.93,16.93,0,0,1,2.275-2.784c.862-.734,1.216-1.911,2.25-2.561h1.1a23.886,23.886,0,0,0,6.315,4.744,47.526,47.526,0,0,0,9.2,3.377c.688.118,1.318.638,2,.7.526.05.855.509,1.377.436.451-.063.906.331,1.184.315.9-.051,1.188.635,1.7,1.009v6.4a13.783,13.783,0,0,1-3.4,8.619,16.61,16.61,0,0,1-3.578,3.083c.258,2.2-.379,4.432.418,6.594l1.8.928a16.677,16.677,0,0,1,9.608,4.279" transform="translate(-32.742 -25.147)" fill="#81552d"/><path d="M74.505,73.577c-1.193.9-1.764,2.223-2.775,3.187a2.333,2.333,0,0,0-.572,1.678c.06,3.4,0,6.806.04,10.208a10.713,10.713,0,0,0,1.664,4.889,9.841,9.841,0,0,0,3.774,3.794,10.756,10.756,0,0,0,4.118,1.636,11.123,11.123,0,0,0,5.036-.319,11.4,11.4,0,0,0,5.241-3.121c1.109-1.337,2.291-2.657,2.628-4.494a19.106,19.106,0,0,0,.659-3.381c.005-1.669,0-3.338,0-5.053a84.213,84.213,0,0,1-8.881-2.674A37.482,37.482,0,0,1,79.253,77.2a16.167,16.167,0,0,1-4.748-3.619" transform="translate(-34.56 -35.735)" fill="#eec2a1"/><path d="M18.451,152.281l10.977,13.863H45.549V143.592c-5.257,0-11.741,5.335-11.53,12.678-.328.792-.987.707-1.755.654L24.2,147.377a70.664,70.664,0,0,0-5.748,4.9" transform="translate(-8.961 -69.739)" fill="#cd64a1"/><path d="M113.192,161.669V169.7c2.663.152,5.337.042,8.006.062,2.633.021,5.266,0,8.129,0l10.992-13.889a43.7,43.7,0,0,0-5.7-4.943l-8.124,9.575h-1.932l-.536-.537a15.844,15.844,0,0,0-1.65-6.265c-.04-.08-.21-.1-.32-.14-2.788,2.884-5.883,5.431-8.868,8.1" transform="translate(-54.975 -73.307)" fill="#bf5b9b"/><path d="M75.726,134.568v8.2a19.986,19.986,0,0,0,8.521,1.668,18.376,18.376,0,0,0,8.406-1.892v-7.951a6.716,6.716,0,0,1-3.06-3.21v-4.979c-1.738-.093-3.36.458-5.042.434a34.4,34.4,0,0,1-4.977-.879c0,1.115-.035,2.126.007,3.133.1,2.356-1.236,3.936-2.869,5.341-.192.165-.591.088-.985.134" transform="translate(-36.778 -61.176)" fill="#eec2a1"/><path d="M75.71,175.114c.549-.189.849.457,1.383.4A13.575,13.575,0,0,1,78.6,175.5l.717-.717a1.333,1.333,0,0,0,1.514.295c1.2-.62,2.55-.621,3.794-1.076a25.083,25.083,0,0,0,4.482-2.176c1.023-.627,2.253-.932,3.142-1.88V163.7c-.216-.278-.5-.106-.732-.156a4.22,4.22,0,0,0-2.306.469c-.943.313-1.926.009-2.72.357a5.658,5.658,0,0,1-2.74.309,20.244,20.244,0,0,1-6.255-1.085c-.547-.211-1.236.312-1.787-.857Z" transform="translate(-36.771 -79.037)" fill="#c4c5d7"/><path d="M59.7,101.993c.058,1.368-.5,2.646-.629,3.963a17.373,17.373,0,0,1-1.711,5.281c-.711,1.631-1.45,3.258-2.223,4.865a9.378,9.378,0,0,0-1.24,5.081,30.278,30.278,0,0,1,.019,3.149,10.854,10.854,0,0,0,2.946-1.684,13.256,13.256,0,0,1,3.321-1.32,8.806,8.806,0,0,1,3.292-.467,3.182,3.182,0,0,0,2.735-1.281v-7.044c-3.239-1.8-5.981-7.194-5.74-10.157-.218-.207-.328-.629-.771-.386" transform="translate(-26.161 -49.5)" fill="#81552d"/><path d="M113.192,158.368c.19,0,.445.081.562-.012a73.006,73.006,0,0,0,8.053-7.235,1.074,1.074,0,0,0,.253-.853c.2-.722-.519-.938-.77-1.411a8.311,8.311,0,0,0-3.294-3.2c-.967-.57-2.028-.983-3.153-1.517h-1.651Z" transform="translate(-54.975 -70.006)" fill="#cd64a1"/><path d="M17.215,134.9a2.76,2.76,0,0,0-1.554,1.6c-.382.709-1.023,1.065-1.478,1.758-1.949-1.282-2.822-3.469-4.72-4.835a33.964,33.964,0,0,0-4.908,3.947c-.59,1.169.282,1.968.785,2.53,1.614,1.8,3.078,3.733,4.676,5.568l6.311-5.333a42.884,42.884,0,0,1,.888-5.235" transform="translate(-2.116 -64.801)" fill="#edc1a1"/><path d="M163.077,133.644c-2.223.9-2.773,3.531-4.871,4.6-.505-.146-.712-.676-1.118-.963-.478-.337-.372-1.082-.952-1.342-.355-.158-.118-1.147-1.018-.683.7,1.517.2,3.185,1.208,5.14a70.952,70.952,0,0,0,6.047,5.17c.758-1.377,2.077-2.349,2.911-3.745a8.959,8.959,0,0,1,1.609-1.649,2.916,2.916,0,0,0,.97-2.526,34.2,34.2,0,0,0-4.786-4" transform="translate(-75.337 -64.908)" fill="#edc1a1"/><path d="M64.145,84.642l-.448-.448a3.05,3.05,0,0,0-2.142,2.641c.429.669.239,1.788,1.482,2.273h1.108Z" transform="translate(-29.896 -40.891)" fill="#cd9977"/><path d="M65.213,100.647l.771.386V99.149c-.91.263-.759.918-.771,1.5" transform="translate(-31.671 -48.154)" fill="#4d341d"/><path d="M15.928,69.879H9.119v8.038c2.2.066,4.472.009,6.809.034Z" transform="translate(-4.429 -33.939)" fill="#bb5799"/><path d="M27.107,77.882h6.812v-8.06c-2.2-.015-4.476,0-6.812-.008Z" transform="translate(-13.165 -33.907)" fill="#bb5799"/><path d="M9.055,57.942v3.729h6.821a5.713,5.713,0,0,0,.081-1.77c.024-.632.005-1.264.005-1.959Z" transform="translate(-4.398 -28.141)" fill="#ca629e"/><path d="M27.048,57.946v3.725h6.819a5.519,5.519,0,0,0,.082-1.763c.024-.632.005-1.265.005-1.963Z" transform="translate(-13.137 -28.143)" fill="#ca619e"/><path d="M165.173,47.2l-.528-.528h-9.5c0,2.862-.075,5.678.029,8.487a3.673,3.673,0,0,0,2.765,3.419c1.076,0,2.483-.013,3.889,0a2.645,2.645,0,0,0,2.59-1.681,6.01,6.01,0,0,0,.758-2.773c-.021-2.31-.007-4.622-.007-6.927" transform="translate(-75.339 -22.665)" fill="#f68b11"/><path d="M147.776,51.137h-3.149c.364,2.141.792,4.148,2.939,5.564.354-1.907.058-3.659.21-5.564" transform="translate(-70.242 -24.836)" fill="#f1f3f4"/><path d="M181.847,51.153h-2.541v5.292c.8.244,1.158-.451,1.334-.829.649-1.388,1.593-2.737,1.207-4.463" transform="translate(-87.085 -24.844)" fill="#f1f3f4"/><path d="M91.37,6.9a13.468,13.468,0,0,0-2.589-1.661,8.429,8.429,0,0,0-6.4-.009,8.8,8.8,0,0,0-4.275,3.553,6.56,6.56,0,0,0-.976,2.669,11.017,11.017,0,0,0,.026,3.644c.345,1.423.809,2.929,2.257,3.759a3.658,3.658,0,0,0,4.142-1.624c.111-.7-.45-1.26-.4-1.9.107-.575.586-.626.955-.817a.755.755,0,0,0,.432-.629c-.224-.764-1.134-1.051-1.289-1.863.289-1.575.331-1.632,2.447-3.276,1.551.656,2.2,2.35,3.535,3.28A4.8,4.8,0,0,0,91.37,6.9" transform="translate(-37.394 -2.236)" fill="#ffa918"/><path d="M85.563,19.1v.691c-1.345.164-2.394,1.29-3.856,1.238a6.1,6.1,0,0,0,5.477,2.684,11.556,11.556,0,0,0,3.311-.311,8.35,8.35,0,0,0,5.291-5.063,7.891,7.891,0,0,0-.536-7.172,3.222,3.222,0,0,0-.878-1.135c-.417-.252-.078-.96-.711-.961-.1.533.151,1.074-.238,1.619-.769,1.079-.833,2.6-2.076,3.4a1.326,1.326,0,0,0-.406.309,1.717,1.717,0,0,0-.514,1.165c.642,2.394.352,2.953-2.288,4.41-.972.047-1.46-1.338-2.575-.87" transform="translate(-39.683 -4.407)" fill="#f68b11"/><path d="M91.99,110.461A7.978,7.978,0,0,0,95.4,107.91c.077-.418.165-.933-.755-1.261H93.272c-.218.127-.135.336-.153.518-.5.447-1.26.427-1.712.958a2.989,2.989,0,0,1-2.014-.259l-1.653,1.577c.39.517,1.251.468,1.718,1.017H91.99" transform="translate(-42.613 -51.797)" fill="#0c0b09"/><path d="M103.952,93.692a1.678,1.678,0,0,0,2.463.052c.525-1.172.525-1.172.1-2.321a1.874,1.874,0,0,0-2.6-.086l-.458,1.031c-.237.724.677.933.5,1.323" transform="translate(-50.227 -44.124)" fill="#0f0d0b"/><path d="M79.432,91.672l-.774,1.434c.325.475.389,1.061.95,1.465h1.653l.877-.913V92.473l-1.075-.9a4.135,4.135,0,0,0-1.632.1" transform="translate(-38.202 -44.457)" fill="#0f0d0b"/><path d="M94.237,15.623v-.386c-.082-1.48-1.162-2.165-2.264-2.778-.039-.358-.07-.659-.108-1.018H90.106c-.243.173-.047.521-.159.91a4.239,4.239,0,0,0-2.288,2.59,2.738,2.738,0,0,0,1.951,2.226c.239.769,1.1.745,1.826,1.295-1.113.121-1.595-.55-2.211-.909H87.732v1.794c.182.274.649.434.722.905.644.387,1.543.483,1.663,1.5h1.664c.349-1.284,1.876-1.368,2.438-2.606v-1.77c-.164-.361-.685-.5-.753-.986a.838.838,0,0,0-.809-.573,12.564,12.564,0,0,0-1.9-.811c1.031-.184,1.357.881,2.15.822a1.364,1.364,0,0,0,1.326-.209" transform="translate(-42.574 -5.557)" fill="#090805"/><path d="M90.679,22.958c-.176.81.6,1.03.921,1.495h2.044a1.421,1.421,0,0,0,.093-.944c-.762-.694-1.879-.349-2.671-.936a.327.327,0,0,1-.386.386" transform="translate(-44.028 -10.963)" fill="#f29d14"/><path d="M97.31,19.958l.771.386a.944.944,0,0,0,.771-.771H97.31c-.132.086-.175.172-.132.257s.087.129.132.129" transform="translate(-47.189 -9.506)" fill="#ef9d13"/><path d="M94.534,18.5v-.386a3.384,3.384,0,0,0-1.929-1.54l-1.157.579c.009.214-.057.466.161.532.97.29,1.949.547,2.925.816" transform="translate(-44.413 -8.051)" fill="#e79914"/></g></g></g></svg>