<svg xmlns="http://www.w3.org/2000/svg" xmlns:xlink="http://www.w3.org/1999/xlink" width="103.441" height="103.333" viewBox="0 0 103.441 103.333"><defs><clipPath id="a"><rect width="103.441" height="103.334" fill="none"/></clipPath></defs><g clip-path="url(#a)"><path d="M108.336,118.443h-1.709v-11.6H90.09v26.425a4.369,4.369,0,0,0,1.708.1c11.557.008,23.114-.024,34.671.031a8.48,8.48,0,0,0,5.866-2.322,7.017,7.017,0,0,0,2.507-5.378q-.14-5.842,0-11.691a6.736,6.736,0,0,0-2.446-5.854,4.284,4.284,0,0,1-.4-.429,22.146,22.146,0,0,0,8.142-6.149,24.054,24.054,0,0,0,3.928-7.229,21.17,21.17,0,0,0,.8-8.717c-.666-3.773-1.642-7.45-4.027-10.629a25.383,25.383,0,0,0-6.613-6.424c-2.331-1.464-4.87-2.9-7.817-2.981-1.089-.686-2.3-.376-3.462-.391-3.023-.037-6.048.027-9.07-.026a14.983,14.983,0,0,0-6.082,1.391,20.549,20.549,0,0,0-6.862,4.858c-.551.567-.6,1.393-1.13,1.961a2.47,2.47,0,0,0,1.66,1.888h4.292a1.378,1.378,0,0,1-.87,1.442c-2.118,1.129-3.09,3.2-4.37,5.031-.593.849-.305,1.756-.4,2.593l.617.617h7.263c.563,2.168-.144,4.553-3.431,8.5.005.065-.015.156.02.191,1.183,1.193,2.372,2.379,3.611,3.618,0,2.226-.072,4.507.018,6.781a7.42,7.42,0,0,0,4.042,6.539,5.025,5.025,0,0,0,3.276,1.024c-.291,1.291-1.54,1.707-1.905,2.778-.338.992-1.165,1.86-1.331,2.857-.179,1.069-.867,2.042-.71,3.307l-3.245-2.117" transform="translate(-41.583 -30.074)" fill="#040506"/><path d="M6.825,127.234a8.216,8.216,0,0,0,3.165,5.9,8.6,8.6,0,0,0,5.363,1.655c7.6-.036,15.2-.06,22.794.007a6.856,6.856,0,0,0,6.512-4.535,5.025,5.025,0,0,0,.36-2.313,6.768,6.768,0,0,0-1.74-3.8,36.436,36.436,0,0,0,1.508-4.255c.457-2.024,1.285-3.924,1.806-5.93a4.351,4.351,0,0,0-.892-3.835,4.52,4.52,0,0,0-4.187-1.981c-.4.03-.806,0-1.21,0-2.765,1.612-2.674,1.67-3.818,4.531-.555,1.386-.892,2.858-1.35,4.283-.288.892-.619,1.769-.976,2.78-.572.238-1.339.541-2.073.829-.786.308-1.049,1.2-2,1.367a41.873,41.873,0,0,0-1.3-4.67,19.7,19.7,0,0,0-2.7-4.033c.79-.248,1.438-.43,2.072-.653a7.467,7.467,0,0,0,5.006-5.737c.663-2.709.129-5.417.424-8.195L37.3,94.937c-2.233-2.511-4.238-5.11-3.715-8.8,1.58-.667,2.385-2.127,3.078-3.584.468-1.691-.378-3.252-.332-4.794-.289-.509-.753-.951-.744-1.383a4.348,4.348,0,0,0-1.447-2.828A12.828,12.828,0,0,0,28.7,69.241a12.1,12.1,0,0,0-4.616-1.068c-2.752.115-5.515.1-8.268.009A15.993,15.993,0,0,0,9.9,69.529a10.119,10.119,0,0,0-4.236,2.923c-.482.558-1.031,1.061-1.564,1.573-1.887,1.813-2.743,4.2-3.658,6.555C.611,81.966-.011,83.246,0,84.649c.079,9.547.051,19.1.036,28.644a18.065,18.065,0,0,0,2.226,8.56,10.49,10.49,0,0,0,1.985,2.813c.878.832,1.717,1.707,2.578,2.568" transform="translate(0 -31.464)" fill="#040506"/><path d="M26.05,26.714c3.725-.324,7.524.383,11.244-.451C40,23.718,40,23.718,40,20.15V3.609A10.345,10.345,0,0,0,37.524.578C35.776-.18,34.057.033,32.363.031Q20.075.016,7.787.033C6.09.037,4.367-.212,2.522.6L.585,2.61C-.143,4.091.063,5.74.06,7.364q-.011,6.044,0,12.087c0,1.561-.188,3.144.651,4.831l1.9,1.9c2.505.857,5.035.353,7.529.465,1.273.057,2.551.01,3.852.01.653,1.327,1.377,2.637,1.953,4.009.731,1.739,2.293,2.259,3.836,2.844a10.9,10.9,0,0,0,2.818-.961,6.129,6.129,0,0,0,1.448-1.814c.6-1.363,1.326-2.673,2-4.017" transform="translate(-0.016 0)" fill="#050606"/><path d="M143.818,26.422c2.769,0,5.657-.019,8.543.006a5.1,5.1,0,0,0,4.783-2.96c.149-.272.1-.651.487-.837,0-4.954.044-9.918-.024-14.882a4.419,4.419,0,0,0-2.407-3.9,4.892,4.892,0,0,0-2.474-.859c-10.409.045-20.818.028-30.972.028A7.5,7.5,0,0,0,118.1,5.791c-.6,1.466-.391,3.184-.4,4.88-.016,2.62-.026,5.24,0,7.86.02,1.764-.263,3.556.533,5.405l1.845,1.845c1.788.872,3.509.623,5.2.637,2.138.018,4.277,0,6.342,0,.768,1.543,1.438,3.018,2.225,4.429a3.427,3.427,0,0,0,3.262,2.032c.733-.032,1.468-.005,2.119-.005,2.74-1.283,2.99-4.162,4.593-6.455" transform="translate(-54.312 -1.382)" fill="#040506"/><path d="M147.238,97.915a12.552,12.552,0,0,1-3.13,4.033v4.782c1.21-.137,1.828-1.043,2.653-1.621a15.527,15.527,0,0,0,4.5-4.835c.538-.908.908-1.915,1.44-2.828.552-.947.331-2.113.962-3.038.157-.23,0-.658.036-.989a4.136,4.136,0,0,1,.324-1.893,2.229,2.229,0,0,0-.11-2.094,1.458,1.458,0,0,1-.216-.923c.079-2.9-1.267-5.371-2.505-7.835a15.549,15.549,0,0,0-2.4-3.235,19.138,19.138,0,0,0-4.43-3.4,19.33,19.33,0,0,0-5.307-2.261,12.839,12.839,0,0,0-3.408-.577c-2.755.052-5.512.025-8.269.014a17.576,17.576,0,0,0-7.457,1.97c-.846.388-1.078,1.448-2.139,1.48a22.293,22.293,0,0,1,8.844,3.475c-.115.571-.737.79-.874,1.377-.109.464-.747.826-.91,1.406a6.03,6.03,0,0,1-1.79-.875c-2.122.74-3.381,1.414-6.049,4.263a.649.649,0,0,0,.107.14.305.305,0,0,0,.167.078c5.177,0,10.353,0,15.7,0l.906-1.26V82.223l-1.29-.888h-1.813V77.762a5.752,5.752,0,0,1,3.075.307,6.517,6.517,0,0,1,2.626,1.946c.83.757.425,1.971,1.084,2.819-.017.481-.692.812-.388,1.442a1.625,1.625,0,0,0,.847.677,7.889,7.889,0,0,1,5.539,5.37,1.992,1.992,0,0,0,.866,1.229,11.44,11.44,0,0,1,2.387,2.017c.033.463-.09.966.424,1.241Z" transform="translate(-54.004 -32.865)" fill="#a56434"/><path d="M144.562,123.714v-8.95c.99-1.376,2.578-2.164,3.252-3.989v-.992l-1.086-1.049h-2.176a7.8,7.8,0,0,0-1.153-4.789,1.594,1.594,0,0,0-.766-.808,9.6,9.6,0,0,0-4.542-1.237c-3.287.1-6.578.029-9.838.029l-.625.625a11.112,11.112,0,0,1-2.377,7.674l2.4,2.388v5.754h5.1a4.127,4.127,0,0,0,1.826-3.087h3.048a4.361,4.361,0,0,1-.611,3.3,6.558,6.558,0,0,1-3.9,3.154,7.72,7.72,0,0,1-2.669.369c-.737,0-1.474,0-2.3,0,.246,1.257,1.258,1.886,2.026,2.73.872.027,1.636.73,2.584.5,1.425-.352,2.924-.223,4.333-.733a3.647,3.647,0,0,1,1.583-.057c.565.064.858-.56,1.452-.436.711.149,1.285-.521,2.051-.41a17.762,17.762,0,0,0,2.388.023" transform="translate(-57.812 -47.033)" fill="#efc5a5"/><path d="M149.874,151.072c-1.868-3.588-5-3.205-6.455-.359,0,2.708.041,5.523-.029,8.334a2.684,2.684,0,0,0,.576,1.772c.872,1.036,1.293,2.364,2.458,3.3-.921.862-2.068,1.205-2.812,2.087-1.2-1.343-1.786-3.116-3.177-4.4h-9.226c-1.507,1.333-1.507,1.333-1.507,4.858a4.475,4.475,0,0,0,1.545,1.952c4.269,0,8.758.062,13.243-.041a5.544,5.544,0,0,0,3.539-1.143,5.178,5.178,0,0,0,1.832-4.07c.037-4.1.012-8.193.012-12.289" transform="translate(-59.867 -68.534)" fill="#ffcd58"/><path d="M96.1,168.63h3.976c.02-.733-.653-1.318-.407-2.028-.928-1.419-.113-2.654.4-3.929.534-1.329,1.813-1.72,2.9-2.349.555-.32,1.173-.037,1.735-.148a3.757,3.757,0,0,0,1.444-3.241c-.09-2.747-.026-5.5-.026-8.345H96.1Z" transform="translate(-44.356 -68.585)" fill="#dfe4e9"/><path d="M117.048,178.566a18.449,18.449,0,0,1,.209-7.329c-.293-.8-1.175-.6-1.452-1.2-1.7.86-1.7.86-2.73,3.24h-2.693c-.521.367-1.139.442-1.552,1.016v2.142a4.026,4.026,0,0,0,3.825,2.133c1.468-.015,2.936,0,4.394,0" transform="translate(-50.233 -78.485)" fill="#edc3a4"/><path d="M142.944,159.745v-2.851c0-1-.007-2.006,0-3.009a4.94,4.94,0,0,1,.373-2.635,10.843,10.843,0,0,0-6.779,8.495Z" transform="translate(-63.023 -69.813)" fill="#ffcc58"/><path d="M35.89,85.293c0-.632-.006-1.3,0-1.963a7.711,7.711,0,0,0-2.359-5.68,10.8,10.8,0,0,0-3.551-2.635,9.076,9.076,0,0,0-3.485-.832c-2.485.013-4.98-.138-7.452.041a13.977,13.977,0,0,0-7.692,2.839A13.273,13.273,0,0,0,6.7,83.8c-.055.168-.285.246-.269.5.106,1.708-.458,3.343-.438,5.071.093,8.125.081,16.252.016,24.378a25.822,25.822,0,0,0,.892,6.7,12.585,12.585,0,0,0,2.208,4.335,10.033,10.033,0,0,0,.148-2.656c.023-1.074,0-2.149.006-3.224a8.041,8.041,0,0,1,2.749-6.52c.307-.258.573-.566.87-.863v-8.174c-.553-.528-1.216-1.1-1.8-1.734-2.646-2.868-2.01-6.224.789-8.442,1.038-.025,1.2-.964,1.395-1.6.979-3.193,2.939-4.215,5.451-5.285a6,6,0,0,1,2.456-.4c4.1.02,8.193,0,12.29.019a3.715,3.715,0,0,0,2.431-.6" transform="translate(-2.767 -34.219)" fill="#ffcd58"/><path d="M38.514,122.09c-.912,0-1.781.022-2.65,0-3-.088-5.306-1.264-6.512-4.165a1.869,1.869,0,0,0-.337-.425v-2.224H32.13c-.006,1.365.842,2.246,1.839,3.135h4.587V113.1l2.907-2.833c-1.975-2.416-2.607-5.227-2.9-8.347h-2.7c-2.553,0-5.111.081-7.659-.038a10.589,10.589,0,0,0-3.038.534,3.347,3.347,0,0,0-2.317,2.139,10.768,10.768,0,0,0-.824,4.165H19.938l-1,1v1.755l3.135,3.135v9.139c2.508-.5,4.7.98,7.131.767,1.183.834,2.624.205,3.931.73a4.014,4.014,0,0,0,3.583-.664,4.913,4.913,0,0,0,1.795-2.486" transform="translate(-8.743 -47.023)" fill="#efc5a5"/><path d="M19.674,149.275c-.01.671-.522.936-.867,1.335q0,6.434,0,12.893a4.74,4.74,0,0,0,3.53,4.671,6.26,6.26,0,0,0,2.057.4q5.748-.04,11.5,0a2.993,2.993,0,0,0,2.638-1v-4.9a3.289,3.289,0,0,0-2.689-.981c-2.487.04-4.975.013-7.55.013-1.29,1.19-1.982,2.886-3.144,4.37-.53-.053-.719-.726-1.322-.843-.46-.089-.815-.762-1.377-.9-.12-.548.3-.9.494-1.239a36.587,36.587,0,0,1,2.321-3.289v-9.069c-.346-1.242-1.4-1.648-2.419-2.174-1.246-.643-2.01.489-3.169.717" transform="translate(-8.68 -68.481)" fill="#ea685c"/><path d="M60.982,178.462c1.5,0,2.567-.016,3.63,0,1.42.026,2.847.112,4.063-.886.355-.374.4-1.044,1.025-1.2v-2.213c-1.293-.905-1.293-.905-4.263-1.008a10.031,10.031,0,0,1-1.447-2.656c-.323-.194-.83-.129-1.012-.693-.515.6-1.258.452-1.71,1.488.078,2.024,1.1,4.516-.288,7.161" transform="translate(-28.148 -78.381)" fill="#edc3a4"/><path d="M43.638,159.918c-1.037-3.793-2.735-6.966-6.773-8.3a16.9,16.9,0,0,1,.376,4.065c-.056,1.391-.012,2.786-.012,4.236Z" transform="translate(-17.016 -69.983)" fill="#e9685c"/><path d="M69.807,157.351l1.869,2.75a1.036,1.036,0,0,0,.943-.881c.778-2.563,1.521-5.143,2.457-7.649a8.155,8.155,0,0,0,.377-2.176l-.974-.935c-.817-.357-1.151.478-1.787.328l-2.885,8.563" transform="translate(-32.221 -68.484)" fill="#838d9a"/><path d="M7.469,6.021,6.057,7.433q0,8.113,0,16.276c0,.64-.174,1.327.533,1.818.588.738,1.5.674,2.4.67,3.28-.011,6.559,0,9.938,0l3.3,6.452h1.126l3.313-6.452c3.427,0,6.773-.024,10.118.017a4.951,4.951,0,0,0,2.23-.5,3.521,3.521,0,0,0,.53-2.384c-.013-5.3-.006-10.6-.006-15.895-.257-.233-.526-.445-.4-.821a5.98,5.98,0,0,0-1.223-.564,6.938,6.938,0,0,0-1.4-.022Z" transform="translate(-2.788 -2.767)" fill="#dfe4e9"/><path d="M125.662,9.023a4.834,4.834,0,0,0-1.954,1.454c0,4.667,0,9.369,0,14.071l1.41,1.42h11.369c1.056,1.447,1.608,3.21,2.544,4.763.222.369.311.817.529,1.188.257.438.689.591,1.378.465,1.332-1.886,2.057-4.258,3.4-6.347H155.1a4.807,4.807,0,0,0,2.1-1.538V10.477A3.832,3.832,0,0,0,153.749,9c-9.4.039-18.809.02-28.086.02" transform="translate(-57.1 -4.155)" fill="#dfe3e8"/><path d="M139.217,108.427c-.487-.039-.915.122-1.21-.337-.458.251-1.021.318-1.431.891v1.435l.913,1.222a2.643,2.643,0,0,0,2.176-.932c.356-.815-.191-1.458-.447-2.279" transform="translate(-63.04 -49.892)" fill="#120f0d"/><path d="M46.723,109.132c-.3-1.185-1.41-.363-1.67-1.171-.443.419-1.089.437-1.455.986v1.711l1.229.876h1.008l.888-.888Z" transform="translate(-20.123 -49.832)" fill="#151210"/><path d="M14.921,20.515l-1.553-1.573-2.428,2.425L15.576,26c2.545-4.251,5.09-8.783,7.661-13.362a9.256,9.256,0,0,1-1.485-.667c-.481-.319-.752-1.027-1.646-.552l-5.186,9.092" transform="translate(-5.049 -5.199)" fill="#060707"/><path d="M40.538,12.24v3.217a.953.953,0,0,0,.136.143.327.327,0,0,0,.171.067c3.746,0,7.492,0,11.315,0V12.554l-.6-.515c-3.483,0-7.094,0-10.7.008-.107,0-.213.126-.319.193" transform="translate(-18.711 -5.557)" fill="#0d0e0f"/><path d="M40.538,24.97v2.818a.964.964,0,0,0,.139.142.337.337,0,0,0,.173.064c3.749,0,7.5,0,11.316,0V24.964a81.382,81.382,0,0,0-11.628.006" transform="translate(-18.711 -11.428)" fill="#060607"/><path d="M129.773,27.893v3.094H156.72v-2.6l-.5-.5Z" transform="translate(-59.9 -12.875)" fill="#060707"/><path d="M156.656,18.33V15.9H129.739c-.182.96.006,2-.11,3.168h2.07q11.578,0,23.157-.007c.635,0,1.388.28,1.8-.726" transform="translate(-59.833 -7.337)" fill="#060607"/></g></svg>