<svg xmlns="http://www.w3.org/2000/svg" xmlns:xlink="http://www.w3.org/1999/xlink" width="167" height="167" viewBox="0 0 167 167"><defs><clipPath id="a"><rect width="97.072" height="93.868" fill="none"/></clipPath></defs><g transform="translate(-1137.948 -7105)"><circle cx="83.5" cy="83.5" r="83.5" transform="translate(1137.948 7105)" fill="#ced371"/><g transform="translate(1172.948 7142)"><g clip-path="url(#a)"><path d="M67.1,92.332c-.169.8.6,1.02.942,1.514,1.7,0,3.406-.066,5.105.017,2.031.1,3.073-1.131,4-2.648.353-.577-.038-1.3.473-1.811-.57-.667-.113-1.684-.8-2.318-.582-.537-1.055-1.312-1.86-1.435a10.625,10.625,0,0,0-3.02-.516,10.379,10.379,0,0,1-1.3.009l-1.379-8.324h2.032q9.093,0,18.185,0a12.13,12.13,0,0,0,4.82-.469l2.26-2.256c.721-1.692.479-3.373.48-5.027q.017-26.379.011-52.759a5.106,5.106,0,0,0-1.6-4.062,6.652,6.652,0,0,0-2.682-1.3,12.1,12.1,0,0,0-3.454-.334q-21.879,0-43.758,0H43.6c0-.71.037-1.331-.007-1.946a8.877,8.877,0,0,0-1.858-5.11A11.989,11.989,0,0,0,38.646.943a14.346,14.346,0,0,0-3.4-.931c-8.966,0-17.933-.039-26.9.033A7.482,7.482,0,0,0,3.6,1.844,10.515,10.515,0,0,0,.986,4.919,7.375,7.375,0,0,0,.02,8.486C0,17.374-.023,26.262.04,35.149A7.6,7.6,0,0,0,1.815,39.9a10.261,10.261,0,0,0,3.219,2.73,7.183,7.183,0,0,0,3.415.9c2.2-.013,4.4,0,6.723,0v1.91q0,13.047-.007,26.1a4.892,4.892,0,0,0,1.453,3.579,5.351,5.351,0,0,0,4.234,1.731c7.261-.044,14.523-.019,21.785-.019.608.908-.214,1.744-.134,2.583.1,1.024-.55,1.873-.432,2.874.108.912-.667,1.725-.24,2.867a12.6,12.6,0,0,0-2.129.02c-1.329.244-2.751.272-3.78,1.389a2.775,2.775,0,0,0-1.031,2.219c.043.379-.256.529-.365.734-.177.49.329.629.384,1.029a4.484,4.484,0,0,0,2.233,2.938,2.766,2.766,0,0,0,1.741.378q11.743-.011,23.484,0c.274-.418.834-.588.94-1.135.653-1.344-.28-1.83-1.26-2.213a7.59,7.59,0,0,0-2.8-.271c-6.046-.008-12.092.007-18.138-.014a3.108,3.108,0,0,1-2.543-.615c.757-1.084,1.829-.813,2.752-.816,8.376-.028,16.752-.014,25.129-.017,1.071,0,2.142.018,3.207-.019,1.411.052,2.936-.485,4.352.743-1.258,1.328-2.7.619-3.957.8-1.325.188-2.975-.09-2.946,2.04" transform="translate(0 0)" fill="#040506"/><path d="M103.957,178.85c-.062-.387.607-.476.378-.929a3.562,3.562,0,0,1,2.655-.584c1.2-.883.848-1.766,0-2.648H75.31l-.748,1.006c-.436.56.291.967.238,1.605H98.687l1.287.76c.31.425.143.811.193,1.169.406-.066.661-.451,1.161-.4.869.085,1.752.024,2.629.024" transform="translate(-36.859 -86.518)" fill="#cfcfcf"/><path d="M77.122,45.907c0,3.847-.006,7.693,0,11.539a6.991,6.991,0,0,1-1.187,4.037c-1.405,1.99-3,3.893-5.755,4.139-.352.031-.714.389-1.174.347-.424-.039-.854-.009-1.322-.009V80.269h53.971c.278-1.5.382-27.133.118-32.793H81.894c-.383-.55-1.149-.769-.981-1.569a3.281,3.281,0,0,0-3.79,0" transform="translate(-33.524 -22.438)" fill="#fff"/><path d="M36.754,6c-8.323,0-16.647.037-24.97-.022a5.6,5.6,0,0,0-5.33,3.34,2.049,2.049,0,0,1-.377.626V39.413a13.015,13.015,0,0,0,1.481,2.355,5.588,5.588,0,0,0,4.037,1.709c8.386-.048,16.773-.022,25.159-.022a5.209,5.209,0,0,0,3.061-4.422,73.833,73.833,0,0,0,.065-10.472,1.546,1.546,0,0,0-.433-1.011,3.051,3.051,0,0,0-3.56.969c-.9,1.062-.694,2.181-.04,3.329.706,1.239.242,2.287-.7,3.222a2.635,2.635,0,0,1-3.242.695c-2.338-1.056-3.4-.635-4.373,1.762a2.732,2.732,0,0,1-2.751,1.9,2.685,2.685,0,0,1-2.708-1.938c-.84-2.284-2.068-2.8-4.215-1.789a2.691,2.691,0,0,1-3.409-.643,2.638,2.638,0,0,1-.616-3.4c1.016-2.023.5-3.36-1.626-4.13a2.9,2.9,0,0,1-.042-5.577c2.216-.809,2.653-2.038,1.6-4.273a2.577,2.577,0,0,1,.651-3.235,2.674,2.674,0,0,1,3.229-.777c2.556,1.084,3.484.708,4.477-1.821a2.639,2.639,0,0,1,2.607-1.81,2.7,2.7,0,0,1,2.715,1.67c1.27,2.769,1.928,3.049,4.581,1.934a2.589,2.589,0,0,1,3.08.707A2.672,2.672,0,0,1,35.9,17.56c-1.282,3.076.147,4.834,3.5,4.375.045-.048.116-.09.124-.142a32.586,32.586,0,0,0-.141-12.787A4.24,4.24,0,0,0,36.754,6" transform="translate(-3.01 -2.959)" fill="#f6cc65"/><path d="M107.666,131.958H36.013c.164,2.3-.313,4.526.321,6.567a3.447,3.447,0,0,0,2.584.621h68.368c1.579-2.32,1.187-4.743.379-7.189" transform="translate(-17.826 -65.355)" fill="#cfcfcf"/><path d="M40.29,103.353c-.669-.263-.989-.918-1.516-1.3V86.424H36.18v19.822c-.016-.017.021.037.072.071a.311.311,0,0,0,.163.06q35.67,0,71.342,0a2.036,2.036,0,0,0,.063-2.61,4.355,4.355,0,0,0-2.235-.214q-31.626-.016-63.252-.018a3.886,3.886,0,0,1-2.042-.186" transform="translate(-17.917 -42.803)" fill="#6462a7"/><path d="M44.32,73.925a.291.291,0,0,0,.3.371c.568.02,1.137.007,1.7.007h65.461v2.648h3.971a.9.9,0,0,0,.134-.129.312.312,0,0,0,.062-.162q0-24.162,0-48.278a4.291,4.291,0,0,0-1.835-1.376h-3.093c-.268.514,0,1.137-.339,1.667a4.735,4.735,0,0,1-2.739.37q-19.569.018-39.138.017c-1.114,0-2.291-.214-3.267.6a.291.291,0,0,0,.3.371c.567.02,1.136.007,1.7.007h44.4l1.318,1.7v40.9l-1.29,1.288Z" transform="translate(-21.947 -13.376)" fill="#3c4283"/><path d="M69.129,27.584c.629.065.365.557.367.858.019,3.688.012,7.376.012,10.673a12.256,12.256,0,0,1-2.653,4.36h2.833c2.516-1.6,2.516-1.6,3.976-3.967V9.985C72.2,7.616,72.2,7.616,69.688,6.017H66.855a12.265,12.265,0,0,1,2.653,4.36c0,3.3.007,6.985-.012,10.673,0,.3.262.793-.367.858a8.141,8.141,0,0,1,0,5.676" transform="translate(-33.111 -2.98)" fill="#de9f4b"/><path d="M105.775,152.2H89.56c-.614,2.743-1.01,5.441-1.416,8.376-.129-.225-.112-.172-.076-.139a.267.267,0,0,0,.151.083q9.346.006,18.693,0a1.368,1.368,0,0,0,.433-1c-.329-2.483-.233-5.06-1.57-7.328" transform="translate(-43.605 -75.38)" fill="#a0a0a0"/><path d="M86.38,42.494h3.79c.222-.816.222-.816,1.391-1.549h39.491V38.414H86.38Z" transform="translate(-42.782 -19.025)" fill="#cfcfcf"/><path d="M86.38,29.656h46.081c.368-.525,0-1.112.193-1.568-.208-.468-.726-.6-.791-1.081H86.38Z" transform="translate(-42.782 -13.376)" fill="#6462a7"/><path d="M47.45,100.571h7.081V86.236c-2.3-.018-4.659,0-7.081-.01Z" transform="translate(-23.501 -42.705)" fill="#e3e3e2"/><path d="M123.167,152.2a5,5,0,0,0,.356,2.1c.221.6-.283,1.37.4,1.893-.233,1.476.656,2.854.379,4.334h4.446c-.6-2.787-.772-5.554-1.526-8.324Z" transform="translate(-60.997 -75.38)" fill="#7e7e7e"/><path d="M177.593,131.958v3.956a10.8,10.8,0,0,0,.019,1.692c.1.6-.577.954-.4,1.541.628,0,1.256.009,1.883,0,.72-.013,1.481.19,2.079-.5a3.206,3.206,0,0,0,.6-2.278c-.05-1.429-.014-2.862-.014-4.407Z" transform="translate(-87.754 -65.355)" fill="#a0a0a0"/><path d="M138.915,174.688c0,.185-.08.448.013.543.7.72.364,1.408-.013,2.106h3.956c.172-.534.714-.932.562-1.751l-1.068-.9Z" transform="translate(-68.785 -86.518)" fill="#9f9f9f"/><path d="M119.2,98.464V96.791l-1.358-.828c-4.148,0-8.428.016-12.708-.014a2.765,2.765,0,0,0-2.145.9v1.615a4.434,4.434,0,0,0,2.056.545q6.052-.068,12.1,0a4.378,4.378,0,0,0,2.049-.547" transform="translate(-51.006 -47.521)" fill="#0c0d0d"/><path d="M119.2,64.733v-1.6a2.918,2.918,0,0,0-2.336-.918q-5.769.036-11.538,0a2.919,2.919,0,0,0-2.336.918v1.6a4.413,4.413,0,0,0,2.053.546q6.052-.069,12.1,0a4.413,4.413,0,0,0,2.053-.546" transform="translate(-51.007 -30.816)" fill="#0c0d0d"/><path d="M141.222,96.785v1.63c.532.164.939.618,1.6.6,1.76-.049,3.522-.017,5.283-.017h2.033l1.011-1.211c.16-.395-.493-.758-.5-1.448-.647.216-1.076-.368-1.687-.368-2.012,0-4.025-.012-6.038.007-.629.006-1.07.46-1.7.807" transform="translate(-69.943 -47.53)" fill="#0d0e0e"/><path d="M141.234,85.547v1.6c.509.2.915.641,1.577.621,1.634-.049,3.27-.016,4.905-.016h2.425l.825-1.077c.343-.507-.268-.886-.323-1.552-.6.143-1.058-.387-1.656-.392q-3.019-.024-6.038,0c-.629.005-1.085.428-1.716.817" transform="translate(-69.949 -41.958)" fill="#0d0e0e"/><path d="M141.232,74.3v1.6c.514.194.919.638,1.582.618,1.634-.049,3.27-.016,4.905-.016h2.423l.833-1.071c.334-.516-.28-.894-.334-1.562-.608.154-1.056-.385-1.657-.389q-3.019-.02-6.038,0c-.629.005-1.083.433-1.714.815" transform="translate(-69.948 -36.39)" fill="#0d0e0e"/><path d="M142.636,62.116c-.284.539-.967.376-1.288,1.009v1.522c.47.147.885.592,1.546.575,1.886-.047,3.773-.017,5.661-.017H150.2l.967-1.115c.2-.5-.448-.861-.477-1.423-2.643-.972-5.4-.224-8.055-.552" transform="translate(-70.006 -30.764)" fill="#0d0e0e"/><path d="M118.8,87.228c1.388.863,2.84.475,4.231.491,1.325.015,2.714.338,4-.483V85.62a2.835,2.835,0,0,0-2.27-.916c-1.571.044-3.143.012-4.609.012l-1.351.8Z" transform="translate(-58.838 -41.951)" fill="#0e0e0f"/><path d="M127.021,75.973V74.386a3,3,0,0,0-2.509-.927c-1.447.046-2.9.012-4.344.012-.428.317-1.014.381-1.4.916V75.98c.241.232.72.111.894.518,1.256,0,2.515.025,3.773-.007,1.2-.03,2.465.279,3.584-.517" transform="translate(-58.823 -36.381)" fill="#0e0e0f"/><path d="M42.275,30.867c.18-.661,1.078-.853,1.1-1.635V26.894l-1.1-1.7c-.622-.555-1.395-.318-2.1-.391a3.037,3.037,0,0,1-1.292-2.848l1.1-1.1V18.569l-2.514-2.415H35.242L34.5,17.166a3.2,3.2,0,0,1-3.214-1.243V14.41L29.95,13.082c-.722.279-1.2-.458-1.929-.435-.654.021-1.09.613-1.695.448l-1.45,1.533V15.8a3.048,3.048,0,0,1-2.934,1.432l-.847-1.119H18.582l-2.437,2.433v2.339l1.028.863a2.946,2.946,0,0,1-1.214,3.03H14.451l-1.268,1.265c-.316,1.267-.986,2.522-.135,3.855l1.507,1.33h1.314c1.255,1.23,1.32,1.364,1.392,2.866l-1.1,1.013v2.176l2.665,2.66h2.039l1.01-1.038c.72-.332,1.766.1,2.96,1.227v1.487l1.445,1.271c.533-.117,1.041.463,1.734.512.738.052,1.209-.706,1.931-.428l1.337-1.328V40.135a3.065,3.065,0,0,1,2.86-1.3l1.093,1.091h2.185L40,37.353V35.4l-1.1-1a3.274,3.274,0,0,1,1.28-3.14c.7-.073,1.476.164,2.1-.392" transform="translate(-6.257 -6.263)" fill="#050506"/><path d="M30.556,43.238H31.6a3.563,3.563,0,0,1,1.462-3.064A7.33,7.33,0,0,1,36.44,38.76c1.063-.152,2.022.528,3.052,1.016l.395-.361c.119-.14.066-.208-.056-.322-.6-.558-.463-1.425-.9-2.093-.378-.575.1-1.282.335-1.889.517-1.33,1.019-2.624,2.494-3.331.555-.266,1.1-.05,1.616-.376v-.868c-.089-.043-.2-.144-.3-.139a3.23,3.23,0,0,1-3.05-1.927,16.849,16.849,0,0,1-1.081-2.387,1.45,1.45,0,0,1-.04-1.09c.462-.756.4-1.742,1.095-2.374l-.539-.538a4.691,4.691,0,0,1-5.569.156c-1.374-.8-2.276-1.76-2.239-3.412-.244-.312-.592-.079-1.045-.269a3.679,3.679,0,0,1-1.456,3.186,7.664,7.664,0,0,1-3.195,1.407c-1.166.241-2.2-.578-3.264-1.011l-.411.411c-.076.089-.022.157.1.271.6.558.463,1.425.9,2.093.378.574-.1,1.282-.335,1.889-.517,1.33-1.019,2.624-2.494,3.331-.555.266-1.1.05-1.567.345-.182.285-.081.591-.065.89.1.052.212.152.314.148a3.229,3.229,0,0,1,3.05,1.927,16.849,16.849,0,0,1,1.081,2.387,1.416,1.416,0,0,1,.04,1.087c-.5.743-.316,1.783-1.119,2.351l.564.563a4.691,4.691,0,0,1,5.569-.156,3.726,3.726,0,0,1,2.236,3.561" transform="translate(-9.3 -9.191)" fill="#fafdff"/><path d="M43.132,35.564c-1.114-2.981-3.181-4.364-6.043-4.352a6,6,0,0,0-5.653,4.412c-.68,3.429.416,5.406,3.872,7.408.668.228,1.437-.263,1.96.425.529-.682,1.284-.221,1.993-.421,4.021-2.225,4.165-3.819,3.871-7.472" transform="translate(-15.475 -15.458)" fill="#060606"/><path d="M39.253,36.758C37.235,38,36.844,38.616,36.818,40.6A5.155,5.155,0,0,0,39.25,43.13a3.238,3.238,0,1,0,0-6.373" transform="translate(-18.235 -18.179)" fill="#de9f4b"/></g></g></g></svg>