<svg xmlns="http://www.w3.org/2000/svg" xmlns:xlink="http://www.w3.org/1999/xlink" width="56.573" height="60.4" viewBox="0 0 56.573 60.4"><defs><clipPath id="a"><rect width="56.573" height="60.4" transform="translate(0 0)" fill="none"/></clipPath></defs><g transform="translate(0 0)"><g clip-path="url(#a)"><path d="M45.493,59.923c.314.024.182-.265.342-.478.478.067,1.042-.156,1.544.242a3,3,0,0,1,2.44-.845,3.411,3.411,0,0,0,2.049-.291A3.874,3.874,0,0,0,53.2,55.188q-.013-11.364,0-22.726,0-7.478,0-14.955a3.686,3.686,0,0,0-.245-1.845,1.811,1.811,0,0,0-1.531-.428q-19.21-.017-38.421,0a2.123,2.123,0,0,0-1.456.352,2.1,2.1,0,0,0-.352,1.456c-.013,4.558,0,9.116-.012,13.674a3.156,3.156,0,0,0,.995,2.42c1.212,1.177,2.4,2.382,3.587,3.581a2.566,2.566,0,0,0,2.006.761c9.939-.11,19.878-.039,29.817-.041.52,0,1.123-.1,1.466.537-.234.719-.865.573-1.366.579-2.474.033-4.949.014-7.424.015q-9.841,0-19.682.006a2.638,2.638,0,0,0-1.921.386c-.073.69.43,1.065.829,1.472q2.476,2.525,5,5a3.269,3.269,0,0,1,1.083,2.625c-.034.666.01,1.336-.008,2a4.078,4.078,0,0,0,.787,3,.56.56,0,0,1,.083.76.786.786,0,0,1-.943-.249,4.012,4.012,0,0,0-2.965-.866c-3.955-.023-2.947.393-5.815-2.424-1.233-1.211-2.438-2.451-3.673-3.661a2.076,2.076,0,0,0-1.384-.834c-.495.341-.45.878-.454,1.371-.021,2.632-.056,5.266.007,7.9.06,2.548,1.38,3.818,3.9,3.821q13.908.013,27.814-.007a2.741,2.741,0,0,1,2.578,1.054" fill="#f7f2f0"/><path d="M45.493,59.923v-.817c-.179-.334-.571-.362-.9-.6-9.979,0-20.036,0-30.092,0A2,2,0,0,1,13,58.176a3.148,3.148,0,0,1-1.227-1.731,5.974,5.974,0,0,1-.234-1.083c.022-3.065.012-6.13.014-9.195a1.774,1.774,0,0,1,.022-.241l7.141,7.142H24.38c.348.349.683.734,1.068,1.06a1.121,1.121,0,0,0,1.631.054V53.12l-1.161-1.1v-5.13a2.607,2.607,0,0,0-.926-1.453q-3.165-3.169-6.333-6.336c.151-.044-.066.057.006-.082.016-.031.056-.072.085-.072q15.2,0,30.4,0A2.685,2.685,0,0,0,49.739,38a1.288,1.288,0,0,0-1.15-.948c-9.966,0-20.258,0-30.55,0-.37,0-.793-.177-.977.229L11.57,31.793V15.6H52.8c.348.35.875.3,1.312.6a6.622,6.622,0,0,1,.2,2.594,19.848,19.848,0,0,0,.073,2.56c.116.64.266,1.369,1.241,1.087.243.019.318-.369.6-.248.231-.121-.067-.551.341-.51,0-4.3,0-8.545,0-12.786a6.277,6.277,0,0,0-1.087-3.2,4.33,4.33,0,0,0-3.433-1.656c-.425.036-.856.006-1.38.006A3.444,3.444,0,0,0,49.121.338a2.837,2.837,0,0,0-3.112.274,3.144,3.144,0,0,0-.976,3.067c-.121.12-.2.2-.326.326H41.093l-.3-.3c-.088-.959.243-2-.659-2.793A3.146,3.146,0,0,0,37.546.036c-1.983.652-2.561,2.071-2.412,3.957H31.14V2.183A3.92,3.92,0,0,0,29,.038H27.462a5.828,5.828,0,0,0-2.025,2.047v1.93H21.445c.122-1.778-.317-3.288-2.48-3.969a3.312,3.312,0,0,0-1.9.425,2.251,2.251,0,0,0-1.275,2.072c.014.389,0,.779,0,1.147l-.353.354c-.415,0-.916-.009-1.417,0a3.16,3.16,0,0,0-2.409,1,10.543,10.543,0,0,0-1.12,1.3,3.32,3.32,0,0,0-.6,1.883q0,8.6,0,17.207V30.3c-1.185-1.053-2.064-2.279-3.544-2.907H4.912c-1.7.838-2.789,2.277-4.046,3.515A2.815,2.815,0,0,0,.89,35c1.328,1.339,2.665,2.668,4,4L9.9,44.008c0,3.917-.018,7.845.009,11.772a4.2,4.2,0,0,0,2.027,3.755,4.794,4.794,0,0,0,2.715.865q14.553-.014,29.1-.005H44.92c.068-.329.566-.09.573-.472" fill="#040506"/><path d="M55.63,22.435c-.5.115-.621-.385-.959-.567V15.6H52.8V56.581a7.058,7.058,0,0,1-1.178,1.928c1.037.65,1.8.047,2.49-.61a3.885,3.885,0,0,0,.962-3.05q-.01-13.723-.011-27.447a6.725,6.725,0,0,1,.566-3.317Z" fill="#f9e5d8"/><path d="M55.63,24.085c-.243-.02-.317.371-.6.248-.171.156-.075.466-.337.571V56.433c-.545.82-.856,1.856-2.01,2.075h-4.4c-.258.2-.621.23-.857.564-.1.161-.012.4-.04.615.07.338.423.439.557.708,1.32,0,2.614.008,3.907,0a4.179,4.179,0,0,0,3.1-1.321,4.659,4.659,0,0,0,1.022-1.222,5.543,5.543,0,0,0,.6-2.339q.012-15.3.005-30.6a.526.526,0,0,1-.256-.492l-.687-.331" fill="#080808"/><path d="M16.765,31.717v1.005c.114.115.2.2.3.3h32.1c.205-.295.685-.431.544-1.041a2.059,2.059,0,0,0-1.761-.836q-14.833.027-29.666,0a1.885,1.885,0,0,0-1.519.566" fill="#0b0b0b"/><path d="M16.775,26.838l.3.3h32.06c.243-.279.715-.448.551-1.11l-.676-.506H17.063l-.288.288Z" fill="#040506"/><path d="M49.171,21.217c.238-.266.7-.459.551-1.047l-.6-.541H17.064l-.3.3v1l.287.287Z" fill="#040506"/><path d="M49.5,44.261c0,.026.042-.192.2-.242.142-.374-.423-.388-.159-.685a2.368,2.368,0,0,0-1.412-.4q-9.589.02-19.178,0a3.065,3.065,0,0,0-1.3.291c-.149.164.035.51-.3.509-.073.361.33.479.257.776a2.114,2.114,0,0,0,1.4.324q9.529-.01,19.06-.006a1.366,1.366,0,0,0,1.43-.571" fill="#0a0a0a"/><path d="M51.387,5.7h-.6c-.22.23-.131.528-.1.774a3.168,3.168,0,0,1-.648,2.1,3.048,3.048,0,0,1-1.892,1.109,2.067,2.067,0,0,1-1.576-.41,2.47,2.47,0,0,1-1.558-2.4c.021-.351,0-.7,0-1.11H41.058A6.346,6.346,0,0,1,40.31,8.5a2.762,2.762,0,0,1-2.8,1.115,3.159,3.159,0,0,1-2.388-3.192c0-.227,0-.453,0-.695-.177-.015-.289-.033-.4-.033-1.174,0-2.348,0-3.6,0a5.289,5.289,0,0,1-.48,2.75c-1.415,1.686-3.261,1.71-4.66.063a4.676,4.676,0,0,1-.536-2.775H21.5c-.206.562.04,1.213-.25,1.847A4.449,4.449,0,0,1,20.3,9.056a2.57,2.57,0,0,1-1.61.62,2.732,2.732,0,0,1-2.861-2.108,3.073,3.073,0,0,1-.234-1.787,3.407,3.407,0,0,0-2.9.619,4.111,4.111,0,0,0-.917,1.46,10.992,10.992,0,0,0-.219,3.323c-.03.818-.006,1.638-.006,2.528H52.8a1.55,1.55,0,0,0,.352-1.088c.017-1.483.056-2.968-.016-4.449A2.4,2.4,0,0,0,51.387,5.7" fill="#ffc253"/><path d="M19.442,50.962l1.289-1.285c.14-.487-.223-.712-.491-.98Q14.129,42.581,8.016,36.469l-.833-.833-1.529,1.53c0-.141,0-.1,0-.063a.194.194,0,0,0,.035.1q6.859,6.865,13.752,13.757" fill="#8db9e4"/><path d="M8.954,33.752c-.341.065-.446.413-.7.576l13.83,13.828a1.191,1.191,0,0,0,.773-.729c.14-.582-.331-.846-.644-1.161Q16.278,40.3,10.307,34.36c-.351-.349-.652-.971-1.353-.608" fill="#8db8e4"/><path d="M4.947,29.508c-1.126.837-1.974,1.963-3.038,2.893v1.024l2.455,2.456c1.111-1.208,2.389-2.248,3.412-3.544a4.649,4.649,0,0,0-2.829-2.829" fill="#e677ab"/><path d="M8.954,33.752c.145.032.3-.066.439.08.212.231.441.446.663.668q6.029,6.03,12.054,12.064a2.6,2.6,0,0,1,.752.863,1.7,1.7,0,0,0,.679-.594L9.661,32.95c-.139.189-.545.388-.707.8" fill="#7ba0d5"/><path d="M51.387,5.7A3.121,3.121,0,0,1,52.8,7.431v6.28h1.762a.52.52,0,0,0,.083-.079.188.188,0,0,0,.04-.1c0-1.841,0-3.681,0-5.395a3.183,3.183,0,0,0-3.3-2.442" fill="#fdab4c"/><path d="M37.007,7.109c.063.339.411.443.579.7h.937c.3-.181.425-.494.591-1.036V2.467c-.142-.1-.365-.248-.757-.512h-.789c-.15.231-.5.335-.561.674a16.8,16.8,0,0,1,0,4.48" fill="#99b7cb"/><path d="M27.342,7.109c.064.34.412.445.58.7h.731l.551-.624V2.26c-.438-.593-1.025-.236-1.517-.354-.107.2-.356.248-.345.487a18.986,18.986,0,0,1,0,4.716" fill="#99b7cc"/><path d="M46.908,7.345c.29.51.783.476,1.315.471l.549-.71V2.254l-.3-.3H47.229c-.082.154-.332.2-.321.442q.006,2.475,0,4.951" fill="#99b7cb"/><path d="M17.677,7.345c-.012.24.237.287.33.46H19c.14-.167.316-.375.545-.65V2.466l-.729-.515H18c-.083.156-.332.2-.32.443,0,1.65,0,3.3,0,4.951" fill="#99b7cc"/><path d="M4.947,29.508a19.5,19.5,0,0,1,2.829,2.829,1.665,1.665,0,0,0,.669-.583L6.138,29.447l.141-.175c-.383,0-.767-.008-1.15.005a.18.18,0,0,0-.182.231" fill="#df659d"/><path d="M24.01,51.376V49.211l-2.164,2.165Z" fill="#efdcd0"/><path d="M17.677,7.345a.18.18,0,0,0,.231-.186q.009-2.289,0-4.58a.18.18,0,0,0-.231-.185c-.226-.018-.236.136-.236.3,0,1.313.021,2.627-.016,3.94-.008.3.214.462.252.714" fill="#a0becf"/><path d="M46.908,7.345a.181.181,0,0,0,.232-.186q.009-2.289,0-4.58a.18.18,0,0,0-.232-.185c-.041.252-.261.415-.251.721q.057,1.753,0,3.508c-.01.306.21.469.251.722" fill="#a6c3d2"/><path d="M27.342,7.109a.181.181,0,0,0,.232-.186q.009-2.172,0-4.344a.181.181,0,0,0-.232-.186Z" fill="#aac6d2"/><path d="M37.007,7.109a.181.181,0,0,0,.232-.185q.009-2.055,0-4.109a.181.181,0,0,0-.232-.186Z" fill="#aec9d4"/></g></g></svg>