<svg xmlns="http://www.w3.org/2000/svg" xmlns:xlink="http://www.w3.org/1999/xlink" width="50" height="50" viewBox="0 0 50 50"><defs><clipPath id="a"><rect width="25.665" height="25.659" fill="#12263f"/></clipPath></defs><g transform="translate(-1315 -20568)"><circle cx="25" cy="25" r="25" transform="translate(1365 20618) rotate(180)" fill="#fcc15a"/><g transform="translate(1327.206 20580.207)"><g clip-path="url(#a)"><path d="M256.455,1.091A1.346,1.346,0,0,0,255.092,0c-1.068,0-2.135,0-3.2,0V0q-1.635,0-3.27,0a1.187,1.187,0,0,0-.72.225,1.4,1.4,0,0,0-.129,2.167c.578.544,1.155,1.09,1.738,1.628.093.086.078.124,0,.2q-2.615,2.608-5.225,5.223a.781.781,0,0,0,0,1.253q.758.764,1.522,1.523a.923.923,0,0,0,.458.268.791.791,0,0,0,.739-.264c.262-.252.515-.513.772-.77q2.25-2.25,4.5-4.5c.065-.065.1-.086.173,0,.545.589,1.1,1.171,1.646,1.758a1.387,1.387,0,0,0,2.4-.883q0-3.2,0-6.405a1.628,1.628,0,0,0-.028-.334" transform="translate(-230.819 -0.001)" fill="#12263f"/><path d="M10.655,244.242a.757.757,0,0,0-.72-.24,1.026,1.026,0,0,0-.5.307q-2.612,2.612-5.222,5.226c-.077.077-.113.07-.182,0-.547-.588-1.1-1.17-1.648-1.756a1.273,1.273,0,0,0-1.456-.354A1.273,1.273,0,0,0,0,248.649q0,3.23,0,6.459a1.406,1.406,0,0,0,.041.346,1.348,1.348,0,0,0,1.35,1.038c1.068,0,2.135,0,3.2,0v0c1.1,0,2.2,0,3.3,0a1.152,1.152,0,0,0,.693-.223,1.4,1.4,0,0,0,.141-2.157q-.873-.83-1.757-1.648c-.08-.074-.075-.112,0-.185q1.307-1.3,2.609-2.606,1.318-1.318,2.635-2.637a.759.759,0,0,0,.042-1.193c-.523-.543-1.059-1.073-1.6-1.6" transform="translate(0 -230.836)" fill="#12263f"/></g></g></g></svg>