<svg xmlns="http://www.w3.org/2000/svg" xmlns:xlink="http://www.w3.org/1999/xlink" width="50" height="50" viewBox="0 0 50 50">
  <defs>
    <clipPath id="clip-path">
      <rect id="Rectángulo_296548" data-name="Rectángulo 296548" width="38.406" height="38.395" fill="#03386e"/>
    </clipPath>
  </defs>
  <g id="Grupo_879017" data-name="Grupo 879017" transform="translate(-1252 -13485.857)">
    <g id="Grupo_879013" data-name="Grupo 879013" transform="translate(-63 -7082.143)">
      <circle id="Elipse_4726" data-name="Elipse 4726" cx="25" cy="25" r="25" transform="translate(1365 20618) rotate(180)" fill="#fcc15a"/>
      <g id="Grupo_879008" data-name="Grupo 879008" transform="translate(1320.79 20573.801)">
        <g id="Grupo_879004" data-name="Grupo 879004" clip-path="url(#clip-path)">
          <path id="Trazado_591745" data-name="Trazado 591745" d="M19.2,0A19.2,19.2,0,1,0,38.406,19.209,19.166,19.166,0,0,0,19.2,0m-.007,34.785A15.587,15.587,0,1,1,19.2,3.61,15.465,15.465,0,0,1,34.787,19.193a15.465,15.465,0,0,1-15.6,15.592" transform="translate(0 0)" fill="#03386e"/>
          <path id="Trazado_591746" data-name="Trazado 591746" d="M176.291,151.993q-1.967-.009-3.934,0c-.147,0-.179-.036-.181-.18q-.027-3.167-.068-6.334a1.772,1.772,0,0,0-1.528-1.852,8.826,8.826,0,0,0-1.646-.024,1.353,1.353,0,0,0-.263.036,1.77,1.77,0,0,0-1.363,1.732q0,1.575,0,3.15h.071c0,1.1,0,2.2,0,3.3,0,.14-.034.172-.172.171-1.261-.006-2.523,0-3.784,0a3.107,3.107,0,0,0-.465.028,1.763,1.763,0,0,0-1.464,1.115,1.663,1.663,0,0,0,.34,1.87q3.353,3.62,6.705,7.24a1.858,1.858,0,0,0,2.635-.014c2.172-2.411,4.358-4.809,6.533-7.216a1.735,1.735,0,0,0,.008-2.414,1.852,1.852,0,0,0-1.428-.6" transform="translate(-150.58 -133.994)" fill="#03386e"/>
        </g>
      </g>
    </g>
  </g>
</svg>
