<svg xmlns="http://www.w3.org/2000/svg" xmlns:xlink="http://www.w3.org/1999/xlink" width="628" height="599" viewBox="0 0 628 599"><defs><filter id="a" x="0" y="0" width="628" height="599" filterUnits="userSpaceOnUse"><feOffset dy="3" input="SourceAlpha"/><feGaussianBlur stdDeviation="3" result="b"/><feFlood flood-opacity="0.161"/><feComposite operator="in" in2="b"/><feComposite in="SourceGraphic"/></filter><filter id="c" x="221" y="37" width="201.131" height="201.131" filterUnits="userSpaceOnUse"><feOffset dy="3" input="SourceAlpha"/><feGaussianBlur stdDeviation="3" result="d"/><feFlood flood-opacity="0.161"/><feComposite operator="in" in2="d"/><feComposite in="SourceGraphic"/></filter><filter id="e" x="374.052" y="208" width="201.131" height="201.131" filterUnits="userSpaceOnUse"><feOffset dy="3" input="SourceAlpha"/><feGaussianBlur stdDeviation="3" result="f"/><feFlood flood-opacity="0.161"/><feComposite operator="in" in2="f"/><feComposite in="SourceGraphic"/></filter><filter id="g" x="52" y="189" width="201.131" height="201.131" filterUnits="userSpaceOnUse"><feOffset dy="3" input="SourceAlpha"/><feGaussianBlur stdDeviation="3" result="h"/><feFlood flood-opacity="0.161"/><feComposite operator="in" in2="h"/><feComposite in="SourceGraphic"/></filter><filter id="i" x="205" y="360" width="201.131" height="201.131" filterUnits="userSpaceOnUse"><feOffset dy="3" input="SourceAlpha"/><feGaussianBlur stdDeviation="3" result="j"/><feFlood flood-opacity="0.161"/><feComposite operator="in" in2="j"/><feComposite in="SourceGraphic"/></filter><clipPath id="k"><path d="M91.006.019A98.428,98.428,0,0,0,.017,91.007a6.719,6.719,0,0,0,6.714,7.163H91.462a6.706,6.706,0,0,0,6.707-6.7V6.729A6.726,6.726,0,0,0,91.487,0c-.159,0-.319.006-.481.019" fill="#ced371"/></clipPath><clipPath id="l"><path d="M0,6.729V91.467a6.7,6.7,0,0,0,6.7,6.7H91.438a6.721,6.721,0,0,0,6.714-7.163A98.431,98.431,0,0,0,7.16.019C7,.006,6.839,0,6.679,0A6.727,6.727,0,0,0,0,6.729" fill="#ffb500"/></clipPath><clipPath id="m"><path d="M6.7,0A6.7,6.7,0,0,0,0,6.7V91.438a6.72,6.72,0,0,0,7.16,6.714A98.431,98.431,0,0,0,98.152,7.164,6.721,6.721,0,0,0,91.438,0Z" fill="#a3314f"/></clipPath><clipPath id="n"><path d="M6.731,0A6.719,6.719,0,0,0,.017,7.163,98.428,98.428,0,0,0,91.006,98.152a6.721,6.721,0,0,0,7.163-6.714V6.7A6.706,6.706,0,0,0,91.462,0Z" fill="#636363"/></clipPath><clipPath id="o"><path d="M32.805,120.674A88.424,88.424,0,1,0,121.229,32.25a88.424,88.424,0,0,0-88.424,88.424" transform="translate(-32.805 -32.25)" fill="none"/></clipPath><linearGradient id="p" x1="-0.325" y1="1.324" x2="-0.31" y2="1.324" gradientUnits="objectBoundingBox"><stop offset="0" stop-color="#fff"/><stop offset="1" stop-color="#d9d9d9"/></linearGradient><clipPath id="q"><rect width="98.608" height="98.763" fill="none"/></clipPath></defs><g transform="translate(-276 -4893)"><g transform="matrix(1, 0, 0, 1, 276, 4893)" filter="url(#a)"><rect width="610" height="581" rx="20" transform="translate(9 6)" fill="#e5dcdf"/></g><g transform="translate(7.184 90)"><g transform="translate(23.816 -55)"><g transform="matrix(1, 0, 0, 1, 245, 4858)" filter="url(#c)"><path d="M183.131,183.131H23.742A23.741,23.741,0,0,1,0,159.389V23.742A23.741,23.741,0,0,1,23.742,0H159.389a23.741,23.741,0,0,1,23.742,23.742Z" transform="translate(230 43)" fill="#eeefe4"/></g><g transform="matrix(1, 0, 0, 1, 245, 4858)" filter="url(#e)"><path d="M223.295,183.131H63.906V23.742A23.741,23.741,0,0,1,87.648,0H223.295a23.741,23.741,0,0,1,23.742,23.742V159.389a23.741,23.741,0,0,1-23.742,23.742" transform="translate(319.15 214)" fill="#fcebc3"/></g><g transform="matrix(1, 0, 0, 1, 245, 4858)" filter="url(#g)"><path d="M159.389,246.381H23.742A23.741,23.741,0,0,1,0,222.639V86.992A23.741,23.741,0,0,1,23.742,63.25H183.131V222.639a23.741,23.741,0,0,1-23.742,23.742" transform="translate(61 131.75)" fill="#e2e2e2"/></g><path d="M136.139,219.009H24.045a19.618,19.618,0,0,1-19.617-19.62V87.3a19.618,19.618,0,0,1,19.617-19.62H155.759V199.389a19.619,19.619,0,0,1-19.62,19.62" transform="translate(317.572 5001.322)" fill="#fff"/><path d="M136.79,220.558H24.7A20.544,20.544,0,0,1,4.178,200.04V87.946A20.542,20.542,0,0,1,24.7,67.428H157.308V200.04a20.544,20.544,0,0,1-20.518,20.518M24.7,69.223A18.744,18.744,0,0,0,5.973,87.946V200.04A18.744,18.744,0,0,0,24.7,218.763H136.79a18.744,18.744,0,0,0,18.722-18.722V69.223Z" transform="translate(316.545 5000.854)" fill="#ececec"/><path d="M4.428,136.139V24.045A19.618,19.618,0,0,1,24.048,4.428H136.139a19.618,19.618,0,0,1,19.62,19.617V155.759H24.048a19.621,19.621,0,0,1-19.62-19.62" transform="matrix(0.017, 1, -1, 0.017, 644.753, 4911.394)" fill="#fff"/><path d="M157.308,157.308H24.7A20.544,20.544,0,0,1,4.178,136.79V24.7A20.544,20.544,0,0,1,24.7,4.178H136.79A20.544,20.544,0,0,1,157.308,24.7ZM24.7,5.973A18.744,18.744,0,0,0,5.973,24.7V136.79A18.744,18.744,0,0,0,24.7,155.513H155.513V24.7A18.744,18.744,0,0,0,136.79,5.973Z" transform="translate(485.327 4912.131)" fill="#ececec"/><g transform="matrix(1, 0, 0, 1, 245, 4858)" filter="url(#i)"><path d="M223.295,246.381H87.648a23.741,23.741,0,0,1-23.742-23.742V63.25H223.295a23.741,23.741,0,0,1,23.742,23.742V222.639a23.741,23.741,0,0,1-23.742,23.742" transform="translate(150.09 302.75)" fill="#e5dcdf"/></g><path d="M219.665,87.3V199.392a19.618,19.618,0,0,1-19.62,19.617H87.954a19.618,19.618,0,0,1-19.62-19.617V67.678H200.045a19.621,19.621,0,0,1,19.62,19.62" transform="translate(405.976 5171.63)" fill="#fff"/><path d="M200.7,220.558H88.6A20.544,20.544,0,0,1,68.084,200.04V67.428H200.7a20.536,20.536,0,0,1,20.511,20.518V200.04A20.538,20.538,0,0,1,200.7,220.558M69.879,69.223V200.04A18.744,18.744,0,0,0,88.6,218.763H200.7a18.74,18.74,0,0,0,18.715-18.722V87.946A18.74,18.74,0,0,0,200.7,69.223Z" transform="translate(406.188 5171.384)" fill="#ececec"/><path d="M87.954,4.428H200.045a19.619,19.619,0,0,1,19.62,19.62V136.139a19.619,19.619,0,0,1-19.62,19.62H68.334V24.048a19.621,19.621,0,0,1,19.62-19.62" transform="translate(575.618 5083.312)" fill="#fff"/><path d="M200.7,157.307H68.084V24.695A20.544,20.544,0,0,1,88.6,4.177H200.7a20.538,20.538,0,0,1,20.511,20.518V136.789A20.538,20.538,0,0,1,200.7,157.307m-130.817-1.8H200.7a18.74,18.74,0,0,0,18.715-18.722V24.695A18.74,18.74,0,0,0,200.7,5.972H88.6A18.744,18.744,0,0,0,69.879,24.695Z" transform="translate(574.972 5082.66)" fill="#ececec"/><g transform="translate(573.02 5023.208) rotate(90)" clip-path="url(#k)"><rect width="139.018" height="139.018" transform="translate(-49.346 49.085) rotate(-45)" fill="#ced371"/></g><g transform="translate(684.15 5071.141) rotate(90)" clip-path="url(#l)"><rect width="139.018" height="139.018" transform="translate(-49.085 49.085) rotate(-45)" fill="#ffb500"/></g><g transform="translate(642.282 5184.841) rotate(90)" clip-path="url(#m)"><rect width="139.201" height="139.201" transform="translate(-49.215 49.215) rotate(-45)" fill="#a3314f"/></g><g transform="translate(522.938 5141.742) rotate(90)" clip-path="url(#n)"><rect width="139.201" height="139.201" transform="translate(-49.476 49.215) rotate(-45)" fill="#636363"/></g><g transform="matrix(0.017, 1, -1, 0.017, 645.932, 5063.508)" clip-path="url(#o)"><rect width="250.1" height="250.1" transform="translate(-88.424 88.424) rotate(-45)" fill="url(#p)"/></g><path d="M195.744,114.844A80.344,80.344,0,1,1,115.4,34.5a80.346,80.346,0,0,1,80.344,80.344" transform="matrix(0.017, 1, -1, 0.017, 672.162, 5036.641)" fill="#fff"/><path d="M23.875,13.211A4.025,4.025,0,0,1,22.52,16.1,4.76,4.76,0,0,1,19.3,17.156a4.28,4.28,0,0,1-3.441-1.473A6.038,6.038,0,0,1,14.6,11.641v-.7a6.819,6.819,0,0,1,.578-2.891,4.332,4.332,0,0,1,1.652-1.918,4.629,4.629,0,0,1,2.5-.668A4.637,4.637,0,0,1,22.5,6.523a4.326,4.326,0,0,1,1.391,2.961H21.547a2.376,2.376,0,0,0-.613-1.6,2.271,2.271,0,0,0-1.605-.5,1.991,1.991,0,0,0-1.754.84,4.707,4.707,0,0,0-.6,2.605V11.7a5.038,5.038,0,0,0,.559,2.7,1.954,1.954,0,0,0,1.762.852,2.314,2.314,0,0,0,1.621-.5,2.241,2.241,0,0,0,.613-1.535Zm6.141-2.547A6.134,6.134,0,0,0,29.2,10.6a1.654,1.654,0,0,0-1.68.867V17H25.266V8.547H27.4l.063,1.008a2.092,2.092,0,0,1,1.883-1.164,2.366,2.366,0,0,1,.7.1Zm4.977,6.492a4.15,4.15,0,0,1-3.027-1.141A4.054,4.054,0,0,1,30.8,12.977v-.219a5.106,5.106,0,0,1,.492-2.277,3.612,3.612,0,0,1,1.395-1.547,3.914,3.914,0,0,1,2.059-.543,3.508,3.508,0,0,1,2.73,1.094,4.444,4.444,0,0,1,1,3.1v.922H33.086a2.1,2.1,0,0,0,.66,1.328,2,2,0,0,0,1.395.5,2.437,2.437,0,0,0,2.039-.945l1.109,1.242a3.389,3.389,0,0,1-1.375,1.121A4.511,4.511,0,0,1,34.992,17.156Zm-.258-6.945a1.411,1.411,0,0,0-1.09.455,2.357,2.357,0,0,0-.535,1.3H36.25v-.181a1.681,1.681,0,0,0-.406-1.165A1.456,1.456,0,0,0,34.734,10.211ZM44.648,17a2.507,2.507,0,0,1-.227-.758,2.732,2.732,0,0,1-2.133.914,3,3,0,0,1-2.059-.719,2.312,2.312,0,0,1-.816-1.812,2.389,2.389,0,0,1,1-2.062,4.915,4.915,0,0,1,2.879-.727h1.039v-.484a1.393,1.393,0,0,0-.3-.937,1.183,1.183,0,0,0-.949-.352,1.345,1.345,0,0,0-.895.273.929.929,0,0,0-.324.75H39.6a2.268,2.268,0,0,1,.453-1.359,3,3,0,0,1,1.281-.98A4.669,4.669,0,0,1,43.2,8.391a3.689,3.689,0,0,1,2.48.785,2.747,2.747,0,0,1,.918,2.207v3.664a4.041,4.041,0,0,0,.336,1.82V17Zm-1.867-1.57a1.945,1.945,0,0,0,.922-.223,1.462,1.462,0,0,0,.625-.6V13.156h-.844q-1.7,0-1.8,1.172l-.008.133a.9.9,0,0,0,.3.7A1.153,1.153,0,0,0,42.781,15.43Zm9.063-.094a1.481,1.481,0,0,0,1.016-.344,1.2,1.2,0,0,0,.406-.914h2.117a2.9,2.9,0,0,1-.469,1.574,3.093,3.093,0,0,1-1.262,1.109,3.949,3.949,0,0,1-1.77.395A3.67,3.67,0,0,1,49.023,16a4.56,4.56,0,0,1-1.047-3.184v-.148a4.508,4.508,0,0,1,1.039-3.117,3.627,3.627,0,0,1,2.852-1.164,3.555,3.555,0,0,1,2.543.9,3.2,3.2,0,0,1,.973,2.4H53.266a1.551,1.551,0,0,0-.406-1.072,1.51,1.51,0,0,0-2.223.163,3.333,3.333,0,0,0-.4,1.866v.235a3.375,3.375,0,0,0,.4,1.878A1.377,1.377,0,0,0,51.844,15.336ZM59.055,17H56.789V8.547h2.266Zm-2.4-10.641A1.112,1.112,0,0,1,57,5.523a1.465,1.465,0,0,1,1.848,0,1.105,1.105,0,0,1,.344.836,1.108,1.108,0,0,1-.348.844A1.448,1.448,0,0,1,57,7.2,1.108,1.108,0,0,1,56.656,6.359ZM60.563,12.7a5.013,5.013,0,0,1,.484-2.242A3.546,3.546,0,0,1,62.441,8.93a4.069,4.069,0,0,1,2.113-.539,3.849,3.849,0,0,1,2.793,1.047,4.2,4.2,0,0,1,1.207,2.844l.016.578a4.418,4.418,0,0,1-1.086,3.121,4.209,4.209,0,0,1-5.832,0,4.5,4.5,0,0,1-1.09-3.187Zm2.258.16a3.16,3.16,0,0,0,.453,1.843,1.628,1.628,0,0,0,2.578.008,3.457,3.457,0,0,0,.461-2.015,3.128,3.128,0,0,0-.461-1.831,1.5,1.5,0,0,0-1.3-.649,1.474,1.474,0,0,0-1.281.646A3.516,3.516,0,0,0,62.82,12.856ZM65,5h2.461L65.3,7.422H63.461Zm7.039,3.547.07.977a2.951,2.951,0,0,1,2.43-1.133,2.453,2.453,0,0,1,2,.789,3.682,3.682,0,0,1,.672,2.359V17H74.953V11.594a1.465,1.465,0,0,0-.312-1.043,1.4,1.4,0,0,0-1.039-.324,1.553,1.553,0,0,0-1.43.813V17H69.914V8.547ZM86.063,13.8l1.563-5.258h2.422l-3.4,9.766-.187.445a2.577,2.577,0,0,1-2.5,1.656,3.552,3.552,0,0,1-1-.148V18.555l.344.008a1.857,1.857,0,0,0,.957-.2,1.283,1.283,0,0,0,.5-.648l.266-.7L82.063,8.547h2.43ZM26.824,37.336a1.481,1.481,0,0,0,1.016-.344,1.2,1.2,0,0,0,.406-.914h2.117a2.9,2.9,0,0,1-.469,1.574,3.093,3.093,0,0,1-1.262,1.109,3.949,3.949,0,0,1-1.77.395A3.67,3.67,0,0,1,24,38a4.56,4.56,0,0,1-1.047-3.184v-.148A4.508,4.508,0,0,1,24,31.555a3.627,3.627,0,0,1,2.852-1.164,3.555,3.555,0,0,1,2.543.9,3.2,3.2,0,0,1,.973,2.4H28.246a1.551,1.551,0,0,0-.406-1.072,1.51,1.51,0,0,0-2.223.163,3.333,3.333,0,0,0-.4,1.866v.235a3.375,3.375,0,0,0,.4,1.878A1.377,1.377,0,0,0,26.824,37.336ZM36.551,39a2.507,2.507,0,0,1-.227-.758,2.732,2.732,0,0,1-2.133.914,3,3,0,0,1-2.059-.719,2.312,2.312,0,0,1-.816-1.812,2.389,2.389,0,0,1,1-2.062,4.915,4.915,0,0,1,2.879-.727H36.23v-.484a1.393,1.393,0,0,0-.3-.937,1.183,1.183,0,0,0-.949-.352,1.345,1.345,0,0,0-.895.273.929.929,0,0,0-.324.75H31.5a2.268,2.268,0,0,1,.453-1.359,3,3,0,0,1,1.281-.98,4.669,4.669,0,0,1,1.859-.355,3.689,3.689,0,0,1,2.48.785,2.747,2.747,0,0,1,.918,2.207v3.664a4.041,4.041,0,0,0,.336,1.82V39Zm-1.867-1.57a1.945,1.945,0,0,0,.922-.223,1.462,1.462,0,0,0,.625-.6V35.156h-.844q-1.7,0-1.8,1.172l-.008.133a.9.9,0,0,0,.3.7A1.153,1.153,0,0,0,34.684,37.43ZM47.84,34.852a5.07,5.07,0,0,1-.887,3.129,2.843,2.843,0,0,1-2.395,1.176,2.633,2.633,0,0,1-2.07-.891V42.25H40.23v-11.7h2.094l.078.828a2.654,2.654,0,0,1,2.141-.984,2.862,2.862,0,0,1,2.43,1.156,5.207,5.207,0,0,1,.867,3.188Zm-2.258-.164a3.327,3.327,0,0,0-.418-1.82,1.361,1.361,0,0,0-1.215-.641,1.478,1.478,0,0,0-1.461.813V36.5a1.5,1.5,0,0,0,1.477.836Q45.582,37.336,45.582,34.688Zm6.359-6.219v2.078h1.445V32.2H51.941v4.219a1.007,1.007,0,0,0,.18.672.9.9,0,0,0,.688.2,3.6,3.6,0,0,0,.664-.055v1.711a4.648,4.648,0,0,1-1.367.2,2.156,2.156,0,0,1-2.422-2.4V32.2H48.449V30.547h1.234V28.469Zm7.766,9.672a2.831,2.831,0,0,1-2.312,1.016,2.67,2.67,0,0,1-2.074-.781,3.335,3.335,0,0,1-.73-2.289V30.547h2.258v5.467q0,1.322,1.2,1.322a1.63,1.63,0,0,0,1.578-.8V30.547h2.266V39H59.77Zm8.641-5.477a6.134,6.134,0,0,0-.812-.062,1.654,1.654,0,0,0-1.68.867V39H63.6V30.547H65.73l.063,1.008a2.092,2.092,0,0,1,1.883-1.164,2.366,2.366,0,0,1,.7.1ZM74.1,39a2.507,2.507,0,0,1-.227-.758,2.732,2.732,0,0,1-2.133.914,3,3,0,0,1-2.059-.719,2.312,2.312,0,0,1-.816-1.812,2.389,2.389,0,0,1,1-2.062,4.915,4.915,0,0,1,2.879-.727h1.039v-.484a1.393,1.393,0,0,0-.3-.937,1.183,1.183,0,0,0-.949-.352,1.345,1.345,0,0,0-.895.273.929.929,0,0,0-.324.75H69.051a2.268,2.268,0,0,1,.453-1.359,3,3,0,0,1,1.281-.98,4.669,4.669,0,0,1,1.859-.355,3.689,3.689,0,0,1,2.48.785,2.747,2.747,0,0,1,.918,2.207v3.664a4.041,4.041,0,0,0,.336,1.82V39ZM72.23,37.43a1.945,1.945,0,0,0,.922-.223,1.462,1.462,0,0,0,.625-.6V35.156h-.844q-1.7,0-1.8,1.172l-.008.133a.9.9,0,0,0,.3.7A1.153,1.153,0,0,0,72.23,37.43Zm5.664.461a1.137,1.137,0,0,1,.363-.875,1.412,1.412,0,0,1,1.828,0,1.137,1.137,0,0,1,.363.875,1.121,1.121,0,0,1-.359.863,1.435,1.435,0,0,1-1.836,0A1.121,1.121,0,0,1,77.895,37.891Z" transform="translate(514 4971)" fill="#12263f"/><path d="M37.375,14.656H33.266L32.484,17H29.992L34.227,5.625H36.4L40.656,17H38.164Zm-3.477-1.9h2.844L35.313,8.5Zm9.375-4.211.07.977a2.951,2.951,0,0,1,2.43-1.133,2.453,2.453,0,0,1,2,.789,3.682,3.682,0,0,1,.672,2.359V17H46.188V11.594a1.465,1.465,0,0,0-.312-1.043,1.4,1.4,0,0,0-1.039-.324,1.553,1.553,0,0,0-1.43.813V17H41.148V8.547ZM55.055,17a2.507,2.507,0,0,1-.227-.758,2.732,2.732,0,0,1-2.133.914,3,3,0,0,1-2.059-.719,2.312,2.312,0,0,1-.816-1.812,2.389,2.389,0,0,1,1-2.062,4.915,4.915,0,0,1,2.879-.727h1.039v-.484a1.393,1.393,0,0,0-.3-.937,1.183,1.183,0,0,0-.949-.352,1.345,1.345,0,0,0-.895.273.929.929,0,0,0-.324.75H50.008a2.268,2.268,0,0,1,.453-1.359,3,3,0,0,1,1.281-.98A4.669,4.669,0,0,1,53.6,8.391a3.689,3.689,0,0,1,2.48.785A2.747,2.747,0,0,1,57,11.383v3.664a4.041,4.041,0,0,0,.336,1.82V17Zm-1.867-1.57a1.945,1.945,0,0,0,.922-.223,1.462,1.462,0,0,0,.625-.6V13.156h-.844q-1.7,0-1.8,1.172l-.008.133a.9.9,0,0,0,.3.7A1.153,1.153,0,0,0,53.188,15.43ZM54.047,5h2.461L54.344,7.422H52.508Zm7.07,12H58.852V5h2.266Zm4.242,0H63.094V8.547h2.266Zm-2.4-10.641a1.112,1.112,0,0,1,.34-.836,1.465,1.465,0,0,1,1.848,0,1.105,1.105,0,0,1,.344.836,1.108,1.108,0,0,1-.348.844,1.448,1.448,0,0,1-1.836,0A1.108,1.108,0,0,1,62.961,6.359Zm8.836,8.3a.727.727,0,0,0-.41-.652,4.659,4.659,0,0,0-1.316-.426q-3.016-.633-3.016-2.562a2.323,2.323,0,0,1,.934-1.879,3.766,3.766,0,0,1,2.441-.754A4.053,4.053,0,0,1,73,9.148a2.388,2.388,0,0,1,.965,1.969H71.711a1.092,1.092,0,0,0-.312-.8A1.322,1.322,0,0,0,70.422,10a1.351,1.351,0,0,0-.883.258.814.814,0,0,0-.312.656.7.7,0,0,0,.355.605,3.657,3.657,0,0,0,1.2.4A9.8,9.8,0,0,1,72.2,12.3a2.336,2.336,0,0,1,1.789,2.273A2.2,2.2,0,0,1,73,16.441a4.28,4.28,0,0,1-2.562.715,4.47,4.47,0,0,1-1.887-.379,3.166,3.166,0,0,1-1.293-1.039,2.414,2.414,0,0,1-.469-1.426H68.93a1.179,1.179,0,0,0,.445.922,1.766,1.766,0,0,0,1.109.32,1.635,1.635,0,0,0,.98-.246A.766.766,0,0,0,71.8,14.664ZM77.828,17H75.563V8.547h2.266ZM75.43,6.359a1.112,1.112,0,0,1,.34-.836,1.465,1.465,0,0,1,1.848,0,1.105,1.105,0,0,1,.344.836,1.108,1.108,0,0,1-.348.844,1.448,1.448,0,0,1-1.836,0A1.108,1.108,0,0,1,75.43,6.359Zm8.836,8.3a.727.727,0,0,0-.41-.652,4.659,4.659,0,0,0-1.316-.426q-3.016-.633-3.016-2.562a2.323,2.323,0,0,1,.934-1.879A3.766,3.766,0,0,1,82.9,8.391a4.053,4.053,0,0,1,2.574.758,2.388,2.388,0,0,1,.965,1.969H84.18a1.092,1.092,0,0,0-.312-.8A1.322,1.322,0,0,0,82.891,10a1.351,1.351,0,0,0-.883.258.814.814,0,0,0-.312.656.7.7,0,0,0,.355.605,3.657,3.657,0,0,0,1.2.4,9.8,9.8,0,0,1,1.422.379,2.336,2.336,0,0,1,1.789,2.273,2.2,2.2,0,0,1-.992,1.871,4.28,4.28,0,0,1-2.562.715,4.47,4.47,0,0,1-1.887-.379,3.166,3.166,0,0,1-1.293-1.039,2.414,2.414,0,0,1-.469-1.426H81.4a1.179,1.179,0,0,0,.445.922,1.766,1.766,0,0,0,1.109.32,1.635,1.635,0,0,0,.98-.246A.766.766,0,0,0,84.266,14.664ZM95.055,13.8l1.563-5.258h2.422l-3.4,9.766-.187.445a2.577,2.577,0,0,1-2.5,1.656,3.552,3.552,0,0,1-1-.148V18.555l.344.008a1.857,1.857,0,0,0,.957-.2,1.283,1.283,0,0,0,.5-.648l.266-.7L91.055,8.547h2.43ZM16.6,39.156a4.15,4.15,0,0,1-3.027-1.141,4.054,4.054,0,0,1-1.168-3.039v-.219A5.106,5.106,0,0,1,12.9,32.48a3.612,3.612,0,0,1,1.395-1.547,3.914,3.914,0,0,1,2.059-.543,3.508,3.508,0,0,1,2.73,1.094,4.444,4.444,0,0,1,1,3.1v.922H14.7a2.1,2.1,0,0,0,.66,1.328,2,2,0,0,0,1.395.5,2.437,2.437,0,0,0,2.039-.945L19.9,37.633a3.389,3.389,0,0,1-1.375,1.121A4.511,4.511,0,0,1,16.6,39.156Zm-.258-6.945a1.411,1.411,0,0,0-1.09.455,2.357,2.357,0,0,0-.535,1.3h3.141v-.181a1.681,1.681,0,0,0-.406-1.165A1.456,1.456,0,0,0,16.344,32.211Zm8.234.859L26,30.547h2.414l-2.406,4.141L28.516,39H26.094l-1.508-2.656L23.086,39h-2.43l2.508-4.312-2.4-4.141h2.422Zm12.531,1.781a5.07,5.07,0,0,1-.887,3.129,2.843,2.843,0,0,1-2.395,1.176,2.633,2.633,0,0,1-2.07-.891V42.25H29.5v-11.7h2.094l.078.828a2.654,2.654,0,0,1,2.141-.984,2.862,2.862,0,0,1,2.43,1.156,5.207,5.207,0,0,1,.867,3.188Zm-2.258-.164a3.327,3.327,0,0,0-.418-1.82,1.361,1.361,0,0,0-1.215-.641,1.478,1.478,0,0,0-1.461.813V36.5a1.5,1.5,0,0,0,1.477.836Q34.852,37.336,34.852,34.688ZM40.891,39H38.625V27h2.266ZM42.4,34.7a5.013,5.013,0,0,1,.484-2.242,3.546,3.546,0,0,1,1.395-1.523,4.069,4.069,0,0,1,2.113-.539,3.849,3.849,0,0,1,2.793,1.047,4.2,4.2,0,0,1,1.207,2.844l.016.578A4.418,4.418,0,0,1,49.32,37.98a4.209,4.209,0,0,1-5.832,0A4.5,4.5,0,0,1,42.4,34.8Zm2.258.16a3.16,3.16,0,0,0,.453,1.843,1.628,1.628,0,0,0,2.578.008,3.457,3.457,0,0,0,.461-2.015,3.128,3.128,0,0,0-.461-1.831,1.5,1.5,0,0,0-1.3-.649,1.474,1.474,0,0,0-1.281.646A3.516,3.516,0,0,0,44.656,34.856ZM54.5,28.469v2.078h1.445V32.2H54.5v4.219a1.007,1.007,0,0,0,.18.672.9.9,0,0,0,.688.2,3.6,3.6,0,0,0,.664-.055v1.711a4.648,4.648,0,0,1-1.367.2,2.156,2.156,0,0,1-2.422-2.4V32.2H51.008V30.547h1.234V28.469ZM62.1,39a2.507,2.507,0,0,1-.227-.758,2.732,2.732,0,0,1-2.133.914,3,3,0,0,1-2.059-.719,2.312,2.312,0,0,1-.816-1.812,2.389,2.389,0,0,1,1-2.062,4.915,4.915,0,0,1,2.879-.727h1.039v-.484a1.393,1.393,0,0,0-.3-.937,1.183,1.183,0,0,0-.949-.352,1.345,1.345,0,0,0-.895.273.929.929,0,0,0-.324.75H57.055a2.268,2.268,0,0,1,.453-1.359,3,3,0,0,1,1.281-.98,4.669,4.669,0,0,1,1.859-.355,3.689,3.689,0,0,1,2.48.785,2.747,2.747,0,0,1,.918,2.207v3.664a4.041,4.041,0,0,0,.336,1.82V39Zm-1.867-1.57a1.945,1.945,0,0,0,.922-.223,1.462,1.462,0,0,0,.625-.6V35.156h-.844q-1.7,0-1.8,1.172l-.008.133a.9.9,0,0,0,.3.7A1.153,1.153,0,0,0,60.234,37.43Zm9.063-.094a1.481,1.481,0,0,0,1.016-.344,1.2,1.2,0,0,0,.406-.914h2.117a2.9,2.9,0,0,1-.469,1.574,3.093,3.093,0,0,1-1.262,1.109,3.949,3.949,0,0,1-1.77.395A3.67,3.67,0,0,1,66.477,38,4.56,4.56,0,0,1,65.43,34.82v-.148a4.508,4.508,0,0,1,1.039-3.117,3.627,3.627,0,0,1,2.852-1.164,3.555,3.555,0,0,1,2.543.9,3.2,3.2,0,0,1,.973,2.4H70.719a1.551,1.551,0,0,0-.406-1.072,1.51,1.51,0,0,0-2.223.163,3.333,3.333,0,0,0-.4,1.866v.235a3.375,3.375,0,0,0,.4,1.878A1.377,1.377,0,0,0,69.3,37.336ZM76.508,39H74.242V30.547h2.266Zm-2.4-10.641a1.112,1.112,0,0,1,.34-.836,1.465,1.465,0,0,1,1.848,0,1.193,1.193,0,0,1,0,1.68,1.448,1.448,0,0,1-1.836,0A1.108,1.108,0,0,1,74.109,28.359ZM78.016,34.7a5.013,5.013,0,0,1,.484-2.242,3.546,3.546,0,0,1,1.395-1.523,4.069,4.069,0,0,1,2.113-.539A3.849,3.849,0,0,1,84.8,31.438a4.2,4.2,0,0,1,1.207,2.844l.016.578a4.418,4.418,0,0,1-1.086,3.121,4.209,4.209,0,0,1-5.832,0,4.5,4.5,0,0,1-1.09-3.187Zm2.258.16a3.16,3.16,0,0,0,.453,1.843,1.628,1.628,0,0,0,2.578.008,3.457,3.457,0,0,0,.461-2.015A3.128,3.128,0,0,0,83.3,32.86a1.5,1.5,0,0,0-1.3-.649,1.474,1.474,0,0,0-1.281.646A3.516,3.516,0,0,0,80.273,34.856ZM82.453,27h2.461L82.75,29.422H80.914Zm7.039,3.547.07.977a2.951,2.951,0,0,1,2.43-1.133,2.453,2.453,0,0,1,2,.789,3.682,3.682,0,0,1,.672,2.359V39H92.406V33.594a1.465,1.465,0,0,0-.312-1.043,1.4,1.4,0,0,0-1.039-.324,1.553,1.553,0,0,0-1.43.813V39H87.367V30.547Zm10.516,4.164a5.094,5.094,0,0,1,.887-3.148,2.877,2.877,0,0,1,2.426-1.172,2.589,2.589,0,0,1,2.039.922V27h2.266V39h-2.039l-.109-.9a2.657,2.657,0,0,1-2.172,1.055,2.869,2.869,0,0,1-2.395-1.176A5.258,5.258,0,0,1,100.008,34.711Zm2.258.168a3.337,3.337,0,0,0,.414,1.823,1.349,1.349,0,0,0,1.2.634,1.511,1.511,0,0,0,1.477-.884V33.111a1.489,1.489,0,0,0-1.461-.884Q102.266,32.227,102.266,34.879Zm11,4.277a4.15,4.15,0,0,1-3.027-1.141,4.054,4.054,0,0,1-1.168-3.039v-.219a5.106,5.106,0,0,1,.492-2.277,3.612,3.612,0,0,1,1.395-1.547,3.914,3.914,0,0,1,2.059-.543,3.508,3.508,0,0,1,2.73,1.094,4.444,4.444,0,0,1,1,3.1v.922h-5.383a2.1,2.1,0,0,0,.66,1.328,2,2,0,0,0,1.395.5,2.437,2.437,0,0,0,2.039-.945l1.109,1.242a3.389,3.389,0,0,1-1.375,1.121A4.511,4.511,0,0,1,113.266,39.156Zm-.258-6.945a1.411,1.411,0,0,0-1.09.455,2.357,2.357,0,0,0-.535,1.3h3.141v-.181a1.681,1.681,0,0,0-.406-1.165A1.456,1.456,0,0,0,113.008,32.211Zm-70.336,24.5a5.094,5.094,0,0,1,.887-3.148,2.877,2.877,0,0,1,2.426-1.172,2.589,2.589,0,0,1,2.039.922V49h2.266V61H48.25l-.109-.9a2.657,2.657,0,0,1-2.172,1.055,2.869,2.869,0,0,1-2.395-1.176A5.258,5.258,0,0,1,42.672,56.711Zm2.258.168a3.337,3.337,0,0,0,.414,1.823,1.349,1.349,0,0,0,1.2.634,1.511,1.511,0,0,0,1.477-.884V55.111a1.489,1.489,0,0,0-1.461-.884Q44.93,54.227,44.93,56.879ZM56.938,61a2.507,2.507,0,0,1-.227-.758,2.732,2.732,0,0,1-2.133.914,3,3,0,0,1-2.059-.719,2.312,2.312,0,0,1-.816-1.812,2.389,2.389,0,0,1,1-2.062,4.915,4.915,0,0,1,2.879-.727h1.039v-.484a1.393,1.393,0,0,0-.3-.937,1.183,1.183,0,0,0-.949-.352,1.345,1.345,0,0,0-.895.273.929.929,0,0,0-.324.75H51.891a2.268,2.268,0,0,1,.453-1.359,3,3,0,0,1,1.281-.98,4.669,4.669,0,0,1,1.859-.355,3.689,3.689,0,0,1,2.48.785,2.747,2.747,0,0,1,.918,2.207v3.664a4.041,4.041,0,0,0,.336,1.82V61ZM55.07,59.43a1.945,1.945,0,0,0,.922-.223,1.462,1.462,0,0,0,.625-.6V57.156h-.844q-1.7,0-1.8,1.172l-.008.133a.9.9,0,0,0,.3.7A1.153,1.153,0,0,0,55.07,59.43Zm8.25-8.961v2.078h1.445V54.2H63.32v4.219a1.007,1.007,0,0,0,.18.672.9.9,0,0,0,.688.2,3.6,3.6,0,0,0,.664-.055v1.711a4.648,4.648,0,0,1-1.367.2,2.156,2.156,0,0,1-2.422-2.4V54.2H59.828V52.547h1.234V50.469ZM65.438,56.7a5.013,5.013,0,0,1,.484-2.242,3.546,3.546,0,0,1,1.395-1.523,4.069,4.069,0,0,1,2.113-.539,3.849,3.849,0,0,1,2.793,1.047,4.2,4.2,0,0,1,1.207,2.844l.016.578a4.418,4.418,0,0,1-1.086,3.121,4.209,4.209,0,0,1-5.832,0,4.5,4.5,0,0,1-1.09-3.187Zm2.258.16a3.16,3.16,0,0,0,.453,1.843,1.628,1.628,0,0,0,2.578.008,3.457,3.457,0,0,0,.461-2.015,3.128,3.128,0,0,0-.461-1.831,1.5,1.5,0,0,0-1.3-.649,1.474,1.474,0,0,0-1.281.646A3.516,3.516,0,0,0,67.7,56.856Zm11.719,1.808a.727.727,0,0,0-.41-.652,4.659,4.659,0,0,0-1.316-.426q-3.016-.633-3.016-2.562a2.323,2.323,0,0,1,.934-1.879,3.766,3.766,0,0,1,2.441-.754,4.053,4.053,0,0,1,2.574.758,2.388,2.388,0,0,1,.965,1.969H79.328a1.092,1.092,0,0,0-.312-.8A1.322,1.322,0,0,0,78.039,54a1.351,1.351,0,0,0-.883.258.814.814,0,0,0-.312.656.7.7,0,0,0,.355.605,3.657,3.657,0,0,0,1.2.4,9.8,9.8,0,0,1,1.422.379,2.336,2.336,0,0,1,1.789,2.273,2.2,2.2,0,0,1-.992,1.871,4.28,4.28,0,0,1-2.562.715,4.47,4.47,0,0,1-1.887-.379,3.166,3.166,0,0,1-1.293-1.039,2.414,2.414,0,0,1-.469-1.426h2.141a1.179,1.179,0,0,0,.445.922,1.766,1.766,0,0,0,1.109.32,1.635,1.635,0,0,0,.98-.246A.766.766,0,0,0,79.414,58.664Zm3.766,1.227a1.137,1.137,0,0,1,.363-.875,1.412,1.412,0,0,1,1.828,0,1.137,1.137,0,0,1,.363.875,1.121,1.121,0,0,1-.359.863,1.435,1.435,0,0,1-1.836,0A1.121,1.121,0,0,1,83.18,59.891Z" transform="translate(661 5131)" fill="#12263f"/><path d="M28.461,7.523H24.977V17H22.633V7.523H19.2v-1.9h9.266Zm5.43,3.141a6.134,6.134,0,0,0-.812-.062,1.654,1.654,0,0,0-1.68.867V17H29.141V8.547h2.133l.063,1.008a2.092,2.092,0,0,1,1.883-1.164,2.366,2.366,0,0,1,.7.1ZM39.641,17a2.507,2.507,0,0,1-.227-.758,2.732,2.732,0,0,1-2.133.914,3,3,0,0,1-2.059-.719,2.312,2.312,0,0,1-.816-1.812,2.389,2.389,0,0,1,1-2.062,4.915,4.915,0,0,1,2.879-.727H39.32v-.484a1.393,1.393,0,0,0-.3-.937,1.183,1.183,0,0,0-.949-.352,1.345,1.345,0,0,0-.895.273.929.929,0,0,0-.324.75H34.594a2.268,2.268,0,0,1,.453-1.359,3,3,0,0,1,1.281-.98,4.669,4.669,0,0,1,1.859-.355,3.689,3.689,0,0,1,2.48.785,2.747,2.747,0,0,1,.918,2.207v3.664a4.041,4.041,0,0,0,.336,1.82V17Zm-1.867-1.57a1.945,1.945,0,0,0,.922-.223,1.462,1.462,0,0,0,.625-.6V13.156h-.844q-1.7,0-1.8,1.172l-.008.133a.9.9,0,0,0,.3.7A1.153,1.153,0,0,0,37.773,15.43ZM45.4,8.547l.07.977A2.951,2.951,0,0,1,47.9,8.391a2.453,2.453,0,0,1,2,.789,3.682,3.682,0,0,1,.672,2.359V17H48.313V11.594A1.465,1.465,0,0,0,48,10.551a1.4,1.4,0,0,0-1.039-.324,1.553,1.553,0,0,0-1.43.813V17H43.273V8.547Zm11.461,6.117a.727.727,0,0,0-.41-.652,4.659,4.659,0,0,0-1.316-.426q-3.016-.633-3.016-2.562a2.323,2.323,0,0,1,.934-1.879,3.766,3.766,0,0,1,2.441-.754,4.053,4.053,0,0,1,2.574.758,2.388,2.388,0,0,1,.965,1.969H56.773a1.092,1.092,0,0,0-.312-.8A1.322,1.322,0,0,0,55.484,10a1.351,1.351,0,0,0-.883.258.814.814,0,0,0-.312.656.7.7,0,0,0,.355.605,3.657,3.657,0,0,0,1.2.4,9.8,9.8,0,0,1,1.422.379,2.336,2.336,0,0,1,1.789,2.273,2.2,2.2,0,0,1-.992,1.871,4.28,4.28,0,0,1-2.562.715,4.47,4.47,0,0,1-1.887-.379,3.166,3.166,0,0,1-1.293-1.039,2.414,2.414,0,0,1-.469-1.426h2.141a1.179,1.179,0,0,0,.445.922,1.766,1.766,0,0,0,1.109.32,1.635,1.635,0,0,0,.98-.246A.766.766,0,0,0,56.859,14.664Zm5.766-6.117.07.945a2.971,2.971,0,0,1,2.43-1.1A2.255,2.255,0,0,1,67.367,9.68a2.9,2.9,0,0,1,2.539-1.289,2.521,2.521,0,0,1,2.047.8,3.681,3.681,0,0,1,.672,2.41V17H70.359V11.609a1.61,1.61,0,0,0-.281-1.051,1.246,1.246,0,0,0-.992-.332,1.409,1.409,0,0,0-1.406.969l.008,5.8H65.43V11.617a1.59,1.59,0,0,0-.289-1.062,1.259,1.259,0,0,0-.984-.328,1.463,1.463,0,0,0-1.391.8V17H60.508V8.547ZM76.742,17H74.477V8.547h2.266Zm-2.4-10.641a1.112,1.112,0,0,1,.34-.836,1.465,1.465,0,0,1,1.848,0,1.105,1.105,0,0,1,.344.836,1.108,1.108,0,0,1-.348.844,1.448,1.448,0,0,1-1.836,0A1.108,1.108,0,0,1,74.344,6.359Zm8.836,8.3a.727.727,0,0,0-.41-.652,4.659,4.659,0,0,0-1.316-.426q-3.016-.633-3.016-2.562a2.323,2.323,0,0,1,.934-1.879,3.766,3.766,0,0,1,2.441-.754,4.053,4.053,0,0,1,2.574.758,2.388,2.388,0,0,1,.965,1.969H83.094a1.092,1.092,0,0,0-.312-.8A1.322,1.322,0,0,0,81.8,10a1.351,1.351,0,0,0-.883.258.814.814,0,0,0-.312.656.7.7,0,0,0,.355.605,3.657,3.657,0,0,0,1.2.4,9.8,9.8,0,0,1,1.422.379,2.336,2.336,0,0,1,1.789,2.273,2.2,2.2,0,0,1-.992,1.871,4.28,4.28,0,0,1-2.562.715,4.47,4.47,0,0,1-1.887-.379,3.166,3.166,0,0,1-1.293-1.039,2.414,2.414,0,0,1-.469-1.426h2.141a1.179,1.179,0,0,0,.445.922,1.766,1.766,0,0,0,1.109.32,1.635,1.635,0,0,0,.98-.246A.766.766,0,0,0,83.18,14.664ZM89.211,17H86.945V8.547h2.266Zm-2.4-10.641a1.112,1.112,0,0,1,.34-.836,1.465,1.465,0,0,1,1.848,0,1.105,1.105,0,0,1,.344.836A1.108,1.108,0,0,1,89,7.2a1.448,1.448,0,0,1-1.836,0A1.108,1.108,0,0,1,86.813,6.359ZM90.719,12.7a5.013,5.013,0,0,1,.484-2.242A3.546,3.546,0,0,1,92.6,8.93a4.069,4.069,0,0,1,2.113-.539A3.849,3.849,0,0,1,97.5,9.438a4.2,4.2,0,0,1,1.207,2.844l.016.578a4.418,4.418,0,0,1-1.086,3.121,4.209,4.209,0,0,1-5.832,0,4.5,4.5,0,0,1-1.09-3.187Zm2.258.16A3.16,3.16,0,0,0,93.43,14.7a1.628,1.628,0,0,0,2.578.008,3.457,3.457,0,0,0,.461-2.015,3.128,3.128,0,0,0-.461-1.831,1.5,1.5,0,0,0-1.3-.649,1.474,1.474,0,0,0-1.281.646A3.516,3.516,0,0,0,92.977,12.856ZM95.156,5h2.461L95.453,7.422H93.617ZM102.2,8.547l.07.977a2.951,2.951,0,0,1,2.43-1.133,2.453,2.453,0,0,1,2,.789,3.682,3.682,0,0,1,.672,2.359V17h-2.258V11.594a1.465,1.465,0,0,0-.312-1.043,1.4,1.4,0,0,0-1.039-.324,1.553,1.553,0,0,0-1.43.813V17H100.07V8.547Zm7.469,11.3-1.18-.617.281-.508a4.059,4.059,0,0,0,.539-1.9v-1.75h1.906l-.008,1.563a4.059,4.059,0,0,1-.437,1.75A4.486,4.486,0,0,1,109.664,19.852ZM11.414,39a2.507,2.507,0,0,1-.227-.758,2.732,2.732,0,0,1-2.133.914A3,3,0,0,1,7,38.438a2.312,2.312,0,0,1-.816-1.812,2.389,2.389,0,0,1,1-2.062,4.915,4.915,0,0,1,2.879-.727h1.039v-.484a1.393,1.393,0,0,0-.3-.937,1.183,1.183,0,0,0-.949-.352,1.345,1.345,0,0,0-.895.273.929.929,0,0,0-.324.75H6.367a2.268,2.268,0,0,1,.453-1.359,3,3,0,0,1,1.281-.98,4.669,4.669,0,0,1,1.859-.355,3.689,3.689,0,0,1,2.48.785,2.747,2.747,0,0,1,.918,2.207v3.664a4.041,4.041,0,0,0,.336,1.82V39ZM9.547,37.43a1.945,1.945,0,0,0,.922-.223,1.462,1.462,0,0,0,.625-.6V35.156H10.25q-1.7,0-1.8,1.172l-.008.133a.9.9,0,0,0,.3.7A1.153,1.153,0,0,0,9.547,37.43ZM17.477,39H15.211V27h2.266Zm3.977-8.453.07.945a2.971,2.971,0,0,1,2.43-1.1A2.255,2.255,0,0,1,26.2,31.68a2.9,2.9,0,0,1,2.539-1.289,2.521,2.521,0,0,1,2.047.8,3.681,3.681,0,0,1,.672,2.41V39H29.188V33.609a1.61,1.61,0,0,0-.281-1.051,1.246,1.246,0,0,0-.992-.332,1.409,1.409,0,0,0-1.406.969l.008,5.8H24.258V33.617a1.59,1.59,0,0,0-.289-1.062,1.259,1.259,0,0,0-.984-.328,1.463,1.463,0,0,0-1.391.8V39H19.336V30.547ZM38.086,39a2.507,2.507,0,0,1-.227-.758,2.732,2.732,0,0,1-2.133.914,3,3,0,0,1-2.059-.719,2.312,2.312,0,0,1-.816-1.812,2.389,2.389,0,0,1,1-2.062,4.915,4.915,0,0,1,2.879-.727h1.039v-.484a1.393,1.393,0,0,0-.3-.937,1.183,1.183,0,0,0-.949-.352,1.345,1.345,0,0,0-.895.273.929.929,0,0,0-.324.75H33.039a2.268,2.268,0,0,1,.453-1.359,3,3,0,0,1,1.281-.98,4.669,4.669,0,0,1,1.859-.355,3.689,3.689,0,0,1,2.48.785,2.747,2.747,0,0,1,.918,2.207v3.664a4.041,4.041,0,0,0,.336,1.82V39Zm-1.867-1.57a1.945,1.945,0,0,0,.922-.223,1.462,1.462,0,0,0,.625-.6V35.156h-.844q-1.7,0-1.8,1.172l-.008.133a.9.9,0,0,0,.3.7A1.153,1.153,0,0,0,36.219,37.43Zm9.063-.094a1.481,1.481,0,0,0,1.016-.344,1.2,1.2,0,0,0,.406-.914H48.82a2.9,2.9,0,0,1-.469,1.574,3.093,3.093,0,0,1-1.262,1.109,3.949,3.949,0,0,1-1.77.395A3.67,3.67,0,0,1,42.461,38a4.56,4.56,0,0,1-1.047-3.184v-.148a4.508,4.508,0,0,1,1.039-3.117A3.627,3.627,0,0,1,45.3,30.391a3.555,3.555,0,0,1,2.543.9,3.2,3.2,0,0,1,.973,2.4H46.7a1.551,1.551,0,0,0-.406-1.072,1.51,1.51,0,0,0-2.223.163,3.333,3.333,0,0,0-.4,1.866v.235a3.375,3.375,0,0,0,.4,1.878A1.377,1.377,0,0,0,45.281,37.336ZM54,39.156a4.15,4.15,0,0,1-3.027-1.141A4.054,4.054,0,0,1,49.8,34.977v-.219A5.106,5.106,0,0,1,50.3,32.48a3.612,3.612,0,0,1,1.395-1.547,3.914,3.914,0,0,1,2.059-.543,3.508,3.508,0,0,1,2.73,1.094,4.444,4.444,0,0,1,1,3.1v.922H52.094a2.1,2.1,0,0,0,.66,1.328,2,2,0,0,0,1.395.5,2.437,2.437,0,0,0,2.039-.945L57.3,37.633a3.389,3.389,0,0,1-1.375,1.121A4.511,4.511,0,0,1,54,39.156Zm-.258-6.945a1.411,1.411,0,0,0-1.09.455,2.357,2.357,0,0,0-.535,1.3h3.141v-.181a1.681,1.681,0,0,0-.406-1.165A1.456,1.456,0,0,0,53.742,32.211Zm7.094-1.664.07.977a2.951,2.951,0,0,1,2.43-1.133,2.453,2.453,0,0,1,2,.789,3.682,3.682,0,0,1,.672,2.359V39H63.75V33.594a1.465,1.465,0,0,0-.312-1.043,1.4,1.4,0,0,0-1.039-.324,1.553,1.553,0,0,0-1.43.813V39H58.711V30.547ZM72.617,39a2.507,2.507,0,0,1-.227-.758,2.732,2.732,0,0,1-2.133.914,3,3,0,0,1-2.059-.719,2.312,2.312,0,0,1-.816-1.812,2.389,2.389,0,0,1,1-2.062,4.915,4.915,0,0,1,2.879-.727H72.3v-.484a1.393,1.393,0,0,0-.3-.937,1.183,1.183,0,0,0-.949-.352,1.345,1.345,0,0,0-.895.273.929.929,0,0,0-.324.75H67.57a2.268,2.268,0,0,1,.453-1.359,3,3,0,0,1,1.281-.98,4.669,4.669,0,0,1,1.859-.355,3.689,3.689,0,0,1,2.48.785,2.747,2.747,0,0,1,.918,2.207v3.664a4.041,4.041,0,0,0,.336,1.82V39ZM70.75,37.43a1.945,1.945,0,0,0,.922-.223,1.462,1.462,0,0,0,.625-.6V35.156h-.844q-1.7,0-1.8,1.172l-.008.133a.9.9,0,0,0,.3.7A1.153,1.153,0,0,0,70.75,37.43Zm7.664-6.883.07.945a2.971,2.971,0,0,1,2.43-1.1,2.255,2.255,0,0,1,2.242,1.289A2.9,2.9,0,0,1,85.7,30.391a2.521,2.521,0,0,1,2.047.8,3.681,3.681,0,0,1,.672,2.41V39H86.148V33.609a1.61,1.61,0,0,0-.281-1.051,1.246,1.246,0,0,0-.992-.332,1.409,1.409,0,0,0-1.406.969l.008,5.8H81.219V33.617a1.59,1.59,0,0,0-.289-1.062,1.259,1.259,0,0,0-.984-.328,1.463,1.463,0,0,0-1.391.8V39H76.3V30.547ZM92.531,39H90.266V30.547h2.266Zm-2.4-10.641a1.112,1.112,0,0,1,.34-.836,1.465,1.465,0,0,1,1.848,0,1.193,1.193,0,0,1,0,1.68,1.448,1.448,0,0,1-1.836,0A1.108,1.108,0,0,1,90.133,28.359Zm8.148,10.8a4.15,4.15,0,0,1-3.027-1.141,4.054,4.054,0,0,1-1.168-3.039v-.219a5.106,5.106,0,0,1,.492-2.277,3.612,3.612,0,0,1,1.395-1.547,3.914,3.914,0,0,1,2.059-.543,3.508,3.508,0,0,1,2.73,1.094,4.444,4.444,0,0,1,1,3.1v.922H96.375a2.1,2.1,0,0,0,.66,1.328,2,2,0,0,0,1.395.5,2.437,2.437,0,0,0,2.039-.945l1.109,1.242a3.389,3.389,0,0,1-1.375,1.121A4.511,4.511,0,0,1,98.281,39.156Zm-.258-6.945a1.411,1.411,0,0,0-1.09.455,2.357,2.357,0,0,0-.535,1.3h3.141v-.181a1.681,1.681,0,0,0-.406-1.165A1.456,1.456,0,0,0,98.023,32.211Zm7.094-1.664.07.977a2.951,2.951,0,0,1,2.43-1.133,2.453,2.453,0,0,1,2,.789,3.682,3.682,0,0,1,.672,2.359V39h-2.258V33.594a1.465,1.465,0,0,0-.312-1.043,1.4,1.4,0,0,0-1.039-.324,1.553,1.553,0,0,0-1.43.813V39h-2.258V30.547Zm9.586-2.078v2.078h1.445V32.2H114.7v4.219a1.007,1.007,0,0,0,.18.672.9.9,0,0,0,.688.2,3.6,3.6,0,0,0,.664-.055v1.711a4.648,4.648,0,0,1-1.367.2,2.156,2.156,0,0,1-2.422-2.4V32.2h-1.234V30.547h1.234V28.469ZM116.82,34.7a5.013,5.013,0,0,1,.484-2.242A3.546,3.546,0,0,1,118.7,30.93a4.069,4.069,0,0,1,2.113-.539,3.849,3.849,0,0,1,2.793,1.047,4.2,4.2,0,0,1,1.207,2.844l.016.578a4.418,4.418,0,0,1-1.086,3.121,4.209,4.209,0,0,1-5.832,0,4.5,4.5,0,0,1-1.09-3.187Zm2.258.16a3.16,3.16,0,0,0,.453,1.843,1.628,1.628,0,0,0,2.578.008,3.457,3.457,0,0,0,.461-2.015,3.128,3.128,0,0,0-.461-1.831,1.5,1.5,0,0,0-1.3-.649,1.474,1.474,0,0,0-1.281.646A3.516,3.516,0,0,0,119.078,34.856ZM25.367,57.8l1.563-5.258h2.422l-3.4,9.766-.187.445a2.577,2.577,0,0,1-2.5,1.656,3.552,3.552,0,0,1-1-.148V62.555l.344.008a1.857,1.857,0,0,0,.957-.2,1.283,1.283,0,0,0,.5-.648l.266-.7-2.961-8.477H23.8Zm13.438.859a.727.727,0,0,0-.41-.652,4.659,4.659,0,0,0-1.316-.426q-3.016-.633-3.016-2.562A2.323,2.323,0,0,1,35,53.145a3.766,3.766,0,0,1,2.441-.754,4.053,4.053,0,0,1,2.574.758,2.388,2.388,0,0,1,.965,1.969H38.719a1.092,1.092,0,0,0-.312-.8A1.322,1.322,0,0,0,37.43,54a1.351,1.351,0,0,0-.883.258.814.814,0,0,0-.312.656.7.7,0,0,0,.355.605,3.657,3.657,0,0,0,1.2.4,9.8,9.8,0,0,1,1.422.379A2.336,2.336,0,0,1,41,58.57a2.205,2.205,0,0,1-.992,1.871,4.28,4.28,0,0,1-2.562.715,4.47,4.47,0,0,1-1.887-.379,3.166,3.166,0,0,1-1.293-1.039,2.414,2.414,0,0,1-.469-1.426h2.141a1.179,1.179,0,0,0,.445.922,1.766,1.766,0,0,0,1.109.32,1.635,1.635,0,0,0,.98-.246A.766.766,0,0,0,38.8,58.664Zm7.539,2.492a4.15,4.15,0,0,1-3.027-1.141,4.054,4.054,0,0,1-1.168-3.039v-.219a5.106,5.106,0,0,1,.492-2.277,3.612,3.612,0,0,1,1.395-1.547,3.914,3.914,0,0,1,2.059-.543,3.508,3.508,0,0,1,2.73,1.094,4.444,4.444,0,0,1,1,3.1v.922H44.438a2.1,2.1,0,0,0,.66,1.328,2,2,0,0,0,1.395.5,2.437,2.437,0,0,0,2.039-.945l1.109,1.242a3.389,3.389,0,0,1-1.375,1.121A4.511,4.511,0,0,1,46.344,61.156Zm-.258-6.945a1.411,1.411,0,0,0-1.09.455,2.357,2.357,0,0,0-.535,1.3H47.6v-.181a1.681,1.681,0,0,0-.406-1.165A1.456,1.456,0,0,0,46.086,54.211Zm4.688,2.5a4.954,4.954,0,0,1,.926-3.133,3,3,0,0,1,2.5-1.187,2.631,2.631,0,0,1,2.164.953l.094-.8H58.5v8.172a3.613,3.613,0,0,1-.5,1.93,3.236,3.236,0,0,1-1.418,1.25,4.985,4.985,0,0,1-2.141.43,4.635,4.635,0,0,1-1.812-.371A3.217,3.217,0,0,1,51.289,63l1-1.375a2.645,2.645,0,0,0,2.047.945,1.936,1.936,0,0,0,1.4-.48,1.8,1.8,0,0,0,.5-1.363v-.453a2.612,2.612,0,0,1-2.055.883,2.992,2.992,0,0,1-2.465-1.191,4.953,4.953,0,0,1-.941-3.16Zm2.258.168a3.085,3.085,0,0,0,.461,1.8,1.466,1.466,0,0,0,1.266.653,1.568,1.568,0,0,0,1.477-.775V55a1.564,1.564,0,0,0-1.461-.775,1.476,1.476,0,0,0-1.277.665A3.477,3.477,0,0,0,53.031,56.879ZM65.3,60.141a2.831,2.831,0,0,1-2.312,1.016,2.67,2.67,0,0,1-2.074-.781,3.335,3.335,0,0,1-.73-2.289V52.547h2.258v5.467q0,1.322,1.2,1.322a1.63,1.63,0,0,0,1.578-.8V52.547h2.266V61H65.359Zm8.641-5.477a6.134,6.134,0,0,0-.812-.062,1.654,1.654,0,0,0-1.68.867V61H69.188V52.547H71.32l.063,1.008a2.092,2.092,0,0,1,1.883-1.164,2.366,2.366,0,0,1,.7.1ZM77.406,61H75.141V52.547h2.266Zm-2.4-10.641a1.112,1.112,0,0,1,.34-.836,1.465,1.465,0,0,1,1.848,0,1.193,1.193,0,0,1,0,1.68,1.448,1.448,0,0,1-1.836,0A1.108,1.108,0,0,1,75.008,50.359Zm3.906,6.352a5.094,5.094,0,0,1,.887-3.148,2.877,2.877,0,0,1,2.426-1.172,2.589,2.589,0,0,1,2.039.922V49h2.266V61H84.492l-.109-.9a2.657,2.657,0,0,1-2.172,1.055,2.869,2.869,0,0,1-2.395-1.176A5.258,5.258,0,0,1,78.914,56.711Zm2.258.168a3.337,3.337,0,0,0,.414,1.823,1.349,1.349,0,0,0,1.2.634,1.511,1.511,0,0,0,1.477-.884V55.111a1.489,1.489,0,0,0-1.461-.884Q81.172,54.227,81.172,56.879ZM93.18,61a2.507,2.507,0,0,1-.227-.758,2.732,2.732,0,0,1-2.133.914,3,3,0,0,1-2.059-.719,2.312,2.312,0,0,1-.816-1.812,2.389,2.389,0,0,1,1-2.062,4.915,4.915,0,0,1,2.879-.727h1.039v-.484a1.393,1.393,0,0,0-.3-.937,1.183,1.183,0,0,0-.949-.352,1.345,1.345,0,0,0-.895.273.929.929,0,0,0-.324.75H88.133a2.268,2.268,0,0,1,.453-1.359,3,3,0,0,1,1.281-.98,4.669,4.669,0,0,1,1.859-.355,3.689,3.689,0,0,1,2.48.785,2.747,2.747,0,0,1,.918,2.207v3.664a4.041,4.041,0,0,0,.336,1.82V61Zm-1.867-1.57a1.945,1.945,0,0,0,.922-.223,1.462,1.462,0,0,0,.625-.6V57.156h-.844q-1.7,0-1.8,1.172l-.008.133a.9.9,0,0,0,.3.7A1.153,1.153,0,0,0,91.313,59.43Zm5.2-2.719a5.094,5.094,0,0,1,.887-3.148,2.877,2.877,0,0,1,2.426-1.172,2.589,2.589,0,0,1,2.039.922V49h2.266V61h-2.039l-.109-.9A2.657,2.657,0,0,1,99.8,61.156,2.869,2.869,0,0,1,97.41,59.98,5.258,5.258,0,0,1,96.508,56.711Zm2.258.168A3.337,3.337,0,0,0,99.18,58.7a1.349,1.349,0,0,0,1.2.634,1.511,1.511,0,0,0,1.477-.884V55.111a1.489,1.489,0,0,0-1.461-.884Q98.766,54.227,98.766,56.879Zm7.227,3.012a1.137,1.137,0,0,1,.363-.875,1.412,1.412,0,0,1,1.828,0,1.137,1.137,0,0,1,.363.875,1.121,1.121,0,0,1-.359.863,1.435,1.435,0,0,1-1.836,0A1.121,1.121,0,0,1,105.992,59.891Z" transform="translate(485 5301)" fill="#12263f"/><path d="M33.293,15.563A4.068,4.068,0,0,1,31.5,16.738a7.492,7.492,0,0,1-2.562.418,5.076,5.076,0,0,1-2.59-.645,4.3,4.3,0,0,1-1.719-1.871,6.585,6.585,0,0,1-.621-2.883v-.773a6.994,6.994,0,0,1,.574-2.949,4.248,4.248,0,0,1,1.656-1.906,4.771,4.771,0,0,1,2.535-.66,4.751,4.751,0,0,1,3.164.965,4.123,4.123,0,0,1,1.352,2.809H31.012a2.268,2.268,0,0,0-.691-1.43,2.208,2.208,0,0,0-1.473-.453,2.078,2.078,0,0,0-1.82.9,4.724,4.724,0,0,0-.633,2.672v.727a4.5,4.5,0,0,0,.68,2.7,2.327,2.327,0,0,0,1.992.914,2.6,2.6,0,0,0,1.883-.562V12.75H28.816V11.023h4.477Zm5.641,1.594a4.15,4.15,0,0,1-3.027-1.141,4.054,4.054,0,0,1-1.168-3.039v-.219a5.106,5.106,0,0,1,.492-2.277,3.612,3.612,0,0,1,1.395-1.547,3.914,3.914,0,0,1,2.059-.543,3.508,3.508,0,0,1,2.73,1.094,4.444,4.444,0,0,1,1,3.1v.922H37.027a2.1,2.1,0,0,0,.66,1.328,2,2,0,0,0,1.395.5,2.437,2.437,0,0,0,2.039-.945l1.109,1.242a3.389,3.389,0,0,1-1.375,1.121A4.511,4.511,0,0,1,38.934,17.156Zm-.258-6.945a1.411,1.411,0,0,0-1.09.455,2.357,2.357,0,0,0-.535,1.3h3.141v-.181a1.681,1.681,0,0,0-.406-1.165A1.456,1.456,0,0,0,38.676,10.211Zm9.594,4.453a.727.727,0,0,0-.41-.652,4.659,4.659,0,0,0-1.316-.426q-3.016-.633-3.016-2.562a2.323,2.323,0,0,1,.934-1.879A3.766,3.766,0,0,1,46.9,8.391a4.053,4.053,0,0,1,2.574.758,2.388,2.388,0,0,1,.965,1.969H48.184a1.092,1.092,0,0,0-.312-.8A1.322,1.322,0,0,0,46.895,10a1.351,1.351,0,0,0-.883.258.814.814,0,0,0-.312.656.7.7,0,0,0,.355.605,3.657,3.657,0,0,0,1.2.4,9.8,9.8,0,0,1,1.422.379,2.336,2.336,0,0,1,1.789,2.273,2.2,2.2,0,0,1-.992,1.871,4.28,4.28,0,0,1-2.562.715,4.47,4.47,0,0,1-1.887-.379,3.166,3.166,0,0,1-1.293-1.039,2.414,2.414,0,0,1-.469-1.426H45.4a1.179,1.179,0,0,0,.445.922,1.766,1.766,0,0,0,1.109.32,1.635,1.635,0,0,0,.98-.246A.766.766,0,0,0,48.27,14.664Zm6.352-8.2V8.547h1.445V10.2H54.621v4.219a1.007,1.007,0,0,0,.18.672.9.9,0,0,0,.688.2,3.6,3.6,0,0,0,.664-.055v1.711a4.648,4.648,0,0,1-1.367.2,2.156,2.156,0,0,1-2.422-2.4V10.2H51.129V8.547h1.234V6.469ZM59.707,17H57.441V8.547h2.266Zm-2.4-10.641a1.112,1.112,0,0,1,.34-.836,1.465,1.465,0,0,1,1.848,0,1.105,1.105,0,0,1,.344.836,1.108,1.108,0,0,1-.348.844,1.448,1.448,0,0,1-1.836,0A1.108,1.108,0,0,1,57.309,6.359ZM61.215,12.7a5.013,5.013,0,0,1,.484-2.242A3.546,3.546,0,0,1,63.094,8.93a4.069,4.069,0,0,1,2.113-.539A3.849,3.849,0,0,1,68,9.438a4.2,4.2,0,0,1,1.207,2.844l.016.578a4.418,4.418,0,0,1-1.086,3.121,4.209,4.209,0,0,1-5.832,0,4.5,4.5,0,0,1-1.09-3.187Zm2.258.16a3.16,3.16,0,0,0,.453,1.843,1.628,1.628,0,0,0,2.578.008,3.457,3.457,0,0,0,.461-2.015A3.128,3.128,0,0,0,66.5,10.86a1.5,1.5,0,0,0-1.3-.649,1.474,1.474,0,0,0-1.281.646A3.516,3.516,0,0,0,63.473,12.856ZM65.652,5h2.461L65.949,7.422H64.113Zm7.039,3.547.07.977a2.951,2.951,0,0,1,2.43-1.133,2.453,2.453,0,0,1,2,.789,3.682,3.682,0,0,1,.672,2.359V17H75.605V11.594a1.465,1.465,0,0,0-.312-1.043,1.4,1.4,0,0,0-1.039-.324,1.553,1.553,0,0,0-1.43.813V17H70.566V8.547ZM86.715,13.8l1.563-5.258H90.7l-3.4,9.766-.187.445a2.577,2.577,0,0,1-2.5,1.656,3.552,3.552,0,0,1-1-.148V18.555l.344.008a1.857,1.857,0,0,0,.957-.2,1.283,1.283,0,0,0,.5-.648l.266-.7L82.715,8.547h2.43ZM35.383,28.469v2.078h1.445V32.2H35.383v4.219a1.007,1.007,0,0,0,.18.672.9.9,0,0,0,.688.2,3.6,3.6,0,0,0,.664-.055v1.711a4.648,4.648,0,0,1-1.367.2,2.156,2.156,0,0,1-2.422-2.4V32.2H31.891V30.547h1.234V28.469Zm7.453,4.2a6.134,6.134,0,0,0-.812-.062,1.654,1.654,0,0,0-1.68.867V39H38.086V30.547h2.133l.063,1.008a2.092,2.092,0,0,1,1.883-1.164,2.366,2.366,0,0,1,.7.1ZM48.586,39a2.507,2.507,0,0,1-.227-.758,2.732,2.732,0,0,1-2.133.914,3,3,0,0,1-2.059-.719,2.312,2.312,0,0,1-.816-1.812,2.389,2.389,0,0,1,1-2.062,4.915,4.915,0,0,1,2.879-.727h1.039v-.484a1.393,1.393,0,0,0-.3-.937,1.183,1.183,0,0,0-.949-.352,1.345,1.345,0,0,0-.895.273.929.929,0,0,0-.324.75H43.539a2.268,2.268,0,0,1,.453-1.359,3,3,0,0,1,1.281-.98,4.669,4.669,0,0,1,1.859-.355,3.689,3.689,0,0,1,2.48.785,2.747,2.747,0,0,1,.918,2.207v3.664a4.041,4.041,0,0,0,.336,1.82V39Zm-1.867-1.57a1.945,1.945,0,0,0,.922-.223,1.462,1.462,0,0,0,.625-.6V35.156h-.844q-1.7,0-1.8,1.172l-.008.133a.9.9,0,0,0,.3.7A1.153,1.153,0,0,0,46.719,37.43Zm13.164-2.578a5.119,5.119,0,0,1-.867,3.168,2.872,2.872,0,0,1-2.422,1.137A2.639,2.639,0,0,1,54.4,38.1l-.1.9H52.266V27h2.258v4.3a2.571,2.571,0,0,1,2.055-.914A2.9,2.9,0,0,1,59,31.527a5.126,5.126,0,0,1,.879,3.2Zm-2.258-.164a3.363,3.363,0,0,0-.406-1.871,1.374,1.374,0,0,0-1.211-.59,1.489,1.489,0,0,0-1.484.883v3.336a1.509,1.509,0,0,0,1.5.891,1.394,1.394,0,0,0,1.438-1.078A5.562,5.562,0,0,0,57.625,34.688ZM66.172,39a2.507,2.507,0,0,1-.227-.758,2.732,2.732,0,0,1-2.133.914,3,3,0,0,1-2.059-.719,2.312,2.312,0,0,1-.816-1.812,2.389,2.389,0,0,1,1-2.062,4.915,4.915,0,0,1,2.879-.727h1.039v-.484a1.393,1.393,0,0,0-.3-.937,1.183,1.183,0,0,0-.949-.352,1.345,1.345,0,0,0-.895.273.929.929,0,0,0-.324.75H61.125a2.268,2.268,0,0,1,.453-1.359,3,3,0,0,1,1.281-.98,4.669,4.669,0,0,1,1.859-.355,3.689,3.689,0,0,1,2.48.785,2.747,2.747,0,0,1,.918,2.207v3.664a4.041,4.041,0,0,0,.336,1.82V39ZM64.3,37.43a1.945,1.945,0,0,0,.922-.223,1.462,1.462,0,0,0,.625-.6V35.156h-.844q-1.7,0-1.8,1.172l-.008.133a.9.9,0,0,0,.3.7A1.153,1.153,0,0,0,64.3,37.43Zm7.938-6.883v8.914a3.024,3.024,0,0,1-.742,2.176,2.821,2.821,0,0,1-2.141.777,4.591,4.591,0,0,1-1.117-.133V40.492a4.238,4.238,0,0,0,.711.07q1.023,0,1.023-1.086v-8.93ZM69.8,28.359a1.112,1.112,0,0,1,.34-.836,1.47,1.47,0,0,1,1.852,0,1.2,1.2,0,0,1-.008,1.68,1.448,1.448,0,0,1-1.836,0A1.108,1.108,0,0,1,69.8,28.359ZM73.656,34.7a5.013,5.013,0,0,1,.484-2.242,3.546,3.546,0,0,1,1.395-1.523,4.069,4.069,0,0,1,2.113-.539,3.849,3.849,0,0,1,2.793,1.047,4.2,4.2,0,0,1,1.207,2.844l.016.578a4.418,4.418,0,0,1-1.086,3.121,4.209,4.209,0,0,1-5.832,0,4.5,4.5,0,0,1-1.09-3.187Zm2.258.16a3.16,3.16,0,0,0,.453,1.843,1.628,1.628,0,0,0,2.578.008,3.457,3.457,0,0,0,.461-2.015,3.128,3.128,0,0,0-.461-1.831,1.5,1.5,0,0,0-1.3-.649,1.474,1.474,0,0,0-1.281.646A3.516,3.516,0,0,0,75.914,34.856ZM14.5,59.336a1.481,1.481,0,0,0,1.016-.344,1.2,1.2,0,0,0,.406-.914h2.117a2.9,2.9,0,0,1-.469,1.574,3.093,3.093,0,0,1-1.262,1.109,3.949,3.949,0,0,1-1.77.395A3.67,3.67,0,0,1,11.684,60a4.56,4.56,0,0,1-1.047-3.184v-.148a4.508,4.508,0,0,1,1.039-3.117,3.627,3.627,0,0,1,2.852-1.164,3.555,3.555,0,0,1,2.543.9,3.2,3.2,0,0,1,.973,2.4H15.926a1.551,1.551,0,0,0-.406-1.072,1.51,1.51,0,0,0-2.223.163,3.333,3.333,0,0,0-.4,1.866v.235a3.375,3.375,0,0,0,.4,1.878A1.377,1.377,0,0,0,14.5,59.336ZM18.98,56.7a5.013,5.013,0,0,1,.484-2.242,3.546,3.546,0,0,1,1.395-1.523,4.069,4.069,0,0,1,2.113-.539,3.849,3.849,0,0,1,2.793,1.047,4.2,4.2,0,0,1,1.207,2.844l.016.578A4.418,4.418,0,0,1,25.9,59.98a3.775,3.775,0,0,1-2.914,1.176,3.793,3.793,0,0,1-2.918-1.172A4.5,4.5,0,0,1,18.98,56.8Zm2.258.16a3.16,3.16,0,0,0,.453,1.843,1.628,1.628,0,0,0,2.578.008,3.457,3.457,0,0,0,.461-2.015,3.128,3.128,0,0,0-.461-1.831,1.5,1.5,0,0,0-1.3-.649,1.474,1.474,0,0,0-1.281.646A3.516,3.516,0,0,0,21.238,56.856ZM30.762,61H28.5V49h2.266Zm6.758,0a2.507,2.507,0,0,1-.227-.758,2.732,2.732,0,0,1-2.133.914,3,3,0,0,1-2.059-.719,2.312,2.312,0,0,1-.816-1.812,2.389,2.389,0,0,1,1-2.062,4.915,4.915,0,0,1,2.879-.727H37.2v-.484a1.393,1.393,0,0,0-.3-.937,1.183,1.183,0,0,0-.949-.352,1.345,1.345,0,0,0-.895.273.929.929,0,0,0-.324.75H32.473a2.268,2.268,0,0,1,.453-1.359,3,3,0,0,1,1.281-.98,4.669,4.669,0,0,1,1.859-.355,3.689,3.689,0,0,1,2.48.785,2.747,2.747,0,0,1,.918,2.207v3.664a4.041,4.041,0,0,0,.336,1.82V61Zm-1.867-1.57a1.945,1.945,0,0,0,.922-.223,1.462,1.462,0,0,0,.625-.6V57.156h-.844q-1.7,0-1.8,1.172l-.008.133a.9.9,0,0,0,.3.7A1.153,1.153,0,0,0,35.652,59.43Zm13.164-2.578a5.119,5.119,0,0,1-.867,3.168,2.872,2.872,0,0,1-2.422,1.137,2.639,2.639,0,0,1-2.2-1.055l-.1.9H41.2V49h2.258v4.3a2.571,2.571,0,0,1,2.055-.914,2.9,2.9,0,0,1,2.426,1.137,5.126,5.126,0,0,1,.879,3.2Zm-2.258-.164a3.363,3.363,0,0,0-.406-1.871,1.374,1.374,0,0,0-1.211-.59,1.489,1.489,0,0,0-1.484.883v3.336a1.509,1.509,0,0,0,1.5.891,1.394,1.394,0,0,0,1.438-1.078A5.562,5.562,0,0,0,46.559,56.688Zm3.3.008a5.013,5.013,0,0,1,.484-2.242,3.546,3.546,0,0,1,1.395-1.523,4.069,4.069,0,0,1,2.113-.539,3.849,3.849,0,0,1,2.793,1.047,4.2,4.2,0,0,1,1.207,2.844l.016.578a4.418,4.418,0,0,1-1.086,3.121,4.209,4.209,0,0,1-5.832,0,4.5,4.5,0,0,1-1.09-3.187Zm2.258.16a3.16,3.16,0,0,0,.453,1.843,1.628,1.628,0,0,0,2.578.008,3.457,3.457,0,0,0,.461-2.015,3.128,3.128,0,0,0-.461-1.831,1.5,1.5,0,0,0-1.3-.649,1.474,1.474,0,0,0-1.281.646A3.516,3.516,0,0,0,52.113,56.856ZM64,54.664a6.134,6.134,0,0,0-.812-.062,1.654,1.654,0,0,0-1.68.867V61H59.254V52.547h2.133l.063,1.008a2.092,2.092,0,0,1,1.883-1.164,2.366,2.366,0,0,1,.7.1ZM69.754,61a2.507,2.507,0,0,1-.227-.758,2.732,2.732,0,0,1-2.133.914,3,3,0,0,1-2.059-.719,2.312,2.312,0,0,1-.816-1.812,2.389,2.389,0,0,1,1-2.062,4.915,4.915,0,0,1,2.879-.727h1.039v-.484a1.393,1.393,0,0,0-.3-.937,1.183,1.183,0,0,0-.949-.352,1.345,1.345,0,0,0-.895.273.929.929,0,0,0-.324.75H64.707a2.268,2.268,0,0,1,.453-1.359,3,3,0,0,1,1.281-.98,4.669,4.669,0,0,1,1.859-.355,3.689,3.689,0,0,1,2.48.785,2.747,2.747,0,0,1,.918,2.207v3.664a4.041,4.041,0,0,0,.336,1.82V61Zm-1.867-1.57a1.945,1.945,0,0,0,.922-.223,1.462,1.462,0,0,0,.625-.6V57.156H68.59q-1.7,0-1.8,1.172l-.008.133a.9.9,0,0,0,.3.7A1.153,1.153,0,0,0,67.887,59.43Zm8.25-8.961v2.078h1.445V54.2H76.137v4.219a1.007,1.007,0,0,0,.18.672.9.9,0,0,0,.688.2,3.6,3.6,0,0,0,.664-.055v1.711a4.648,4.648,0,0,1-1.367.2,2.156,2.156,0,0,1-2.422-2.4V54.2H72.645V52.547h1.234V50.469ZM81.223,61H78.957V52.547h2.266Zm-2.4-10.641a1.112,1.112,0,0,1,.34-.836,1.465,1.465,0,0,1,1.848,0,1.193,1.193,0,0,1,0,1.68,1.448,1.448,0,0,1-1.836,0A1.108,1.108,0,0,1,78.824,50.359Zm7.422,7.883,1.57-5.7h2.359L87.324,61H85.168l-2.852-8.453h2.359ZM90.7,56.7a5.013,5.013,0,0,1,.484-2.242,3.546,3.546,0,0,1,1.395-1.523,4.069,4.069,0,0,1,2.113-.539,3.849,3.849,0,0,1,2.793,1.047,4.2,4.2,0,0,1,1.207,2.844l.016.578a4.418,4.418,0,0,1-1.086,3.121,4.209,4.209,0,0,1-5.832,0A4.5,4.5,0,0,1,90.7,56.8Zm2.258.16A3.16,3.16,0,0,0,93.41,58.7a1.628,1.628,0,0,0,2.578.008,3.457,3.457,0,0,0,.461-2.015,3.128,3.128,0,0,0-.461-1.831,1.5,1.5,0,0,0-1.3-.649,1.474,1.474,0,0,0-1.281.646A3.516,3.516,0,0,0,92.957,56.856Zm7.258,3.035a1.137,1.137,0,0,1,.363-.875,1.412,1.412,0,0,1,1.828,0,1.137,1.137,0,0,1,.363.875,1.121,1.121,0,0,1-.359.863,1.435,1.435,0,0,1-1.836,0A1.121,1.121,0,0,1,100.215,59.891Z" transform="translate(341 5112)" fill="#12263f"/><g transform="translate(694.5 4982.5)"><path d="M25.5,25.5l-15-15" fill="none" stroke="#000" stroke-linecap="round" stroke-linejoin="round" stroke-width="3"/><path d="M10.5,25.5v-15h15" fill="none" stroke="#000" stroke-linecap="round" stroke-linejoin="round" stroke-width="3"/></g><g transform="translate(392 4993)"><path d="M10.5,25.5l15-15" transform="translate(-10.5 -10.5)" fill="none" stroke="#000" stroke-linecap="round" stroke-linejoin="round" stroke-width="3"/><path d="M25.5,25.5v-15h-15" transform="translate(-10.5 -10.5)" fill="none" stroke="#000" stroke-linecap="round" stroke-linejoin="round" stroke-width="3"/></g><g transform="translate(731.5 5290.5) rotate(90)"><path d="M25.5,25.5l-15-15" fill="none" stroke="#000" stroke-linecap="round" stroke-linejoin="round" stroke-width="3"/><path d="M10.5,25.5v-15h15" fill="none" stroke="#000" stroke-linecap="round" stroke-linejoin="round" stroke-width="3"/></g><g transform="translate(406 5301) rotate(90)"><path d="M15,0,0,15" transform="translate(0 0)" fill="none" stroke="#000" stroke-linecap="round" stroke-linejoin="round" stroke-width="3"/><path d="M0,0V15H15" transform="translate(0 0)" fill="none" stroke="#000" stroke-linecap="round" stroke-linejoin="round" stroke-width="3"/></g></g></g><g transform="translate(540 5140)"><g transform="translate(0 0)" clip-path="url(#q)"><path d="M41.914,26.914a60.281,60.281,0,0,1-6.572-6.58c-1.2-2.56-3.033-4.023-6.025-3.956-4.207.1-8.417.015-12.627.03a3.714,3.714,0,0,0-2.705.634c-2.462,0-4.928.061-7.388-.013A6.7,6.7,0,0,0,0,23.64Q.075,48.3,0,72.968a6.762,6.762,0,0,0,6.6,6.615q14.775-.094,29.552,0a6.741,6.741,0,0,0,6.6-6.615c-.074-6.576-.022-13.154-.022-19.73a3.182,3.182,0,0,0,.664-2.306c.022-7.041.037-14.081-.007-21.122-.007-1.2-.185-2.343-1.478-2.9" transform="translate(0 19.177)" fill="#040506"/><path d="M30.8,36.221c.838-.282,1.023.792,1.785.836,1.066-1.906,2.145-3.838,3.213-5.747H63.476l1-1.34c-.054.245-.015.122,0-.007a17.5,17.5,0,0,0-.471-5.977,33.9,33.9,0,0,0-3.723-9.548A32.979,32.979,0,0,0,53.81,6.886,24.8,24.8,0,0,0,44.694,1.7,46.4,46.4,0,0,0,39.08.338,29.089,29.089,0,0,0,31.852.121a15.4,15.4,0,0,0-4.72.907,36.375,36.375,0,0,0-4.618,1.73A31.322,31.322,0,0,0,18.329,5a34.306,34.306,0,0,0-7.01,6.863c-.6.845-1.311,1.648-1.852,2.536a24.553,24.553,0,0,0-1.993,3.893,29.863,29.863,0,0,0-1.231,3.788,7.03,7.03,0,0,0-.495,3.3c-.894,2.429-.15,4.939-.467,7.547h2.11c2.1.712,1.732-1,1.722-1.952a30.932,30.932,0,0,1,2.015-11.057c1.6-4.366,5.53-9.229,8.886-10.94.721.132.868.8,1.166,1.313,3.309,5.682,6.494,11.437,9.917,17.047a3.794,3.794,0,0,1,.015,4.564,9.249,9.249,0,0,0-1.646,3.248A1.24,1.24,0,0,0,30.8,36.221" transform="translate(6.184 0.002)" fill="#040506"/><path d="M29.672,32.037c-.109-.643-.966-.367-1.148-.983a45.443,45.443,0,0,0,3.244-5.647c-1.561-2.772-3.276-5.549-4.861-8.387-1.177-2.11-2.486-4.151-3.587-6.313-1.216-2.388-2.657-4.659-4.09-7.134C10.467,9.7,7.087,18.262,7.486,28.568c-.415.306-.836.124-1.224.178,0,.612.046,1.227-.013,1.832-.056.562.621.879.423,1.459H24.479c1.257,1.016,2.184,2.392,3.55,3.291a8.227,8.227,0,0,0,1.643-3.291" transform="translate(7.314 4.185)" fill="#db2831"/><path d="M41.288,36.4c-2.736,0-5.471.061-8.2-.015a6.63,6.63,0,0,0-6.593,6.6c.072,2.188.072,4.383,0,6.572a6.667,6.667,0,0,0,6.6,6.6c5.536-.078,11.074,0,16.613-.028a6.1,6.1,0,0,0,5.647-3.6,5.627,5.627,0,0,0,.74-2.779c-.043-2.258-.069-4.52,0-6.778a6.628,6.628,0,0,0-6.6-6.6c-2.733.076-5.469.015-8.2.015" transform="translate(31.018 42.602)" fill="#040506"/><path d="M19.306,22.091c.059.452.488.614.821,1.064v25.26H21.77c.953-1.274,2.015-1.68,3.285-.41,1.14.215,2.147-.63,3.287-.412.152-1.329-1.051-1.78-1.693-2.588a15.4,15.4,0,0,1-1.761-1.963A1.483,1.483,0,0,1,25.9,41.693a.735.735,0,0,1,.625.124c1.283,1.122,2.4,2.414,3.654,3.567.521.478.934,1.24,1.858.975.13-.7.923-.4,1.233-.823.291-.415-.063-.968.43-1.5,1.526-1.033,3.456-1.856,4.65-3.545.124-1.218-.74-1.791-1.392-2.449Q30.823,31.856,24.653,25.7a8.579,8.579,0,0,1-1.274-1.359c-.3-.853.7-1.157.445-1.843a1.012,1.012,0,0,1-.907-.271c-.538-.606-1.138-1.159-1.713-1.735a1.583,1.583,0,0,0-.753,1.014.916.916,0,0,1-1.144.582" transform="translate(22.608 24.001)" fill="#75c3e3"/><path d="M46.458,4.568c-2.188,0-4.377.056-6.563-.013a6.618,6.618,0,0,0-6.593,6.6c.069,2.188.069,4.383,0,6.572a6.654,6.654,0,0,0,6.591,6.606c4.442-.082,8.886,0,13.33-.026a6.111,6.111,0,0,0,5.649-3.6,5.648,5.648,0,0,0,.74-2.777c-.043-2.26-.072-4.52,0-6.778a6.619,6.619,0,0,0-6.591-6.6c-2.186.069-4.375.013-6.563.013" transform="translate(38.994 5.331)" fill="#040506"/><path d="M35.074,18.329V16.883a.955.955,0,0,0-.145-.135.36.36,0,0,0-.178-.063c-3.895,0-7.792,0-11.834,0-.219.3-.5.677-.942,1.268v.792l20.9,20.927h1.105c6.2-5.847,9.14-13.23,9.236-22.125a6.1,6.1,0,0,1-.577-.352,4.576,4.576,0,0,1-.478-.471H48.333c-.258.53-.041,1.081-.115,1.607-.986,1.222.221,1.806.753,2.464-.115,5.05-2.848,11.4-6.081,13.838-4.6-4.548-9.181-9.183-13.947-13.936,2.136-.48,4.147.165,5.931-.473.656-.658.742-1.255.2-1.893" transform="translate(25.732 19.537)" fill="#050506"/><path d="M31.824,17.68v1.446a.863.863,0,0,1-.145.135.36.36,0,0,1-.178.063c-2.312,0-4.626,0-6.752,0L40.215,34.814A31.638,31.638,0,0,0,43.858,29.3a20.989,20.989,0,0,0,2.323-8.065c.024-.61.743-1.005.391-1.735-.38-.458-.992.013-1.518-.276-.23-.469-.013-1.02-.087-1.546H41.779c-.28,0-.536-.03-.508-.41-1.09-.219-1.513.725-2.156,1.264-.983.825-1.7,1.958-2.833,2.566a1.5,1.5,0,0,1-1.368-1.088c.039-.929,1.374-1.257,1.018-2.332Z" transform="translate(28.982 20.186)" fill="#f0d486"/><path d="M29.58,35.5c-2.2-1.7-3.908-3.9-5.979-5.734-.706.706-1.426,1.426-2.195,2.2,1.389,1.683,3.189,2.992,4.477,4.77,2.16,1.674,3.854,3.832,5.955,5.712H61.933v-3.2H33.073c-1.125-1.335-2.538-2.325-3.493-3.749" transform="translate(25.067 34.859)" fill="#040506"/><path d="M30.973,20.99c-.471.927-1.389,1.448-1.989,2.221l2.232,2.23c1.732-1.535,3.2-3.426,5.1-4.861.632-1.164,1.828-1.8,2.588-2.879H64.576V14.545c.028.03-.011-.026-.065-.065a.332.332,0,0,0-.174-.067c-8.817,0-17.633,0-26.589,0-1.709,1.711-3.478,3.5-5.273,5.267-.471.465-.838,1.066-1.5,1.313" transform="translate(33.941 16.875)" fill="#040506"/><path d="M22.29,21.815l-1.674,1.409q8.112,8.125,16.172,16.194a23.018,23.018,0,0,1-5.805,3.94l.753,1.489c.191.4.384.8.651,1.357,3.409-1.138,5.9-3.539,8.356-6.066V39.024q-8.975-8.988-17.915-17.941c-.122.23-.558.313-.538.732" transform="translate(24.142 24.69)" fill="#050506"/><path d="M23.727,34.056c0-.6.109-1.229-.721-1.65a4.145,4.145,0,0,1-2.564.391v3.22a4.864,4.864,0,0,0,3.691-.515c-.575-.358-.382-.934-.406-1.446" transform="translate(23.938 37.949)" fill="#0c0e0f"/><path d="M37.666,28.105H28.819l-.994-1.34V18.2H25.973q-10.463,0-20.924,0a3.171,3.171,0,0,0-3.524,3.511q0,24.447,0,48.894a3.17,3.17,0,0,0,3.5,3.53q14.567.007,29.131,0a3.169,3.169,0,0,0,3.5-3.528c0-14.107,0-28.213,0-42.5" transform="translate(1.784 21.312)" fill="#f0d486"/><path d="M15.192,23.241h3.771l-3.771-3.775Z" transform="translate(17.79 22.796)" fill="#ebab1d"/><path d="M13.556,4.235C14.767,6.146,15.773,8,16.8,9.828c1.059,1.887,2.171,3.747,3.25,5.623,1.973,3.428,3.769,6.96,5.981,10.249a1.5,1.5,0,0,1,.106.43H51.428A26.294,26.294,0,0,0,42.4,7.915a21.174,21.174,0,0,0-6.474-4.11,41.345,41.345,0,0,0-7.2-1.971,23.085,23.085,0,0,0-7.874.106,26.863,26.863,0,0,0-7.293,2.295" transform="translate(15.875 1.805)" fill="#9fb815"/><path d="M30.277,37.9c-.224.486-.818.347-1.151.712A3.426,3.426,0,0,0,28,41.037c.033,2.6.011,5.2.011,7.575.551,1.144,1.014,2.117,2.186,2.416H48.722a3.73,3.73,0,0,0,2.293-2.762c0-1.891-.026-4.353.009-6.815a3.039,3.039,0,0,0-1.976-3.267c-.117-.043-.2-.187-.289-.282Z" transform="translate(32.793 44.385)" fill="#75c3e3"/><path d="M54.538,8.341c-.193-.193-.482-.354-.564-.586-.517-1.439-1.639-1.691-2.981-1.685-4.648.024-9.3.009-13.625.009a3.632,3.632,0,0,0-2.544,2.768c0,1.88.017,4.338-.007,6.8-.013,1.324.18,2.486,1.646,3,.232.083.393.371.621.6,4.613,0,9.264-.015,13.912.011a3.049,3.049,0,0,0,3.261-1.98c.046-.117.189-.193.282-.287V8.341" transform="translate(40.77 7.109)" fill="#116fa5"/><path d="M22.718,33.516V30.353H3.089c-.109.981-.017,2.041-.056,3.163Z" transform="translate(3.552 35.545)" fill="#040506"/><path d="M19.452,39.575V36.418H3.141c-.217.97.02,2.036-.124,3.157Z" transform="translate(3.533 42.647)" fill="#040506"/><path d="M25.489,36.542V33.387H9.143c-.111.973-.015,2.03-.056,3.155Z" transform="translate(10.641 39.098)" fill="#040506"/><path d="M6.081,24.294v3.15H22.425c.113-.968.015-2.026.056-3.15Z" transform="translate(7.121 28.45)" fill="#040506"/><path d="M10.637,30.552h13V27.421c.028.028-.015-.028-.074-.063a.36.36,0,0,0-.176-.063c-4.227,0-8.454,0-12.75,0Z" transform="translate(12.456 31.962)" fill="#040506"/><rect width="13.063" height="3.146" transform="translate(6.633 59.328)" fill="#040506"/><path d="M3.07,36.618h9.713V33.4c-3.163-.093-6.4-.007-9.713-.05Z" transform="translate(3.595 39.056)" fill="#040506"/><path d="M3.054,19.745V22.9H9.543c.106-.977.015-2.036.054-3.159Z" transform="translate(3.576 23.123)" fill="#040506"/><path d="M13.647,30.356v3.15h6.491c.106-.968.013-2.026.054-3.15Z" transform="translate(15.981 35.549)" fill="#040506"/><path d="M12.892,39.448v3.159h6.487c.109-.977.015-2.036.056-3.159Z" transform="translate(15.097 46.196)" fill="#080807"/><path d="M18.584,36.4H12.149v3.257h6.435Z" transform="translate(14.227 42.629)" fill="#080807"/><path d="M15.177,27.535h3.144V24.35c-.964-.185-2.023.011-3.144-.1Z" transform="translate(17.773 28.394)" fill="#040506"/><rect width="9.781" height="3.148" transform="translate(69.061 90.586)" fill="#040506"/><path d="M40.031,38.675H30.318v3.133c-.033-.03.013.024.069.059a.368.368,0,0,0,.178.063c3.131,0,6.263,0,9.466,0Z" transform="translate(35.491 45.29)" fill="#040506"/><path d="M36.364,41.921H39.51V38.708c-.968-.1-2.023-.013-3.146-.052Z" transform="translate(42.584 45.268)" fill="#040506"/><path d="M32.012,44.924V41.748c-1.036-.115-2.091-.02-3.213-.061V44.92a16.04,16.04,0,0,0,3.213,0" transform="translate(33.725 48.818)" fill="#040506"/><path d="M38.619,9.9v3.148h6.489c.109-.966.013-2.023.054-3.148Z" transform="translate(45.224 11.589)" fill="#040506"/><path d="M37.105,6.864v3.15H43.6c.106-.968.013-2.026.054-3.15Z" transform="translate(43.451 8.039)" fill="#040506"/><path d="M38.806,9.863H35.632c-.115,1.038-.02,2.093-.061,3.217H38.8a16.242,16.242,0,0,0,.007-3.217" transform="translate(41.655 11.551)" fill="#040506"/><path d="M41.645,6.864v3.15h3.209c.1-.968.013-2.026.052-3.15Z" transform="translate(48.768 8.039)" fill="#040506"/></g></g></g></svg>