<svg xmlns="http://www.w3.org/2000/svg" xmlns:xlink="http://www.w3.org/1999/xlink" width="126.415" height="160.53" viewBox="0 0 126.415 160.53"><defs><clipPath id="a"><path d="M2.2,63.208a61,61,0,1,1,61,61,61.074,61.074,0,0,1-61-61M63.208,0a63.208,63.208,0,1,0,63.207,63.208A63.279,63.279,0,0,0,63.208,0Z" fill="#03386e"/></clipPath><clipPath id="b"><rect width="74.166" height="73.66" fill="#03386e"/></clipPath></defs><g transform="translate(-1134 -7346.293)"><path d="M25.031,9.154H20.676V21h-2.93V9.154h-4.3V6.781H25.031ZM31.379,21.2a5.187,5.187,0,0,1-3.784-1.426,5.068,5.068,0,0,1-1.46-3.8V15.7a6.383,6.383,0,0,1,.615-2.847,4.515,4.515,0,0,1,1.743-1.934,4.893,4.893,0,0,1,2.573-.679,4.385,4.385,0,0,1,3.413,1.367,5.555,5.555,0,0,1,1.245,3.877v1.152H29a2.622,2.622,0,0,0,.825,1.66,2.5,2.5,0,0,0,1.743.625,3.046,3.046,0,0,0,2.549-1.182L35.5,19.291a4.237,4.237,0,0,1-1.719,1.4A5.639,5.639,0,0,1,31.379,21.2Zm-.322-8.682a1.764,1.764,0,0,0-1.362.569,2.946,2.946,0,0,0-.669,1.628h3.926v-.226a2.1,2.1,0,0,0-.508-1.457A1.819,1.819,0,0,0,31.056,12.514ZM41.72,18.92a1.851,1.851,0,0,0,1.27-.43,1.506,1.506,0,0,0,.508-1.143h2.646a3.62,3.62,0,0,1-.586,1.968A3.866,3.866,0,0,1,43.981,20.7a4.936,4.936,0,0,1-2.212.493,4.587,4.587,0,0,1-3.574-1.44,5.7,5.7,0,0,1-1.309-3.979V15.59a5.635,5.635,0,0,1,1.3-3.9,4.534,4.534,0,0,1,3.564-1.455,4.444,4.444,0,0,1,3.179,1.128,3.994,3.994,0,0,1,1.216,3H43.5a1.939,1.939,0,0,0-.508-1.34,1.887,1.887,0,0,0-2.778.2,4.166,4.166,0,0,0-.5,2.333v.293a4.219,4.219,0,0,0,.5,2.347A1.721,1.721,0,0,0,41.72,18.92Zm8.633-8.486.088,1.221a3.689,3.689,0,0,1,3.037-1.416,3.066,3.066,0,0,1,2.5.986,4.6,4.6,0,0,1,.84,2.949V21H54V14.242a1.831,1.831,0,0,0-.391-1.3,1.749,1.749,0,0,0-1.3-.405,1.942,1.942,0,0,0-1.787,1.016V21H47.7V10.434Zm8.164,5.186a6.267,6.267,0,0,1,.605-2.8,4.432,4.432,0,0,1,1.743-1.9,5.086,5.086,0,0,1,2.642-.674A4.812,4.812,0,0,1,67,11.547,5.252,5.252,0,0,1,68.508,15.1l.02.723a5.523,5.523,0,0,1-1.357,3.9,5.261,5.261,0,0,1-7.29,0,5.62,5.62,0,0,1-1.362-3.984Zm2.822.2a3.95,3.95,0,0,0,.566,2.3,2.035,2.035,0,0,0,3.223.01,4.322,4.322,0,0,0,.576-2.518,3.91,3.91,0,0,0-.576-2.289,1.873,1.873,0,0,0-1.621-.812,1.842,1.842,0,0,0-1.6.807A4.395,4.395,0,0,0,61.34,15.819ZM73.244,21H70.412V6h2.832Zm1.885-5.381a6.266,6.266,0,0,1,.605-2.8,4.432,4.432,0,0,1,1.743-1.9,5.086,5.086,0,0,1,2.642-.674,4.812,4.812,0,0,1,3.491,1.309A5.252,5.252,0,0,1,85.119,15.1l.02.723a5.523,5.523,0,0,1-1.357,3.9,5.261,5.261,0,0,1-7.29,0,5.62,5.62,0,0,1-1.362-3.984Zm2.822.2a3.95,3.95,0,0,0,.566,2.3,2.035,2.035,0,0,0,3.223.01,4.322,4.322,0,0,0,.576-2.518,3.91,3.91,0,0,0-.576-2.289,1.873,1.873,0,0,0-1.621-.812,1.842,1.842,0,0,0-1.6.807A4.395,4.395,0,0,0,77.951,15.819Zm8.516-.181a6.193,6.193,0,0,1,1.157-3.916,3.75,3.75,0,0,1,3.12-1.484,3.289,3.289,0,0,1,2.705,1.191l.117-1h2.559V20.648a4.516,4.516,0,0,1-.63,2.412,4.045,4.045,0,0,1-1.772,1.563,6.231,6.231,0,0,1-2.676.537,5.794,5.794,0,0,1-2.266-.464,4.021,4.021,0,0,1-1.67-1.2l1.25-1.719a3.306,3.306,0,0,0,2.559,1.182,2.42,2.42,0,0,0,1.748-.6,2.253,2.253,0,0,0,.625-1.7v-.566a3.264,3.264,0,0,1-2.568,1.1,3.74,3.74,0,0,1-3.081-1.489,6.191,6.191,0,0,1-1.177-3.95Zm2.822.21a3.856,3.856,0,0,0,.576,2.254,1.833,1.833,0,0,0,1.582.817,1.96,1.96,0,0,0,1.846-.968V13.5a1.955,1.955,0,0,0-1.826-.968,1.844,1.844,0,0,0-1.6.831A4.346,4.346,0,0,0,89.289,15.849ZM101.34,21H98.517V10.434h2.822Zm-.83-14.854h3.076l-2.705,3.027H98.586ZM109.894,21a3.134,3.134,0,0,1-.283-.947,3.415,3.415,0,0,1-2.666,1.143,3.752,3.752,0,0,1-2.573-.9,2.89,2.89,0,0,1-1.021-2.266,2.986,2.986,0,0,1,1.245-2.578,6.144,6.144,0,0,1,3.6-.908h1.3v-.605a1.741,1.741,0,0,0-.376-1.172,1.479,1.479,0,0,0-1.187-.439,1.682,1.682,0,0,0-1.118.342,1.161,1.161,0,0,0-.405.938h-2.822a2.835,2.835,0,0,1,.566-1.7,3.744,3.744,0,0,1,1.6-1.226,5.837,5.837,0,0,1,2.324-.444,4.611,4.611,0,0,1,3.1.981,3.433,3.433,0,0,1,1.147,2.759v4.58a5.052,5.052,0,0,0,.42,2.275V21Zm-2.334-1.963a2.431,2.431,0,0,0,1.152-.278,1.828,1.828,0,0,0,.781-.747V16.2h-1.055q-2.119,0-2.256,1.465l-.01.166a1.13,1.13,0,0,0,.371.869A1.441,1.441,0,0,0,107.56,19.037Z" transform="translate(1134.187 7481.663)" fill="#12263f"/><g transform="translate(1134 7346.293)"><g clip-path="url(#a)"><rect width="156.849" height="156.851" transform="translate(-34.098 9.986) rotate(-16.323)" fill="#03386e"/></g></g><g transform="translate(1160 7372.292)"><g transform="translate(0 0)" clip-path="url(#b)"><path d="M65.451,58.356H8.715A8.724,8.724,0,0,1,0,49.642V8.715A8.724,8.724,0,0,1,8.715,0H65.451a8.726,8.726,0,0,1,8.715,8.715V49.642a8.726,8.726,0,0,1-8.715,8.715M8.715,2.674A6.048,6.048,0,0,0,2.674,8.715V49.642a6.048,6.048,0,0,0,6.041,6.041H65.451a6.048,6.048,0,0,0,6.041-6.041V8.715a6.048,6.048,0,0,0-6.041-6.041Z" transform="translate(0 -0.001)" fill="#03386e"/><path d="M38.122,49.677H15.147a1.337,1.337,0,0,1-1.33-1.483L15.5,32.889A1.339,1.339,0,0,1,16.83,31.7H36.441a1.337,1.337,0,0,1,1.328,1.191l1.683,15.305a1.337,1.337,0,0,1-1.33,1.483M16.638,47H36.63L35.243,34.372H18.026Z" transform="translate(10.449 23.982)" fill="#03386e"/><path d="M57.875,43.085H7.287a1.337,1.337,0,1,1,0-2.674H57.875a1.337,1.337,0,1,1,0,2.674" transform="translate(4.502 30.575)" fill="#03386e"/><path d="M72.829,45.177H1.337A1.337,1.337,0,0,1,0,43.84V6.249A1.337,1.337,0,0,1,1.337,4.912H72.829a1.337,1.337,0,0,1,1.337,1.337V43.84a1.337,1.337,0,0,1-1.337,1.337M2.674,42.5H71.492V7.587H2.674Z" transform="translate(0 3.716)" fill="#03386e"/><path d="M59.054,31.053H8.775a1.337,1.337,0,0,1-1.337-1.337V9.879A1.337,1.337,0,0,1,8.775,8.542H59.054a1.336,1.336,0,0,1,1.337,1.337V29.716a1.336,1.336,0,0,1-1.337,1.337M10.112,28.379H57.717V11.216H10.112Z" transform="translate(5.628 6.462)" fill="#03386e"/><path d="M56,34.3H5.718a1.336,1.336,0,0,1-1.337-1.337V13.122a1.337,1.337,0,0,1,2.674,0v18.5H56A1.337,1.337,0,0,1,56,34.3" transform="translate(3.315 8.916)" fill="#03386e"/><path d="M33.936,16.863H30.242a1.337,1.337,0,1,1,0-2.674h3.694a1.337,1.337,0,0,1,0,2.674" transform="translate(21.87 10.735)" fill="#03386e"/><path d="M37.694,25.514H28.228a1.337,1.337,0,1,1,0-2.674h8.388a3.6,3.6,0,0,1,1.976-1.978V15.4a3.6,3.6,0,0,1-1.976-1.978H28.228a1.337,1.337,0,1,1,0-2.674h9.466a1.337,1.337,0,0,1,1.335,1.337.9.9,0,0,0,.9.9,1.336,1.336,0,0,1,1.335,1.339v7.62a1.336,1.336,0,0,1-1.335,1.337.9.9,0,0,0-.9.9,1.337,1.337,0,0,1-1.335,1.337" transform="translate(20.345 8.13)" fill="#03386e"/><path d="M17.522,16.863H13.828a1.337,1.337,0,0,1,0-2.674h3.694a1.337,1.337,0,1,1,0,2.674" transform="translate(9.451 10.735)" fill="#03386e"/><path d="M22.988,25.514H13.522a1.336,1.336,0,0,1-1.337-1.337.9.9,0,0,0-.9-.9,1.337,1.337,0,0,1-1.337-1.337v-7.62a1.338,1.338,0,0,1,1.337-1.339.9.9,0,0,0,.9-.9,1.336,1.336,0,0,1,1.337-1.337h9.466a1.337,1.337,0,1,1,0,2.674H14.6A3.6,3.6,0,0,1,12.621,15.4v5.465A3.6,3.6,0,0,1,14.6,22.84h8.39a1.337,1.337,0,0,1,0,2.674" transform="translate(7.526 8.13)" fill="#03386e"/><path d="M27.425,24.435H21.05A1.336,1.336,0,0,1,19.713,23.1v-.782a1.336,1.336,0,0,1,2.552-.555h3.822V19.142H21.05a1.336,1.336,0,0,1-1.337-1.337V12.513a1.336,1.336,0,0,1,1.337-1.337h6.375a1.337,1.337,0,0,1,1.337,1.337v.782a1.336,1.336,0,0,1-2.552.555H22.387v2.619h5.038a1.337,1.337,0,0,1,1.337,1.337V23.1a1.337,1.337,0,0,1-1.337,1.337" transform="translate(14.915 8.455)" fill="#03386e"/></g></g></g></svg>