<svg xmlns="http://www.w3.org/2000/svg" xmlns:xlink="http://www.w3.org/1999/xlink" width="113" height="113" viewBox="0 0 113 113"><defs><clipPath id="a"><rect width="47.604" height="57.343" fill="#12263f"/></clipPath></defs><g transform="translate(-744 -10184.123)"><g transform="translate(744 10184.123)" fill="#d3f1f5" stroke="#fff" stroke-width="4"><circle cx="56.5" cy="56.5" r="56.5" stroke="none"/><circle cx="56.5" cy="56.5" r="54.5" fill="none"/></g><g transform="translate(777 10212.123)"><g clip-path="url(#a)"><path d="M149.955,11.476a1.048,1.048,0,0,1-1.048-1.048V1.048A1.047,1.047,0,0,1,150.7.308l9.378,9.38a1.047,1.047,0,0,1-.74,1.788ZM151,9.5l6.093-.12L151,3.569Z" transform="translate(-115.546)" fill="#12263f"/><path d="M1.048,57.347A1.048,1.048,0,0,1,0,56.3V1.052A1.048,1.048,0,0,1,1.048,0H34.409a1.052,1.052,0,0,1,.741.307l9.378,9.38a1.035,1.035,0,0,1,.307.74V48.6a1.047,1.047,0,1,1-2.095,0V10.816l-8.8-8.752L1.976,2.1,2.1,55.372l40.765-.12-.12-.588a1.047,1.047,0,0,1,2.095,0V56.3a1.048,1.048,0,0,1-1.047,1.048Z" transform="translate(0 -0.004)" fill="#12263f"/><path d="M44.922,97.262A16.171,16.171,0,1,1,61.094,81.09,16.189,16.189,0,0,1,44.922,97.262m0-30.247A14.076,14.076,0,1,0,59,81.09,14.092,14.092,0,0,0,44.922,67.015" transform="translate(-22.31 -50.374)" fill="#12263f"/><path d="M150.006,191.187a3.284,3.284,0,0,1-2.341-.97l-11.1-11.1a1.048,1.048,0,0,1,.741-1.788,1.036,1.036,0,0,1,.74.307l11.1,11.1a1.235,1.235,0,0,0,2.1-.879,1.2,1.2,0,0,0-.356-.859l-10.612-10.615a1.047,1.047,0,1,1,1.481-1.481l10.612,10.614a3.33,3.33,0,0,1-2.36,5.671" transform="translate(-105.732 -135.479)" fill="#12263f"/><path d="M54.291,155.8a1.048,1.048,0,1,1,0-2.1H73.562a1.048,1.048,0,1,1,0,2.1Z" transform="translate(-41.314 -119.269)" fill="#12263f"/><path d="M62.894,139.9a1.048,1.048,0,0,1-1.047-1.048v-4.589a1.048,1.048,0,0,1,1.047-1.048h5.139a1.048,1.048,0,0,1,1.048,1.048v4.589a1.048,1.048,0,0,1-1.048,1.048Zm1.048-1.975,3.164-.12-.12-2.614-3.044.117Z" transform="translate(-47.991 -103.372)" fill="#12263f"/><path d="M85.833,129.226a1.048,1.048,0,0,1-1.047-1.048v-7.672a1.048,1.048,0,0,1,1.047-1.048h5.139a1.048,1.048,0,0,1,1.048,1.048v7.672a1.048,1.048,0,0,1-1.048,1.048Zm1.048-1.975,3.164-.12-.12-5.7-3.044.117Z" transform="translate(-65.79 -92.694)" fill="#12263f"/><path d="M108.771,118.548a1.048,1.048,0,0,1-1.047-1.048V106.744a1.048,1.048,0,0,1,1.047-1.047h5.139a1.048,1.048,0,0,1,1.047,1.047V117.5a1.048,1.048,0,0,1-1.047,1.048Zm1.048-1.975,3.163-.12-.12-8.781-3.043.115Z" transform="translate(-83.589 -82.016)" fill="#12263f"/></g></g></g></svg>