<svg xmlns="http://www.w3.org/2000/svg" xmlns:xlink="http://www.w3.org/1999/xlink" width="103.054" height="102.832" viewBox="0 0 103.054 102.832"><defs><clipPath id="a"><rect width="103.054" height="102.832" fill="none"/></clipPath></defs><g clip-path="url(#a)"><path d="M91.018,23.975c0-6.246-.093-12.315.044-18.38.058-2.537-1.263-3.96-3.123-5.2C87.77.28,87.6.175,87.321,0H15.751C15.262.37,14.633.6,14.1,1.057A5.847,5.847,0,0,0,11.977,6c.1,9.355.044,18.711.044,28.263-2.2,0-4.4.108-6.588-.029-2.475-.155-3.741,1.387-5.02,3.083A2.937,2.937,0,0,0,0,39.3q-.009,9.323,0,18.645c.423.527.65,1.162,1.1,1.7a5.432,5.432,0,0,0,4.959,2.1c1.914-.155,3.851-.033,5.961-.033v1.884c0,11.216.059,22.432-.044,33.647-.023,2.534,1.264,3.96,3.123,5.2.111.074.233.131.343.206a1.645,1.645,0,0,1,.19.186H87.288c.489-.368,1.118-.6,1.655-1.056a5.882,5.882,0,0,0,2.118-4.945c-.08-15.071-.043-30.143-.043-45.414,2.2,0,4.4-.11,6.582.029,2.476.157,3.772-1.363,5.012-3.088a2.469,2.469,0,0,0,.442-1.539q-.036-9.108-.006-18.216a3.107,3.107,0,0,0-.98-2.386q-.621-.592-1.215-1.212a3.284,3.284,0,0,0-2.578-1.044c-2.356.045-4.713.014-7.257.014" fill="#040506"/><path d="M74.274,51.416H68.923a9.883,9.883,0,0,1-3.665-3.67c0-6.364.018-12.789-.021-19.213A2.979,2.979,0,0,1,66,26.5a7.845,7.845,0,0,1,3.12-2.521H87.512V4.395l-.936-.936H32.67v10.9l-1.381.993H30.31c-1.211-.792-1.869-2.158-2.792-3.516-1.046,1.084-1.477,2.632-2.963,3.519h-1.25c-.176-.248-.461-.653-.953-1.349V3.477H16.436l-.922.981V34.216H33.857a7.094,7.094,0,0,1,3.924,3.9c0,6.065-.025,12.35.021,18.634a3.663,3.663,0,0,1-1.22,2.933c-.766.7-1.332,1.64-2.4,2.046H27.534v5.74l-1.41,1.083H25.1l-6.789-6.781H15.549a2.767,2.767,0,0,0-.09.463q0,17.573.018,35.147c0,.392-.428,1.046.408,1.2.844.626,1.634.221,2.4-.159a134.4,134.4,0,0,0,13.56-7.634c.622-.4,2.007-.724.857-1.994-2.482-.752-5.116.175-7.682-.629-.451-1.687.652-1.782,1.758-1.783,3.568,0,7.137-.089,10.7.07,2.183-.212,3.608-1.72,5.115-3.051.488-.432.754-1.07-.117-1.508-4.324-.632-8.674-.108-13.008-.3-1.461-.064-2.981.322-4.351-.407-.431-1.171.227-1.476,1.112-1.585a24.6,24.6,0,0,1,2.562-.063c6.266-.114,12.536.24,18.8-.184a10.591,10.591,0,0,0,3.862-2.812c.419-.428,1-.941.084-1.488-1.6-.537-3.259-.283-4.891-.3-4-.038-8,0-12-.02a4,4,0,0,1-2.674-.484c-.442-1.118.228-1.42,1.118-1.514a30.357,30.357,0,0,1,3.426-.056c6,.05,12-.125,18,.1,2.424-.029,3.476-1.912,4.7-3.527.3-.392.11-.807-.342-1.048-3.313-.67-6.666-.145-10-.316-1.05-.054-2.14.188-3.21-.434-.456-1.7.836-1.608,1.833-1.626,3.7-.063,7.4-.013,11.1-.03a21.9,21.9,0,0,0,3.832-.143c2.02-.585,2.775-2.54,4.086-3.873a76.892,76.892,0,0,0,7.131-8.677c.358-.49.894-.956.616-1.695" fill="#e1e2e3"/><path d="M33.059,89.148c.069.272-.147.411-.308.508-1.767,1.072-3.534,2.144-5.322,3.179-3.1,1.795-6.222,3.555-9.438,5.141a3.342,3.342,0,0,1-2.1.605c-.021.438.436.524.6.839H86.564l.975-1.6V51.505h-2.79l-6.7,6.735H76.572l-.722-1.149-.277.2V51.615c-.453-.333-.891-.142-1.3-.2-1.99,2.526-3.856,5.142-5.984,7.57-1.054,1.2-2.158,2.356-3.208,3.559-.712.816-1.318,1.725-1.971,2.592.8.806,1.847.663,2.829.674,3.144.034,6.289,0,9.433.021a4.1,4.1,0,0,1,2.554.458c.439,1.366-.522,1.518-1.487,1.552-2.572.09-5.145.026-7.718.036-2.287.009-4.574-.022-6.86.016a3.325,3.325,0,0,0-2.615.673,35.107,35.107,0,0,1-3.517,3.728c-.225.251-.519.081-.776.131-.673.512-.429,1.459-.891,1.967-.649.615-1.6.358-2.115,1.034a12.059,12.059,0,0,0-1.9,1.739c-.539.746-1.7.687-1.964,1.691.939.9,2.134.689,3.251.693,7.852.025,15.7,0,23.556.025,1.036,0,2.154-.251,3.04.54.288,1.046-.341,1.289-1.128,1.393a17.76,17.76,0,0,1-2.352.073c-9.352,0-18.7-.01-28.054.015-1.184,0-2.454-.249-3.465.692a16.67,16.67,0,0,1-5.152,3.859c-.655.511-.479,1.435-1.005,2.011-1.124.759-2.675-.078-3.718.99" fill="#d9d8da"/><path d="M33.277,58.277l1.061-1.082V38.729l-1.3-1H4.479l-.991.99v18.52L4.5,58.277H19.85l4.139,4.134V59.428l1.12-1.151Z" fill="#3fab99"/><path d="M69.744,27.405l-1.031,1.143V46.97l1.255.977h7.989l1.012,1.427v2.782c.308-.214-.061.084.225.1.049,0,.106-.067.151-.112,1.364-1.36,2.727-2.722,4.125-4.118h15.1l.984-1.391V28.461l-1.011-1.056Z" fill="#ffd53d"/><path d="M28.98,3.394h-3.1a6.494,6.494,0,0,0-.112,2.053,6.61,6.61,0,0,0,.262,2.3l.252-1.3.477.416h1.4l.8.8c.354-.238.365-2.239.025-4.263" fill="#e23a21"/><path d="M42.933,82.288H78.939c.125-1.085.024-2.189.07-3.43H24.1c-.125,1.084-.024,2.188-.07,3.43Z" fill="#040506"/><path d="M59.248,68.567H78.907c.213-1.082,0-2.191.134-3.43H44.708c-.124,1.084-.024,2.188-.07,3.43Z" fill="#040506"/><path d="M57.778,24.8c-.857-.856-1.656-1.653-2.559-2.556-.4.382-.894.858-1.121,1.075a5.62,5.62,0,0,1-5.115.027L46.9,21.2a5.586,5.586,0,0,1,.271-5.143c2.271-3.169,5.5-3.146,8.084-.738l2.435-2.547a8.415,8.415,0,0,0-12.344.063,8.273,8.273,0,0,0-.055,11.926c3.313,3.5,8.535,3.855,12.486.033" fill="#060607"/><path d="M51.949,75.428h3v-3c-.075-.716-.637-.414-.98-.415C48.911,71.992,43.847,72,38.784,72H31v3.43Z" fill="#040506"/><path d="M41.254,53.2v3.291H61.775c.115-1.016.016-2.12.059-3.291Z" fill="#040506"/><rect width="20.524" height="3.28" transform="translate(41.258 46.346)" fill="#040506"/><rect width="20.527" height="3.283" transform="translate(41.256 39.484)" fill="#040506"/><path d="M61.785,35.912V32.618H41.265c-.114,1.019-.016,2.124-.059,3.294Z" fill="#040506"/><path d="M33.059,89.148h4.723v-3c-.075-.714-.634-.414-.977-.415-4.192-.022-8.384-.014-12.669-.014v3.43Z" fill="#040506"/><path d="M34.384,65.208V68.5h6.768c.165-1.013-.005-2.12.094-3.289Z" fill="#040506"/><path d="M27.407,72.034H24.113v3.348c1.018.108,2.122.014,3.294.055Z" fill="#040506"/><path d="M78.958,89.077V85.79H41.266c-.118,1.012-.015,2.115-.06,3.287Z" fill="#040506"/><path d="M78.96,75.357v-3.29H68.741c-.113,1.015-.015,2.119-.058,3.29Z" fill="#040506"/><rect width="6.722" height="3.295" transform="translate(58.497 72.065)" fill="#040506"/><path d="M29.156,53.059V49.774H8.665c-.2,1.007.011,2.116-.115,3.285Z" fill="#040506"/><path d="M29.157,46.2V42.91H8.636c-.115,1.016-.016,2.12-.059,3.291Z" fill="#040506"/><path d="M73.92,42.808H94.378V39.614c-1.744-.3-13.971-.389-20.458-.136Z" fill="#040506"/><path d="M94.453,32.583H73.921v3.192c1.742.3,13.847.393,20.422.14.259-.525.059-1.1.1-1.649.038-.5.008-1,.008-1.683" fill="#040506"/></g></svg>