<svg xmlns="http://www.w3.org/2000/svg" xmlns:xlink="http://www.w3.org/1999/xlink" width="126.415" height="156.565" viewBox="0 0 126.415 156.565"><defs><clipPath id="a"><path d="M2.2,63.208a61,61,0,1,1,61,61,61.074,61.074,0,0,1-61-61M63.208,0a63.208,63.208,0,1,0,63.207,63.208A63.279,63.279,0,0,0,63.208,0Z" fill="#359547"/></clipPath><clipPath id="b"><rect width="56.784" height="73.659" fill="#359547"/></clipPath></defs><g transform="translate(6670 4353.707)"><path d="M22.251,21V6.781h4.375a6.644,6.644,0,0,1,3.354.845,5.89,5.89,0,0,1,2.31,2.4,7.41,7.41,0,0,1,.83,3.54v.654a7.431,7.431,0,0,1-.815,3.525,5.84,5.84,0,0,1-2.3,2.393,6.694,6.694,0,0,1-3.35.859Zm2.93-11.846v9.492H26.6a3.181,3.181,0,0,0,2.627-1.123,5.075,5.075,0,0,0,.928-3.213v-.752a5.156,5.156,0,0,0-.9-3.286,3.171,3.171,0,0,0-2.627-1.118ZM38.042,21H35.21V10.434h2.832Zm-3-13.3a1.39,1.39,0,0,1,.425-1.045,1.831,1.831,0,0,1,2.31,0,1.382,1.382,0,0,1,.43,1.045,1.386,1.386,0,0,1-.435,1.055,1.81,1.81,0,0,1-2.295,0A1.386,1.386,0,0,1,35.044,7.7ZM46.3,13.08A7.667,7.667,0,0,0,45.289,13a2.067,2.067,0,0,0-2.1,1.084V21H40.367V10.434h2.666l.078,1.26a2.615,2.615,0,0,1,2.354-1.455,2.957,2.957,0,0,1,.879.127ZM52.525,21.2a5.187,5.187,0,0,1-3.784-1.426,5.068,5.068,0,0,1-1.46-3.8V15.7a6.383,6.383,0,0,1,.615-2.847,4.515,4.515,0,0,1,1.743-1.934,4.893,4.893,0,0,1,2.573-.679,4.385,4.385,0,0,1,3.413,1.367,5.555,5.555,0,0,1,1.245,3.877v1.152H50.142a2.622,2.622,0,0,0,.825,1.66,2.5,2.5,0,0,0,1.743.625,3.046,3.046,0,0,0,2.549-1.182l1.387,1.553a4.237,4.237,0,0,1-1.719,1.4A5.639,5.639,0,0,1,52.525,21.2ZM52.2,12.514a1.764,1.764,0,0,0-1.362.569,2.946,2.946,0,0,0-.669,1.628H54.1v-.226a2.1,2.1,0,0,0-.508-1.457A1.819,1.819,0,0,0,52.2,12.514ZM62.867,18.92a1.851,1.851,0,0,0,1.27-.43,1.506,1.506,0,0,0,.508-1.143h2.646a3.62,3.62,0,0,1-.586,1.968A3.866,3.866,0,0,1,65.127,20.7a4.936,4.936,0,0,1-2.212.493,4.587,4.587,0,0,1-3.574-1.44,5.7,5.7,0,0,1-1.309-3.979V15.59a5.635,5.635,0,0,1,1.3-3.9A4.534,4.534,0,0,1,62.9,10.238a4.444,4.444,0,0,1,3.179,1.128,3.994,3.994,0,0,1,1.216,3H64.644a1.939,1.939,0,0,0-.508-1.34,1.887,1.887,0,0,0-2.778.2,4.166,4.166,0,0,0-.5,2.333v.293a4.219,4.219,0,0,0,.5,2.347A1.721,1.721,0,0,0,62.867,18.92Zm10.43,0a1.851,1.851,0,0,0,1.27-.43,1.506,1.506,0,0,0,.508-1.143H77.72a3.62,3.62,0,0,1-.586,1.968A3.866,3.866,0,0,1,75.557,20.7a4.936,4.936,0,0,1-2.212.493,4.587,4.587,0,0,1-3.574-1.44,5.7,5.7,0,0,1-1.309-3.979V15.59a5.635,5.635,0,0,1,1.3-3.9,4.534,4.534,0,0,1,3.564-1.455A4.444,4.444,0,0,1,76.5,11.366a3.994,3.994,0,0,1,1.216,3H75.074a1.939,1.939,0,0,0-.508-1.34,1.887,1.887,0,0,0-2.778.2,4.166,4.166,0,0,0-.5,2.333v.293a4.219,4.219,0,0,0,.5,2.347A1.721,1.721,0,0,0,73.3,18.92ZM82.31,21H79.478V10.434H82.31Zm-3-13.3a1.39,1.39,0,0,1,.425-1.045,1.831,1.831,0,0,1,2.31,0,1.382,1.382,0,0,1,.43,1.045,1.386,1.386,0,0,1-.435,1.055,1.81,1.81,0,0,1-2.295,0A1.386,1.386,0,0,1,79.312,7.7Zm4.883,7.92a6.266,6.266,0,0,1,.605-2.8,4.432,4.432,0,0,1,1.743-1.9,5.086,5.086,0,0,1,2.642-.674,4.812,4.812,0,0,1,3.491,1.309A5.252,5.252,0,0,1,94.185,15.1l.02.723a5.523,5.523,0,0,1-1.357,3.9,5.261,5.261,0,0,1-7.29,0,5.62,5.62,0,0,1-1.362-3.984Zm2.822.2a3.95,3.95,0,0,0,.566,2.3,2.035,2.035,0,0,0,3.223.01,4.322,4.322,0,0,0,.576-2.518,3.91,3.91,0,0,0-.576-2.289,1.873,1.873,0,0,0-1.621-.812,1.842,1.842,0,0,0-1.6.807A4.395,4.395,0,0,0,87.017,15.819ZM89.742,6h3.076L90.113,9.027H87.818Zm8.8,4.434.088,1.221a3.689,3.689,0,0,1,3.037-1.416,3.066,3.066,0,0,1,2.5.986,4.6,4.6,0,0,1,.84,2.949V21h-2.822V14.242a1.831,1.831,0,0,0-.391-1.3,1.749,1.749,0,0,0-1.3-.405,1.942,1.942,0,0,0-1.787,1.016V21H95.884V10.434Z" transform="translate(-6671 -4218.337)" fill="#12263f"/><g transform="translate(-6670 -4353.707)"><g clip-path="url(#a)"><rect width="156.849" height="156.851" transform="translate(-34.098 9.986) rotate(-16.323)" fill="#359547"/></g></g><g transform="translate(-6635.339 -4327.707)"><g transform="translate(0 0)" clip-path="url(#b)"><path d="M33.319,73.058H6.15A1.289,1.289,0,0,1,5.01,71.17a31.725,31.725,0,0,0,2.774-8.22A35.732,35.732,0,0,0,3.7,38.536,25.469,25.469,0,0,1,.587,24.829a24.8,24.8,0,0,1,.4-3.321,1.288,1.288,0,0,1,2.532.479,22.954,22.954,0,0,0,2.437,15.3,38.31,38.31,0,0,1,4.349,26.184,37.579,37.579,0,0,1-2.124,7.006H32.031V60.854a1.289,1.289,0,0,1,1.289-1.289H38.3a9.032,9.032,0,0,0,9.021-9.021V40.519a1.289,1.289,0,0,1,1.289-1.289h4.655a.56.56,0,0,0,.467-.869c-.024-.036-.044-.071-.064-.108L50.491,32.2a12.7,12.7,0,0,1-1.436-5.908A22.942,22.942,0,0,0,28.694,3.436,1.289,1.289,0,0,1,28.982.874a25.51,25.51,0,0,1,22.65,25.381A10.159,10.159,0,0,0,52.772,31l3.155,6a3.136,3.136,0,0,1-2.659,4.8H49.9v8.736a11.612,11.612,0,0,1-11.6,11.6h-3.7V71.77a1.289,1.289,0,0,1-1.289,1.289" transform="translate(0.38 0.602)" fill="#359547"/><path d="M27.48,38.106h-11a1.289,1.289,0,1,1,0-2.577h11a1.289,1.289,0,1,1,0,2.577" transform="translate(10.536 24.638)" fill="#359547"/><path d="M25.109,36.941H18.491A1.289,1.289,0,0,1,17.2,35.652V32.963l-1.9,1.9a1.289,1.289,0,0,1-1.822,0L8.8,30.184a1.289,1.289,0,0,1,0-1.822l1.9-1.9H8.011a1.289,1.289,0,0,1-1.289-1.289v-6.62a1.289,1.289,0,0,1,1.289-1.289H10.7l-1.9-1.9a1.291,1.291,0,0,1,0-1.824l4.681-4.679a1.289,1.289,0,0,1,1.822,0l1.9,1.9V8.075a1.288,1.288,0,0,1,1.289-1.289h6.618A1.287,1.287,0,0,1,26.4,8.075v2.687l1.9-1.9a1.289,1.289,0,0,1,1.822,0L34.8,13.541a1.29,1.29,0,0,1,0,1.824l-1.9,1.9H35.59a1.289,1.289,0,0,1,1.289,1.289v6.62a1.289,1.289,0,0,1-1.289,1.289H32.9l1.9,1.9a1.288,1.288,0,0,1,0,1.822l-4.681,4.681a1.289,1.289,0,0,1-1.822,0l-1.9-1.9v2.687a1.288,1.288,0,0,1-1.289,1.289M19.78,34.364h4.041V32.724A2.271,2.271,0,0,1,25.25,30.6l.276-.115a2.265,2.265,0,0,1,2.523.484l1.162,1.162,2.857-2.859-1.16-1.16a2.27,2.27,0,0,1-.484-2.527c.039-.09.078-.181.113-.273a2.272,2.272,0,0,1,2.124-1.429H34.3V19.842H32.66a2.268,2.268,0,0,1-2.122-1.429c-.037-.091-.076-.183-.115-.273a2.27,2.27,0,0,1,.484-2.527l1.16-1.16L29.211,11.6l-1.162,1.162a2.27,2.27,0,0,1-2.527.484c-.091-.041-.183-.08-.274-.115A2.272,2.272,0,0,1,23.821,11V9.363H19.78V11a2.271,2.271,0,0,1-1.429,2.124l-.274.115a2.271,2.271,0,0,1-2.525-.484L14.39,11.6l-2.857,2.859,1.16,1.16a2.267,2.267,0,0,1,.484,2.527c-.039.09-.076.181-.113.273a2.271,2.271,0,0,1-2.124,1.429H9.3v4.042H10.94a2.271,2.271,0,0,1,2.124,1.429c.037.091.075.183.113.271a2.269,2.269,0,0,1-.484,2.528l-1.16,1.16,2.857,2.859,1.162-1.162a2.265,2.265,0,0,1,2.528-.483c.086.037.178.076.269.112a2.274,2.274,0,0,1,1.431,2.125Z" transform="translate(4.661 4.706)" fill="#359547"/><path d="M18.728,26.368a7.576,7.576,0,1,1,7.578-7.576,7.585,7.585,0,0,1-7.578,7.576m0-12.575a5,5,0,1,0,5,5,5,5,0,0,0-5-5" transform="translate(7.733 7.778)" fill="#359547"/><path d="M7.01,23.332a1.282,1.282,0,0,1-.911-.378l-2.64-2.64a1.288,1.288,0,0,1,0-1.822l1.3-1.3H2.919A1.288,1.288,0,0,1,1.63,15.9V10.244A1.288,1.288,0,0,1,2.919,8.955H4.763l-1.3-1.3a1.29,1.29,0,0,1,0-1.824l4-4a1.288,1.288,0,0,1,1.822,0l1.3,1.3V1.289A1.288,1.288,0,0,1,11.874,0H17.53a1.288,1.288,0,0,1,1.289,1.289V3.133l1.3-1.3a1.291,1.291,0,0,1,1.824,0l4,4a1.288,1.288,0,0,1,0,1.824L24.315,9.28a1.288,1.288,0,1,1-1.822-1.822l.718-.718L21.033,4.562l-.787.789a2.367,2.367,0,0,1-4-1.66V2.577H13.162V3.692a2.367,2.367,0,0,1-4,1.66L8.37,4.562,6.192,6.74l.789.787a2.367,2.367,0,0,1-1.66,4H4.207v3.079H5.322a2.366,2.366,0,0,1,1.658,4l-.787.787,1.729,1.729a1.289,1.289,0,0,1-.911,2.2" transform="translate(1.13 0.001)" fill="#359547"/><path d="M7.366,14.318a1.293,1.293,0,0,1-1.133-.669,6.664,6.664,0,0,1,10.94-7.5A1.289,1.289,0,1,1,15.2,7.815,4.086,4.086,0,0,0,8.494,12.41a1.29,1.29,0,0,1-.511,1.749,1.272,1.272,0,0,1-.616.159" transform="translate(3.755 2.625)" fill="#359547"/><path d="M49.137,44.552H1.289a1.289,1.289,0,0,1,0-2.577H49.137a1.289,1.289,0,0,1,0,2.577" transform="translate(0 29.108)" fill="#359547"/></g></g></g></svg>