<svg xmlns="http://www.w3.org/2000/svg" xmlns:xlink="http://www.w3.org/1999/xlink" width="85.999" height="85.686" viewBox="0 0 85.999 85.686"><defs><clipPath id="a"><rect width="85.999" height="85.686" fill="none"/></clipPath></defs><g clip-path="url(#a)"><path d="M25.7,42.145v3.683a4.694,4.694,0,0,1,.795,3.157q-.017,14.043,0,28.085a4.835,4.835,0,0,0,.633,3.153c3.129.587,6.456.31,9.775.183,1.773-.726,2.823-2.275,4.06-3.605.308-.33.475-.786-.091-1.112-1.53-.454-3.1-.153-4.648-.237A6.629,6.629,0,0,1,33.76,75.2c-.455-.4-.448-.855-.093-1.534,3.412-.552,6.983.1,10.5-.351a8.641,8.641,0,0,0,3.346-3.248,39.083,39.083,0,0,0,.179-5.805c.034-.909.07-1.8,1.044-2.265,1.909-.636,3.872-.211,5.805-.279a3.357,3.357,0,0,0,3.023-1.407c.475-.944-.282-1.427-.777-1.99-1.093-1.24-2.508-2.205-3.244-3.6a3.5,3.5,0,0,1,1.358-2.4q5.248-5.276,10.537-10.511a2.815,2.815,0,0,1,1.973-1.091c1.315.469,2.117,1.746,3.141,2.731,2.3,2.216,2.5,2.217,4.553-.161,1.276-1.476,2.726-2.789,4.111-4.164a4.286,4.286,0,0,0,1.372-2.587,10.288,10.288,0,0,1,2.129-5.193,3.452,3.452,0,0,0,.832-1.618c.038-1.411.405-2.865-.535-4.149-.887-.812-.683-1.892-.731-2.916s.171-2.118-.86-2.842c-1.966-.568-3.979-.194-5.968-.278a2.675,2.675,0,0,1-2.466-1.045,3.812,3.812,0,0,0-1.459-.335c-1.951-.228-2.226-.51-2.269-2.536-.051-2.394,0-4.79-.024-7.185a3.916,3.916,0,0,0-.487-2.424,3.231,3.231,0,0,0-2.369-.57c-12.347-.015-24.694,0-37.041-.024a3.855,3.855,0,0,0-3.634,1.9V9.668c.6.456,1.182.1,1.758-.041A16.845,16.845,0,0,1,45.2,16.246c.41.571.666,1.317,1.486,1.493.828-.2.872-.938,1.065-1.559a3.476,3.476,0,0,1,3.018-2.748,2.792,2.792,0,0,0,1.245-.473c1.615-1.111,3.077-.624,4.862-.1,2.777.82,4.035,2.481,4.935,5.024.564,1.592.951,2.928-.051,4.4a5.608,5.608,0,0,0-.663,1.709,3.906,3.906,0,0,1-2.8,2.847,8.778,8.778,0,0,0-2.023.8,3.4,3.4,0,0,1-3.656.028,2.669,2.669,0,0,0-2.537-.436,4.3,4.3,0,0,0-.217,4.335,1.617,1.617,0,0,0,.532.26c3.563.3,7.134.062,10.7.139a5.711,5.711,0,0,1,2.263.233c.459.482.339.935.043,1.59-4.288.31-8.629,0-12.957.172A3.273,3.273,0,0,0,49,34.2a10.984,10.984,0,0,0-2.1,3.312c-.232.444-.32.965.308,1.256,4.308.362,8.625.065,12.937.169.7.017,1.462-.189,2.008.473a1.111,1.111,0,0,1-.288,1.422c-5.156.283-10.5-.012-15.832.15a10.13,10.13,0,0,0-2.273.12c-2.021.831-3.993,1.771-5.9,2.567-.157.641.308.86.346,1.238a1.783,1.783,0,0,1-.275,1.6,12.089,12.089,0,0,1-4.294.049c-.56-.716-.328-1.449-.587-2.062-.295-.655-.917-.712-1.512-.87a10.256,10.256,0,0,1-3.29-1.131c-.818-.344-1.594-1-2.55-.352" transform="translate(-14.212 -2.997)" fill="#57bbcf"/><path d="M90.19,56.971a23.05,23.05,0,0,0-1.661,2.323,11.106,11.106,0,0,0-1.4,5.249c-.773.771-1.639,1.628-2.5,2.491a34.111,34.111,0,0,0-4.214,4.611A1.134,1.134,0,0,1,79.1,71.2c-1.373-1.386-2.76-2.759-4.15-4.145a2.285,2.285,0,0,0-2.164.73q-5.856,5.851-11.727,11.688c-.461.458-.554,1.161-1.089,1.425a2.384,2.384,0,0,0,.9,1.925q1.667,1.645,3.312,3.31c.182.186.491.3.479.634.222.865,1.014,1.277,1.521,1.916.866.848,1.719,1.706,2.573,2.565.156.167.32.326.483.486.875.848,1.729,1.718,2.586,2.584,1.034.989,2.037,2.009,3.042,3.027q1.383,1.333,2.717,2.715c1.167,1,2.015,2.374,3.515,2.983a1.453,1.453,0,0,0,.708,0c1.768-.8,2.79-2.46,4.208-3.667q2.187-2.241,4.441-4.418c1.026-.914,1.808-2.1,3.063-2.742.646.163.471.706.472,1.1.017,5.691.029,11.381,0,17.071a1.832,1.832,0,0,1-.368,1.31,4.971,4.971,0,0,1-2.576.294q-24.761.015-49.523.022c-1.072,0-2.291-.308-3.055.864q0,1.255,0,2.511a.8.8,0,0,0,.12.116.3.3,0,0,0,.146.05c19.195,0,38.39,0,57.7,0l.774-1.017V79.832c-.43-.211-.881-.034-1.311-.095a1.029,1.029,0,0,0-1.457.048c-.748,1.572-.065,3.408-.451,5.052a.644.644,0,0,1-.7-.154c-.99-.845-1.879-1.79-2.784-2.714a1.425,1.425,0,0,1-.3-.511.741.741,0,0,1,.277-.511,23.158,23.158,0,0,0,2.608-2.352c.946-1.063,2.153-1.9,2.813-3.209a2.654,2.654,0,0,1,2.534-1.359,8.436,8.436,0,0,0,5.028-2.01,11.076,11.076,0,0,0,3.337-4.64,10.027,10.027,0,0,0,.262-5.189,7.668,7.668,0,0,0-1.442-3.59,16,16,0,0,0-2.784-2.847,14.172,14.172,0,0,0-3.08-1.443,2.319,2.319,0,0,0-.833-.015H95.9c-1.066-.663-1.956.136-2.917.346a5.448,5.448,0,0,0-2.792,2.332" transform="translate(-21.271 -29.876)" fill="#040506"/><path d="M36.007,31.332a3.06,3.06,0,0,1,2.237.688,3.016,3.016,0,0,0,3.564.262,9.262,9.262,0,0,1,2.705-1.207,4.4,4.4,0,0,0,2.8-2.812c.18-.544.084-1.146.436-1.661.326-.477.847-.825.938-1.462a5.619,5.619,0,0,0-.237-3.011l-1.039-.968a3.7,3.7,0,0,0-.642-2.51,3.908,3.908,0,0,0-2.023-1.713H43.242c-.528-.461-.912-1.1-1.684-1.275-1.575-.03-3.312-.465-4.3,1.285H35.738c-1.572.519-2.14,1.675-2.79,3.073v1.136l-.442.44c-.108-.091-.263-.163-.322-.281a13.3,13.3,0,0,0-2.976-3.95,19.318,19.318,0,0,0-6.714-4.014,20.174,20.174,0,0,0-7.224-.751c-1.276.241-2.52.651-3.779.985A16.894,16.894,0,0,0,7.379,15.8a20.9,20.9,0,0,0-4.617,4.76,18.236,18.236,0,0,0-2.307,5.22,22.34,22.34,0,0,0-.363,6.18,24.894,24.894,0,0,0,1.046,3.9A18.69,18.69,0,0,0,2.8,39.167a19.1,19.1,0,0,0,7.779,6.51c.3.141.837-.255.913.387a5.584,5.584,0,0,1,2.351.669,14.989,14.989,0,0,0,10.552-.9,16.057,16.057,0,0,0,4.739-3.188A17.125,17.125,0,0,0,32.6,38.4a23.494,23.494,0,0,0,1.349-3.04,29.9,29.9,0,0,0,.909-3.632c.336-.326.655-.615,1.151-.394" transform="translate(0 -6.916)" fill="#040506"/><path d="M35.688,129.938H25.452a.784.784,0,0,1-.118-.115.276.276,0,0,1-.054-.144q0-16.887,0-33.781c-.463-.227-.914-.05-1.344-.11H22.761c-.258,1.5-.347,22.7-.152,36.318l.814.845h6.22a2.428,2.428,0,0,0,.569.356,7.508,7.508,0,0,0,2.492.2q23.121.009,46.242,0c.279,0,.559,0,.838,0,2.8-.059,3.442-.692,3.476-3.489.025-2.06.016-4.12,0-6.18a4.22,4.22,0,0,0-.369-2.115,1.691,1.691,0,0,0-1.476-.631,2.337,2.337,0,0,0-1.892.565c-.991,2.263.094,4.926-.671,7.343a4.747,4.747,0,0,1-2.678.371q-18.7.017-37.4.009a5.179,5.179,0,0,0-3.082.558" transform="translate(-12.442 -52.956)" fill="#040606"/><path d="M24.085,4.328H25.26c.388-.354.029-.849.235-1.289H67.071c0,3.469,0,6.911,0,10.352,0,.636-.213,1.326.524,1.821,1.1.815,2.5.4,3.838.5,1.021.8,2.223.451,3.355.509,1.155.059,2.315-.029,3.471.054a2,2,0,0,1,1.57.777,2.39,2.39,0,0,1,.356,1.176c-.055,1.469-.02,2.941-.02,4.373.359.235.693.1,1.008.142a1.549,1.549,0,0,0,1.838-.023c.823-2.406.221-5.1.308-7.741a2.956,2.956,0,0,0-.635-2.02,34.184,34.184,0,0,0-6.212-5.952,35.33,35.33,0,0,1-3.487-3.318c-.853-.8-1.662-1.656-2.5-2.479A3.929,3.929,0,0,0,68.967,0H23.533l-.757,1.228V4.234c.429.211.88.033,1.309.094" transform="translate(-12.593)" fill="#040607"/><path d="M38.81,155.214h-.336v3.013a2.525,2.525,0,0,1,1.2-.355c1.62.052,3.243.02,4.864.02H94.478V136.044a2.955,2.955,0,0,0-1.6,1.425,4.62,4.62,0,0,0-.558,2.736c0,4.4.008,8.8-.006,13.2a3.873,3.873,0,0,1-.323,2.26,3.363,3.363,0,0,1-1.965.327q-24.217.011-48.433-.008c-.977,0-2.049.176-2.782-.77" transform="translate(-21.273 -75.22)" fill="#187bc1"/><path d="M142.881,15.67c1.618,1.973,3.558,3.635,5.324,5.466a2.887,2.887,0,0,1,1.057,1.9,27.45,27.45,0,0,1,.845,8.35,2.887,2.887,0,0,0,.5,2.364,3.52,3.52,0,0,0,1.943-.488,4.113,4.113,0,0,1,1.079-.181V30.067a3.6,3.6,0,0,1-.823-2.617q.027-3.908,0-7.816a3.731,3.731,0,0,0-.446-2.275c-.968-.825-2.247-.332-3.337-.7-.5-.175-.665-.734-1.1-.984Z" transform="translate(-79 -8.664)" fill="#197bc1"/><path d="M154.133,14.054V15.7c1.407.059,2.827,0,4.331.034V28.326c.5.237.951.067,1.378.125h1.289c.116-2.482.038-4.971.052-7.458.014-2.454,0-4.907,0-7.474l-1.229-.772h-5.729c-.211.429-.034.879-.095,1.306" transform="translate(-85.214 -7.048)" fill="#040506"/><path d="M159.385,111.164a3.035,3.035,0,0,0,1.624,1.441v-6.328c.521-.249.97-.076,1.4-.135v-4.352a15.971,15.971,0,0,0-3.022,3.013,8.418,8.418,0,0,0,0,6.361" transform="translate(-87.78 -56.28)" fill="#1879be"/><path d="M51.994,157.276H95.979v-8.37h1.687a3.253,3.253,0,0,0,0-3.683,32.835,32.835,0,0,0-4.365,4.352c-.586.734-.345,1.733-.833,2.573-.866.821-2.19.535-3.2,1.11H88.6c-2.166-.91-4.434-.461-6.664-.5-5.473-.088-10.947-.01-16.42-.041-2.9-.017-3.14-.256-3.25-3.114a2.653,2.653,0,0,0-.531-2.038,12.491,12.491,0,0,0-2.687,2.679c-.609.587-.337,1.489-.766,2.142-.732.681-1.892.1-2.593.871a25.763,25.763,0,0,1-2.537,2.7c-.386.437-.931.737-1.157,1.314" transform="translate(-28.748 -80.295)" fill="#4cb7c8"/><path d="M73.777,139.459v4.5l1.172,1.194H93.927a2.706,2.706,0,0,0,.092-3.083,3.717,3.717,0,0,0-2.413-.462c-3.85-.017-7.7,0-11.552-.01a5.6,5.6,0,0,1-2.47-.331,20.971,20.971,0,0,1-.018-6.832c.524-.734,1.311-.459,2.009-.532,1.474-.155,3.023.405,4.423-.464a2.549,2.549,0,0,0-.1-2.78,65.622,65.622,0,0,0-8.776.1c-.7-.155-.893.514-1.344.827Z" transform="translate(-40.792 -72.187)" fill="#040607"/><path d="M58.955,105.59H41.61v2.493c1.372.235,12.11.309,17.345.107Z" transform="translate(-23.007 -58.382)" fill="#040606"/><path d="M70.15,82.5H87.278V79.823a20.154,20.154,0,0,0-4.47-.151c-4.16-.046-8.32.018-12.507-.044a2.086,2.086,0,0,0-.15,2.873" transform="translate(-38.509 -44.024)" fill="#040506"/><path d="M79.891,66.61H93.958c.08-.96.017-1.933.044-3.013H79.891a2.435,2.435,0,0,0,0,3.013" transform="translate(-43.884 -35.163)" fill="#040809"/><rect width="14.377" height="2.563" transform="translate(27.308 41.549)" fill="#040506"/><path d="M49.917,159.468h2.832l.526-.489v-2.524H41.556v2.532a1.135,1.135,0,0,0,1.159.49c2.4-.02,4.8-.009,7.2-.009" transform="translate(-22.977 -86.505)" fill="#030a0b"/><path d="M41.546,143.834v2.5c.259.228.422.486.836.483q5.017-.037,10.034,0c.411,0,.572-.265.818-.478v-2.5Z" transform="translate(-22.971 -79.527)" fill="#020b0c"/><path d="M41.609,133.659l.419.418H52.882c.8-.855.241-1.9.469-2.911H41.609Z" transform="translate(-23.006 -72.523)" fill="#020c0d"/><path d="M50.17,120.955V118.39H41.507c-.09.789-.011,1.65-.046,2.565Z" transform="translate(-22.924 -65.459)" fill="#040707"/><path d="M41.708,85.358c-1.344.219-2.529,1.023-3.922,1.064-.57.528-1.266.194-1.9.267-.528.061-1.1-.1-1.538.342-1.077-.632-2.258-.208-3.385-.334.115.5.645.566.948.633a11.605,11.605,0,0,0,3.5.716.25.25,0,0,1,.256.326,7.538,7.538,0,0,0,6.045,0c.025-.326-.2-.329-.429-.336-.2-.007-.436.065-.619-.287a4.308,4.308,0,0,0,1.516-.387,15.361,15.361,0,0,0,1.6-.559c.473-.2,1.127-.347,1.331-.719.328-.6,1.14-.051,1.3-.725-1.567-1.016-3.135-.454-4.7,0" transform="translate(-17.119 -46.88)" fill="#4bb4c4"/><path d="M55,81.929H62.05v-2.5a.759.759,0,0,1,.111-.119.263.263,0,0,1,.141-.058q8.437,0,16.875,0c-.116-.65-.625-.317-.931-.318-4.506-.024-9.013-.017-13.52-.017H63.058c-1.231-.74-2.463,0-3.694,0-.834.454-1.377,1.255-2.2,1.756-.713.432-1.658.485-2.163,1.258" transform="translate(-30.409 -43.451)" fill="#32a9b9"/><path d="M156.419,42.86v-8.21l-.857-.81c-.412-.6.272-1.328-.486-1.694v8.37H153.4c.059.359.384.589.358,1.027-.066,1.105-.022,2.217-.022,3.325l2.687-2.009" transform="translate(-84.814 -17.774)" fill="#0c73bb"/><path d="M47.523,92.8H41.478v2.669c1.974.02,3.952,0,6.045.011Z" transform="translate(-22.934 -51.312)" fill="#030b0c"/><path d="M67.833,118.386v2.569h5.643c.087-.794.012-1.655.045-2.569Z" transform="translate(-37.505 -65.457)" fill="#040708"/><path d="M64.755,73.788c-.038.2.1.346.249.324.768-.109,1.577.27,2.327-.3.241-.182.738-.029,1.118-.029.633-1.132,1.248-2.275,1.91-3.389.135-.227.059-.423.1-.628a1.739,1.739,0,0,0-2.351,0c-.709.558-.944,1.463-1.573,2.093a8.776,8.776,0,0,0-1.785,1.925" transform="translate(-35.8 -38.323)" fill="#4cb5c6"/><path d="M140.01,36.48V35.32a.822.822,0,0,0-.111-.118.268.268,0,0,0-.14-.058q-4.073,0-8.144,0V36.3a.751.751,0,0,0,.11.118.266.266,0,0,0,.14.059q4.072,0,8.145,0" transform="translate(-72.771 -19.43)" fill="#4cb7c8"/><path d="M72.274,66.492h3.694V63.479h-.336a5.356,5.356,0,0,0-2.015,0,.818.818,0,0,0-.161,0c-.192,1.084-1.028,1.915-1.183,3.012" transform="translate(-39.961 -35.045)" fill="#32a7b7"/><path d="M75.279,57.516a1.607,1.607,0,0,0,2.015,0c0-.7.049-1.407-.017-2.1a2.7,2.7,0,0,1,.365-1.3l-.315-.495.3-.119c-.395-.542-1.059-.384-1.765-.9.389,1.913-.455,3.356-.586,4.918" transform="translate(-41.622 -29.082)" fill="#4cb5c5"/><path d="M76.781,128.924h8.731a1.444,1.444,0,0,0,2.015,0,4.815,4.815,0,0,0-1.679-1.674c-.643.259-.946.9-1.565,1.339-2.236,0-4.571,0-6.9,0-.242,0-.594-.128-.6.33" transform="translate(-42.453 -70.358)" fill="#4bb5c7"/><path d="M149.259,61.351c-.572.158-1-.3-1.516-.4a4.792,4.792,0,0,0-2.618-.04,7.848,7.848,0,0,0-2.611.979,6.127,6.127,0,0,0-3.039,4.055,8.306,8.306,0,0,0-.283,2.206,2.289,2.289,0,0,1-.788,1.844c-2.465,2.221-4.46,4.885-6.849,7.18a30.027,30.027,0,0,0-4.471,4.977,14.536,14.536,0,0,0,2.7,2.638c.763.263,1.285-.24,1.824-.606a50.159,50.159,0,0,0,17.13-20.607,3.032,3.032,0,0,0,.524-2.223" transform="translate(-70.266 -33.586)" fill="#84452c"/><path d="M122.58,115.376l6.128-6.11-4.893-4.878a22.662,22.662,0,0,1-3.942,3.48,2.176,2.176,0,0,1-1.692-.786q-3.141-3.141-6.292-6.272a2.373,2.373,0,0,1-.809-1.989,20.59,20.59,0,0,1,3.355-3.811l-3.427-3.416a48.728,48.728,0,0,0-6.2,6.061l17.775,17.72" transform="translate(-57.948 -50.643)" fill="#d9d8d6"/><path d="M152.594,62.1c-.723,1.368-1.23,2.829-1.979,4.2a56.6,56.6,0,0,1-4.5,7.165c-.948,1.246-1.963,2.424-2.946,3.632a16.515,16.515,0,0,1-2.429,2.637A56.63,56.63,0,0,1,136,83.579a30.393,30.393,0,0,1-2.882,1.957,19.2,19.2,0,0,0,2.122,2.3,23.049,23.049,0,0,0,4.363-3.922c2.745-2.729,5.825-5.107,8.383-8.12,1.221.307,2.356-.184,3.519-.351a5.193,5.193,0,0,0,2.366-1.1,6.788,6.788,0,0,0,2.782-5.522,7.992,7.992,0,0,0-.727-3.549,5.789,5.789,0,0,0-2.292-2.463c-.369-.216-.549-.7-1.037-.71" transform="translate(-73.601 -34.336)" fill="#7d3b22"/><path d="M90.606,141.911v3.683h1.18a.8.8,0,0,1,.111.118.293.293,0,0,1,.051.145c0,3.4,0,6.8,0,10.317l-1.082.8H39.224v1.171c1.485.249,48.359.348,54.068.109V139.232a12.491,12.491,0,0,0-2.687,2.679" transform="translate(-21.687 -76.982)" fill="#0b74bc"/><path d="M80.537,137.046v8.37H97.664a2.846,2.846,0,0,0,3.358,0,12.5,12.5,0,0,0-2.687-2.678c-2.123-1.02-4.37-.387-6.56-.495-2.529-.152-5.083.212-7.46-.2a1.243,1.243,0,0,1-.278-1.54c2.586-.593,5.3-.089,7.976-.288,1.12-.036,2.3.323,3.3-.492a12.49,12.49,0,0,0-2.687-2.679,5.213,5.213,0,0,0-3.6-.433,62.806,62.806,0,0,1-7.852.269,1.212,1.212,0,0,0-.638.164" transform="translate(-44.53 -75.467)" fill="#4cb7c8"/><path d="M95.184,112.6l17.782,17.728c.334-.086.6-.615,1-.971.415-.372.795-.783,1.183-1.17l-17.8-17.742L95.184,112.6" transform="translate(-52.628 -61.068)" fill="#e6e6e3"/><path d="M122.2,156.456h-3.358v3.013h6.716l-3.358-3.013" transform="translate(-65.71 -86.506)" fill="#197ec3"/><path d="M105.082,146.738H111.8a15.973,15.973,0,0,0-3.023-3.013h-3.358a3.408,3.408,0,0,0-.336,3.013" transform="translate(-57.993 -79.467)" fill="#1a7ec3"/><path d="M156.545,114.89v-6.361c-.378.023-.5.373-.738.578-.66.576-1.3,1.175-1.948,1.766a1.075,1.075,0,0,0,0,1.339,12.49,12.49,0,0,0,2.687,2.679" transform="translate(-84.94 -60.007)" fill="#0b73bb"/><path d="M98.326,130.994H96.311v2.679a13.834,13.834,0,0,0,4.7,0,12.491,12.491,0,0,0-2.687-2.679" transform="translate(-53.251 -72.428)" fill="#197cc2"/><path d="M135.37,158.641a7.711,7.711,0,0,0,3.605-.473c.727-.868.341-2.077.425-3.21a9.68,9.68,0,0,0-1.812,1.644c-.747.671-1.479,1.359-2.218,2.039" transform="translate(-74.847 -85.678)" fill="#187cc1"/><path d="M92.291,136.973h-4.7c-2.154,0-4.308,0-6.461,0-.242,0-.588-.122-.591.33h12.09q.013-.347-.336-.335" transform="translate(-44.53 -75.728)" fill="#4da9bb"/><path d="M153.314,115.11v-1.339c-.347.056-.506.327-.675.587a.791.791,0,0,0,.675.752" transform="translate(-84.395 -62.905)" fill="#388e9b"/><path d="M6.845,34.007a10.843,10.843,0,0,0,1.516,6.16,13.021,13.021,0,0,0,5.583,5.711,15.61,15.61,0,0,0,4.838,1.7,9.106,9.106,0,0,0,2.886.266c3.413-.394,6.612-1.322,9.105-3.9a14.823,14.823,0,0,0,3.08-4.079,13.072,13.072,0,0,0,1.257-4.178,12.64,12.64,0,0,0,.269-2.539,22.656,22.656,0,0,0-.465-2.982,13.558,13.558,0,0,0-1.934-4.531A13.268,13.268,0,0,0,27.2,20.74a13.235,13.235,0,0,0-5.48-1.337c-.5.016-1.006.017-1.508,0a12.411,12.411,0,0,0-7.085,2.3,14.277,14.277,0,0,0-5.814,7.751c-.189.543-.241,1.115-.407,1.661a10.882,10.882,0,0,0-.064,2.886" transform="translate(-3.748 -10.725)" fill="#78a742"/><path d="M82.834,25.35c-.6.469-.688,1.286-1.465,1.684-.445-.081-1.085.27-1.544-.271l-.9.44v2.434l-1.278.813v1.17l1.28,1.276v1.969c.643.946,1.4.549,2.268.083l1.56,1.8c1.422.15,1.4-1.488,2.644-1.63.489.232,1.187.7,1.9-.179v-2l1.372-1.368v-1c-.248-.536-.957-.475-1.323-1.039V27.252c-.228-.321-.648-.072-.761-.475-.5.406-1.1.224-1.63.283-.72-.318-.937-1.033-1.333-1.6-.262-.233-.569.015-.791-.113" transform="translate(-42.933 -14.016)" fill="#fda322"/><path d="M128.7,11.513V19h7.506L128.7,11.513" transform="translate(-71.16 -6.366)" fill="#93d0dd"/><path d="M94.983,146.738c.058-.359.41-.583.356-1.025a16.649,16.649,0,0,1-.021-1.988h-8.7v2.545l.47.469Z" transform="translate(-47.893 -79.467)" fill="#030a0b"/><path d="M16.346,43.168l-1.912,1.906a.429.429,0,0,0,0,.1.271.271,0,0,0,.046.146c1.5,1.5,3,2.991,4.482,4.472h.777l14.7-14.66-2.014-1.942-13,12.957a11.83,11.83,0,0,1-1.608-1.513c-.528-.5-1.03-1.02-1.48-1.469" transform="translate(-7.98 -18.353)" fill="#050506"/></g></svg>