<svg xmlns="http://www.w3.org/2000/svg" xmlns:xlink="http://www.w3.org/1999/xlink" width="113" height="113" viewBox="0 0 113 113"><defs><clipPath id="a"><rect width="79.966" height="57.343" fill="#12263f"/></clipPath></defs><g transform="translate(-328 -10184.123)"><g transform="translate(328 10184.123)" fill="#d2e6d5" stroke="#fff" stroke-width="4"><circle cx="56.5" cy="56.5" r="56.5" stroke="none"/><circle cx="56.5" cy="56.5" r="54.5" fill="none"/></g><g transform="translate(345 10212.123)"><g clip-path="url(#a)"><path d="M57.288,122.415a12.116,12.116,0,1,1,8.566-3.548,12.033,12.033,0,0,1-8.566,3.548m0-22.071a9.954,9.954,0,1,0,7.039,2.916,9.9,9.9,0,0,0-7.039-2.916" transform="translate(-34.739 -75.505)" fill="#12263f"/><path d="M21.283,98.113a3.665,3.665,0,0,1-3.661-3.66v-2a13.265,13.265,0,0,1-3.677-1.442l-1.265,1.392a3.664,3.664,0,0,1-5.177,0L5.708,90.612a3.663,3.663,0,0,1,0-5.177l1.414-1.413A13.23,13.23,0,0,1,5.539,80.4l-1.877.09A3.665,3.665,0,0,1,0,76.833V74.3a3.665,3.665,0,0,1,3.661-3.661h2A13.208,13.208,0,0,1,7.1,66.959L5.708,65.694a3.661,3.661,0,0,1,0-5.177L7.5,58.724a3.661,3.661,0,0,1,5.177,0l1.413,1.413a13.227,13.227,0,0,1,3.619-1.584l-.09-1.876a3.665,3.665,0,0,1,3.661-3.661h2.534a3.665,3.665,0,0,1,3.661,3.661v2a13.211,13.211,0,0,1,3.677,1.443l1.265-1.392a3.658,3.658,0,0,1,5.177,0l1.794,1.792a3.666,3.666,0,0,1,0,5.177l-1.413,1.413a13.228,13.228,0,0,1,1.584,3.619l1.877-.09A3.665,3.665,0,0,1,45.1,74.3v2.536a3.664,3.664,0,0,1-3.66,3.66h-2A13.211,13.211,0,0,1,38,84.17l1.393,1.266a3.666,3.666,0,0,1,0,5.176L37.6,92.406a3.661,3.661,0,0,1-5.177,0l-1.413-1.413a13.287,13.287,0,0,1-3.619,1.582l.09,1.878a3.665,3.665,0,0,1-3.661,3.66Zm-7.432-9.487a1.082,1.082,0,0,1,.568.161,15.4,15.4,0,0,0,4.527,1.876,1.089,1.089,0,0,1,.836,1.1v2.685a1.5,1.5,0,0,0,1.5,1.5h2.534a1.5,1.5,0,0,0,1.5-1.5V91.787a1.074,1.074,0,0,1,.828-1.122,15.4,15.4,0,0,0,4.535-1.879,1.082,1.082,0,0,1,.568-.161,1.071,1.071,0,0,1,.763.316l1.936,1.937a1.545,1.545,0,0,0,2.123,0l1.794-1.792a1.5,1.5,0,0,0,0-2.123l-1.935-1.936a1.074,1.074,0,0,1-.157-1.33,15.393,15.393,0,0,0,1.875-4.521,1.083,1.083,0,0,1,1.056-.844l2.735,0a1.5,1.5,0,0,0,1.5-1.5V74.3a1.5,1.5,0,0,0-1.5-1.5H38.763a1.087,1.087,0,0,1-1.1-.8,15.51,15.51,0,0,0-1.886-4.566,1.076,1.076,0,0,1,.157-1.332l1.934-1.934a1.507,1.507,0,0,0,0-2.123l-1.794-1.792a1.544,1.544,0,0,0-2.123,0l-1.936,1.936a1.077,1.077,0,0,1-1.33.156,15.36,15.36,0,0,0-4.533-1.879,1.076,1.076,0,0,1-.829-1.051V56.677a1.5,1.5,0,0,0-1.5-1.5H21.283a1.5,1.5,0,0,0-1.5,1.5v2.736a1.076,1.076,0,0,1-.829,1.051,15.36,15.36,0,0,0-4.533,1.879,1.077,1.077,0,0,1-1.33-.156l-1.936-1.936a1.507,1.507,0,0,0-2.123,0L7.235,62.044a1.5,1.5,0,0,0,0,2.123L9.171,66.1a1.074,1.074,0,0,1,.157,1.33,15.431,15.431,0,0,0-1.879,4.533A1.075,1.075,0,0,1,6.4,72.8H3.661a1.5,1.5,0,0,0-1.5,1.5v2.536a1.5,1.5,0,0,0,1.5,1.5H6.4a1.077,1.077,0,0,1,1.051.831A15.358,15.358,0,0,0,9.327,83.7a1.076,1.076,0,0,1-.157,1.332L7.235,86.963a1.5,1.5,0,0,0,0,2.122l1.794,1.794a1.505,1.505,0,0,0,2.123,0l1.936-1.936a1.071,1.071,0,0,1,.763-.316" transform="translate(0 -40.77)" fill="#12263f"/><path d="M231.717,55.637a10.4,10.4,0,1,1,9.653-6.5,10.308,10.308,0,0,1-9.653,6.5m.024-18.63a8.227,8.227,0,1,0,3.073.6,8.208,8.208,0,0,0-3.073-.6" transform="translate(-170.209 -26.797)" fill="#12263f"/><path d="M199.953,36.89a3.24,3.24,0,0,1-1.222-.239l-1.984-.8a3.265,3.265,0,0,1-1.8-4.242l.591-1.46a10.412,10.412,0,0,1-2.285-2.137l-1.3.65a3.257,3.257,0,0,1-4.274-1.726l-.837-1.969a3.265,3.265,0,0,1,1.726-4.274l1.449-.615a10.466,10.466,0,0,1-.1-3.126l-1.382-.462a3.261,3.261,0,0,1-1.8-4.242l.8-1.985a3.251,3.251,0,0,1,4.241-1.8l1.46.59a10.443,10.443,0,0,1,2.137-2.285l-.65-1.3a3.258,3.258,0,0,1,1.726-4.274L198.41.35a3.259,3.259,0,0,1,4.273,1.726l.615,1.449a5.722,5.722,0,0,1,1.629-.178q.749,0,1.5.075l.462-1.382a3.257,3.257,0,0,1,4.242-1.8l1.985.8a3.259,3.259,0,0,1,1.8,4.242l-.588,1.46a10.413,10.413,0,0,1,2.284,2.137l1.3-.65a3.258,3.258,0,0,1,4.274,1.726l.837,1.971A3.259,3.259,0,0,1,221.3,16.2l-1.449.615a10.363,10.363,0,0,1,.1,3.126l1.383.462a3.264,3.264,0,0,1,1.8,4.242l-.8,1.985a3.261,3.261,0,0,1-4.242,1.8l-1.46-.589a10.421,10.421,0,0,1-2.137,2.284l.65,1.3a3.263,3.263,0,0,1-1.726,4.274l-1.971.837a3.218,3.218,0,0,1-1.269.259,3.259,3.259,0,0,1-3-1.985l-.616-1.449a5.638,5.638,0,0,1-1.623.178q-.751,0-1.5-.075l-.462,1.382a3.266,3.266,0,0,1-3.021,2.041m-6.3-11.206a1.085,1.085,0,0,1,.871.439,12.874,12.874,0,0,0,2.916,2.864,1.076,1.076,0,0,1,.377,1.285l-.865,2.143a1.1,1.1,0,0,0,.606,1.43l1.985.8a1.1,1.1,0,0,0,.412.08,1.1,1.1,0,0,0,1.018-.688l.865-2.142a1.089,1.089,0,0,1,1-.675,15.174,15.174,0,0,0,2.1.158,12.846,12.846,0,0,0,2.155-.182h.047a1.115,1.115,0,0,1,1.157.717l.871,2.052a1.1,1.1,0,0,0,1.014.669,1.08,1.08,0,0,0,.427-.087l1.971-.837a1.1,1.1,0,0,0,.582-1.44l-.878-2.066a1.075,1.075,0,0,1,.326-1.351,12.805,12.805,0,0,0,2.867-2.918,1.084,1.084,0,0,1,.883-.455,1.071,1.071,0,0,1,.4.078l2.143.866a1.082,1.082,0,0,0,.41.08,1.1,1.1,0,0,0,1.02-.688l.8-1.984a1.1,1.1,0,0,0-.608-1.43l-2.142-.866a1.076,1.076,0,0,1-.665-1.163,12.817,12.817,0,0,0-.035-4.091,1.133,1.133,0,0,1,.713-1.2l2.056-.873a1.1,1.1,0,0,0,.582-1.441L220.2,10.8a1.1,1.1,0,0,0-1.441-.582l-2.066.878a1.264,1.264,0,0,1-.48.114,1.086,1.086,0,0,1-.871-.44A12.776,12.776,0,0,0,212.424,7.9a1.077,1.077,0,0,1-.377-1.285l.865-2.143a1.1,1.1,0,0,0-.607-1.43l-1.984-.8a1.1,1.1,0,0,0-1.43.606l-.866,2.142a1.078,1.078,0,0,1-1,.677,15.247,15.247,0,0,0-2.1-.159,12.74,12.74,0,0,0-2.148.182h-.051a1.118,1.118,0,0,1-1.124-.643l-.9-2.126a1.1,1.1,0,0,0-1.44-.582l-1.971.837a1.1,1.1,0,0,0-.581,1.44l.9,2.127a1.075,1.075,0,0,1-.353,1.292,12.852,12.852,0,0,0-2.864,2.917,1.081,1.081,0,0,1-.882.456,1.094,1.094,0,0,1-.406-.079l-2.141-.865a1.1,1.1,0,0,0-1.43.606l-.8,1.985a1.1,1.1,0,0,0,.608,1.43l2.142.865a1.08,1.08,0,0,1,.665,1.164,12.84,12.84,0,0,0,.035,4.089,1.078,1.078,0,0,1-.643,1.175l-2.127.9a1.1,1.1,0,0,0-.581,1.44l.837,1.971a1.1,1.1,0,0,0,1.441.582l2.126-.9a1.065,1.065,0,0,1,.421-.085" transform="translate(-143.409)" fill="#12263f"/></g></g></g></svg>