<svg xmlns="http://www.w3.org/2000/svg" xmlns:xlink="http://www.w3.org/1999/xlink" width="126.415" height="183.565" viewBox="0 0 126.415 183.565"><defs><clipPath id="a"><path d="M2.2,63.208a61,61,0,1,1,61,61,61.074,61.074,0,0,1-61-61M63.208,0a63.208,63.208,0,1,0,63.207,63.208A63.279,63.279,0,0,0,63.208,0Z" fill="#03386e"/></clipPath><clipPath id="b"><rect width="76.571" height="73.66" fill="#03386e"/></clipPath></defs><g transform="translate(-1294 -7346.293)"><path d="M24.86,17.27A1.5,1.5,0,0,0,24.274,16a7.685,7.685,0,0,0-2.109-.937,14.953,14.953,0,0,1-2.412-.972,3.941,3.941,0,0,1-2.422-3.525A3.434,3.434,0,0,1,17.98,8.5a4.236,4.236,0,0,1,1.865-1.411,7.021,7.021,0,0,1,2.729-.508,6.39,6.39,0,0,1,2.715.552A4.323,4.323,0,0,1,27.14,8.7,4.076,4.076,0,0,1,27.8,10.98H24.87a1.917,1.917,0,0,0-.615-1.519,2.529,2.529,0,0,0-1.729-.542,2.7,2.7,0,0,0-1.67.454,1.432,1.432,0,0,0-.6,1.2,1.372,1.372,0,0,0,.7,1.162,7.889,7.889,0,0,0,2.056.879,8.882,8.882,0,0,1,3.643,1.865A3.715,3.715,0,0,1,27.8,17.25a3.422,3.422,0,0,1-1.4,2.9,6.113,6.113,0,0,1-3.76,1.05,7.26,7.26,0,0,1-2.988-.6A4.729,4.729,0,0,1,17.6,18.949a4.214,4.214,0,0,1-.708-2.422h2.939q0,2.354,2.813,2.354a2.736,2.736,0,0,0,1.631-.425A1.382,1.382,0,0,0,24.86,17.27Zm9.6,3.926a5.187,5.187,0,0,1-3.784-1.426,5.068,5.068,0,0,1-1.46-3.8V15.7a6.383,6.383,0,0,1,.615-2.847,4.515,4.515,0,0,1,1.743-1.934,4.893,4.893,0,0,1,2.573-.679,4.385,4.385,0,0,1,3.413,1.367,5.555,5.555,0,0,1,1.245,3.877v1.152H32.077a2.622,2.622,0,0,0,.825,1.66,2.5,2.5,0,0,0,1.743.625,3.046,3.046,0,0,0,2.549-1.182l1.387,1.553a4.237,4.237,0,0,1-1.719,1.4A5.639,5.639,0,0,1,34.46,21.2Zm-.322-8.682a1.764,1.764,0,0,0-1.362.569,2.946,2.946,0,0,0-.669,1.628h3.926v-.226a2.1,2.1,0,0,0-.508-1.457A1.819,1.819,0,0,0,34.137,12.514Zm12.207.566A7.667,7.667,0,0,0,45.329,13a2.067,2.067,0,0,0-2.1,1.084V21H40.407V10.434h2.666l.078,1.26A2.615,2.615,0,0,1,45.5,10.238a2.957,2.957,0,0,1,.879.127Zm5.488,4.473L53.8,10.434h2.949L53.18,21h-2.7L46.921,10.434H49.87ZM60.964,21H58.132V10.434h2.832Zm-3-13.3a1.39,1.39,0,0,1,.425-1.045,1.831,1.831,0,0,1,2.31,0A1.382,1.382,0,0,1,61.13,7.7,1.386,1.386,0,0,1,60.7,8.754a1.81,1.81,0,0,1-2.295,0A1.386,1.386,0,0,1,57.966,7.7ZM67.682,18.92a1.851,1.851,0,0,0,1.27-.43,1.506,1.506,0,0,0,.508-1.143h2.646a3.62,3.62,0,0,1-.586,1.968A3.866,3.866,0,0,1,69.943,20.7a4.936,4.936,0,0,1-2.212.493,4.587,4.587,0,0,1-3.574-1.44,5.7,5.7,0,0,1-1.309-3.979V15.59a5.635,5.635,0,0,1,1.3-3.9,4.534,4.534,0,0,1,3.564-1.455,4.444,4.444,0,0,1,3.179,1.128,3.994,3.994,0,0,1,1.216,3H69.46a1.939,1.939,0,0,0-.508-1.34,1.887,1.887,0,0,0-2.778.2,4.166,4.166,0,0,0-.5,2.333v.293a4.219,4.219,0,0,0,.5,2.347A1.721,1.721,0,0,0,67.682,18.92ZM76.7,21H73.864V10.434H76.7Zm-3-13.3a1.39,1.39,0,0,1,.425-1.045,1.831,1.831,0,0,1,2.31,0,1.382,1.382,0,0,1,.43,1.045,1.386,1.386,0,0,1-.435,1.055,1.81,1.81,0,0,1-2.295,0A1.386,1.386,0,0,1,73.7,7.7Zm4.883,7.92a6.266,6.266,0,0,1,.605-2.8,4.432,4.432,0,0,1,1.743-1.9,5.086,5.086,0,0,1,2.642-.674,4.812,4.812,0,0,1,3.491,1.309A5.252,5.252,0,0,1,88.571,15.1l.02.723a5.523,5.523,0,0,1-1.357,3.9,5.261,5.261,0,0,1-7.29,0,5.62,5.62,0,0,1-1.362-3.984Zm2.822.2a3.95,3.95,0,0,0,.566,2.3,2.035,2.035,0,0,0,3.223.01,4.322,4.322,0,0,0,.576-2.518,3.91,3.91,0,0,0-.576-2.289,1.873,1.873,0,0,0-1.621-.812,1.842,1.842,0,0,0-1.6.807A4.395,4.395,0,0,0,81.4,15.819ZM101.432,21a3.134,3.134,0,0,1-.283-.947A3.415,3.415,0,0,1,98.483,21.2a3.752,3.752,0,0,1-2.573-.9,2.89,2.89,0,0,1-1.021-2.266,2.986,2.986,0,0,1,1.245-2.578,6.144,6.144,0,0,1,3.6-.908h1.3v-.605a1.741,1.741,0,0,0-.376-1.172,1.479,1.479,0,0,0-1.187-.439,1.682,1.682,0,0,0-1.118.342,1.161,1.161,0,0,0-.405.938H95.124a2.835,2.835,0,0,1,.566-1.7,3.744,3.744,0,0,1,1.6-1.226,5.837,5.837,0,0,1,2.324-.444,4.611,4.611,0,0,1,3.1.981,3.433,3.433,0,0,1,1.147,2.759v4.58a5.052,5.052,0,0,0,.42,2.275V21ZM99.1,19.037a2.431,2.431,0,0,0,1.152-.278,1.828,1.828,0,0,0,.781-.747V16.2H99.977q-2.119,0-2.256,1.465l-.01.166a1.13,1.13,0,0,0,.371.869A1.441,1.441,0,0,0,99.1,19.037ZM109.01,21h-2.832V6h2.832ZM38.405,45.92a1.851,1.851,0,0,0,1.27-.43,1.506,1.506,0,0,0,.508-1.143h2.646a3.62,3.62,0,0,1-.586,1.968A3.866,3.866,0,0,1,40.666,47.7a4.936,4.936,0,0,1-2.212.493,4.587,4.587,0,0,1-3.574-1.44,5.7,5.7,0,0,1-1.309-3.979V42.59a5.635,5.635,0,0,1,1.3-3.9,4.534,4.534,0,0,1,3.564-1.455,4.444,4.444,0,0,1,3.179,1.128,3.994,3.994,0,0,1,1.216,3H40.182a1.939,1.939,0,0,0-.508-1.34,1.887,1.887,0,0,0-2.778.2,4.166,4.166,0,0,0-.5,2.333v.293a4.219,4.219,0,0,0,.5,2.347A1.721,1.721,0,0,0,38.405,45.92ZM47.419,48H44.587V33h2.832Zm5.3,0H49.889V37.434h2.832Zm-3-13.3a1.39,1.39,0,0,1,.425-1.045,1.831,1.831,0,0,1,2.31,0,1.491,1.491,0,0,1,0,2.1,1.81,1.81,0,0,1-2.295,0A1.386,1.386,0,0,1,49.723,34.7ZM59.909,48.2a5.187,5.187,0,0,1-3.784-1.426,5.068,5.068,0,0,1-1.46-3.8V42.7a6.383,6.383,0,0,1,.615-2.847,4.515,4.515,0,0,1,1.743-1.934,4.893,4.893,0,0,1,2.573-.679,4.385,4.385,0,0,1,3.413,1.367,5.555,5.555,0,0,1,1.245,3.877v1.152H57.526a2.622,2.622,0,0,0,.825,1.66,2.494,2.494,0,0,0,1.743.625,3.046,3.046,0,0,0,2.549-1.182l1.387,1.553a4.237,4.237,0,0,1-1.719,1.4A5.639,5.639,0,0,1,59.909,48.2Zm-.322-8.682a1.764,1.764,0,0,0-1.362.569,2.946,2.946,0,0,0-.669,1.628h3.926v-.226a2.1,2.1,0,0,0-.508-1.457A1.819,1.819,0,0,0,59.587,39.514Zm8.867-2.08.088,1.221a3.689,3.689,0,0,1,3.037-1.416,3.066,3.066,0,0,1,2.5.986,4.6,4.6,0,0,1,.84,2.949V48H72.1V41.242a1.831,1.831,0,0,0-.391-1.3,1.749,1.749,0,0,0-1.3-.405,1.942,1.942,0,0,0-1.787,1.016V48H65.8V37.434Zm11.982-2.6v2.6h1.807V39.5H80.436v5.273a1.259,1.259,0,0,0,.225.84,1.128,1.128,0,0,0,.859.254,4.5,4.5,0,0,0,.83-.068v2.139a5.81,5.81,0,0,1-1.709.254q-2.969,0-3.027-3V39.5H76.071v-2.07h1.543v-2.6ZM88.678,48.2a5.187,5.187,0,0,1-3.784-1.426,5.068,5.068,0,0,1-1.46-3.8V42.7a6.383,6.383,0,0,1,.615-2.847,4.515,4.515,0,0,1,1.743-1.934,4.893,4.893,0,0,1,2.573-.679,4.385,4.385,0,0,1,3.413,1.367,5.555,5.555,0,0,1,1.245,3.877v1.152H86.3a2.622,2.622,0,0,0,.825,1.66,2.494,2.494,0,0,0,1.743.625,3.046,3.046,0,0,0,2.549-1.182L92.8,46.291a4.237,4.237,0,0,1-1.719,1.4A5.639,5.639,0,0,1,88.678,48.2Zm-.322-8.682a1.764,1.764,0,0,0-1.362.569,2.946,2.946,0,0,0-.669,1.628h3.926v-.226a2.1,2.1,0,0,0-.508-1.457A1.819,1.819,0,0,0,88.356,39.514Z" transform="translate(1293.479 7481.663)" fill="#12263f"/><g transform="translate(1294 7346.293)"><g clip-path="url(#a)"><rect width="156.849" height="156.851" transform="translate(-34.098 9.986) rotate(-16.323)" fill="#03386e"/></g></g><g transform="translate(1319 7372.293)"><g transform="translate(0 0)" clip-path="url(#b)"><path d="M14.556,50.853H3.177a1.38,1.38,0,0,1-1.38-1.38V27.8a7.215,7.215,0,0,1,7.016-7.318,7.2,7.2,0,0,1,2.91.6,6.94,6.94,0,0,1,2.494,1.961l6.6,7.908H27.57a3.842,3.842,0,1,1,0,7.685H19.2a4.451,4.451,0,0,1-3-1.158l-.268-.243V49.474a1.379,1.379,0,0,1-1.38,1.38m-10-2.759h8.62V34.73L8.05,30.08A1.38,1.38,0,0,1,9.9,28.037l8.152,7.395a1.706,1.706,0,0,0,1.144.442h8.37a1.083,1.083,0,1,0,0-2.166h-7.4a1.373,1.373,0,0,1-1.059-.5l-7.014-8.4a4.242,4.242,0,0,0-1.49-1.206,4.306,4.306,0,0,0-1.773-.364A4.452,4.452,0,0,0,4.556,27.8Z" transform="translate(1.461 16.646)" fill="#03386e"/><path d="M8.654,25.743c-.123,0-.248,0-.373-.011a6.55,6.55,0,0,1-4-11.423A6.55,6.55,0,1,1,8.654,25.743M8.641,15.4a3.772,3.772,0,1,0,.218.005c-.074,0-.145-.005-.218-.005" transform="translate(1.703 10.274)" fill="#03386e"/><path d="M52.34,50.853H40.961a1.379,1.379,0,0,1-1.38-1.38V37.232l-.268.243a4.448,4.448,0,0,1-3,1.158h-8.37a3.842,3.842,0,0,1,0-7.685H34.7l6.6-7.908a6.96,6.96,0,0,1,2.494-1.961,7.087,7.087,0,0,1,2.91-.6A7.215,7.215,0,0,1,53.72,27.8V49.474a1.379,1.379,0,0,1-1.38,1.38m-10-2.759h8.62V27.8a4.45,4.45,0,0,0-4.276-4.559,3.94,3.94,0,0,0-3.265,1.57l-7.012,8.4a1.379,1.379,0,0,1-1.061.5h-7.4a1.083,1.083,0,0,0,0,2.166h8.37a1.7,1.7,0,0,0,1.144-.442l8.152-7.395a1.38,1.38,0,0,1,1.855,2.043L42.34,34.73Z" transform="translate(19.594 16.646)" fill="#03386e"/><path d="M39.463,25.743A6.55,6.55,0,0,1,39.1,12.652a6.55,6.55,0,1,1,.732,13.08c-.123.007-.248.011-.37.011M35.681,19.4a3.791,3.791,0,1,0,3.573-4,3.765,3.765,0,0,0-3.573,4" transform="translate(26.755 10.274)" fill="#03386e"/><path d="M45.675,38.123H12.622a1.38,1.38,0,0,1-1.38-1.38V30.35a1.38,1.38,0,0,1,1.38-1.38H45.675a1.38,1.38,0,0,1,1.38,1.38v6.394a1.38,1.38,0,0,1-1.38,1.38M14,35.364H44.294V31.729H14Z" transform="translate(9.138 23.548)" fill="#03386e"/><path d="M14.99,27.934a1.362,1.362,0,0,1-.491-.091,1.378,1.378,0,0,1-.888-1.289V20.913H11.393a1.379,1.379,0,0,1-1.363-1.175L7.289,1.586A1.381,1.381,0,0,1,8.654,0H33.829A1.382,1.382,0,0,1,35.2,1.521L33.343,19.675a1.377,1.377,0,0,1-1.372,1.238H21.877L16.02,27.474a1.381,1.381,0,0,1-1.03.46m-2.409-9.78H14.99a1.38,1.38,0,0,1,1.38,1.38v3.4l3.86-4.324a1.38,1.38,0,0,1,1.03-.46h9.467L32.3,2.759H10.257Z" transform="translate(5.912 0)" fill="#03386e"/><path d="M24.156,6.443H12.338a1.38,1.38,0,1,1,0-2.759H24.156a1.38,1.38,0,0,1,0,2.759" transform="translate(8.907 2.994)" fill="#03386e"/><path d="M24.156,9.183H12.338a1.38,1.38,0,0,1,0-2.759H24.156a1.38,1.38,0,0,1,0,2.759" transform="translate(8.907 5.221)" fill="#03386e"/><path d="M38,30.2a1.378,1.378,0,0,1-1.03-.46L31.11,23.18h-10.1a1.38,1.38,0,0,1,0-2.759H31.727a1.377,1.377,0,0,1,1.03.46L36.618,25.2V21.8A1.378,1.378,0,0,1,38,20.421h2.409L42.731,5.026H28.063a1.38,1.38,0,1,1,0-2.759h16.27A1.381,1.381,0,0,1,45.7,3.851L42.957,22.005a1.38,1.38,0,0,1-1.363,1.175H39.377v5.642a1.38,1.38,0,0,1-.888,1.289A1.362,1.362,0,0,1,38,30.2" transform="translate(15.96 1.842)" fill="#03386e"/><path d="M34.838,8.711H24.478a1.38,1.38,0,1,1,0-2.759h10.36a1.38,1.38,0,0,1,0,2.759" transform="translate(18.775 4.838)" fill="#03386e"/><path d="M35.261,11.45h-11.3a1.38,1.38,0,1,1,0-2.759h11.3a1.38,1.38,0,0,1,0,2.759" transform="translate(18.352 7.064)" fill="#03386e"/><path d="M75.191,38.471H1.38a1.38,1.38,0,1,1,0-2.759H75.191a1.38,1.38,0,0,1,0,2.759" transform="translate(0 29.028)" fill="#03386e"/><path d="M75.191,41.869H1.38a1.38,1.38,0,1,1,0-2.759H75.191a1.38,1.38,0,0,1,0,2.759" transform="translate(0 31.79)" fill="#03386e"/></g></g></g></svg>