<svg xmlns="http://www.w3.org/2000/svg" xmlns:xlink="http://www.w3.org/1999/xlink" width="190" height="24.943" viewBox="0 0 190 24.943"><defs><linearGradient id="a" x1="0.057" y1="0.5" x2="0.913" y2="0.5" gradientUnits="objectBoundingBox"><stop offset="0" stop-color="#359547"/><stop offset="1" stop-color="#3ae3fe"/></linearGradient></defs><g transform="translate(-180 -3052.355)"><g transform="translate(0 -11420.701)"><path d="M10.775,8.339H6.855V19H4.219V8.339H.352V6.2H10.775ZM16.146,19a2.821,2.821,0,0,1-.255-.853,3.073,3.073,0,0,1-2.4,1.028,3.376,3.376,0,0,1-2.316-.809,2.6,2.6,0,0,1-.918-2.039,2.687,2.687,0,0,1,1.121-2.32,5.529,5.529,0,0,1,3.239-.817h1.169v-.545a1.567,1.567,0,0,0-.338-1.055,1.331,1.331,0,0,0-1.068-.4,1.513,1.513,0,0,0-1.006.308,1.045,1.045,0,0,0-.365.844h-2.54a2.551,2.551,0,0,1,.51-1.529,3.37,3.37,0,0,1,1.441-1.1,5.253,5.253,0,0,1,2.092-.4A4.15,4.15,0,0,1,17.3,10.2a3.09,3.09,0,0,1,1.033,2.483V16.8a4.546,4.546,0,0,0,.378,2.048V19Zm-2.1-1.767a2.188,2.188,0,0,0,1.037-.25,1.645,1.645,0,0,0,.7-.672V14.676h-.949q-1.907,0-2.03,1.318l-.009.149a1.017,1.017,0,0,0,.334.782A1.3,1.3,0,0,0,14.045,17.233ZM22.667,9.49l.079,1.063a3.342,3.342,0,0,1,2.733-1.239A2.536,2.536,0,0,1,28,10.765a3.265,3.265,0,0,1,2.856-1.45,2.836,2.836,0,0,1,2.3.9,4.141,4.141,0,0,1,.756,2.711V19H31.368V12.936a1.811,1.811,0,0,0-.316-1.182,1.4,1.4,0,0,0-1.116-.374,1.585,1.585,0,0,0-1.582,1.09L28.362,19h-2.54V12.944a1.789,1.789,0,0,0-.325-1.2,1.416,1.416,0,0,0-1.107-.369,1.646,1.646,0,0,0-1.564.9V19h-2.54V9.49ZM41.379,19a2.821,2.821,0,0,1-.255-.853,3.073,3.073,0,0,1-2.4,1.028,3.376,3.376,0,0,1-2.316-.809,2.6,2.6,0,0,1-.918-2.039,2.687,2.687,0,0,1,1.121-2.32,5.529,5.529,0,0,1,3.239-.817h1.169v-.545a1.567,1.567,0,0,0-.338-1.055,1.331,1.331,0,0,0-1.068-.4,1.513,1.513,0,0,0-1.006.308,1.045,1.045,0,0,0-.365.844H35.7a2.551,2.551,0,0,1,.51-1.529,3.37,3.37,0,0,1,1.441-1.1,5.253,5.253,0,0,1,2.092-.4,4.15,4.15,0,0,1,2.791.883,3.09,3.09,0,0,1,1.033,2.483V16.8a4.546,4.546,0,0,0,.378,2.048V19Zm-2.1-1.767a2.188,2.188,0,0,0,1.037-.25,1.645,1.645,0,0,0,.7-.672V14.676h-.949q-1.907,0-2.03,1.318l-.009.149a1.017,1.017,0,0,0,.334.782A1.3,1.3,0,0,0,39.278,17.233ZM47.856,9.49l.079,1.1a3.32,3.32,0,0,1,2.733-1.274,2.759,2.759,0,0,1,2.25.888,4.142,4.142,0,0,1,.756,2.654V19h-2.54V12.918a1.648,1.648,0,0,0-.352-1.173,1.574,1.574,0,0,0-1.169-.365,1.747,1.747,0,0,0-1.608.914V19h-2.54V9.49ZM52.9,5.614a2.46,2.46,0,0,1-.58,1.666,1.8,1.8,0,0,1-1.415.672,2.146,2.146,0,0,1-.593-.075,3.981,3.981,0,0,1-.716-.321,3.864,3.864,0,0,0-.659-.3A1.611,1.611,0,0,0,48.5,7.2a.7.7,0,0,0-.523.22.854.854,0,0,0-.215.624l-1.477-.088a2.5,2.5,0,0,1,.576-1.661,1.776,1.776,0,0,1,1.411-.686,1.816,1.816,0,0,1,.5.066,5.468,5.468,0,0,1,.76.321,4.941,4.941,0,0,0,.729.308,1.665,1.665,0,0,0,.422.053.741.741,0,0,0,.532-.215.819.819,0,0,0,.224-.62Zm2.3,8.543a5.64,5.64,0,0,1,.545-2.522,3.989,3.989,0,0,1,1.569-1.714A4.577,4.577,0,0,1,59.7,9.314a4.33,4.33,0,0,1,3.142,1.178,4.727,4.727,0,0,1,1.358,3.2l.018.65a4.97,4.97,0,0,1-1.222,3.511,4.735,4.735,0,0,1-6.561,0A5.058,5.058,0,0,1,55.2,14.271Zm2.54.18a3.555,3.555,0,0,0,.51,2.073,1.831,1.831,0,0,0,2.9.009,3.89,3.89,0,0,0,.519-2.267,3.519,3.519,0,0,0-.519-2.06,1.686,1.686,0,0,0-1.459-.731,1.658,1.658,0,0,0-1.441.726A3.955,3.955,0,0,0,57.744,14.338Z" transform="translate(211 14469.4)" fill="#12263f"/><path d="M8394.707,11713.942l-3.943-13.943h4.508l3.943,13.943Zm-7.437,0-3.943-13.943h4.508l3.944,13.943Zm-7.325,0L8376,11700h4.508l3.944,13.943Z" transform="translate(-8196 2773.058)" fill="url(#a)"/><path d="M0,0H190V4H104.857L101,2H0Z" transform="translate(180 14494)" fill="#359547" opacity="0.45"/></g></g></svg>