<svg xmlns="http://www.w3.org/2000/svg" xmlns:xlink="http://www.w3.org/1999/xlink" width="126.415" height="156.565" viewBox="0 0 126.415 156.565"><defs><clipPath id="a"><path d="M2.2,63.208a61,61,0,1,1,61,61,61.074,61.074,0,0,1-61-61M63.208,0a63.208,63.208,0,1,0,63.207,63.208A63.279,63.279,0,0,0,63.208,0Z" fill="#359547"/></clipPath><clipPath id="b"><rect width="75.21" height="73.66" fill="#359547"/></clipPath></defs><g transform="translate(-499 -7346.293)"><path d="M16.264,15.99V21h-2.93V6.781h5.547a6.417,6.417,0,0,1,2.817.586,4.318,4.318,0,0,1,1.87,1.665,4.643,4.643,0,0,1,.654,2.456,4.083,4.083,0,0,1-1.431,3.3,5.959,5.959,0,0,1-3.96,1.206Zm0-2.373h2.617a2.573,2.573,0,0,0,1.772-.547,1.989,1.989,0,0,0,.61-1.562,2.345,2.345,0,0,0-.615-1.689,2.3,2.3,0,0,0-1.7-.664H16.264Zm15.723-.537A7.667,7.667,0,0,0,30.971,13a2.067,2.067,0,0,0-2.1,1.084V21H26.049V10.434h2.666l.078,1.26a2.615,2.615,0,0,1,2.354-1.455,2.957,2.957,0,0,1,.879.127Zm.566,2.539a6.267,6.267,0,0,1,.605-2.8,4.432,4.432,0,0,1,1.743-1.9,5.086,5.086,0,0,1,2.642-.674,4.812,4.812,0,0,1,3.491,1.309A5.252,5.252,0,0,1,42.543,15.1l.02.723a5.523,5.523,0,0,1-1.357,3.9,4.718,4.718,0,0,1-3.643,1.47,4.742,4.742,0,0,1-3.647-1.465,5.62,5.62,0,0,1-1.362-3.984Zm2.822.2a3.95,3.95,0,0,0,.566,2.3,2.035,2.035,0,0,0,3.223.01,4.322,4.322,0,0,0,.576-2.518,3.91,3.91,0,0,0-.576-2.289,1.873,1.873,0,0,0-1.621-.812,1.842,1.842,0,0,0-1.6.807A4.395,4.395,0,0,0,35.375,15.819Zm8.486-.181A6.368,6.368,0,0,1,44.97,11.7,3.6,3.6,0,0,1,48,10.238a3.236,3.236,0,0,1,2.549,1.152V6h2.832V21H50.834L50.7,19.877A3.321,3.321,0,0,1,47.983,21.2a3.587,3.587,0,0,1-2.993-1.47A6.573,6.573,0,0,1,43.862,15.639Zm2.822.21a4.171,4.171,0,0,0,.518,2.279,1.686,1.686,0,0,0,1.5.792,1.888,1.888,0,0,0,1.846-1.105V13.638a1.861,1.861,0,0,0-1.826-1.105Q46.684,12.533,46.684,15.849ZM61.9,19.926a3.539,3.539,0,0,1-2.891,1.27,3.338,3.338,0,0,1-2.593-.977,4.169,4.169,0,0,1-.913-2.861V10.434h2.822v6.834q0,1.652,1.5,1.652a2.038,2.038,0,0,0,1.973-1V10.434h2.832V21H61.977Zm9.258-1.006a1.851,1.851,0,0,0,1.27-.43,1.506,1.506,0,0,0,.508-1.143h2.646a3.62,3.62,0,0,1-.586,1.968A3.866,3.866,0,0,1,73.417,20.7a4.936,4.936,0,0,1-2.212.493,4.587,4.587,0,0,1-3.574-1.44,5.7,5.7,0,0,1-1.309-3.979V15.59a5.635,5.635,0,0,1,1.3-3.9,4.534,4.534,0,0,1,3.564-1.455,4.444,4.444,0,0,1,3.179,1.128,3.994,3.994,0,0,1,1.216,3H72.934a1.939,1.939,0,0,0-.508-1.34,1.887,1.887,0,0,0-2.778.2,4.166,4.166,0,0,0-.5,2.333v.293a4.219,4.219,0,0,0,.5,2.347A1.721,1.721,0,0,0,71.157,18.92Zm10.43,0a1.851,1.851,0,0,0,1.27-.43,1.506,1.506,0,0,0,.508-1.143H86.01a3.62,3.62,0,0,1-.586,1.968A3.866,3.866,0,0,1,83.847,20.7a4.936,4.936,0,0,1-2.212.493,4.587,4.587,0,0,1-3.574-1.44,5.7,5.7,0,0,1-1.309-3.979V15.59a5.635,5.635,0,0,1,1.3-3.9,4.534,4.534,0,0,1,3.564-1.455,4.444,4.444,0,0,1,3.179,1.128,3.994,3.994,0,0,1,1.216,3H83.364a1.939,1.939,0,0,0-.508-1.34,1.887,1.887,0,0,0-2.778.2,4.166,4.166,0,0,0-.5,2.333v.293a4.219,4.219,0,0,0,.5,2.347A1.721,1.721,0,0,0,81.586,18.92ZM90.6,21H87.768V10.434H90.6Zm-3-13.3a1.39,1.39,0,0,1,.425-1.045,1.831,1.831,0,0,1,2.31,0,1.382,1.382,0,0,1,.43,1.045,1.386,1.386,0,0,1-.435,1.055,1.81,1.81,0,0,1-2.295,0A1.386,1.386,0,0,1,87.6,7.7Zm4.883,7.92a6.266,6.266,0,0,1,.605-2.8,4.432,4.432,0,0,1,1.743-1.9,5.086,5.086,0,0,1,2.642-.674,4.812,4.812,0,0,1,3.491,1.309,5.252,5.252,0,0,1,1.509,3.555l.02.723a5.523,5.523,0,0,1-1.357,3.9,5.261,5.261,0,0,1-7.29,0,5.62,5.62,0,0,1-1.362-3.984Zm2.822.2a3.95,3.95,0,0,0,.566,2.3,2.035,2.035,0,0,0,3.223.01,4.322,4.322,0,0,0,.576-2.518,3.91,3.91,0,0,0-.576-2.289,1.873,1.873,0,0,0-1.621-.812,1.842,1.842,0,0,0-1.6.807A4.395,4.395,0,0,0,95.307,15.819ZM98.032,6h3.076L98.4,9.027H96.108Zm8.8,4.434.088,1.221a3.689,3.689,0,0,1,3.037-1.416,3.066,3.066,0,0,1,2.5.986,4.6,4.6,0,0,1,.84,2.949V21h-2.822V14.242a1.831,1.831,0,0,0-.391-1.3,1.749,1.749,0,0,0-1.3-.405A1.942,1.942,0,0,0,107,13.549V21h-2.822V10.434Z" transform="translate(498.55 7481.663)" fill="#12263f"/><g transform="translate(499 7346.293)"><g clip-path="url(#a)"><rect width="156.849" height="156.851" transform="translate(-34.098 9.986) rotate(-16.323)" fill="#359547"/></g></g><g transform="translate(524 7372.292)"><g transform="translate(0 0)" clip-path="url(#b)"><path d="M30.916,39.154A10.265,10.265,0,1,1,41.18,28.889,10.276,10.276,0,0,1,30.916,39.154m0-17.753A7.489,7.489,0,1,0,38.4,28.889,7.5,7.5,0,0,0,30.916,21.4" transform="translate(17.018 15.347)" fill="#359547"/><path d="M30.9,60.469a27.177,27.177,0,0,1-9.313-1.633,1.387,1.387,0,1,1,.947-2.608,24.5,24.5,0,0,0,25.6-40.451A1.388,1.388,0,1,1,50.083,13.8,27.275,27.275,0,0,1,30.9,60.469" transform="translate(17.034 11.043)" fill="#359547"/><path d="M24,12.594a1.388,1.388,0,0,1-.281-2.747,27.158,27.158,0,0,1,3.863-.518,1.388,1.388,0,0,1,.173,2.771,24.275,24.275,0,0,0-3.471.465,1.383,1.383,0,0,1-.285.029" transform="translate(18.636 7.685)" fill="#359547"/><path d="M35.092,13.982a1.409,1.409,0,0,1-.545-.111,24.388,24.388,0,0,0-5.467-1.612,1.388,1.388,0,1,1,.469-2.736,27.1,27.1,0,0,1,6.089,1.795,1.388,1.388,0,0,1-.545,2.665" transform="translate(23.012 7.829)" fill="#359547"/><path d="M38.156,17.266a1.381,1.381,0,0,1-.976-.4,24.7,24.7,0,0,0-2.658-2.278,1.389,1.389,0,1,1,1.654-2.231,27.559,27.559,0,0,1,2.955,2.535,1.388,1.388,0,0,1-.976,2.375" transform="translate(27.985 9.955)" fill="#359547"/><path d="M22.008,15.781A7.891,7.891,0,1,1,29.9,7.891a7.9,7.9,0,0,1-7.891,7.891m0-13.005a5.115,5.115,0,1,0,5.115,5.115,5.121,5.121,0,0,0-5.115-5.115" transform="translate(11.633 -0.001)" fill="#359547"/><path d="M7.891,29.621a7.891,7.891,0,1,1,7.891-7.891,7.9,7.9,0,0,1-7.891,7.891m0-13.005a5.115,5.115,0,1,0,5.115,5.115,5.121,5.121,0,0,0-5.115-5.115" transform="translate(0 11.404)" fill="#359547"/><path d="M19.2,47.513a7.891,7.891,0,1,1,7.891-7.891A7.9,7.9,0,0,1,19.2,47.513m0-13.005a5.115,5.115,0,1,0,5.115,5.115A5.121,5.121,0,0,0,19.2,34.508" transform="translate(9.319 26.147)" fill="#359547"/><path d="M28.4,31.986a1.389,1.389,0,0,1-1.306-.917L19.057,8.742A1.388,1.388,0,0,1,21.669,7.8l8.04,22.324a1.39,1.39,0,0,1-.835,1.777,1.413,1.413,0,0,1-.471.082" transform="translate(15.636 5.673)" fill="#359547"/><path d="M33.4,29.575a1.362,1.362,0,0,1-.43-.069L7.87,21.332a1.388,1.388,0,1,1,.859-2.639l25.1,8.173a1.389,1.389,0,0,1-.429,2.709" transform="translate(5.695 15.346)" fill="#359547"/><path d="M19.07,40.59A1.388,1.388,0,0,1,18.019,38.3l9-10.424a1.388,1.388,0,0,1,2.1,1.815l-9,10.422a1.386,1.386,0,0,1-1.051.482" transform="translate(14.571 22.57)" fill="#359547"/></g></g></g></svg>