<svg xmlns="http://www.w3.org/2000/svg" xmlns:xlink="http://www.w3.org/1999/xlink" width="113" height="113" viewBox="0 0 113 113"><defs><clipPath id="a"><rect width="50.506" height="57.344" fill="#12263f"/></clipPath></defs><g transform="translate(-1160 -10184.123)"><g transform="translate(1160 10184.123)" fill="#dbe5ed" stroke="#fff" stroke-width="4"><circle cx="56.5" cy="56.5" r="56.5" stroke="none"/><circle cx="56.5" cy="56.5" r="54.5" fill="none"/></g><g transform="translate(1191 10212.123)"><g clip-path="url(#a)"><path d="M3.553,113.88A3.557,3.557,0,0,1,0,110.327V83.11a3.557,3.557,0,0,1,3.553-3.553H9.444a1.029,1.029,0,0,1,0,2.058H3.553a1.5,1.5,0,0,0-1.5,1.5v27.216a1.5,1.5,0,0,0,1.5,1.5h43.4a1.5,1.5,0,0,0,1.494-1.5V83.11a1.5,1.5,0,0,0-1.494-1.5H40.94a1.029,1.029,0,1,1,0-2.058h6.015a3.556,3.556,0,0,1,3.552,3.553v27.216a3.556,3.556,0,0,1-3.552,3.553Z" transform="translate(0 -62.047)" fill="#12263f"/><path d="M96.558,233.723a1.03,1.03,0,0,1-1.03-1.03v-5.51a1.03,1.03,0,0,1,1.03-1.03h6.4a1.03,1.03,0,0,1,1.028,1.03v5.51a1.03,1.03,0,0,1-1.028,1.03Zm1.028-1.94,4.458-.118-.118-3.571-4.34.116Z" transform="translate(-74.503 -176.379)" fill="#12263f"/><path d="M1.03,201.687a1.029,1.029,0,1,1,0-2.058H49.478a1.029,1.029,0,0,1,0,2.058Z" transform="translate(0 -155.692)" fill="#12263f"/><path d="M74.347,253.25a1.029,1.029,0,0,1,0-2.058H90.523a1.029,1.029,0,1,1,0,2.058Z" transform="translate(-57.182 -195.906)" fill="#12263f"/><path d="M151.963,8.75a1.03,1.03,0,0,1-1.03-1.028V1.03A1.029,1.029,0,0,1,152.691.3l6.69,6.691a1.029,1.029,0,0,1-.727,1.756Zm1.029-1.94,3.462-.118L152.991,3.5Z" transform="translate(-117.714 0)" fill="#12263f"/><path d="M39.824,41.474a1.03,1.03,0,0,1-1.03-1.03V1.033A1.03,1.03,0,0,1,39.824,0H64.5a1.033,1.033,0,0,1,.727.3L71.922,7a1.033,1.033,0,0,1,.3.728V40.444a1.03,1.03,0,0,1-1.028,1.03Zm1.028-1.94,29.432-.118L70.166,8.1,64.044,2.028l-23.192.035Z" transform="translate(-30.256 -0.004)" fill="#12263f"/><path d="M58.5,125.6a1.029,1.029,0,0,1,0-2.058H81.65a1.029,1.029,0,1,1,0,2.058Z" transform="translate(-44.82 -96.348)" fill="#12263f"/><path d="M69.015,106.061a1.03,1.03,0,0,1-1.03-1.028V99.52a1.03,1.03,0,0,1,1.03-1.03h6.174a1.029,1.029,0,0,1,1.028,1.03v5.513a1.029,1.029,0,0,1-1.028,1.028Zm1.028-1.94L74.277,104l-.118-3.573-4.116.116Z" transform="translate(-53.022 -76.813)" fill="#12263f"/><path d="M97.067,92.933a1.03,1.03,0,0,1-1.03-1.028V82.687a1.03,1.03,0,0,1,1.03-1.03h6.174a1.03,1.03,0,0,1,1.028,1.03V91.9a1.029,1.029,0,0,1-1.028,1.028Zm1.028-1.94,4.234-.118-.118-7.278-4.116.116Z" transform="translate(-74.9 -63.685)" fill="#12263f"/><path d="M125.119,79.805a1.03,1.03,0,0,1-1.03-1.029V65.855a1.03,1.03,0,0,1,1.03-1.03h6.174a1.03,1.03,0,0,1,1.03,1.03V78.777a1.03,1.03,0,0,1-1.03,1.029Zm1.028-1.94,4.235-.118-.118-10.982-4.117.116Z" transform="translate(-96.778 -50.557)" fill="#12263f"/></g></g></g></svg>