<svg xmlns="http://www.w3.org/2000/svg" xmlns:xlink="http://www.w3.org/1999/xlink" width="126.415" height="183.565" viewBox="0 0 126.415 183.565"><defs><clipPath id="a"><path d="M2.2,63.208a61,61,0,1,1,61,61,61.074,61.074,0,0,1-61-61M63.208,0a63.208,63.208,0,1,0,63.207,63.208A63.279,63.279,0,0,0,63.208,0Z" fill="#359547"/></clipPath><clipPath id="b"><rect width="62.159" height="73.66" fill="#359547"/></clipPath></defs><g transform="translate(-816 -7346.293)"><path d="M14.532,6.781l3.652,10.313L21.817,6.781h3.848V21H22.726V17.113l.293-6.709L19.181,21H17.169L13.341,10.414l.293,6.7V21H10.7V6.781ZM34.161,21a3.134,3.134,0,0,1-.283-.947A3.415,3.415,0,0,1,31.212,21.2a3.752,3.752,0,0,1-2.573-.9,2.89,2.89,0,0,1-1.021-2.266,2.986,2.986,0,0,1,1.245-2.578,6.144,6.144,0,0,1,3.6-.908h1.3v-.605a1.741,1.741,0,0,0-.376-1.172,1.479,1.479,0,0,0-1.187-.439,1.682,1.682,0,0,0-1.118.342,1.161,1.161,0,0,0-.405.938H27.853a2.835,2.835,0,0,1,.566-1.7,3.744,3.744,0,0,1,1.6-1.226,5.837,5.837,0,0,1,2.324-.444,4.611,4.611,0,0,1,3.1.981,3.433,3.433,0,0,1,1.147,2.759v4.58a5.052,5.052,0,0,0,.42,2.275V21Zm-2.334-1.963a2.431,2.431,0,0,0,1.152-.278,1.828,1.828,0,0,0,.781-.747V16.2H32.706q-2.119,0-2.256,1.465l-.01.166a1.13,1.13,0,0,0,.371.869A1.441,1.441,0,0,0,31.827,19.037ZM44.7,13.08A7.667,7.667,0,0,0,43.683,13a2.067,2.067,0,0,0-2.1,1.084V21H38.761V10.434h2.666l.078,1.26a2.615,2.615,0,0,1,2.354-1.455,2.957,2.957,0,0,1,.879.127Zm5.2,3.682-1.016,1.016V21H46.056V6h2.822v8.311l.547-.7,2.705-3.174h3.389l-3.818,4.4L55.851,21H52.608ZM61.6,21.2a5.187,5.187,0,0,1-3.784-1.426,5.068,5.068,0,0,1-1.46-3.8V15.7a6.383,6.383,0,0,1,.615-2.847,4.515,4.515,0,0,1,1.743-1.934,4.893,4.893,0,0,1,2.573-.679A4.385,4.385,0,0,1,64.7,11.605a5.555,5.555,0,0,1,1.245,3.877v1.152H59.22a2.622,2.622,0,0,0,.825,1.66,2.5,2.5,0,0,0,1.743.625,3.046,3.046,0,0,0,2.549-1.182l1.387,1.553A4.237,4.237,0,0,1,64,20.692,5.639,5.639,0,0,1,61.6,21.2Zm-.322-8.682a1.764,1.764,0,0,0-1.362.569,2.946,2.946,0,0,0-.669,1.628h3.926v-.226a2.1,2.1,0,0,0-.508-1.457A1.819,1.819,0,0,0,61.28,12.514Zm9.648-4.678v2.6h1.807V12.5H70.929v5.273a1.259,1.259,0,0,0,.225.84,1.128,1.128,0,0,0,.859.254,4.5,4.5,0,0,0,.83-.068v2.139a5.81,5.81,0,0,1-1.709.254q-2.969,0-3.027-3V12.5H66.563v-2.07h1.543v-2.6ZM77.286,21H74.454V10.434h2.832Zm-3-13.3a1.39,1.39,0,0,1,.425-1.045,1.831,1.831,0,0,1,2.31,0,1.382,1.382,0,0,1,.43,1.045,1.386,1.386,0,0,1-.435,1.055,1.81,1.81,0,0,1-2.295,0A1.386,1.386,0,0,1,74.288,7.7Zm7.92,2.734.088,1.221a3.689,3.689,0,0,1,3.037-1.416,3.066,3.066,0,0,1,2.5.986,4.6,4.6,0,0,1,.84,2.949V21H85.851V14.242a1.831,1.831,0,0,0-.391-1.3,1.749,1.749,0,0,0-1.3-.405,1.942,1.942,0,0,0-1.787,1.016V21H79.552V10.434ZM90.4,15.639a6.193,6.193,0,0,1,1.157-3.916,3.75,3.75,0,0,1,3.12-1.484,3.289,3.289,0,0,1,2.705,1.191l.117-1h2.559V20.648a4.516,4.516,0,0,1-.63,2.412,4.045,4.045,0,0,1-1.772,1.563,6.231,6.231,0,0,1-2.676.537,5.794,5.794,0,0,1-2.266-.464,4.021,4.021,0,0,1-1.67-1.2l1.25-1.719a3.306,3.306,0,0,0,2.559,1.182,2.42,2.42,0,0,0,1.748-.6,2.253,2.253,0,0,0,.625-1.7v-.566a3.264,3.264,0,0,1-2.568,1.1,3.74,3.74,0,0,1-3.081-1.489,6.191,6.191,0,0,1-1.177-3.95Zm2.822.21A3.856,3.856,0,0,0,93.8,18.1a1.833,1.833,0,0,0,1.582.817,1.96,1.96,0,0,0,1.846-.968V13.5a1.955,1.955,0,0,0-1.826-.968,1.844,1.844,0,0,0-1.6.831A4.346,4.346,0,0,0,93.224,15.849Zm17.93,1.157,1.953-6.572h3.027l-4.248,12.207-.234.557a3.221,3.221,0,0,1-3.125,2.07,4.441,4.441,0,0,1-1.25-.186V22.943l.43.01a2.322,2.322,0,0,0,1.2-.244,1.6,1.6,0,0,0,.62-.811l.332-.869-3.7-10.6h3.037ZM37.9,44.553l1.963-7.119h2.949L39.244,48h-2.7L32.984,37.434h2.949ZM48.912,48.2a5.187,5.187,0,0,1-3.784-1.426,5.068,5.068,0,0,1-1.46-3.8V42.7a6.383,6.383,0,0,1,.615-2.847,4.515,4.515,0,0,1,1.743-1.934,4.893,4.893,0,0,1,2.573-.679,4.385,4.385,0,0,1,3.413,1.367,5.555,5.555,0,0,1,1.245,3.877v1.152H46.529a2.622,2.622,0,0,0,.825,1.66,2.494,2.494,0,0,0,1.743.625,3.046,3.046,0,0,0,2.549-1.182l1.387,1.553a4.237,4.237,0,0,1-1.719,1.4A5.639,5.639,0,0,1,48.912,48.2Zm-.322-8.682a1.764,1.764,0,0,0-1.362.569,2.946,2.946,0,0,0-.669,1.628h3.926v-.226a2.1,2.1,0,0,0-.508-1.457A1.819,1.819,0,0,0,48.59,39.514Zm8.867-2.08.088,1.221a3.689,3.689,0,0,1,3.037-1.416,3.066,3.066,0,0,1,2.5.986,4.6,4.6,0,0,1,.84,2.949V48H61.1V41.242a1.831,1.831,0,0,0-.391-1.3,1.749,1.749,0,0,0-1.3-.405,1.942,1.942,0,0,0-1.787,1.016V48H54.8V37.434Zm11.982-2.6v2.6h1.807V39.5H69.439v5.273a1.259,1.259,0,0,0,.225.84,1.128,1.128,0,0,0,.859.254,4.5,4.5,0,0,0,.83-.068v2.139a5.81,5.81,0,0,1-1.709.254q-2.969,0-3.027-3V39.5H65.074v-2.07h1.543v-2.6ZM78.941,48a3.134,3.134,0,0,1-.283-.947A3.415,3.415,0,0,1,75.992,48.2a3.752,3.752,0,0,1-2.573-.9A2.89,2.89,0,0,1,72.4,45.031a2.986,2.986,0,0,1,1.245-2.578,6.144,6.144,0,0,1,3.6-.908h1.3v-.605a1.741,1.741,0,0,0-.376-1.172,1.479,1.479,0,0,0-1.187-.439,1.682,1.682,0,0,0-1.118.342,1.161,1.161,0,0,0-.405.938H72.633a2.835,2.835,0,0,1,.566-1.7,3.744,3.744,0,0,1,1.6-1.226,5.837,5.837,0,0,1,2.324-.444,4.611,4.611,0,0,1,3.1.981,3.433,3.433,0,0,1,1.147,2.759v4.58a5.052,5.052,0,0,0,.42,2.275V48Zm-2.334-1.963a2.431,2.431,0,0,0,1.152-.278,1.828,1.828,0,0,0,.781-.747V43.2H77.486q-2.119,0-2.256,1.465l-.01.166a1.13,1.13,0,0,0,.371.869A1.441,1.441,0,0,0,76.607,46.037Zm12.656-.957a.909.909,0,0,0-.513-.815,5.824,5.824,0,0,0-1.646-.532q-3.77-.791-3.77-3.2A2.9,2.9,0,0,1,84.5,38.181a4.708,4.708,0,0,1,3.052-.942,5.067,5.067,0,0,1,3.218.947,2.985,2.985,0,0,1,1.206,2.461H89.156a1.366,1.366,0,0,0-.391-1,1.653,1.653,0,0,0-1.221-.4,1.689,1.689,0,0,0-1.1.322,1.017,1.017,0,0,0-.391.82.87.87,0,0,0,.444.757,4.571,4.571,0,0,0,1.5.5,12.244,12.244,0,0,1,1.777.474,2.92,2.92,0,0,1,2.236,2.842,2.756,2.756,0,0,1-1.24,2.339,5.35,5.35,0,0,1-3.2.894,5.588,5.588,0,0,1-2.358-.474,3.957,3.957,0,0,1-1.616-1.3A3.018,3.018,0,0,1,83,44.641H85.68a1.473,1.473,0,0,0,.557,1.152,2.208,2.208,0,0,0,1.387.4,2.044,2.044,0,0,0,1.226-.308A.957.957,0,0,0,89.264,45.08Z" transform="translate(817.133 7481.663)" fill="#12263f"/><g transform="translate(816 7346.293)"><g clip-path="url(#a)"><rect width="156.849" height="156.851" transform="translate(-34.098 9.986) rotate(-16.323)" fill="#359547"/></g></g><g transform="translate(848 7372.294)"><g transform="translate(0 0)" clip-path="url(#b)"><path d="M24.547,66.409H7.483A1.28,1.28,0,0,1,6.2,65.13V39.884H3.181A3.183,3.183,0,0,1,0,36.7V19.913a9.278,9.278,0,0,1,9.267-9.268h2.27a1.279,1.279,0,1,1,0,2.559H9.267a6.716,6.716,0,0,0-6.708,6.71V36.7a.623.623,0,0,0,.622.622h4.3A1.279,1.279,0,0,1,8.762,38.6V63.85H23.267V38.6a1.28,1.28,0,0,1,1.279-1.279h4.3a.623.623,0,0,0,.622-.622V19.913a6.716,6.716,0,0,0-6.709-6.71h-2.27a1.279,1.279,0,1,1,0-2.559h2.27a9.278,9.278,0,0,1,9.268,9.268V36.7a3.184,3.184,0,0,1-3.181,3.181H25.826V65.13a1.28,1.28,0,0,1-1.279,1.279" transform="translate(0 7.251)" fill="#359547"/><path d="M10.044,53.9a1.28,1.28,0,0,1-1.279-1.279V30.288a1.279,1.279,0,1,1,2.559,0V52.621A1.28,1.28,0,0,1,10.044,53.9" transform="translate(5.97 19.76)" fill="#359547"/><path d="M4.97,34.783A1.28,1.28,0,0,1,3.691,33.5V19.412a1.279,1.279,0,0,1,2.559,0V33.5A1.28,1.28,0,0,1,4.97,34.783" transform="translate(2.514 12.352)" fill="#359547"/><path d="M15.119,34.783A1.28,1.28,0,0,1,13.84,33.5V19.412a1.279,1.279,0,0,1,2.559,0V33.5a1.28,1.28,0,0,1-1.279,1.279" transform="translate(9.427 12.352)" fill="#359547"/><path d="M12.781,16.067a8.033,8.033,0,1,1,8.034-8.033,8.043,8.043,0,0,1-8.034,8.033m0-13.508a5.475,5.475,0,1,0,5.476,5.476,5.482,5.482,0,0,0-5.476-5.476" transform="translate(3.233 0.001)" fill="#359547"/><path d="M20.54,65.892c-.556,0-1.108-.015-1.658-.044a1.279,1.279,0,0,1,.133-2.555q.759.04,1.525.04a28.849,28.849,0,0,0,0-57.7,29.18,29.18,0,0,0-4.087.287,1.28,1.28,0,0,1-.361-2.534,31.81,31.81,0,0,1,4.448-.313,31.408,31.408,0,0,1,0,62.816" transform="translate(10.212 2.096)" fill="#359547"/><path d="M20.54,65.891c-.556,0-1.108-.015-1.658-.044a1.279,1.279,0,0,1,.133-2.555,29.205,29.205,0,0,0,7.022-.486c4.591-5.306,7.54-16.348,7.54-28.324s-2.949-23.017-7.54-28.324a29.213,29.213,0,0,0-9.584-.235,1.28,1.28,0,0,1-.361-2.534,31.784,31.784,0,0,1,10.877.346,1.294,1.294,0,0,1,.683.388c5.233,5.713,8.485,17.344,8.485,30.358s-3.251,24.647-8.485,30.36a1.294,1.294,0,0,1-.683.388,31.667,31.667,0,0,1-6.429.661" transform="translate(10.212 2.097)" fill="#359547"/><path d="M18.81,59.47a1.28,1.28,0,0,1-1.279-1.279V42.379A1.28,1.28,0,0,1,18.81,41.1c11.977,0,23.017-2.95,28.324-7.542a29.071,29.071,0,0,0,0-10.995c-4.939-4.274-14.8-7.138-25.9-7.5a1.279,1.279,0,0,1,.084-2.557c11.923.388,22.6,3.625,27.855,8.444a1.262,1.262,0,0,1,.388.681,31.607,31.607,0,0,1,0,12.857,1.267,1.267,0,0,1-.388.683c-5.524,5.064-16.586,8.27-29.079,8.475V58.19A1.28,1.28,0,0,1,18.81,59.47" transform="translate(11.941 8.519)" fill="#359547"/><path d="M18.81,16.661a1.28,1.28,0,0,1-1.279-1.279V4.355a1.279,1.279,0,0,1,2.559,0V15.382a1.28,1.28,0,0,1-1.279,1.279" transform="translate(11.941 2.096)" fill="#359547"/><path d="M47.251,23.556H21.287a1.279,1.279,0,0,1,0-2.559H47.251a1.279,1.279,0,0,1,0,2.559" transform="translate(13.629 14.303)" fill="#359547"/><path d="M10.045,30.185a1.28,1.28,0,0,1-1.279-1.279V15.819a1.279,1.279,0,0,1,2.559,0V28.905a1.28,1.28,0,0,1-1.279,1.279" transform="translate(5.971 9.905)" fill="#359547"/><path d="M53.461,44.852H2.071a1.279,1.279,0,1,1,0-2.559h51.39a1.279,1.279,0,1,1,0,2.559" transform="translate(0.539 28.809)" fill="#359547"/></g></g></g></svg>