<svg xmlns="http://www.w3.org/2000/svg" xmlns:xlink="http://www.w3.org/1999/xlink" width="126.415" height="183.565" viewBox="0 0 126.415 183.565"><defs><clipPath id="a"><path d="M2.2,63.208a61,61,0,1,1,61,61,61.074,61.074,0,0,1-61-61M63.208,0a63.208,63.208,0,1,0,63.207,63.208A63.279,63.279,0,0,0,63.208,0Z" fill="#359547"/></clipPath><clipPath id="b"><rect width="65.662" height="73.66" fill="#359547"/></clipPath></defs><g transform="translate(-339 -7346.293)"><path d="M27.558,15.795H25.224V21h-2.93V6.781h5.283A5.972,5.972,0,0,1,31.464,7.9a3.876,3.876,0,0,1,1.367,3.174A4.374,4.374,0,0,1,32.2,13.5a4.3,4.3,0,0,1-1.909,1.548l3.076,5.811V21H30.224Zm-2.334-2.373h2.363A2.42,2.42,0,0,0,29.3,12.86a2.007,2.007,0,0,0,.605-1.548,2.148,2.148,0,0,0-.571-1.582,2.374,2.374,0,0,0-1.753-.576H25.224ZM39.736,21.2a5.187,5.187,0,0,1-3.784-1.426,5.068,5.068,0,0,1-1.46-3.8V15.7a6.383,6.383,0,0,1,.615-2.847,4.515,4.515,0,0,1,1.743-1.934,4.893,4.893,0,0,1,2.573-.679,4.385,4.385,0,0,1,3.413,1.367,5.555,5.555,0,0,1,1.245,3.877v1.152H37.353a2.622,2.622,0,0,0,.825,1.66,2.5,2.5,0,0,0,1.743.625,3.046,3.046,0,0,0,2.549-1.182l1.387,1.553a4.237,4.237,0,0,1-1.719,1.4A5.639,5.639,0,0,1,39.736,21.2Zm-.322-8.682a1.764,1.764,0,0,0-1.362.569,2.946,2.946,0,0,0-.669,1.628h3.926v-.226a2.1,2.1,0,0,0-.508-1.457A1.819,1.819,0,0,0,39.414,12.514ZM50.078,18.92a1.851,1.851,0,0,0,1.27-.43,1.506,1.506,0,0,0,.508-1.143H54.5a3.62,3.62,0,0,1-.586,1.968A3.866,3.866,0,0,1,52.338,20.7a4.936,4.936,0,0,1-2.212.493,4.587,4.587,0,0,1-3.574-1.44,5.7,5.7,0,0,1-1.309-3.979V15.59a5.635,5.635,0,0,1,1.3-3.9,4.534,4.534,0,0,1,3.564-1.455,4.444,4.444,0,0,1,3.179,1.128,3.994,3.994,0,0,1,1.216,3H51.855a1.939,1.939,0,0,0-.508-1.34,1.887,1.887,0,0,0-2.778.2,4.166,4.166,0,0,0-.5,2.333v.293a4.219,4.219,0,0,0,.5,2.347A1.721,1.721,0,0,0,50.078,18.92Zm12.363,1.006A3.539,3.539,0,0,1,59.55,21.2a3.338,3.338,0,0,1-2.593-.977,4.169,4.169,0,0,1-.913-2.861V10.434h2.822v6.834q0,1.652,1.5,1.652a2.038,2.038,0,0,0,1.973-1V10.434h2.832V21H62.519Zm10.8-6.846A7.667,7.667,0,0,0,72.226,13a2.067,2.067,0,0,0-2.1,1.084V21H67.3V10.434H69.97l.078,1.26A2.615,2.615,0,0,1,72.4,10.238a2.957,2.957,0,0,1,.879.127Zm7.08,5a.909.909,0,0,0-.513-.815,5.824,5.824,0,0,0-1.646-.532q-3.77-.791-3.77-3.2a2.9,2.9,0,0,1,1.167-2.349,4.708,4.708,0,0,1,3.052-.942,5.067,5.067,0,0,1,3.218.947,2.985,2.985,0,0,1,1.206,2.461H80.214a1.366,1.366,0,0,0-.391-1,1.653,1.653,0,0,0-1.221-.4,1.689,1.689,0,0,0-1.1.322,1.017,1.017,0,0,0-.391.82.87.87,0,0,0,.444.757,4.571,4.571,0,0,0,1.5.5,12.244,12.244,0,0,1,1.777.474,2.92,2.92,0,0,1,2.236,2.842,2.756,2.756,0,0,1-1.24,2.339,5.35,5.35,0,0,1-3.2.894,5.588,5.588,0,0,1-2.358-.474,3.957,3.957,0,0,1-1.616-1.3,3.018,3.018,0,0,1-.586-1.782h2.676a1.473,1.473,0,0,0,.557,1.152,2.208,2.208,0,0,0,1.387.4,2.044,2.044,0,0,0,1.226-.308A.957.957,0,0,0,80.322,18.08Zm4.121-2.461a6.266,6.266,0,0,1,.605-2.8,4.432,4.432,0,0,1,1.743-1.9,5.086,5.086,0,0,1,2.642-.674,4.812,4.812,0,0,1,3.491,1.309A5.252,5.252,0,0,1,94.433,15.1l.02.723a5.523,5.523,0,0,1-1.357,3.9,5.261,5.261,0,0,1-7.29,0,5.62,5.62,0,0,1-1.362-3.984Zm2.822.2a3.95,3.95,0,0,0,.566,2.3,2.035,2.035,0,0,0,3.223.01,4.322,4.322,0,0,0,.576-2.518,3.91,3.91,0,0,0-.576-2.289,1.873,1.873,0,0,0-1.621-.812,1.842,1.842,0,0,0-1.6.807A4.395,4.395,0,0,0,87.265,15.819Zm14.648,2.261a.909.909,0,0,0-.513-.815,5.824,5.824,0,0,0-1.646-.532q-3.77-.791-3.77-3.2a2.9,2.9,0,0,1,1.167-2.349,4.708,4.708,0,0,1,3.052-.942,5.067,5.067,0,0,1,3.218.947,2.985,2.985,0,0,1,1.206,2.461h-2.822a1.366,1.366,0,0,0-.391-1,1.653,1.653,0,0,0-1.221-.4,1.689,1.689,0,0,0-1.1.322,1.017,1.017,0,0,0-.391.82.87.87,0,0,0,.444.757,4.571,4.571,0,0,0,1.5.5,12.244,12.244,0,0,1,1.777.474,2.92,2.92,0,0,1,2.236,2.842,2.756,2.756,0,0,1-1.24,2.339,5.35,5.35,0,0,1-3.2.894,5.588,5.588,0,0,1-2.358-.474,3.957,3.957,0,0,1-1.616-1.3,3.018,3.018,0,0,1-.586-1.782H98.33a1.473,1.473,0,0,0,.557,1.152,2.208,2.208,0,0,0,1.387.4,2.044,2.044,0,0,0,1.226-.308A.957.957,0,0,0,101.914,18.08ZM25.439,38.586a3.522,3.522,0,0,1,2.822-1.348q3.437,0,3.486,3.994V48H28.925V41.311a1.963,1.963,0,0,0-.391-1.343,1.675,1.675,0,0,0-1.3-.435,1.921,1.921,0,0,0-1.8.957V48H22.617V33h2.822ZM40.2,46.926a3.539,3.539,0,0,1-2.891,1.27,3.338,3.338,0,0,1-2.593-.977,4.169,4.169,0,0,1-.913-2.861V37.434H36.63v6.834q0,1.652,1.5,1.652a2.038,2.038,0,0,0,1.973-1V37.434h2.832V48H40.283Zm7.51-9.492.088,1.182a3.713,3.713,0,0,1,3.037-1.377,2.818,2.818,0,0,1,2.8,1.611,3.628,3.628,0,0,1,3.174-1.611,3.152,3.152,0,0,1,2.559,1,4.6,4.6,0,0,1,.84,3.013V48H57.382V41.262a2.012,2.012,0,0,0-.352-1.313,1.558,1.558,0,0,0-1.24-.415,1.761,1.761,0,0,0-1.758,1.211L54.042,48H51.22V41.271a1.988,1.988,0,0,0-.361-1.328,1.573,1.573,0,0,0-1.23-.41,1.829,1.829,0,0,0-1.738,1V48H45.068V37.434ZM68.505,48a3.134,3.134,0,0,1-.283-.947A3.415,3.415,0,0,1,65.556,48.2a3.752,3.752,0,0,1-2.573-.9,2.89,2.89,0,0,1-1.021-2.266,2.986,2.986,0,0,1,1.245-2.578,6.144,6.144,0,0,1,3.6-.908h1.3v-.605a1.741,1.741,0,0,0-.376-1.172,1.479,1.479,0,0,0-1.187-.439,1.682,1.682,0,0,0-1.118.342,1.161,1.161,0,0,0-.405.938H62.2a2.835,2.835,0,0,1,.566-1.7,3.744,3.744,0,0,1,1.6-1.226,5.837,5.837,0,0,1,2.324-.444,4.611,4.611,0,0,1,3.1.981,3.433,3.433,0,0,1,1.147,2.759v4.58a5.052,5.052,0,0,0,.42,2.275V48Zm-2.334-1.963a2.431,2.431,0,0,0,1.152-.278,1.828,1.828,0,0,0,.781-.747V43.2H67.05q-2.119,0-2.256,1.465l-.01.166a1.13,1.13,0,0,0,.371.869A1.441,1.441,0,0,0,66.171,46.037Zm9.531-8.6.088,1.221a3.689,3.689,0,0,1,3.037-1.416,3.066,3.066,0,0,1,2.5.986,4.6,4.6,0,0,1,.84,2.949V48H79.345V41.242a1.831,1.831,0,0,0-.391-1.3,1.749,1.749,0,0,0-1.3-.405,1.942,1.942,0,0,0-1.787,1.016V48H73.046V37.434Zm8.164,5.186a6.266,6.266,0,0,1,.605-2.8,4.432,4.432,0,0,1,1.743-1.9,5.086,5.086,0,0,1,2.642-.674,4.812,4.812,0,0,1,3.491,1.309A5.252,5.252,0,0,1,93.857,42.1l.02.723a5.523,5.523,0,0,1-1.357,3.9,5.261,5.261,0,0,1-7.29,0,5.62,5.62,0,0,1-1.362-3.984Zm2.822.2a3.95,3.95,0,0,0,.566,2.3,2.035,2.035,0,0,0,3.223.01,4.322,4.322,0,0,0,.576-2.518,3.91,3.91,0,0,0-.576-2.289,1.873,1.873,0,0,0-1.621-.812,1.842,1.842,0,0,0-1.6.807A4.395,4.395,0,0,0,86.689,42.819Zm14.648,2.261a.909.909,0,0,0-.513-.815,5.824,5.824,0,0,0-1.646-.532q-3.77-.791-3.77-3.2a2.9,2.9,0,0,1,1.167-2.349,4.708,4.708,0,0,1,3.052-.942,5.067,5.067,0,0,1,3.218.947,2.985,2.985,0,0,1,1.206,2.461H101.23a1.366,1.366,0,0,0-.391-1,1.653,1.653,0,0,0-1.221-.4,1.689,1.689,0,0,0-1.1.322,1.017,1.017,0,0,0-.391.82.87.87,0,0,0,.444.757,4.571,4.571,0,0,0,1.5.5,12.244,12.244,0,0,1,1.777.474,2.92,2.92,0,0,1,2.236,2.842,2.756,2.756,0,0,1-1.24,2.339,5.35,5.35,0,0,1-3.2.894,5.588,5.588,0,0,1-2.358-.474,3.957,3.957,0,0,1-1.616-1.3,3.018,3.018,0,0,1-.586-1.782h2.676a1.473,1.473,0,0,0,.557,1.152,2.208,2.208,0,0,0,1.387.4,2.044,2.044,0,0,0,1.226-.308A.957.957,0,0,0,101.337,45.08Z" transform="translate(339.259 7481.663)" fill="#12263f"/><g transform="translate(339 7346.293)"><g clip-path="url(#a)"><rect width="156.849" height="156.851" transform="translate(-34.098 9.986) rotate(-16.323)" fill="#359547"/></g></g><g transform="translate(370 7372.293)"><g transform="translate(0 0)" clip-path="url(#b)"><path d="M29.372,28.665h-10.9A1.275,1.275,0,0,1,17.2,27.39V25.481a3.558,3.558,0,0,0-1.039-2.447,10.637,10.637,0,0,1-2.968-8.048,10.829,10.829,0,0,1,10.3-10.115A10.742,10.742,0,0,1,31.68,23.042a3.538,3.538,0,0,0-1.032,2.439V27.39a1.275,1.275,0,0,1-1.275,1.275m-9.62-2.551H28.1v-.634a6.067,6.067,0,0,1,1.743-4.205A8.193,8.193,0,0,0,23.59,7.42a8.252,8.252,0,0,0-7.849,7.71A8.12,8.12,0,0,0,18,21.269a6.093,6.093,0,0,1,1.75,4.212Z" transform="translate(8.907 3.286)" fill="#359547"/><path d="M27.913,28.731h-9.89a3.435,3.435,0,0,1-2.67-5.595,3.435,3.435,0,0,1,2.67-5.595h9.89a3.435,3.435,0,0,1,2.67,5.595,3.435,3.435,0,0,1-2.67,5.595m-9.89-4.319a.884.884,0,0,0,0,1.768h9.89a.884.884,0,0,0,0-1.768,1.275,1.275,0,0,1,0-2.551.884.884,0,0,0,0-1.768h-9.89a.884.884,0,0,0,0,1.768,1.275,1.275,0,1,1,0,2.551" transform="translate(9.863 11.859)" fill="#359547"/><path d="M21.729,36.984a5.308,5.308,0,1,1,5.308-5.308,5.315,5.315,0,0,1-5.308,5.308m0-8.065a2.757,2.757,0,1,0,2.757,2.757,2.76,2.76,0,0,0-2.757-2.757" transform="translate(11.101 17.825)" fill="#359547"/><path d="M32.747,43.821H14.726a1.276,1.276,0,0,1-1.275-1.275V40.97A10.331,10.331,0,0,1,21.58,30.916a1.258,1.258,0,0,1,.868.122,2.625,2.625,0,0,0,2.578,0,1.258,1.258,0,0,1,.868-.122A10.331,10.331,0,0,1,34.023,40.97v1.575a1.276,1.276,0,0,1-1.275,1.275M16,41.27h15.47v-.3a7.772,7.772,0,0,0-5.7-7.462,5.131,5.131,0,0,1-4.063,0A7.772,7.772,0,0,0,16,40.97Z" transform="translate(9.093 20.88)" fill="#359547"/><path d="M35.181,26.665a5.308,5.308,0,1,1,5.308-5.308,5.314,5.314,0,0,1-5.308,5.308m0-8.065a2.757,2.757,0,1,0,2.757,2.757A2.76,2.76,0,0,0,35.181,18.6" transform="translate(20.195 10.85)" fill="#359547"/><path d="M46.2,33.5H28.178A1.276,1.276,0,0,1,26.9,32.227V30.651A10.331,10.331,0,0,1,35.032,20.6a1.261,1.261,0,0,1,.868.122,2.622,2.622,0,0,0,2.576,0,1.274,1.274,0,0,1,.87-.122,10.331,10.331,0,0,1,8.129,10.054v1.575A1.276,1.276,0,0,1,46.2,33.5M29.454,30.951h15.47v-.3a7.773,7.773,0,0,0-5.705-7.462,5.134,5.134,0,0,1-4.061,0,7.772,7.772,0,0,0-5.7,7.462Z" transform="translate(18.187 13.904)" fill="#359547"/><path d="M8.278,26.665a5.308,5.308,0,1,1,5.308-5.308,5.315,5.315,0,0,1-5.308,5.308m0-8.065a2.757,2.757,0,1,0,2.757,2.757A2.76,2.76,0,0,0,8.278,18.6" transform="translate(2.008 10.85)" fill="#359547"/><path d="M19.3,33.5H1.275A1.276,1.276,0,0,1,0,32.227V30.651A10.331,10.331,0,0,1,8.129,20.6,1.26,1.26,0,0,1,9,20.719a2.622,2.622,0,0,0,2.576,0,1.274,1.274,0,0,1,.87-.122,10.331,10.331,0,0,1,8.129,10.054v1.575A1.276,1.276,0,0,1,19.3,33.5M2.551,30.951h15.47v-.3a7.773,7.773,0,0,0-5.705-7.462,5.134,5.134,0,0,1-4.061,0,7.772,7.772,0,0,0-5.7,7.462Z" transform="translate(0 13.904)" fill="#359547"/><path d="M20.1,48.591a1.276,1.276,0,0,1-1.275-1.275V38.357a1.275,1.275,0,0,1,2.551,0v8.958A1.276,1.276,0,0,1,20.1,48.591" transform="translate(12.728 25.068)" fill="#359547"/><path d="M54.128,51.795H5.637a1.275,1.275,0,0,1-1.275-1.275v-16.9a1.275,1.275,0,1,1,2.551,0V49.244h45.94V34.363a1.275,1.275,0,0,1,2.551,0V50.519a1.276,1.276,0,0,1-1.275,1.275" transform="translate(2.949 21.865)" fill="#359547"/><path d="M20.1,6.307a1.276,1.276,0,0,1-1.275-1.275V1.275a1.275,1.275,0,0,1,2.551,0V5.031A1.276,1.276,0,0,1,20.1,6.307" transform="translate(12.728 0)" fill="#359547"/><path d="M20.1,6.307a1.276,1.276,0,0,1-1.275-1.275V1.275a1.275,1.275,0,0,1,2.551,0V5.031A1.276,1.276,0,0,1,20.1,6.307" transform="translate(12.728 0)" fill="#359547"/><path d="M24.257,7.218a1.275,1.275,0,0,1-1.1-1.914l1.877-3.253a1.275,1.275,0,0,1,2.209,1.275L25.363,6.579a1.277,1.277,0,0,1-1.106.639" transform="translate(15.537 0.956)" fill="#359547"/><path d="M24.257,7.218a1.275,1.275,0,0,1-1.1-1.914l1.877-3.253a1.275,1.275,0,0,1,2.209,1.275L25.363,6.579a1.277,1.277,0,0,1-1.106.639" transform="translate(15.537 0.956)" fill="#359547"/><path d="M27.3,9.706a1.275,1.275,0,0,1-.639-2.38l3.251-1.879A1.275,1.275,0,1,1,31.19,7.656L27.939,9.535a1.275,1.275,0,0,1-.637.171" transform="translate(17.594 3.567)" fill="#359547"/><path d="M27.3,9.706a1.275,1.275,0,0,1-.639-2.38l3.251-1.879A1.275,1.275,0,1,1,31.19,7.656L27.939,9.535a1.275,1.275,0,0,1-.637.171" transform="translate(17.594 3.567)" fill="#359547"/><path d="M32.17,13.1H28.414a1.275,1.275,0,1,1,0-2.551H32.17a1.275,1.275,0,1,1,0,2.551" transform="translate(18.347 7.133)" fill="#359547"/><path d="M32.17,13.1H28.414a1.275,1.275,0,1,1,0-2.551H32.17a1.275,1.275,0,1,1,0,2.551" transform="translate(18.347 7.133)" fill="#359547"/><path d="M30.552,19.138a1.275,1.275,0,0,1-.637-.171l-3.251-1.879a1.275,1.275,0,1,1,1.275-2.209l3.251,1.879a1.275,1.275,0,0,1-.639,2.38" transform="translate(17.594 9.943)" fill="#359547"/><path d="M30.552,19.138a1.275,1.275,0,0,1-.637-.171l-3.251-1.879a1.275,1.275,0,1,1,1.275-2.209l3.251,1.879a1.275,1.275,0,0,1-.639,2.38" transform="translate(17.594 9.943)" fill="#359547"/><path d="M20.064,6.307a1.276,1.276,0,0,1-1.275-1.275V1.275a1.275,1.275,0,0,1,2.551,0V5.031a1.276,1.276,0,0,1-1.275,1.275" transform="translate(12.702 0)" fill="#359547"/><path d="M16.667,7.218a1.273,1.273,0,0,1-1.106-.639L13.684,3.326a1.275,1.275,0,0,1,2.209-1.275L17.77,5.3a1.275,1.275,0,0,1-1.1,1.914" transform="translate(9.135 0.956)" fill="#359547"/><path d="M16.667,7.218a1.273,1.273,0,0,1-1.106-.639L13.684,3.326a1.275,1.275,0,0,1,2.209-1.275L17.77,5.3a1.275,1.275,0,0,1-1.1,1.914" transform="translate(9.135 0.956)" fill="#359547"/><path d="M14.178,9.706a1.275,1.275,0,0,1-.637-.171L10.29,7.656a1.275,1.275,0,1,1,1.275-2.209l3.251,1.879a1.275,1.275,0,0,1-.639,2.38" transform="translate(6.524 3.567)" fill="#359547"/><path d="M14.178,9.706a1.275,1.275,0,0,1-.637-.171L10.29,7.656a1.275,1.275,0,1,1,1.275-2.209l3.251,1.879a1.275,1.275,0,0,1-.639,2.38" transform="translate(6.524 3.567)" fill="#359547"/><path d="M13.268,13.1H9.512a1.275,1.275,0,0,1,0-2.551h3.756a1.275,1.275,0,0,1,0,2.551" transform="translate(5.568 7.133)" fill="#359547"/><path d="M13.268,13.1H9.512a1.275,1.275,0,0,1,0-2.551h3.756a1.275,1.275,0,0,1,0,2.551" transform="translate(5.568 7.133)" fill="#359547"/><path d="M10.929,19.138a1.275,1.275,0,0,1-.64-2.38l3.253-1.879a1.275,1.275,0,1,1,1.275,2.209l-3.253,1.879a1.269,1.269,0,0,1-.635.171" transform="translate(6.524 9.943)" fill="#359547"/><path d="M10.929,19.138a1.275,1.275,0,0,1-.64-2.38l3.253-1.879a1.275,1.275,0,1,1,1.275,2.209l-3.253,1.879a1.269,1.269,0,0,1-.635.171" transform="translate(6.524 9.943)" fill="#359547"/></g></g></g></svg>