<svg xmlns="http://www.w3.org/2000/svg" xmlns:xlink="http://www.w3.org/1999/xlink" width="126.415" height="156.565" viewBox="0 0 126.415 156.565"><defs><clipPath id="a"><path d="M2.2,63.208a61,61,0,1,1,61,61,61.074,61.074,0,0,1-61-61M63.208,0a63.208,63.208,0,1,0,63.207,63.208A63.279,63.279,0,0,0,63.208,0Z" fill="#03386e"/></clipPath><clipPath id="b"><rect width="73.852" height="73.66" fill="#03386e"/></clipPath></defs><g transform="translate(-975 -7346.293)"><path d="M18.432,21H15.5V6.781h2.93Zm5.127-10.566.088,1.221a3.689,3.689,0,0,1,3.037-1.416,3.066,3.066,0,0,1,2.5.986,4.6,4.6,0,0,1,.84,2.949V21H27.2V14.242a1.831,1.831,0,0,0-.391-1.3,1.749,1.749,0,0,0-1.3-.405,1.942,1.942,0,0,0-1.787,1.016V21H20.9V10.434Zm11.2,0,.088,1.221a3.689,3.689,0,0,1,3.037-1.416,3.066,3.066,0,0,1,2.5.986,4.6,4.6,0,0,1,.84,2.949V21H38.4V14.242a1.831,1.831,0,0,0-.391-1.3,1.749,1.749,0,0,0-1.3-.405,1.942,1.942,0,0,0-1.787,1.016V21H32.1V10.434Zm8.164,5.186a6.267,6.267,0,0,1,.605-2.8,4.432,4.432,0,0,1,1.743-1.9,5.086,5.086,0,0,1,2.642-.674,4.812,4.812,0,0,1,3.491,1.309A5.252,5.252,0,0,1,52.915,15.1l.02.723a5.523,5.523,0,0,1-1.357,3.9,5.261,5.261,0,0,1-7.29,0,5.62,5.62,0,0,1-1.362-3.984Zm2.822.2a3.95,3.95,0,0,0,.566,2.3,2.035,2.035,0,0,0,3.223.01,4.322,4.322,0,0,0,.576-2.518,3.91,3.91,0,0,0-.576-2.289,1.873,1.873,0,0,0-1.621-.812,1.842,1.842,0,0,0-1.6.807A4.395,4.395,0,0,0,45.747,15.819Zm12.734,1.733,1.963-7.119h2.949L59.829,21h-2.7L53.569,10.434h2.949ZM70.61,21a3.134,3.134,0,0,1-.283-.947A3.415,3.415,0,0,1,67.661,21.2a3.752,3.752,0,0,1-2.573-.9,2.89,2.89,0,0,1-1.021-2.266,2.986,2.986,0,0,1,1.245-2.578,6.144,6.144,0,0,1,3.6-.908h1.3v-.605a1.741,1.741,0,0,0-.376-1.172,1.479,1.479,0,0,0-1.187-.439,1.682,1.682,0,0,0-1.118.342,1.161,1.161,0,0,0-.405.938H64.3a2.835,2.835,0,0,1,.566-1.7,3.744,3.744,0,0,1,1.6-1.226,5.837,5.837,0,0,1,2.324-.444,4.611,4.611,0,0,1,3.1.981,3.433,3.433,0,0,1,1.147,2.759v4.58a5.052,5.052,0,0,0,.42,2.275V21Zm-2.334-1.963a2.431,2.431,0,0,0,1.152-.278,1.828,1.828,0,0,0,.781-.747V16.2H69.155q-2.119,0-2.256,1.465l-.01.166a1.13,1.13,0,0,0,.371.869A1.441,1.441,0,0,0,68.276,19.037ZM79.6,18.92a1.851,1.851,0,0,0,1.27-.43,1.506,1.506,0,0,0,.508-1.143h2.646a3.62,3.62,0,0,1-.586,1.968A3.866,3.866,0,0,1,81.865,20.7a4.936,4.936,0,0,1-2.212.493,4.587,4.587,0,0,1-3.574-1.44,5.7,5.7,0,0,1-1.309-3.979V15.59a5.635,5.635,0,0,1,1.3-3.9,4.534,4.534,0,0,1,3.564-1.455,4.444,4.444,0,0,1,3.179,1.128,3.994,3.994,0,0,1,1.216,3H81.381a1.939,1.939,0,0,0-.508-1.34,1.887,1.887,0,0,0-2.778.2,4.166,4.166,0,0,0-.5,2.333v.293a4.219,4.219,0,0,0,.5,2.347A1.721,1.721,0,0,0,79.6,18.92ZM88.618,21H85.786V10.434h2.832Zm-3-13.3a1.39,1.39,0,0,1,.425-1.045,1.831,1.831,0,0,1,2.31,0,1.382,1.382,0,0,1,.43,1.045,1.386,1.386,0,0,1-.435,1.055,1.81,1.81,0,0,1-2.295,0A1.386,1.386,0,0,1,85.62,7.7Zm4.883,7.92a6.266,6.266,0,0,1,.605-2.8,4.432,4.432,0,0,1,1.743-1.9,5.086,5.086,0,0,1,2.642-.674,4.812,4.812,0,0,1,3.491,1.309,5.252,5.252,0,0,1,1.509,3.555l.02.723a5.523,5.523,0,0,1-1.357,3.9,5.261,5.261,0,0,1-7.29,0A5.62,5.62,0,0,1,90.5,15.746Zm2.822.2a3.95,3.95,0,0,0,.566,2.3,2.035,2.035,0,0,0,3.223.01,4.322,4.322,0,0,0,.576-2.518,3.91,3.91,0,0,0-.576-2.289,1.873,1.873,0,0,0-1.621-.812,1.842,1.842,0,0,0-1.6.807A4.395,4.395,0,0,0,93.325,15.819ZM96.049,6h3.076L96.42,9.027H94.125Zm8.8,4.434.088,1.221a3.689,3.689,0,0,1,3.037-1.416,3.066,3.066,0,0,1,2.5.986,4.6,4.6,0,0,1,.84,2.949V21h-2.822V14.242a1.831,1.831,0,0,0-.391-1.3,1.749,1.749,0,0,0-1.3-.405,1.942,1.942,0,0,0-1.787,1.016V21h-2.822V10.434Z" transform="translate(974.896 7481.663)" fill="#12263f"/><g transform="translate(975 7346.293)"><g clip-path="url(#a)"><rect width="156.849" height="156.851" transform="translate(-34.098 9.986) rotate(-16.323)" fill="#03386e"/></g></g><g transform="translate(1001 7372.292)"><g transform="translate(0 0)" clip-path="url(#b)"><path d="M40.175,63.448q-.053,0-.105-.005a1.327,1.327,0,0,1-.975-.546l-5.529-7.632a14.011,14.011,0,0,0-1.443-1.693l-16.3-16.3a14.048,14.048,0,0,0-1.693-1.445L6.493,30.294a1.33,1.33,0,0,1-.161-2.021l5.285-5.284a16.526,16.526,0,0,1,18.341-3.474L33.1,16.371A56.833,56.833,0,0,1,67.932.006a1.335,1.335,0,0,1,1.452,1.452A56.843,56.843,0,0,1,53.018,36.288l-3.144,3.144A16.53,16.53,0,0,1,46.4,57.773l-5.284,5.285a1.334,1.334,0,0,1-.942.391M9.321,29.052l6.368,4.613A16.849,16.849,0,0,1,17.7,35.383l16.3,16.3A16.818,16.818,0,0,1,35.725,53.7l4.613,6.368,4.178-4.18a13.878,13.878,0,0,0,2.566-16.134,1.331,1.331,0,0,1,.245-1.545L51.134,34.4A54.162,54.162,0,0,0,66.552,2.837,54.161,54.161,0,0,0,34.986,18.255L31.18,22.063a1.336,1.336,0,0,1-1.546.245A13.873,13.873,0,0,0,13.5,24.873Z" transform="translate(4.463 -0.001)" fill="#03386e"/><path d="M33.62,18.222A5.2,5.2,0,1,1,37.3,16.7a5.192,5.192,0,0,1-3.683,1.522m0-7.746a2.542,2.542,0,1,0,1.8.743,2.537,2.537,0,0,0-1.8-.743" transform="translate(21.347 5.868)" fill="#03386e"/><path d="M28.214,23.633A5.211,5.211,0,1,1,31.9,22.106a5.173,5.173,0,0,1-3.683,1.527m0-7.751a2.542,2.542,0,0,0-1.8,4.34,2.6,2.6,0,0,0,3.6,0,2.541,2.541,0,0,0-1.8-4.34" transform="translate(17.283 9.929)" fill="#03386e"/><path d="M22.808,29.039a5.208,5.208,0,1,1,3.683-1.525,5.178,5.178,0,0,1-3.683,1.525m0-7.751a2.544,2.544,0,0,0-1.8,4.341,2.607,2.607,0,0,0,3.6,0,2.543,2.543,0,0,0-1.8-4.341" transform="translate(13.222 13.99)" fill="#03386e"/><path d="M21.914,56.374c-.163,0-.326-.005-.49-.014a6.729,6.729,0,0,1-5.805-4.077c-4.037.469-7.063-.361-9-2.473-2.6-2.828-2.375-7.1-2.066-9.192-4.4-1.66-4.725-5.037-4.494-7A8.716,8.716,0,0,1,6.2,26.406L16.849,23.07a1.333,1.333,0,1,1,.8,2.545L6.991,28.949A6.055,6.055,0,0,0,2.7,33.93c-.172,1.459.028,3.51,3.718,4.488a1.333,1.333,0,0,1,.949,1.618c-.012.051-1.289,5.259,1.217,7.977,1.466,1.592,4.058,2.089,7.706,1.482a1.333,1.333,0,0,1,1.518,1.019,4.232,4.232,0,0,0,3.77,3.184,6.249,6.249,0,0,0,6.147-4.478l3.224-10.3a1.332,1.332,0,1,1,2.543.8l-3.224,10.3a8.863,8.863,0,0,1-8.355,6.357" transform="translate(0 17.285)" fill="#03386e"/><path d="M7.471,40.976A1.333,1.333,0,0,1,6.528,38.7l8.858-8.858a1.332,1.332,0,1,1,1.884,1.884L8.413,40.586a1.326,1.326,0,0,1-.942.391" transform="translate(4.611 22.126)" fill="#03386e"/><path d="M44.859,16.1a1.525,1.525,0,0,1-.2-.014A14.816,14.816,0,0,1,32.127,3.549a1.332,1.332,0,1,1,2.636-.392,12.163,12.163,0,0,0,10.29,10.289,1.333,1.333,0,0,1-.194,2.651" transform="translate(24.125 1.516)" fill="#03386e"/><path d="M14.768,23.8a1.333,1.333,0,0,1-.942-2.275l9.839-9.84a1.332,1.332,0,0,1,1.884,1.884l-9.84,9.84a1.319,1.319,0,0,1-.94.391" transform="translate(10.093 8.488)" fill="#03386e"/><path d="M25.064,34.1a1.333,1.333,0,0,1-.942-2.275l9.84-9.84a1.332,1.332,0,0,1,1.884,1.884l-9.84,9.84a1.326,1.326,0,0,1-.942.391" transform="translate(17.828 16.223)" fill="#03386e"/></g></g></g></svg>