<svg xmlns="http://www.w3.org/2000/svg" xmlns:xlink="http://www.w3.org/1999/xlink" width="115" height="115" viewBox="0 0 115 115"><defs><clipPath id="a"><rect width="63.392" height="63.491" fill="none"/></clipPath></defs><g transform="translate(-954 -861)"><circle cx="57.5" cy="57.5" r="57.5" transform="translate(954 861)" fill="#6e2034"/><g transform="translate(980 887)"><g transform="translate(0 0)" clip-path="url(#a)"><path d="M26.945,23.151a38.752,38.752,0,0,1-4.225-4.23,3.882,3.882,0,0,0-3.873-2.543c-2.7.061-5.411.01-8.117.02a2.388,2.388,0,0,0-1.739.408c-1.583,0-3.168.039-4.749-.008A4.306,4.306,0,0,0,0,21.046Q.048,36.9,0,52.757A4.347,4.347,0,0,0,4.244,57.01q9.5-.061,19,0a4.334,4.334,0,0,0,4.244-4.253c-.047-4.228-.014-8.456-.014-12.684a2.046,2.046,0,0,0,.427-1.482c.014-4.526.024-9.052,0-13.579,0-.775-.119-1.506-.95-1.862" transform="translate(0 6.48)" fill="#040506"/><path d="M21.687,23.285c.539-.181.657.509,1.147.537.685-1.225,1.379-2.468,2.066-3.694H42.692l.645-.861c-.035.158-.01.078,0,0a11.247,11.247,0,0,0-.3-3.842A21.792,21.792,0,0,0,40.64,9.282a21.2,21.2,0,0,0-4.162-4.856,15.945,15.945,0,0,0-5.86-3.336A29.828,29.828,0,0,0,27.009.217a18.7,18.7,0,0,0-4.646-.14,9.9,9.9,0,0,0-3.034.583A23.384,23.384,0,0,0,16.36,1.774a20.136,20.136,0,0,0-2.691,1.442A22.054,22.054,0,0,0,9.162,7.627c-.388.543-.843,1.059-1.191,1.63a15.784,15.784,0,0,0-1.281,2.5A19.2,19.2,0,0,0,5.9,14.2a4.519,4.519,0,0,0-.318,2.123c-.575,1.562-.1,3.175-.3,4.851H6.638c1.347.458,1.114-.641,1.107-1.255a19.885,19.885,0,0,1,1.3-7.108C10.067,10,12.594,6.873,14.752,5.774c.463.085.558.516.749.844,2.127,3.652,4.174,7.352,6.375,10.959a2.439,2.439,0,0,1,.01,2.934A5.946,5.946,0,0,0,20.829,22.6a.8.8,0,0,0,.858.687" transform="translate(2.09 0.001)" fill="#040506"/><path d="M21.306,21.872c-.07-.413-.621-.236-.738-.632a29.214,29.214,0,0,0,2.085-3.63c-1-1.782-2.106-3.567-3.125-5.391-.756-1.357-1.6-2.669-2.306-4.059-.782-1.535-1.708-3-2.629-4.586-5.633,3.94-7.806,9.443-7.549,16.068-.267.2-.537.08-.787.114,0,.394.029.789-.008,1.178-.036.361.4.565.272.938H17.967c.808.653,1.4,1.538,2.282,2.116a5.289,5.289,0,0,0,1.057-2.116" transform="translate(2.471 1.414)" fill="#db2831"/><path d="M36,36.39c-1.759,0-3.517.039-5.274-.01a4.262,4.262,0,0,0-4.239,4.244c.046,1.407.046,2.818,0,4.225A4.286,4.286,0,0,0,30.731,49.1c3.559-.05,7.119,0,10.68-.018a3.92,3.92,0,0,0,3.63-2.311,3.618,3.618,0,0,0,.476-1.786c-.028-1.452-.045-2.906,0-4.357a4.261,4.261,0,0,0-4.24-4.241c-1.757.049-3.516.01-5.274.01" transform="translate(10.481 14.395)" fill="#040506"/><path d="M19.306,21.521c.038.29.314.395.528.684V38.443H20.89c.613-.819,1.3-1.08,2.112-.264.733.138,1.38-.4,2.113-.265.1-.854-.676-1.144-1.089-1.664a9.9,9.9,0,0,1-1.132-1.262.953.953,0,0,1,.65-.867.472.472,0,0,1,.4.08c.825.722,1.544,1.552,2.349,2.293.335.307.6.8,1.195.627.084-.449.593-.257.793-.529s-.04-.622.276-.963a10.222,10.222,0,0,0,2.99-2.279c.08-.783-.476-1.151-.895-1.574Q26.71,27.8,22.744,23.843a5.515,5.515,0,0,1-.819-.874c-.193-.549.451-.744.286-1.185a.65.65,0,0,1-.583-.174c-.346-.389-.731-.745-1.1-1.115a1.018,1.018,0,0,0-.484.652.589.589,0,0,1-.736.374" transform="translate(7.639 8.11)" fill="#75c3e3"/><path d="M41.758,4.562c-1.407,0-2.814.036-4.219-.008A4.254,4.254,0,0,0,33.3,8.795c.045,1.407.045,2.818,0,4.225a4.278,4.278,0,0,0,4.237,4.247c2.856-.053,5.713,0,8.569-.017a3.928,3.928,0,0,0,3.632-2.311,3.631,3.631,0,0,0,.476-1.785c-.028-1.453-.046-2.906,0-4.357a4.255,4.255,0,0,0-4.237-4.243c-1.405.045-2.812.008-4.219.008" transform="translate(13.175 1.801)" fill="#040506"/><path d="M30.4,17.741v-.93a.614.614,0,0,0-.094-.087.231.231,0,0,0-.114-.04H22.58c-.141.191-.322.435-.606.815v.509L35.409,31.46h.71a18.9,18.9,0,0,0,5.937-14.223,3.923,3.923,0,0,1-.371-.226,2.941,2.941,0,0,1-.307-.3H38.919c-.166.341-.027.7-.074,1.033-.634.786.142,1.161.484,1.584-.074,3.246-1.831,7.329-3.909,8.9-2.956-2.924-5.9-5.9-8.966-8.959,1.373-.308,2.666.106,3.813-.3.421-.423.477-.807.128-1.217" transform="translate(8.695 6.601)" fill="#050506"/><path d="M29.3,17.522v.93a.555.555,0,0,1-.094.087.231.231,0,0,1-.114.04H24.749l9.943,9.957a20.339,20.339,0,0,0,2.342-3.544,13.493,13.493,0,0,0,1.493-5.185c.015-.392.477-.646.251-1.115-.244-.294-.638.008-.976-.177-.148-.3-.008-.656-.056-.994H35.7c-.18,0-.345-.02-.327-.264-.7-.141-.973.466-1.386.812a11.875,11.875,0,0,1-1.821,1.65.964.964,0,0,1-.879-.7c.025-.6.883-.808.655-1.5Z" transform="translate(9.793 6.821)" fill="#f0d486"/><path d="M26.661,33.453c-1.414-1.09-2.512-2.509-3.844-3.686l-1.411,1.412c.893,1.082,2.05,1.923,2.878,3.066,1.389,1.076,2.477,2.463,3.828,3.672H47.459V35.863H28.906a30.508,30.508,0,0,1-2.246-2.41" transform="translate(8.47 11.779)" fill="#040506"/><path d="M30.262,18.64c-.3.6-.893.931-1.278,1.428L30.419,21.5c1.114-.987,2.054-2.2,3.276-3.125.406-.748,1.175-1.157,1.664-1.851H51.865V14.5c.018.02-.007-.017-.042-.042a.213.213,0,0,0-.112-.043H34.618c-1.1,1.1-2.236,2.251-3.39,3.386-.3.3-.539.685-.966.844" transform="translate(11.468 5.702)" fill="#040506"/><path d="M21.692,21.553l-1.076.906,10.4,10.41A14.8,14.8,0,0,1,27.28,35.4l.484.957c.123.257.247.514.419.872a13.778,13.778,0,0,0,5.372-3.9v-.716q-5.77-5.778-11.517-11.534c-.078.148-.359.2-.346.47" transform="translate(8.157 8.342)" fill="#050506"/><path d="M22.554,33.467c0-.384.07-.79-.463-1.061a2.665,2.665,0,0,1-1.648.251v2.07a3.127,3.127,0,0,0,2.373-.331c-.37-.23-.246-.6-.261-.93" transform="translate(8.088 12.823)" fill="#0c0e0f"/><path d="M24.758,24.567H19.071l-.639-.861V18.2H17.241q-6.726,0-13.452,0a2.038,2.038,0,0,0-2.265,2.257q0,15.716,0,31.432a2.038,2.038,0,0,0,2.253,2.269q9.364,0,18.727,0a2.037,2.037,0,0,0,2.253-2.268c0-9.069,0-18.137,0-27.323" transform="translate(0.603 7.201)" fill="#f0d486"/><path d="M15.192,21.893h2.424l-2.424-2.427Z" transform="translate(6.011 7.703)" fill="#ebab1d"/><path d="M13.556,3.273c.779,1.228,1.425,2.419,2.088,3.6.681,1.213,1.4,2.409,2.089,3.615,1.269,2.2,2.423,4.475,3.845,6.589a.967.967,0,0,1,.068.276H37.9a16.9,16.9,0,0,0-5.8-11.71A13.612,13.612,0,0,0,27.936,3a26.579,26.579,0,0,0-4.629-1.267,14.841,14.841,0,0,0-5.062.068,17.269,17.269,0,0,0-4.688,1.475" transform="translate(5.364 0.61)" fill="#9fb815"/><path d="M29.465,37.9c-.144.313-.526.223-.74.458A2.2,2.2,0,0,0,28,39.917c.021,1.672.007,3.343.007,4.87.355.736.652,1.361,1.405,1.553H41.323A2.4,2.4,0,0,0,42.8,44.565c0-1.216-.017-2.8.006-4.381a1.954,1.954,0,0,0-1.27-2.1c-.075-.028-.126-.12-.186-.181Z" transform="translate(11.08 14.997)" fill="#75c3e3"/><path d="M47.494,7.53c-.124-.124-.31-.227-.363-.377-.332-.925-1.054-1.087-1.916-1.083-2.988.015-5.976.006-8.759.006A2.335,2.335,0,0,0,34.82,7.855c0,1.209.011,2.789,0,4.368-.008.851.116,1.6,1.058,1.927.149.053.253.239.4.385,2.966,0,5.955-.01,8.943.007a1.96,1.96,0,0,0,2.1-1.273c.029-.075.121-.124.181-.184V7.53" transform="translate(13.776 2.402)" fill="#116fa5"/><path d="M15.688,32.387V30.353H3.069c-.07.631-.011,1.312-.036,2.034Z" transform="translate(1.2 12.01)" fill="#040506"/><path d="M13.582,38.447V36.418H3.1c-.14.624.013,1.309-.08,2.029Z" transform="translate(1.194 14.41)" fill="#040506"/><path d="M19.631,35.415V33.387H9.123c-.071.625-.01,1.3-.036,2.028Z" transform="translate(3.596 13.211)" fill="#040506"/><path d="M6.081,24.294v2.025H16.588c.073-.622.01-1.3.036-2.025Z" transform="translate(2.406 9.613)" fill="#040506"/><path d="M10.637,29.388h8.357V27.375c.018.018-.01-.018-.047-.04a.231.231,0,0,0-.113-.04h-8.2Z" transform="translate(4.209 10.8)" fill="#040506"/><rect width="8.398" height="2.022" transform="translate(4.264 38.14)" fill="#040506"/><path d="M3.07,35.451H9.314V33.383c-2.034-.06-4.116,0-6.244-.032Z" transform="translate(1.215 13.197)" fill="#040506"/><path d="M3.054,19.745v2.031H7.226c.068-.628.01-1.309.035-2.031Z" transform="translate(1.208 7.813)" fill="#040506"/><path d="M13.647,30.356v2.025H17.82c.068-.622.008-1.3.035-2.025Z" transform="translate(5.4 12.012)" fill="#040506"/><path d="M12.892,39.448v2.031h4.17c.07-.628.01-1.309.036-2.031Z" transform="translate(5.101 15.609)" fill="#080807"/><path d="M16.286,36.4H12.149V38.5h4.137Z" transform="translate(4.807 14.404)" fill="#080807"/><path d="M15.177,26.36H17.2V24.313c-.62-.119-1.3.007-2.021-.067Z" transform="translate(6.005 9.594)" fill="#040506"/><rect width="6.288" height="2.024" transform="translate(44.396 58.235)" fill="#040506"/><path d="M36.558,38.675H30.314v2.014c-.021-.02.008.015.045.038a.236.236,0,0,0,.114.04c2.013,0,4.027,0,6.085,0Z" transform="translate(11.992 15.303)" fill="#040506"/><path d="M36.364,40.755h2.022V38.689c-.622-.067-1.3-.008-2.022-.033Z" transform="translate(14.388 15.296)" fill="#040506"/><path d="M30.865,43.768V41.726c-.666-.074-1.344-.013-2.066-.039v2.078a10.311,10.311,0,0,0,2.066,0" transform="translate(11.395 16.495)" fill="#040506"/><path d="M38.619,9.9V11.92h4.172c.07-.621.008-1.3.035-2.024Z" transform="translate(15.281 3.916)" fill="#040506"/><path d="M37.105,6.864V8.889h4.173c.068-.622.008-1.3.035-2.025Z" transform="translate(14.682 2.716)" fill="#040506"/><path d="M37.651,9.863H35.61c-.074.667-.013,1.345-.039,2.068h2.075a10.441,10.441,0,0,0,0-2.068" transform="translate(14.075 3.903)" fill="#040506"/><path d="M41.645,6.864V8.889h2.063c.067-.622.008-1.3.033-2.025Z" transform="translate(16.478 2.716)" fill="#040506"/></g></g></g></svg>