<svg xmlns="http://www.w3.org/2000/svg" xmlns:xlink="http://www.w3.org/1999/xlink" width="418" height="375" viewBox="0 0 418 375"><defs><filter id="a" x="0" y="0" width="418" height="375" filterUnits="userSpaceOnUse"><feOffset dy="3" input="SourceAlpha"/><feGaussianBlur stdDeviation="3" result="b"/><feFlood flood-opacity="0.161"/><feComposite operator="in" in2="b"/><feComposite in="SourceGraphic"/></filter><clipPath id="c"><rect width="273.007" height="277.153" fill="none"/></clipPath><clipPath id="g"><rect width="49.459" height="58.78" fill="none"/></clipPath><clipPath id="h"><rect width="27.523" height="27.523" fill="none"/></clipPath><clipPath id="k"><rect width="67.272" height="79.95" fill="none"/></clipPath><clipPath id="m"><rect width="12.496" height="13.055" fill="none"/></clipPath><clipPath id="n"><rect width="4.222" height="11.468" fill="none"/></clipPath><clipPath id="o"><rect width="10.613" height="15.71" fill="none"/></clipPath></defs><g transform="translate(-170.795 -6837)"><g transform="matrix(1, 0, 0, 1, 170.79, 6837)" filter="url(#a)"><rect width="400" height="357" rx="20" transform="translate(9 6)" fill="#ced371"/></g><g transform="translate(243.401 6882.459)"><g transform="translate(0 0)" clip-path="url(#c)"><g clip-path="url(#c)"><path d="M332.139.18,314.565,8.994a3.563,3.563,0,0,0-2.166,3.278v8.22a38.158,38.158,0,0,0,6.266,21.047c3.165,4.823,7.364,10.988,14.349,14.513h3.153c7.776-2.372,13.58-8.693,17.129-14.1a38.153,38.153,0,0,0,6.266-21.047V12.273A3.563,3.563,0,0,0,357.4,8.994L337.377.465A12.221,12.221,0,0,0,332.139.18" transform="translate(-124.715 0)" fill="#e0e0e0"/><path d="M329.336.584l-20.018,8.53a3.562,3.562,0,0,0-2.167,3.278v8.221A38.49,38.49,0,0,0,330.92,56.172c7.775-2.371,13.58-8.693,17.128-14.1a38.158,38.158,0,0,0,6.266-21.047V12.392a3.563,3.563,0,0,0-2.166-3.278L332.13.584a3.563,3.563,0,0,0-2.794,0" transform="translate(-122.62 -0.119)" fill="#f5f5f5"/><path d="M375.787,31.091a1.753,1.753,0,0,1,.038.378c.012.282.028.643.048,1.089.019.473.046,1.053.014,1.725s-.006,1.441-.1,2.283c-.081.844-.137,1.772-.311,2.755-.08.491-.142,1-.244,1.525s-.227,1.054-.344,1.6a39.469,39.469,0,0,1-2.308,6.911,40.66,40.66,0,0,1-3.591,6.344c-.667.9-1.283,1.773-1.943,2.521-.324.378-.619.761-.935,1.1l-.914.967c-.568.63-1.15,1.131-1.637,1.6s-.929.839-1.3,1.134l-.849.683a1.719,1.719,0,0,1-.309.222,1.774,1.774,0,0,1,.269-.27l.809-.727c.357-.309.789-.69,1.259-1.169s1.042-.983,1.6-1.62l.893-.975c.31-.339.6-.722.916-1.1.648-.751,1.25-1.622,1.906-2.521a42.011,42.011,0,0,0,3.542-6.306,40.678,40.678,0,0,0,2.314-6.851l.354-1.588c.106-.517.173-1.025.258-1.513.184-.974.252-1.9.347-2.734.112-.836.1-1.6.15-2.27s.039-1.246.039-1.718c0-.445.008-.806.011-1.087a1.733,1.733,0,0,1,.025-.381" transform="translate(-144.157 -12.412)" fill="#e0e0e0"/><path d="M336.291,47.812l-11.483-9.129,3.186-4.007,7.7,6.122,11.245-12.583,3.817,3.411Z" transform="translate(-129.669 -11.263)" fill="#fff"/><path d="M424.6,62.5h-2.172V50.677a5.048,5.048,0,0,0-10.1,0V62.5h-2.172V50.677a7.221,7.221,0,0,1,14.441,0Z" transform="translate(-163.742 -17.349)" fill="#ebebeb"/><path d="M423.592,77.051H407.827a1.849,1.849,0,0,1-1.849-1.849V63.647a1.849,1.849,0,0,1,1.849-1.849h15.765a1.848,1.848,0,0,1,1.848,1.849V75.2a1.849,1.849,0,0,1-1.848,1.849" transform="translate(-162.073 -24.671)" fill="#ebebeb"/><path d="M422.227,72.738a2.112,2.112,0,0,0,.616-1.494,2.141,2.141,0,1,0-2.725,2.049l-.46,2.034H421.7l-.409-2.034a2.153,2.153,0,0,0,.94-.555" transform="translate(-167.097 -27.587)" fill="#fafafa"/><path d="M15.289,360.743a18.017,18.017,0,0,0-7.709-2.654,5.139,5.139,0,0,0-3.647.67.75.75,0,0,0-.375.666.814.814,0,0,0,.357.455,11.022,11.022,0,0,0,11.375.862" transform="translate(-1.417 -142.932)" fill="#e0e0e0"/><path d="M17.315,354.15a37.62,37.62,0,0,1-4.979-4.381A12.594,12.594,0,0,1,9.214,344a2.329,2.329,0,0,1,.246-1.932c3.969,3.1,7.087,7.108,7.855,12.086" transform="translate(-3.642 -136.558)" fill="#e0e0e0"/><path d="M22.853,354.566a18.014,18.014,0,0,1,.092-6.538,8.841,8.841,0,0,1,3.483-5.394,7.715,7.715,0,0,1-.093,5.125,24.886,24.886,0,0,1-3.453,7.27" transform="translate(-9.022 -136.785)" fill="#e0e0e0"/><path d="M23.039,374.1a11.4,11.4,0,0,0-6.183,3.129A11.7,11.7,0,0,0,13.32,383.3c2.317-.143,4.282-1.777,5.707-3.609s2.413-3.841,3.979-5.555" transform="translate(-5.318 -149.347)" fill="#e0e0e0"/><path d="M30.2,366.371a15.247,15.247,0,0,1,1.761-14.424A18.364,18.364,0,0,1,30.2,366.371" transform="translate(-11.631 -140.503)" fill="#e0e0e0"/><path d="M32.349,386.13A11.028,11.028,0,0,0,21.806,392.2c-.13.261-.246.592-.071.827a.785.785,0,0,0,.7.205,9.176,9.176,0,0,0,5.439-2.808,51.988,51.988,0,0,1,4.522-4.3" transform="translate(-8.641 -154.141)" fill="#e0e0e0"/><path d="M38.6,375.883a19.636,19.636,0,0,1-.2-10.968,5.347,5.347,0,0,1,2.341-3.56.46.46,0,0,1,.358-.063.473.473,0,0,1,.226.262,6.607,6.607,0,0,1,.552,3.147,19.7,19.7,0,0,1-.493,3.186c-.412,1.947-.63,4.039-1.7,5.718a11.554,11.554,0,0,0-.679,1.256c-.2.427-.2.577-.389.916" transform="translate(-15.058 -144.227)" fill="#e0e0e0"/><path d="M61.588,380.935a14.141,14.141,0,0,1,2.479-11.628c.178-.232.413-.48.7-.453.445.041.561.634.541,1.081a21.015,21.015,0,0,1-3.724,11" transform="translate(-24.436 -147.252)" fill="#e0e0e0"/><path d="M63.881,387.689a16.915,16.915,0,0,0,13.88-2.823,11.241,11.241,0,0,0-7.514-.922,10.724,10.724,0,0,0-6.366,3.745" transform="translate(-25.502 -153.167)" fill="#e0e0e0"/><path d="M65.6,381.27a16.041,16.041,0,0,1,12.6-7.284,7.76,7.76,0,0,1-4.12,4.555,22.874,22.874,0,0,1-6.047,1.769,4.263,4.263,0,0,0-2.43.96" transform="translate(-26.19 -149.301)" fill="#e0e0e0"/><path d="M61.067,355.735a36.6,36.6,0,0,0,1.611-7.378,12.283,12.283,0,0,0-1.47-7.3,16.064,16.064,0,0,0-.215,14.928" transform="translate(-23.657 -136.157)" fill="#e0e0e0"/><path d="M75.93,352c2.851-5.181,8.666-9.319,14.551-9.9-2.27,5.652-8.461,10.02-14.551,9.9" transform="translate(-30.313 -136.574)" fill="#e0e0e0"/><path d="M72.945,359.706c4.251.648,7.873,3.363,11.846,5.009a5.309,5.309,0,0,0,2.678.513,2.1,2.1,0,0,0,1.313-3.709,5.734,5.734,0,0,0-1.945-1.18,21.616,21.616,0,0,0-13.525-.754" transform="translate(-29.121 -143.261)" fill="#e0e0e0"/><path d="M68.85,365.1A5.024,5.024,0,0,1,70.9,366.52a22.146,22.146,0,0,0,8.983,4.615c.343.085.793.12.963-.19.148-.271-.039-.6-.232-.841a12.368,12.368,0,0,0-5.424-3.682c-2.073-.772-3.87-1.7-6.344-1.5" transform="translate(-27.486 -145.671)" fill="#e0e0e0"/><path d="M64.229,334.954a17,17,0,0,0,13.034,4.434.893.893,0,0,0,.593-.213c.328-.357-.065-.907-.448-1.205a15.014,15.014,0,0,0-13.179-3.016" transform="translate(-25.641 -133.536)" fill="#e0e0e0"/><path d="M69.708,330.9a18.167,18.167,0,0,1,16.263-2.684,12.912,12.912,0,0,1-7.749,3.4,24.541,24.541,0,0,1-8.514-.719" transform="translate(-27.829 -130.689)" fill="#e0e0e0"/><path d="M66.071,311.838c-.376-3.825-.132-6.844-.4-10.687-.021-.307-.087-.676-.374-.787-.4-.154-.733.338-.865.746a12.251,12.251,0,0,0,1.631,10.644" transform="translate(-25.5 -119.899)" fill="#e0e0e0"/><path d="M67.073,312.194a22.489,22.489,0,0,0,6.336-6.157c1.251-1.712,2.306-3.764,2.022-5.865a6.064,6.064,0,0,0-4.57,2.27,12.759,12.759,0,0,0-2.33,4.687c-.507,1.683-.862,3.412-1.457,5.066" transform="translate(-26.777 -119.833)" fill="#e0e0e0"/><path d="M77.38,310.94a51.089,51.089,0,0,0,15.592-9.194,7.957,7.957,0,0,0-5.857.451,18.464,18.464,0,0,0-9.816,8.7" transform="translate(-30.859 -120.308)" fill="#e0e0e0"/><path d="M69.986,320.67a31.684,31.684,0,0,0,8.658.042,36.724,36.724,0,0,0,8.082-2.686.947.947,0,0,0,.549-.417.631.631,0,0,0-.2-.691,1.669,1.669,0,0,0-.689-.323,14.967,14.967,0,0,0-8.734.522,40.517,40.517,0,0,0-7.669,3.553" transform="translate(-27.94 -126.217)" fill="#e0e0e0"/><path d="M41.671,327.055a15.315,15.315,0,0,1-.14-12.675,9.677,9.677,0,0,1,1.122,6.3c-.218,2.166-.878,4.394-.92,6.57" transform="translate(-16.06 -125.506)" fill="#e0e0e0"/><path d="M20.843,328.89a17.677,17.677,0,0,0-13.136,5.6,12.279,12.279,0,0,0,7.193-1.334,36.617,36.617,0,0,0,6.165-4.126" transform="translate(-3.077 -131.297)" fill="#e0e0e0"/><path d="M12.582,325.8c-2.4-.195-4.707-.491-7.012.215A8.412,8.412,0,0,0,.224,330.55,12.671,12.671,0,0,0,6.8,329.308a37.811,37.811,0,0,0,5.783-3.506" transform="translate(-0.089 -129.974)" fill="#e0e0e0"/><path d="M24.447,323.643a22.111,22.111,0,0,0-6.886-3.439c-2.512-.586-5.424-.153-7.176,1.74,2.034,1.193,4.5,1.334,6.859,1.333s5.248-.029,7.472.758" transform="translate(-4.146 -127.734)" fill="#e0e0e0"/><path d="M31.031,316.258c-3.689-3.622-5.087-10.129-3.6-15.081a22.982,22.982,0,0,1,3.6,15.081" transform="translate(-10.717 -120.235)" fill="#e0e0e0"/><path d="M50.7,301.288c.7-1.617,1.185-3.315,1.809-4.961a14.242,14.242,0,0,1,2.58-4.573,6.794,6.794,0,0,1,4.568-2.368,18.4,18.4,0,0,1-8.867,11.929" transform="translate(-20.239 -115.527)" fill="#e0e0e0"/><path d="M41.3,308.436c-1.151-1.585-2.481-3.736-4.043-4.919a6.763,6.763,0,0,0-5.5-1.444,12.809,12.809,0,0,0,9.542,6.363" transform="translate(-12.678 -120.538)" fill="#e0e0e0"/><path d="M46.954,301.518a27.365,27.365,0,0,1-1.82-5.893,9.193,9.193,0,0,1,.923-5.993c2.025,3.828,2.676,7.937,1,11.929" transform="translate(-17.965 -115.626)" fill="#e0e0e0"/><path d="M50.727,284.243c1.147-3.795,4.621-6.588,8.373-7.87a3.124,3.124,0,0,1,1.468-.22,1.273,1.273,0,0,1,1.082.9c.137.645-.4,1.224-.9,1.653a28.5,28.5,0,0,1-10.025,5.534" transform="translate(-20.251 -110.236)" fill="#e0e0e0"/><path d="M50.756,275.992a27.2,27.2,0,0,1,1.094-7.247,9.162,9.162,0,0,1,4.561-5.507c.38,2.471-.711,4.929-2.025,7.056s-2.9,4.133-3.689,6.5" transform="translate(-20.239 -105.089)" fill="#e0e0e0"/><path d="M45.968,278.432c-.948-2.765-1.046-6.278-2.7-8.687-1.158-1.683-3.011-2.831-4.008-4.615a7.018,7.018,0,0,0,.233,5.239,15.158,15.158,0,0,0,3.063,4.386c1.225,1.309,2.275,2.293,3.414,3.677" transform="translate(-15.511 -105.844)" fill="#e0e0e0"/><path d="M50.632,368.068c-.074,0-.138-18.448-.142-41.2s.05-41.2.124-41.2.138,18.443.142,41.2-.05,41.2-.124,41.2" transform="translate(-20.156 -114.043)" fill="#e0e0e0"/><path d="M66.832,330.842a3.992,3.992,0,0,1-.693.261l-1.909.643c-1.609.549-3.82,1.343-6.22,2.326-2.376,1.02-4.617,1.847-5.893,2.953a4.333,4.333,0,0,0-1.184,1.566c-.183.433-.216.7-.24.693a.542.542,0,0,1,.008-.193,2.962,2.962,0,0,1,.135-.537,4.163,4.163,0,0,1,1.156-1.67,10.377,10.377,0,0,1,2.557-1.588c1.023-.477,2.156-.975,3.36-1.47,2.407-.986,4.635-1.755,6.263-2.258.813-.254,1.477-.441,1.938-.564a4,4,0,0,1,.723-.161" transform="translate(-20.235 -132.076)" fill="#e0e0e0"/><path d="M72.96,309.24a1.141,1.141,0,0,1-.195.207l-.592.556-2.21,2.007-7.355,6.549c-2.871,2.556-5.352,5-7.072,6.837-.862.918-1.539,1.679-2,2.21l-.535.61a1.136,1.136,0,0,1-.2.2,1.127,1.127,0,0,1,.158-.236c.112-.148.274-.369.5-.643.439-.553,1.1-1.334,1.943-2.271a93.363,93.363,0,0,1,7.033-6.908c2.881-2.55,5.5-4.84,7.408-6.491l2.266-1.944.625-.518a1.174,1.174,0,0,1,.23-.167" transform="translate(-21.079 -123.453)" fill="#e0e0e0"/><path d="M63.962,324.835c-.075-.034.524-1.418,1.122-3.17s.887-3.229.964-3.217a10.831,10.831,0,0,1-.711,3.3,21.541,21.541,0,0,1-.893,2.217,3.466,3.466,0,0,1-.482.868" transform="translate(-25.532 -127.13)" fill="#e0e0e0"/><path d="M43.65,338.713a3.289,3.289,0,0,1-.443-.514l-1.133-1.453c-.952-1.231-2.269-2.929-3.743-4.788s-2.832-3.527-3.814-4.734l-1.158-1.434a3.217,3.217,0,0,1-.4-.547,3.346,3.346,0,0,1,.478.48c.3.32.714.792,1.224,1.38,1.02,1.176,2.4,2.827,3.879,4.689s2.771,3.58,3.686,4.841c.457.63.821,1.144,1.066,1.5a3.271,3.271,0,0,1,.359.575" transform="translate(-13.157 -129.842)" fill="#e0e0e0"/><path d="M43.653,336.405a6.5,6.5,0,0,1-1.481-2.772,7.927,7.927,0,0,1-.336-2.8l.118.01c-.052.214-.091.326-.112.323s-.022-.123,0-.342l.118.01a12.7,12.7,0,0,0,.473,2.719,20.7,20.7,0,0,0,1.225,2.848" transform="translate(-16.695 -132.072)" fill="#e0e0e0"/><path d="M31.97,329.8a4.789,4.789,0,0,0-1.034-.6,6.917,6.917,0,0,0-2.871-.228,17.709,17.709,0,0,0-2.89.467,8.774,8.774,0,0,1-1.19.285,4.155,4.155,0,0,1,1.138-.467,13.211,13.211,0,0,1,2.922-.551,6.266,6.266,0,0,1,2.961.319,1.832,1.832,0,0,1,.963.776" transform="translate(-9.575 -131.21)" fill="#e0e0e0"/><path d="M28.02,327.113c-.02.041-.6-.242-1.584-.577a15.944,15.944,0,0,0-7.983-.609c-1.021.183-1.639.374-1.653.33a1.513,1.513,0,0,1,.42-.179,9.782,9.782,0,0,1,1.2-.336,14.084,14.084,0,0,1,8.084.616,9.864,9.864,0,0,1,1.131.513,1.52,1.52,0,0,1,.388.241" transform="translate(-6.707 -129.912)" fill="#e0e0e0"/><path d="M49.327,313.072a65.277,65.277,0,0,1-2.052-8.091,32.912,32.912,0,0,1,1.155,4.013,32.808,32.808,0,0,1,.9,4.078" transform="translate(-18.87 -121.753)" fill="#e0e0e0"/><path d="M48.715,315.557a19.579,19.579,0,0,0-1.28-2.4,10.573,10.573,0,0,0-1.885-1.945,1.759,1.759,0,0,1,.728.375A5.845,5.845,0,0,1,47.652,313a5.341,5.341,0,0,1,1.063,2.555" transform="translate(-18.184 -124.238)" fill="#e0e0e0"/><path d="M39.5,388.562c-.029,0-.083-.443-.291-1.227a17.5,17.5,0,0,0-1.233-3.194,44.214,44.214,0,0,0-6.541-9.215c-1.461-1.668-2.877-3.242-4.079-4.749a33.315,33.315,0,0,1-2.917-4.207,20.276,20.276,0,0,1-1.473-3.122c-.135-.385-.234-.685-.289-.893a1.493,1.493,0,0,1-.076-.318c.023-.008.158.422.462,1.174a22.826,22.826,0,0,0,1.538,3.065,35.376,35.376,0,0,0,2.946,4.148c1.208,1.491,2.626,3.056,4.089,4.728a41.908,41.908,0,0,1,6.51,9.308,15.953,15.953,0,0,1,1.163,3.251,8.9,8.9,0,0,1,.163.926,1.526,1.526,0,0,1,.027.326" transform="translate(-9.021 -144.371)" fill="#e0e0e0"/><path d="M65.294,379.065a6.725,6.725,0,0,1-.764.428,16.7,16.7,0,0,0-1.98,1.309,22.82,22.82,0,0,0-2.6,2.372c-.912.965-1.852,2.084-2.813,3.284-1.918,2.407-3.712,4.538-4.787,6.238-.546.844-.942,1.555-1.2,2.053a6.639,6.639,0,0,1-.42.769.722.722,0,0,1,.07-.217c.057-.137.134-.343.257-.6A19.434,19.434,0,0,1,52.19,392.6a68.707,68.707,0,0,1,4.739-6.3c.962-1.2,1.913-2.324,2.844-3.287a21.065,21.065,0,0,1,2.664-2.353,13.886,13.886,0,0,1,2.045-1.25c.254-.127.46-.2.6-.264a.725.725,0,0,1,.216-.073" transform="translate(-20.25 -151.328)" fill="#e0e0e0"/><path d="M68.759,387.938a11.1,11.1,0,0,1-1.614.234,21.257,21.257,0,0,0-3.827.754,11.5,11.5,0,0,0-3.427,1.8c-.79.61-1.163,1.116-1.2,1.086a1.254,1.254,0,0,1,.239-.371,6.063,6.063,0,0,1,.841-.86,10.358,10.358,0,0,1,3.464-1.906,17.242,17.242,0,0,1,3.89-.688,8.837,8.837,0,0,1,1.632-.047" transform="translate(-23.43 -154.863)" fill="#e0e0e0"/><path d="M59.473,389.788c-.084-.047.643-1.158,1.207-2.652.529-1.508.654-2.83.749-2.815a2.559,2.559,0,0,1-.027.866,9.278,9.278,0,0,1-.47,2.04,9.9,9.9,0,0,1-.936,1.871,2.6,2.6,0,0,1-.522.691" transform="translate(-23.74 -153.427)" fill="#e0e0e0"/><path d="M70.015,355.212a1.215,1.215,0,0,1-.258.138l-.758.344c-.332.142-.735.323-1.19.563s-.988.477-1.542.81l-.88.5c-.305.176-.607.384-.929.585-.649.394-1.3.879-1.993,1.374a34.187,34.187,0,0,0-7.676,7.943c-.471.71-.933,1.376-1.3,2.038-.19.328-.388.637-.553.949l-.47.9c-.314.565-.538,1.1-.757,1.568s-.391.872-.521,1.208l-.319.77a1.248,1.248,0,0,1-.128.263,1.164,1.164,0,0,1,.077-.281c.072-.208.162-.469.272-.789.117-.344.27-.76.482-1.23s.421-1.02.725-1.593l.458-.911c.162-.315.356-.629.543-.962.366-.671.824-1.347,1.293-2.067a32.944,32.944,0,0,1,7.732-8c.7-.493,1.362-.975,2.021-1.363.326-.2.633-.4.943-.576l.894-.488c.563-.324,1.1-.556,1.568-.779s.874-.4,1.213-.524l.779-.3a1.222,1.222,0,0,1,.278-.087" transform="translate(-20.254 -141.806)" fill="#e0e0e0"/><path d="M63.635,366.791a1.852,1.852,0,0,1,.634-.944,4,4,0,0,1,2.555-.98,6.989,6.989,0,0,1,2.688.525,3.847,3.847,0,0,1,1.016.494,6.218,6.218,0,0,1-1.078-.315,8.121,8.121,0,0,0-2.618-.437,4.159,4.159,0,0,0-2.44.856,7.513,7.513,0,0,0-.757.8" transform="translate(-25.403 -145.66)" fill="#e0e0e0"/><path d="M60.765,367.825A6.817,6.817,0,0,0,61.328,363a1.555,1.555,0,0,1,.3.687,4.873,4.873,0,0,1-.413,3.536c-.225.408-.424.619-.449.6" transform="translate(-24.256 -144.916)" fill="#e0e0e0"/><path d="M29.52,410.854c.4,7.05,2.522,14.22,5.79,21.468h14.21a61.726,61.726,0,0,0,5.446-21.468Z" transform="translate(-11.785 -164.02)" fill="#e0e0e0"/><path d="M54.152,429.753c0,.074-4.679.133-10.449.133s-10.449-.06-10.449-.133,4.678-.133,10.449-.133,10.449.06,10.449.133" transform="translate(-13.276 -171.511)" fill="#fafafa"/><path d="M54.493,434c0,.074-4.386.133-9.8.133s-9.8-.059-9.8-.133,4.385-.133,9.8-.133,9.8.06,9.8.133" transform="translate(-13.933 -173.209)" fill="#fafafa"/><path d="M39.449,418.558a40.227,40.227,0,0,1,0,6.546,40.228,40.228,0,0,1,0-6.546" transform="translate(-15.696 -167.095)" fill="#fafafa"/><path d="M52.122,418.558a43.141,43.141,0,0,1,0,6.779,43.139,43.139,0,0,1,0-6.779" transform="translate(-20.755 -167.095)" fill="#fafafa"/><path d="M64.018,418.463a44.873,44.873,0,0,1,0,6.914,44.875,44.875,0,0,1,0-6.914" transform="translate(-25.504 -167.057)" fill="#fafafa"/><path d="M54.835,418.469c0,.074-5.488.133-12.255.133s-12.256-.059-12.256-.133,5.486-.133,12.256-.133,12.255.06,12.255.133" transform="translate(-12.106 -167.007)" fill="#fafafa"/><path d="M428.1,299.815a7.264,7.264,0,0,0,4.329-6.72,6.827,6.827,0,1,0-13.626-.063,7.253,7.253,0,0,0,4.341,6.783c-10.484,1.579-10.009,12.975-10.009,12.975l24.793.114s.565-11.519-9.828-13.089" transform="translate(-164.931 -114.095)" fill="#ebebeb"/><path d="M244.911,27.146a4.759,4.759,0,0,0,3.756-3.649,4.472,4.472,0,1,0-8.686-2.055,4.752,4.752,0,0,0,1.767,4.971c-6.925-.543-8.306,6.8-8.306,6.8l15.8,3.739s2.064-7.267-4.336-9.806" transform="translate(-93.194 -7.076)" fill="#ebebeb"/><path d="M433.692,129.542a4.563,4.563,0,0,0,2.087-4.567,4.289,4.289,0,1,0-8.477,1.185,4.555,4.555,0,0,0,3.309,3.827c-6.376,1.924-5.056,8.966-5.056,8.966l15.424-2.157s-.684-7.213-7.286-7.254" transform="translate(-169.843 -48.309)" fill="#f5f5f5"/><path d="M21.6,129.389l-8.333-6.625,2.312-2.908,5.588,4.442,8.159-9.131,2.77,2.475Z" transform="translate(-5.296 -45.977)" fill="#f5f5f5"/></g><g clip-path="url(#c)"><path d="M268.74,446.841c0,.087-60.164.156-134.363.156C60.152,447,0,446.928,0,446.841s60.152-.156,134.377-.156c74.2,0,134.363.07,134.363.156" transform="translate(0 -178.324)" fill="#263238"/></g><g clip-path="url(#c)"><path d="M32.306,154.69l-18.429,9.244a3.737,3.737,0,0,0-2.272,3.438v8.621a40.007,40.007,0,0,0,6.571,22.072c3.319,5.058,7.722,11.523,15.047,15.218H36.53c8.154-2.487,14.241-9.116,17.962-14.786a40.012,40.012,0,0,0,6.571-22.072v-9.053a3.738,3.738,0,0,0-2.272-3.438L37.8,154.989c-.936-.4-4.558-.7-5.494-.3" transform="translate(-4.633 -61.68)" fill="#ff725e"/><g transform="translate(6.972 92.822)" opacity="0.3"><g clip-path="url(#g)"><path d="M32.306,154.69l-18.429,9.244a3.737,3.737,0,0,0-2.272,3.438v8.621a40.007,40.007,0,0,0,6.571,22.072c3.319,5.058,7.722,11.523,15.047,15.218H36.53c8.154-2.487,14.241-9.116,17.962-14.786a40.012,40.012,0,0,0,6.571-22.072v-9.053a3.738,3.738,0,0,0-2.272-3.438L37.8,154.989c-.936-.4-4.558-.7-5.494-.3" transform="translate(-11.605 -154.502)"/></g></g><path d="M29.366,155.114,8.373,164.059A3.736,3.736,0,0,0,6.1,167.5v8.62a40.362,40.362,0,0,0,24.925,37.291c8.154-2.487,14.241-9.116,17.962-14.786A40.007,40.007,0,0,0,55.56,176.55V167.5a3.736,3.736,0,0,0-2.272-3.438L32.3,155.114a3.735,3.735,0,0,0-2.929,0" transform="translate(-2.436 -61.805)" fill="#ff725e"/><g transform="translate(14.633 105.821)" opacity="0.3"><g clip-path="url(#h)"><path d="M51.88,189.9a13.761,13.761,0,1,1-13.762-13.762A13.762,13.762,0,0,1,51.88,189.9" transform="translate(-24.357 -176.138)"/></g></g><path d="M49.179,187a5.713,5.713,0,1,1-5.713-5.713A5.713,5.713,0,0,1,49.179,187" transform="translate(-15.072 -72.374)" fill="#fff"/><path d="M29.9,209.757a11.169,11.169,0,0,1,10.224-6.345,12.147,12.147,0,0,1,10.645,6.345,12.831,12.831,0,0,1-10.839,4.792A13.078,13.078,0,0,1,29.9,209.757" transform="translate(-11.935 -81.205)" fill="#fff"/><path d="M51.776,189.821a1.235,1.235,0,0,1-.028-.223c-.011-.162-.028-.378-.049-.652-.01-.145-.02-.3-.031-.48s-.058-.366-.09-.574a10.1,10.1,0,0,0-.292-1.416,13.157,13.157,0,0,0-1.531-3.638,13.635,13.635,0,0,0-16.379-5.807,12.5,12.5,0,0,0-3.444,1.855,12.444,12.444,0,0,0-2.877,2.891,13.172,13.172,0,0,0-1.945,3.749,13.49,13.49,0,0,0,0,8.586,13.186,13.186,0,0,0,1.944,3.75,12.438,12.438,0,0,0,2.877,2.892,12.495,12.495,0,0,0,3.444,1.855A13.67,13.67,0,0,0,49.756,196.8a13.132,13.132,0,0,0,1.531-3.637,10.1,10.1,0,0,0,.292-1.416c.032-.207.07-.4.09-.574s.022-.335.031-.48c.02-.274.037-.49.049-.652a1.234,1.234,0,0,1,.028-.223,1.256,1.256,0,0,1,0,.223c0,.163-.01.38-.017.656-.005.146-.01.307-.017.484s-.049.369-.076.579A9.745,9.745,0,0,1,51.4,193.2a13,13,0,0,1-1.5,3.7,13.856,13.856,0,0,1-9.327,6.574,13.92,13.92,0,0,1-7.3-.585,12.773,12.773,0,0,1-3.524-1.886,12.733,12.733,0,0,1-2.946-2.95,13.47,13.47,0,0,1-1.993-3.833,13.77,13.77,0,0,1,0-8.783A13.452,13.452,0,0,1,26.81,181.6a12.74,12.74,0,0,1,2.946-2.949,12.779,12.779,0,0,1,3.523-1.886,13.916,13.916,0,0,1,7.3-.585,13.85,13.85,0,0,1,9.327,6.573,13.022,13.022,0,0,1,1.5,3.7,9.8,9.8,0,0,1,.266,1.433c.027.209.061.4.076.579s.011.338.017.484c.008.275.014.493.017.656a1.257,1.257,0,0,1,0,.223" transform="translate(-9.62 -70.239)" fill="#263238"/><path d="M78.077,187.106a2.017,2.017,0,0,1,.038.4c.013.294.029.672.049,1.142.019.5.047,1.1.013,1.808q-.016.532-.033,1.13c0,.4-.029.822-.077,1.264-.085.884-.144,1.858-.327,2.888-.084.515-.149,1.053-.256,1.6s-.238,1.105-.361,1.68a41.353,41.353,0,0,1-2.421,7.247,42.663,42.663,0,0,1-3.765,6.651c-.7.946-1.344,1.859-2.036,2.645-.34.4-.649.8-.98,1.151l-.958,1.014c-.595.661-1.206,1.187-1.715,1.674s-.974.88-1.362,1.19L63,221.3a1.915,1.915,0,0,1-.323.233,1.971,1.971,0,0,1,.284-.282l.849-.761c.375-.323.829-.723,1.322-1.225s1.093-1.032,1.676-1.7q.448-.49.937-1.023c.325-.356.627-.758.961-1.156.679-.787,1.312-1.7,2-2.644a43.959,43.959,0,0,0,3.715-6.614,42.615,42.615,0,0,0,2.426-7.185q.191-.854.371-1.666c.111-.541.181-1.075.27-1.587.193-1.022.264-1.989.363-2.867.055-.439.087-.859.1-1.257s.039-.771.057-1.123c.051-.7.04-1.307.04-1.8,0-.469.007-.848.01-1.141a1.869,1.869,0,0,1,.025-.4" transform="translate(-25.02 -74.696)" fill="#263238"/></g><g clip-path="url(#c)"><path d="M232.442,293.085H90.384a7.084,7.084,0,0,1-6.961-7.2V68.74a7.084,7.084,0,0,1,6.961-7.2H232.442a7.084,7.084,0,0,1,6.962,7.2V285.884a7.085,7.085,0,0,1-6.962,7.2" transform="translate(-33.303 -24.567)" fill="#263238"/><path d="M208.973,425.1a6.616,6.616,0,1,1-6.615-6.5,6.556,6.556,0,0,1,6.615,6.5" transform="translate(-78.144 -167.112)" fill="#455a64"/><path d="M217.194,78.852H185.338a2.3,2.3,0,0,1,0-4.6h31.856a2.3,2.3,0,0,1,0,4.6" transform="translate(-73.103 -29.644)" fill="#455a64"/><rect width="146.144" height="193.369" transform="translate(54.902 53.491)" fill="#fff"/><rect width="6.234" height="193.369" transform="translate(194.812 53.491)" fill="#f5f5f5"/><path d="M328.161,173.664h0a1.943,1.943,0,0,1-1.944-1.944V128.947a1.944,1.944,0,1,1,3.887,0v42.774a1.944,1.944,0,0,1-1.944,1.944" transform="translate(-130.231 -50.702)" fill="#e0e0e0"/><path d="M229.254,158.163H121.5a3.1,3.1,0,0,1,0-6.2H229.254a3.1,3.1,0,0,1,0,6.2" transform="translate(-47.266 -60.667)" fill="#e0e0e0"/><path d="M228.229,120.517H160.442a3.1,3.1,0,0,1,0-6.2h67.786a3.1,3.1,0,0,1,0,6.2" transform="translate(-62.814 -45.638)" fill="#ff725e"/><path d="M224.121,178.93H146.965a3.1,3.1,0,0,1,0-6.2h77.156a3.1,3.1,0,1,1,0,6.2" transform="translate(-57.434 -68.957)" fill="#e0e0e0"/><path d="M177.963,269.461H118.6a3.1,3.1,0,0,1,0-6.2h59.363a3.1,3.1,0,1,1,0,6.2" transform="translate(-46.11 -105.099)" fill="#e0e0e0"/><path d="M226.358,247.855H118.6a3.1,3.1,0,1,1,0-6.2H226.358a3.1,3.1,0,1,1,0,6.2" transform="translate(-46.11 -96.473)" fill="#e0e0e0"/><path d="M235.287,317.451H140.966a3.1,3.1,0,1,1,0-6.2h94.321a3.1,3.1,0,1,1,0,6.2" transform="translate(-55.039 -124.257)" fill="#e0e0e0"/><path d="M226.358,339.5H118.6a3.1,3.1,0,1,1,0-6.2H226.358a3.1,3.1,0,1,1,0,6.2" transform="translate(-46.11 -133.06)" fill="#e0e0e0"/><path d="M226.358,361.9H118.6a3.1,3.1,0,0,1,0-6.2H226.358a3.1,3.1,0,0,1,0,6.2" transform="translate(-46.11 -142.001)" fill="#e0e0e0"/><path d="M124.453,314.272a3.22,3.22,0,1,1-3.22-3.22,3.219,3.219,0,0,1,3.22,3.22" transform="translate(-47.113 -124.177)" fill="#ff725e"/><path d="M235.287,227.7H140.966a3.1,3.1,0,1,1,0-6.2h94.321a3.1,3.1,0,1,1,0,6.2" transform="translate(-55.039 -88.428)" fill="#e0e0e0"/><path d="M124.453,224.526a3.22,3.22,0,1,1-3.22-3.22,3.219,3.219,0,0,1,3.22,3.22" transform="translate(-47.113 -88.349)" fill="#ff725e"/><path d="M275.659,392.265H251.48a4.94,4.94,0,0,1,0-9.879h24.18a4.94,4.94,0,0,1,0,9.879" transform="translate(-98.423 -152.655)" fill="#ff725e"/></g><g clip-path="url(#c)"><path d="M68.948,10.783,43.882,23.356a5.083,5.083,0,0,0-3.09,4.675V39.757A54.422,54.422,0,0,0,49.73,69.777c4.515,6.88,10.5,15.673,20.466,20.7h4.5c11.091-3.382,19.37-12.4,24.431-20.111a54.42,54.42,0,0,0,8.939-30.021V28.031a5.083,5.083,0,0,0-3.091-4.675L76.42,11.189c-1.273-.543-6.2-.949-7.471-.407" transform="translate(-16.285 -4.202)" fill="#ff725e"/><g transform="translate(24.507 6.324)" opacity="0.3"><g clip-path="url(#k)"><path d="M68.948,10.783,43.882,23.356a5.083,5.083,0,0,0-3.09,4.675V39.757A54.422,54.422,0,0,0,49.73,69.777c4.515,6.88,10.5,15.673,20.466,20.7h4.5c11.091-3.382,19.37-12.4,24.431-20.111a54.42,54.42,0,0,0,8.939-30.021V28.031a5.083,5.083,0,0,0-3.091-4.675L76.42,11.189c-1.273-.543-6.2-.949-7.471-.407" transform="translate(-40.792 -10.527)"/></g></g><path d="M64.949,11.36,36.4,23.526a5.083,5.083,0,0,0-3.09,4.675V39.927a54.9,54.9,0,0,0,33.9,50.721c11.091-3.382,19.37-12.4,24.431-20.111a54.419,54.419,0,0,0,8.938-30.021V28.2a5.082,5.082,0,0,0-3.09-4.675L68.933,11.36a5.081,5.081,0,0,0-3.984,0" transform="translate(-13.296 -4.373)" fill="#ff725e"/><path d="M131.2,54.873a.468.468,0,0,1,.019.137c.006.109.013.242.022.4q.021.573.056,1.553c.023.675.058,1.5.008,2.458q-.023.721-.049,1.536-.014.408-.028.839l-.081.88c-.118,1.2-.2,2.524-.451,3.924-.115.7-.2,1.431-.351,2.173s-.324,1.5-.492,2.282a56.51,56.51,0,0,1-3.293,9.846,58.277,58.277,0,0,1-5.111,9.04c-.949,1.286-1.824,2.528-2.763,3.6-.461.54-.88,1.085-1.331,1.566l-1.3,1.381c-.807.9-1.635,1.616-2.326,2.281-.352.325-.669.64-.98.907l-.865.718-1.2.984-.317.249a.479.479,0,0,1-.115.077s.028-.039.094-.1l.3-.273,1.163-1.027.844-.736c.305-.274.615-.594.961-.924.677-.675,1.492-1.4,2.285-2.306l1.279-1.389c.443-.484.856-1.03,1.31-1.571.926-1.071,1.789-2.313,2.727-3.6a59.6,59.6,0,0,0,5.062-9,57.775,57.775,0,0,0,3.3-9.784q.258-1.164.5-2.268c.15-.738.245-1.464.365-2.161.26-1.391.355-2.707.487-3.9q.047-.449.092-.876.02-.429.039-.835.039-.811.073-1.53c.066-.955.049-1.779.045-2.452q0-.979,0-1.552c0-.162.007-.294.008-.4a.478.478,0,0,1,.014-.138" transform="translate(-44.015 -21.906)" fill="#263238"/><path d="M94.67,63.365H91.625V46.791a7.075,7.075,0,0,0-14.15,0V63.365H74.43V46.791a10.12,10.12,0,1,1,20.24,0Z" transform="translate(-29.714 -14.64)" fill="#f5f5f5"/><path d="M92.359,83.754H72.065a3.491,3.491,0,0,1-3.491-3.491v-14.4a3.491,3.491,0,0,1,3.491-3.491H92.359a3.491,3.491,0,0,1,3.491,3.491v14.4a3.491,3.491,0,0,1-3.491,3.491" transform="translate(-27.376 -24.902)" fill="#fff"/><path d="M92.255,83.65a6.136,6.136,0,0,0,.908-.156,3.462,3.462,0,0,0,2.509-3.363c0-.7-.008-1.467-.013-2.287-.007-1.644-.014-3.512-.023-5.575s-.02-4.323-.032-6.747A3.356,3.356,0,0,0,93.623,62.7a4.02,4.02,0,0,0-1.869-.29l-2.022,0-17.768.012a3.366,3.366,0,0,0-2.079.728,3.33,3.33,0,0,0-1.166,1.835,4.338,4.338,0,0,0-.094,1.1q0,.571,0,1.138,0,1.134,0,2.249c0,2.971-.006,5.838-.009,8.57.057,1.355-.227,2.756.473,3.829a3.381,3.381,0,0,0,3.04,1.64l6.756.019,9.784.05,2.66.029.692.015a1.317,1.317,0,0,1,.235.016,1.318,1.318,0,0,1-.235.016l-.692.015-2.66.029-9.784.05-6.756.019a3.64,3.64,0,0,1-3.8-3.705q0-1,0-2.023c0-2.732-.005-5.6-.009-8.57q0-1.115,0-2.249,0-.567,0-1.138a4.654,4.654,0,0,1,.1-1.175,3.639,3.639,0,0,1,1.274-2.007,3.676,3.676,0,0,1,2.273-.8l17.768.013,2.022,0a4.294,4.294,0,0,1,1.981.321A3.62,3.62,0,0,1,95.863,65.5c.02,2.446,0,4.7-.006,6.765s-.016,3.931-.023,5.575c0,.819-.008,1.583-.013,2.287a3.562,3.562,0,0,1-.527,1.861,3.46,3.46,0,0,1-2.114,1.563,2.756,2.756,0,0,1-.925.095" transform="translate(-27.272 -24.798)" fill="#263238"/><path d="M91.346,77.71a2.961,2.961,0,0,0,.863-2.094,3,3,0,1,0-3.818,2.873l-.645,2.85H90.6l-.574-2.85a3.036,3.036,0,0,0,1.318-.779" transform="translate(-34.416 -28.99)" fill="#ff725e"/></g><g clip-path="url(#c)"><path d="M390.87,108.856V133.2c.052,4.21.671,10.817-5.99,10.6-5.764-.628-7.294-6.085-7.339-10.014-.021-1.864-.043-3.418-.057-3.61,0,0-6.311-.515-6.844-6.747-.257-3.012-.282-9.259-.24-14.911A11.653,11.653,0,0,1,381.208,96.99l.6-.044c6.518-.095,9.146,5.391,9.06,11.909" transform="translate(-147.864 -38.702)" fill="#ffc09d"/><path d="M382.2,150.267a15.109,15.109,0,0,0,7.947-2.995s-1.649,4.7-7.915,4.594Z" transform="translate(-152.581 -58.793)" fill="#ff9b6c"/><path d="M388.139,119.724c.124.126.844-.453,1.888-.481,1.043-.044,1.825.484,1.934.35.054-.059-.075-.29-.415-.529a2.616,2.616,0,0,0-1.552-.44,2.528,2.528,0,0,0-1.5.545c-.314.262-.416.5-.356.556" transform="translate(-154.945 -47.356)" fill="#263238"/><path d="M388.123,124.828a.845.845,0,0,0,.875.791.808.808,0,0,0,.813-.823.845.845,0,0,0-.874-.791.809.809,0,0,0-.814.824" transform="translate(-154.945 -49.504)" fill="#263238"/><path d="M382.137,127.219a6.371,6.371,0,0,0-1.578-.167c-.246-.008-.482-.039-.535-.2a1.252,1.252,0,0,1,.111-.738q.28-.914.588-1.917a32.172,32.172,0,0,0,1.269-4.995,32.22,32.22,0,0,0-1.669,4.881q-.291,1.008-.556,1.926a1.425,1.425,0,0,0-.057.97.615.615,0,0,0,.429.328,1.646,1.646,0,0,0,.42.028,6.255,6.255,0,0,0,1.578-.113" transform="translate(-151.559 -47.586)" fill="#263238"/><path d="M388.885,112.541c.1.232.937.057,1.938.109,1,.03,1.824.272,1.94.049.051-.106-.1-.32-.445-.526a3.279,3.279,0,0,0-2.955-.12c-.353.178-.523.378-.479.488" transform="translate(-155.246 -44.615)" fill="#263238"/><path d="M372.375,115.126c.109.189.925-.021,1.912-.051.988-.049,1.807.1,1.912-.1.046-.094-.117-.263-.461-.413a3.449,3.449,0,0,0-1.461-.242,3.562,3.562,0,0,0-1.452.358c-.339.177-.5.359-.449.449" transform="translate(-148.655 -45.637)" fill="#263238"/><path d="M356.615,100.43a1.01,1.01,0,0,1,.474-.589,3.1,3.1,0,0,1,1.593-.259,9,9,0,0,0,4.688-1.424,20.929,20.929,0,0,1,2.181-2.643,15.872,15.872,0,0,1,5.052-3.921,14.477,14.477,0,0,1,7.727-.608,5.849,5.849,0,0,1,4.418,4.55,4.5,4.5,0,0,1,4.524-.424l.037-.016c1.65.588,2.587,2.331,3.074,4.013s.694,3.482,1.585,4.99c.186.315.407.693.245,1.021a.7.7,0,0,1-.729.317,2.046,2.046,0,0,1-.768-.348q.277.661.552,1.322a3.9,3.9,0,0,1-1.795-.12,38.3,38.3,0,0,1-1.173,4.436,2.542,2.542,0,0,0-1.746.43c-.578.52-.836,1.5-1.8,1.126-.489-.189-.935-1.214-1.1-1.712a24.328,24.328,0,0,1-1.054-10.3,7.826,7.826,0,0,0-2.415-1.743l.074.067c-1.742-.6-3.712-1.2-5.365-.383-1.282.634-2.035,1.965-2.994,3.027a9.786,9.786,0,0,1-6.975,3.221c-.092,1.756.055,4.236-.037,5.991l-1.476-2.812v.014c-.121-.206-.221-.413-.318-.621l-.033-.063v-.008a10.915,10.915,0,0,0-.494-1l-.017.015a1.1,1.1,0,0,1-1.6-1.467,2.466,2.466,0,0,1,.531-.533,1.734,1.734,0,0,1-1.653.428,1.36,1.36,0,0,1-.962-1.346,1.158,1.158,0,0,1,.69-.929,3.907,3.907,0,0,1-2.223-.49c-.439-.251-.87-.663-.721-1.215" transform="translate(-142.355 -36.21)" fill="#263238"/><path d="M396.868,99.936a5.366,5.366,0,0,1,.625.572,4.468,4.468,0,0,1,.957,2.07,7.855,7.855,0,0,1,.159,1.584c0,.574-.043,1.19-.088,1.837a16.527,16.527,0,0,0-.047,2.044,7.153,7.153,0,0,0,.141,1.079,2.248,2.248,0,0,0,.44,1.047.942.942,0,0,0,.88.3,1.4,1.4,0,0,0,.791-.448,3.226,3.226,0,0,0,.6-1.585l-.13.016a5.237,5.237,0,0,0,.758,1.306,1.863,1.863,0,0,0,1.213.661,1.2,1.2,0,0,0,.643-.113,1.034,1.034,0,0,0,.437-.43,1.067,1.067,0,0,0,.133-.553.775.775,0,0,0-.2-.485l-.065.059a4.018,4.018,0,0,0,1.339,1.005,3.528,3.528,0,0,0,.415.161.646.646,0,0,0,.148.037.771.771,0,0,0-.141-.059c-.093-.038-.231-.094-.4-.181a4.141,4.141,0,0,1-1.293-1.02l-.066.059a.8.8,0,0,1,.041.926.929.929,0,0,1-.395.381,1.085,1.085,0,0,1-.583.095,1.739,1.739,0,0,1-1.126-.628,5.153,5.153,0,0,1-.731-1.278l-.089-.2-.042.216a3.127,3.127,0,0,1-.572,1.515,1.264,1.264,0,0,1-.708.4.8.8,0,0,1-.748-.251,2.125,2.125,0,0,1-.407-.979,7.189,7.189,0,0,1-.139-1.057,16.7,16.7,0,0,1,.038-2.027c.04-.648.082-1.266.074-1.847a7.834,7.834,0,0,0-.179-1.605,4.411,4.411,0,0,0-1.016-2.086,2.529,2.529,0,0,0-.667-.534" transform="translate(-158.436 -39.896)" fill="#455a64"/><path d="M364.762,103.677s.016.016.05.043l.156.114a2.1,2.1,0,0,0,.264.169,3.215,3.215,0,0,0,.38.2,5.527,5.527,0,0,0,2.669.48,7.062,7.062,0,0,0,3.763-1.39,12.234,12.234,0,0,0,3.233-3.726c.454-.755.823-1.529,1.231-2.244a8.249,8.249,0,0,1,1.393-1.9,4.253,4.253,0,0,1,1.8-1.09,3.047,3.047,0,0,1,.947-.109,3.341,3.341,0,0,1,.868.167,3.6,3.6,0,0,1,2,1.7,4.35,4.35,0,0,1,.322.935.225.225,0,0,0-.005-.065c-.008-.052-.017-.114-.029-.191a3.088,3.088,0,0,0-.237-.7,3.549,3.549,0,0,0-.7-.946,3.652,3.652,0,0,0-1.322-.821,3.446,3.446,0,0,0-.9-.181,3.161,3.161,0,0,0-.986.105,4.364,4.364,0,0,0-1.858,1.11,8.323,8.323,0,0,0-1.424,1.924c-.413.72-.782,1.492-1.232,2.24a12.24,12.24,0,0,1-3.187,3.692,7.025,7.025,0,0,1-3.691,1.4,5.614,5.614,0,0,1-2.639-.429,8.839,8.839,0,0,1-.872-.473" transform="translate(-145.619 -37.57)" fill="#455a64"/><path d="M363.818,105.473a.951.951,0,0,0,.224.156,4.857,4.857,0,0,0,.662.336,6.461,6.461,0,0,0,1.048.344,6.779,6.779,0,0,0,2.69.086,6.416,6.416,0,0,0,1.068-.276,4.823,4.823,0,0,0,.682-.293.986.986,0,0,0,.233-.141c-.012-.025-.357.153-.947.336a7.4,7.4,0,0,1-1.057.242,7.3,7.3,0,0,1-2.64-.085,7.366,7.366,0,0,1-1.039-.309c-.578-.222-.91-.421-.924-.4" transform="translate(-145.242 -42.106)" fill="#455a64"/><path d="M372.292,119.724c.124.126.844-.453,1.888-.481,1.042-.044,1.824.484,1.933.35.054-.059-.074-.29-.415-.529a2.616,2.616,0,0,0-1.552-.44,2.524,2.524,0,0,0-1.5.546c-.314.262-.416.5-.356.556" transform="translate(-148.618 -47.356)" fill="#263238"/><path d="M374.075,124.828a.845.845,0,0,0,.875.791.808.808,0,0,0,.813-.823.845.845,0,0,0-.874-.791.808.808,0,0,0-.814.824" transform="translate(-149.337 -49.504)" fill="#263238"/><path d="M404.211,124.318c.1-.054,4.189-1.579,4.364,2.691s-4.148,3.565-4.16,3.443-.2-6.134-.2-6.134" transform="translate(-161.368 -49.507)" fill="#ffc09d"/><path d="M406.609,129.683c.018-.014.076.049.2.1a.744.744,0,0,0,.556-.011,1.842,1.842,0,0,0,.784-1.686,2.463,2.463,0,0,0-.252-1.056.86.86,0,0,0-.583-.548.378.378,0,0,0-.43.222c-.053.122-.022.206-.044.214s-.094-.067-.067-.245a.475.475,0,0,1,.157-.275.564.564,0,0,1,.407-.126,1.045,1.045,0,0,1,.8.63,2.532,2.532,0,0,1,.307,1.179,1.934,1.934,0,0,1-1.01,1.889.8.8,0,0,1-.685-.085c-.136-.1-.163-.195-.148-.2" transform="translate(-162.324 -50.41)" fill="#ff9b6c"/><path d="M386.774,134.023c.035.007.036.251-.112.612a2.58,2.58,0,0,1-.983,1.139,2.381,2.381,0,0,1-1.455.391c-.393-.035-.605-.165-.592-.2.014-.048.241,0,.594-.023a2.734,2.734,0,0,0,1.285-.434,3.069,3.069,0,0,0,.954-.976c.184-.305.26-.523.309-.511" transform="translate(-153.152 -53.504)" fill="#263238"/><path d="M417.276,415.187l1.276,14.44,4.513,11.149a1.466,1.466,0,0,1-1.016,1.948,1.65,1.65,0,0,1-1.423-.243c-2.578-1.876-11.868-8.77-11.972-9.668-.134-1.163-2.5-15.361-2.5-15.361Z" transform="translate(-162.143 -165.75)" fill="#455a64"/><path d="M423.542,453.344l-13.65-11.555.133,1.07c.093.585.1.9.512,1.268a130.537,130.537,0,0,0,11.437,9.219,1.855,1.855,0,0,0,1.567,0" transform="translate(-163.636 -176.37)" fill="#263238"/><path d="M413.487,434.227a.872.872,0,0,1,.392,1.141.948.948,0,0,1-1.2.375.918.918,0,0,1-.409-1.21.992.992,0,0,1,1.294-.26" transform="translate(-164.544 -173.311)" fill="#fff"/><path d="M425.582,449.869c.091.031.352-.758,1.218-1.255a5.051,5.051,0,0,1,1.728-.493c.01-.037-.2-.129-.561-.141a2.581,2.581,0,0,0-1.348.365,2.369,2.369,0,0,0-.931.987c-.145.314-.145.529-.106.537" transform="translate(-169.891 -178.84)" fill="#263238"/><path d="M427.769,453.336a13.051,13.051,0,0,1,1.288-.755,13.438,13.438,0,0,1,1.476-.33,1.847,1.847,0,0,0-1.607.037c-.874.338-1.241,1.018-1.157,1.048" transform="translate(-170.768 -180.487)" fill="#263238"/><path d="M421.745,445.969a15.752,15.752,0,0,1,1.9-1.292,16.514,16.514,0,0,1,2.218-.725,3.692,3.692,0,0,0-2.373.443,3.382,3.382,0,0,0-1.748,1.574" transform="translate(-168.365 -177.211)" fill="#263238"/><path d="M420.452,439.528c.05.082.86-.335,1.958-.482s2,.014,2.022-.078a3.225,3.225,0,0,0-2.072-.237,3.129,3.129,0,0,0-1.907.8" transform="translate(-167.85 -175.13)" fill="#263238"/><path d="M419.639,432.465a5.307,5.307,0,0,1,4.111-.276c.022-.033-.166-.2-.541-.354a3.593,3.593,0,0,0-1.57-.241,3.552,3.552,0,0,0-1.517.448c-.348.206-.509.393-.482.422" transform="translate(-167.526 -172.297)" fill="#263238"/><path d="M421.224,429.01a1.17,1.17,0,0,0-.041-.547,3.686,3.686,0,0,0-.622-1.381,1.758,1.758,0,0,0-.857-.725.658.658,0,0,0-.7.2.927.927,0,0,0-.169.675A2.194,2.194,0,0,0,421,428.971a2.591,2.591,0,0,0,2.386-1.519.8.8,0,0,0-.037-.7.644.644,0,0,0-.683-.243,2.218,2.218,0,0,0-.954.594,4.237,4.237,0,0,0-.92,1.224,1.242,1.242,0,0,0-.18.522,6.787,6.787,0,0,1,1.264-1.582,2.081,2.081,0,0,1,.845-.5.341.341,0,0,1,.373.131.546.546,0,0,1,0,.463,2.316,2.316,0,0,1-2.085,1.294,1.909,1.909,0,0,1-1.859-1.45.668.668,0,0,1,.1-.475.357.357,0,0,1,.383-.118,1.6,1.6,0,0,1,.737.6,5.439,5.439,0,0,1,.858,1.8" transform="translate(-167.205 -170.197)" fill="#263238"/><path d="M355.747,416.344l.569,12.229s-13.032,4.651-13.161,6.92l25.264-.185-.055-19.088Z" transform="translate(-136.993 -166.162)" fill="#455a64"/><path d="M377.235,434.948a.968.968,0,0,1,.723,1.1,1,1,0,0,1-1.155.683,1.02,1.02,0,0,1-.759-1.17,1.048,1.048,0,0,1,1.286-.585" transform="translate(-150.109 -173.623)" fill="#e0e0e0"/><path d="M368.411,446.715l-.085-1.924-24.19.9s-1.121.469-.988,1.212Z" transform="translate(-136.986 -177.568)" fill="#263238"/><path d="M364.378,436.513c0,.116.622.164,1.232.532s.938.854,1.051.807c.114-.023-.076-.716-.823-1.149s-1.488-.3-1.46-.19" transform="translate(-145.465 -174.219)" fill="#263238"/><path d="M359.981,438.3c-.027.112.509.306.932.793.438.476.548,1.005.671,1,.116.017.2-.663-.342-1.259s-1.259-.644-1.26-.534" transform="translate(-143.71 -174.958)" fill="#263238"/><path d="M356.851,441.989c.112.024.279-.557-.043-1.19s-.9-.881-.953-.784c-.068.1.309.434.565.957s.308,1.006.431,1.017" transform="translate(-142.06 -175.653)" fill="#263238"/><path d="M364.707,431.642c.052.105.617-.059,1.315-.019s1.243.242,1.307.142c.071-.084-.463-.509-1.285-.545s-1.4.332-1.336.422" transform="translate(-145.595 -172.149)" fill="#263238"/><path d="M356.8,268.2c.014.708,2.935,98.438,2.935,98.438h15.616l3.164-83.6s3.694,43.712,3.694,44.656,3.259,39.416,3.259,39.416L399.94,366l-.949-88.02-1.769-12.905Z" transform="translate(-142.439 -105.822)" fill="#263238"/><path d="M393.605,282.843a2.989,2.989,0,0,1-.634.25c-.415.142-1.018.339-1.763.576l-.142.045-.01-.138c-.087-1.176-.185-2.748-.276-4.471-.1-1.868-.172-3.56-.209-4.785-.019-.613-.028-1.108-.028-1.452a1.77,1.77,0,0,1,.032-.534,1.79,1.79,0,0,1,.088.529c.037.342.08.836.126,1.447.093,1.223.2,2.913.3,4.781.091,1.724.16,3.3.2,4.475l-.152-.093c.755-.213,1.369-.38,1.8-.49a3.085,3.085,0,0,1,.675-.141" transform="translate(-155.911 -108.721)" fill="#455a64"/><path d="M393.2,272.731c-.01-.013.05-.078.207-.128a1.018,1.018,0,0,1,.69.056.809.809,0,0,1,.523.8,1.009,1.009,0,0,1-.831.865,1.168,1.168,0,0,1-1.151-.49.829.829,0,0,1,.013-.928,1.026,1.026,0,0,1,.516-.406c.153-.051.246-.043.249-.026.023.041-.352.112-.571.523a.659.659,0,0,0,.037.706.9.9,0,0,0,.847.351.766.766,0,0,0,.608-.619.6.6,0,0,0-.344-.608,1.3,1.3,0,0,0-.792-.1" transform="translate(-156.694 -108.772)" fill="#455a64"/><path d="M405.4,273.3c-.085.008-.2-.416-.264-.946s-.041-.967.043-.974.2.416.264.946.041.967-.043.974" transform="translate(-161.723 -108.339)" fill="#455a64"/><path d="M407.3,273.072c-.085,0-.157-.451-.16-1.008s.064-1.009.149-1.009.157.451.16,1.008-.064,1.009-.149,1.009" transform="translate(-162.535 -108.21)" fill="#455a64"/><path d="M375.838,274.008c-.085.008-.217-.5-.3-1.134s-.073-1.157.013-1.164.217.5.3,1.134.072,1.156-.013,1.164" transform="translate(-149.901 -108.471)" fill="#455a64"/><path d="M378,274.095a1.709,1.709,0,0,1-.382-1.189,1.682,1.682,0,0,1,.272-1.212c.087.019,0,.55.037,1.2s.157,1.176.073,1.2" transform="translate(-150.75 -108.464)" fill="#455a64"/><path d="M365.451,273.518a1.313,1.313,0,0,1-.052.431,8.036,8.036,0,0,1-.314,1.146,11.888,11.888,0,0,1-1.934,3.483,13.226,13.226,0,0,1-3.05,2.774,9.982,9.982,0,0,1-1.109.64,1.766,1.766,0,0,1-.438.185c-.025-.038.566-.351,1.427-.965a14.935,14.935,0,0,0,2.943-2.779,13.594,13.594,0,0,0,1.974-3.394c.367-.928.5-1.53.553-1.521" transform="translate(-143.14 -109.193)" fill="#455a64"/><path d="M420.3,280.57a1.605,1.605,0,0,1-.473.07,7.835,7.835,0,0,1-1.307-.023,8.924,8.924,0,0,1-4-1.391,7.607,7.607,0,0,1-2.666-3.006,5.843,5.843,0,0,1-.409-1.11,1.161,1.161,0,0,1-.065-.425c.049-.011.183.588.652,1.461a8.1,8.1,0,0,0,2.652,2.88,9.4,9.4,0,0,0,3.86,1.417c1.072.144,1.753.081,1.755.127" transform="translate(-164.228 -109.659)" fill="#455a64"/><path d="M376.254,365.033c-.02.066-2.608-.493-5.78-1.25s-5.729-1.423-5.709-1.489,2.607.493,5.781,1.25,5.729,1.423,5.709,1.489" transform="translate(-145.62 -144.632)" fill="#455a64"/><path d="M418.994,360.935c.037.06-2.215,1.236-5.03,2.627s-5.128,2.47-5.165,2.41,2.214-1.236,5.03-2.627,5.128-2.47,5.165-2.41" transform="translate(-163.199 -144.09)" fill="#455a64"/><path d="M338.89,213.35l2.135,2.669v-4.593h6.726s.747,10.518.587,12.76a18.17,18.17,0,0,1-.823,3.431,3.948,3.948,0,0,1-6.52,1.632,22.706,22.706,0,0,1-2.106-2.341c-2.99-3.844-7.956-13.206-7.956-13.206l5.18-3.129Z" transform="translate(-132.114 -84.065)" fill="#ffc09d"/><path d="M343.467,214.372a7.618,7.618,0,0,0,.879,1.173c.567.7,1.353,1.673,2.252,2.721s1.747,1.971,2.406,2.6a4.837,4.837,0,0,0,1.143.926,11.2,11.2,0,0,0-.983-1.083c-.612-.66-1.428-1.6-2.326-2.646a33.06,33.06,0,0,0-3.37-3.688" transform="translate(-137.117 -85.58)" fill="#ff9b6c"/><path d="M369.717,159.057l7.093-2.782,13.066-.74,6.141,2.335-8.416,4.673-7.256-.267Z" transform="translate(-147.597 -62.092)" fill="#ffc09d"/><path d="M350.909,225.807c.642.111,43.454,1.929,43.454,1.929l-1.5-38.5-.123-7.558-2.432-22.9s-6.4-2.2-9.664-3.251c0,0-3.436,3.582-9.971,3.485-6.388-.095-7.722-1.535-7.722-1.535l-8.931,3.424s-6.35,2.277-7.443,5.087c-1.063,2.735-3.012,18.355-3.012,18.355h9.257l-.175,27.594Z" transform="translate(-137.155 -62.092)" fill="#a3314f"/><g transform="translate(240.671 111.856)" opacity="0.2"><g clip-path="url(#m)"><path d="M400.6,186.665l1.328,9.7,6.422,2.868,4.747-4.046v-9.009Z" transform="translate(-400.596 -186.183)"/></g></g><path d="M413.194,191.471c0,.081-2.669.146-5.96.146s-5.962-.065-5.962-.146,2.669-.146,5.962-.146,5.96.065,5.96.146" transform="translate(-160.194 -76.38)" fill="#263238"/><path d="M350.988,179.622a1.229,1.229,0,0,1,.068.255l.171.744a24.57,24.57,0,0,0,.853,2.731c.427,1.15,1.029,2.5,1.766,4.014.7,1.544,1.328,3.321,1.986,5.246l.007.02v.022c-.015,2.306-.032,4.83-.05,7.467-.062,5.886-.118,11.214-.159,15.1-.034,1.911-.061,3.467-.081,4.576q-.022.78-.035,1.244a2.514,2.514,0,0,1-.032.433,2.619,2.619,0,0,1-.025-.435q-.005-.465-.016-1.245c0-1.11,0-2.666-.008-4.578.02-3.889.047-9.216.078-15.1.024-2.636.046-5.16.067-7.465l.007.041c-.646-1.921-1.266-3.7-1.939-5.236a43.056,43.056,0,0,1-1.716-4.051,20.883,20.883,0,0,1-.785-2.767c-.064-.329-.109-.582-.131-.755a1.249,1.249,0,0,1-.025-.263" transform="translate(-140.119 -71.708)" fill="#263238"/><path d="M425.905,172.126a4.929,4.929,0,0,1-.008.822c-.022.578-.05,1.33-.083,2.234-.076,1.936-.178,4.519-.291,7.373-.129,2.856-.246,5.438-.333,7.373-.052.9-.1,1.656-.129,2.234a4.694,4.694,0,0,1-.085.818,4.661,4.661,0,0,1-.023-.822c.01-.579.024-1.331.04-2.237.047-1.889.133-4.5.252-7.378s.251-5.486.372-7.372c.061-.943.121-1.705.172-2.231a4.48,4.48,0,0,1,.116-.815" transform="translate(-169.648 -68.716)" fill="#263238"/><g transform="translate(210.874 109.313)" opacity="0.3"><g clip-path="url(#n)"><path d="M351.017,181.95a16.088,16.088,0,0,0,4.2,11.468c-.871-3.971-3.046-7.668-4.2-11.468" transform="translate(-350.999 -181.95)"/></g></g><g transform="translate(229.696 131.712)" opacity="0.3"><g clip-path="url(#o)"><path d="M382.328,234.943a8.013,8.013,0,0,0,5.138-2.859,24.31,24.31,0,0,0,3.451-5,19.7,19.7,0,0,0,2.023-7.856,37.042,37.042,0,0,1-10.612,15.711" transform="translate(-382.328 -219.233)"/></g></g><path d="M392.478,214.379a.824.824,0,0,1-.035.246c-.042.191-.093.42-.154.7-.065.3-.158.669-.288,1.089s-.258.9-.449,1.423a33.125,33.125,0,0,1-1.477,3.6,38.008,38.008,0,0,1-2.356,4.138,37.139,37.139,0,0,1-2.9,3.775,31.07,31.07,0,0,1-2.759,2.738c-.407.375-.806.679-1.15.953s-.646.5-.9.674l-.588.4a.848.848,0,0,1-.216.124c-.005-.008.058-.067.184-.17l.556-.442c.246-.185.541-.419.87-.708s.72-.6,1.117-.978a34.518,34.518,0,0,0,2.7-2.761,39.987,39.987,0,0,0,2.865-3.76,40.911,40.911,0,0,0,2.357-4.1,36.923,36.923,0,0,0,1.522-3.549c.2-.512.349-.988.487-1.4s.251-.774.332-1.072l.2-.68a.848.848,0,0,1,.09-.233" transform="translate(-151.382 -85.584)" fill="#263238"/><path d="M386.054,194.326a2.066,2.066,0,0,1-.05.393l-.2,1.117c-.083.487-.2,1.079-.371,1.758s-.332,1.462-.6,2.3l-.392,1.328c-.139.461-.318.93-.484,1.421-.322.988-.753,2.009-1.19,3.091a51.4,51.4,0,0,1-7.9,12.908c-.765.881-1.479,1.731-2.211,2.467-.362.372-.7.744-1.045,1.078l-1,.953c-.628.62-1.25,1.121-1.779,1.581s-1,.835-1.4,1.13l-.905.684a2.16,2.16,0,0,1-.327.223,2.161,2.161,0,0,1,.293-.268l.872-.724c.384-.307.848-.69,1.362-1.163s1.128-.979,1.745-1.605l.988-.962c.342-.336.673-.711,1.029-1.084.722-.74,1.426-1.591,2.182-2.472a53.268,53.268,0,0,0,7.862-12.846c.44-1.074.878-2.088,1.208-3.067.171-.488.354-.952.5-1.409l.407-1.318c.278-.835.453-1.611.636-2.285s.317-1.26.416-1.742l.248-1.106a2.087,2.087,0,0,1,.105-.383" transform="translate(-146.194 -77.578)" fill="#263238"/><path d="M328.324,172.782c2.639,4.011,13.324,20.258,16.483,25.062a.742.742,0,0,1-.716,1.143L325.11,196.6a.743.743,0,0,1-.506-.3l-18.13-24.763a.743.743,0,0,1,.654-1.18l19.53,1.445a2.184,2.184,0,0,1,1.667.978" transform="translate(-122.291 -68.009)" fill="#e0e0e0"/><path d="M328.239,172.7a1.283,1.283,0,0,0-.151-.228,2.126,2.126,0,0,0-.614-.517,2.667,2.667,0,0,0-1.265-.307l-1.766-.145-11.259-.883-3.731-.287-1.984-.151c-.175-.01-.323-.032-.524-.032a.845.845,0,0,0-.546.227.872.872,0,0,0-.144,1.115l5.278,7.238,12.106,16.555c.276.372.521.722.819,1.108a.9.9,0,0,0,.337.228,1.48,1.48,0,0,0,.368.073l.67.084,2.655.333,5.193.651,9.816,1.226c.2.022.372.054.6.067a.869.869,0,0,0,.629-.262.9.9,0,0,0,.26-.624,1.048,1.048,0,0,0-.228-.609l-1.252-1.9-2.394-3.626-4.3-6.505-6.247-9.408-1.712-2.549-.452-.658a1.7,1.7,0,0,0-.163-.219,1.692,1.692,0,0,0,.136.236l.426.676,1.662,2.582,6.163,9.463,4.27,6.526,2.381,3.635,1.245,1.9a.746.746,0,0,1,.18.451.612.612,0,0,1-.178.422.581.581,0,0,1-.422.175c-.161-.009-.38-.045-.568-.067l-9.814-1.244-5.192-.655-2.655-.335-.67-.085a1.25,1.25,0,0,1-.294-.054.594.594,0,0,1-.219-.148l-.8-1.08-12.127-16.541-5.292-7.209a.61.61,0,0,1,.1-.783.585.585,0,0,1,.382-.16c.141,0,.332.02.493.029l1.986.142,3.733.266,11.266.783,1.769.117a2.64,2.64,0,0,1,1.241.269,2.517,2.517,0,0,1,.8.689" transform="translate(-122.206 -67.926)" fill="#263238"/><path d="M306.569,172.321a2.206,2.206,0,0,0,.4.059l1.152.116,4.29.381L327,174.068,326.88,174c.913,1.357,1.855,2.765,2.8,4.22,3.849,5.917,7.212,11.357,9.751,15.226,1.263,1.94,2.312,3.491,3.043,4.559l.857,1.22a3.171,3.171,0,0,0,.317.413,3.236,3.236,0,0,0-.264-.448l-.807-1.253-2.958-4.612c-2.49-3.9-5.822-9.354-9.674-15.277-.946-1.456-1.891-2.866-2.809-4.222l-.042-.062-.074-.005-14.6-1.083-4.3-.288-1.156-.064a2.154,2.154,0,0,0-.4,0" transform="translate(-122.387 -68.791)" fill="#263238"/><path d="M326.153,178.217h0l-.008,0Z" transform="translate(-130.203 -71.146)" fill="#fff"/><path d="M325.37,178.5a.383.383,0,0,1,.469-.283,1.014,1.014,0,0,1,.509.286.508.508,0,0,1,.093.651c-.189.234-.579.148-.807-.049a.664.664,0,0,1-.264-.6" transform="translate(-129.889 -71.142)" fill="#fff"/><path d="M332.691,200.662s.749-1.786-1.152-2.016a65.741,65.741,0,0,0-6.892,0s-2.729.288-2.153,2.247c0,0-1.613,1.44-.749,3s1.21,1.095,1.21,1.095-.23,1.9,1.21,2.189c0,0,1.561,1.843,3,1.728s7.544-3.054,7.947-3.63.98-.9.634-1.546c0,0,.749-1.686-.864-1.942,0,0-.115-1.408-2.189-1.12" transform="translate(-128.344 -79.262)" fill="#ffc09d"/><path d="M325.716,202.626a5.211,5.211,0,0,0,1.284.092c.793.017,1.888.018,3.1,0a18.376,18.376,0,0,0,3.111-.185c.82-.19,1.142-.671,1.1-.681a3.267,3.267,0,0,1-1.149.463c-.755.126-1.862.049-3.069.088-1.209.018-2.3.053-3.1.093a5.22,5.22,0,0,0-1.281.132" transform="translate(-130.031 -80.581)" fill="#ff9b6c"/><path d="M327.982,205.994a.958.958,0,0,0,.413.142,4.412,4.412,0,0,0,1.188.074,8.4,8.4,0,0,0,1.733-.314c.637-.176,1.316-.421,2.032-.641a9.078,9.078,0,0,1,2.044-.422,3.142,3.142,0,0,0,1.742-.352,1,1,0,0,0,.416-.593.823.823,0,0,0-.072-.54c-.15-.275-.354-.291-.349-.275-.016.025.147.082.237.325a.744.744,0,0,1-.357.9,3.122,3.122,0,0,1-1.632.246,8.5,8.5,0,0,0-2.121.41l-2.021.663a9.619,9.619,0,0,1-1.671.371,10.875,10.875,0,0,1-1.581.007" transform="translate(-130.936 -81.069)" fill="#ff9b6c"/><path d="M331.38,210.152a5.124,5.124,0,0,0,1.283-.248c.78-.2,1.85-.5,3.018-.884s2.211-.769,2.957-1.072a5.166,5.166,0,0,0,1.181-.558c-.032-.084-1.909.569-4.237,1.329s-4.226,1.346-4.2,1.433" transform="translate(-132.292 -82.79)" fill="#ff9b6c"/><path d="M330.565,213.968a2.8,2.8,0,0,0,1.064-.123,12.741,12.741,0,0,0,2.433-.856c.916-.416,1.714-.842,2.293-1.149a3.852,3.852,0,0,0,.912-.551,19.99,19.99,0,0,0-3.335,1.412c-1.8.862-3.378,1.185-3.366,1.267" transform="translate(-131.967 -84.347)" fill="#ff9b6c"/><path d="M411.371,180s-3.881,15.549-8.731,21.289c-4.7,5.558-12.056,3-14.605-4.188s-7.09-23.617-7.09-23.617l5.577-4.264,9.635,18.674,4.342-12.73Z" transform="translate(-152.08 -67.553)" fill="#ffc09d"/><path d="M376.534,164.658l-4.09-5.927a10.676,10.676,0,0,1-1.742-.54c-.464-.272-.92-2.626-.91-3.085s-.793-1.534-.468-1.837,1.421-.325,1.363-.767c-.013-.094-.813-1.077-.178-1.8a3.388,3.388,0,0,1,1.153-.49l-.066-2.262s1.222-2.67,2.47-1.7c0,0,4.707,3.616,5.181,4.193s2.285,8.108,2.607,9.52" transform="translate(-147.409 -58.301)" fill="#ffc09d"/><path d="M381.761,159.873a2.1,2.1,0,0,0-.063-.4c-.061-.286-.141-.662-.242-1.132-.22-.982-.549-2.4-1-4.15-.225-.874-.474-1.831-.788-2.851-.083-.254-.163-.513-.272-.775a1.741,1.741,0,0,0-.555-.682c-.428-.377-.88-.747-1.345-1.125-.931-.754-1.92-1.532-2.951-2.333a3.442,3.442,0,0,0-.862-.568,1.182,1.182,0,0,0-1.062.252,4.847,4.847,0,0,0-1.254,1.694l-.014.028v.036c.006.219.013.455.02.692.016.529.031,1.054.046,1.57l.11-.145a5.514,5.514,0,0,0-.829.279,1.207,1.207,0,0,0-.4.262,1.132,1.132,0,0,0-.228.418,1.4,1.4,0,0,0,.071.9,2.66,2.66,0,0,0,.185.389l.1.178.021.037c-.005-.007,0-.023,0-.008a.063.063,0,0,1-.007.038c-.012.051-.122.121-.232.165s-.239.085-.365.124-.256.076-.387.128a.76.76,0,0,0-.392.275.647.647,0,0,0-.01.482,2.972,2.972,0,0,0,.138.38c.1.24.216.466.3.69a.96.96,0,0,1,.072.317,3.168,3.168,0,0,0,.037.386c.035.248.081.488.13.725a9.617,9.617,0,0,0,.384,1.367,1.734,1.734,0,0,0,.359.63,2.1,2.1,0,0,0,.638.28c.415.129.818.23,1.211.321l-.065-.044,3.029,4.3.84,1.166a3.045,3.045,0,0,0,.311.395,3,3,0,0,0-.259-.431l-.791-1.2-2.949-4.359-.023-.034-.043-.011c-.386-.094-.787-.2-1.189-.33a2.063,2.063,0,0,1-.551-.239,1.6,1.6,0,0,1-.287-.537,9.45,9.45,0,0,1-.362-1.332c-.046-.232-.09-.469-.123-.707a3.2,3.2,0,0,1-.032-.35,1.219,1.219,0,0,0-.085-.409c-.091-.246-.2-.474-.3-.705a2.7,2.7,0,0,1-.124-.344.42.42,0,0,1-.013-.278.612.612,0,0,1,.252-.15c.114-.044.24-.081.366-.119s.258-.076.392-.132a.658.658,0,0,0,.386-.318.342.342,0,0,0,.027-.159.222.222,0,0,0-.026-.106l-.028-.051-.1-.174a2.449,2.449,0,0,1-.166-.35,1.119,1.119,0,0,1-.062-.719.843.843,0,0,1,.169-.31.99.99,0,0,1,.3-.188,5.2,5.2,0,0,1,.781-.261l.113-.03,0-.115c-.014-.516-.03-1.041-.045-1.57-.007-.237-.014-.473-.02-.692l-.013.064a4.614,4.614,0,0,1,1.163-1.584.9.9,0,0,1,.806-.21,3.4,3.4,0,0,1,.771.519c1.033.8,2.025,1.569,2.958,2.316.467.373.92.74,1.345,1.108a1.509,1.509,0,0,1,.5.59c.1.245.187.5.271.751.321,1.008.581,1.962.818,2.83.452,1.721.82,3.121,1.083,4.124l.294,1.119a2.18,2.18,0,0,0,.119.386" transform="translate(-147.318 -58.211)" fill="#ff9b6c"/><path d="M373.265,152.908c0,.05.478.012,1.22.084a8.75,8.75,0,0,1,1.287.294,5.926,5.926,0,0,0,1.665.014,3.142,3.142,0,0,1,2.622.851,3.379,3.379,0,0,1,.633,1.006,1.553,1.553,0,0,0-.482-1.146,3.051,3.051,0,0,0-1.126-.791,3.427,3.427,0,0,0-1.666-.209,6.387,6.387,0,0,1-1.592.013,7.056,7.056,0,0,0-1.324-.237,3.237,3.237,0,0,0-1.236.121" transform="translate(-149.014 -60.994)" fill="#ff9b6c"/><path d="M375.969,151.965c.07.035.259-.24.234-.63s-.244-.642-.308-.6,0,.3.019.615-.022.582.055.613" transform="translate(-150.051 -60.175)" fill="#ff9b6c"/><path d="M371.4,156.448a10.278,10.278,0,0,0,3.545-.278,3.513,3.513,0,0,1,1.3-.165,1.415,1.415,0,0,1,.844.557,8.4,8.4,0,0,1,.466.9,1.583,1.583,0,0,0-.3-1.017,1.562,1.562,0,0,0-.959-.7,3.411,3.411,0,0,0-1.418.144c-1.9.415-3.486.475-3.484.561" transform="translate(-148.269 -62.161)" fill="#ff9b6c"/><path d="M370.359,159.98a1.905,1.905,0,0,0,.872,0c.535-.059,1.254-.244,2.038-.4a4.61,4.61,0,0,1,1.1-.11,1.32,1.32,0,0,1,.79.286,1.259,1.259,0,0,1,.385.691c.016,0,.057-.079.049-.24a.99.99,0,0,0-.294-.6,1.444,1.444,0,0,0-.907-.4,4.176,4.176,0,0,0-1.173.091c-.807.159-1.505.372-2.02.481a4.2,4.2,0,0,0-.836.2" transform="translate(-147.853 -63.554)" fill="#ff9b6c"/><path d="M372.69,163.318c-.049.037.35.455,1.084.454l-.145-.125c.014.129.029.252.043.378a4.119,4.119,0,0,0,.336,1.494,4.137,4.137,0,0,0-.047-1.528c-.017-.126-.035-.247-.052-.375l-.019-.133-.127.007a4.943,4.943,0,0,1-1.073-.172" transform="translate(-148.783 -65.195)" fill="#ff9b6c"/><path d="M415.3,160.947s7.95,1.926,7.933,12.467c-.017,10.5-2.4,15.749-2.4,15.749l-14.654-7.975,3.27-8.209Z" transform="translate(-162.154 -64.253)" fill="#a3314f"/><path d="M420.707,190.632a1.407,1.407,0,0,1-.305-.133l-.85-.432-3.123-1.646-10.449-5.629-.119-.064.047-.125c.252-.657.517-1.351.786-2.055.937-2.433,1.828-4.749,2.641-6.861.409-1.051.8-2.052,1.161-2.991a18.115,18.115,0,0,1,1.159-2.559,7.94,7.94,0,0,1,2.645-3.06,3.213,3.213,0,0,1,1.03-.413,1.954,1.954,0,0,1,.287-.037c.065,0,.1,0,.1,0a3.908,3.908,0,0,0-1.352.549,8.1,8.1,0,0,0-2.516,3.063,18.435,18.435,0,0,0-1.111,2.543c-.356.942-.736,1.945-1.134,3l-2.619,6.869c-.269.7-.536,1.4-.788,2.053l-.07-.188,10.4,5.718,3.078,1.728.824.479a1.5,1.5,0,0,1,.278.184" transform="translate(-162.027 -65.722)" fill="#263238"/></g></g></g></g></svg>