<svg xmlns="http://www.w3.org/2000/svg" xmlns:xlink="http://www.w3.org/1999/xlink" width="74.657" height="76.205" viewBox="0 0 74.657 76.205"><defs><clipPath id="a"><rect width="74.657" height="76.205" fill="none"/></clipPath></defs><g transform="translate(0 0)"><g transform="translate(0 0)" clip-path="url(#a)"><path d="M.589,70.838c-.252-.038-.3.219-.507.335.257.7.3,1.5.938,2.033a1.668,1.668,0,0,0,.815-.158,41.015,41.015,0,0,1,4.7-1.926c.86-.308,1.653-.8,2.5-1.142,3.094-1.265,6.213-2.468,9.236-3.9,1.064-.029,1.844-.8,2.827-1.08.917-.258,1.751-.8,2.654-1.12,2.46-.877,4.819-2,7.26-2.936A46.339,46.339,0,0,0,35.8,58.888c.382-.2.793-.4,1.066-.235.7.412,1.418.188,2.123.273a9.083,9.083,0,0,0,2.94.258,2.149,2.149,0,0,1,.955,1.409c.48,1.625,1.136,3.2,1.7,4.8a2.546,2.546,0,0,1,.01.774c-1.193,1.449-2.816,2.539-3.77,4.091-.5,2.258.593,4.019,1.359,5.945l20.635-8.1a2.816,2.816,0,0,1-.885-1.866,5.868,5.868,0,0,0-1.15-2.209A2.942,2.942,0,0,0,58.343,62.8c-1.478-.033-2.958-.008-4.409-.008-.858-1.691-1.287-3.5-2.229-5.065a1.323,1.323,0,0,1,.758-.624c1.29-.6,2.5-1.381,3.8-1.952a4.629,4.629,0,0,0,2.691-2.72c.031-.085.136-.143.1-.111.491-1.617-.324-2.9-.828-4.184-.857-2.176-1.593-4.4-2.516-6.549-.56-1.3-.9-2.7-1.393-4.038-.6-1.635-1.228-3.262-1.905-4.868-.13-.307-.11-.619-.256-.936-.58-1.26-1.136-2.478-2.628-2.9H46.988c-.061.081-.171.394-.362.454-1.66.535-3.176,1.439-4.954,2.031.084-.785-.589-1.3-.249-2.16a25.616,25.616,0,0,0,3.822-4.5A9.773,9.773,0,0,0,47.011,20.8a6.351,6.351,0,0,1,.634-2.25,12.7,12.7,0,0,1,1.405-1.819c.866-.948,1.525-2.077,2.434-3a7.059,7.059,0,0,0,1.138-2.949c0-.148,0-.3,0-.447V8.1A7.034,7.034,0,0,0,47.54,3.334a4.767,4.767,0,0,0-2.806.179c-.079-.413-.344-.737-.465-1.151a3.575,3.575,0,0,0-4.54-2.2c-1.381.382-2.667.989-4.027,1.417-3.018.949-5.979,2.08-8.938,3.186a83.392,83.392,0,0,0-8.478,3.213C16.654,8.151,15.3,9.192,13.7,9.456a2.072,2.072,0,0,0-.742.353,7.914,7.914,0,0,0-1.315,1.275A4.069,4.069,0,0,1,11,12.316a6.65,6.65,0,0,0,.964,3.521,10.246,10.246,0,0,0-2.27,1.938A5.874,5.874,0,0,0,8,21.7a7.153,7.153,0,0,0,1.214,4.416,6.8,6.8,0,0,0,3.814,2.729,23.7,23.7,0,0,0,2.692.34,4.836,4.836,0,0,0,1.818.223c.665-.1,1.186.352,1.812.323.244-.012.488,0,.64,0a14.359,14.359,0,0,0,3.859,2.057,10.31,10.31,0,0,0,4.818.9c.579-.058.936.464,1.518.341A6.9,6.9,0,0,1,31.613,33c.755.469.645,1.35,1.074,1.964-1.122.309-1.438,1.331-1.735,2.222a14.3,14.3,0,0,0-.6,3.319c-.035.431-.535.6-.306,1.035-2.141.9-4.206,1.774-6.277,2.635a35.016,35.016,0,0,1-3.319,1.314,33.951,33.951,0,0,0-3.336,1.28c-1.391.586-2.791,1.155-4.187,1.735C11.2,49.229,9.474,49.97,7.7,50.594c-.774.273-1.487.694-2.264.994-1.493.576-2.963,1.22-4.466,1.779-.312.118-.785.165-.97.714a10.705,10.705,0,0,1,.589,1.863c.678.852,1.383.194,1.994-.045,4.476-1.74,8.924-3.553,13.388-5.325a2.473,2.473,0,0,1,1.947-.3c1.281,3.614,2.5,7.4,3.746,11.2a15.625,15.625,0,0,1-3.334,1.575c-5.189,2.093-10.316,4.334-15.5,6.427-.8.324-1.735.508-2.236,1.362" transform="translate(0 0)" fill="#040506"/><path d="M.568,69.075c2-.773,3.937-1.719,5.979-2.408.812-.275,1.578-.718,2.376-1.066q3.142-1.37,6.317-2.662c1.9-.772,3.771-1.651,5.735-2.284a10.654,10.654,0,0,0,1.226-.6c-1.387-4.157-2.773-8.311-4.173-12.506-5.665,2.26-11.225,4.48-16.784,6.7-.085.033-.142.136-.209.2C.854,54.4.81,54.129.568,54.179Z" transform="translate(0.021 1.764)" fill="#393a45"/><path d="M57.66,36.365v2.651c2.96.137,4.821,1.709,5.915,4.646a14.543,14.543,0,0,0,.086,2.49c.03.123.2.213.32.334h2.24c.081-1.215-.218-2.484.341-3.58a6.442,6.442,0,0,1,2.274-2.791,7.078,7.078,0,0,1,3.276-1.1c.735-.644.209-1.48.387-2.162l-.42-.421H70.743c-1.514-.782-2.829-1.426-3.654-2.855a7.458,7.458,0,0,1-.834-4.29H63.566c0,.593,0,1.223,0,1.852A4.089,4.089,0,0,1,62.228,34.3a3.015,3.015,0,0,0-.314.316,4.591,4.591,0,0,1-4.254,1.746" transform="translate(2.138 1.086)" fill="#050606"/><path d="M15.09,39.037V36.429c-3.092.048-4.731-1.817-5.931-4.59V29.272H6.511c0,.423.006.855,0,1.287A5.539,5.539,0,0,1,3.73,35.5a4.111,4.111,0,0,1-3.1.91v2.606a7,7,0,0,1,3.278,1.09,6.477,6.477,0,0,1,2.282,2.781c.569,1.09.264,2.362.342,3.588H8.782l.431-.431a5.992,5.992,0,0,1,5.877-7.008" transform="translate(0.023 1.086)" fill="#050606"/><path d="M67.569,15.2V12.948c-.114-.115-.254-.255-.418-.418-1.717.253-2.976-.72-4.118-1.788a6.1,6.1,0,0,1-1.39-2.686,8.063,8.063,0,0,1-.271-2.605h-2.32c-.116,3.124-.967,5.905-4.367,7.089h-1.5l-.4.448v2.155c3.105.257,6.272,2.053,6.3,7.5h2.3a6.791,6.791,0,0,1,1.452-5.171A6.2,6.2,0,0,1,67.569,15.2" transform="translate(1.957 0.203)" fill="#050506"/><path d="M13.543,12.165c-.119.278-.246.572-.413.963.6,1.469,1.29,2.972,1.81,4.534.29.872.682,1.7.972,2.578a16.3,16.3,0,0,0,2.407,4.784,11,11,0,0,0,3.806,3.295,12.586,12.586,0,0,1,1.94,1.038c.537.4,1.169.278,1.737.472a4.521,4.521,0,0,0,2.509.393c.756-.183,1.373.371,2.107.317.689-.051,1.386.006,2.077-.019.319-.011.4.494.752.316.64.865.678,2.017,1.4,2.913a35.624,35.624,0,0,0,4.108-1.8c.039-1.088-.647-1.929-1.028-2.948a24.283,24.283,0,0,0,2.642-2.933,15.811,15.811,0,0,0,4.173-7.183,9.708,9.708,0,0,0,.417-4.121,21.412,21.412,0,0,0-.576-3.026c-.341-.953-.644-1.914-.954-2.876C42.892,7.2,42.262,5.571,41.749,3.9a2.943,2.943,0,0,0-.72-1.335,2.882,2.882,0,0,0-2.191.366c-1.928.861-3.953,1.45-5.911,2.221A18.757,18.757,0,0,1,29.933,6.2c-.97.2-1.849.8-2.813,1.072a20.362,20.362,0,0,0-3.011.979c-1.219.558-2.513.86-3.73,1.4-1.167.52-2.48.715-3.638,1.251-1.008.466-2.077.721-3.2,1.265" transform="translate(0.487 0.092)" fill="#f59111"/><path d="M55.271,50.837c-.063-.313.283-.457.345-.731-.148-.581-.734-1-.6-1.7a1.739,1.739,0,0,0-1.464.142c-1.416.531-2.878.934-4.432,1.423-.587-.482-.4-1.469-.949-2.212,1.773-.971,3.833-1.167,5.707-1.98L52.5,41.991c-2.039.292-3.939,1.275-5.965,1.809-.244-.74-.488-1.482-.754-2.29,1.9-.552,3.658-1.491,5.682-1.958C51.377,38.2,50.5,37.1,50.2,35.714a46.847,46.847,0,0,0-6.024,1.847c-.1-.357-.5-.619-.443-1.072.05-.411-.558-.614-.3-1.071a.91.91,0,0,1,.606-.545c1.665-.371,3.2-1.176,4.877-1.5.155-.03.268-.278.409-.436a8.247,8.247,0,0,1-.576-1.328c-.2-.724-.326-1.612-1.594-1.754-1.262.548-2.758,1.244-4.288,1.85-2.382.944-4.705,2.03-7.078,3a16.691,16.691,0,0,0-3.359,1.563,6.176,6.176,0,0,0-.534,2.416c-.077.572-.333,1.075-.384,1.652a9.212,9.212,0,0,0,.73,3.728c.933,2.835,1.933,5.648,2.845,8.49a7.474,7.474,0,0,1,.634,2.128c0,.139.267.273.468.463,1.291-.217,2.582.512,3.95.29.8.508,1.793.017,2.524.354.845.39,1.629.069,2.272.233l10.342-5.181" transform="translate(1.168 1.107)" fill="#ebc0b2"/><path d="M23.942,59.249l9.9-4.165c-1.362-4.106-2.722-8.205-4.122-12.426-1.646.625-3.3,1.244-4.9,2.013,1.068,3.184,2.16,6.311,3.116,9.5a8.333,8.333,0,0,1-2.359.82c-.991-3.076-2.08-6.1-2.91-9.274-1.057.015-1.845.8-2.916.955,1.415,4.211,2.766,8.38,4.195,12.577" transform="translate(0.732 1.582)" fill="#53596d"/><path d="M41.615,68.906A2.2,2.2,0,0,0,42,70.6L57.59,64.349a2.469,2.469,0,0,0-1.122-1.5c-.979,0-2.074.067-3.157-.017a9.517,9.517,0,0,0-4.008.751c-.733.264-1.477.5-2.214.756a5.153,5.153,0,0,0-2.166,1.241c-1.063,1.11-2.165,2.182-3.307,3.326" transform="translate(1.541 2.329)" fill="#e46b0d"/><path d="M12.562,17.966c-1.387.259-1.671,1.413-2.246,2.392,0,.544.037,1.187-.007,1.825a4.087,4.087,0,0,0,2.491,3.49,7.254,7.254,0,0,0,2.8.416,7.94,7.94,0,0,1,1.011-.006c-1.948-2.452-2.813-5.309-4.048-8.116" transform="translate(0.382 0.667)" fill="#f6f8f9"/><path d="M45.813,5.713H43.888C44.341,6.748,44.579,7.8,45,8.8c.411.968.531,2.047.918,3.042.117.3-.025.694.031,1.033.051.311.449.472.217,1.153A14.744,14.744,0,0,0,48.6,10.477c.036-2.574-.456-3.444-2.789-4.764" transform="translate(1.627 0.212)" fill="#f6f8f9"/><path d="M47.548,56.527c-.708-.1-1.233.4-1.785.68a4.107,4.107,0,0,1-1.927.549c.215,1.568,1,2.906,1.311,4.455,1.556-.094,2.884-.912,4.336-1.252.149-1.006-.571-1.609-.886-2.356-.3-.709-.323-1.576-1.05-2.076" transform="translate(1.625 2.096)" fill="#f49011"/><path d="M67.7,37.556a7.756,7.756,0,0,1-2.9-2.841,10.686,10.686,0,0,1-2.869,2.846c.943.851,2.2,1.448,2.72,2.881a16.2,16.2,0,0,1,3.05-2.886" transform="translate(2.296 1.288)" fill="#f5b251"/><path d="M4.8,37.466a7.33,7.33,0,0,0,1.625,1.347c.615.318.569,1.24,1.323,1.478.576-.27.714-1,1.171-1.488s1.2-.632,1.536-1.254a8.753,8.753,0,0,1-2.736-2.908A7.6,7.6,0,0,1,4.8,37.466" transform="translate(0.178 1.285)" fill="#f5b151"/><path d="M60.08,10.777a11.315,11.315,0,0,1-2.856,2.981,9.5,9.5,0,0,1,2.724,2.894,10.489,10.489,0,0,1,2.81-2.772c-.68-1.1-2-1.591-2.679-3.1" transform="translate(2.122 0.4)" fill="#f4b150"/><path d="M35.308,21.523l1.759,1.762A6.757,6.757,0,0,0,39.4,19.935a5.763,5.763,0,0,0,.623-3.017c-.075-.447.362-.728.329-1.219-.045-.673-.524-1.265-.327-1.957s-.251-1.3-.328-1.958a8.941,8.941,0,0,0-.57-1.839,9.509,9.509,0,0,0-.681-1.8,8.942,8.942,0,0,0-1.272-2.213,13.552,13.552,0,0,0-2.2,1.286,13.208,13.208,0,0,1,2.064,4.467,10.432,10.432,0,0,1,.564,5.1c-.321,1.779-.683,3.645-2.3,4.736" transform="translate(1.297 0.22)" fill="#070606"/></g></g></svg>