<svg xmlns="http://www.w3.org/2000/svg" xmlns:xlink="http://www.w3.org/1999/xlink" width="77.03" height="77.003" viewBox="0 0 77.03 77.003"><defs><clipPath id="a"><rect width="77.03" height="77.003" fill="none"/></clipPath></defs><g transform="translate(0 0)"><g transform="translate(0 0)" clip-path="url(#a)"><path d="M45.614,17.376q-.981-2.417-1.893-4.663l4.733-4.729V6.962c-.247-.174-.578-.409-1.083-.768H42.034c-.739-.853-.845-2.019-1.356-2.991-.558-1.063-.623-2.386-1.7-3.2h-.922a4.385,4.385,0,0,0-1.138,1.81A32.313,32.313,0,0,1,35.08,6.167h-5.75c-.177.245-.386.537-.72,1v.773l4.642,4.642a8.2,8.2,0,0,1-.909,2.4,5.176,5.176,0,0,1-1.129,2.4H29.738c-7.089,0-14.179-.033-21.268.017a8.056,8.056,0,0,0-6.924,3.849A8.685,8.685,0,0,0,0,26.035Q0,42.256.01,58.474a8.544,8.544,0,0,0,3.865,7.091,8.308,8.308,0,0,0,4.668,1.477q19.171.052,38.341.013a5.007,5.007,0,0,1,2.4.593c5.93,3.034,11.9,5.983,17.875,8.934a1.817,1.817,0,0,0,1.76.29l.737-.884c-.854-2.881-2.169-5.771-3.232-8.846a8.661,8.661,0,0,1,2.145-.07,8.243,8.243,0,0,0,3.411-.767,8.327,8.327,0,0,0,3.5-2.966,8.484,8.484,0,0,0,1.552-5.1c0-10.761.013-21.523-.012-32.283a8.46,8.46,0,0,0-3.87-7.084,8.284,8.284,0,0,0-4.668-1.477c-7.555-.041-15.109-.018-22.864-.018" transform="translate(0 0.001)" fill="#040506"/><path d="M64.951,63.061c-.955-2.519-1.976-4.905-2.726-7.5l1.307-.811c.957,0,2.252-.041,3.544.012a6.134,6.134,0,0,0,3.83-1.254,5.933,5.933,0,0,0,2.643-5.077c.026-9.106.007-18.213.017-27.319A6.051,6.051,0,0,0,71.68,16.8a6.114,6.114,0,0,0-4.345-1.81q-29.808.025-59.615,0a6.13,6.13,0,0,0-4.34,1.818A6.05,6.05,0,0,0,1.5,21.123q.015,13.659-.008,27.32a6.268,6.268,0,0,0,1.172,3.55,6.075,6.075,0,0,0,5.341,2.747q19.328.015,38.656,0a4.385,4.385,0,0,1,2.13.49c5.195,2.684,10.438,5.274,15.669,7.887.073.036.192-.022.49-.063" transform="translate(0.98 9.833)" fill="#dc655a"/><path d="M1.718,16.563A9.754,9.754,0,0,1,7.58,14.48q29.81.037,59.619,0A9.283,9.283,0,0,1,73,16.624c.462-.381-.137-.59-.224-.871a4.023,4.023,0,0,0-1.318-2.062,18.421,18.421,0,0,0-3.181-1.664,2.377,2.377,0,0,0-.922-.018q-29.967,0-59.932-.007a6.73,6.73,0,0,0-3.269,1.11,5.778,5.778,0,0,0-2.434,3.451" transform="translate(1.127 7.852)" fill="#b9554d"/><path d="M25.3,2.993c-.654,1.239-.709,2.759-1.951,3.769h-3.4c1.032,1.033,2.07,2.07,2.919,2.92.252,1.581-.83,2.535-.876,3.885.889-.565,1.686-1.06,2.472-1.57a1.508,1.508,0,0,1,1.9.013c.722.594,1.7.78,2.313,1.54.323-.392.083-.671-.086-1.063a4.96,4.96,0,0,1-.657-2.774l2.951-2.951H27.5c-1.242-1.012-1.3-2.53-1.951-3.769Z" transform="translate(13.09 1.964)" fill="#f4b43a"/><path d="M25.641,10.811,23.96,9.925l-1.742.886Z" transform="translate(14.575 6.511)" fill="#e6e8ea"/><path d="M30.5,41.341a2.6,2.6,0,0,0,1.865-2.419H36.61a40.264,40.264,0,0,1,3.186,4.14V50.5l.775.775c.614,0,1.235,0,1.855,0a4.952,4.952,0,0,0,4.826-4.821c-.01-2.482,0-4.965,0-7.6H58.926l.715-.939V19.177A5.09,5.09,0,0,0,56.886,16.5c-5.023,0-10.194.01-15.366-.01a2.671,2.671,0,0,0-1.913.647c-.624.55-1.406.879-2.062,1.408a1.983,1.983,0,0,1-1.36.462c-1.235-.071-2.476-.023-3.786-.023A2.665,2.665,0,0,0,30.476,16.5H19.31a3.861,3.861,0,0,0-1.686,1.225H8.259c-.2.25-.429.528-.74.912V39.367l.845.5c-.053.066-.108.131-.161.2h9.358a4.383,4.383,0,0,0,1.747,1.275Z" transform="translate(4.932 10.817)" fill="#040506"/><path d="M47.3,35.435v-2.5H37.465v-2.5h9.8v-2.5h-9.81v-2.5h9.822V23.06c.022.02-.012-.023-.055-.05a.261.261,0,0,0-.134-.046c-3.2,0-6.4,0-9.644,0V20.515h9.846V18.766l-.77-.77H31.641c-.969.659-1.934,1.321-2.906,1.974a2.748,2.748,0,0,1-1.653.52c-1.494-.038-2.987-.013-4.539-.013V35.354h5.372c1.641,1.747,2.908,3.832,4.493,5.8v6.533A2.168,2.168,0,0,0,34.9,45.6c.031-1.033.007-2.068.007-3.1V36.159l.724-.724Z" transform="translate(14.788 11.806)" fill="#fdd6a0"/><path d="M15.037,37.843h9.835V18.1c.017.018-.012-.026-.053-.055A.253.253,0,0,0,24.686,18c-3.2,0-6.4,0-9.649,0Z" transform="translate(9.864 11.804)" fill="#cdc3b5"/><path d="M9.037,36.105h7.346V18.853c.022.025-.007-.02-.046-.05a.238.238,0,0,0-.129-.056c-2.371,0-4.744,0-7.17,0Z" transform="translate(5.928 12.296)" fill="#e2ded4"/><path d="M18.395,19.5a2.6,2.6,0,0,0-1.873,3.04,2.688,2.688,0,0,0,1.992,1.9h1.247a2.763,2.763,0,0,0,1.668-1.684,2.633,2.633,0,0,0-1.81-3.257Z" transform="translate(10.812 12.789)" fill="#080707"/></g></g></svg>