<svg xmlns="http://www.w3.org/2000/svg" xmlns:xlink="http://www.w3.org/1999/xlink" width="76.355" height="76.205" viewBox="0 0 76.355 76.205"><defs><clipPath id="a"><rect width="76.355" height="76.205" fill="none"/></clipPath></defs><g transform="translate(0 0)"><g transform="translate(0 0)" clip-path="url(#a)"><path d="M71.851,69.618q.542.274,1.085.549a26.626,26.626,0,0,0,1.758-2.979,15.139,15.139,0,0,0,1.384-4.5c.088-.849.234-1.7.244-2.559a14.721,14.721,0,0,0-1.9-7.39,2.291,2.291,0,0,1-.212-2.22,33.32,33.32,0,0,0,1.111-3.555,16.235,16.235,0,0,0,.365-1.921,7.734,7.734,0,0,0,.339-2.845c.6-1.916.182-3.884.29-5.826a5.526,5.526,0,0,0-.249-1.971c-.2-.633.209-1.533-.105-2.029-.4-.628.135-1.416-.533-1.876,0-1.863-.833-3.508-1.376-5.23a31.342,31.342,0,0,0-2.421-5.4,40.6,40.6,0,0,0-3.565-5.374,60.048,60.048,0,0,0-4.134-4.38,27.912,27.912,0,0,0-5.766-4.427,35.76,35.76,0,0,0-8.657-3.915c-1.66-.5-3.333-.846-5.018-1.211C43.669.383,42.849.489,42.076.294c-1.941-.49-3.9-.144-5.843-.287a7.408,7.408,0,0,0-1.964.306c-.65.124-1.307-.142-1.987.26C31.8.858,31.028.4,30.492.912a11.792,11.792,0,0,0-3.8.894,33.768,33.768,0,0,0-6.841,2.933H14.939V.076H7.569c.026-.023-.017,0-.044.043a.236.236,0,0,0-.051.126q0,7.659,0,15.3c-.6.856-1.245,1.671-1.776,2.554-.736,1.225-1.447,2.47-2.057,3.759a41.661,41.661,0,0,0-2.123,5.663c-.41,1.338-.637,2.72-.939,4.083-.2.912-.076,1.842-.29,2.7C-.222,36.351.181,38.4,0,40.44c-.056.653.392,1.16.336,1.814-.049.569-.245,1.238.105,1.722.4.556-.164,1.3.468,1.747a17.208,17.208,0,0,0,1.54,5.76A38.123,38.123,0,0,0,6.51,59.327a40.834,40.834,0,0,0,7.116,7.887,34.781,34.781,0,0,0,9.344,5.812,33.719,33.719,0,0,0,6.533,2.18,14.263,14.263,0,0,0,4.806.659c2.023.577,4.095.142,6.135.313.942.08,1.771-.383,2.711-.349a15.918,15.918,0,0,0,2.6-.49,24.222,24.222,0,0,0,5.351-1.5,1.707,1.707,0,0,1,1.221.178,18.458,18.458,0,0,0,3.029,1.334c.77.163,1.559.331,2.3.557a9.306,9.306,0,0,0,3.612.225A14.632,14.632,0,0,0,70,72.781c.212-.187.594-.071.654-.277.045-.618-.579-.666-.585-1.1-.126-.421-.187-.888-.83-1.047-.661-.073-1.178.453-1.758.8A13.178,13.178,0,0,1,51.265,69.7a11.045,11.045,0,0,1-1.843-2.309A13.074,13.074,0,1,1,72.1,54.475a12.859,12.859,0,0,1-.972,13.133,1.248,1.248,0,0,0,.729,2.009" transform="translate(0 0.001)" fill="#040506"/><path d="M40.181,55.158c0,.1-.043.242.006.289.816.762,1.184,1.875,2.252,2.487a19.393,19.393,0,0,1,2.154,1.57c.811.629,1.834.649,2.614,1.276.274.22.873-.135,1.187.327,1.172-.2,2.285.508,3.431.278a18.229,18.229,0,0,0,4.454-1.045,12.677,12.677,0,0,0,3.734-2.2c.749-.069.523.793,1.032.884a6.153,6.153,0,0,1,1.789-1.785c-.159-.464-.622-.673-.882-1.053a.692.692,0,0,0,.285-.731c-.986-.109-1.5.691-2.12,1.188a14.424,14.424,0,0,1-16.824.6,14.958,14.958,0,0,1-1.731-1.4c-.386-.354-.724-.855-1.381-.683" transform="translate(9.018 12.377)" fill="#eb6627"/><path d="M2.217,32.12a16.133,16.133,0,0,0,.029,2.854c.323,1.738.627,3.479,1.046,5.205A36.245,36.245,0,0,0,6.926,48.8a24.4,24.4,0,0,0,2.008,3.18,34.959,34.959,0,0,0,3.267,3.85,36.632,36.632,0,0,0,10.892,7.482,28.953,28.953,0,0,0,6.141,2.09c1.108.217,2.248.358,3.317.639,1.327.349,2.591.084,3.911.267V32.12Z" transform="translate(0.486 7.212)" fill="#ffe594"/><path d="M40.614,58.983c.569.233.873.764,1.3,1.156a14.223,14.223,0,0,0,6.341,3.341,9.316,9.316,0,0,0,1.964.264c.328.011.66-.081.954.234a.746.746,0,0,0,.7.045c.775-.427,1.613-.174,2.406-.3a9.18,9.18,0,0,0,2.137-.565,15.281,15.281,0,0,0,3.56-1.8l2.7-2.082c.084-.036.2-.045.249-.109a14.148,14.148,0,0,0,1.827-3.843c.32-.976.34-2.02.565-3.025.121-.546.339-1.274-.249-1.8-.049-.044-.02-.192,0-.289.229-1.526-.737-2.785-.943-4.212-.715-.869-1.02-2.013-1.889-2.783-.661-.585-1.156-1.315-1.847-1.9a13.678,13.678,0,0,0-4.61-2.546,11.468,11.468,0,0,0-5.4-.565,14.939,14.939,0,0,0-6.761,2.707,13.262,13.262,0,0,0-4.173,5.251,15.086,15.086,0,0,0-.97,3.172,12.34,12.34,0,0,0-.223,3.006,13.845,13.845,0,0,0,1.914,6.325c.08.144.2.356.454.321" transform="translate(8.585 8.552)" fill="#f89321"/><path d="M36.445,2.245a25.993,25.993,0,0,0-9.157,1.3A37.9,37.9,0,0,0,19.251,7.1V9.33h4.97v4.747c.817.051,1.594.017,2.367.023s1.576,0,2.414,0v5.021H33.96c.1.143.149.181.149.22,0,3.96,0,7.921,0,11.946H6.959V19.572C6.41,20.616,5.878,21.417,5.5,22.3c-.36.841-.724,1.682-1.063,2.534a13.223,13.223,0,0,0-.982,2.7c-.153.977-.512,1.891-.686,2.86-.163.907-.263,1.838-.493,2.749a13.072,13.072,0,0,0-.055,3.108c1.3.231,29.024.318,34.225.105Z" transform="translate(0.483 0.491)" fill="#e7e7e7"/><path d="M65.521,39.207c.44-.533.181-1.292.6-1.833.009-1.738.566-3.449.223-5.254H32.176v34.11c1.243-.048,2.519.294,3.8-.23a3.082,3.082,0,0,1,1.329-.016c.449.034.73-.519,1.218-.309.34.147.468-.309.768-.294.257-.688-.228-1.114-.572-1.58A17.928,17.928,0,0,1,49.9,35.31a17.318,17.318,0,0,1,13.808,3.138c.538.393.991,1.027,1.814.758" transform="translate(7.224 7.212)" fill="#e7e7e7"/><path d="M48.153,30.765l-1.7-1.7c4.489-4.478,9.052-9.028,13.611-13.578A20.179,20.179,0,0,0,56.6,11.431c-.017,0-.067,0-.118,0s-.111-.007-.138.02Q45.125,22.638,33.917,33.832c-.055.055-.044.178-.088.383a19.805,19.805,0,0,0,3.6.11c1.24.033,2.482.007,3.97.007l3.164-3.158,1.57,1.676c.067.489-.856.715-1.211,1.341a.19.19,0,0,0,.042.071.211.211,0,0,0,.119.067c2.333,0,4.665,0,6.9,0L63.486,22.852c.391-.5.054-1.011-.186-1.5-.6-1.234-1.251-2.444-1.936-3.767L48.153,30.765" transform="translate(7.595 2.567)" fill="#e24156"/><path d="M45.137,10.079c1,.02,1.278.962,1.9,1.357a1.892,1.892,0,0,1,0,.236.244.244,0,0,1-.053.126c-4.95,4.943-9.9,9.884-14.792,14.765v7.29c.1.028.168.066.186.049,7.783-7.272,15.085-15.03,22.8-22.492a15.194,15.194,0,0,0-4.043-3.557l-2.3,2.3L46.978,8.3c.509-.649,1.2-1.207,1.86-1.931-1.78-.708-3.306-1.913-5.125-2.308L32.177,15.576v7.2c.154-.1-.1.1.1.109.034,0,.075-.042.105-.072l12.76-12.731" transform="translate(7.225 0.913)" fill="#e24156"/><path d="M65.1,38.787a4.058,4.058,0,0,1-1.3-.833A21.391,21.391,0,0,0,59.622,35.5c-1.154-.495-2.388-.689-3.561-1.1a4.779,4.779,0,0,0-1.163-.071c-.66-.054-1.359.184-1.969-.285a.5.5,0,0,0-.435,0c-1,.5-2.1.12-3.119.38-.938.239-1.878.487-2.788.812a19.577,19.577,0,0,0-4.663,2.411,23.4,23.4,0,0,0-3.518,3.3,8.174,8.174,0,0,0-1.727,2.541,26.283,26.283,0,0,0-1.472,3.256,14.535,14.535,0,0,0-.809,3.974,1.755,1.755,0,0,1-.272,1.379.746.746,0,0,0,0,.714,2.794,2.794,0,0,1,.273,1.821,14.594,14.594,0,0,0,1,4.343,28.253,28.253,0,0,0,1.978,3.938,2.106,2.106,0,0,0,.563.651,3.62,3.62,0,0,1,.939,1.4,10.275,10.275,0,0,0,2.694-.672c0-.656-.535-.857-.853-1.2a13.282,13.282,0,0,1-2.44-3.6,13.553,13.553,0,0,1-1.49-6.225c.027-.692-.013-1.387.007-2.08a14.22,14.22,0,0,1,2.3-7.073A13.981,13.981,0,0,1,41.7,40.872a16.987,16.987,0,0,1,6.124-3.547,10.569,10.569,0,0,1,3.769-.626c.643.037,1.291.016,1.936,0a13.628,13.628,0,0,1,6.7,1.8,10.853,10.853,0,0,1,2.993,2.129c.294.318.612.615,1.03,1.03a6.757,6.757,0,0,0,.846-2.872" transform="translate(7.642 7.632)" fill="#a7b4c4"/><path d="M10.433,26.651V2.026c-.753-.146-1.523,0-2.384-.091V26.651a1.853,1.853,0,0,0,2.384,0" transform="translate(1.807 0.435)" fill="#f89321"/><path d="M60.727,22.821l-8.9,8.885H61.965c.277-3.032-.506-5.914-1.238-8.885" transform="translate(11.636 5.124)" fill="#e24156"/><path d="M32.189,12.239l8.769-8.75A32.08,32.08,0,0,0,36.72,2.5a15.4,15.4,0,0,0-4.531-.25Z" transform="translate(7.227 0.492)" fill="#e24156"/><path d="M14.273,6.088h-1.93a.684.684,0,0,0-.105.1.242.242,0,0,0-.049.126q0,9.7,0,19.4a1.567,1.567,0,0,0,1.983.1,1.114,1.114,0,0,0,.245-.907q.011-8.982,0-17.965a1.368,1.368,0,0,0-.143-.862" transform="translate(2.736 1.368)" fill="#f79221"/><path d="M18.465,24.847V10.016c-.754-.086-1.522-.017-2.384-.049v14.88a1.853,1.853,0,0,0,2.384,0" transform="translate(3.611 2.238)" fill="#f89221"/><path d="M22.6,23.623V14.145c-.754-.086-1.522-.017-2.384-.049V23.92a1.554,1.554,0,0,0,2.384-.3" transform="translate(4.54 3.165)" fill="#f79221"/><path d="M26.5,23.048V18.031c-.754-.086-1.521-.017-2.384-.048v5.065a1.853,1.853,0,0,0,2.384,0" transform="translate(5.414 4.038)" fill="#f59120"/><path d="M14.273,6.088v19.63H12.186V28.06c.753.083,1.52.015,2.384.047v-1.5c0-6.517.006-13.033-.015-19.548,0-.32.294-.8-.283-.975" transform="translate(2.736 1.368)" fill="#e96526"/><path d="M22.6,21.876a1.765,1.765,0,0,1-1.059.312,9.015,9.015,0,0,0-1.325-.015v2.341c.754.083,1.521.016,2.384.047Z" transform="translate(4.54 4.912)" fill="#ea6526"/><path d="M10.433,22.119H8.049V24.46c.753.083,1.52.016,2.384.047Z" transform="translate(1.807 4.967)" fill="#ec6727"/><path d="M18.465,22.119H16.081V24.46c.753.083,1.52.016,2.384.047Z" transform="translate(3.611 4.967)" fill="#ec6727"/><path d="M26.5,22.119H24.114V24.46c.753.083,1.52.016,2.384.047Z" transform="translate(5.414 4.967)" fill="#eb6626"/><path d="M14.138,52.709,28.724,38.154l-1.64-1.636L12.5,51.073q.819.817,1.64,1.636" transform="translate(2.806 8.2)" fill="#040506"/><path d="M25.017,51.361A4.766,4.766,0,0,0,27.344,49.1V46.439c-.5-.283-.552-1.022-1.082-1.375-.46-.3-.965-.544-1.5-.841H22.564a4.751,4.751,0,0,0-2.325,2.256V49.1a4.7,4.7,0,0,0,2.324,2.259Z" transform="translate(4.544 9.93)" fill="#060606"/><path d="M12.179,38.458c.114,1.337-.283,2.717.911,3.928s2.562.9,3.929.965A4.644,4.644,0,0,0,19.3,41.106c.264-2.025-.066-3.819-2.4-4.852-2.682-.136-2.925-.376-4.721,2.2" transform="translate(2.734 8.124)" fill="#060606"/><path d="M48.872,52.257c.655-.2,1.376.393,2.21.35.268-.015.546.322.833.474.338.18.153.676.529.828v2.063c-.742.885-1.56,1.609-2.876,1.329A3.721,3.721,0,0,1,47.6,55H45.376a2.87,2.87,0,0,0,.855,2.787c.67.79,1.353,1.665,2.611,1.675v2.451l.475.475h1.8l.456-.486V59.521a4.782,4.782,0,0,0,2.084-8,4.725,4.725,0,0,0-3.8-1.608c-.524.032-.857-.339-1.291-.463-.9-1.515-.9-1.515-.585-3.239A3.007,3.007,0,0,1,49.5,45.147h1.613l1.3,1.333v.975h2.717a4.258,4.258,0,0,0-.978-2.841,6.378,6.378,0,0,0-2.542-1.853V40.578l-.479-.456H48.9v2.53c-.782.484-1.784.654-2.276,1.38a6.25,6.25,0,0,0-1.229,2.149c-.479,2.851.562,4.925,3.483,6.076" transform="translate(10.163 9.009)" fill="#060605"/><path d="M58.528,50.729l.371-.371V48.146H56.291a20.194,20.194,0,0,0-.048,2.183l.4.4Z" transform="translate(12.626 10.811)" fill="#1e1404"/><path d="M40.217,50.382l.376.375h1.829c.8-.634.26-1.484.454-2.183l-.449-.443h-2.21Z" transform="translate(9.03 10.807)" fill="#1e1404"/><path d="M23.8,46.165h-.9l-.725.758v.912l.937.683h.73c.179-.206.427-.495.705-.814v-.84l-.917-.525.171-.174" transform="translate(4.979 10.366)" fill="#df3f54"/><path d="M14.926,40.528H15.8l.691-.861v-.817l-.846-.7h-.77l-.737.735V39.8l.79.73" transform="translate(3.174 8.567)" fill="#df3f54"/></g></g></svg>