<svg xmlns="http://www.w3.org/2000/svg" xmlns:xlink="http://www.w3.org/1999/xlink" width="75.966" height="76.045" viewBox="0 0 75.966 76.045"><defs><clipPath id="a"><rect width="75.966" height="76.045" transform="translate(0 0)" fill="none"/></clipPath></defs><g transform="translate(0 0)"><g clip-path="url(#a)"><path d="M11.276,16.069c-1.672-.087-2.709.851-3.513,2.288-.121,2.414-.121,2.414.589,3.743a5.056,5.056,0,0,0-2.117,2.291,11.783,11.783,0,0,0-.6,2.415q0,3.918,0,7.831c.39.271.561.87,1.187.737a.636.636,0,0,0,.472.146c1.072-.366,1.12-1.283,1.138-2.186.044-2.128-.037-4.257.036-6.384a2.806,2.806,0,1,1,5.606-.036c.077,2.127,0,4.257.033,6.385.013.916.115,1.8,1.071,2.275a1.429,1.429,0,0,0,1.019.03c1.038-.467,1.127-1.4,1.143-2.363.037-2.218-.087-4.44.06-6.654A2.756,2.756,0,0,1,20.139,24a2.816,2.816,0,0,1,2.831,2.653A14.577,14.577,0,0,1,23,28.132c.007,1.775-.019,3.551.014,5.325a2.108,2.108,0,0,0,1.066,2.117,1.432,1.432,0,0,0,1.02.03c1.041-.469,1.128-1.4,1.142-2.369.033-2.173-.069-4.349.047-6.519a2.777,2.777,0,0,1,2.747-2.748,2.822,2.822,0,0,1,2.841,2.815c.041.492.021.987.023,1.481.006,1.729-.019,3.458.014,5.186a2.115,2.115,0,0,0,1.064,2.123A1.433,1.433,0,0,0,34,35.6c1.039-.467,1.128-1.4,1.145-2.362.037-2.219-.087-4.441.059-6.655A2.757,2.757,0,0,1,37.939,24a2.818,2.818,0,0,1,2.832,2.652,14.284,14.284,0,0,1,.031,1.478c.007,1.775-.018,3.551.015,5.325a2.109,2.109,0,0,0,1.065,2.118,1.567,1.567,0,0,0,.509.109,1.545,1.545,0,0,0,.51-.079c1.039-.466,1.128-1.4,1.144-2.362.038-2.218-.087-4.441.06-6.654A2.757,2.757,0,0,1,46.84,24a2.818,2.818,0,0,1,2.832,2.653c.051.49.029.985.031,1.478.007,1.775-.019,3.55.014,5.324a2.112,2.112,0,0,0,1.066,2.118,1.429,1.429,0,0,0,1.019.03c1.038-.466,1.127-1.4,1.143-2.362.038-2.217-.086-4.439.06-6.653A2.756,2.756,0,0,1,55.738,24a2.818,2.818,0,0,1,2.834,2.649,14.569,14.569,0,0,1,.031,1.478c.007,1.775-.018,3.55.014,5.324a2.116,2.116,0,0,0,1.062,2.12A1.422,1.422,0,0,0,60.7,35.6a2.105,2.105,0,0,0,1.141-2.2c.033-2.059.021-4.119.011-6.178a2.928,2.928,0,0,1,2-3.087c2.223-.345,3.56.69,3.638,2.9s-.059,4.441.065,6.657c.051.911.169,1.958,1.58,1.679.593-.169.593-.169,1.186-.742,0-2.6.058-5.216-.018-7.826a5.578,5.578,0,0,0-2.666-4.748c.108-.582.556-1.132.683-1.849.119-.671-.405-1.23-.05-1.762-.829-1.438-1.841-2.475-3.586-2.378-.737-.6-1.406-.163-2.039.184a3.975,3.975,0,0,0-1.879,4.535c.263,1.034.263,1.034-.507,1.687-.882-.19-.8-.774-.638-1.463.711-2.937-.755-4.968-3.812-5.327-3.165.347-4.555,2.29-3.836,5.4.15.651.174,1.173-.617,1.38-.8-.162-.818-.672-.674-1.337.669-3.092-.463-4.841-3.483-5.436-3.346.16-4.825,2.105-4.113,5.445.144.679.1,1.182-.7,1.325-.8-.241-.728-.783-.577-1.424.71-3.026-.694-4.985-3.805-5.353-3.163.347-4.542,2.283-3.848,5.4.168.755.168.755-.617,1.387-.882-.2-.784-.794-.616-1.478.719-2.941-.731-4.943-3.816-5.306-3.147.343-4.537,2.267-3.891,5.418.128.627.247,1.19-.606,1.351-.8-.269-.639-.859-.528-1.457.57-3.074-.822-4.962-3.9-5.313-3.175.361-4.485,2.232-3.814,5.444.133.639.133.639-.556,1.356-1.08-.234-.822-.948-.625-1.695a3.894,3.894,0,0,0-2.39-4.8c-.517-.2-1.035-.368-1.52.08" fill="#040506"/><path d="M6.825,37.75H.448c-.157.426-.531.778-.432,1.38l.909.71H3.158a1.646,1.646,0,0,1,.1,1.052,13.91,13.91,0,0,0,.379,3.579,30.368,30.368,0,0,0,.742,3.22A29.964,29.964,0,0,0,7.145,55a27.006,27.006,0,0,0,3.027,4.687c.943,1.141,1.789,2.361,2.842,3.414a36.7,36.7,0,0,0,10.317,7.3,30.191,30.191,0,0,0,6.235,2.133,23.333,23.333,0,0,0,6.011.857c.617-.022,1.14.4,1.806.317a17.059,17.059,0,0,0,2.849-.282c.9-.267,1.888.113,2.845-.3a6.16,6.16,0,0,1,1.792-.276,17.2,17.2,0,0,0,3.907-1,28.065,28.065,0,0,0,4.935-2.03A63.51,63.51,0,0,0,59.1,66.371a52.841,52.841,0,0,0,4.345-4.049c.2-.475-.122-.767-.251-1.109-.616-.95-1.332-.619-2-.106-.7.54-1.3,1.195-2,1.749-2.107,1.677-2.978,1.755-5.419.391a7.837,7.837,0,0,1-2.572-2.833c-2.035-3.317-5.032-4.224-8.684-3.645A23.179,23.179,0,0,0,36.9,58.625c-4.552,1.985-6.3,1.215-7.9-3.529a38.114,38.114,0,0,0-2.8-7.019c-1.709-2.955-4.074-4.792-7.708-4.5a3.438,3.438,0,0,0-3.451,2.7,9.6,9.6,0,0,0-.311,1.751c-.332,3.253-2.617,4.771-6,3.883a16.163,16.163,0,0,1-1.874-5.487A3.311,3.311,0,0,1,8.463,45.4a10.267,10.267,0,0,0,4.456-3.8,2.616,2.616,0,0,1,2.706-1.366,8.226,8.226,0,0,0,1.63-.031,1.68,1.68,0,0,0,1.729-1.516c-.079-1.007-.774-1.273-1.621-1.357A14.814,14.814,0,0,0,15.6,37.31c-2.37-.1-4.739-.034-7.108-.037a2.287,2.287,0,0,0-1.667.477" fill="#040506"/><path d="M64.678,13.693c.627.132.8-.468,1.161-.72C66.015,10.259,65.8,7.706,63.133,6c.64-.587.454-1.536.93-2.237a21.165,21.165,0,0,1-.811-2.175C62.795.7,61.918.616,61.277.067,59.733-.1,58.188-.008,57.283,1.506a3.681,3.681,0,0,0-.022,4.445c.043.53-.561.207-.728.561a1.215,1.215,0,0,1-.816.67c-.528-.232-.706-1.036-1.65-.947a4.027,4.027,0,0,0,.992-2.553,5.076,5.076,0,0,0-.8-2.306c-.171-.324-.448-.8-1-.751-.825-.832-1.88-.551-2.81-.592-.5.236-.979.416-1.409.673a2.347,2.347,0,0,0-.925,1.242c-.156.423-.258.914-.4,1.322-.192.545.068.954.1,1.405a5.114,5.114,0,0,0,.626,1.489c-.718.048-.976.708-1.554,1.046-.546-.269-.812-.958-1.555-1.086a4.741,4.741,0,0,0,.795-2.519A4.842,4.842,0,0,0,45.3,1.284a3.3,3.3,0,0,0-1.12-.857c-.886-.582-1.858-.331-2.731-.4-.7.536-1.566.663-2.03,1.526-.382.711-.354,1.54-.834,2.183.52.679.193,1.683,1.193,2.38-.932.111-1.218.716-1.692,1.053-.445.006-.6-.357-.819-.594s-.488-.271-.821-.457a9.549,9.549,0,0,0,.826-2.239C36.975,2.1,36.452.557,33.915.011a3.312,3.312,0,0,0-3.482,1.771c-.738,1.452-.831,2.434.184,4.321-.641.132-.96.685-1.461,1.1-.652-.188-.85-1.037-1.875-1.018.931-.764.685-1.738,1.189-2.427-.511-.627-.432-1.465-.82-2.181C27.177.7,26.316.6,25.666.063c-1.537-.15-3.082-.083-3.989,1.452-.948,1.606-1.04,2.6.033,4.539a4.861,4.861,0,0,0-1.489,1.192c-.6-.355-.881-1.01-1.669-1.132A6.054,6.054,0,0,0,19.5,3.672a8.886,8.886,0,0,0-.834-2.312c-.327-.264-.659-.54-.99-.788-.926-.7-1.918-.5-2.911-.542-.657.494-1.558.607-2.025,1.431-.415.731-.463,1.577-.853,2.3.475.7.294,1.648.922,2.233A5.819,5.819,0,0,0,10.326,9.5a30.956,30.956,0,0,0-.262,3.422l.766.767h.446c.875.4,1.143-.262,1.462-.837a9.738,9.738,0,0,0,.137-2.047,2.935,2.935,0,0,1,2.9-2.893,2.935,2.935,0,0,1,2.8,2.854,10.956,10.956,0,0,0,.125,2.054,1.512,1.512,0,0,0,2.935.038,17.7,17.7,0,0,0,.177-2.336,2.818,2.818,0,0,1,5.62-.021,20.879,20.879,0,0,0,.175,2.341,1.567,1.567,0,0,0,1.725,1.123,1.663,1.663,0,0,0,1.209-1.126,15.111,15.111,0,0,0,.158-2.21,2.827,2.827,0,0,1,5.648-.019,17.479,17.479,0,0,0,.156,2.215,1.512,1.512,0,0,0,2.935.029,11.789,11.789,0,0,0,.145-2.2,2.845,2.845,0,0,1,5.686-.021,12.8,12.8,0,0,0,.137,2.2,1.567,1.567,0,0,0,1.727,1.127,1.666,1.666,0,0,0,1.21-1.129,10.223,10.223,0,0,0,.133-2.046,2.851,2.851,0,1,1,5.7-.021,11.024,11.024,0,0,0,.125,2.052,1.511,1.511,0,0,0,2.931.047,7.9,7.9,0,0,0,.135-1.893c.09-2.209,1.523-3.321,3.721-2.882a2.858,2.858,0,0,1,1.995,3.063,3.992,3.992,0,0,0,.18,1.737c.26.584.578,1.182,1.413.8" fill="#040506"/><path d="M71.205,44.284c.626.133.8-.466,1.143-.707.2-.612-.126-1.216.289-1.854.271-.416.051-1.151.051-1.819h2.469l.742-.767c.262-.606-.341-.855-.226-1.387H69.128a2.279,2.279,0,0,0-1.658-.479c-2.408,0-4.816-.065-7.223.034q-4.467-.108-8.934,0c-5.908-.163-11.816.115-17.723.013-2.947-.09-5.893-.083-8.84-.008a12.242,12.242,0,0,0-1.886.021c-.853.109-1.487.45-1.5,1.438.221,1.158,1.081,1.438,2.084,1.473,1.528.055,3.057.007,4.585.026a3.439,3.439,0,0,1,1.823.272,11.476,11.476,0,0,1,.529,3.1c.764,4.286,2.163,5.754,6.457,6.522a11.956,11.956,0,0,0,5.426-.136c3-.854,4.025-3.052,2.881-5.977-.487-1.245-1.427-2.242-1.816-3.515.346-.434.827-.278,1.248-.277,7.827.016,15.655-.066,23.482.044a2.812,2.812,0,0,1,1.48.245c.5.686.143,1.5.238,2.256.1.815.126,1.78,1.421,1.481" fill="#040506"/><path d="M67.348,57.351a3.674,3.674,0,0,0,.764,1.188c1.463,0,3.08.115,4.671-.04a3.592,3.592,0,0,0,2.591-1.726,4.536,4.536,0,0,0,.569-2.893,4.417,4.417,0,0,0-3.782-3.141,7.349,7.349,0,0,0-1.55-3.486c-.893-1.8-2.541-2.294-4.347-2.472a12.418,12.418,0,0,0-1.9.016,6.694,6.694,0,0,0-4.344,2.59A3.036,3.036,0,0,1,57.5,48.645a4.686,4.686,0,0,0-4.8,4.611A5.221,5.221,0,0,0,57.226,58.9c.686.094,1.38.026,2.07.1,1.224.009,2.447.052,3.667-.022,1.133-.068,1.878-.536,1.734-1.832a1.871,1.871,0,0,0-2-1.379c-1.467-.033-2.935-.005-4.4-.017a2.949,2.949,0,0,1-1.7-.308c-.888-.814-1.33-1.744-.563-2.855a2.1,2.1,0,0,1,2.849-.7c1.488.614,2.15.335,2.721-1.208a4.051,4.051,0,0,1,3.97-2.957,3.954,3.954,0,0,1,3.891,3.047,2.6,2.6,0,0,1,.157.871c.05,1.219.6,1.946,1.9,1.979A1.84,1.84,0,0,1,72.78,54a1,1,0,0,1-.048,1.391c-1.037.615-2.257.21-3.406.37-.961.133-2.067.125-1.978,1.587" fill="#050606"/><path d="M60.228,37.75h8.9V35.374c-.626.132-.8-.468-1.186-.738,0-2.615-.031-5.234.016-7.853a2.776,2.776,0,0,0-.938-2.291,4.942,4.942,0,0,1-.535-.607,5.894,5.894,0,0,0-2.462-.389c-.155.028-.269.108-.235.3.967,2.345.761,4.814.762,7.26,0,3.284-.641,3.969-4.025,4.323h-.3a1.846,1.846,0,0,0,0,2.376" fill="#4c4692"/><path d="M64.678,13.693c-.625.135-.8-.464-1.187-.736,0-.776,0-1.561,0-2.346a2.754,2.754,0,0,0-2.373-2.858c-.226.45.032.867.09,1.3a2.827,2.827,0,0,1-2.563,3.332c-.579.069-1.2-.05-1.681.419-.26.477-.535.936-1.186.891a1.845,1.845,0,0,0,0,2.376,3.425,3.425,0,0,1,3.378,2.075A3.532,3.532,0,0,1,58.6,22.1c.756.153,1.058.79,1.606,1.149.614-.268.789-1.071,1.671-.984-.907-1.441-1.328-2.788-.493-4.241a3.46,3.46,0,0,1,3.3-1.96Z" fill="#97b938"/><path d="M12.462,12.8c-.261.477-.535.936-1.187.891v2.376a3.438,3.438,0,0,1,3.388,2.07A3.612,3.612,0,0,1,14.1,22.1c.755.153,1.057.79,1.606,1.149.613-.268.788-1.071,1.713-.98a3.832,3.832,0,0,1-.47-4.507,3.405,3.405,0,0,1,3.23-1.7,1.847,1.847,0,0,0,0-2.376c-.652.045-.926-.414-1.187-.891a9.441,9.441,0,0,0-6.527,0" fill="#4b4692"/><path d="M75.242,71.31l.71-.888c0-.008,0-.2,0-.393,0-.14-.023-.279-.032-.383a2.434,2.434,0,0,0-1.969-.722c-4.288.02-8.577.01-12.866.01-.351.222-.8.29-1.062.652-.172.268-.055.568-.111,1.021l.955.51-.189.193Z" fill="#0b0c0c"/><path d="M64.381,45.175c.443,0,.887.015,1.329,0a5.618,5.618,0,0,1,4.547,1.871c.093.1.167.259.354.211a13.731,13.731,0,0,1,.594-2.97c-.241,0-.5.056-.653-.208-.186-.317-.37-.634-.547-.937.6-1.023.16-2.118.332-3.153-1.144-.2-25.763-.258-28.157-.067-.068.241-.136.479.247.5a8.174,8.174,0,0,0,2.059.173q9.409-.008,18.821,0a3.447,3.447,0,0,1,1.9.263c.525,1.6-.1,2.966-.829,4.315" fill="#4c96d3"/><path d="M64.381,57.054v1.055l-.491.43H59.041c-1.856,1.6-3.551,3.376-5.34,5.049.382.7,1.193.542,1.776.852.409.217.983.043,1.495.3.424.214.924-.181,1.231-.492,1.157-1.175,2.614-2.016,3.6-3.319a1.78,1.78,0,0,1,1.4.281c.529-1.049,1.475-1.79,2.056-2.8.2-.354.41-.707.614-1.06a1.261,1.261,0,0,0-1.483-.3" fill="#4c97d3"/><path d="M64.381,57.054c.436.39.971.289,1.483.3h1.484c-.055-.319.51-.382.29-.715.173-.336.715.042.664-.468h4.541l.724-.779V53.908l-.792-.7H70.529C69.9,52.7,70.061,52,70,51.35c-.024-.279.3-.726-.282-.83a2.355,2.355,0,0,0-.74,1.251,4.87,4.87,0,0,1-5.027,3.366c-2.023-.026-4.046-.018-6.068,0-.628.007-1.3-.1-1.812.429.358.642.973.6,1.574.6q3,0,6,0c.217.335.653.464.732.891" fill="#c5e6f0"/><path d="M10.1,74.4v.943l.812.692H21.835l.379-.379V74.39a2.372,2.372,0,0,0-1.908-.716q-4.141.048-8.283,0A2.549,2.549,0,0,0,10.1,74.4" fill="#0b0c0d"/><path d="M2.983,69.58V70.6c.221.167.495.374.912.687h9.962L14.3,70.5l.2.153V69.634a2.009,2.009,0,0,0-1.454-.7c-2.856,0-5.712,0-8.569-.006a2.83,2.83,0,0,0-1.492.65" fill="#0c0c0d"/><path d="M61.923,76.011l.645-.747V74.4a2.416,2.416,0,0,0-1.968-.723q-3.768.039-7.535,0a3.114,3.114,0,0,0-1.658.394c-.134.233-.1.6-.463.728.334.431.353.9.8,1.213Z" fill="#0b0c0d"/><path d="M6.825,37.75h8.9a1.845,1.845,0,0,0,0-2.376h-.3a44.5,44.5,0,0,0-8.307,0h-.3Z" fill="#fdb234"/><path d="M.01,74.317v1.027l.787.7H6.419l.475-.813.193.156v-1a2.112,2.112,0,0,0-1.471-.7c-1.376.007-2.752.013-4.128,0-.566-.006-.936.363-1.478.636" fill="#0d0e0f"/><path d="M33.23,35.374c-.432-.079-.539-.549-.89-.695,0-2.611-.059-5.185.022-7.754a3.238,3.238,0,0,0-1.984-3.172,1.342,1.342,0,0,1-.237-.233H28.049a4.115,4.115,0,0,0-1.513,1.18,2.3,2.3,0,0,0-.734,1.779c.027,2.72.011,5.44.011,8.159-.328.214-.461.654-.89.736.068.676.628.7,1.082.726a59.372,59.372,0,0,0,6.143,0c.454-.024,1.014-.05,1.082-.726" fill="#e0f2f8"/><path d="M24.33,35.374c-.43-.082-.563-.522-.891-.736,0-2.62-.031-5.242.017-7.862a2.751,2.751,0,0,0-.947-2.288c-.257-.225-.486-.481-.54-.535a4.594,4.594,0,0,0-3.459-.246c-.291.331-.569.677-.878.99a2.367,2.367,0,0,0-.731,1.782c.027,2.72.012,5.44.012,8.159-.329.214-.462.654-.891.736.063.679.625.7,1.079.727a59.712,59.712,0,0,0,6.146,0c.453-.024,1.014-.05,1.083-.726" fill="#d0d45b"/><path d="M42.13,35.374c-.428-.084-.549-.537-.89-.7,0-2.654-.031-5.276.016-7.9a2.785,2.785,0,0,0-.944-2.291,8.256,8.256,0,0,0-.71-.7,4.99,4.99,0,0,0-3.291-.074c-.292.331-.569.677-.878.99a2.363,2.363,0,0,0-.731,1.782c.027,2.72.011,5.44.011,8.159-.328.214-.461.654-.89.736.068.676.628.7,1.082.726a59.372,59.372,0,0,0,6.143,0c.454-.024,1.014-.05,1.082-.726" fill="#a96946"/><path d="M51.031,35.374c-.428-.084-.549-.537-.89-.7,0-2.654-.031-5.276.017-7.9a2.788,2.788,0,0,0-.945-2.291,8.256,8.256,0,0,0-.71-.7,4.99,4.99,0,0,0-3.291-.074c-.292.331-.569.677-.878.99a2.363,2.363,0,0,0-.731,1.782c.027,2.72.011,5.44.011,8.159-.328.214-.461.654-.89.736.068.676.628.7,1.082.726a59.372,59.372,0,0,0,6.143,0c.454-.024,1.014-.05,1.082-.726" fill="#2c3b45"/><path d="M59.931,35.374c-.428-.084-.549-.537-.89-.7,0-2.654-.031-5.276.017-7.9a2.788,2.788,0,0,0-.945-2.291,8.256,8.256,0,0,0-.71-.7,4.99,4.99,0,0,0-3.291-.074c-.292.331-.569.677-.878.99a2.363,2.363,0,0,0-.731,1.782c.027,2.72.011,5.44.011,8.159-.328.214-.461.654-.89.736.068.676.629.7,1.083.726a59.693,59.693,0,0,0,6.145,0c.454-.023,1.016-.048,1.079-.727" fill="#e95e49"/><path d="M7.122,35.374a.227.227,0,0,0,.234.292q3.919.01,7.839,0a.227.227,0,0,0,.234-.292c-.429-.082-.562-.522-.89-.736,0-2.62-.031-5.242.017-7.862a2.754,2.754,0,0,0-.947-2.288c-.257-.225-.486-.481-.54-.535a4.594,4.594,0,0,0-3.459-.246c-.292.331-.568.677-.878.99A2.358,2.358,0,0,0,8,26.479c.026,2.72.01,5.44.01,8.159-.328.214-.461.654-.89.736" fill="#ffda58"/><path d="M47.174,13.693h-.712c-.271-.273-.636-.48-.771-.891a9.441,9.441,0,0,0-6.527,0c-.261.477-.536.936-1.187.891a1.847,1.847,0,0,0,0,2.376,3.436,3.436,0,0,1,3.388,2.07,3.612,3.612,0,0,1-.568,3.967c.758.151,1.059.791,1.608,1.147.614-.267.788-1.07,1.7-.981a4.573,4.573,0,0,1-1.014-2.412,3.828,3.828,0,0,1,.7-2.337,6.469,6.469,0,0,1,2.115-1.454h1.268a4.591,4.591,0,0,0,0-2.376" fill="#f99727"/><path d="M37.977,16.069V13.693c-.652.045-.926-.414-1.187-.891a9.441,9.441,0,0,0-6.527,0,1.606,1.606,0,0,1-.89.891,1.547,1.547,0,0,0-.3,2.376,3.438,3.438,0,0,1,3.388,2.07A3.614,3.614,0,0,1,31.9,22.1c.756.153,1.058.79,1.606,1.149.614-.268.789-1.071,1.713-.98a3.833,3.833,0,0,1-.47-4.507,3.405,3.405,0,0,1,3.23-1.7" fill="#e34041"/><path d="M29.076,16.069a9.089,9.089,0,0,0-.014-1.321,1.742,1.742,0,0,1,.311-1.055H28.66c-.27-.273-.635-.48-.771-.891a9.441,9.441,0,0,0-6.527,0c-.26.477-.535.936-1.186.891v2.376A3.617,3.617,0,0,1,23.507,18c.28.464.01.961.369,1.33.42.431.005.762-.124,1.145a2.453,2.453,0,0,0-.016.79l-.592.593,1.379,1.37c.675-.127.857-1.027,1.578-1.018.061-.49-.328-.622-.516-.874a4.128,4.128,0,0,1,.528-3.907,3.411,3.411,0,0,1,2.963-1.361" fill="#87523b"/><path d="M47.174,13.693a2.255,2.255,0,0,0,0,2.376,3.588,3.588,0,0,1,3.187,2.179c.548,1.189.338,2.188-.58,3.875.675.134.975.774,1.525,1.13.613-.267.788-1.07,1.711-.98a3.833,3.833,0,0,1-.469-4.506,3.405,3.405,0,0,1,3.23-1.7V13.693c-.652.045-.926-.414-1.187-.891a9.441,9.441,0,0,0-6.527,0,1.609,1.609,0,0,1-.89.891" fill="#ffb635"/><path d="M60.525,35.374a.226.226,0,0,0,.232.291,4.712,4.712,0,0,0,2.816-.543,4.535,4.535,0,0,0,1.4-1.884v-7.5c-.374-.619-.777-1.285-1.181-1.951h-.749c-.306.31-.612.631-.932.938a2.29,2.29,0,0,0-.7,1.784c.023,2.71.009,5.42.009,8.126-.33.215-.462.654-.89.735" fill="#7f66a8"/><path d="M24.33,35.374a.228.228,0,0,1-.235.292q-3.918.01-7.838,0a.228.228,0,0,1-.235-.292h-.3V37.75h2.437c.62.308.528.765.529,1.188a2.493,2.493,0,0,0,2.968,0c0-.423-.092-.88.528-1.188h2.438a1.906,1.906,0,0,0,0-2.376Z" fill="#96b939"/><path d="M51.031,35.374a.227.227,0,0,1-.234.292q-3.92.01-7.839,0a.227.227,0,0,1-.234-.292h-.3a10.015,10.015,0,0,1-.893,1.483A45.888,45.888,0,0,1,36.08,37a5.189,5.189,0,0,0-2.446.3.327.327,0,0,0-.107.456h17.8a1.906,1.906,0,0,0,0-2.376Z" fill="#1b2930"/><path d="M33.527,37.75v-.3a1.618,1.618,0,0,0,0-2.079h-.3a.227.227,0,0,1-.234.292q-3.919.01-7.839,0a.228.228,0,0,1-.234-.292h-.3V37.75Z" fill="#c2e2ec"/><path d="M51.327,35.374V37.75h8.9V35.374h-.3a.228.228,0,0,1-.234.292q-3.919.01-7.839,0a.227.227,0,0,1-.234-.292Z" fill="#df3f40"/><path d="M33.527,35.374v2.079h8.9V35.374h-.3a.228.228,0,0,1-.234.292q-3.919.01-7.839,0a.227.227,0,0,1-.234-.292Z" fill="#85503a"/><path d="M10.521,21.11h1.507a2.263,2.263,0,0,0,.723-1.93,4.949,4.949,0,0,0-.635-.62,6.037,6.037,0,0,0-.864-.416,9.306,9.306,0,0,0-.853.447,5.615,5.615,0,0,0-.594.494,2.32,2.32,0,0,0,.716,2.025" fill="#f7b581"/><path d="M28.281,21.114h1.542a2.148,2.148,0,0,0,.721-1.917,3.051,3.051,0,0,0-1.47-1.049,3.385,3.385,0,0,0-1.459,1.037,2.281,2.281,0,0,0,.666,1.929" fill="#f7b581"/><path d="M38.806,21.066a2.287,2.287,0,0,0,.65-1.846,3.239,3.239,0,0,0-1.461-1.079A3.281,3.281,0,0,0,36.5,19.2a2.3,2.3,0,0,0,.651,1.862Z" fill="#f7b581"/><path d="M57.262,19.232a3.641,3.641,0,0,0-1.45-1.1A2.816,2.816,0,0,0,54.287,19.3a2.222,2.222,0,0,0,.682,1.769h1.6a2.121,2.121,0,0,0,.691-1.838" fill="#f7b581"/><path d="M48.355,19.182l-.709-.71H46.073l-.553.87a1.749,1.749,0,0,0,.531,1.722h1.621a2.125,2.125,0,0,0,.683-1.882" fill="#d58a65"/><path d="M65.37,18.445H63.909l-.724.914a1.978,1.978,0,0,0,.671,1.718h1.61a2.2,2.2,0,0,0,.684-1.912l-.78-.72" fill="#d58a65"/><path d="M18.7,19.487c.026.615.026.615.622,1.525.247.208.549.077.827.1.243.021.489,0,.757,0a2.074,2.074,0,0,0,.72-1.981l-.856-.661H19.369L18.7,19.487" fill="#d58a65"/><path d="M21.659,38.938H18.692c-.084.428-.537.549-.7.887H13.5a11.167,11.167,0,0,1-7.293,6.029A37.386,37.386,0,0,0,8.4,52.6c.791,0,1.621-.017,2.449,0s1.454-.643,2.312-.6a4.661,4.661,0,0,0,1.81-2.615,2.727,2.727,0,0,0,.142-.96c-.168-.849.276-1.592.341-2.4.056-.7.767-1.341,1.923-2.044.731,0,1.517.007,2.3,0a5.547,5.547,0,0,1,4.173,1.748c1.664,1.691,1.915,2.27,3.18,5.214.693,1.611,1.13,3.293,1.769,4.908a7.742,7.742,0,0,0,2.173,3.554,2.6,2.6,0,0,0,1.525.63,10.378,10.378,0,0,0,4.729-1.131,22.527,22.527,0,0,1,4.828-1.628,18.258,18.258,0,0,1,3.893-.184,4.476,4.476,0,0,1,2.776,1.111,6.743,6.743,0,0,1,1.821,2.049c.388.8,1.1,1.394,1.572,2.167a2.969,2.969,0,0,0,1.58,1.166c.147,0,.371.063.432-.01,1.17-1.4,3-2.127,3.877-3.837.237-.461.822-.682,1.031-1.2a9.724,9.724,0,0,1-2.851-.269,4.955,4.955,0,0,1-2.325-1.854,3.108,3.108,0,0,1-.774-2.346,11.228,11.228,0,0,0,.016-1.688,5.2,5.2,0,0,1,3.308-3.347h2.857c1.229-1.849,2.7-3.486,5.109-3.861.2-.63.773-.107,1.192-.43-.266-.76.3-1.463.312-2.281.011-.742-.272-1.535.313-2.338H64.837q-10.719,0-21.437.015c-.319,0-.794-.293-.973.282.479.744,1.027,1.438,1.515,2.178a6.893,6.893,0,0,1,1.072,5.158A6.126,6.126,0,0,1,42.8,49.452c-.523.214-1.074.241-1.6.42a5.688,5.688,0,0,1-2.2.042c-.7-.057-1.466.287-2.1-.284a7.315,7.315,0,0,1-2.571-.571,4.493,4.493,0,0,1-2.27-1.659,12.388,12.388,0,0,1-1.21-3.344,18.288,18.288,0,0,1-.265-4.191H22.417c-.238-.366-.677-.5-.758-.927" fill="#62b6e9"/><path d="M51.624,65.073c-.134-.453-.537-.683-.845-.98a14.349,14.349,0,0,1-1.854-2.345,9.718,9.718,0,0,0-1.937-2c-.373-.3-1.007-.232-1.458-.4a1.4,1.4,0,0,0-1.442.02c-.173.116-.472.057-.713.055a10.328,10.328,0,0,0-3.635.889c-1.374.5-2.672,1.17-4.077,1.615A6.339,6.339,0,0,1,30,61.507a6.944,6.944,0,0,1-2.436-2.883c-.934-1.853-1.39-3.873-2.2-5.769-.464-1.089-.812-2.233-1.339-3.3a5.753,5.753,0,0,0-3.853-3.367c-.64-.159-1.255-.017-1.93-.156l-.725.914a7.51,7.51,0,0,1-.389,3.214,4.734,4.734,0,0,1-2.36,3.34,6.794,6.794,0,0,1-3.514,1.18c-.386.375-.881.293-1.373.293a9.759,9.759,0,0,0,2.226,3.606A32.332,32.332,0,0,0,15,61.853a33.884,33.884,0,0,0,9.323,6.5,40.166,40.166,0,0,0,4.756,1.76,2.009,2.009,0,0,0,.591.008C36.9,71.731,43.6,70.114,50.011,66.77c.693-.362,1.621-.617,1.613-1.7" fill="#d0d45b"/><path d="M51.624,65.073c-.289.657-.964.851-1.5,1.173-2.44,1.466-5.182,2.228-7.813,3.246-.48.185-1.085-.217-1.5.312-.923-.152-1.753.52-2.675.313-.792-.178-1.47.35-2.242.31-.737-.038-1.477-.008-2.216-.008-1.345,0-2.653-.5-4.013-.3a3.467,3.467,0,0,0,1.74.579,27.428,27.428,0,0,1,3.6.6,2.371,2.371,0,0,0,.735.011c1.232,0,2.465.026,3.7-.011a3.728,3.728,0,0,0,1.849-.169c.612-.335,1.4.153,1.96-.243s1.3.176,1.736-.468a29.479,29.479,0,0,0,7.908-2.684,17.727,17.727,0,0,0,1.727-1.064c-.957-.635-2.148-.815-3-1.6" fill="#97b938"/><path d="M5.626,43.269a1.1,1.1,0,0,0,1.045.085c.718-.52,1.678-.625,2.265-1.337.571-.692,1.438-1.139,1.77-2-.208-.276-.422-.185-.605-.185-1.567-.008-3.134-.005-4.807-.005a12.081,12.081,0,0,1,.332,3.441" fill="#cbcf58"/><path d="M12.462,12.8h6.527V9.691c-1.7-2.982-4.825-2.982-6.527,0Z" fill="#7f66a8"/><path d="M39.164,12.8h6.527V9.691c-1.7-2.982-4.825-2.982-6.527,0Z" fill="#ffb635"/><path d="M48.064,12.8h6.527V9.691c-1.7-2.982-4.825-2.982-6.527,0Z" fill="#ffd957"/><path d="M21.363,12.8H27.89c0-.247,0-.494,0-.741a6.124,6.124,0,0,0-.5-3.2c-1.79-1.962-3.725-1.962-5.624.12a9.482,9.482,0,0,0-.4,3.821" fill="#a96946"/><path d="M30.263,12.8H36.79c0-.741.014-1.482,0-2.222A3.271,3.271,0,0,0,32.113,7.8,9.032,9.032,0,0,0,30.653,9a9.488,9.488,0,0,0-.39,3.8" fill="#e95e49"/><path d="M56.964,12.8c.535,0,1.071,0,1.606,0a3.282,3.282,0,0,0,3.159-3.1,4.257,4.257,0,0,0-.611-1.948,1.283,1.283,0,0,0-1.667-.191,4.227,4.227,0,0,0-1.778,1.089,2.567,2.567,0,0,0-.718,1.784c.038.787.009,1.578.009,2.367" fill="#d0d45b"/><path d="M17.3,3.751l-.688-1.287H14.926c-.377.243-.493.754-.7,1.243a2.12,2.12,0,0,0,.729,1.342H16.5c.435-.332.474-.88.8-1.3" fill="#f9b582"/><path d="M26.2,3.751l-.688-1.287H23.827c-.377.243-.493.754-.7,1.243a2.12,2.12,0,0,0,.729,1.342H25.4c.435-.332.474-.88.8-1.3" fill="#f9b582"/><path d="M32.752,2.457c-.469.346-.491.85-.747,1.158a2.269,2.269,0,0,0,.758,1.442h1.513c.481-.29.381-.88.77-1.09a3.6,3.6,0,0,0-.635-1.51Z" fill="#d68b65"/><path d="M40.879,3.727a3.128,3.128,0,0,0,.769,1.318h1.545c.439-.335.512-.817.749-1.258a2.234,2.234,0,0,0-.763-1.342H41.644a3.6,3.6,0,0,0-.765,1.282" fill="#f9b582"/><path d="M50.556,2.456c-.477.348-.486.859-.754,1.166a2.308,2.308,0,0,0,.762,1.435h1.515c.467-.3.391-.875.773-1.1a3.443,3.443,0,0,0-.654-1.5Z" fill="#f9b582"/><path d="M59.46,2.455c-.488.349-.476.87-.763,1.172a2.37,2.37,0,0,0,.766,1.429h1.522c.43-.321.484-.819.761-1.236a2.657,2.657,0,0,0-.737-1.365Z" fill="#d68b65"/><path d="M32.933,39.829a18.056,18.056,0,0,0,.038,3.039,14.993,14.993,0,0,0,.54,2.737l1.429,1.366c.153.047.383-.079.627.082a3.882,3.882,0,0,0,2.306.5c1.278-.028,2.557-.007,3.661-.007a3.124,3.124,0,0,0,1.563-1.2c-.628-2.67-2.451-4.633-4.385-6.518Z" fill="#d0d45b"/><path d="M56.074,55.569c2.811,0,5.625-.08,8.432.026a5.238,5.238,0,0,0,4.9-3.721c.109-.447.475-.844.314-1.354a4.153,4.153,0,0,0-2.74-2.98c-1.627-.711-2.975.053-4.338.73a4.155,4.155,0,0,0-1.229,2c-.362,1.12-.362,1.12-1.437,1.772l-1.8-.925a2.493,2.493,0,0,0-2.182.8,2.577,2.577,0,0,0-.795,2.331c.46.323.319,1.053.873,1.321" fill="#dff2f8"/></g></g></svg>