<svg xmlns="http://www.w3.org/2000/svg" width="715" height="228" viewBox="0 0 715 228"><g transform="translate(-705 -7871)"><rect width="715" height="228" transform="translate(705 7871)" fill="#ced371" opacity="0.25"/><path d="M174.522,9.49l.1,1.116a3.225,3.225,0,0,1,2.716-1.292,2.713,2.713,0,0,1,2.219.888,4.226,4.226,0,0,1,.76,2.672V19h-2.971V13a1.6,1.6,0,0,0-.29-1.059A1.342,1.342,0,0,0,176,11.6a1.413,1.413,0,0,0-1.292.686V19h-2.962V9.49Zm20.347,3.164H186.73V10.369h8.139Zm0,3.858H186.73V14.228h8.139ZM210.337,19h-8.93V17.066l4.113-4.324a4.909,4.909,0,0,0,1.521-2.751,1.913,1.913,0,0,0-.36-1.257,1.287,1.287,0,0,0-1.046-.431,1.3,1.3,0,0,0-1.1.576,2.366,2.366,0,0,0-.422,1.437h-2.971a4.2,4.2,0,0,1,.589-2.175,4.129,4.129,0,0,1,1.635-1.56,4.856,4.856,0,0,1,2.338-.562,4.777,4.777,0,0,1,3.195.958,3.42,3.42,0,0,1,1.121,2.751,4,4,0,0,1-.281,1.472,6.456,6.456,0,0,1-.875,1.5,22.029,22.029,0,0,1-1.912,2.1L205.3,16.715h5.036Zm3.375-2.874a1.686,1.686,0,0,1,1.169.417,1.457,1.457,0,0,1,0,2.136,1.844,1.844,0,0,1-2.342,0,1.456,1.456,0,0,1,0-2.127A1.672,1.672,0,0,1,213.712,16.126Zm12.445-2.355a6.11,6.11,0,0,1-1.165,4,4.551,4.551,0,0,1-6.587-.009,6.1,6.1,0,0,1-1.169-3.99V11.433a6.11,6.11,0,0,1,1.165-4,4.551,4.551,0,0,1,6.587.009,6.116,6.116,0,0,1,1.169,4ZM223.2,11.055a4.564,4.564,0,0,0-.36-2.061,1.2,1.2,0,0,0-1.143-.681,1.176,1.176,0,0,0-1.112.633,4.3,4.3,0,0,0-.374,1.916v3.27a4.6,4.6,0,0,0,.36,2.1,1.209,1.209,0,0,0,1.143.664,1.193,1.193,0,0,0,1.116-.646,4.39,4.39,0,0,0,.369-2.026Zm13.386,2.716a6.11,6.11,0,0,1-1.165,4,4.551,4.551,0,0,1-6.587-.009,6.1,6.1,0,0,1-1.169-3.99V11.433a6.11,6.11,0,0,1,1.165-4,4.551,4.551,0,0,1,6.587.009,6.116,6.116,0,0,1,1.169,4Zm-2.962-2.716a4.564,4.564,0,0,0-.36-2.061,1.2,1.2,0,0,0-1.143-.681A1.176,1.176,0,0,0,231,8.945a4.3,4.3,0,0,0-.374,1.916v3.27a4.6,4.6,0,0,0,.36,2.1,1.209,1.209,0,0,0,1.143.664,1.193,1.193,0,0,0,1.116-.646,4.39,4.39,0,0,0,.369-2.026Zm13.386,2.716a6.11,6.11,0,0,1-1.165,4,4.551,4.551,0,0,1-6.587-.009,6.1,6.1,0,0,1-1.169-3.99V11.433a6.11,6.11,0,0,1,1.165-4,4.551,4.551,0,0,1,6.587.009,6.116,6.116,0,0,1,1.169,4Zm-2.962-2.716a4.564,4.564,0,0,0-.36-2.061,1.2,1.2,0,0,0-1.143-.681,1.176,1.176,0,0,0-1.112.633,4.3,4.3,0,0,0-.374,1.916v3.27a4.6,4.6,0,0,0,.36,2.1,1.209,1.209,0,0,0,1.143.664,1.193,1.193,0,0,0,1.116-.646,4.39,4.39,0,0,0,.369-2.026Zm11.294-.461-2.865-.79.571-1.659,2.8,1.15-.22-3.091h1.881l-.229,3.152L260,8.231l.571,1.677-2.9.79,1.925,2.329-1.521,1.037-1.608-2.584-1.617,2.5-1.521-.993ZM272.441,19H269.47V9.543l-2.918.853V8.146L272.168,6.2h.272Zm4.948,3.445-1.494-.7.3-.6a4.874,4.874,0,0,0,.642-2.18v-2.2h2.373l-.009,1.907a4.767,4.767,0,0,1-.519,2.057A5.226,5.226,0,0,1,277.389,22.445Zm9.6-8.394a3.128,3.128,0,0,1-2.145.861,3.463,3.463,0,0,1-2.76-1.178,4.64,4.64,0,0,1-1.02-3.146,4.722,4.722,0,0,1,.571-2.285,4.287,4.287,0,0,1,1.6-1.67,4.373,4.373,0,0,1,2.281-.615,4.245,4.245,0,0,1,2.29.637,4.29,4.29,0,0,1,1.6,1.8,6.189,6.189,0,0,1,.589,2.685v1.134a7.693,7.693,0,0,1-.831,3.674,5.734,5.734,0,0,1-2.369,2.391,7.4,7.4,0,0,1-3.586.835h-.185V16.8l.563-.009Q286.644,16.645,286.987,14.052Zm-1.345-1.274a1.442,1.442,0,0,0,1.389-.835v-1.23a3.2,3.2,0,0,0-.413-1.819A1.3,1.3,0,0,0,285.5,8.3a1.225,1.225,0,0,0-1.046.668,2.968,2.968,0,0,0-.422,1.617,2.661,2.661,0,0,0,.431,1.6A1.378,1.378,0,0,0,285.642,12.777Zm13.087-6.759V8.348H298.6a4.447,4.447,0,0,0-2.729.8,3.358,3.358,0,0,0-1.314,2.21,3.464,3.464,0,0,1,2.531-.984,3.231,3.231,0,0,1,2.646,1.213,4.892,4.892,0,0,1,.984,3.182A4.48,4.48,0,0,1,300.14,17a4.108,4.108,0,0,1-1.608,1.6,4.622,4.622,0,0,1-2.29.576,4.777,4.777,0,0,1-2.435-.62,4.26,4.26,0,0,1-1.67-1.771,5.832,5.832,0,0,1-.615-2.654V12.944a7.387,7.387,0,0,1,.848-3.555,6.149,6.149,0,0,1,2.421-2.474,6.923,6.923,0,0,1,3.489-.9Zm-2.672,6.618a1.7,1.7,0,0,0-.984.272,1.73,1.73,0,0,0-.589.668v.888q0,2.426,1.679,2.426a1.362,1.362,0,0,0,1.129-.606,2.472,2.472,0,0,0,.453-1.521,2.426,2.426,0,0,0-.461-1.534A1.476,1.476,0,0,0,296.057,12.637Zm11.285.5h-5.52v-1.3l2.514-2.216a3.124,3.124,0,0,0,.655-.76,1.307,1.307,0,0,0,.215-.549q0-.668-.747-.668a.737.737,0,0,0-.6.264.969.969,0,0,0-.22.642h-1.978a2.3,2.3,0,0,1,.751-1.745,2.725,2.725,0,0,1,1.947-.708,3.314,3.314,0,0,1,2.083.571,1.964,1.964,0,0,1,.729,1.644,2.1,2.1,0,0,1-.374,1.208A7.354,7.354,0,0,1,305.154,11l-.712.594h2.9Zm8.2-2.544-2.865-.79.571-1.659,2.8,1.15-.22-3.091h1.881l-.229,3.152,2.725-1.124.571,1.677-2.9.79,1.925,2.329-1.521,1.037-1.608-2.584-1.617,2.5-1.521-.993Zm19.424,3.177a6.11,6.11,0,0,1-1.165,4,4.551,4.551,0,0,1-6.587-.009,6.1,6.1,0,0,1-1.169-3.99V11.433a6.11,6.11,0,0,1,1.165-4,4.551,4.551,0,0,1,6.587.009,6.116,6.116,0,0,1,1.169,4ZM332,11.055a4.564,4.564,0,0,0-.36-2.061,1.2,1.2,0,0,0-1.143-.681,1.176,1.176,0,0,0-1.112.633,4.3,4.3,0,0,0-.374,1.916v3.27a4.6,4.6,0,0,0,.36,2.1,1.209,1.209,0,0,0,1.143.664,1.193,1.193,0,0,0,1.116-.646A4.39,4.39,0,0,0,332,14.219Zm5.59,11.391-1.494-.7.3-.6a4.874,4.874,0,0,0,.642-2.18v-2.2h2.373l-.009,1.907a4.767,4.767,0,0,1-.519,2.057A5.226,5.226,0,0,1,337.594,22.445Zm3.938-9.7.782-6.546h7.479v2.3h-5.071l-.29,2.542a3.493,3.493,0,0,1,.831-.327,4.179,4.179,0,0,1,3.938.988,4.549,4.549,0,0,1,1.024,3.168,4.541,4.541,0,0,1-.549,2.228,3.776,3.776,0,0,1-1.542,1.534,4.87,4.87,0,0,1-2.347.536,5.24,5.24,0,0,1-2.259-.5,4.052,4.052,0,0,1-1.652-1.361,3.308,3.308,0,0,1-.589-1.954h2.971a1.68,1.68,0,0,0,.448,1.114,1.423,1.423,0,0,0,1.063.412q1.494,0,1.494-2.21,0-2.044-1.828-2.044a1.824,1.824,0,0,0-1.547.667Zm17.042-2.156-2.865-.79.571-1.659,2.8,1.15-.22-3.091h1.881l-.229,3.152,2.725-1.124.571,1.677-2.9.79,1.925,2.329-1.521,1.037-1.608-2.584-1.617,2.5-1.521-.993ZM378,13.771a6.11,6.11,0,0,1-1.165,4,4.551,4.551,0,0,1-6.587-.009,6.1,6.1,0,0,1-1.169-3.99V11.433a6.11,6.11,0,0,1,1.165-4,4.551,4.551,0,0,1,6.587.009,6.116,6.116,0,0,1,1.169,4Zm-2.962-2.716a4.564,4.564,0,0,0-.36-2.061,1.2,1.2,0,0,0-1.143-.681,1.176,1.176,0,0,0-1.112.633,4.3,4.3,0,0,0-.374,1.916v3.27a4.6,4.6,0,0,0,.36,2.1,1.209,1.209,0,0,0,1.143.664,1.193,1.193,0,0,0,1.116-.646,4.39,4.39,0,0,0,.369-2.026Zm5.59,11.391-1.494-.7.3-.6a4.874,4.874,0,0,0,.642-2.18v-2.2h2.373l-.009,1.907a4.767,4.767,0,0,1-.519,2.057A5.226,5.226,0,0,1,380.625,22.445Zm3.938-9.7.782-6.546h7.479v2.3h-5.071l-.29,2.542a3.493,3.493,0,0,1,.831-.327,4.179,4.179,0,0,1,3.938.988,4.549,4.549,0,0,1,1.024,3.168,4.541,4.541,0,0,1-.549,2.228,3.776,3.776,0,0,1-1.542,1.534,4.87,4.87,0,0,1-2.347.536,5.24,5.24,0,0,1-2.259-.5,4.052,4.052,0,0,1-1.652-1.361,3.308,3.308,0,0,1-.589-1.954h2.971a1.68,1.68,0,0,0,.448,1.114,1.423,1.423,0,0,0,1.063.412q1.494,0,1.494-2.21,0-2.044-1.828-2.044a1.824,1.824,0,0,0-1.547.667ZM149.135,35.771a6.11,6.11,0,0,1-1.165,4,4.551,4.551,0,0,1-6.587-.009,6.1,6.1,0,0,1-1.169-3.99V33.433a6.11,6.11,0,0,1,1.165-4,4.551,4.551,0,0,1,6.587.009,6.116,6.116,0,0,1,1.169,4Zm-2.962-2.716a4.564,4.564,0,0,0-.36-2.061,1.2,1.2,0,0,0-1.143-.681,1.176,1.176,0,0,0-1.112.633,4.3,4.3,0,0,0-.374,1.916v3.27a4.6,4.6,0,0,0,.36,2.1,1.209,1.209,0,0,0,1.143.664,1.193,1.193,0,0,0,1.116-.646,4.39,4.39,0,0,0,.369-2.026Zm5.59,11.391-1.494-.7.3-.6a4.874,4.874,0,0,0,.642-2.18v-2.2h2.373l-.009,1.907a4.767,4.767,0,0,1-.519,2.057A5.226,5.226,0,0,1,151.763,44.445Zm12.647-8.675a6.11,6.11,0,0,1-1.165,4,4.551,4.551,0,0,1-6.587-.009,6.1,6.1,0,0,1-1.169-3.99V33.433a6.11,6.11,0,0,1,1.165-4,4.551,4.551,0,0,1,6.587.009,6.116,6.116,0,0,1,1.169,4Zm-2.962-2.716a4.564,4.564,0,0,0-.36-2.061,1.2,1.2,0,0,0-1.143-.681,1.176,1.176,0,0,0-1.112.633,4.3,4.3,0,0,0-.374,1.916v3.27a4.6,4.6,0,0,0,.36,2.1,1.209,1.209,0,0,0,1.143.664,1.193,1.193,0,0,0,1.116-.646,4.39,4.39,0,0,0,.369-2.026Zm4.676,1.694.782-6.546h7.479v2.3h-5.071l-.29,2.542a3.493,3.493,0,0,1,.831-.327,4.179,4.179,0,0,1,3.938.988,5.146,5.146,0,0,1,.475,5.4,3.776,3.776,0,0,1-1.542,1.534,4.87,4.87,0,0,1-2.347.536,5.24,5.24,0,0,1-2.259-.5,4.052,4.052,0,0,1-1.652-1.361,3.308,3.308,0,0,1-.589-1.954h2.971a1.68,1.68,0,0,0,.448,1.114,1.423,1.423,0,0,0,1.063.412q1.494,0,1.494-2.21,0-2.044-1.828-2.044a1.824,1.824,0,0,0-1.547.667Zm15.592.389H176.2v-1.3l2.514-2.216a3.124,3.124,0,0,0,.655-.76,1.307,1.307,0,0,0,.215-.549q0-.668-.747-.668a.737.737,0,0,0-.6.264.969.969,0,0,0-.22.642h-1.978a2.3,2.3,0,0,1,.751-1.745,2.725,2.725,0,0,1,1.947-.708,3.314,3.314,0,0,1,2.083.571,1.964,1.964,0,0,1,.729,1.644,2.1,2.1,0,0,1-.374,1.208A7.354,7.354,0,0,1,179.527,33l-.712.594h2.9Zm8.2-2.544-2.865-.79.571-1.659,2.8,1.15-.22-3.091h1.881l-.229,3.152,2.725-1.124.571,1.677-2.9.79,1.925,2.329-1.521,1.037-1.608-2.584-1.617,2.5-1.521-.993Zm10.811,3.2a13.431,13.431,0,0,1,.571-3.99,9.629,9.629,0,0,1,1.578-3.129,5.6,5.6,0,0,1,2.237-1.793l.563,1.459a5.73,5.73,0,0,0-1.9,2.826,13.782,13.782,0,0,0-.681,4.5v.387a14.051,14.051,0,0,0,.672,4.588,5.706,5.706,0,0,0,1.912,2.848l-.562,1.459a5.547,5.547,0,0,1-2.237-1.8,9.484,9.484,0,0,1-1.578-3.116,13.5,13.5,0,0,1-.571-3.85ZM215.738,41h-8.93V39.066l4.113-4.324a4.909,4.909,0,0,0,1.521-2.751,1.913,1.913,0,0,0-.36-1.257,1.287,1.287,0,0,0-1.046-.431,1.3,1.3,0,0,0-1.1.576,2.366,2.366,0,0,0-.422,1.437h-2.971a4.2,4.2,0,0,1,.589-2.175,4.129,4.129,0,0,1,1.635-1.56,4.856,4.856,0,0,1,2.338-.562,4.777,4.777,0,0,1,3.195.958,3.42,3.42,0,0,1,1.121,2.751,4,4,0,0,1-.281,1.472,6.456,6.456,0,0,1-.875,1.5,22.029,22.029,0,0,1-1.912,2.1L210.7,38.715h5.036Zm3.375-2.874a1.686,1.686,0,0,1,1.169.417,1.457,1.457,0,0,1,0,2.136,1.844,1.844,0,0,1-2.342,0,1.456,1.456,0,0,1,0-2.127A1.672,1.672,0,0,1,219.113,38.126Zm12.445-2.355a6.11,6.11,0,0,1-1.165,4,4.551,4.551,0,0,1-6.587-.009,6.1,6.1,0,0,1-1.169-3.99V33.433a6.11,6.11,0,0,1,1.165-4,4.551,4.551,0,0,1,6.587.009,6.116,6.116,0,0,1,1.169,4ZM228.6,33.055a4.564,4.564,0,0,0-.36-2.061,1.2,1.2,0,0,0-1.143-.681,1.176,1.176,0,0,0-1.112.633,4.3,4.3,0,0,0-.374,1.916v3.27a4.6,4.6,0,0,0,.36,2.1,1.209,1.209,0,0,0,1.143.664,1.193,1.193,0,0,0,1.116-.646,4.39,4.39,0,0,0,.369-2.026Zm13.386,2.716a6.11,6.11,0,0,1-1.165,4,4.551,4.551,0,0,1-6.587-.009,6.1,6.1,0,0,1-1.169-3.99V33.433a6.11,6.11,0,0,1,1.165-4,4.551,4.551,0,0,1,6.587.009,6.116,6.116,0,0,1,1.169,4Zm-2.962-2.716a4.564,4.564,0,0,0-.36-2.061,1.2,1.2,0,0,0-1.143-.681,1.176,1.176,0,0,0-1.112.633,4.3,4.3,0,0,0-.374,1.916v3.27a4.6,4.6,0,0,0,.36,2.1,1.209,1.209,0,0,0,1.143.664,1.193,1.193,0,0,0,1.116-.646,4.39,4.39,0,0,0,.369-2.026Zm13.386,2.716a6.11,6.11,0,0,1-1.165,4,4.551,4.551,0,0,1-6.587-.009,6.1,6.1,0,0,1-1.169-3.99V33.433a6.11,6.11,0,0,1,1.165-4,4.551,4.551,0,0,1,6.587.009,6.116,6.116,0,0,1,1.169,4Zm-2.962-2.716a4.564,4.564,0,0,0-.36-2.061,1.2,1.2,0,0,0-1.143-.681,1.176,1.176,0,0,0-1.112.633,4.3,4.3,0,0,0-.374,1.916v3.27a4.6,4.6,0,0,0,.36,2.1,1.209,1.209,0,0,0,1.143.664,1.193,1.193,0,0,0,1.116-.646,4.39,4.39,0,0,0,.369-2.026Zm10.336,3.568H254.5V34.338h5.282ZM268.6,41h-2.971V31.543l-2.918.853v-2.25l5.616-1.942h.272Zm8.578-4.957a12.532,12.532,0,0,1-.606,3.92,10.008,10.008,0,0,1-1.674,3.186,5.574,5.574,0,0,1-2.307,1.806l-.562-1.459a5.787,5.787,0,0,0,1.89-2.812,13.577,13.577,0,0,0,.694-4.368v-.536a14.051,14.051,0,0,0-.672-4.588,5.706,5.706,0,0,0-1.912-2.848l.563-1.459a5.676,5.676,0,0,1,2.29,1.789,9.885,9.885,0,0,1,1.67,3.138,12.426,12.426,0,0,1,.628,3.845Zm11.487-2.3h3v2.54h-3v3.437H285.9V36.28H282.9V33.74H285.9V30.4h2.769ZM303.945,41h-2.971V31.543l-2.918.853v-2.25l5.616-1.942h.272Zm4.948,3.445-1.494-.7.3-.6a4.874,4.874,0,0,0,.642-2.18v-2.2h2.373l-.009,1.907a4.767,4.767,0,0,1-.519,2.057A5.226,5.226,0,0,1,308.894,44.445Zm9.6-8.394a3.128,3.128,0,0,1-2.145.861,3.463,3.463,0,0,1-2.76-1.178,4.64,4.64,0,0,1-1.02-3.146,4.722,4.722,0,0,1,.571-2.285,4.287,4.287,0,0,1,1.6-1.67,4.373,4.373,0,0,1,2.281-.615,4.245,4.245,0,0,1,2.29.637,4.29,4.29,0,0,1,1.6,1.8,6.189,6.189,0,0,1,.589,2.685v1.134a7.693,7.693,0,0,1-.831,3.674,5.734,5.734,0,0,1-2.369,2.391,7.4,7.4,0,0,1-3.586.835h-.185V38.8l.563-.009Q318.148,38.645,318.491,36.052Zm-1.345-1.274a1.442,1.442,0,0,0,1.389-.835v-1.23a3.2,3.2,0,0,0-.413-1.819,1.3,1.3,0,0,0-1.116-.589,1.225,1.225,0,0,0-1.046.668,2.968,2.968,0,0,0-.422,1.617,2.661,2.661,0,0,0,.431,1.6A1.378,1.378,0,0,0,317.146,34.777Zm13.087-6.759v2.329H330.1a4.447,4.447,0,0,0-2.729.8,3.358,3.358,0,0,0-1.314,2.21,3.464,3.464,0,0,1,2.531-.984,3.231,3.231,0,0,1,2.646,1.213,4.892,4.892,0,0,1,.984,3.182A4.48,4.48,0,0,1,331.644,39a4.108,4.108,0,0,1-1.608,1.6,4.622,4.622,0,0,1-2.29.576,4.777,4.777,0,0,1-2.435-.62,4.26,4.26,0,0,1-1.67-1.771,5.832,5.832,0,0,1-.615-2.654V34.944a7.387,7.387,0,0,1,.848-3.555,6.149,6.149,0,0,1,2.421-2.474,6.923,6.923,0,0,1,3.489-.9Zm-2.672,6.618a1.7,1.7,0,0,0-.984.272,1.73,1.73,0,0,0-.589.668v.888q0,2.426,1.679,2.426a1.362,1.362,0,0,0,1.129-.606,2.472,2.472,0,0,0,.453-1.521,2.426,2.426,0,0,0-.461-1.534A1.476,1.476,0,0,0,327.562,34.637Zm11.285.5h-5.52v-1.3l2.514-2.216a3.124,3.124,0,0,0,.655-.76,1.307,1.307,0,0,0,.215-.549q0-.668-.747-.668a.737.737,0,0,0-.6.264.969.969,0,0,0-.22.642h-1.978a2.3,2.3,0,0,1,.751-1.745,2.725,2.725,0,0,1,1.947-.708,3.314,3.314,0,0,1,2.083.571,1.964,1.964,0,0,1,.729,1.644,2.1,2.1,0,0,1-.374,1.208A7.354,7.354,0,0,1,336.658,33l-.712.594h2.9Zm8.2-2.544-2.865-.79.571-1.659,2.8,1.15-.22-3.091h1.881l-.229,3.152,2.725-1.124.571,1.677-2.9.79,1.925,2.329-1.521,1.037-1.608-2.584-1.617,2.5-1.521-.993Zm19.424,3.177a6.11,6.11,0,0,1-1.165,4,4.551,4.551,0,0,1-6.587-.009,6.1,6.1,0,0,1-1.169-3.99V33.433a6.11,6.11,0,0,1,1.165-4,4.551,4.551,0,0,1,6.587.009,6.116,6.116,0,0,1,1.169,4Zm-2.962-2.716a4.564,4.564,0,0,0-.36-2.061,1.2,1.2,0,0,0-1.143-.681,1.176,1.176,0,0,0-1.112.633,4.3,4.3,0,0,0-.374,1.916v3.27a4.6,4.6,0,0,0,.36,2.1,1.209,1.209,0,0,0,1.143.664,1.193,1.193,0,0,0,1.116-.646,4.39,4.39,0,0,0,.369-2.026Zm5.59,11.391-1.494-.7.3-.6a4.874,4.874,0,0,0,.642-2.18v-2.2h2.373l-.009,1.907a4.767,4.767,0,0,1-.519,2.057A5.226,5.226,0,0,1,369.1,44.445Zm3.938-9.7.782-6.546H381.3v2.3h-5.071l-.29,2.542a3.493,3.493,0,0,1,.831-.327,4.179,4.179,0,0,1,3.938.988,5.146,5.146,0,0,1,.475,5.4,3.776,3.776,0,0,1-1.542,1.534,4.87,4.87,0,0,1-2.347.536,5.24,5.24,0,0,1-2.259-.5,4.052,4.052,0,0,1-1.652-1.361,3.308,3.308,0,0,1-.589-1.954h2.971a1.68,1.68,0,0,0,.448,1.114,1.423,1.423,0,0,0,1.063.412q1.494,0,1.494-2.21,0-2.044-1.828-2.044a1.824,1.824,0,0,0-1.547.667Zm17.042-2.156-2.865-.79.571-1.659,2.8,1.15-.22-3.091h1.881l-.229,3.152,2.725-1.124.571,1.677-2.9.79,1.925,2.329-1.521,1.037-1.608-2.584-1.617,2.5-1.521-.993ZM409.5,35.771a6.11,6.11,0,0,1-1.165,4,4.551,4.551,0,0,1-6.587-.009,6.1,6.1,0,0,1-1.169-3.99V33.433a6.11,6.11,0,0,1,1.165-4,4.551,4.551,0,0,1,6.587.009,6.116,6.116,0,0,1,1.169,4Zm-2.962-2.716a4.564,4.564,0,0,0-.36-2.061,1.2,1.2,0,0,0-1.143-.681,1.176,1.176,0,0,0-1.112.633,4.3,4.3,0,0,0-.374,1.916v3.27a4.6,4.6,0,0,0,.36,2.1,1.209,1.209,0,0,0,1.143.664,1.193,1.193,0,0,0,1.116-.646,4.39,4.39,0,0,0,.369-2.026Zm5.59,11.391-1.494-.7.3-.6a4.874,4.874,0,0,0,.642-2.18v-2.2h2.373l-.009,1.907a4.767,4.767,0,0,1-.519,2.057A5.226,5.226,0,0,1,412.13,44.445Zm3.938-9.7.782-6.546h7.479v2.3h-5.071l-.29,2.542a3.493,3.493,0,0,1,.831-.327,4.179,4.179,0,0,1,3.938.988,5.146,5.146,0,0,1,.475,5.4,3.776,3.776,0,0,1-1.542,1.534,4.87,4.87,0,0,1-2.347.536,5.24,5.24,0,0,1-2.259-.5,4.052,4.052,0,0,1-1.652-1.361,3.308,3.308,0,0,1-.589-1.954h2.971a1.68,1.68,0,0,0,.448,1.114,1.423,1.423,0,0,0,1.063.412q1.494,0,1.494-2.21,0-2.044-1.828-2.044a1.824,1.824,0,0,0-1.547.667ZM194.2,75.49l.1,1.116a3.225,3.225,0,0,1,2.716-1.292,2.713,2.713,0,0,1,2.219.888,4.226,4.226,0,0,1,.76,2.672V85h-2.971V79a1.6,1.6,0,0,0-.29-1.059,1.342,1.342,0,0,0-1.055-.338,1.413,1.413,0,0,0-1.292.686V85h-2.962V75.49Zm20.347,3.164h-8.139V76.369h8.139Zm0,3.858h-8.139V80.228h8.139ZM230.016,85h-8.93V83.066l4.113-4.324a4.909,4.909,0,0,0,1.521-2.751,1.913,1.913,0,0,0-.36-1.257,1.287,1.287,0,0,0-1.046-.431,1.3,1.3,0,0,0-1.1.576,2.366,2.366,0,0,0-.422,1.437h-2.971a4.2,4.2,0,0,1,.589-2.175,4.129,4.129,0,0,1,1.635-1.56,4.856,4.856,0,0,1,2.338-.562,4.777,4.777,0,0,1,3.195.958,3.42,3.42,0,0,1,1.121,2.751,4,4,0,0,1-.281,1.472,6.456,6.456,0,0,1-.875,1.5,22.029,22.029,0,0,1-1.912,2.1l-1.652,1.907h5.036Zm3.375-2.874a1.686,1.686,0,0,1,1.169.417,1.457,1.457,0,0,1,0,2.136,1.844,1.844,0,0,1-2.342,0,1.456,1.456,0,0,1,0-2.127A1.672,1.672,0,0,1,233.391,82.126Zm12.445-2.355a6.11,6.11,0,0,1-1.165,4,4.551,4.551,0,0,1-6.587-.009,6.1,6.1,0,0,1-1.169-3.99V77.433a6.11,6.11,0,0,1,1.165-4,4.551,4.551,0,0,1,6.587.009,6.116,6.116,0,0,1,1.169,4Zm-2.962-2.716a4.564,4.564,0,0,0-.36-2.061,1.2,1.2,0,0,0-1.143-.681,1.176,1.176,0,0,0-1.112.633,4.3,4.3,0,0,0-.374,1.916v3.27a4.6,4.6,0,0,0,.36,2.1,1.209,1.209,0,0,0,1.143.664,1.193,1.193,0,0,0,1.116-.646,4.39,4.39,0,0,0,.369-2.026Zm13.386,2.716a6.11,6.11,0,0,1-1.165,4,4.551,4.551,0,0,1-6.587-.009,6.1,6.1,0,0,1-1.169-3.99V77.433a6.11,6.11,0,0,1,1.165-4,4.551,4.551,0,0,1,6.587.009,6.116,6.116,0,0,1,1.169,4ZM253.3,77.055a4.564,4.564,0,0,0-.36-2.061,1.2,1.2,0,0,0-1.143-.681,1.176,1.176,0,0,0-1.112.633,4.3,4.3,0,0,0-.374,1.916v3.27a4.6,4.6,0,0,0,.36,2.1,1.209,1.209,0,0,0,1.143.664,1.193,1.193,0,0,0,1.116-.646,4.39,4.39,0,0,0,.369-2.026Zm13.386,2.716a6.11,6.11,0,0,1-1.165,4,4.551,4.551,0,0,1-6.587-.009,6.1,6.1,0,0,1-1.169-3.99V77.433a6.11,6.11,0,0,1,1.165-4,4.551,4.551,0,0,1,6.587.009,6.116,6.116,0,0,1,1.169,4Zm-2.962-2.716a4.564,4.564,0,0,0-.36-2.061,1.2,1.2,0,0,0-1.143-.681,1.176,1.176,0,0,0-1.112.633,4.3,4.3,0,0,0-.374,1.916v3.27a4.6,4.6,0,0,0,.36,2.1,1.209,1.209,0,0,0,1.143.664,1.193,1.193,0,0,0,1.116-.646,4.39,4.39,0,0,0,.369-2.026Zm11.294-.461-2.865-.79.571-1.659,2.8,1.15-.22-3.091h1.881l-.229,3.152,2.725-1.124.571,1.677-2.9.79,1.925,2.329-1.521,1.037-1.608-2.584-1.617,2.5-1.521-.993Zm13.245.769h1.4a1.453,1.453,0,0,0,1.661-1.626,1.406,1.406,0,0,0-.4-1.033,1.5,1.5,0,0,0-1.116-.4,1.606,1.606,0,0,0-1.024.343,1.046,1.046,0,0,0-.435.853h-2.962a3.032,3.032,0,0,1,.563-1.8,3.715,3.715,0,0,1,1.56-1.235,5.334,5.334,0,0,1,2.193-.444,5.241,5.241,0,0,1,3.357.976,3.243,3.243,0,0,1,1.222,2.681,2.7,2.7,0,0,1-.505,1.56,3.6,3.6,0,0,1-1.472,1.191,3.441,3.441,0,0,1,1.6,1.121,2.951,2.951,0,0,1,.58,1.859,3.3,3.3,0,0,1-1.318,2.742,5.472,5.472,0,0,1-3.463,1.028,5.675,5.675,0,0,1-2.333-.479,3.656,3.656,0,0,1-1.63-1.327,3.45,3.45,0,0,1-.554-1.929h2.979a1.334,1.334,0,0,0,.475,1.02,1.676,1.676,0,0,0,1.169.431,1.755,1.755,0,0,0,1.248-.435,1.454,1.454,0,0,0,.466-1.112,1.7,1.7,0,0,0-.483-1.371,2.021,2.021,0,0,0-1.336-.4h-1.441Zm8.807,11.083-1.494-.7.3-.6a4.874,4.874,0,0,0,.642-2.18v-2.2h2.373l-.009,1.907a4.767,4.767,0,0,1-.519,2.057A5.226,5.226,0,0,1,297.068,88.445ZM309.46,75.622A2.954,2.954,0,0,1,309,77.266a3.361,3.361,0,0,1-1.27,1.143,3.7,3.7,0,0,1,1.45,1.226,3.164,3.164,0,0,1,.536,1.841,3.349,3.349,0,0,1-1.182,2.707,4.909,4.909,0,0,1-3.256.993,5,5,0,0,1-3.287-1,3.325,3.325,0,0,1-1.2-2.7,3.2,3.2,0,0,1,.527-1.819,3.586,3.586,0,0,1,1.494-1.248,3.38,3.38,0,0,1-1.283-1.143,2.934,2.934,0,0,1-.466-1.644,3.284,3.284,0,0,1,1.134-2.637,5.349,5.349,0,0,1,6.135,0A3.284,3.284,0,0,1,309.46,75.622Zm-2.716,5.616a1.69,1.69,0,0,0-.409-1.217,1.423,1.423,0,0,0-1.077-.426,1.438,1.438,0,0,0-1.081.426,1.979,1.979,0,0,0,0,2.426,1.433,1.433,0,0,0,1.094.444,1.377,1.377,0,0,0,1.063-.439A1.723,1.723,0,0,0,306.745,81.238ZM305.25,74.3a1.1,1.1,0,0,0-.91.391,1.7,1.7,0,0,0-.312,1.085,1.8,1.8,0,0,0,.316,1.107,1.092,1.092,0,0,0,.932.422,1.047,1.047,0,0,0,.91-.422,1.856,1.856,0,0,0,.3-1.107,1.7,1.7,0,0,0-.312-1.081A1.109,1.109,0,0,0,305.25,74.3ZM319.076,80h1.3v2.285h-1.3V85h-2.962V82.284h-4.948l-.176-1.811,5.124-8.244V72.2h2.962Zm-5.265,0h2.3V76.062l-.185.3Zm14.66-3.406-2.865-.79.571-1.659,2.8,1.15-.22-3.091h1.881l-.229,3.152,2.725-1.124.571,1.677-2.9.79,1.925,2.329-1.521,1.037L329.6,77.481l-1.617,2.5-1.521-.993ZM347.9,79.771a6.11,6.11,0,0,1-1.165,4,4.551,4.551,0,0,1-6.587-.009,6.1,6.1,0,0,1-1.169-3.99V77.433a6.11,6.11,0,0,1,1.165-4,4.551,4.551,0,0,1,6.587.009,6.116,6.116,0,0,1,1.169,4Zm-2.962-2.716a4.564,4.564,0,0,0-.36-2.061,1.2,1.2,0,0,0-1.143-.681,1.176,1.176,0,0,0-1.112.633,4.3,4.3,0,0,0-.374,1.916v3.27a4.6,4.6,0,0,0,.36,2.1,1.209,1.209,0,0,0,1.143.664,1.193,1.193,0,0,0,1.116-.646,4.39,4.39,0,0,0,.369-2.026Zm5.59,11.391-1.494-.7.3-.6a4.874,4.874,0,0,0,.642-2.18v-2.2h2.373l-.009,1.907a4.767,4.767,0,0,1-.519,2.057A5.226,5.226,0,0,1,350.523,88.445ZM363.214,85h-8.93V83.066l4.113-4.324a4.909,4.909,0,0,0,1.521-2.751,1.913,1.913,0,0,0-.36-1.257,1.287,1.287,0,0,0-1.046-.431,1.3,1.3,0,0,0-1.1.576,2.366,2.366,0,0,0-.422,1.437h-2.971a4.2,4.2,0,0,1,.589-2.175,4.129,4.129,0,0,1,1.635-1.56,4.856,4.856,0,0,1,2.338-.562,4.777,4.777,0,0,1,3.195.958,3.42,3.42,0,0,1,1.121,2.751,4,4,0,0,1-.281,1.472,6.456,6.456,0,0,1-.875,1.5,22.029,22.029,0,0,1-1.912,2.1l-1.652,1.907h5.036Zm1.67-6.251.782-6.546h7.479v2.3h-5.071l-.29,2.542a3.493,3.493,0,0,1,.831-.327,4.179,4.179,0,0,1,3.938.988,5.146,5.146,0,0,1,.475,5.4,3.776,3.776,0,0,1-1.542,1.534,4.87,4.87,0,0,1-2.347.536,5.24,5.24,0,0,1-2.259-.5,4.052,4.052,0,0,1-1.652-1.361,3.308,3.308,0,0,1-.589-1.954h2.971a1.68,1.68,0,0,0,.448,1.114,1.423,1.423,0,0,0,1.063.412q1.494,0,1.494-2.21,0-2.044-1.828-2.044a1.824,1.824,0,0,0-1.547.667Zm-113.99,22,.782-6.546h7.479v2.3h-5.071l-.29,2.542a3.493,3.493,0,0,1,.831-.327,4.179,4.179,0,0,1,3.938.988,5.146,5.146,0,0,1,.475,5.4,3.776,3.776,0,0,1-1.542,1.534,4.87,4.87,0,0,1-2.347.536,5.24,5.24,0,0,1-2.259-.5,4.052,4.052,0,0,1-1.652-1.361,3.308,3.308,0,0,1-.589-1.954h2.971a1.68,1.68,0,0,0,.448,1.114,1.423,1.423,0,0,0,1.063.412q1.494,0,1.494-2.21,0-2.044-1.828-2.044a1.824,1.824,0,0,0-1.547.667Zm20.118-1.009h3v2.54h-3v3.437h-2.769V102.28h-3.006V99.74h3.006V96.4h2.769Zm17.6,2.03a6.11,6.11,0,0,1-1.165,4,4.551,4.551,0,0,1-6.587-.009,6.1,6.1,0,0,1-1.169-3.99V99.433a6.11,6.11,0,0,1,1.165-4,4.551,4.551,0,0,1,6.587.009,6.116,6.116,0,0,1,1.169,4Zm-2.962-2.716a4.564,4.564,0,0,0-.36-2.061,1.2,1.2,0,0,0-1.143-.681,1.176,1.176,0,0,0-1.112.633,4.3,4.3,0,0,0-.374,1.916v3.27a4.6,4.6,0,0,0,.36,2.1,1.209,1.209,0,0,0,1.143.664,1.193,1.193,0,0,0,1.116-.646,4.39,4.39,0,0,0,.369-2.026Zm5.59,11.391-1.494-.7.3-.6a4.874,4.874,0,0,0,.642-2.18v-2.2h2.373l-.009,1.907a4.767,4.767,0,0,1-.519,2.057A5.226,5.226,0,0,1,291.236,110.445Zm9.6-8.394a3.128,3.128,0,0,1-2.145.861,3.463,3.463,0,0,1-2.76-1.178,4.64,4.64,0,0,1-1.02-3.146,4.722,4.722,0,0,1,.571-2.285,4.287,4.287,0,0,1,1.6-1.67,4.373,4.373,0,0,1,2.281-.615,4.245,4.245,0,0,1,2.29.637,4.29,4.29,0,0,1,1.6,1.8,6.189,6.189,0,0,1,.589,2.685v1.134a7.693,7.693,0,0,1-.831,3.674,5.734,5.734,0,0,1-2.369,2.391,7.4,7.4,0,0,1-3.586.835h-.185V104.8l.563-.009Q300.491,104.645,300.834,102.052Zm-1.345-1.274a1.442,1.442,0,0,0,1.389-.835v-1.23a3.2,3.2,0,0,0-.413-1.819,1.3,1.3,0,0,0-1.116-.589,1.225,1.225,0,0,0-1.046.668,2.968,2.968,0,0,0-.422,1.617,2.661,2.661,0,0,0,.431,1.6A1.378,1.378,0,0,0,299.489,100.777Zm13.087-6.759v2.329h-.132a4.447,4.447,0,0,0-2.729.8,3.358,3.358,0,0,0-1.314,2.21,3.464,3.464,0,0,1,2.531-.984,3.231,3.231,0,0,1,2.646,1.213,4.892,4.892,0,0,1,.984,3.182,4.48,4.48,0,0,1-.576,2.241,4.108,4.108,0,0,1-1.608,1.6,4.622,4.622,0,0,1-2.29.576,4.777,4.777,0,0,1-2.435-.62,4.26,4.26,0,0,1-1.67-1.771,5.832,5.832,0,0,1-.615-2.654v-1.187a7.387,7.387,0,0,1,.848-3.555,6.149,6.149,0,0,1,2.421-2.474,6.923,6.923,0,0,1,3.489-.9Zm-2.672,6.618a1.7,1.7,0,0,0-.984.272,1.73,1.73,0,0,0-.589.668v.888q0,2.426,1.679,2.426a1.362,1.362,0,0,0,1.129-.606,2.472,2.472,0,0,0,.453-1.521,2.426,2.426,0,0,0-.461-1.534A1.476,1.476,0,0,0,309.9,100.637ZM247.656,119.49l.1,1.116a3.225,3.225,0,0,1,2.716-1.292,2.713,2.713,0,0,1,2.219.888,4.226,4.226,0,0,1,.76,2.672V129h-2.971v-6a1.6,1.6,0,0,0-.29-1.059,1.342,1.342,0,0,0-1.055-.338,1.413,1.413,0,0,0-1.292.686V129h-2.962v-9.51ZM268,122.654h-8.139v-2.285H268Zm0,3.858h-8.139v-2.285H268Zm13.1,2.487h-2.971v-9.457l-2.918.853v-2.25l5.616-1.942h.272Zm5.739-2.874a1.686,1.686,0,0,1,1.169.417,1.457,1.457,0,0,1,0,2.136,1.844,1.844,0,0,1-2.342,0,1.456,1.456,0,0,1,0-2.127A1.672,1.672,0,0,1,286.846,126.126Zm9.4-2.074a3.128,3.128,0,0,1-2.145.861,3.463,3.463,0,0,1-2.76-1.178,4.64,4.64,0,0,1-1.02-3.146,4.722,4.722,0,0,1,.571-2.285,4.287,4.287,0,0,1,1.6-1.67,4.373,4.373,0,0,1,2.281-.615,4.245,4.245,0,0,1,2.29.637,4.29,4.29,0,0,1,1.6,1.8,6.189,6.189,0,0,1,.589,2.685v1.134a7.693,7.693,0,0,1-.831,3.674,5.734,5.734,0,0,1-2.369,2.391,7.4,7.4,0,0,1-3.586.835h-.185V126.8l.563-.009Q295.9,126.645,296.242,124.052Zm-1.345-1.274a1.442,1.442,0,0,0,1.389-.835v-1.23a3.2,3.2,0,0,0-.413-1.819,1.3,1.3,0,0,0-1.116-.589,1.225,1.225,0,0,0-1.046.668,2.968,2.968,0,0,0-.422,1.617,2.661,2.661,0,0,0,.431,1.6A1.378,1.378,0,0,0,294.9,122.777ZM309.759,129h-8.93v-1.934l4.113-4.324a4.909,4.909,0,0,0,1.521-2.751,1.913,1.913,0,0,0-.36-1.257,1.287,1.287,0,0,0-1.046-.431,1.3,1.3,0,0,0-1.1.576,2.366,2.366,0,0,0-.422,1.437h-2.971a4.2,4.2,0,0,1,.589-2.175,4.129,4.129,0,0,1,1.635-1.56,4.856,4.856,0,0,1,2.338-.562,4.777,4.777,0,0,1,3.195.958,3.42,3.42,0,0,1,1.121,2.751,4,4,0,0,1-.281,1.472,6.456,6.456,0,0,1-.875,1.5,22.029,22.029,0,0,1-1.912,2.1l-1.652,1.907h5.036Zm8.06,0h-2.971v-9.457l-2.918.853v-2.25l5.616-1.942h.272Zm-38.975,15.749.782-6.546h7.479v2.3h-5.071l-.29,2.542a3.493,3.493,0,0,1,.831-.327,4.179,4.179,0,0,1,3.938.988,5.146,5.146,0,0,1,.475,5.4,3.776,3.776,0,0,1-1.542,1.534,4.87,4.87,0,0,1-2.347.536,5.24,5.24,0,0,1-2.259-.5,4.052,4.052,0,0,1-1.652-1.361,3.308,3.308,0,0,1-.589-1.954h2.971a1.68,1.68,0,0,0,.448,1.114,1.423,1.423,0,0,0,1.063.412q1.494,0,1.494-2.21,0-2.044-1.828-2.044a1.824,1.824,0,0,0-1.547.667Zm11.338,9.7-1.494-.7.3-.6a4.874,4.874,0,0,0,.642-2.18v-2.2H292l-.009,1.907a4.767,4.767,0,0,1-.519,2.057A5.226,5.226,0,0,1,290.182,154.445Zm9.6-8.394a3.128,3.128,0,0,1-2.145.861,3.463,3.463,0,0,1-2.76-1.178,4.64,4.64,0,0,1-1.02-3.146,4.722,4.722,0,0,1,.571-2.285,4.287,4.287,0,0,1,1.6-1.67,4.373,4.373,0,0,1,2.281-.615,4.245,4.245,0,0,1,2.29.637,4.29,4.29,0,0,1,1.6,1.8,6.189,6.189,0,0,1,.589,2.685v1.134a7.693,7.693,0,0,1-.831,3.674,5.734,5.734,0,0,1-2.369,2.391,7.4,7.4,0,0,1-3.586.835h-.185V148.8l.563-.009Q299.437,148.645,299.779,146.052Zm-1.345-1.274a1.442,1.442,0,0,0,1.389-.835v-1.23a3.2,3.2,0,0,0-.413-1.819,1.3,1.3,0,0,0-1.116-.589,1.225,1.225,0,0,0-1.046.668,2.968,2.968,0,0,0-.422,1.617,2.661,2.661,0,0,0,.431,1.6A1.378,1.378,0,0,0,298.435,144.777Zm13.087-6.759v2.329h-.132a4.447,4.447,0,0,0-2.729.8,3.358,3.358,0,0,0-1.314,2.21,3.464,3.464,0,0,1,2.531-.984,3.231,3.231,0,0,1,2.646,1.213,4.892,4.892,0,0,1,.984,3.182,4.48,4.48,0,0,1-.576,2.241,4.108,4.108,0,0,1-1.608,1.6,4.622,4.622,0,0,1-2.29.576,4.777,4.777,0,0,1-2.435-.62,4.26,4.26,0,0,1-1.67-1.771,5.832,5.832,0,0,1-.615-2.654v-1.187a7.387,7.387,0,0,1,.848-3.555,6.149,6.149,0,0,1,2.421-2.474,6.923,6.923,0,0,1,3.489-.9Zm-2.672,6.618a1.7,1.7,0,0,0-.984.272,1.73,1.73,0,0,0-.589.668v.888q0,2.426,1.679,2.426a1.362,1.362,0,0,0,1.129-.606,2.472,2.472,0,0,0,.453-1.521,2.426,2.426,0,0,0-.461-1.534A1.476,1.476,0,0,0,308.85,144.637Zm-60.9,40.854.1,1.116a3.225,3.225,0,0,1,2.716-1.292,2.713,2.713,0,0,1,2.219.888,4.226,4.226,0,0,1,.76,2.672V195h-2.971v-6a1.6,1.6,0,0,0-.29-1.059,1.342,1.342,0,0,0-1.055-.338,1.413,1.413,0,0,0-1.292.686V195h-2.962v-9.51Zm20.347,3.164h-8.139v-2.285H268.3Zm0,3.858h-8.139v-2.285H268.3Zm9.246-5.15h1.4a1.453,1.453,0,0,0,1.661-1.626,1.406,1.406,0,0,0-.4-1.033,1.5,1.5,0,0,0-1.116-.4,1.606,1.606,0,0,0-1.024.343,1.046,1.046,0,0,0-.435.853h-2.962a3.032,3.032,0,0,1,.563-1.8,3.715,3.715,0,0,1,1.56-1.235,5.334,5.334,0,0,1,2.193-.444,5.241,5.241,0,0,1,3.357.976,3.243,3.243,0,0,1,1.222,2.681,2.7,2.7,0,0,1-.505,1.56,3.6,3.6,0,0,1-1.472,1.191,3.441,3.441,0,0,1,1.6,1.121,2.951,2.951,0,0,1,.58,1.859,3.3,3.3,0,0,1-1.318,2.742,5.472,5.472,0,0,1-3.463,1.028,5.675,5.675,0,0,1-2.333-.479,3.656,3.656,0,0,1-1.63-1.327,3.45,3.45,0,0,1-.554-1.929h2.979a1.334,1.334,0,0,0,.475,1.02,1.676,1.676,0,0,0,1.169.431,1.755,1.755,0,0,0,1.248-.435,1.454,1.454,0,0,0,.466-1.112,1.7,1.7,0,0,0-.483-1.371,2.021,2.021,0,0,0-1.336-.4h-1.441ZM294.189,195h-8.93v-1.934l4.113-4.324a4.909,4.909,0,0,0,1.521-2.751,1.913,1.913,0,0,0-.36-1.257,1.287,1.287,0,0,0-1.046-.431,1.3,1.3,0,0,0-1.1.576,2.366,2.366,0,0,0-.422,1.437H285a4.2,4.2,0,0,1,.589-2.175,4.129,4.129,0,0,1,1.635-1.56,4.856,4.856,0,0,1,2.338-.562,4.777,4.777,0,0,1,3.195.958,3.42,3.42,0,0,1,1.121,2.751,4,4,0,0,1-.281,1.472,6.456,6.456,0,0,1-.875,1.5,22.029,22.029,0,0,1-1.912,2.1l-1.652,1.907h5.036Zm10.424,0h-8.93v-1.934l4.113-4.324a4.909,4.909,0,0,0,1.521-2.751,1.913,1.913,0,0,0-.36-1.257,1.287,1.287,0,0,0-1.046-.431,1.3,1.3,0,0,0-1.1.576,2.366,2.366,0,0,0-.422,1.437H295.42a4.2,4.2,0,0,1,.589-2.175,4.129,4.129,0,0,1,1.635-1.56,4.856,4.856,0,0,1,2.338-.562,4.777,4.777,0,0,1,3.195.958,3.42,3.42,0,0,1,1.121,2.751,4,4,0,0,1-.281,1.472,6.456,6.456,0,0,1-.875,1.5,22.029,22.029,0,0,1-1.912,2.1l-1.652,1.907h5.036Zm2.584,3.445-1.494-.7.3-.6a4.874,4.874,0,0,0,.642-2.18v-2.2h2.373l-.009,1.907a4.767,4.767,0,0,1-.519,2.057A5.226,5.226,0,0,1,307.2,198.445ZM318.781,190h1.3v2.285h-1.3V195h-2.962v-2.716h-4.948l-.176-1.811,5.124-8.244V182.2h2.962Zm-5.265,0h2.3v-3.937l-.185.3Z" transform="translate(780 7883)" fill="#12263f"/></g></svg>