<svg xmlns="http://www.w3.org/2000/svg" xmlns:xlink="http://www.w3.org/1999/xlink" width="97.501" height="98.577" viewBox="0 0 97.501 98.577"><defs><clipPath id="a"><rect width="97.501" height="98.577" fill="none"/></clipPath></defs><g clip-path="url(#a)"><path d="M49.692,41.669a32.368,32.368,0,0,0-2.751-5.723c-.49-.726-1.259-1.17-1.606-2.017-.334-.817-1.191-1.177-1.8-1.747A15.305,15.305,0,0,0,39.019,29.2a24.372,24.372,0,0,0-5.094-1.543c-2.628-.487-5.232-.224-7.844-.3s-5.2-.119-7.8.021a16.65,16.65,0,0,0-4.766.882,19.976,19.976,0,0,0-5.365,2.693,22.186,22.186,0,0,0-6.69,8.755,9.963,9.963,0,0,0-.934,3.26c-.048.954-.6,1.76-.47,2.744.122.952-.08,1.947.049,2.9a17.573,17.573,0,0,0,1.3,5.444,1.686,1.686,0,0,1,.187.5,6.332,6.332,0,0,1,.008.773,6.065,6.065,0,0,0-1.031,6.7,5.9,5.9,0,0,0,5.451,3.687c.32,1.6.357,3.232.6,4.812A13.851,13.851,0,0,0,9.541,77.4c.434.523.7,1.138,1.176,1.651A16.031,16.031,0,0,0,17.239,83.6c-.05.88-.852.981-1.262,1.238a11.745,11.745,0,0,0-4.032,4.317c-.874,1.582-1.968,3.188-1.969,5.161-.593.778-.366,1.687-.373,2.549-.02,2.32-.007,4.64-.007,7.1H34.1l.6.615v2.846H53.3v4.115a1.7,1.7,0,0,0,.282.2.25.25,0,0,0,.187,0c3.729-2.538,7.454-5.081,11.377-7.758H87.97c0-2.89.106-5.721-.044-8.537A9.9,9.9,0,0,0,86.7,91.341a2.328,2.328,0,0,1-.252-1.06c1.089-.714,2.329-1.125,3.407-1.9a21.017,21.017,0,0,0,4.975-5.239,14.531,14.531,0,0,0,2.084-4.734,13.049,13.049,0,0,0,.571-3.25c-.007-8-.02-16,.016-24,.005-1.079-.468-2.037-.456-3.131a9.608,9.608,0,0,0-.72-2.965,16.424,16.424,0,0,0-1.146-2.8A45.706,45.706,0,0,0,91.345,36.3c-2.664-3.444-6.3-5.359-9.952-7.328-1.886-.294-3.627-1.315-5.579-1.22-.656.032-1.054-.6-1.752-.441a16.9,16.9,0,0,1-1.894.043c-.849.095-1.718-.265-2.56.252-.731.449-1.746-.253-2.452.509-3.931.364-7.133,2.685-9.853,4.3-1.251,1.54-3.018,2.474-4.231,4.156-1.179,1.634-2.175,3.364-3.379,5.1" transform="translate(0 -13.185)" fill="#040506"/><path d="M79.757,0,66.071,9.285c2.078,1.922,4.514,3.229,6.734,4.817,2.24,1.6,4.569,3.086,6.967,4.707.014-.747.034-1.49.041-2.235.007-.765,0-1.529,0-2.355H98.184a1.763,1.763,0,0,0,.2-.191.314.314,0,0,0,.065-.164c0-3.085,0-6.169,0-9.379h-18.7Z" transform="translate(-32.553)" fill="#050506"/><path d="M101.387,49.876a41,41,0,0,1,5.88,1.206c1.786.6,3.589,1.13,5.8,1.976h9.748c1.934-2.581,2.954-5.826,5.361-8.1,1.618.249,2.185,1.583,2.885,2.784,1.028,1.763,2.07,3.518,3.119,5.3h3.342a12.3,12.3,0,0,0,1.294.765,4.143,4.143,0,0,1,2.172,2.931,11.274,11.274,0,0,1,.339,3.528c.013,2.515-.094,5.035.034,7.544a32.823,32.823,0,0,1-.471,6.024,15.356,15.356,0,0,1-2.533,6.457A16.951,16.951,0,0,1,130,87.007a18.728,18.728,0,0,1,4.3,3.7,8.747,8.747,0,0,0,3.836-1.781,14.812,14.812,0,0,0,4.589-5.374,20.514,20.514,0,0,0,1.332-4.483c.488-2.608.224-5.194.3-7.786.073-2.577.016-5.159.016-7.738a79.1,79.1,0,0,0-.053-7.927c-.34-3.354-.871-6.709-2.6-9.725a23.208,23.208,0,0,0-4.885-6.435,24.534,24.534,0,0,0-8.873-4.794,13.282,13.282,0,0,0-3.01-.531c-1.516-.088-3.044.041-4.561-.038a15.333,15.333,0,0,0-6.093,1.4,21.28,21.28,0,0,0-8.428,5.89A22.546,22.546,0,0,0,101.4,49.16a2.241,2.241,0,0,0-.01.716" transform="translate(-49.94 -16.471)" fill="#525a66"/><path d="M20.5,46.836c-4.131.148-6.619,2.292-7.866,6.266a96.225,96.225,0,0,0,10.434-.086A8.516,8.516,0,0,0,30.145,48,8.024,8.024,0,0,0,31.22,43.47c1.128-.1,2.233-.023,3.395-.053.3,1.315-.747,2.467-.186,3.868a11.789,11.789,0,0,1,9.641,3.507,21.238,21.238,0,0,1,6.314-.746c-.689-2.092-.569-4.138-1.548-6.061a19.681,19.681,0,0,0-3.7-5.581A16.367,16.367,0,0,0,37.8,34.458a13.385,13.385,0,0,0-2.706-.322c-4.563-.01-9.125.016-13.687-.011a13.788,13.788,0,0,0-8.892,3.388,15.818,15.818,0,0,0-2.846,2.815A21.579,21.579,0,0,0,6.929,45.77a4.232,4.232,0,0,0-.388,2.536c.172.691-.515,1.112-.4,1.78a25.136,25.136,0,0,0,.924,5.224c.16.406.042.872.422,1.291.52-.072,1-.563,1.621-.423a26.1,26.1,0,0,1,.835-4.93c.681-2.151,1.652-4.052,3.694-5.182.706-1.143,1.984-1.327,3.05-1.851a2.588,2.588,0,0,1,1.737-.413c.56.125,1.083-.044,1.723-.842-.063,1.63.835,2.693.354,3.877" transform="translate(-3.018 -16.489)" fill="#a56434"/><path d="M46.578,95.07c-.237-.595-.922-.371-1.391-.619a45.355,45.355,0,0,1-6.856-4.2,66.071,66.071,0,0,1-5.7-5.537,3.978,3.978,0,0,1-1.2-3.156c.052-.7.009-1.417.009-1.793.507-2.038,1.857-3.079,2.991-4.295a31.671,31.671,0,0,1,6.648-5.608,22.849,22.849,0,0,1,5.289-2.551c-.325-.942-1.367-.756-1.812-1.373-1.922.126-3.78-.8-5.823-.276A11.249,11.249,0,0,1,33.4,70.33a10.468,10.468,0,0,1-4.329,1.063c-3.346-.091-6.7-.028-10.176-.028V73.3c0,4.254.076,8.509-.026,12.76-.071,2.936,1.2,5.392,2.309,7.932,2.394,2.467,4.606,5.147,8.324,5.7a17.966,17.966,0,0,0,2.511.321c1.71.011,3.42-.015,5.129.007A11.16,11.16,0,0,0,45.1,96.738c.533-.5,1.326-.765,1.473-1.668" transform="translate(-9.293 -31.653)" fill="#efc5a5"/><path d="M118.584,94.83a13.836,13.836,0,0,0,5.558,4.04,11.1,11.1,0,0,0,4.827.773c1.519-.065,3.044.025,4.564-.022a11.394,11.394,0,0,0,7.963-3.33c.182-.18.351-.374.539-.546a12.091,12.091,0,0,0,3.98-7.422c.6-.634.37-1.429.372-2.162.016-4.765.008-9.529.008-14.206a2.982,2.982,0,0,0-2.568-.988c-1,.047-2.011.01-3.039.01l-3.662-6.271c-1.578,2.07-2.329,4.6-4.342,6.346h-6.427a24.666,24.666,0,0,1,4.622,4.189c1.094,1.086,2.354,2.053,2.862,3.642,0,.834-.053,1.673.013,2.5a3.8,3.8,0,0,1-1.088,2.824,43.769,43.769,0,0,1-4.978,5.053,27,27,0,0,1-8.748,5.111c-.107.034-.182.175-.457.455" transform="translate(-58.426 -31.267)" fill="#efc5a5"/><path d="M85.463,140.158l3.23,2.168c.968-1.526.867-3.4,1.859-4.919a18.134,18.134,0,0,1-10.573-11.8,33.816,33.816,0,0,1-3.548-.19,25.539,25.539,0,0,0-3.314-.666,37.826,37.826,0,0,1-3.677,3.666,13.053,13.053,0,0,1-4.257,2.391c.645.974,1.825,1.178,2.495,2a21.688,21.688,0,0,1,2.229,2.529,28.766,28.766,0,0,1,1.832,2.908c.43.973.515,2.1.929,3.084.474,1.129.056,2.263.284,3.434a.411.411,0,0,0,.09.078.342.342,0,0,0,.164.06c4.042,0,8.084,0,12.257,0Z" transform="translate(-32.116 -60.283)" fill="#f7f9fa"/><path d="M142.976,156.4a37.792,37.792,0,0,0-.025-3.976c-.256-2.342-1.08-5.617-3.272-7.711a11.361,11.361,0,0,0-3.088-2.541c-.653.471-.628,1.5-1.19,2.211a5.834,5.834,0,0,1-4.07,2.324,6.818,6.818,0,0,1-2.782-.159c-2.281-1-2.439-1.033-3.829-3.314a11.452,11.452,0,0,1-.529-1.108,13.227,13.227,0,0,0-6.371,10.59A56.3,56.3,0,0,0,123,156.4h19.973" transform="translate(-58.049 -68.675)" fill="#ffcd58"/><path d="M46.964,157.291v-2.978H49.87c.5-1.711-.213-3.233-.681-4.688a12,12,0,0,0-4.133-5.51l-2.111,6.275a2.285,2.285,0,0,1-.237,0,.308.308,0,0,1-.168-.049c-1.654-1.678-3.305-3.358-5.041-5.125-1.946,1.677-3.509,3.685-5.5,5.35-.753-2.248-1.451-4.33-2.154-6.427-4.4,3.42-5.312,8-4.887,13.153Z" transform="translate(-12.251 -69.638)" fill="#dfe4e9"/><path d="M96.035,88.232c-.275-.938.447-1.949.447-3.1s-.722-2.158-.449-3.091c-1.948-5.15-5.473-8.1-10.728-8.066-5.174.035-8.625,3-10.535,8.065.275.938-.447,1.949-.447,3.1s.722,2.158.449,3.091c1.947,5.15,5.473,8.1,10.728,8.066,5.174-.035,8.625-3,10.535-8.065" transform="translate(-36.619 -35.746)" fill="#5ec1e5"/><path d="M63.453,95.995a14.97,14.97,0,0,1,.049-21.2l-.318-.266a13.577,13.577,0,0,0-1.77.611,27.588,27.588,0,0,0-7.406,4.734c-.64.633-1.4,1.193-2.1,1.807-.755.669-1.139,1.615-1.842,2.342a2.081,2.081,0,0,0,.048,2.843c1.189,1.321,1.992,3.044,3.722,3.821,1.9,2.131,4.383,3.384,6.855,4.637.775.392,1.613.655,2.422.978l.338-.306" transform="translate(-24.404 -36.012)" fill="#bfc6d0"/><path d="M115.407,74.823a21.8,21.8,0,0,1,2.788,3.805,14.841,14.841,0,0,1,1.466,4.395,13.346,13.346,0,0,1-.009,4.809,16.275,16.275,0,0,1-1.5,4.382c-.728,1.381-1.844,2.495-2.505,4.045a13.709,13.709,0,0,0,1.77-.612,27.557,27.557,0,0,0,7.406-4.735c.64-.633,1.4-1.193,2.1-1.807.755-.669,1.139-1.615,1.841-2.342a2.081,2.081,0,0,0-.049-2.843c-1.19-1.32-1.991-3.046-3.722-3.821-1.9-2.132-4.383-3.383-6.855-4.637-.775-.393-1.613-.655-2.421-.977l-.309.337" transform="translate(-56.861 -35.992)" fill="#bfc6d0"/><path d="M93.343,171.335c.237.658-.011,1.2.354,1.745l4.614-3.175-4.649-3.137c-.355.418-.08.943-.269,1.517h-18.9v3.05Z" transform="translate(-36.702 -80.584)" fill="#e55b73"/><path d="M106.013,124.676c-.793.425-1.789.24-2.588.523-.9.318-1.8.161-2.657.385a15.63,15.63,0,0,0,9.151,8.967,31.02,31.02,0,0,1,4.19-3.769c-1.769-.551-1.769-.551-8.095-6.105" transform="translate(-49.648 -60.244)" fill="#525a66"/><path d="M142.767,139.648c-.291-.386-.818-.184-.993-.67-1.683.216-3.459-.411-5.169.6a3.365,3.365,0,0,0,2.351,2.518,3.219,3.219,0,0,0,3.811-2.446" transform="translate(-67.305 -67.155)" fill="#eac1a2"/><path d="M6.769,88.052a4.389,4.389,0,0,0,2.436,1.811V83.61a2.425,2.425,0,0,0-2.447,1.55,2.666,2.666,0,0,0,.011,2.892" transform="translate(-3.122 -40.4)" fill="#edc3a3"/><path d="M44.551,139.217c-.728-.356-1.3.024-1.935.156a10.005,10.005,0,0,0-1.861.6,3.36,3.36,0,0,0,.692,2.343c1.086-1,2.044-2.069,3.1-3.094" transform="translate(-20.08 -67.199)" fill="#afb5be"/><path d="M52.107,139.316l2.77,2.819A2.493,2.493,0,0,0,55.4,140.1a9.28,9.28,0,0,0-3.293-.781" transform="translate(-25.673 -67.316)" fill="#b8bec7"/><path d="M82.524,13.967c-.346-.639.075-1.215-.435-1.678-1.682.748-3.033,2.085-4.69,2.961,1.36,1.432,3.179,2.161,4.64,3.383.559-.477.161-1.047.425-1.624h18.494V13.967Z" transform="translate(-38.134 -5.938)" fill="#e55b73"/><path d="M95.76,91.027A9.812,9.812,0,0,0,96,85.647c-.952-2.576-2.467-4.413-4.887-5.19a6.555,6.555,0,0,0-3.7-.581c-5.159,1.372-6.612,4.44-6.935,8.057-.178,1.988.879,3.746,1.989,5.311a6.624,6.624,0,0,0,3.561,2.374,7.825,7.825,0,0,0,9.727-4.591" transform="translate(-39.644 -38.545)" fill="#040607"/><path d="M93.019,95.778a4.314,4.314,0,0,0,3.167-3.233c.663-4-1.783-6.536-5.774-5.9a4.314,4.314,0,0,0-3.168,3.234c-.662,4,1.783,6.536,5.774,5.9" transform="translate(-42.933 -41.819)" fill="#36b6e6"/></g></svg>