<svg xmlns="http://www.w3.org/2000/svg" xmlns:xlink="http://www.w3.org/1999/xlink" width="167" height="167" viewBox="0 0 167 167"><defs><clipPath id="a"><rect width="88.277" height="88.178" fill="none"/></clipPath></defs><g transform="translate(-302.948 -7105)"><circle cx="83.5" cy="83.5" r="83.5" transform="translate(302.948 7105)" fill="#ced371"/><g transform="translate(341.948 7144)"><g clip-path="url(#a)"><path d="M86.046,88.491a4.344,4.344,0,0,1,1.691-.86l1.041-2.017V41.194l-.967-1.88L85.9,38.329H55.394c-7.045,0-14.09.013-21.135-.009-1.9-.006-3.407.528-4.052,2.517-.033.1-.172.168-.248.238q0,21.6,0,43.153a4.523,4.523,0,0,0,.374,2.243,3.589,3.589,0,0,0,3.364,2.015q26.186.014,52.354.006" transform="translate(-15.25 -19.509)" fill="#040506"/><path d="M10.3,126.578a5.77,5.77,0,0,0-3.215-3.2c-.755,0-1.658-.035-2.556.011-.744.037-1.136.756-1.736,1.1a3.383,3.383,0,0,0-1.176,1.852,13.533,13.533,0,0,0-.15,3.371c.59.727.64,1.732,1.576,2.272A5.837,5.837,0,0,0,0,135.537V141.2l1.467,1.421v8.285h8.737v-8.2l1.55-1.379V135.5a5.546,5.546,0,0,0-3.048-3.455c.88-.623,1.057-1.563,1.589-2.357Z" transform="translate(-0.001 -62.803)" fill="#040506"/><path d="M157.321,129.6c.562.71.633,1.7,1.54,2.248a5.963,5.963,0,0,0-3,3.307V141.1l1.449,1.317v8.369h8.713c-.031.027.022-.006.056-.053a.3.3,0,0,0,.065-.155c0-2.64,0-5.28,0-7.883l1.467-1.436v-5.925c-.674-1.479-1.395-2.749-3.069-3.389.882-.635,1.057-1.567,1.605-2.384a18.737,18.737,0,0,0-.126-3.347c-.166-.682-.906-1.057-1.029-1.781-.773-.036-1.052-.848-1.761-1.08-.914-.3-1.8.019-2.605-.208a7.1,7.1,0,0,0-3.31,3.183Z" transform="translate(-79.349 -62.695)" fill="#040506"/><path d="M10.272,26.177V19.49l1.446-1.3v-6.1A5.471,5.471,0,0,0,8.7,8.8c.885-.632,1.06-1.567,1.517-2.248.466-2.85-.11-5.194-3.239-6.47H4.647C4.01.466,3.086.725,2.7,1.329,2.3,1.951,1.592,2.4,1.476,3.2V6.463c.564.716.634,1.707,1.574,2.27A5.733,5.733,0,0,0,.012,12.315V17.96l1.457,1.349v6.869Z" transform="translate(-0.006 -0.044)" fill="#040506"/><path d="M162.985,60.1a13.77,13.77,0,0,0-2.666.131c-.673.2-1.053.914-1.775,1.038-.045.77-.863,1.047-1.068,1.77-.326,1.149-.036,2.291-.187,3.405.571.754.673,1.772,1.51,2.339-.284.168-.445.409-.719.569a4.26,4.26,0,0,0-2.244,3.9c0,1.592,0,3.183,0,4.745l1.521,1.525v6.727c.234.019.408.045.582.045,2.687,0,5.374,0,8.128,0V79.535l1.539-1.481c0-1.464-.021-2.93.005-4.4A4.482,4.482,0,0,0,165.1,69.2a2.235,2.235,0,0,1-.434-.426,3.556,3.556,0,0,0,1.322-2.146,13.91,13.91,0,0,0,.068-3.407,6.608,6.608,0,0,0-3.069-3.124" transform="translate(-79.337 -30.595)" fill="#040506"/><path d="M7.09,60.242a13.3,13.3,0,0,0-2.558.057c-.283.057-.866.132-1.021.6s-.8.223-1.011.842c-.182.53-.885,1.048-.979,1.6a19.345,19.345,0,0,0-.053,3.239c.587.72.633,1.727,1.571,2.266A5.84,5.84,0,0,0,0,72.4v5.665L1.474,79.5v6.8h8.732v-6.65l1.511-1.375V72.281a5.422,5.422,0,0,0-2.953-3.35,7.24,7.24,0,0,0,1.531-2.525V63.451a5.756,5.756,0,0,0-3.2-3.209" transform="translate(0 -30.652)" fill="#040506"/><path d="M166.121,3.3a5.9,5.9,0,0,0-3.382-3.3c-.56,0-1.414-.031-2.263.019-.256.015-.439.308-.758.385-.424.1-.573.785-1.162.728-.053.6-.678.833-.856,1.3-.108.284-.376.5-.387.754-.046,1.1-.02,2.2-.02,3.226.616.727.635,1.753,1.481,2.214-.435.633-1.227.73-1.676,1.322a4.848,4.848,0,0,0-1.288,3.158c.053,1.594.013,3.191.013,4.781l1.495,1.5v6.75h8.723V19.438l1.511-1.381v-6.01c-1.194-2.123-1.194-2.123-2.857-3.319a5.23,5.23,0,0,0,1.437-3.769,14.243,14.243,0,0,1-.011-1.654" transform="translate(-79.322 0)" fill="#040506"/><path d="M41.9,146.534H39.145a.878.878,0,0,0-.13.126.306.306,0,0,0-.059.158c0,2.023,0,4.046,0,6.169l1.471,1.276v8.326a.931.931,0,0,0,.129.116.326.326,0,0,0,.159.056c2.8,0,5.609,0,8.476,0v-8.237l1.505-1.455v-6.537H47.781c-.112.145-.308.3-.3.453.292,3.584-2.207,6.691-1.744,10.306a2.3,2.3,0,0,1-.328,1.606c-.786.425-1.252.174-1.424-.695a5.892,5.892,0,0,1-.067-1.1,9.028,9.028,0,0,0-.02-1.647c-.593-2.992-1.534-5.906-2.007-8.927" transform="translate(-19.831 -74.601)" fill="#040506"/><path d="M80.858,146.534H78.106a.879.879,0,0,0-.13.126.306.306,0,0,0-.059.158c0,2.023,0,4.046,0,6.169l1.471,1.276v8.44c2.9.136,5.8.011,8.764.076v-8.253l1.505-1.455v-6.537H86.742c-.112.145-.307.3-.3.453.292,3.584-2.206,6.691-1.746,10.306a2.182,2.182,0,0,1-.347,1.617c-.766.414-1.232.163-1.4-.705a5.893,5.893,0,0,1-.067-1.1,9.028,9.028,0,0,0-.02-1.647c-.594-2.992-1.534-5.906-2.007-8.927" transform="translate(-39.667 -74.601)" fill="#040506"/><path d="M119.819,146.534h-2.751a.878.878,0,0,0-.13.126.306.306,0,0,0-.059.158c0,2.023,0,4.046,0,6.169l1.471,1.276v8.44c2.9.136,5.8.011,8.764.076v-8.253l1.505-1.455v-6.537H125.7c-.112.145-.308.3-.3.453.292,3.584-2.206,6.691-1.746,10.306a2.182,2.182,0,0,1-.347,1.617c-.766.414-1.232.163-1.4-.705a5.892,5.892,0,0,1-.067-1.1,9.027,9.027,0,0,0-.02-1.647c-.593-2.992-1.534-5.906-2.007-8.927" transform="translate(-59.502 -74.601)" fill="#040506"/><path d="M125.67,15.879h2.757c.421-3.177.589-5-2.724-7.159,1.318-1.59,1.438-2.045,1.438-5.456A6.239,6.239,0,0,0,123.859.02h-2.418A7.133,7.133,0,0,0,118.366,3.1c-.153,2.025-.285,4.046,1.46,5.628a5.29,5.29,0,0,0-2.512,2.449,3.727,3.727,0,0,0-.494,1.834c.094.9.023,1.826.023,2.867h2.942a1.957,1.957,0,0,0,.48-1.531c-.018-1.7.979-2.518,2.411-3,1.572.448,2.518,1.313,2.514,3a1.973,1.973,0,0,0,.48,1.531" transform="translate(-59.468 -0.01)" fill="#050506"/><path d="M47.747,15.879h2.847c.319-2.889.3-5.615-2.936-7.124,1.786-1.54,1.61-3.533,1.537-5.544A6.2,6.2,0,0,0,45.936.02H43.518A7.133,7.133,0,0,0,40.443,3.1c-.153,2.025-.285,4.046,1.46,5.628a5.29,5.29,0,0,0-2.512,2.449,3.727,3.727,0,0,0-.494,1.834c.094.9.023,1.826.023,2.867h2.942a1.973,1.973,0,0,0,.48-1.531A2.9,2.9,0,0,1,44.8,11.367a2.9,2.9,0,0,1,2.462,2.981,1.973,1.973,0,0,0,.48,1.531" transform="translate(-19.797 -0.01)" fill="#050506"/><path d="M86.709,15.879h2.857c.274-2.877.349-5.639-2.979-7.1,1.819-1.568,1.643-3.561,1.569-5.573A6.2,6.2,0,0,0,84.9.02H82.48A7.133,7.133,0,0,0,79.4,3.1c-.153,2.025-.285,4.046,1.46,5.628a5.29,5.29,0,0,0-2.512,2.449,3.727,3.727,0,0,0-.494,1.834c.094.9.023,1.826.023,2.867h2.942a1.957,1.957,0,0,0,.48-1.531c-.018-1.7.979-2.518,2.411-3,1.572.448,2.518,1.313,2.514,3a1.973,1.973,0,0,0,.48,1.531" transform="translate(-39.633 -0.01)" fill="#050506"/><path d="M44.948,146.534v5.354l1.471,1.414v6.447h2.828c-.024.027.024-.014.055-.065a.331.331,0,0,0,.057-.159c0-2.022,0-4.044,0-6.161l1.471-1.282v-5.548Z" transform="translate(-22.883 -74.601)" fill="#063b7c"/><path d="M83.91,146.534v5.354l1.47,1.414v6.447h2.828c-.024.027.024-.014.055-.065a.331.331,0,0,0,.057-.159c0-2.022,0-4.044,0-6.161l1.471-1.282v-5.548Z" transform="translate(-42.719 -74.601)" fill="#063b7c"/><path d="M122.871,146.534v5.354l1.471,1.414v6.447h2.828c-.024.027.024-.014.055-.065a.331.331,0,0,0,.057-.159c0-2.022,0-4.044,0-6.161l1.471-1.282v-5.548Z" transform="translate(-62.554 -74.601)" fill="#063b7c"/><path d="M89.795,26.972V23.9c-.574-.975-1.682-1.3-2.4-2.09H86.307c-.715.786-1.823,1.114-2.4,2.09v3.074Z" transform="translate(-42.719 -11.103)" fill="#063a7b"/><path d="M128.756,26.972V23.9c-.574-.975-1.682-1.3-2.4-2.09h-1.091c-.715.786-1.823,1.114-2.4,2.09v3.074Z" transform="translate(-62.554 -11.103)" fill="#063a7b"/><path d="M50.833,26.972V23.9c-.574-.975-1.682-1.3-2.4-2.09H47.345c-.663.764-1.744,1.027-2.4,2.19v2.973Z" transform="translate(-22.883 -11.103)" fill="#063a7b"/><path d="M36.09,88.117l.438.44H88.486l.471-.472V44.846c-.272-.174-.373-.528-.75-.505-.305.018-.613,0-.919,0H36.9c-.118,0-.237.018-.352.028l-.458.459Z" transform="translate(-18.373 -22.573)" fill="#53a970"/><path d="M7.5,158.971h2.884v-6.364l1.509-1.512v-4.1c-.949-.936-1.866-2.05-3.437-2.049-.708.816-1.792,1.093-2.389,2.143v3.855l1.433,1.38Z" transform="translate(-3.087 -73.792)" fill="#053b7c"/><path d="M11.937,130.181l-.915-.917H9.9l-.894.942v1.5l1.465,1.455,1.467-1.563v-1.421" transform="translate(-4.584 -65.808)" fill="#073a79"/><path d="M167.733,147.066c-1.672-1.687-2.118-1.956-3.381-2.036a10.561,10.561,0,0,0-2.488,2.064v4.046l1.434,1.31v6.524h2.95V152.6l1.485-1.483Z" transform="translate(-82.405 -73.835)" fill="#053b7c"/><path d="M166.393,133.4l1.391-1.53v-1.713l-1.026-.848h-1.03l-.832,1.064V131.9l1.5,1.5" transform="translate(-83.948 -65.831)" fill="#073a79"/><path d="M9.444,21.757c-1.645.018-2.5,1.135-3.437,2.042v4.079l1.5,1.5v4.9h2.833V29.416L11.848,28V23.858c-.489-.943-1.6-1.282-2.4-2.1" transform="translate(-3.058 -11.076)" fill="#053b7c"/><path d="M10.39,10.113l1.493-1.667V6.828l-.9-.576c-.2-.345-.567-.206-1.13-.272L9.208,7.157l-.214-.215V8.713l1.4,1.4" transform="translate(-4.579 -3.044)" fill="#073a79"/><path d="M166.226,89.5l1.51-1.492V83.958c-.539-.937-1.59-1.347-2.5-2.119-1.4-.02-2.314,1.023-3.318,2.025v3.9l1.483,1.47v5.152h2.824Z" transform="translate(-82.433 -41.664)" fill="#053b7c"/><path d="M164.85,67.345v1.511l1.315,1.445c.743-.168,1-.894,1.575-1.254v-2.02l-1.167-.789H165.7l-.854,1.107" transform="translate(-83.925 -33.722)" fill="#073a79"/><path d="M7.492,89.488v4.9H10.33V89.539l1.51-1.39V83.968c-.467-.943-1.608-1.25-2.371-2.081C7.874,81.781,6.99,82.966,6,83.917V87.99l1.493,1.5" transform="translate(-3.054 -41.685)" fill="#053b7c"/><path d="M11.938,67.066l-.917-.917H9.9l-.893.944v1.5l1.465,1.455,1.466-1.567c0-.189,0-.8,0-1.418" transform="translate(-4.585 -33.676)" fill="#073a79"/><path d="M167.733,23.752c-.952-.967-1.879-1.978-3.325-2.12-.848.79-1.913,1.158-2.545,2.241v3.954l1.434,1.31v5.049h2.927V29.5l1.508-1.462V23.752" transform="translate(-82.405 -11.013)" fill="#053b7c"/><path d="M166.5,10.092l1.283-1.319V6.957l-.915-.917h-1.122l-.9.941V8.552l1.649,1.54" transform="translate(-83.925 -3.075)" fill="#073a79"/><path d="M128.855,8.88V6.954l-1.131-.847h-.949l-.564,1.006-.255-.212V8.656l1.473,1.494c.539-.2.844-.858,1.427-1.27" transform="translate(-64.124 -3.109)" fill="#073a79"/><path d="M50.888,8.879V6.929l-.815-.817c-.359-.223-.792-.048-1.2-.1l-.915.918V8.789l1.342,1.3c.806-.059.948-1.016,1.591-1.213" transform="translate(-24.414 -3.052)" fill="#073a79"/><path d="M87.832,6.03l-.915.918V8.808l1.371,1.313c.689-.183,1.017-.9,1.561-1.3V6.948l-.915-.918h-1.1" transform="translate(-44.249 -3.07)" fill="#073a79"/><path d="M77.873,87.574h8.765V76.423l2.957-2.941V64.573c-.5-.8-.7-1.827-1.543-2.324a9.528,9.528,0,0,1-2.394-1.322L86.7,58.889c0-1.033-.047-2.2.011-3.364a4.243,4.243,0,0,0-3.087-4.331,7.878,7.878,0,0,0-2.472-.041,4.48,4.48,0,0,0-3.28,3.47v4.271l1.019,1.97c-.169.584-.83.708-1.292.883a3.4,3.4,0,0,0-2.311,2.367c-.044.158-.212.282-.347.453v8.844l2.93,2.837Z" transform="translate(-38.154 -25.998)" fill="#040506"/><path d="M46.417,86.175h8.772V76.49l1.527-1.531V67.275a4.283,4.283,0,0,0-2.234-3.912c-.272-.161-.434-.4-.728-.567,1.718-1.487,1.55-3.481,1.478-5.212a4.561,4.561,0,0,0-3.5-3.462H49.538a4.655,4.655,0,0,0-3.106,3.555c-.111,1.552-.247,3.573,1.5,5.151a5.234,5.234,0,0,0-2.692,2.934,3.373,3.373,0,0,0-.292.979c0,2.756,0,5.512,0,8.242l1.471,1.449Z" transform="translate(-22.881 -27.554)" fill="#040506"/><path d="M121.16,86.027V76.3l1.493-1.256v-8.9a5.591,5.591,0,0,0-3.064-3.393c.885-.633,1.061-1.568,1.6-2.372,0-.593-.035-1.269.006-1.941a4.172,4.172,0,0,0-3.083-4.332,4.5,4.5,0,0,0-4.184.763,3.986,3.986,0,0,0-1.572,3.385c.026.735,0,1.472,0,2.153.572.719.636,1.715,1.572,2.269a5.779,5.779,0,0,0-3.036,3.576v8.6l1.461,1.362v9.809Z" transform="translate(-56.458 -27.435)" fill="#040506"/><path d="M86.776,96.763V87.612l2.965-2.972V77.475c-1.017-1.287-2.675-1.53-3.963-2.389a1,1,0,0,0-.893,0c-1.3.845-2.936,1.119-3.962,2.369v7.023l2.928,2.936v9.35Z" transform="translate(-41.198 -38.172)" fill="#0f3154"/><path d="M89.878,58.048l-.973-.895h-1.09l-.852,1.119v3.18l1.135.8h.912l.868-1.2Z" transform="translate(-44.273 -29.097)" fill="#0f3153"/><path d="M52.449,94.272h2.889V86.431l1.506-1.51V77.875c-.954-.938-1.868-2.061-3.443-2.048-.708.817-1.793,1.094-2.388,2.14v6.894l1.436,1.3Z" transform="translate(-25.971 -38.603)" fill="#0f3154"/><path d="M55.485,64.482l1.175-1.665.235.2v-2l-1.123-.8h-.906l-.828.831V62.84l1.447,1.642" transform="translate(-27.511 -30.656)" fill="#0f3053"/><path d="M116.876,84.881l1.487,1.49v7.862h2.844V86.422l1.51-1.355V77.909c-.432-.946-1.611-1.212-2.337-2.064-.326,0-.805-.15-1.028.027a9.24,9.24,0,0,0-2.476,2.06v6.95" transform="translate(-59.502 -38.583)" fill="#0f3154"/><path d="M121.49,64.326l1.338-1.667V61.03l-1.026-.848h-1.03l-.833,1.064v1.53l1.551,1.55" transform="translate(-61.061 -30.639)" fill="#0f3053"/></g></g></g></svg>