<svg xmlns="http://www.w3.org/2000/svg" xmlns:xlink="http://www.w3.org/1999/xlink" width="72.514" height="76.879" viewBox="0 0 72.514 76.879"><defs><clipPath id="a"><rect width="72.514" height="76.879" transform="translate(0 0)" fill="none"/></clipPath></defs><g transform="translate(0 0)"><g clip-path="url(#a)"><path d="M55.075,66.066a1.723,1.723,0,0,0,1.359.285l7.619-7.64v-1.8c-.88-.884-1.762-1.768-2.669-2.677-.183-1.018.457-1.873.705-2.808.153-.578.286-1.181.426-1.759s.269-1.212.388-1.807c.481-2.41.135-4.827.249-7.235A4.567,4.567,0,0,0,63.1,38.7c-.262-.59-.035-1.22-.288-1.677-.309-.562-.025-1.274-.558-1.723a10.64,10.64,0,0,0-.9-3.232c.138-.353.58-.235.8-.533a3.373,3.373,0,0,1,.77-.617,22.178,22.178,0,0,0,6.113-6.387,21.408,21.408,0,0,0,2.5-5.7,11.4,11.4,0,0,0,.59-3.351c-.029-.641.4-1.156.335-1.828-.1-1.041.234-2.191-.1-3.121s.133-1.961-.525-2.778a9.6,9.6,0,0,0-.909-3.522,6.272,6.272,0,0,0-.357-.879c-.575-.459-1.113-.1-1.3-.609-.389-.124-.54.312-.932.327a8.4,8.4,0,0,1-3.917-1.048C63.585,1.627,62.681,1.363,61.9.9S60.139.592,59.409.034A10.92,10.92,0,0,0,54.1.94c-1.182.52-2.319,1.152-3.517,1.623a6.263,6.263,0,0,1-3.1.46c-.161-.02-.3-.206-.442-.306l-1.446.7c-.765,1.25-.871,2.771-1.321,4.185-.276.863-.1,1.755-.315,2.573a19.784,19.784,0,0,0-.282,3.661,15.853,15.853,0,0,0-4.358-1.475,33.751,33.751,0,0,0-4.377-.695c-1.159-.114-2.313-.188-3.473-.221a6.053,6.053,0,0,0-1.982.253,7.442,7.442,0,0,1-2.082.042c-.46.682-1.386-.08-1.846.6a26.56,26.56,0,0,0-7.861,2.7,31.663,31.663,0,0,0-4.5,2.848,28.088,28.088,0,0,0-4.829,4.573A30.532,30.532,0,0,0,3.876,29.43c-.8,1.724-1.35,3.54-2.046,5.3A6.35,6.35,0,0,0,1.552,36.4c-.084.914-.576,1.777-.353,2.721C.61,41,1.051,42.94.882,44.843a6.809,6.809,0,0,0,.324,1.676c.079.561-.276,1.2.284,1.68a10.655,10.655,0,0,0,.622,3.194c.18.858.506,1.685.791,2.608-.57.572-1.213,1.255-1.9,1.893A2.626,2.626,0,0,0,.055,58.5a4.13,4.13,0,0,0,1.159,1.427q7.929,7.956,15.859,15.916a2.57,2.57,0,0,0,2.64.952c1.575-.972,2.669-2.612,4.093-3.787a22.666,22.666,0,0,0,4.026.808c1.421.034,2.787.395,4.212.4a35.69,35.69,0,0,0,4.207-.408,10.383,10.383,0,0,0,3.919-.877c1.516,1.28,2.622,2.908,4.276,3.939h1.5l7.621-7.643c.128-.406-.443-.637-.284-1.06-.786-1.081-1.549-.544-2.235.09-1.238,1.146-2.4,2.38-3.6,3.564a14.232,14.232,0,0,1-2.3,2.118c-1.82-1.614-3.442-3.319-5.223-5.217C45.325,63.3,50.617,58,55.891,52.705c1.115.367,1.591,1.246,2.288,1.85a24.956,24.956,0,0,1,2.879,3.054c-.016.792-.557,1.131-.96,1.544-1.556,1.592-3.174,3.125-4.692,4.753-.559.6-1.219,1.289-.331,2.16" fill="#040506"/><path d="M47.592,72.069c1.6-1.237,2.841-2.847,4.377-4.195a1.692,1.692,0,0,1,1.31.293c.435-.841,1.361-1.26,1.8-2.1,0-.241.07-.507-.232-.663a2.786,2.786,0,0,1,.892-1.357c1.976-1.965,3.94-3.943,5.916-5.925v-.637c-1.118-.974-2.029-2.228-3.284-3.124-.736-.175-1.077.417-1.478.817q-5.781,5.76-11.527,11.553c-1.494,1.509-1.505,2.292.02,3.772.642.623,1.071,1.623,2.21,1.567" fill="#e44c5e"/><path d="M37.714,33.05v2.293a4.82,4.82,0,0,1-3.619,3.4,4.685,4.685,0,0,1-1.635,4.48,4.3,4.3,0,0,1-4.5.61c-.643,1.746-1.613,3.187-3.715,3.321-2.274.262-3.483,1.959-4.543,3.657a2.927,2.927,0,0,0,.337,3.508C21.9,56.462,23.97,58.4,26,60.369a.859.859,0,0,0,.938.294,44.021,44.021,0,0,0,3.511-3.374,14.852,14.852,0,0,1,3.443-1.745c1.681-.536,3.392-.247,5.084-.257a9.953,9.953,0,0,0,4.215-.971,1.664,1.664,0,0,1,1.706.044c1.167-.052,1.635-.921,2.1-1.8a1.74,1.74,0,0,1-.285-1.365l7.83-7.852c1.136-1.139,1.135-1.14,1.135-2.951l-1.157-.79.179-.214H52.873c-.42.269-.981.43-1.3.96l-1.165-.669c-.351-.757.075-1.3.376-1.885A2.029,2.029,0,0,0,49.693,34.7a1.269,1.269,0,0,0-1.222.01c-.381.2-.8.348-.978.74H46.242l-.436-.437V33.757c.664-.238.464-1.05.887-1.5-.274-.913-.513-1.853-1.637-2.132a1.937,1.937,0,0,0-1.969.431,1.515,1.515,0,0,1-1.342.39c-.267-.385-.872-.559-.739-1.194a5.041,5.041,0,0,0-3.292,3.3" fill="#d17541"/><path d="M8.98,49.858c.62.131.762,1.1,1.48.918l2.707-2.714a.822.822,0,0,0-.245-.725c-.527-.456-1-.975-1.49-1.474A6.269,6.269,0,0,1,9.369,43.1a5.043,5.043,0,0,1,.4-3.19,4.385,4.385,0,0,1,2.752-2.119V34.9a7.425,7.425,0,0,1,1.624-2.4,2.082,2.082,0,0,1,1.084-.611c.648-.013,1.164-.406,1.78-.4A4.467,4.467,0,0,1,21.5,27a4.675,4.675,0,0,1,3.416-4.458,5.093,5.093,0,0,0,2.99-.516c.269-.179.576-.073.863-.076,1.446-.012,2.894.044,4.337-.018a4.9,4.9,0,0,1,4.49,1.88,4.425,4.425,0,0,1,4.456-.1,4.528,4.528,0,0,1,2.31,3.862,6.831,6.831,0,0,1,2.7,1,3.417,3.417,0,0,1,1.72,2.971.889.889,0,0,0,.518.885A3.785,3.785,0,0,1,52.379,33.8c.817.858.779,2.075,1.286,3.124H54.95a5.414,5.414,0,0,1,2.818,2.733c0,.147-.122.54.022.73.5.66.193,1.2.018,1.878a5.565,5.565,0,0,1-1.551,2.663c-1.315,1.289-2.6,2.6-3.992,3.995.532.676,1.177,1.21,1.816,1.9l.768-.99a1.177,1.177,0,0,0,1.046-.28c.4-.059.594.637,1,.276l2.524,2.531a29.607,29.607,0,0,0,.923-3.164c.186-1.031.353-2.076.482-3.122a21.826,21.826,0,0,0,.228-3.332,18.153,18.153,0,0,0-.22-3.19c-.217-1.056-.3-2.167-.553-3.234-.24-.993-.523-1.976-.78-2.94l-.2-.031c-.542-.078-.982.514-1.516.288a13.647,13.647,0,0,1-2.1-1.056,41.674,41.674,0,0,1-3.83-2.66A16.6,16.6,0,0,1,49,27.06a28.317,28.317,0,0,1-3.256-5.235,24,24,0,0,1-1.415-4.357c-.088-.37-.359-.674-.35-1.079-1.636-.964-3.531-1.283-5.3-1.948-.887.171-1.676-.506-2.568-.3-2.177-.639-4.407-.127-6.6-.314a2.021,2.021,0,0,0-1.075.314c-5.031,1.177-8.964,4.123-12.467,7.769A29.359,29.359,0,0,0,8.909,34.261a29.881,29.881,0,0,0-.761,13.921c.116.631.169,1.311.832,1.676" fill="#cfe8fa"/><path d="M8.98,49.858c-.1-.208-.289-.419-.284-.624.024-1.024-.527-1.984-.315-3.022a11.052,11.052,0,0,1-.28-4.069,4.831,4.831,0,0,1,.2-2.306c.328-.673-.18-1.556.375-2.239-.06-2.13.861-4.024,1.533-5.956a26.7,26.7,0,0,1,2.03-4.095,22.352,22.352,0,0,1,2.1-3.184c.272-.338.557-.666.848-.984A8.883,8.883,0,0,0,16.678,21.6c.3-.572,1.04-.662,1.457-1.164a12.763,12.763,0,0,1,3.346-2.741,24.512,24.512,0,0,1,6.847-3.308c.052-.012.072-.161.107-.246a9.962,9.962,0,0,0-2.276.252c-.684.164-1.341.439-2.011.557a19.048,19.048,0,0,0-5.658,2.221,20.979,20.979,0,0,0-5.438,3.838c-.585.613-1.178,1.22-1.8,1.8a24.929,24.929,0,0,0-5.285,7.54,34.6,34.6,0,0,0-2.1,6.021c-.7,2.538-.515,5.118-.6,7.693a26.161,26.161,0,0,0,1.316,7.846c.007.027.082.035.226.09,1.048-.788,1.794-2.1,3.461-2.424.108.009.313.424.7.284" fill="#b6daf5"/><path d="M61.659,28.848a.781.781,0,0,0,.667-.2c1.145-1.179,2.352-2.3,3.46-3.513a13.736,13.736,0,0,0,1.551-2.194,20.133,20.133,0,0,0,2.347-6.048,8.7,8.7,0,0,0,.379-2.859,23.677,23.677,0,0,1-.02-2.991,13.475,13.475,0,0,0-.828-4.449c-.143-.441.2-1.035-.5-1.375-.972.787-1.966-.388-2.864-.093C64.41,4.488,63.106,3.91,61.8,3.34c-.084-.036-.225.032-.289-.016a6.486,6.486,0,0,0-3.963-.92,3.919,3.919,0,0,0-1.942.377c-1.14.629-2.428.9-3.519,1.61-.023.015,0,.1,0,.145a4.815,4.815,0,0,0-.823,4.3c.931.7,1.44-.2,2.02-.6a8.542,8.542,0,0,1,12.186,2.778,3.884,3.884,0,0,1,.642,1.709c-.01.631-.421,1-.554,1.478a18.378,18.378,0,0,0-.175,2.773c.065.45.437.784.472,1.247-.854,3.308-4.078,5.559-7.934,5.538-.539,0-1.093-.171-1.6.168a.413.413,0,0,0-.066.539,12.508,12.508,0,0,0,5.406,4.378" fill="#ffc900"/><path d="M61.659,28.848a35.4,35.4,0,0,1-5.072-4.341c-.122-.138-.352-.212-.316-.461-.3-.53-.869-.622-1.358-.84a8.521,8.521,0,0,1-3.944-12.55c.314-.477.775-.942.513-1.618a13.54,13.54,0,0,1,.6-4.5l-3.09.848A2.311,2.311,0,0,1,47.4,5.14a21.149,21.149,0,0,0-1.05,3.852,21.773,21.773,0,0,0-.245,4.234,18.374,18.374,0,0,0,2.2,8.682,17.912,17.912,0,0,0,3.05,4.292A29.233,29.233,0,0,0,56.5,30.421c.467.3.974.539,1.52.838A19.32,19.32,0,0,0,61.55,29.1c.063-.043.074-.166.109-.251" fill="#ffb800"/><path d="M25.1,65.917c.474.461.951.9,1.4,1.367a1.855,1.855,0,0,1-.01,2.981c-.239.254-.492.5-.739.743a25.121,25.121,0,0,0,12.595.024,2.882,2.882,0,0,1-1.167-3.1,7.44,7.44,0,0,1,1.728-2.024c-1.173-1.176-2.313-2.4-3.539-3.527s-2.128-2.585-3.5-3.256L25.1,65.917" fill="#cfe8fa"/><path d="M21.551,72.069a29.662,29.662,0,0,0,2.881-2.747c.17-.158.4-.289.426-.5-.037-.354-.286-.468-.451-.634q-6.675-6.708-13.365-13.4c-.164-.164-.264-.437-.566-.427-1.643.381-2.5,1.666-3.219,3a1.639,1.639,0,0,0,.557,1.89q6.178,6.27,12.435,12.464c.344.341.741.707,1.3.356" fill="#95b720"/><path d="M47.592,72.069A39.159,39.159,0,0,1,44.6,69.24V68.015q6.334-6.353,12.672-12.7a3.322,3.322,0,0,1,1.094-.957,25.182,25.182,0,0,0-2.2-2.391c-1.861,1.755-15.7,15.67-16.631,16.716l5.851,5.67a12.09,12.09,0,0,0,2.208-2.286" fill="#e03247"/><path d="M21.551,72.069c-.409.106-.626-.172-.873-.42q-2.578-2.6-5.169-5.189L7.485,58.414V57.189a39.548,39.548,0,0,1,2.991-2.829A24.221,24.221,0,0,0,8.3,52L2.554,57.76,19.079,74.331l2.472-2.262" fill="#89b21d"/><path d="M26.939,60.664a20.088,20.088,0,0,1-2.566-2.434c-1.18-1.14-2.284-2.361-3.495-3.466a3.145,3.145,0,0,1-1.126-2.829,6.846,6.846,0,0,0,0-.73c.877-1.478,2.292-2.435,3.3-3.621.412-.319.989.21,1.191-.427-.807-.085-1.664.239-2.42-.3a.865.865,0,0,0-.573.587,4.087,4.087,0,0,1-2.618,2.406,3.909,3.909,0,0,1-3.252-.234l-3.109,3.118v-.17c0,.05-.022.122,0,.147,3.757,3.774,7.518,7.544,11.382,11.419,1.1-1.22,2.342-2.189,3.281-3.463" fill="#ba6532"/><path d="M41.6,57.362c-.55.12-1.168-.255-1.68.282a.785.785,0,0,1-.716,0c-.971-.538-2.008-.188-3.008-.279-.623-.057-1.094.6-1.727.24-.037.228-.048.274-.052.321s-.022.122,0,.146c2.048,2.02,4.1,4.035,6.216,6.116,1.24-1.35,2.75-2.588,3.957-4.128a11.947,11.947,0,0,0-2.993-2.7" fill="#fec693"/><path d="M41.6,57.362a24.489,24.489,0,0,0,2.452,2.609c.157.176.362.057.541.092.431-.081.609-.478.879-.745,2.292-2.273,4.566-4.565,6.783-6.788l-1.617-1.621-2.112,2.118a3.278,3.278,0,0,1-1.538-.467c-.839.436-1.257,1.364-2.1,1.8v1.311a3.835,3.835,0,0,1-2.538,1.357c-.29.077-.454.351-.754.333" fill="#ffddb4"/><path d="M21.252,29.449h-.723l-1.072,1.077c.152.416-.174.711-.273.97A6.81,6.81,0,0,0,21.3,34.45c1.946,1.937,3.918,3.849,5.8,5.844,1.008,1.069,2.07,1.768,3.632,1.393.172-.265.615-.4.7-.833-2.308-2.486-4.75-4.839-7.156-7.228a11,11,0,0,1-3.021-4.177" fill="#fdc693"/><path d="M16.762,33.951h-.755c-.275.278-.575.545-.831.848a1.793,1.793,0,0,0-.067,2.444,2.333,2.333,0,0,0,.209.213c2.321,2.326,4.627,4.667,6.968,6.973.968.953,1.848.836,2.857-.273-.095-.593-.559-.926-.937-1.31q-2.094-2.127-4.215-4.229c-1.369-1.354-2.87-2.611-3.229-4.666" fill="#fec693"/><path d="M37.714,33.05a20.687,20.687,0,0,1,3.292-3.3c.265-.442.347-1,.871-1.268V26.606l-1.2-1.033H39.195L35.084,29.7a17.488,17.488,0,0,1,2.327,2.662c.083.244-.192.637.3.692" fill="#b96432"/><path d="M21.252,29.449c-.215.708.357,1.288.316,1.968q4.441,4.454,8.885,8.906c.27.271.485.661.976.531.461-.6.275-1.3.287-1.961L22.3,29.449H21.252" fill="#ffddb4"/><path d="M35.921,25.145c-.19-.481-.752-.427-1.017-.764H27.878v2.025a3.4,3.4,0,0,0,1.134,1.655,7.345,7.345,0,0,0,3.52.482l3.389-3.4" fill="#ffddb4"/><path d="M32.925,30.949c.023-.3-.182-.3-.385-.3-.846,0-1.692.006-2.538,0a4.407,4.407,0,0,1-3.389-1.912,5.885,5.885,0,0,1-1.172-3.416,1.176,1.176,0,0,0-.056-.276c-.014-.04-.069-.066-.132-.121-.6.065-.77.708-1.263.978v1.941c2.4,2.4,4.846,4.814,7.238,7.282a3.117,3.117,0,0,0,3.1,1.171c.094-.178.411-.238.4-.544.181-.668-.345-.991-.7-1.37-.95-1.01-1.962-1.96-2.947-2.978.63-.222,1.352.11,1.852-.454" fill="#fec693"/><path d="M16.762,33.951v1.5a4.772,4.772,0,0,0,1.261,1.723c2.152,2.148,4.293,4.306,6.448,6.451.2.2.328.51.672.534.727-.465.588-1.2.6-1.949-2.127-2.736-4.806-5-7.2-7.524a2.075,2.075,0,0,0-1.775-.732" fill="#ffdcb3"/><path d="M13.47,39.954a2.556,2.556,0,0,0-1.793,1.057v1.523a3.787,3.787,0,0,0,1.27,1.846c.771.779,1.563,1.539,2.318,2.335a2.475,2.475,0,0,0,2.6.97c.235-.309.91-.22.991-.828a17.813,17.813,0,0,0-2.482-2.535,9.823,9.823,0,0,1-2.906-4.368" fill="#fdc692"/><path d="M13.47,39.954V41.3c1.158,2.291,3.289,3.711,4.951,5.551.068.074.288.009.437.009.607-.176.057-.951.623-1.117-.15-.4-.478-.69-.313-1.137l-3.912-3.908a2.143,2.143,0,0,0-1.786-.741" fill="#ffdcb3"/><path d="M32.925,30.949H30.082c1.364,1.368,2.587,2.58,3.79,3.811.3.31.714.534.849.991.686-.166.558-.9.978-1.214a7.058,7.058,0,0,0-2.774-3.588" fill="#fcd9b1"/><path d="M51.483,9.039c-.222.353-.371.74-.615,1.09a6.293,6.293,0,0,0-1.48,3.706,2.124,2.124,0,0,0-.252,1.948c.2.644.129,1.316.374,1.927a10.754,10.754,0,0,0,1.105,2.512,9.93,9.93,0,0,0,4.457,3.484c.364.134.736.482,1.2.34.552.115,1.194-.269,1.71.345a3.457,3.457,0,0,1,1.32-.362,6.728,6.728,0,0,0,4.314-1.8,9.48,9.48,0,0,0,2.74-3.641,1.238,1.238,0,0,0,.089-.261,2.8,2.8,0,0,0,0-.382,2.28,2.28,0,0,0-.9-.8c-1.213-.624-1.6.383-2.016,1.112a6.074,6.074,0,0,1-4.316,3.122A6.327,6.327,0,0,1,51.9,15.888a6.085,6.085,0,0,1,6.262-6.747,4.506,4.506,0,0,1,1.617.168A6.159,6.159,0,0,1,63.921,13c.362.793.721,1.726,1.929,1.14.249-.408.787-.578.841-1.252a13.222,13.222,0,0,0-1.4-2.848A8.486,8.486,0,0,0,60.4,6.664a6.438,6.438,0,0,0-2.708-.332,8.467,8.467,0,0,0-4.921,1.851,9.728,9.728,0,0,1-1.285.856" fill="#050606"/><path d="M65.85,14.141h-.739c-.275-.363-.927-.567-.758-1.331A7.824,7.824,0,0,0,60.6,9.052a1.858,1.858,0,0,0-.739-.013,1.744,1.744,0,0,0-2.127.564,7.285,7.285,0,0,0-2.063,4.368,2.959,2.959,0,0,0,1.9,2.042c1.889-.528,2.426-3.046,4.62-3.145.1,1.662-3.252,5.016-5.381,5.569-.231.142-.4.354-.262.61.611,1.168,1.206,2.366,2.713,2.6a2.635,2.635,0,0,0,2-.6,6.514,6.514,0,0,0,1.941-1.56c.522-.782.725-1.808,1.662-2.347h.685c.051-.321.357-.523.318-.919-.068-.688-.019-1.387-.019-2.082" fill="#95b720"/><path d="M59.265,21.645c-.62-.316-.974-.932-1.5-1.347s-.619-1.142-1.239-1.514l.347-.14c-.126-1.461-1.534-1.93-2.261-2.928-.385-.528-1.126-.914-.624-1.7.752-.617,1.311.43,1.988.122a6.4,6.4,0,0,1,1.15-3.115,9.639,9.639,0,0,1,1.695-1.987h1.046a.23.23,0,0,0-.236-.295c-.944-.011-1.892-.055-2.832.008a5.252,5.252,0,0,0-2.868,1.326c-2.1,1.684-2.645,4.018-2.445,6.6.549.97.708,2.156,1.665,2.9a11.427,11.427,0,0,0,1.876,1.6,7.162,7.162,0,0,0,4.135.72c.044,0,.071-.16.106-.245" fill="#89b21d"/><path d="M55.972,14.141c-.584-.271-.964-.933-1.846-.9-.344.067-.541.5-.848.774v.814c1.093,1.331,2.543,2.384,3.592,3.812h1.338l4.647-4.66V12.832c-.384-.7-1.033-.447-1.55-.488l-3.653,3.663c-.556-.692-1.282-1.121-1.68-1.866" fill="#050a06"/></g></g></svg>