<svg xmlns="http://www.w3.org/2000/svg" xmlns:xlink="http://www.w3.org/1999/xlink" width="512.354" height="413.477" viewBox="0 0 512.354 413.477"><defs><clipPath id="a"><rect width="25.082" height="251.795" fill="none"/></clipPath><clipPath id="b"><rect width="68.438" height="34.886" fill="#a3314f"/></clipPath><clipPath id="c"><rect width="88.139" height="44.928" fill="none"/></clipPath><clipPath id="d"><rect width="71.609" height="25.724" fill="none"/></clipPath><clipPath id="e"><rect width="2.816" height="2.808" fill="none"/></clipPath><clipPath id="f"><rect width="42.332" height="3.757" fill="none"/></clipPath><clipPath id="g"><rect width="41.155" height="13.567" fill="none"/></clipPath><clipPath id="h"><rect width="18.714" height="40.197" fill="none"/></clipPath></defs><g transform="translate(-863.835 -1305.924)"><path d="M645.725,238.12l-10.966,39.741,13.439,9.582,30.22,7.361L690.4,249.937Z" transform="translate(685.789 1294.802)" fill="#f5f5f5"/><path d="M640.6,277.941l-5.838,1.779a17.746,17.746,0,0,0,4.72,5.5A25.63,25.63,0,0,0,648.2,289.3a17.037,17.037,0,0,1-7.6-11.362" transform="translate(685.789 1292.943)" fill="#ebebeb"/><path d="M682.3,263.578c-.02.074-7.64-1.873-17.019-4.35s-16.969-4.544-16.949-4.618,7.639,1.873,17.02,4.35,16.968,4.543,16.948,4.618" transform="translate(685.155 1294.033)" fill="#e0e0e0"/><path d="M680.449,269.963c-.02.074-7.641-1.873-17.019-4.35s-16.97-4.543-16.949-4.618,7.639,1.873,17.02,4.35,16.967,4.543,16.948,4.618" transform="translate(685.242 1293.735)" fill="#e0e0e0"/><path d="M679.144,275.713c-.02.074-7.641-1.873-17.019-4.349s-16.97-4.544-16.95-4.619,7.639,1.873,17.02,4.35,16.968,4.543,16.949,4.618" transform="translate(685.303 1293.467)" fill="#e0e0e0"/><path d="M677.659,281.188c-.02.074-7.64-1.873-17.019-4.349s-16.969-4.544-16.949-4.619,7.639,1.873,17.02,4.35,16.969,4.544,16.948,4.618" transform="translate(685.372 1293.209)" fill="#e0e0e0"/><path d="M584.363,29.455l-14.494,3.707-.7,4.435a9.15,9.15,0,0,0,0,3.515A2.827,2.827,0,0,0,571.2,43.3a12.08,12.08,0,0,0,4.21-.3l.286,1.119L562.055,47.6l-.286-1.119a6.3,6.3,0,0,0,3.162-2.76,25.127,25.127,0,0,0,1.927-7.086l6.3-36.492L573.734,0l23.4,29.862q3.339,4.238,5.019,5.131a4.9,4.9,0,0,0,3.183.347l.287,1.119-19.849,5.077-.286-1.119.817-.21a6.414,6.414,0,0,0,3.188-1.524,1.669,1.669,0,0,0,.309-1.562,3.811,3.811,0,0,0-.467-1.073q-.132-.256-1.488-2.036Zm-1.6-1.976-9.726-12.567-2.68,15.741Z" transform="translate(689.198 1305.923)" fill="#e0e0e0"/><path d="M670.095,193.04l-41.505-1.216a8.509,8.509,0,0,1-8.255-8.754l1.063-36.243a8.507,8.507,0,0,1,8.753-8.255l41.506,1.216a8.508,8.508,0,0,1,8.255,8.754l-1.062,36.242a8.509,8.509,0,0,1-8.754,8.256" transform="translate(686.463 1299.451)" fill="#ebebeb"/><path d="M620.465,179.282l19.763-13.261a3.964,3.964,0,0,1,5.179.2l9.736,5,13.892-13.583a4.083,4.083,0,0,1,5.912.5l4.537,5.7-.218,23.342a6.682,6.682,0,0,1-6.892,6.616l-45.666-1.444a6.683,6.683,0,0,1-6.467-6.924Z" transform="translate(686.468 1298.611)" fill="#e0e0e0"/><path d="M649.552,153.327a5.851,5.851,0,1,1-6.112-5.578,5.852,5.852,0,0,1,6.112,5.578" transform="translate(685.645 1299.023)" fill="#e0e0e0"/><path d="M402.632,366.466a25.472,25.472,0,1,1-33.014-14.308,25.443,25.443,0,0,1,33.014,14.308" transform="translate(698.928 1289.56)" fill="#f5f5f5"/><path d="M397.289,368.983a19.412,19.412,0,1,1-25.158-10.9,19.39,19.39,0,0,1,25.158,10.9" transform="translate(698.631 1289.262)" fill="#ebebeb"/><path d="M397.038,368.384c-.108.047-.5-.715-1.333-1.984a20.629,20.629,0,0,0-4.264-4.715,19.91,19.91,0,0,0-3.684-2.34,19.421,19.421,0,0,0-4.728-1.581,18.993,18.993,0,0,0-5.485-.271,18.769,18.769,0,0,0-2.865.5,18.98,18.98,0,0,0-5.486,2.361,18.908,18.908,0,0,0-2.333,1.739,19,19,0,0,0-3.572,4.172,19.418,19.418,0,0,0-2.1,4.522,19.877,19.877,0,0,0-.831,4.285,20.622,20.622,0,0,0,.5,6.336,11.36,11.36,0,0,1,.526,2.331,5.7,5.7,0,0,1-1.082-2.169,17.956,17.956,0,0,1-.991-6.554,19.455,19.455,0,0,1,2.813-9.468A19.791,19.791,0,0,1,365.9,361a19.824,19.824,0,0,1,2.5-1.9,19.923,19.923,0,0,1,5.918-2.548,19.776,19.776,0,0,1,3.1-.516,19.758,19.758,0,0,1,5.9.379,19.438,19.438,0,0,1,8.814,4.46,17.971,17.971,0,0,1,4.082,5.223,5.7,5.7,0,0,1,.833,2.276" transform="translate(698.655 1289.299)" fill="#e0e0e0"/><path d="M386.012,386.37,387.3,389.5l-2.792,1.147-1.251-3.044a14.311,14.311,0,0,1-7.87.622l.136-4.038a12.2,12.2,0,0,0,6.233-.242l-1.917-4.664c-3.409.52-7.3.908-8.936-3.085-1.215-2.96-.109-6.384,4.1-8.7l-1.274-3.1,2.792-1.147,1.251,3.044a13.667,13.667,0,0,1,6.368-.625l.015,4.009a12.376,12.376,0,0,0-4.87.3l1.952,4.748c3.4-.548,7.229-.913,8.846,3.024,1.193,2.9.1,6.29-4.064,8.621m-7.862-11.2-1.629-3.965c-1.342.943-1.6,1.993-1.217,2.915.4.977,1.458,1.165,2.846,1.05m7.568,4.758c-.4-.978-1.429-1.175-2.8-1.1l1.582,3.854c1.271-.88,1.587-1.859,1.22-2.752" transform="translate(698.135 1288.96)" fill="#e0e0e0"/><g transform="translate(952.323 1310.453)"><g transform="translate(0)"><path d="M301.187,33.69H252.832A4.1,4.1,0,0,1,248.74,29.4l.981-20.486a4.1,4.1,0,0,1,4.093-3.9h48.354A4.1,4.1,0,0,1,306.262,9.3l-.982,20.486a4.1,4.1,0,0,1-4.092,3.9" transform="translate(-248.503 -4.76)" fill="#fafafa"/><path d="M301.176,33.678a5.054,5.054,0,0,0,1.595-.379,4.077,4.077,0,0,0,2.411-3.711c.18-4.157.44-10.13.759-17.5-.015-1.812.6-3.926-.757-5.457a3.862,3.862,0,0,0-2.507-1.4c-.992-.074-2.1-.016-3.176-.031l-13.883.023-31.81.02A3.872,3.872,0,0,0,250.512,7.1a3.927,3.927,0,0,0-.558,1.857q-.05,1.037-.1,2.066-.2,4.118-.393,8.108t-.38,7.824q-.047.959-.093,1.908a4.772,4.772,0,0,0,.123,1.8,3.88,3.88,0,0,0,2.269,2.51,4.233,4.233,0,0,0,1.7.284l1.8,0,3.524.006,6.74.012,12.1.03,17.516.079,4.762.046,1.238.025a2.657,2.657,0,0,1,.422.026,2.659,2.659,0,0,1-.422.026l-1.238.024-4.762.047-17.516.079-12.1.031-6.74.012-3.524.006-1.8,0a4.689,4.689,0,0,1-1.869-.312,4.336,4.336,0,0,1-2.545-2.8,5.225,5.225,0,0,1-.146-1.949q.044-.948.09-1.907.18-3.837.369-7.826T249.361,11q.05-1.03.1-2.066a4.35,4.35,0,0,1,4.346-4.185l31.81.019L299.5,4.79c1.1.021,2.132-.037,3.229.05a4.247,4.247,0,0,1,2.752,1.548,4.309,4.309,0,0,1,.952,2.88q-.073,1.45-.142,2.836c-.386,7.367-.7,13.338-.917,17.493a4.212,4.212,0,0,1-.942,2.583,4.114,4.114,0,0,1-1.622,1.21,4.162,4.162,0,0,1-1.211.291c-.281.009-.424,0-.424,0" transform="translate(-248.492 -4.748)" fill="#263238"/><path d="M461.56,34.383l2.07-12.947,8.821-5.124,7.24,7.764-2.182,13.277Z" transform="translate(-258.444 -5.288)" fill="#a3314f"/><path d="M494.849,48.786l-10.7,234.91-172.594-4.9-10.269-17.937L319.845,42.533,480.469,31.9Z" transform="translate(-250.958 -6.016)" fill="#e0e0e0"/><g transform="translate(218.81 25.885)" opacity="0.3"><g clip-path="url(#a)"><path d="M492.4,283.7,478.022,266.81,488.724,31.9,503.1,48.786Z" transform="translate(-478.022 -31.901)"/></g></g><path d="M480.469,31.785l-10.7,234.91-168.483-5.957L314.028,29.409Z" transform="translate(-250.958 -5.9)" fill="#fafafa"/><path d="M480.457,31.775,314.013,29.6l.2-.19c-3.547,64.644-7.944,144.718-12.7,231.331l-.238-.262,2.782.1,165.7,5.881-.234.215c6.455-138.728,10.835-232.895,10.929-234.9-.091,2-4.29,96.18-10.478,234.919l-.009.224-.225-.008-165.7-5.836-2.78-.1-.254-.01.014-.253c4.789-86.611,9.218-166.684,12.793-231.325l.009-.194.193,0,166.439,2.577" transform="translate(-250.945 -5.89)" fill="#263238"/><path d="M334.888,88.5l58.838,1.725a2.236,2.236,0,0,0,2.3-2.171l.065-2.2a2.237,2.237,0,0,0-2.171-2.3l-58.837-1.725a2.237,2.237,0,0,0-2.3,2.171l-.065,2.2a2.237,2.237,0,0,0,2.171,2.3" transform="translate(-252.426 -8.348)" fill="#e0e0e0"/><path d="M334.293,102.046l58.837,1.725a2.238,2.238,0,0,0,2.3-2.172l.065-2.2a2.237,2.237,0,0,0-2.171-2.3l-58.838-1.725a2.237,2.237,0,0,0-2.3,2.171l-.065,2.2a2.237,2.237,0,0,0,2.171,2.3" transform="translate(-252.398 -8.98)" fill="#e0e0e0"/><path d="M333.7,115.592l58.838,1.725a2.236,2.236,0,0,0,2.3-2.171l.065-2.2a2.237,2.237,0,0,0-2.171-2.3l-58.837-1.725a2.237,2.237,0,0,0-2.3,2.171l-.065,2.2a2.237,2.237,0,0,0,2.171,2.3" transform="translate(-252.37 -9.613)" fill="#e0e0e0"/><path d="M333.1,129.138l58.837,1.725a2.236,2.236,0,0,0,2.3-2.171l.065-2.2a2.237,2.237,0,0,0-2.171-2.3L333.3,122.46a2.237,2.237,0,0,0-2.3,2.171l-.065,2.205a2.237,2.237,0,0,0,2.171,2.3" transform="translate(-252.342 -10.246)" fill="#e0e0e0"/><path d="M332.508,142.684l58.838,1.725a2.236,2.236,0,0,0,2.3-2.171l.065-2.2a2.237,2.237,0,0,0-2.171-2.3L332.7,136.006a2.237,2.237,0,0,0-2.3,2.171l-.065,2.2a2.237,2.237,0,0,0,2.171,2.3" transform="translate(-252.314 -10.878)" fill="#e0e0e0"/><path d="M331.913,156.23l58.838,1.725a2.236,2.236,0,0,0,2.3-2.171l.065-2.205a2.237,2.237,0,0,0-2.171-2.3l-58.838-1.724a2.237,2.237,0,0,0-2.3,2.171l-.065,2.205a2.237,2.237,0,0,0,2.171,2.3" transform="translate(-252.287 -11.511)" fill="#e0e0e0"/><path d="M331.318,169.776l58.838,1.726a2.238,2.238,0,0,0,2.3-2.172l.065-2.2a2.237,2.237,0,0,0-2.171-2.3L331.514,163.1a2.237,2.237,0,0,0-2.3,2.171l-.065,2.2a2.237,2.237,0,0,0,2.171,2.3" transform="translate(-252.259 -12.144)" fill="#e0e0e0"/><path d="M405.116,158.256l58.838,1.725a2.238,2.238,0,0,0,2.3-2.172l.065-2.2a2.237,2.237,0,0,0-2.171-2.3l-58.837-1.725a2.237,2.237,0,0,0-2.3,2.171l-.065,2.2a2.237,2.237,0,0,0,2.171,2.3" transform="translate(-255.706 -11.606)" fill="#e0e0e0"/><path d="M404.52,171.8l58.837,1.725a2.236,2.236,0,0,0,2.3-2.171l.065-2.2a2.237,2.237,0,0,0-2.171-2.3l-58.838-1.725a2.237,2.237,0,0,0-2.3,2.171l-.065,2.205a2.237,2.237,0,0,0,2.17,2.3" transform="translate(-255.678 -12.238)" fill="#e0e0e0"/><path d="M403.8,186.086l58.837,1.724a2.236,2.236,0,0,0,2.3-2.171l.066-2.2a2.238,2.238,0,0,0-2.171-2.3L404,179.408a2.237,2.237,0,0,0-2.3,2.171l-.064,2.2a2.236,2.236,0,0,0,2.171,2.3" transform="translate(-255.644 -12.906)" fill="#e0e0e0"/><path d="M403.084,200.37l58.838,1.725a2.238,2.238,0,0,0,2.3-2.172l.065-2.2a2.238,2.238,0,0,0-2.171-2.3l-58.838-1.724a2.238,2.238,0,0,0-2.3,2.171l-.065,2.2a2.237,2.237,0,0,0,2.171,2.3" transform="translate(-255.611 -13.573)" fill="#e0e0e0"/><path d="M402.366,214.654l58.838,1.724a2.237,2.237,0,0,0,2.3-2.171l.065-2.2a2.237,2.237,0,0,0-2.171-2.3l-58.837-1.725a2.237,2.237,0,0,0-2.3,2.171l-.065,2.2a2.237,2.237,0,0,0,2.171,2.3" transform="translate(-255.577 -14.24)" fill="#e0e0e0"/><path d="M401.648,228.938l58.838,1.724a2.236,2.236,0,0,0,2.3-2.171l.065-2.2a2.237,2.237,0,0,0-2.171-2.3l-58.837-1.725a2.238,2.238,0,0,0-2.3,2.171l-.065,2.2a2.237,2.237,0,0,0,2.171,2.3" transform="translate(-255.544 -14.907)" fill="#e0e0e0"/><path d="M400.93,243.222l58.838,1.726a2.237,2.237,0,0,0,2.3-2.172l.065-2.2a2.238,2.238,0,0,0-2.171-2.3l-58.838-1.725a2.238,2.238,0,0,0-2.3,2.171l-.065,2.2a2.235,2.235,0,0,0,2.171,2.3" transform="translate(-255.51 -15.574)" fill="#e0e0e0"/><path d="M325.259,253.871l129.856,3.807a2.238,2.238,0,0,0,2.3-2.172l.065-2.2a2.238,2.238,0,0,0-2.172-2.3l-129.855-3.807a2.237,2.237,0,0,0-2.3,2.171l-.065,2.2a2.237,2.237,0,0,0,2.171,2.3" transform="translate(-251.976 -16.072)" fill="#e0e0e0"/><path d="M335.955,70.862l39.679,1.163a2.236,2.236,0,0,0,2.3-2.171l.065-2.2a2.237,2.237,0,0,0-2.171-2.3L336.15,64.184a2.237,2.237,0,0,0-2.3,2.171l-.065,2.2a2.237,2.237,0,0,0,2.171,2.3" transform="translate(-252.475 -7.524)" fill="#e0e0e0"/><path d="M311.049,267.024s.277.025.82.05l2.415.1,9.321.353,34.6,1.22L475.086,272.7l.25.009.012-.25c.441-9.29.9-19.031,1.374-28.945,2.495-53.277,4.753-101.5,6.388-136.421.792-17.449,1.434-31.57,1.877-41.344.21-4.872.373-8.659.484-11.241q.074-1.915.113-2.924c.022-.659.021-1,.021-1s-.034.337-.073.994-.092,1.646-.164,2.922c-.133,2.582-.329,6.366-.581,11.237-.482,9.771-1.179,23.891-2.04,41.336-1.674,34.917-3.985,83.14-6.538,136.414-.469,9.915-.929,19.655-1.369,28.946l.262-.242-116.886-3.777-34.605-1.066-9.325-.264-2.416-.057c-.543-.01-.822,0-.822,0" transform="translate(-251.414 -6.889)" fill="#263238"/><path d="M325.409,274.249s.261.025.774.051l2.278.1,8.806.359,32.739,1.251,111.064,4.074.248.009.013-.249c.591-11.208,1.207-22.866,1.836-34.779,2.74-52.568,5.22-100.153,7.015-134.609.872-17.217,1.579-31.151,2.068-40.794.232-4.808.413-8.544.536-11.093q.083-1.89.127-2.886c.026-.65.025-.984.025-.984s-.034.332-.077.981-.1,1.624-.177,2.883c-.146,2.547-.358,6.281-.633,11.088-.527,9.642-1.289,23.572-2.23,40.786-1.834,34.454-4.367,82.036-7.166,134.6-.626,11.913-1.238,23.571-1.828,34.779l.261-.238-111.071-3.9-32.744-1.1-8.808-.273-2.28-.059c-.514-.011-.776,0-.776,0" transform="translate(-252.084 -7.081)" fill="#263238"/><path d="M383.932,28.631l2.544-2.49,30.341.149,1.47,2.774Z" transform="translate(-254.818 -5.747)" fill="#263238"/><rect width="14.457" height="34.358" transform="translate(128.933 37.34) rotate(-89.278)" fill="#263238"/><path d="M419.195,44.773l.006-.5a1.194,1.194,0,0,0-1.179-1.209l-34.353-.433a1.194,1.194,0,0,0-1.209,1.179l-.007.5a1.2,1.2,0,0,0,1.178,1.209l34.355.433a1.2,1.2,0,0,0,1.209-1.179" transform="translate(-254.749 -6.517)" fill="#263238"/><path d="M408.943,39.169h-.017l-15.111-.191a1.333,1.333,0,0,1-1.233-1.8l4.451-11.969a7.893,7.893,0,1,1,9.2.153l3.972,12.054a1.332,1.332,0,0,1-1.265,1.749m-7.2-27.224-.184,0a7.046,7.046,0,0,0-6.754,7.038,6.945,6.945,0,0,0,3.071,5.655l.312.21-4.709,12.664a.378.378,0,0,0,.042.347.373.373,0,0,0,.309.164l15.111.191a.365.365,0,0,0,.311-.154.378.378,0,0,0,.055-.343L405.1,24.962l.317-.2a6.936,6.936,0,0,0-3.674-12.819" transform="translate(-255.218 -5.04)" fill="#455a64"/><path d="M417.867,43.061a1.682,1.682,0,0,0-.346-.02l-.986-.025-3.632-.075-11.985-.2-11.988-.134L385.3,42.6l-.989.011a1.625,1.625,0,0,0-.345.023,1.6,1.6,0,0,0,.344.033l.988.042,3.632.1c3.067.072,7.3.152,11.987.217s8.918.106,11.986.113c1.535,0,2.776,0,3.634-.014.43-.01.762-.013.991-.028a1.557,1.557,0,0,0,.342-.037" transform="translate(-254.819 -6.516)" fill="#455a64"/><path d="M418.382,28.873a1.678,1.678,0,0,0-.346-.02l-.986-.025-3.632-.075-11.985-.2-11.988-.134-3.634-.011-.988.011a1.625,1.625,0,0,0-.345.023,1.608,1.608,0,0,0,.344.033l.988.042,3.631.1c3.068.072,7.305.152,11.988.217s8.918.106,11.986.113c1.535,0,2.776,0,3.634-.014.43-.01.762-.013.99-.028a1.558,1.558,0,0,0,.343-.037" transform="translate(-254.843 -5.853)" fill="#455a64"/><path d="M377.746,234.889l-41.505-1.216a8.509,8.509,0,0,1-8.256-8.754l1.063-36.243a8.507,8.507,0,0,1,8.753-8.255l41.506,1.216a8.508,8.508,0,0,1,8.255,8.754L386.5,226.634a8.508,8.508,0,0,1-8.754,8.256" transform="translate(-252.204 -12.953)" fill="#ebebeb"/><path d="M328.092,221.859a1.429,1.429,0,0,1,.632-1.134l19.157-12.855a3.964,3.964,0,0,1,5.064.092,1.289,1.289,0,0,0,.254.174l8.682,4.458a1.43,1.43,0,0,0,1.653-.249l13.154-12.863a4.082,4.082,0,0,1,5.911.5l4.221,5.3a1.429,1.429,0,0,1,.311.9l-.2,21.4a8.083,8.083,0,0,1-8.338,8l-42.827-1.354a8.083,8.083,0,0,1-7.822-8.376Z" transform="translate(-252.203 -13.795)" fill="#e0e0e0"/><path d="M357.2,195.176a5.851,5.851,0,1,1-6.113-5.578,5.852,5.852,0,0,1,6.113,5.578" transform="translate(-253.023 -13.381)" fill="#e0e0e0"/><path d="M457.067,140.307l-41.505-1.216a8.509,8.509,0,0,1-8.256-8.754l1.063-36.242a8.508,8.508,0,0,1,8.753-8.256l41.506,1.216a8.508,8.508,0,0,1,8.255,8.754l-1.062,36.243a8.508,8.508,0,0,1-8.754,8.255" transform="translate(-255.909 -8.535)" fill="#ebebeb"/><path d="M407.443,126.549l19.763-13.261a3.964,3.964,0,0,1,5.179.2l9.736,5L456.012,104.9a4.083,4.083,0,0,1,5.911.5l4.537,5.7-.192,20.488a9.472,9.472,0,0,1-9.771,9.38l-40.01-1.265a9.473,9.473,0,0,1-9.168-9.815Z" transform="translate(-255.91 -9.377)" fill="#e0e0e0"/><path d="M436.525,100.594a5.851,5.851,0,1,1-6.113-5.578,5.852,5.852,0,0,1,6.113,5.578" transform="translate(-256.728 -8.964)" fill="#e0e0e0"/><path d="M337.254,117.8a2.508,2.508,0,0,1-.768-.215,4.245,4.245,0,0,1-1.745-1.475,4.96,4.96,0,0,1-.851-3.5,6.961,6.961,0,0,1,2.314-4.176,12.137,12.137,0,0,1,5.212-2.562,28.657,28.657,0,0,1,6.609-.854,29.108,29.108,0,0,1,14.673,3.722,10.719,10.719,0,0,1,3.11,2.609,6.479,6.479,0,0,1,1.4,3.709,4.952,4.952,0,0,1-1.393,3.562,8.181,8.181,0,0,1-3.1,1.945,21,21,0,0,1-6.583,1.064,37.507,37.507,0,0,1-5.793-.25,36.281,36.281,0,0,1-8.14-1.964c-.928-.343-1.636-.643-2.107-.867a4.628,4.628,0,0,1-.708-.358,4.9,4.9,0,0,1,.747.267c.482.193,1.2.462,2.132.775a38.681,38.681,0,0,0,8.117,1.8,38.05,38.05,0,0,0,5.736.188,20.822,20.822,0,0,0,6.438-1.081,7.748,7.748,0,0,0,2.915-1.841,4.478,4.478,0,0,0,1.253-3.224,6,6,0,0,0-1.3-3.42,10.25,10.25,0,0,0-2.97-2.483,28.928,28.928,0,0,0-14.417-3.692,28.606,28.606,0,0,0-6.513.795,11.875,11.875,0,0,0-5.078,2.425,6.7,6.7,0,0,0-2.274,3.953A4.8,4.8,0,0,0,334.9,116a4.33,4.33,0,0,0,1.627,1.492c.461.227.734.278.726.305" transform="translate(-252.478 -9.431)" fill="#263238"/><path d="M363.1,257.495a2.508,2.508,0,0,1-.768-.215,4.235,4.235,0,0,1-1.745-1.475,4.96,4.96,0,0,1-.851-3.5,6.961,6.961,0,0,1,2.314-4.176,12.148,12.148,0,0,1,5.213-2.562,28.6,28.6,0,0,1,6.608-.854,29.107,29.107,0,0,1,14.673,3.722,10.721,10.721,0,0,1,3.11,2.609,6.472,6.472,0,0,1,1.4,3.709,4.951,4.951,0,0,1-1.393,3.562,8.18,8.18,0,0,1-3.1,1.945,20.994,20.994,0,0,1-6.583,1.064,37.484,37.484,0,0,1-5.792-.25,36.28,36.28,0,0,1-8.141-1.964c-.929-.343-1.636-.643-2.107-.867a4.639,4.639,0,0,1-.708-.358,4.889,4.889,0,0,1,.747.267c.482.193,1.2.462,2.133.776a38.726,38.726,0,0,0,8.116,1.8,38.045,38.045,0,0,0,5.736.188,20.82,20.82,0,0,0,6.437-1.081,7.736,7.736,0,0,0,2.915-1.841,4.475,4.475,0,0,0,1.253-3.224,6,6,0,0,0-1.3-3.42,10.252,10.252,0,0,0-2.97-2.484,28.937,28.937,0,0,0-14.417-3.691,28.593,28.593,0,0,0-6.512.8,11.875,11.875,0,0,0-5.079,2.425,6.707,6.707,0,0,0-2.274,3.953,4.8,4.8,0,0,0,.737,3.352,4.325,4.325,0,0,0,1.628,1.492c.46.227.733.278.725.305" transform="translate(-253.685 -15.956)" fill="#263238"/><path d="M333.1,72.05a2.508,2.508,0,0,1-.768-.214,4.245,4.245,0,0,1-1.745-1.475,4.96,4.96,0,0,1-.851-3.5,6.96,6.96,0,0,1,2.314-4.176,12.147,12.147,0,0,1,5.213-2.563,28.642,28.642,0,0,1,6.608-.853,29.106,29.106,0,0,1,14.673,3.722,10.719,10.719,0,0,1,3.11,2.609,6.472,6.472,0,0,1,1.4,3.709,4.951,4.951,0,0,1-1.393,3.561,8.18,8.18,0,0,1-3.1,1.945,20.993,20.993,0,0,1-6.583,1.064,37.478,37.478,0,0,1-5.792-.25,36.274,36.274,0,0,1-8.141-1.964c-.929-.343-1.636-.643-2.107-.867a4.638,4.638,0,0,1-.708-.358,4.889,4.889,0,0,1,.747.267c.482.193,1.2.462,2.132.776a38.756,38.756,0,0,0,8.117,1.8,38.042,38.042,0,0,0,5.736.188,20.821,20.821,0,0,0,6.438-1.081,7.748,7.748,0,0,0,2.915-1.841,4.478,4.478,0,0,0,1.253-3.224,6,6,0,0,0-1.3-3.42,10.252,10.252,0,0,0-2.97-2.484,28.937,28.937,0,0,0-14.417-3.691,28.593,28.593,0,0,0-6.512.8,11.874,11.874,0,0,0-5.079,2.425,6.707,6.707,0,0,0-2.274,3.953,4.791,4.791,0,0,0,.737,3.351,4.328,4.328,0,0,0,1.628,1.493c.46.227.733.278.725.305" transform="translate(-252.284 -7.294)" fill="#263238"/><path d="M486.669,212.986l13.107.327,6.254,8.059-6.73,8.211-13.45-.395Z" transform="translate(-259.578 -14.474)" fill="#a3314f"/><path d="M487.972,188.868l13.107.327,6.253,8.059-6.73,8.211-13.45-.395Z" transform="translate(-259.639 -13.347)" fill="#455a64"/><path d="M298.6,15.463H257.14a.493.493,0,0,0-.493.493v.2a.493.493,0,0,0,.493.493H298.6a.493.493,0,0,0,.493-.493v-.2a.493.493,0,0,0-.493-.493" transform="translate(-248.873 -5.248)" fill="#e0e0e0"/><path d="M298.6,19.427H257.14a.493.493,0,0,0-.493.493v.2a.493.493,0,0,0,.493.493H298.6a.493.493,0,0,0,.493-.493v-.2a.493.493,0,0,0-.493-.493" transform="translate(-248.873 -5.434)" fill="#e0e0e0"/><path d="M298.6,23.391H257.14a.493.493,0,0,0-.493.493v.2a.493.493,0,0,0,.493.493H298.6a.493.493,0,0,0,.493-.493v-.2a.493.493,0,0,0-.493-.493" transform="translate(-248.873 -5.619)" fill="#e0e0e0"/><path d="M309.2,19.162c.109-.083,6.706,8.46,14.733,19.077s14.448,19.3,14.338,19.38-6.705-8.458-14.735-19.08S309.089,19.245,309.2,19.162" transform="translate(-251.327 -5.421)" fill="#263238"/><path d="M310.479,18.279a1.614,1.614,0,1,1-1.615-1.615,1.615,1.615,0,0,1,1.615,1.615" transform="translate(-251.236 -5.305)" fill="#263238"/><path d="M353.484,360.177H305.129a4.1,4.1,0,0,1-4.092-4.294l.981-20.486a4.1,4.1,0,0,1,4.093-3.9h48.354a4.1,4.1,0,0,1,4.093,4.294l-.982,20.486a4.1,4.1,0,0,1-4.092,3.9" transform="translate(-250.946 -20.009)" fill="#fafafa"/><path d="M353.473,360.165a5.054,5.054,0,0,0,1.595-.379,4.075,4.075,0,0,0,2.41-3.711c.181-4.157.439-10.13.76-17.5-.015-1.812.6-3.925-.757-5.457a3.862,3.862,0,0,0-2.507-1.4c-.992-.074-2.1-.016-3.176-.031l-13.883.023-31.81.02a3.872,3.872,0,0,0-3.295,1.855,3.927,3.927,0,0,0-.558,1.857q-.05,1.037-.1,2.066-.2,4.118-.393,8.108t-.38,7.824q-.047.959-.094,1.908a4.772,4.772,0,0,0,.123,1.8,3.879,3.879,0,0,0,2.269,2.51,4.233,4.233,0,0,0,1.7.284l1.8,0,3.524.006,6.74.012,12.1.03,17.516.079,4.762.046,1.238.025a2.651,2.651,0,0,1,.422.026,2.637,2.637,0,0,1-.422.026l-1.238.024-4.762.047-17.516.079-12.1.03-6.74.012-3.524.006-1.8,0a4.692,4.692,0,0,1-1.869-.312,4.336,4.336,0,0,1-2.545-2.8,5.222,5.222,0,0,1-.146-1.949q.044-.949.09-1.908.18-3.835.369-7.826t.384-8.108q.049-1.03.1-2.066a4.425,4.425,0,0,1,.628-2.091,4.371,4.371,0,0,1,3.719-2.094l31.81.019,13.883.023c1.1.021,2.132-.037,3.229.05a4.246,4.246,0,0,1,2.752,1.548,4.308,4.308,0,0,1,.952,2.88q-.073,1.45-.142,2.836c-.386,7.367-.7,13.338-.917,17.493a4.213,4.213,0,0,1-.942,2.583,4.065,4.065,0,0,1-2.832,1.5c-.281.009-.424,0-.424,0" transform="translate(-250.934 -19.997)" fill="#263238"/><path d="M350.9,341.95H309.436a.493.493,0,0,0-.493.493v.2a.493.493,0,0,0,.493.493H350.9a.492.492,0,0,0,.492-.493v-.2a.492.492,0,0,0-.492-.493" transform="translate(-251.315 -20.497)" fill="#e0e0e0"/><path d="M350.9,345.914H309.436a.493.493,0,0,0-.493.493v.2a.493.493,0,0,0,.493.493H350.9a.492.492,0,0,0,.492-.493v-.2a.492.492,0,0,0-.492-.493" transform="translate(-251.315 -20.682)" fill="#e0e0e0"/><path d="M350.9,349.878H309.436a.493.493,0,0,0-.493.493v.2a.493.493,0,0,0,.493.493H350.9a.492.492,0,0,0,.492-.493v-.2a.492.492,0,0,0-.492-.493" transform="translate(-251.315 -20.868)" fill="#e0e0e0"/><path d="M373.539,261.074c.122.063-7.61,15.144-17.267,33.679s-17.587,33.517-17.708,33.453,7.608-15.14,17.268-33.682,17.585-33.513,17.707-33.45" transform="translate(-252.699 -16.72)" fill="#263238"/><path d="M340.1,331.416a1.614,1.614,0,1,1-1.615-1.615,1.615,1.615,0,0,1,1.615,1.615" transform="translate(-252.62 -19.93)" fill="#263238"/></g></g><path d="M646.913,348.235H506.807v-5.791H646.913a2.4,2.4,0,0,1,2.4,2.4v1a2.4,2.4,0,0,1-2.4,2.4" transform="translate(691.765 1289.931)" fill="#ff725e"/><path d="M502.249,345.945c0,.115-11.755.209-26.253.209s-26.255-.093-26.255-.209,11.752-.209,26.255-.209,26.253.094,26.253.209" transform="translate(694.431 1289.777)" fill="#263238"/><path d="M521.107,346.81H455.3a14.43,14.43,0,0,1-14.43-14.429v-6.028a14.429,14.429,0,0,1,14.43-14.429h65.811Z" transform="translate(694.845 1291.357)" fill="#ff725e"/><path d="M646.913,317.715H507.9a1.09,1.09,0,0,1-1.09-1.091v-3.609a1.09,1.09,0,0,1,1.09-1.091H646.913a2.4,2.4,0,0,1,2.4,2.4v1a2.4,2.4,0,0,1-2.4,2.4" transform="translate(691.765 1291.357)" fill="#ff725e"/><path d="M645.266,341.3H522.917a11.652,11.652,0,0,1,0-23.3h122.35a28.814,28.814,0,0,0,0,23.3" transform="translate(691.557 1291.072)" fill="#f5f5f5"/><g transform="translate(1135.712 1603.28)" opacity="0.3"><g clip-path="url(#b)"><path d="M507.978,346.81h-53.89a13.22,13.22,0,0,1-13.22-13.219v-8.554a13.113,13.113,0,0,1,13.114-13.112h55.325c-12.631,7.651-11.687,25.975-1.328,34.886" transform="translate(-440.867 -311.924)" fill="#a3314f"/></g></g><path d="M630.743,331.347c0,.115-25.113.209-56.084.209s-56.089-.093-56.089-.209,25.107-.209,56.089-.209,56.084.093,56.084.209" transform="translate(691.216 1290.459)" fill="#263238"/><path d="M642.851,336.78c0,.115-25.113.209-56.084.209s-56.089-.093-56.089-.209,25.107-.209,56.089-.209,56.084.093,56.084.209" transform="translate(690.651 1290.205)" fill="#263238"/><path d="M639.281,323.641c0,.115-25.113.209-56.084.209s-56.089-.093-56.089-.209,25.107-.209,56.089-.209,56.084.093,56.084.209" transform="translate(690.817 1290.818)" fill="#263238"/><path d="M502.249,314.952c0,.115-11.755.209-26.253.209s-26.255-.093-26.255-.209,11.752-.209,26.255-.209,26.253.094,26.253.209" transform="translate(694.431 1291.224)" fill="#263238"/><path d="M506.212,419.136h-77.55a18.583,18.583,0,0,1-18.582-18.583v-7.763a18.583,18.583,0,0,1,18.582-18.583h77.55a7.2,7.2,0,0,1,7.2,7.2v30.52a7.2,7.2,0,0,1-7.2,7.2" transform="translate(696.283 1288.447)" fill="#ffb500"/><path d="M675.435,381.667H496.78a1.78,1.78,0,0,1-1.78-1.781v-3.9a1.78,1.78,0,0,1,1.78-1.781H675.435a3.084,3.084,0,0,1,3.084,3.085v1.289a3.084,3.084,0,0,1-3.084,3.085" transform="translate(692.317 1288.447)" fill="#ffb500"/><path d="M675.435,420.972H496.78a1.78,1.78,0,0,1-1.78-1.781v-3.9a1.78,1.78,0,0,1,1.78-1.781H675.435a3.084,3.084,0,0,1,3.084,3.085v1.289a3.084,3.084,0,0,1-3.084,3.085" transform="translate(692.317 1286.611)" fill="#ffb500"/><path d="M673.314,412.044H515.747a15.006,15.006,0,0,1,0-30.012H673.314a37.108,37.108,0,0,0,0,30.012" transform="translate(692.049 1288.082)" fill="#f5f5f5"/><g transform="translate(1106.362 1662.655)" opacity="0.3"><g clip-path="url(#c)"><path d="M496.507,419.136H432.3a22.223,22.223,0,0,1-22.222-22.223,22.7,22.7,0,0,1,22.7-22.7h65.434c-16.267,9.854-15.052,33.453-1.71,44.928" transform="translate(-410.079 -374.208)"/></g></g><path d="M654.61,399.224c0,.115-32.341.209-72.227.209s-72.235-.093-72.235-.209,32.335-.209,72.235-.209,72.227.093,72.227.209" transform="translate(691.609 1287.289)" fill="#263238"/><path d="M670.2,406.221c0,.115-32.341.209-72.227.209s-72.235-.094-72.235-.209,32.335-.209,72.235-.209,72.227.093,72.227.209" transform="translate(690.881 1286.962)" fill="#263238"/><path d="M665.605,392.731c0,.115-32.341.209-72.227.209s-72.235-.093-72.235-.209,32.335-.209,72.235-.209,72.227.093,72.227.209" transform="translate(691.096 1287.592)" fill="#263238"/><path d="M489.13,418.025c0,.115-15.139.209-33.809.209s-33.812-.093-33.812-.209,15.136-.209,33.812-.209,33.809.093,33.809.209" transform="translate(695.75 1286.41)" fill="#263238"/><path d="M489.13,378.11c0,.115-15.139.209-33.809.209s-33.812-.093-33.812-.209,15.136-.209,33.812-.209,33.809.093,33.809.209" transform="translate(695.75 1288.275)" fill="#263238"/><path d="M542.022,373.12H469.2a10.64,10.64,0,0,1-10.64-10.64v-4.444A10.64,10.64,0,0,1,469.2,347.4h72.824a.5.5,0,0,1,.495.495v24.734a.5.5,0,0,1-.495.495" transform="translate(694.019 1289.7)" fill="#455a64"/><path d="M674.151,353.455H528.694a1.141,1.141,0,0,1-1.141-1.141v-3.777a1.142,1.142,0,0,1,1.141-1.142H674.151a2.507,2.507,0,0,1,2.506,2.507v1.047a2.506,2.506,0,0,1-2.506,2.506" transform="translate(690.797 1289.699)" fill="#455a64"/><path d="M674.151,374.083H528.694a1.141,1.141,0,0,1-1.141-1.141v-3.777a1.142,1.142,0,0,1,1.141-1.142H674.151a2.506,2.506,0,0,1,2.506,2.507v1.047a2.506,2.506,0,0,1-2.506,2.506" transform="translate(690.797 1288.736)" fill="#455a64"/><path d="M672.428,367.356H539.021a6.8,6.8,0,1,1,0-13.6H672.428q-5.149,6.8,0,13.6" transform="translate(690.579 1289.402)" fill="#f5f5f5"/><g transform="translate(1152.577 1637.095)" opacity="0.3"><g clip-path="url(#d)"><path d="M528.778,373.12H471.316a12.758,12.758,0,0,1-12.758-12.759A12.965,12.965,0,0,1,471.523,347.4h58.645c-13.218,5.642-12.23,19.154-1.39,25.724" transform="translate(-458.558 -347.396)"/></g></g><path d="M657.232,359.754c0,.115-26.277.209-58.683.209s-58.689-.093-58.689-.209,26.271-.209,58.689-.209,58.683.093,58.683.209" transform="translate(690.222 1289.132)" fill="#263238"/><path d="M669.9,363.595c0,.115-26.277.209-58.683.209s-58.689-.094-58.689-.209,26.271-.209,58.689-.209,58.683.093,58.683.209" transform="translate(689.63 1288.952)" fill="#263238"/><path d="M522.784,371.687c0,.115-12.3.209-27.469.209s-27.471-.093-27.471-.209,12.3-.209,27.471-.209,27.469.093,27.469.209" transform="translate(693.585 1288.575)" fill="#263238"/><path d="M522.784,350.564c0,.115-12.3.209-27.469.209s-27.471-.094-27.471-.209,12.3-.209,27.471-.209,27.469.093,27.469.209" transform="translate(693.585 1289.562)" fill="#263238"/><path d="M672.252,347.386c0,.115-45.119.209-100.764.209-55.665,0-100.775-.094-100.775-.209s45.11-.209,100.775-.209c55.645,0,100.764.093,100.764.209" transform="translate(693.451 1289.71)" fill="#263238"/><path d="M597.246,323.251v13.971l4.843-3.1,5.4,3.1V323.251Z" transform="translate(687.541 1290.828)" fill="#ff725e"/><path d="M661.552,72.6H618.323a16.563,16.563,0,0,0-.959,33.1l3.914,6.772,4.89-6.724h35.384a16.574,16.574,0,0,0,0-33.148" transform="translate(687.331 1302.534)" fill="#fff"/><path d="M661.541,72.594s.149-.009.441,0l1.3.047a17.473,17.473,0,0,1,4.844,1.219,17.1,17.1,0,0,1,6.343,4.729,17.869,17.869,0,0,1,2.564,4.287,16.315,16.315,0,0,1,1.21,5.48,16.632,16.632,0,0,1-4.2,11.963,17.039,17.039,0,0,1-5.849,4.256,17.828,17.828,0,0,1-7.563,1.388l-34.472.027.2-.1c-1.554,2.136-3.213,4.418-4.889,6.725l-.225.308-.19-.33-1.594-2.758c-.8-1.375-1.585-2.743-2.321-4.014l.2.123a18.44,18.44,0,0,1-4.846-1.011,17.6,17.6,0,0,1-4.281-2.34,16.755,16.755,0,0,1-2.569-24.43,16.584,16.584,0,0,1,6.8-4.7c.32-.113.633-.239.953-.338l.973-.249a15.861,15.861,0,0,1,1.95-.353c.65-.088,1.3-.08,1.948-.123h1.9l13.927.03,20.1.077,5.448.046,1.416.024c.318.009.481.025.481.025s-.163.016-.481.025l-1.416.024-5.448.046-20.1.077-13.927.031-1.9,0c-.628.046-1.266.039-1.9.127a15.365,15.365,0,0,0-1.9.35l-.948.245c-.312.1-.617.222-.928.333a16.166,16.166,0,0,0-6.614,4.6,16.307,16.307,0,0,0,2.524,23.742,17.091,17.091,0,0,0,4.156,2.27,18,18,0,0,0,4.7.98l.135.01.066.113,2.32,4.014c.545.945,1.089,1.886,1.593,2.757l-.415-.022,4.891-6.722.074-.1h.126l34.472.027a17.4,17.4,0,0,0,7.4-1.331,16.658,16.658,0,0,0,5.724-4.134,16.306,16.306,0,0,0,4.158-11.686,16.042,16.042,0,0,0-1.156-5.385,17.68,17.68,0,0,0-2.49-4.234,17.05,17.05,0,0,0-6.214-4.728,18.236,18.236,0,0,0-6.508-1.43" transform="translate(687.342 1302.544)" fill="#263238"/><path d="M621.636,84.555l1.55,3.141,3.466.5-2.508,2.444.592,3.453-3.1-1.63-3.1,1.63.592-3.453L616.62,88.2l3.466-.5Z" transform="translate(686.636 1301.976)" fill="#ffb500"/><path d="M635.431,84.555l1.55,3.141,3.466.5-2.508,2.444.592,3.453-3.1-1.63-3.1,1.63.592-3.453L630.415,88.2l3.466-.5Z" transform="translate(685.992 1301.976)" fill="#ffb500"/><path d="M649.226,84.555l1.55,3.141,3.466.5-2.508,2.444.592,3.453-3.1-1.63-3.1,1.63.592-3.453L644.21,88.2l3.466-.5Z" transform="translate(685.348 1301.976)" fill="#ffb500"/><path d="M663.021,84.555l1.55,3.141,3.466.5-2.508,2.444.592,3.453-3.1-1.63-3.1,1.63.592-3.453L658,88.2l3.466-.5Z" transform="translate(684.704 1301.976)" fill="#ffb500"/><path d="M126.909,126.6l7.058.683a22.821,22.821,0,1,0-3.819-7.23l-.007-.01Z" transform="translate(737.771 1255.746)" fill="#fff"/><path d="M126.909,126.591s.087-.153.235-.437c.156-.3.37-.72.645-1.255.567-1.115,1.386-2.728,2.447-4.818l-.184.01.008.01a.105.105,0,0,0,.146.033.108.108,0,0,0,.044-.122,22.824,22.824,0,0,1-.6-11.087,22.922,22.922,0,0,1,7.741-13.048,22.532,22.532,0,0,1,34.318,6.67l.637,1.234.52,1.281a24.337,24.337,0,0,1,.849,2.608,22.627,22.627,0,0,1-39.667,19.537l-.073-.038-5.219-.441-1.366-.109c-.31-.024-.48-.03-.48-.03a4.355,4.355,0,0,0,.434.059l1.333.153,5.281.576-.072-.039a22.679,22.679,0,0,0,8.852,6.888,23.031,23.031,0,0,0,29.806-10.921,23.3,23.3,0,0,0,1.652-15.756,24.427,24.427,0,0,0-.867-2.665l-.531-1.31-.65-1.26a22.983,22.983,0,0,0-35.023-6.757,22.767,22.767,0,0,0-5.277,6.41,22.49,22.49,0,0,0-2.517,6.9,22.806,22.806,0,0,0,.717,11.213l.191-.09-.007-.01a.106.106,0,0,0-.145-.033.117.117,0,0,0-.04.044l-2.363,4.942-.59,1.25c-.13.278-.193.417-.184.412" transform="translate(736.926 1255.975)" fill="#263238"/><path d="M153.793,122.668l-.034,2.561-2.287-.031.033-2.493a10.844,10.844,0,0,1-5.67-1.9l1.295-2.774a9.242,9.242,0,0,0,4.416,1.683l.051-3.82c-2.53-.65-5.355-1.535-5.312-4.806.033-2.424,1.822-4.481,5.44-4.845l.033-2.54,2.287.031-.032,2.494a10.335,10.335,0,0,1,4.623,1.456l-1.181,2.8a9.358,9.358,0,0,0-3.483-1.236l-.051,3.888c2.531.628,5.31,1.512,5.267,4.736-.032,2.379-1.8,4.414-5.394,4.8m-2.153-10.139.043-3.248c-1.215.258-1.7.916-1.715,1.67-.01.8.67,1.245,1.672,1.578m3.861,5.564c.01-.8-.647-1.244-1.626-1.6l-.042,3.156c1.148-.236,1.659-.824,1.668-1.556" transform="translate(736.042 1255.344)" fill="#e0e0e0"/><g transform="translate(1103.975 1350.31)"><path d="M542.939,85.619s-4.331,16.192-4.7,27.647l-.124,3.817s9.555,7.934,17.57,8.423l6.718-16.519Z" transform="translate(-413.672 -48.386)" fill="#263238"/><path d="M585.526,94.719c-1.827-7.9-2.528-17.089-9.1-22.238-4.873-3.821-10.425-4.887-16.613-4.627a21.922,21.922,0,0,0-9.14,3.035c-3.638,2.06-5.179,6.236-6.935,10.031-3.517,7.6-3.071,17.9-.689,20.757l31.767,16.775c6.343-3.3,10.317-4.616,11.331-13.072a30.975,30.975,0,0,0-.624-10.661" transform="translate(-413.816 -47.555)" fill="#263238"/><path d="M576.2,79,556.21,73.1c-6.441-.938-11.053,6.855-11.718,13.329-.738,7.193-1.355,16-.712,21.417,1.292,10.886,9.529,12.588,9.529,12.588,0-.036.019.163-.046,3.378l-.025,6.624c-.085,2.107.285,2.815,1.574,4.484,2.949,3.82,8.322,4.33,14.659,1.986,3.673-1.358,6.226-4.092,6.507-7.815l3.476-46.1A3.809,3.809,0,0,0,576.2,79" transform="translate(-413.924 -47.798)" fill="#ae7461"/><path d="M546.534,97.361a1.388,1.388,0,0,0,1.283,1.452,1.327,1.327,0,0,0,1.479-1.194,1.388,1.388,0,0,0-1.28-1.453,1.329,1.329,0,0,0-1.482,1.2" transform="translate(-414.065 -48.879)" fill="#263238"/><path d="M545.927,93.864c.165.188,1.247-.549,2.74-.486,1.492.041,2.557.852,2.726.676.083-.078-.08-.411-.543-.777a3.815,3.815,0,0,0-2.173-.766,3.66,3.66,0,0,0-2.19.613c-.473.335-.641.656-.56.74" transform="translate(-414.036 -48.708)" fill="#263238"/><path d="M560.3,97.586a1.388,1.388,0,0,0,1.283,1.452,1.328,1.328,0,0,0,1.48-1.194,1.39,1.39,0,0,0-1.282-1.453,1.328,1.328,0,0,0-1.481,1.2" transform="translate(-414.708 -48.889)" fill="#263238"/><path d="M561.332,94.048c.166.188,1.249-.548,2.74-.485,1.492.041,2.558.851,2.727.675.082-.077-.078-.411-.543-.777a3.819,3.819,0,0,0-2.175-.766,3.658,3.658,0,0,0-2.189.613c-.472.335-.642.656-.56.74" transform="translate(-414.756 -48.717)" fill="#263238"/><path d="M555.05,103.66a9.929,9.929,0,0,0-2.408-.533c-.379-.054-.737-.144-.791-.407a1.938,1.938,0,0,1,.3-1.12q.592-1.363,1.242-2.858c1.729-4.072,3-7.426,2.83-7.494s-1.7,3.176-3.427,7.248q-.625,1.507-1.194,2.878a2.2,2.2,0,0,0-.256,1.488.953.953,0,0,0,.6.582,2.622,2.622,0,0,0,.645.115,9.7,9.7,0,0,0,2.457.1" transform="translate(-414.287 -48.649)" fill="#263238"/><path d="M553.743,122.6a27.541,27.541,0,0,0,14.641-3.295s-3.881,7.429-14.667,5.99Z" transform="translate(-414.401 -49.96)" fill="#6f4439"/><path d="M560.087,107.7a2.166,2.166,0,0,0-1.761-1.052,2.818,2.818,0,0,0-2.616,1.17,1.75,1.75,0,0,0-.163,1.259c.086.218.016.11.177.264a4.927,4.927,0,0,0,1.965,1.328,2.115,2.115,0,0,0,2.263-.734,2.158,2.158,0,0,0,.134-2.235" transform="translate(-414.484 -49.368)" fill="#6f4439"/><path d="M559.838,105.6c-.242-.024-.318,1.595-1.757,2.684s-3.154.83-3.177,1.056c-.028.1.37.333,1.1.386a4.038,4.038,0,0,0,2.648-.791,3.517,3.517,0,0,0,1.369-2.254c.092-.675-.07-1.085-.181-1.081" transform="translate(-414.456 -49.32)" fill="#263238"/><path d="M560.741,88.34c.107.418,1.611.371,3.335.751,1.732.345,3.09.992,3.357.653.12-.164-.089-.568-.62-1.014a5.947,5.947,0,0,0-5.1-1.071c-.666.2-1.019.482-.974.681" transform="translate(-414.729 -48.473)" fill="#263238"/><path d="M546.055,89.616c.338.294,1.426-.219,2.792-.434,1.359-.256,2.56-.14,2.776-.529.092-.188-.139-.5-.691-.743a4.255,4.255,0,0,0-2.354-.221,4.2,4.2,0,0,0-2.132,1c-.434.416-.543.784-.391.929" transform="translate(-414.04 -48.48)" fill="#263238"/><path d="M556.757,71.882c-.018.078-.033.157-.051.234l.037.016c0-.084.009-.167.013-.251" transform="translate(-414.54 -47.745)" fill="#263238"/><path d="M570.024,124.688c.306-2.837-.835-5.686-.5-8.521.351-3,2.3-5.579,3.1-8.5,1.279-4.673-.476-9.642-1.118-14.47a11.462,11.462,0,0,1-7.036-4.062c-2.171-2.53-3.482-5.664-4.76-8.743a14.64,14.64,0,0,0,2.943,8.409,3.948,3.948,0,0,1-3.372-1.1,8.824,8.824,0,0,1-1.979-3.073,24.014,24.014,0,0,1-1.916-8.656A31.1,31.1,0,0,0,556.79,88.62a5.408,5.408,0,0,0-2.353.09,2.58,2.58,0,0,1-2.238-.476,2.822,2.822,0,0,1-.613-1.443,32.443,32.443,0,0,1-.359-11.012,33.565,33.565,0,0,0-2.482,6.1,11.824,11.824,0,0,0-.046,6.512.956.956,0,0,1-1.344-.009,2.279,2.279,0,0,1-.588-1.359,16.747,16.747,0,0,1,.356-5.48c-1.082,1.917-1.441,4.142-2.039,6.261s-1.551,4.292-3.393,5.5a28.819,28.819,0,0,1,.271-8.3,25.057,25.057,0,0,1,2.434-6.589,19.569,19.569,0,0,1,4.387-6.107c3.188-2.792,4.521-1.59,6.556-.526l.241.1c.007-.05.009-.1.016-.15l.092-.434a30.551,30.551,0,0,1,16.083.752c3.838,1.252,4.19,9.514,5.126,5.588.567-2.377,3.647-.208,3.685-.139,4.526,8.164,9.324,21.115,9.543,41.579Z" transform="translate(-413.831 -47.683)" fill="#263238"/><path d="M584.442,61.755a10.193,10.193,0,0,0-7.037-3.425,7.683,7.683,0,0,0-6.8,3.539,6.192,6.192,0,0,0,.837,7.4l3.344,2.676a9.157,9.157,0,0,0,7.595.737,6.6,6.6,0,0,0,4.288-6.025,7.765,7.765,0,0,0-2.232-4.906" transform="translate(-415.15 -47.112)" fill="#263238"/><path d="M581.858,77.06c-.648.3-2.478-2.5-5.747-4.7-3.219-2.278-6.488-3-6.435-3.71.028-.324.948-.585,2.44-.432a12.5,12.5,0,0,1,9.28,6.411c.672,1.341.753,2.295.461,2.436" transform="translate(-415.146 -47.571)" fill="#455a64"/><path d="M532.832,170.214l12.526-11.732,8.486,13.48c-.169,1.21-10.986,24.519-15.669,29.348-5.343,5.511-12.627,5.085-15.841-2.524-2.534-6-6.739-24.47-6.739-24.47Z" transform="translate(-412.62 -51.789)" fill="#a3314f"/><path d="M547.074,133.679c-2.992,1.078-9.874,4.84-11.88,7.309a18.881,18.881,0,0,0-2.53,3.91c-1.567,3.448-4.545,29.013-4.545,29.013l13.34,9.662,11.615-44.714-.742-7.091Z" transform="translate(-413.205 -50.542)" fill="#a3314f"/><path d="M543.214,207.331l.84-6.6a214.644,214.644,0,0,1-3.516-22.013c-1.5-16.262,2.739-26.37,3.319-28.084.329-.971,9.041-19.016,9.041-19.016s1.829,5.559,9.181,4.244c10.252-1.833,13.987-7.391,13.987-7.391l13.246,2.865s5.161,20.726,5.921,27.593c.408,3.682-4.444,24.493-4.444,24.493l7.812,11.686c.234.575-3.394,16.545-4.1,17.205s-13.418,3.611-13.575,4.154-24.225,10.62-24.21,10.208-11.58-14.184-11.58-14.184Z" transform="translate(-413.77 -50.388)" fill="#a3314f"/><path d="M540.145,154.319a1.88,1.88,0,0,1-.03.483c-.045.37-.1.823-.164,1.371-.141,1.19-.343,2.912-.52,5.047a72.394,72.394,0,0,0,.312,16.668c.856,6.48,2.106,12.275,2.912,16.487.41,2.106.723,3.814.922,5,.085.546.154,1,.212,1.366a1.776,1.776,0,0,1,.04.482,1.83,1.83,0,0,1-.138-.464l-.3-1.348c-.271-1.246-.634-2.924-1.076-4.964-.893-4.192-2.2-9.986-3.061-16.493a67.177,67.177,0,0,1-.168-16.767c.221-2.137.477-3.857.677-5.041.1-.592.189-1.051.256-1.359a1.742,1.742,0,0,1,.13-.467" transform="translate(-413.696 -51.595)" fill="#263238"/><path d="M600.771,208.023c2.375,4.031,7.8,19.458,9.906,27.337,9.62,35.953,17.759,84.3,20.462,94.158,3.6,13.13,11.667,42.835,15.773,62.618l-19.715,8.6s-25.821-69.576-32.865-86.673c-7.3-17.715-19.478-51.131-19.478-51.131L567.82,395.47l-18.886.583s-6.459-37.347-9.026-59.67-2.855-68.271-2.876-79.933c-.027-14.2,6.129-46.149,6.129-46.149s7.366,5.528,21.178,3.412c11-1.685,33.806-10.147,33.806-10.147Z" transform="translate(-413.622 -53.895)" fill="#263238"/><path d="M563.62,219.035a9.125,9.125,0,0,0,.111,1.522c.1.975.273,2.385.5,4.124.461,3.478,1.185,8.272,2.127,13.542s1.927,10.02,2.7,13.442c.386,1.711.714,3.092.957,4.043a9.036,9.036,0,0,0,.424,1.465,9.08,9.08,0,0,0-.238-1.507c-.207-1.046-.477-2.417-.8-4.073-.684-3.439-1.613-8.191-2.556-13.457s-1.717-10.043-2.267-13.505c-.267-1.665-.489-3.047-.659-4.1a9.117,9.117,0,0,0-.3-1.5" transform="translate(-414.863 -54.618)" fill="#455a64"/><path d="M570.52,218.718c.027,0-.03-.237-.368-.385a2.41,2.41,0,0,0-1.439-.047,2.9,2.9,0,0,0-.942.385,1.579,1.579,0,0,0-.644,1.047,2.417,2.417,0,0,0,1.081,2.4,2.488,2.488,0,0,0,2.631.118,1.715,1.715,0,0,0,.726-.98,2.441,2.441,0,0,0,.07-1.022,2.058,2.058,0,0,0-.635-1.3c-.272-.226-.477-.242-.482-.219-.018.04.151.118.345.354a2.079,2.079,0,0,1,.426,1.2,1.663,1.663,0,0,1-.687,1.582,2.079,2.079,0,0,1-2.126-.144,2,2,0,0,1-.9-1.912,1.182,1.182,0,0,1,.435-.79,2.724,2.724,0,0,1,.794-.381,2.6,2.6,0,0,1,1.287-.109c.3.069.393.229.43.2" transform="translate(-415.025 -54.579)" fill="#455a64"/><path d="M558.018,254.095a18.224,18.224,0,0,0,2.284,1.566c1.428.934,3.382,2.25,5.477,3.792s3.927,3.025,5.243,4.113a18.43,18.43,0,0,0,2.171,1.72,13.277,13.277,0,0,0-1.944-1.982,65,65,0,0,0-10.765-7.939,13.324,13.324,0,0,0-2.466-1.271" transform="translate(-414.602 -56.255)" fill="#455a64"/><path d="M608.178,329a2.619,2.619,0,0,0,.817.028c.524-.011,1.281-.068,2.214-.174a39.553,39.553,0,0,0,13.922-4.363c.826-.444,1.479-.83,1.916-1.12s.672-.459.655-.489a29.132,29.132,0,0,0-2.728,1.3,49.7,49.7,0,0,1-13.813,4.329,29.469,29.469,0,0,0-2.982.49" transform="translate(-416.945 -59.468)" fill="#455a64"/><path d="M611.537,326.915a7.417,7.417,0,0,0,1.934-.515c1.17-.391,2.766-1,4.483-1.771s3.231-1.565,4.3-2.182a7.426,7.426,0,0,0,1.668-1.106c-.072-.125-2.753,1.308-6.17,2.84s-6.262,2.6-6.216,2.734" transform="translate(-417.102 -59.396)" fill="#455a64"/><path d="M548.388,391.064l-.1,19.677s-20.035,6.507-20.406,10.142l38.144,1.562,1.413-30.652Z" transform="translate(-413.194 -62.652)" fill="#263238"/><path d="M561.639,410.474a1.558,1.558,0,0,1,1,1.822,1.5,1.5,0,0,1-1.8,1.012,1.646,1.646,0,0,1-1.053-1.935,1.556,1.556,0,0,1,1.987-.845" transform="translate(-414.681 -63.555)" fill="#e0e0e0"/><path d="M566.027,423.815l.021-3.1-36.58-.34s-1.729.669-1.585,1.873Z" transform="translate(-413.194 -64.022)" fill="#455a64"/><path d="M548.649,411.468c0,.187.926.309,1.818.946.909.613,1.348,1.44,1.522,1.373.173-.03-.058-1.155-1.153-1.906s-2.221-.585-2.188-.413" transform="translate(-414.164 -63.598)" fill="#fff"/><path d="M544.381,413.035c-.05.178.744.528,1.344,1.342.625.8.749,1.654.935,1.654.174.036.347-1.049-.418-2.047s-1.849-1.127-1.861-.95" transform="translate(-413.965 -63.675)" fill="#fff"/><path d="M541.724,417.8c.168.047.465-.873.029-1.913s-1.291-1.481-1.376-1.329c-.112.149.432.719.777,1.579.366.85.387,1.638.571,1.663" transform="translate(-413.777 -63.749)" fill="#fff"/><path d="M549.194,406.744c.072.173.936-.049,1.986.066,1.052.093,1.857.479,1.961.324.113-.131-.658-.852-1.9-.97s-2.135.43-2.05.581" transform="translate(-414.189 -63.357)" fill="#fff"/><path d="M643.114,388.9l7.307,22.657,10.947,16.254a2.439,2.439,0,0,1-3.031,3.583c-4.577-2.1-21.372-9.894-21.814-11.582-.511-1.955-9.293-23.388-9.293-23.388Z" transform="translate(-417.834 -62.551)" fill="#263238"/><path d="M661,432.723l-24.572-12.99.332.953a3.669,3.669,0,0,0,1.6,1.962c2.011,1.181,7.637,4.32,20.338,10.209a2.438,2.438,0,0,0,2.3-.134" transform="translate(-418.264 -63.991)" fill="#455a64"/><g transform="translate(218.481 346.821)" opacity="0.6"><g clip-path="url(#e)"><path d="M638.53,410.438a1.476,1.476,0,0,1,1.014,1.687,1.419,1.419,0,0,1-1.665,1.021,1.556,1.556,0,0,1-1.065-1.793,1.472,1.472,0,0,1,1.849-.869" transform="translate(-636.761 -410.376)" fill="#fff"/></g></g><path d="M653.219,424.738a5.264,5.264,0,0,1,3.779-3.83c0-.062-.345-.138-.9-.029a3.89,3.89,0,0,0-2.922,2.963c-.1.554-.021.9.041.9" transform="translate(-419.044 -64.042)" fill="#fff"/><path d="M656,427.367c.141.06.608-.922,1.655-1.66a20.206,20.206,0,0,1,2.1-1.048,2.71,2.71,0,0,0-2.4.623c-1.189.848-1.487,2.064-1.349,2.084" transform="translate(-419.177 -64.217)" fill="#fff"/><path d="M648.686,421.74a12.53,12.53,0,0,1,5.446-4.672,6.669,6.669,0,0,0-5.446,4.672" transform="translate(-418.836 -63.866)" fill="#fff"/><path d="M645.752,414.821c.107.114,1.169-.837,2.765-1.457,1.587-.644,3.012-.679,3.011-.835a6.056,6.056,0,0,0-5.776,2.293" transform="translate(-418.699 -63.649)" fill="#fff"/><path d="M643.327,407.906a7.742,7.742,0,0,1,6.079-1.883c.02-.06-.323-.256-.945-.376a5.316,5.316,0,0,0-4.565,1.414c-.446.45-.619.806-.568.845" transform="translate(-418.586 -63.33)" fill="#fff"/><path d="M645.59,404.817a2.062,2.062,0,0,0-.265-.861,6.256,6.256,0,0,0-1.451-1.993,2.773,2.773,0,0,0-1.558-.86.98.98,0,0,0-.972.569,1.592,1.592,0,0,0,0,1.138,3.447,3.447,0,0,0,3.9,2.02,4,4,0,0,0,3.022-3.266,1.384,1.384,0,0,0-.317-1.111.961.961,0,0,0-1.117-.151,3.421,3.421,0,0,0-1.214,1.285,7.007,7.007,0,0,0-.927,2.281,2.148,2.148,0,0,0-.075.9,11.126,11.126,0,0,1,1.311-2.974,3.177,3.177,0,0,1,1.085-1.094.511.511,0,0,1,.609.078.946.946,0,0,1,.166.743,3.568,3.568,0,0,1-2.652,2.8,2.994,2.994,0,0,1-3.338-1.666,1.157,1.157,0,0,1-.033-.8.532.532,0,0,1,.532-.322,2.51,2.51,0,0,1,1.333.7,9.24,9.24,0,0,1,1.961,2.577" transform="translate(-418.488 -63.079)" fill="#fff"/><path d="M517.861,154.319l9.1,9.4.369,8.182-10.559,2.428h-.538l-.682-5.281-6.086-8.091Z" transform="translate(-412.334 -51.595)" fill="#ae7461"/><path d="M503.368,142.618a55.444,55.444,0,1,1,13.874-48.7,55.031,55.031,0,0,1-13.874,48.7m-75.757-.147a51.728,51.728,0,1,0-15.336-27.613,51.333,51.333,0,0,0,15.336,27.613" transform="translate(-407.575 -46.693)" fill="#455a64"/><path d="M503.368,142.618a55.444,55.444,0,1,1,13.874-48.7,55.031,55.031,0,0,1-13.874,48.7m-75.757-.147a51.728,51.728,0,1,0-15.336-27.613,51.333,51.333,0,0,0,15.336,27.613" transform="translate(-407.575 -46.693)" fill="#263238"/><path d="M504.8,139.822a55.444,55.444,0,1,1,13.874-48.7,55.026,55.026,0,0,1-13.874,48.7m-75.757-.147A51.728,51.728,0,1,0,413.7,112.062a51.338,51.338,0,0,0,15.336,27.613" transform="translate(-407.642 -46.562)" fill="#455a64"/><path d="M570.6,214.2l1.763-1.705c1.572-1.521.69-5-.959-6.687l-61.882-63.962-8.275,8.006,61.791,63.866c2.086,2.047,5.539,2.442,7.563.483" transform="translate(-411.95 -51.012)" fill="#455a64"/><path d="M513.9,149.911a1.458,1.458,0,0,0-1.253-.334,2.434,2.434,0,0,0-.981.684,11.222,11.222,0,0,0-3.188,7.76c0,1.23.324,2.64,1.419,3.2l1.241-.72c.386-.5,1.537-1.328,1.689-1.939.643-2.57-.279-2.462,1.332-6.919a1.537,1.537,0,0,0-.259-1.732" transform="translate(-412.288 -51.372)" fill="#ae7461"/><path d="M513.749,153.644a6.1,6.1,0,0,1,1.231-1.622,1.788,1.788,0,0,1,1.637-.489c.858.27,1.275,1.5,1.177,2.654a9.992,9.992,0,0,1-1.067,3.266q-1.527,3.313-3.057,6.627l-.592-.436a.837.837,0,0,1-1.32-.291,3.514,3.514,0,0,1-.291-1.8,17.3,17.3,0,0,1,2.282-7.906" transform="translate(-412.427 -51.462)" fill="#ae7461"/><path d="M515.362,160.426a15.514,15.514,0,0,1,3.06-4.1,3.768,3.768,0,0,1,1.421-1.079,1.336,1.336,0,0,1,1.6.469,1.846,1.846,0,0,1-.216,1.625,75.924,75.924,0,0,1-5.262,9.24l-1.827-1.841c-.829-1.495.524-2.759,1.228-4.314" transform="translate(-412.54 -51.634)" fill="#ae7461"/><path d="M565.634,181.467l-1.678-.356-8.779-7.483-4.806-4.036a2.93,2.93,0,0,0-1.407-.648l-4.755-.794a2.7,2.7,0,0,0,1.423,3.262l2.606,1.349,2.385,2.819-.305.61s-15.629,2.425-16.605,3.617a1.625,1.625,0,0,0,.434,2.494,2.531,2.531,0,0,0,1.193.108s-.759,1.843,1.517,3.36c0,0-1.735,2.276,1.3,3.36a4.9,4.9,0,0,0,2.6,2.276,112.553,112.553,0,0,0,12.032,1.626c.975,0,11.205.016,11.205.016l2.25.368Z" transform="translate(-413.447 -52.241)" fill="#ae7461"/><path d="M535.062,183.11a12.46,12.46,0,0,0,4.322.233,17.305,17.305,0,0,0,4.278-.635,21.378,21.378,0,0,0-4.308.144,41.405,41.405,0,0,0-4.291.258" transform="translate(-413.53 -52.918)" fill="#6f4439"/><path d="M537.031,186.624c0,.07.406.125,1.057.212s1.553.209,2.57.272a22.253,22.253,0,0,0,2.592-.056,4.118,4.118,0,0,0,1.068-.1c.019-.071-.4-.208-1.063-.252-.67-.063-1.581-.023-2.568-.088s-1.91-.134-2.577-.128-1.08.07-1.079.135" transform="translate(-413.622 -53.098)" fill="#6f4439"/><path d="M538.07,190.08a18.494,18.494,0,0,0,4.213.565,10.051,10.051,0,0,1,2.885.447c.688.26,1,.629,1.065.574.047-.023-.192-.51-.921-.889a7.635,7.635,0,0,0-2.991-.622,18.516,18.516,0,0,0-4.25-.075" transform="translate(-413.67 -53.261)" fill="#6f4439"/><path d="M590.571,131.472s6.606,1.14,11.615,10.983c2.768,5.441,15.706,38.161,16.474,41.031,3.283,12.276-3.069,20.188-9.186,20.726-6.732.591-41.551-10.643-41.551-10.643l-.769-14.876,31.761,4.822L583.656,153.9s-.585-19.727,6.915-22.423" transform="translate(-415.028 -50.528)" fill="#a3314f"/><path d="M611.118,194.2a5.408,5.408,0,0,0-.854-1.983,13.393,13.393,0,0,0-8.326-5.941,5.413,5.413,0,0,0-2.152-.163c-.006.086.813.145,2.068.5a15.109,15.109,0,0,1,8.119,5.793c.743,1.072,1.066,1.827,1.145,1.793" transform="translate(-416.553 -53.078)" fill="#263238"/><path d="M600.739,204.088a.518.518,0,0,1-.164-.022l-.476-.1c-.422-.087-1.031-.269-1.828-.486-1.588-.459-3.9-1.167-6.807-2.093-5.817-1.856-14.035-4.57-23.7-7.838l-.147-.051-.009-.155c-.224-4.28-.469-8.947-.724-13.813l-.016-.3.3.049,7.813,1.264,23.952,3.908-.234.324-10.548-20.652-2.957-5.871-.767-1.562a3.9,3.9,0,0,1-.242-.549,3.628,3.628,0,0,1,.307.516l.829,1.532L588.393,164c2.623,5.038,6.324,12.147,10.707,20.568l.206.395-.441-.071-23.959-3.861-7.813-1.269.285-.255c.243,4.868.477,9.535.691,13.816l-.154-.2,23.635,8.008,6.764,2.216c.789.238,1.392.444,1.8.554l.466.138a.573.573,0,0,1,.155.059" transform="translate(-415.015 -51.68)" fill="#263238"/><path d="M592.765,132.1c.047.078-.9.623-2.215,1.757a18.831,18.831,0,0,0-6.324,11.643c-.235,1.722-.177,2.81-.269,2.814a2.35,2.35,0,0,1-.112-.761,12.172,12.172,0,0,1,.032-2.094,16.421,16.421,0,0,1,.572-3.06,17.532,17.532,0,0,1,3.623-6.667,16.371,16.371,0,0,1,2.256-2.145,12.116,12.116,0,0,1,1.74-1.166,2.3,2.3,0,0,1,.7-.32" transform="translate(-415.806 -50.557)" fill="#263238"/></g><g transform="translate(907.947 1352.581)"><path d="M208.634,153.122s-7.019,39.044-6.68,42.694,2.2,9.459,6.439,10.455a19.021,19.021,0,0,0,8.132,0l-5.083-47.957Z" transform="translate(-201.942 -53.809)" fill="#ffc09d"/><path d="M230.436,115.236l-.492-40.345c-.449-10.032,5.015-18.656,15.056-18.827l.929.038a17.951,17.951,0,0,1,17.2,17.23c.341,8.7.606,18.314.357,22.962-.517,9.623-10.208,10.723-10.208,10.723-.022,0-.06,5.857-.054,8.685l-7.749,10.751v.575Z" transform="translate(-203.249 -49.275)" fill="#ffc09d"/><path d="M253.816,109.305a23.282,23.282,0,0,1-12.382-4.224s2.717,7.363,12.359,6.893Z" transform="translate(-203.787 -51.565)" fill="#ff9b6c"/><path d="M261.406,82.828a1.376,1.376,0,0,1-1.383,1.333,1.316,1.316,0,0,1-1.365-1.3,1.376,1.376,0,0,1,1.381-1.334,1.317,1.317,0,0,1,1.367,1.3" transform="translate(-204.591 -50.465)" fill="#263238"/><path d="M262.159,78.474c-.177.172-1.188-.642-2.667-.7-1.477-.079-2.595.638-2.747.45-.075-.084.112-.4.6-.725a3.779,3.779,0,0,1,2.209-.582,3.634,3.634,0,0,1,2.113.78c.44.368.582.7.494.776" transform="translate(-204.501 -50.249)" fill="#263238"/><path d="M247.544,82.828a1.375,1.375,0,0,1-1.383,1.332,1.315,1.315,0,0,1-1.366-1.3,1.377,1.377,0,0,1,1.382-1.334,1.317,1.317,0,0,1,1.367,1.3" transform="translate(-203.944 -50.465)" fill="#263238"/><path d="M246.931,78.2c-.178.173-1.19-.642-2.668-.7-1.477-.078-2.594.638-2.747.45-.075-.083.111-.4.6-.724a3.78,3.78,0,0,1,2.208-.582,3.637,3.637,0,0,1,2.114.781c.439.368.581.7.494.775" transform="translate(-203.79 -50.237)" fill="#263238"/><path d="M252.263,89.832a9.856,9.856,0,0,1,2.421-.335c.379-.023.74-.083.814-.338a1.928,1.928,0,0,0-.206-1.131q-.476-1.393-1-2.923c-1.383-4.16-2.367-7.574-2.2-7.629s1.425,3.275,2.807,7.434q.5,1.539.95,2.939a2.189,2.189,0,0,1,.135,1.491.948.948,0,0,1-.644.526,2.582,2.582,0,0,1-.645.063,9.581,9.581,0,0,1-2.436-.1" transform="translate(-204.284 -50.275)" fill="#263238"/><path d="M247.568,73.364c-.216.369-1.636-.087-3.382-.2-1.745-.145-3.215.1-3.376-.3-.07-.189.239-.517.867-.8a5.892,5.892,0,0,1,5.149.376c.58.368.838.738.742.914" transform="translate(-203.757 -50.004)" fill="#263238"/><path d="M262.393,73.911c-.317.328-1.513-.052-2.962-.108-1.446-.1-2.682.155-2.955-.2-.119-.174.083-.505.627-.809a4.669,4.669,0,0,1,2.423-.487,4.6,4.6,0,0,1,2.345.738c.5.359.661.71.521.87" transform="translate(-204.488 -50.034)" fill="#263238"/><path d="M230.138,83.306c-.161-.078-6.535-2.23-6.6,4.361s6.568,5.293,6.582,5.1.014-9.465.014-9.465" transform="translate(-202.951 -50.529)" fill="#ffc09d"/><path d="M228.215,90.359c-.029-.021-.115.079-.311.167a1.149,1.149,0,0,1-.858.009,2.839,2.839,0,0,1-1.291-2.561,3.793,3.793,0,0,1,.336-1.641,1.331,1.331,0,0,1,.872-.874.586.586,0,0,1,.675.321c.086.186.043.316.078.328.018.017.142-.109.092-.381a.73.73,0,0,0-.256-.416.864.864,0,0,0-.633-.173,1.614,1.614,0,0,0-1.209,1.01,3.892,3.892,0,0,0-.416,1.833,2.979,2.979,0,0,0,1.648,2.862A1.228,1.228,0,0,0,228,90.679c.206-.161.242-.308.219-.32" transform="translate(-203.033 -50.633)" fill="#ff9b6c"/><path d="M247.386,91.4c.227-.014.236,1.5,1.537,2.568s2.91.894,2.924,1.106c.021.1-.358.3-1.039.317a3.774,3.774,0,0,1-2.44-.838,3.283,3.283,0,0,1-1.191-2.154c-.061-.633.106-1.009.21-1" transform="translate(-204.054 -50.926)" fill="#263238"/><path d="M275.95,64.329a1.56,1.56,0,0,0-.724-.92,4.806,4.806,0,0,0-2.46-.429,13.879,13.879,0,0,1-6.013-1.582,6.876,6.876,0,0,0,1.787-1.225,4.139,4.139,0,0,0,1.237-4.1.919.919,0,0,0-.51-.636c-.427-.136-.806.28-1.109.61a3.561,3.561,0,0,1-3.369,1.381,5.837,5.837,0,0,1-2.5-.769c-.029-.03-.053-.063-.082-.092-.338-.357-.669-.7-1-1.031l0,0v0c-2.452-2.487-4.564-4.215-6.75-5.124a22.393,22.393,0,0,0-11.943-1.076c-3.366.842-6.41,3.53-6.915,6.962-1.864-1.612-4.688-1.631-6.991-.736l-.057-.026c-2.562.881-4.043,3.561-4.826,6.154-.043.142-.08.286-.121.429a10.117,10.117,0,0,1-3.472,3.315c-.249.141-.534.314-.567.6s.2.517.431.684a5.081,5.081,0,0,0,2.055.881,11.364,11.364,0,0,1-.867,1.785c-.294.484-.643,1.065-.4,1.575a1.075,1.075,0,0,0,1.121.5,3.147,3.147,0,0,0,1.194-.523q-.439,1.017-.877,2.034a6.023,6.023,0,0,0,2.778-.154c.515,2.44.87,6.952,1.479,8.609,1.749.051,2.176-.135,3.055.168,1.137.392.679,2.407,2.171,1.85.759-.284,1.952-3.136,2.215-3.9a37.632,37.632,0,0,0,1.81-15.911,12.109,12.109,0,0,1,3.766-2.654l-.115.1c2.705-.906,5.765-1.791,8.307-.5,1.971,1,3.114,3.075,4.579,4.735a13.8,13.8,0,0,0,10.125,5.07c.344,2.914.4,7.674.514,10.39l2.38-5.408v.022c.192-.316.35-.636.5-.955l.052-.1v-.012a16.955,16.955,0,0,1,.782-1.536l.026.024a1.7,1.7,0,0,0,2.5-2.24,3.844,3.844,0,0,0-.81-.834,2.683,2.683,0,0,0,2.548.692,2.106,2.106,0,0,0,1.513-2.066,1.79,1.79,0,0,0-1.051-1.448,6.051,6.051,0,0,0,3.448-.719c.684-.379,1.357-1.01,1.136-1.867" transform="translate(-202.765 -48.943)" fill="#263238"/><path d="M238.861,57.854a8.326,8.326,0,0,0-.978.874,6.935,6.935,0,0,0-1.517,3.186,12.227,12.227,0,0,0-.275,2.448c-.013.888.047,1.841.1,2.844a25.517,25.517,0,0,1,.036,3.164A11.274,11.274,0,0,1,236,72.036a3.48,3.48,0,0,1-.7,1.611,1.456,1.456,0,0,1-1.366.441,2.165,2.165,0,0,1-1.217-.705,5,5,0,0,1-.9-2.463l.2.027a8.082,8.082,0,0,1-1.2,2.008,2.87,2.87,0,0,1-1.888,1,1.848,1.848,0,0,1-.992-.185,1.607,1.607,0,0,1-.668-.673,1.659,1.659,0,0,1-.2-.858,1.2,1.2,0,0,1,.318-.746l.1.092a6.212,6.212,0,0,1-2.09,1.531,5.576,5.576,0,0,1-.644.242,1.074,1.074,0,0,1-.231.054,1.124,1.124,0,0,1,.218-.091c.144-.057.358-.14.625-.273a6.4,6.4,0,0,0,2.018-1.555l.1.093a1.238,1.238,0,0,0-.08,1.433,1.446,1.446,0,0,0,.6.6,1.679,1.679,0,0,0,.9.157,2.69,2.69,0,0,0,1.752-.951,7.941,7.941,0,0,0,1.152-1.965l.143-.308.06.336a4.826,4.826,0,0,0,.858,2.353,1.946,1.946,0,0,0,1.089.631,1.228,1.228,0,0,0,1.162-.374,3.3,3.3,0,0,0,.645-1.508,11.114,11.114,0,0,0,.235-1.631,25.983,25.983,0,0,0-.024-3.137c-.051-1-.1-1.959-.083-2.859a12.113,12.113,0,0,1,.306-2.48,6.821,6.821,0,0,1,1.608-3.21,3.9,3.9,0,0,1,1.042-.814" transform="translate(-202.997 -49.359)" fill="#455a64"/><path d="M269.313,67.317a.363.363,0,0,1-.078.065c-.066.047-.145.1-.243.173a3.113,3.113,0,0,1-.411.257,5.016,5.016,0,0,1-.591.3,8.545,8.545,0,0,1-4.137.7,10.928,10.928,0,0,1-5.8-2.215,18.936,18.936,0,0,1-4.935-5.822c-.688-1.175-1.247-2.379-1.865-3.493a12.805,12.805,0,0,0-2.122-2.961,6.586,6.586,0,0,0-2.76-1.719,4.717,4.717,0,0,0-1.464-.185,5.149,5.149,0,0,0-1.344.242,5.573,5.573,0,0,0-3.13,2.588,6.723,6.723,0,0,0-.515,1.44.341.341,0,0,1,.009-.1c.013-.08.03-.177.05-.3a4.843,4.843,0,0,1,.378-1.085,5.506,5.506,0,0,1,1.1-1.452,5.656,5.656,0,0,1,2.061-1.247,5.359,5.359,0,0,1,1.388-.265,4.875,4.875,0,0,1,1.522.18,6.745,6.745,0,0,1,2.855,1.75,12.871,12.871,0,0,1,2.169,3c.625,1.121,1.184,2.322,1.867,3.487a18.94,18.94,0,0,0,4.864,5.767,10.875,10.875,0,0,0,5.685,2.224,8.686,8.686,0,0,0,4.09-.618,13.461,13.461,0,0,0,1.359-.717" transform="translate(-203.716 -49.097)" fill="#455a64"/><path d="M271.223,63.62a1.519,1.519,0,0,1-.349.237,7.435,7.435,0,0,1-1.031.508,9.884,9.884,0,0,1-1.627.514,10.51,10.51,0,0,1-4.164.087,10.07,10.07,0,0,1-1.647-.447,7.477,7.477,0,0,1-1.051-.465,1.59,1.59,0,0,1-.358-.222c.02-.038.549.242,1.46.537a11.42,11.42,0,0,0,1.631.393,11.23,11.23,0,0,0,4.085-.085,11.381,11.381,0,0,0,1.614-.459c.9-.332,1.416-.634,1.437-.6" transform="translate(-204.7 -49.628)" fill="#455a64"/><path d="M244.219,384.864l-.952,21.788s21.827,8.286,22.043,12.33L223,418.653l.091-34.011Z" transform="translate(-202.926 -64.622)" fill="#455a64"/><path d="M230.489,405.7a1.729,1.729,0,0,0-1.211,1.963,1.662,1.662,0,0,0,1.935,1.216,1.822,1.822,0,0,0,1.271-2.085,1.722,1.722,0,0,0-2.153-1.042" transform="translate(-203.217 -65.602)" fill="#e0e0e0"/><g transform="translate(20.072 350.603)" opacity="0.6"><g clip-path="url(#f)"><path d="M223,420.151l.143-3.428,40.516,1.6s1.877.835,1.654,2.16Z" transform="translate(-222.997 -416.723)" fill="#fff"/></g></g><path d="M244.791,407.5c-.009.207-1.042.293-2.064.949-1.039.63-1.57,1.52-1.76,1.438-.19-.042.128-1.275,1.378-2.048s2.492-.528,2.445-.338" transform="translate(-203.762 -65.68)" fill="#263238"/><path d="M249.484,409.469c.046.2-.851.545-1.561,1.414-.734.848-.918,1.79-1.124,1.78-.194.032-.328-1.18.574-2.243s2.108-1.148,2.111-.95" transform="translate(-204.03 -65.777)" fill="#263238"/><path d="M252.21,414.891c-.188.043-.467-.992.072-2.119s1.508-1.57,1.595-1.4c.115.171-.517.773-.946,1.705-.45.922-.517,1.792-.722,1.811" transform="translate(-204.279 -65.869)" fill="#263238"/><path d="M244.415,402.24c-.088.188-1.034-.1-2.2-.034-1.171.046-2.082.431-2.189.253-.118-.15.775-.908,2.153-.971s2.341.591,2.238.753" transform="translate(-203.72 -65.408)" fill="#263238"/><path d="M245.176,402.018a35.415,35.415,0,0,1,.058,5.247l-.169-.258c2.471.938,5.758,2.2,9.249,3.85a49.634,49.634,0,0,1,9.377,5.4,10.029,10.029,0,0,1,2.319,2.362c.44.679.381,1.2.313,1.174a2.95,2.95,0,0,0-.54-1.016,11.785,11.785,0,0,0-2.395-2.12,61.425,61.425,0,0,0-9.375-5.158c-3.468-1.636-6.719-2.958-9.144-4l-.179-.077.011-.181a35.388,35.388,0,0,1,.475-5.226" transform="translate(-203.939 -65.434)" fill="#263238"/><path d="M216.556,225.5v19.747l7.789,63.058s-2.469,29.572-3.985,46.264c-1.316,14.5.835,39.744.835,39.744H244.29l8.263-84.2,5.129-52.51,9.3-31.1Z" transform="translate(-202.625 -57.189)" fill="#263238"/><path d="M258.1,380.655l-6.049,20.953s19.267,13.186,18.526,17.167l-41.05-10.269,8.085-33.035Z" transform="translate(-203.231 -64.194)" fill="#455a64"/><path d="M240.231,397.692a1.727,1.727,0,0,0-1.638,1.622,1.661,1.661,0,0,0,1.595,1.638,1.824,1.824,0,0,0,1.725-1.728,1.724,1.724,0,0,0-1.848-1.518" transform="translate(-203.654 -65.231)" fill="#e0e0e0"/><g transform="translate(26.301 341.015)" opacity="0.6"><g clip-path="url(#g)"><path d="M229.532,409.964l.945-3.3,39,11.078s1.628,1.253,1.1,2.488Z" transform="translate(-229.532 -406.666)" fill="#fff"/></g></g><path d="M253.7,402.824c-.056.2-1.082.039-2.229.437-1.158.368-1.884,1.11-2.049.984-.175-.086.424-1.209,1.822-1.666s2.545.073,2.456.246" transform="translate(-204.158 -65.451)" fill="#263238"/><path d="M257.793,405.834c0,.206-.956.329-1.849,1.007-.912.651-1.314,1.525-1.511,1.466-.2-.015-.041-1.224,1.085-2.045s2.319-.621,2.275-.428" transform="translate(-204.39 -65.604)" fill="#263238"/><path d="M259.168,411.739c-.193,0-.221-1.074.568-2.043s1.836-1.172,1.879-.983c.072.193-.683.629-1.319,1.435-.655.79-.924,1.622-1.128,1.591" transform="translate(-204.61 -65.743)" fill="#263238"/><path d="M254.59,397.611c-.13.161-.98-.345-2.133-.551-1.148-.231-2.125-.071-2.186-.269-.08-.174.967-.7,2.32-.439s2.136,1.126,2,1.258" transform="translate(-204.199 -65.166)" fill="#263238"/><path d="M276.532,226.91l1.06,10.74-1.28,77.985-18.278,62.647-4.428,15.193-23.591-4.442,18.184-162.1Z" transform="translate(-203.253 -57.255)" fill="#263238"/><path d="M275.807,318.344s-.025.127-.09.371-.169.614-.3,1.082c-.273.967-.672,2.373-1.189,4.2-1.056,3.674-2.592,9.015-4.529,15.749l-15.91,54.866-.052.18-.185-.034-23.592-4.432-.216-.04.041-.216c1.2-6.357,2.461-13,3.745-19.772l10.544-55.514v.068c-3.907-24.524-7.022-44.082-8.811-55.311l.01.03c-1.715-3.121-3.038-5.527-3.94-7.168q-.658-1.213-1-1.853c-.223-.418-.327-.637-.327-.637s.132.2.369.613.589,1.032,1.046,1.831l4.016,7.125.008.014,0,.016,9.021,55.277.006.034-.007.034c-3.126,16.535-6.7,35.46-10.5,55.523-1.284,6.773-2.543,13.416-3.749,19.772l-.174-.256,23.588,4.455-.237.146c6.535-22.3,12.114-41.343,16.063-54.821,1.986-6.72,3.56-12.05,4.643-15.716.544-1.815.964-3.215,1.253-4.176l.331-1.073c.076-.24.123-.36.123-.36" transform="translate(-203.241 -58.329)" fill="#455a64"/><path d="M273.737,233.619a7.418,7.418,0,0,1-1.284,1.885,17.374,17.374,0,0,1-9.29,5.661,7.368,7.368,0,0,1-2.263.276,21.3,21.3,0,0,0,12.837-7.822" transform="translate(-204.696 -57.568)" fill="#455a64"/><path d="M326.525,110.106a1,1,0,0,0-.222-1.376.492.492,0,0,0-.354-.1c-.472.078-1.715.986-2.672,1s-2.584-.277-3.541.611-3.29,5.762-3.586,6.819-1.334,10.351-1.334,10.351Z" transform="translate(-207.214 -51.73)" fill="#ffc09d"/><path d="M330.485,108.9c-.052.058-11.449,5.089-16.455,7.3a1.7,1.7,0,0,0-.487,2.791,1.779,1.779,0,0,0,2.037.317l16.357-7.97,1.348-2.049Z" transform="translate(-207.13 -51.743)" fill="#263238"/><path d="M318.394,119.156l3.634-2.677,4.8-6.963s1.964-1.167,2.982-.432,1.351,1.585.878,2.537c0,0,2.71.647,2.9,1.555a10.367,10.367,0,0,1-.392,3.116,5.473,5.473,0,0,1,.02,2.594,4.17,4.17,0,0,0-.342,1.674s1.756,2.149,1,4.346-3.922,7.1-5.615,8.368a36.85,36.85,0,0,1-4.9,2.787l-2.093,4.386-8.691-7.869Z" transform="translate(-207.11 -51.74)" fill="#ffc09d"/><path d="M327.012,109.863a2.01,2.01,0,0,1-.217.376l-.648.986c-.553.828-1.327,1.966-2.192,3.214l-1.226,1.759a4.377,4.377,0,0,1-.624.716,3.025,3.025,0,0,1-.7.452,5.762,5.762,0,0,1-1.126.378,1.843,1.843,0,0,1-.427.077,2.355,2.355,0,0,1,.409-.144,7.1,7.1,0,0,0,1.089-.423c.937-.394,1.56-1.7,2.456-2.916.865-1.249,1.655-2.375,2.234-3.185l.694-.954a2.1,2.1,0,0,1,.274-.336" transform="translate(-207.449 -51.788)" fill="#ff9b6c"/><path d="M328.534,117.195a26.774,26.774,0,0,1,1.4-2.737,26.536,26.536,0,0,1,1.556-2.651,26.9,26.9,0,0,1-1.4,2.737,26.7,26.7,0,0,1-1.556,2.651" transform="translate(-207.855 -51.879)" fill="#ff9b6c"/><path d="M329.636,121.95c-.028,0-.041-.155-.13-.382a1.606,1.606,0,0,0-.565-.726,1.636,1.636,0,0,0-.88-.28c-.243-.008-.395.032-.4.006s.135-.1.4-.132a1.508,1.508,0,0,1,.985.26,1.478,1.478,0,0,1,.583.834c.065.257.03.421.01.42" transform="translate(-207.814 -52.282)" fill="#ff9b6c"/><path d="M333.841,123.337c-.017.019-.152-.081-.358-.246a4.269,4.269,0,0,0-.849-.555,1.627,1.627,0,0,0-.959-.156.972.972,0,0,0-.359.183c-.026,0,.04-.21.325-.3a1.517,1.517,0,0,1,1.067.116,2.987,2.987,0,0,1,.859.623c.19.192.292.322.276.339" transform="translate(-207.984 -52.365)" fill="#ff9b6c"/><path d="M332.332,119.414a7.633,7.633,0,0,1,.8-1.423,7.516,7.516,0,0,1,.947-1.33,7.621,7.621,0,0,1-.8,1.424,7.54,7.54,0,0,1-.947,1.329" transform="translate(-208.032 -52.106)" fill="#ff9b6c"/><path d="M324.937,119.814c-.029,0-.024-.151-.091-.367a1.367,1.367,0,0,0-.491-.7,1.407,1.407,0,0,0-.82-.253c-.228,0-.368.048-.378.021s.12-.111.369-.146a1.313,1.313,0,0,1,.933.234,1.288,1.288,0,0,1,.509.817c.04.248-.012.4-.032.4" transform="translate(-207.604 -52.185)" fill="#ff9b6c"/><path d="M315,119.722c-.021-.024.157-.159.314-.461A1.571,1.571,0,0,0,315.4,118a1.659,1.659,0,0,0-.9-.9c-.315-.131-.538-.126-.537-.156a.872.872,0,0,1,.58.038,1.653,1.653,0,0,1,1.027.949,1.577,1.577,0,0,1-.142,1.389c-.2.312-.415.415-.422.4" transform="translate(-207.174 -52.118)" fill="#455a64"/><path d="M282.043,142.272l13.785,11.8,16.922-25.28,11,6.491s-16.491,37.961-20.96,41.315-8.24,2.484-13.991-.171-26.231-23.277-26.231-23.277Z" transform="translate(-204.774 -52.672)" fill="#ffc09d"/><path d="M297.942,165.792c-.135-.021.24-2.4.073-5.349-.148-2.947-.775-5.277-.643-5.311a18.141,18.141,0,0,1,.57,10.66" transform="translate(-206.398 -53.902)" fill="#ff9b6c"/><path d="M222.948,122.661s11.719.17,11.889,14.777-2.984,34.145-2.984,34.145l-29.912-5.272s3.71-27.193,6.878-35.024c3.188-7.881,9.277-9.954,14.128-8.626" transform="translate(-201.942 -52.368)" fill="#a3314f"/><path d="M228.949,111.65l-.373,2.381s-15.987,10.563-16.89,13.29c-1.4,4.227,1.655,39.935,3,50.056s1.622,32.425,1.622,32.425a30.978,30.978,0,0,0-2.465,8.663c-.366,3.635,2.465,6.952,2.465,6.952,17.154,5.6,38.108,1.3,60.777-3.868l-.214-6.426-7.411-69.811s2.159-18.145-6.692-23.4c-.972-.577-8.694-4.964-8.694-4.964Z" transform="translate(-202.38 -51.872)" fill="#a3314f"/><g transform="translate(52.276 90.041)" opacity="0.3"><g clip-path="url(#h)"><path d="M256.779,143.395a54.126,54.126,0,0,0,5.268,21.534,63.792,63.792,0,0,0,13.447,18.663L273.1,162.7Z" transform="translate(-256.779 -143.395)"/></g></g><path d="M270.081,124.784c-2.8-2.268-8.015-3.5-10.99-1.461a8.955,8.955,0,0,0-3.608,4.442c-2.539,7.423-1.021,15.4,1.01,21.328s11.848,17.333,11.848,17.333L292.6,151.7S276.362,132.028,274.669,130a42.842,42.842,0,0,0-4.588-5.212" transform="translate(-204.381 -52.368)" fill="#a3314f"/><path d="M270.072,124.779a4.21,4.21,0,0,1,.513.41,17.629,17.629,0,0,1,1.337,1.358c1.124,1.237,2.605,3.168,4.606,5.519l16.213,19.506.148.178-.2.12-22.916,13.935-1.327.805-.162.1-.121-.144c-2.712-3.206-5.233-6.428-7.495-9.67a51.749,51.749,0,0,1-3.094-4.93,20.559,20.559,0,0,1-1.194-2.576c-.325-.876-.584-1.755-.842-2.626-2.026-6.966-2.077-13.8-.23-19a7.766,7.766,0,0,1,8.066-5.569,11.2,11.2,0,0,1,2.511.429,11.908,11.908,0,0,1,3.209,1.418,5.753,5.753,0,0,1,.976.736c-.019.026-.334-.258-1.023-.661a12.455,12.455,0,0,0-3.207-1.328,11.142,11.142,0,0,0-2.477-.385,8.057,8.057,0,0,0-2.928.381,8.72,8.72,0,0,0-4.834,5.078c-1.784,5.14-1.7,11.884.326,18.786.257.861.52,1.74.842,2.6a20.107,20.107,0,0,0,1.175,2.516,51.685,51.685,0,0,0,3.078,4.885c2.254,3.22,4.777,6.438,7.476,9.627l-.283-.045,1.327-.806,22.938-13.9-.051.3-16.087-19.607c-1.975-2.374-3.433-4.334-4.519-5.589-.54-.63-.98-1.093-1.287-1.395s-.479-.444-.468-.457" transform="translate(-204.372 -52.364)" fill="#263238"/><path d="M211.372,136.57a1.551,1.551,0,0,1,.07.423c.031.329.067.731.112,1.217.082,1.128.192,2.643.325,4.485.244,3.85.574,9.052.939,14.8.378,5.78.775,11.007,1.118,14.786.171,1.838.312,3.35.416,4.474.043.486.078.889.107,1.218a1.574,1.574,0,0,1,.007.429,1.56,1.56,0,0,1-.1-.417c-.051-.327-.113-.726-.19-1.209-.153-1.051-.351-2.576-.557-4.464-.423-3.774-.87-9-1.249-14.787s-.637-11.02-.809-14.812c-.075-1.845-.137-3.363-.184-4.492-.012-.488-.021-.892-.029-1.223a1.564,1.564,0,0,1,.02-.428" transform="translate(-202.381 -53.036)" fill="#263238"/><path d="M265.387,225.5a1.837,1.837,0,0,1-.449.14l-1.309.318c-.568.14-1.269.286-2.085.439s-1.746.34-2.78.495c-2.062.356-4.538.643-7.292.912-2.756.231-5.8.4-8.988.44-3.194.023-6.236-.087-9-.27-2.758-.223-5.239-.473-7.305-.808-1.036-.143-1.968-.315-2.784-.471s-1.52-.289-2.088-.429l-1.31-.315a1.939,1.939,0,0,1-.449-.139,1.856,1.856,0,0,1,.469.051l1.324.233c.572.114,1.276.231,2.1.354s1.748.282,2.785.4c2.064.3,4.54.512,7.289.712,2.752.159,5.783.256,8.965.234,3.182-.04,6.21-.2,8.958-.4,2.745-.245,5.217-.5,7.279-.814,1.034-.134,1.965-.292,2.782-.429s1.522-.25,2.1-.364l1.323-.236a1.9,1.9,0,0,1,.469-.052" transform="translate(-202.765 -57.189)" fill="#263238"/></g></g></svg>