<svg xmlns="http://www.w3.org/2000/svg" xmlns:xlink="http://www.w3.org/1999/xlink" width="610" height="563.513" viewBox="0 0 610 563.513"><defs><clipPath id="a"><rect width="610" height="563.513" fill="none"/></clipPath><clipPath id="b"><rect width="9.206" height="29.675" fill="none"/></clipPath><clipPath id="c"><rect width="5.744" height="3.604" fill="none"/></clipPath><clipPath id="d"><rect width="27.039" height="27.692" fill="none"/></clipPath><clipPath id="e"><rect width="9.135" height="24.327" fill="none"/></clipPath><clipPath id="f"><rect width="22.962" height="33.327" fill="none"/></clipPath><clipPath id="g"><rect width="117.086" height="77.668" fill="none"/></clipPath><clipPath id="h"><rect width="4.912" height="22.115" fill="none"/></clipPath></defs><g transform="translate(-810 -2119)"><rect width="22.126" height="49.994" transform="translate(846.658 2582.58)" fill="#ebebeb"/><rect width="22.126" height="49.994" transform="translate(921.739 2582.58)" fill="#ebebeb"/><rect width="22.126" height="95.501" transform="translate(884.198 2537.072)" fill="#f5f5f5"/><rect width="22.126" height="95.501" transform="translate(959.279 2537.072)" fill="#f5f5f5"/><rect width="22.126" height="92.768" transform="translate(996.821 2539.807)" fill="#ebebeb"/><rect width="22.126" height="92.768" transform="translate(1071.901 2539.807)" fill="#ebebeb"/><rect width="22.126" height="92.768" transform="translate(1146.984 2539.807)" fill="#ebebeb"/><rect width="22.126" height="141.451" transform="translate(1034.361 2491.123)" fill="#f5f5f5"/><rect width="22.126" height="127.609" transform="translate(1109.442 2504.965)" fill="#f5f5f5"/><rect width="22.126" height="92.768" transform="translate(1257.884 2539.807)" fill="#ebebeb"/><rect width="22.126" height="74.965" transform="translate(1220.343 2557.609)" fill="#f5f5f5"/><rect width="22.126" height="142.276" transform="translate(1336.403 2490.299)" fill="#ebebeb"/><rect width="22.126" height="74.965" transform="translate(1298.861 2557.609)" fill="#f5f5f5"/><rect width="22.126" height="74.965" transform="translate(1373.985 2557.609)" fill="#f5f5f5"/><rect width="22.126" height="108.06" transform="translate(1184.524 2524.514)" fill="#ebebeb"/><path d="M188.823,296.663a5.692,5.692,0,1,1-5.69-5.578,5.635,5.635,0,0,1,5.69,5.578" transform="translate(860.47 2194.459)" fill="#e0e0e0"/><path d="M184.162,307.734A10.136,10.136,0,1,1,194.5,297.6a10.249,10.249,0,0,1-10.336,10.133m0-19.45a9.319,9.319,0,1,0,9.5,9.317,9.422,9.422,0,0,0-9.5-9.317" transform="translate(859.441 2193.521)" fill="#e0e0e0"/><path d="M187.167,287.759l-.293-10.983,2.8.044-5.225-6.26-5.224,6.318,2.9.018.288,10.836Z" transform="translate(860.977 2189.138)" fill="#ebebeb"/><path d="M44.577,351.15a5.691,5.691,0,1,1-5.69-5.578,5.634,5.634,0,0,1,5.69,5.578" transform="translate(819.442 2208.583)" fill="#e0e0e0"/><path d="M39.916,362.388a10.136,10.136,0,1,1,10.337-10.133,10.248,10.248,0,0,1-10.337,10.133m0-19.45a9.319,9.319,0,1,0,9.5,9.317,9.422,9.422,0,0,0-9.5-9.317" transform="translate(818.414 2207.688)" fill="#e0e0e0"/><path d="M35.528,322.527l.3,11.42-2.909-.045,5.433,6.509,5.433-6.569-3.012-.018-.3-11.268Z" transform="translate(819.364 2202.609)" fill="#ebebeb"/><path d="M269.985,303.563l.3,11.42-2.909-.045,5.433,6.509,5.433-6.569-3.012-.018-.3-11.268Z" transform="translate(886.052 2197.693)" fill="#ebebeb"/><path d="M414.575,407.283l-66.647-61.291c-42.223-19.987-107.42-49.445-115.022-49.03-8.516.492-170.137,62.978-231.695,87.013L0,381c9.057-3.537,221.928-86.614,232.715-87.236.073-.005.152-.006.234-.006,11.827,0,105.873,44.364,116.63,49.456l.406.275,65.127,59.893c12.356-6.393,83.184-43.029,84.39-43.553.419-.181,1.544-.63,98.941-.622v3.21c-37.36-.026-93.518.082-97.786.433-3.7,1.837-56.849,29.316-85.049,43.906Z" transform="translate(810 2195.15)" fill="#e0e0e0"/><path d="M278.561,334.236a5.692,5.692,0,1,1-5.69-5.578,5.634,5.634,0,0,1,5.69,5.578" transform="translate(885.995 2204.199)" fill="#e0e0e0"/><path d="M273.9,345.474a10.136,10.136,0,1,1,10.336-10.133A10.249,10.249,0,0,1,273.9,345.474m0-19.45a9.319,9.319,0,1,0,9.5,9.317,9.423,9.423,0,0,0-9.5-9.317" transform="translate(884.966 2203.305)" fill="#e0e0e0"/><path d="M396.354,347.449a5.691,5.691,0,1,1-5.69-5.578,5.634,5.634,0,0,1,5.69,5.578" transform="translate(919.499 2207.624)" fill="#e0e0e0"/><path d="M391.693,358.687a10.136,10.136,0,1,1,10.337-10.133,10.248,10.248,0,0,1-10.337,10.133m0-19.45a9.319,9.319,0,1,0,9.5,9.317,9.423,9.423,0,0,0-9.5-9.317" transform="translate(918.47 2206.729)" fill="#e0e0e0"/><path d="M387.593,319.974l.3,11.42-2.909-.045,5.433,6.509,5.433-6.569-3.012-.018-.3-11.268Z" transform="translate(919.503 2201.947)" fill="#ebebeb"/><path d="M394.893,246.674c-.441-27.042,21.539-49.4,48.995-49.832s50.154,21.213,50.6,48.255-21.539,49.4-48.995,49.832-50.153-21.213-50.6-48.255m73.6-1.165a23.815,23.815,0,1,0-23.427,23.826A23.676,23.676,0,0,0,468.5,245.509" transform="translate(922.319 2170.026)" fill="#f5f5f5"/><path d="M394.895,246.672c-.441-27.042,21.537-49.4,48.995-49.83l.417,25.593a23.455,23.455,0,1,0,.764,46.9l.417,25.593c-27.457.434-50.153-21.212-50.594-48.254" transform="translate(922.319 2170.027)" fill="#e0e0e0"/><path d="M429.557,193.718c32.122-.509,57.747,23.933,58.263,55.57l-30.4.48c-.247-15.126-11.988-24.651-27.345-24.408Z" transform="translate(932.18 2169.216)" fill="#ebebeb"/><rect width="22.431" height="68.684" transform="translate(930.606 2130.428)" fill="#ebebeb"/><rect width="22.431" height="52.995" transform="translate(964.097 2146.116)" fill="#ebebeb"/><rect width="22.431" height="31.471" transform="translate(995.103 2167.641)" fill="#ebebeb"/><path d="M320.349,50.044v-38.5c21.545,0,39.275,17.382,39.275,38.5s-17.73,38.5-39.275,38.5c-21.2,0-38.774-16.833-39.264-37.615Z" transform="translate(889.95 2121.991)" fill="#ebebeb"/><path d="M314.669,38.49l-39.275.87a40.186,40.186,0,0,1,11.128-27.723A40.767,40.767,0,0,1,314.059,0Z" transform="translate(888.331 2119)" fill="#f5f5f5"/><path d="M44.762,218.453l27.492-21.364a34.1,34.1,0,0,1-5.7,48.317c-15.082,11.72-37.328,9.2-49.284-5.588a34.1,34.1,0,0,1,5.7-48.317,35.269,35.269,0,0,1,7.853-4.609Z" transform="translate(812.772 2167.448)" fill="#f5f5f5"/><path d="M31.2,184.222l9.668,24.935,20.461-17.042S50.5,181.173,31.2,184.222" transform="translate(818.875 2166.617)" fill="#e0e0e0"/><rect width="610" height="563.513" transform="translate(810 2119)" fill="none"/><g transform="translate(810 2119)"><g clip-path="url(#a)"><path d="M565.985,432.9c0,.181-120.819.327-269.821.327-149.055,0-269.848-.146-269.848-.327s120.793-.327,269.848-.327c149,0,269.821.146,269.821.327" transform="translate(7.485 112.137)" fill="#263238"/></g></g><path d="M64.636,78.713A24.467,24.467,0,0,0,32.673,66.425,23.624,23.624,0,0,0,20.136,97.761,24.286,24.286,0,0,0,41.7,112.03c1.151,2.585,2.451,5.5,2.451,5.5l19.5-8.347s-1.257-3.138-2.442-5.913a23.422,23.422,0,0,0,3.431-24.559" transform="translate(815.149 2135.702)" fill="#ff725e"/><path d="M53.152,107.418s-.039-.093-.1-.278-.149-.472-.259-.826c-.222-.728-.551-1.8-.936-3.193s-.835-3.1-1.227-5.12a34.551,34.551,0,0,1-.685-6.935,22.18,22.18,0,0,1,.376-4.047,4.343,4.343,0,0,1,.924-1.991,2.53,2.53,0,0,1,2.144-.836,1.663,1.663,0,0,1,1.088.562,1.643,1.643,0,0,1,.406,1.16A3.353,3.353,0,0,1,53.812,88.1a6.766,6.766,0,0,1-9.53-.636A4.962,4.962,0,0,1,43.029,85a2.132,2.132,0,0,1,1.347-2.381,1.593,1.593,0,0,1,1.475.285,2.15,2.15,0,0,1,.778,1.269,4.579,4.579,0,0,1-.6,2.837A7.21,7.21,0,0,1,41.5,90.708a6.4,6.4,0,0,1-5.7-1.3,3.576,3.576,0,0,1-1.327-2.578,1.8,1.8,0,0,1,.546-1.381,1.844,1.844,0,0,1,1.426-.463,2.448,2.448,0,0,1,1.365.555,3.729,3.729,0,0,1,.9,1.111,6.747,6.747,0,0,1,.773,2.638,6.99,6.99,0,0,1-1.508,5,7.382,7.382,0,0,1-4.327,2.591,3.93,3.93,0,0,1-2.466-.184,1.834,1.834,0,0,1-1.06-2.049,1.559,1.559,0,0,1,.786-.907,2.337,2.337,0,0,1,1.152-.253,3.553,3.553,0,0,1,2.028.914c1.087.943,2.047,1.9,2.99,2.8,3.738,3.635,6.614,6.717,8.576,8.865.981,1.075,1.73,1.922,2.235,2.5l.57.66c.127.15.186.232.186.232s-.074-.069-.209-.212-.338-.366-.592-.64c-.529-.572-1.293-1.4-2.276-2.459-1.988-2.124-4.886-5.183-8.638-8.794-.943-.893-1.923-1.859-2.989-2.778a3.322,3.322,0,0,0-1.891-.853,1.651,1.651,0,0,0-1.692.992,1.594,1.594,0,0,0,.936,1.757,3.671,3.671,0,0,0,2.3.156,7.133,7.133,0,0,0,4.163-2.507A6.724,6.724,0,0,0,39.2,89.31a6.5,6.5,0,0,0-.742-2.527,2.633,2.633,0,0,0-2.033-1.515,1.545,1.545,0,0,0-1.2.385,1.509,1.509,0,0,0-.453,1.17A3.289,3.289,0,0,0,36,89.188a6.109,6.109,0,0,0,5.431,1.237,6.913,6.913,0,0,0,4.339-3.543,4.31,4.31,0,0,0,.575-2.648,1.862,1.862,0,0,0-.67-1.1,1.291,1.291,0,0,0-1.2-.238,1.686,1.686,0,0,0-.949.824,2.018,2.018,0,0,0-.2,1.248A4.688,4.688,0,0,0,44.5,87.281a6.49,6.49,0,0,0,9.13.636,3.117,3.117,0,0,0,1-2.011,1.413,1.413,0,0,0-1.27-1.475,2.289,2.289,0,0,0-1.932.751,4.126,4.126,0,0,0-.879,1.885,22.027,22.027,0,0,0-.39,4,34.839,34.839,0,0,0,.637,6.9c.375,2.011.808,3.725,1.175,5.12s.677,2.461.882,3.206c.1.358.175.635.23.834s.069.287.069.287" transform="translate(818.551 2140.399)" fill="#263238"/><path d="M57.752,103.825l-16.744,7.166a1.38,1.38,0,0,1-1.8-.694,1.334,1.334,0,0,1,.708-1.769l16.744-7.168a1.381,1.381,0,0,1,1.8.694,1.335,1.335,0,0,1-.708,1.77" transform="translate(821.118 2145.246)" fill="#263238"/><path d="M57.882,104.171l-16.744,7.166a1.335,1.335,0,0,0-.708,1.771,1.383,1.383,0,0,0,1.806.694l1.837-.787,4.465,3.507a1.793,1.793,0,0,0,1.807.234l5.983-2.561a1.728,1.728,0,0,0,1.052-1.476l.351-5.549,1.248-.535a1.334,1.334,0,0,0,.709-1.769,1.383,1.383,0,0,0-1.806-.694" transform="translate(821.467 2145.976)" fill="#263238"/><g transform="translate(835.473 2208.424)" opacity="0.2"><g clip-path="url(#b)"><path d="M21.411,78.75a17.451,17.451,0,0,1,3.162-4.81,12.829,12.829,0,0,1,2.994-2.445c.8-.446,1.319-.572,1.437-.416.272.355-1.152,1.665-2.763,4.125a19.253,19.253,0,0,0-.495,21.185c1.493,2.53,2.855,3.9,2.566,4.244-.126.151-.635,0-1.415-.479a12.835,12.835,0,0,1-2.877-2.576,17.418,17.418,0,0,1-2.935-4.949,18.219,18.219,0,0,1-1.251-6.972" transform="translate(-19.832 -71.015)" fill="#fff"/></g></g><g transform="translate(846.994 2204.05)" opacity="0.2"><g clip-path="url(#c)"><path d="M32.223,70.631c-1.417.591-2.828.745-3.3.076a1.214,1.214,0,0,1,.24-1.355,4.5,4.5,0,0,1,1.88-1.407,4.58,4.58,0,0,1,2.334-.373c.642.091,1.073.37,1.169.761" transform="translate(-28.801 -67.541)" fill="#fff"/></g></g><path d="M55.229,111.367c0,.049-.507.04-1.3.145a10.26,10.26,0,0,0-5.585,2.581c-.59.538-.9.924-.944.894a3.713,3.713,0,0,1,.8-1.041,8.89,8.89,0,0,1,2.609-1.833,9.013,9.013,0,0,1,3.1-.806,3.785,3.785,0,0,1,1.327.06" transform="translate(823.48 2147.85)" fill="#455a64"/><path d="M56.915,106.562c.033.074-2.967,1.429-6.7,3.027s-6.787,2.835-6.82,2.76,2.967-1.429,6.7-3.027,6.787-2.835,6.82-2.76" transform="translate(822.343 2146.623)" fill="#455a64"/><path d="M56.265,108.465a10.408,10.408,0,0,1-1.576.87c-.992.5-2.379,1.161-3.929,1.851s-2.972,1.277-4.01,1.679a10.511,10.511,0,0,1-1.706.589,11.686,11.686,0,0,1,1.624-.779l3.969-1.754,3.961-1.772a11.753,11.753,0,0,1,1.667-.684" transform="translate(822.812 2147.117)" fill="#455a64"/><rect width="610" height="563.513" transform="translate(810 2119)" fill="none"/><path d="M300.553,292.768H202.147a6.751,6.751,0,0,1-6.816-6.683V227.015a6.751,6.751,0,0,1,6.816-6.683h98.406a6.751,6.751,0,0,1,6.816,6.683v59.071a6.751,6.751,0,0,1-6.816,6.683" transform="translate(865.558 2176.117)" fill="#fff"/><path d="M300.62,292.829c0-.02.317-.013.922-.1a6.614,6.614,0,0,0,2.529-.9,6.685,6.685,0,0,0,2.786-3.224c.712-1.582.407-3.618.461-5.842-.022-8.949-.055-21.87-.1-37.832q-.01-5.991-.021-12.537,0-1.634,0-3.3a19.9,19.9,0,0,0-.136-3.311,6.519,6.519,0,0,0-4.3-4.788,9.768,9.768,0,0,0-3.5-.355l-3.682,0-7.541.008-15.739.013-70.082.023a6.679,6.679,0,0,0-4.108,1.427,6.449,6.449,0,0,0-2.268,3.617,9.968,9.968,0,0,0-.148,2.181v2.245q0,2.242,0,4.468,0,8.9,0,17.531c-.006,11.493-.013,22.579-.018,33.14a7.149,7.149,0,0,0,.688,3.7,6.454,6.454,0,0,0,2.56,2.685,6.789,6.789,0,0,0,3.607.879l3.855,0,14.848.014,26.649.037,38.588.094,10.491.055,2.728.029c.615.01.93.03.93.03s-.315.02-.93.03l-2.728.029c-2.416.014-5.948.031-10.491.055l-38.588.094-26.649.036-14.848.014-3.855,0a7.341,7.341,0,0,1-3.88-.946,6.987,6.987,0,0,1-2.778-2.9,7.7,7.7,0,0,1-.751-3.945c-.006-10.561-.012-21.647-.018-33.14q0-8.621-.005-17.531v-6.713a10.382,10.382,0,0,1,.161-2.3,7.033,7.033,0,0,1,2.476-3.953,7.29,7.29,0,0,1,4.488-1.558l70.082.023,15.739.013,7.541.008,3.682,0a10.236,10.236,0,0,1,3.662.389,7,7,0,0,1,4.606,5.157,19.755,19.755,0,0,1,.138,3.4q0,1.668,0,3.3-.012,6.539-.019,12.537c-.041,15.962-.073,28.883-.1,37.832q-.008,1.675-.014,3.162a6.9,6.9,0,0,1-.516,2.745,6.8,6.8,0,0,1-2.889,3.261,6.464,6.464,0,0,1-2.584.855,5.33,5.33,0,0,1-.93.039" transform="translate(865.492 2176.057)" fill="#263238"/><rect width="4.299" height="16.773" transform="translate(1111.103 2438.51)" fill="#ff725e"/><rect width="4.299" height="19.203" transform="translate(1075.194 2436.08)" fill="#ff725e"/><rect width="4.299" height="23.206" transform="translate(1084.171 2432.076)" fill="#ff725e"/><rect width="4.299" height="21.933" transform="translate(1093.148 2433.35)" fill="#ff725e"/><rect width="4.299" height="29.354" transform="translate(1102.126 2425.93)" fill="#ff725e"/><rect width="4.299" height="29.21" transform="translate(1120.08 2426.072)" fill="#ff725e"/><rect width="4.299" height="19.616" transform="translate(1129.058 2435.667)" fill="#ff725e"/><rect width="4.299" height="27.923" transform="translate(1138.035 2427.359)" fill="#ff725e"/><rect width="4.299" height="34.213" transform="translate(1147.012 2421.069)" fill="#ff725e"/><rect width="4.299" height="28.067" transform="translate(1155.99 2427.216)" fill="#ff725e"/><path d="M238.837,231.7c0,.181-7.632.327-17.046.327s-17.047-.146-17.047-.327,7.631-.327,17.047-.327,17.046.146,17.046.327" transform="translate(868.236 2178.979)" fill="#263238"/><rect width="610" height="563.513" transform="translate(810 2119)" fill="none"/><path d="M418.325,52.713h53.81a4.875,4.875,0,0,1,4.922,4.825v52.754a4.875,4.875,0,0,1-4.922,4.825H434.907l-14.974,12.089V115.118h-1.608a4.875,4.875,0,0,1-4.922-4.825V57.538a4.875,4.875,0,0,1,4.922-4.825" transform="translate(927.585 2132.665)" fill="#fff"/><path d="M413.4,72.416h63.654v-13.8a5.958,5.958,0,0,0-6.015-5.9h-51.67a5.911,5.911,0,0,0-5.969,5.852Z" transform="translate(927.585 2132.665)" fill="#ff725e"/><path d="M436.97,74.71V95.924h-5.008V78.65h-4.327V74.71Z" transform="translate(931.633 2138.367)" fill="#263238"/><path d="M454.869,74.71v3.182l-8.038,18.032h-5.44l7.758-17.214h-7.171v3.455h-4.452V74.71Z" transform="translate(934.447 2138.367)" fill="#263238"/><path d="M431.261,61.631c0,.111,4.373.2,9.768.2s9.768-.089,9.768-.2-4.372-.2-9.768-.2-9.768.089-9.768.2" transform="translate(932.665 2134.925)" fill="#263238"/><path d="M418.363,52.746s-.112,0-.333,0a4.26,4.26,0,0,0-.972.145,4.883,4.883,0,0,0-3.688,4.878q-.006,1.511-.013,3.293c-.006,2.375-.014,5.1-.023,8.149-.013,6.1-.027,13.493-.042,21.946-.005,4.227-.012,8.72-.018,13.45q0,1.774,0,3.591,0,.909,0,1.828a5.452,5.452,0,0,0,.262,1.876,5.03,5.03,0,0,0,2.526,2.876,5.144,5.144,0,0,0,1.932.528c.678.038,1.317.011,1.982.02l-.181-.178c0,3.812-.005,7.9-.009,12.089v.394l.311-.251L435.071,115.3l-.126.044,28.844.005h6.766l1.68,0a5.121,5.121,0,0,0,1.7-.31,5.045,5.045,0,0,0,2.618-2.121,4.988,4.988,0,0,0,.632-1.561,7.857,7.857,0,0,0,.109-1.65q0-1.613,0-3.214,0-3.2,0-6.348c-.005-8.39-.009-16.483-.013-24.194q0-5.782-.008-11.266,0-2.739-.005-5.4a17.66,17.66,0,0,0-.1-2.662,4.914,4.914,0,0,0-1.2-2.372,5.107,5.107,0,0,0-2.223-1.425,7.944,7.944,0,0,0-2.58-.242l-4.966.006q-4.869.006-9.335.013l-28.171.063-7.659.038-1.992.02c-.448.006-.678.02-.678.02s.23.014.678.02l1.992.02,7.659.038,28.171.063,9.335.013,4.966.006a7.621,7.621,0,0,1,2.478.232,4.78,4.78,0,0,1,2.074,1.336,4.593,4.593,0,0,1,1.119,2.215,17.828,17.828,0,0,1,.085,2.6q0,2.658,0,5.4,0,5.48-.009,11.266c0,7.71-.008,15.8-.012,24.194q0,3.147,0,6.348v3.214a7.5,7.5,0,0,1-.1,1.568,4.674,4.674,0,0,1-2.994,3.39,9.294,9.294,0,0,1-3.243.288H463.79l-28.844.005h-.072l-.055.044L419.851,127.1l.311.144c0-4.192-.006-8.277-.009-12.089v-.175h-.181c-.654-.008-1.329.018-1.956-.016a4.812,4.812,0,0,1-1.8-.487,4.687,4.687,0,0,1-2.357-2.675,5.1,5.1,0,0,1-.248-1.768q0-.92,0-1.828,0-1.817,0-3.591c-.005-4.73-.012-9.223-.017-13.45-.017-8.453-.031-15.845-.042-21.946-.009-3.049-.017-5.774-.024-8.149.067-2.35-.315-4.474.638-5.889a4.845,4.845,0,0,1,2.912-2.226,7.159,7.159,0,0,1,1.29-.2" transform="translate(927.547 2132.632)" fill="#263238"/><path d="M431.23,61.951h.137a1.983,1.983,0,0,0,2-1.963V49.819a1.983,1.983,0,0,0-2-1.963h-.137a1.983,1.983,0,0,0-2,1.963V59.987a1.983,1.983,0,0,0,2,1.963" transform="translate(932.086 2131.406)" fill="#e0e0e0"/><path d="M431.275,61.992a2.578,2.578,0,0,1-1.177-.475,1.887,1.887,0,0,1-.692-1.234c-.028-.56.01-1.258.01-1.995.013-1.512.027-3.282.044-5.236,0-.987.008-2.02.012-3.09A1.794,1.794,0,0,1,430,48.618a1.875,1.875,0,0,1,1.414-.521,1.808,1.808,0,0,1,1.8,2c0,1.07.008,2.1.012,3.091.017,1.954.031,3.724.044,5.236q.008.555.014,1.063a5.076,5.076,0,0,1-.024.922,1.925,1.925,0,0,1-.777,1.187,2.7,2.7,0,0,1-1.209.4.915.915,0,0,0,.346.03,2.011,2.011,0,0,0,.952-.3,2.062,2.062,0,0,0,.912-1.269,5.012,5.012,0,0,0,.06-.968c.005-.339.009-.693.014-1.063.013-1.512.028-3.282.044-5.236,0-.987.008-2.021.013-3.091a2.2,2.2,0,0,0-2.2-2.4,2.284,2.284,0,0,0-1.7.641,2.178,2.178,0,0,0-.636,1.624c0,1.07.008,2.1.012,3.09.015,1.954.031,3.724.044,5.236.019.75,0,1.4.053,2.025A2.031,2.031,0,0,0,430,61.641a1.944,1.944,0,0,0,.927.36.773.773,0,0,0,.347-.009" transform="translate(932.042 2131.364)" fill="#263238"/><path d="M446.359,61.951h.137a1.983,1.983,0,0,0,2-1.963V49.819a1.983,1.983,0,0,0-2-1.963h-.137a1.983,1.983,0,0,0-2,1.963V59.987a1.983,1.983,0,0,0,2,1.963" transform="translate(936.39 2131.406)" fill="#e0e0e0"/><path d="M446.4,61.992a2.577,2.577,0,0,1-1.176-.475,1.882,1.882,0,0,1-.692-1.234c-.03-.56.01-1.258.01-1.995.013-1.512.027-3.282.044-5.236,0-.987.008-2.02.012-3.09a1.794,1.794,0,0,1,.525-1.345,1.873,1.873,0,0,1,1.414-.521,1.808,1.808,0,0,1,1.8,2c0,1.07.008,2.1.012,3.091.015,1.954.031,3.724.044,5.236.005.37.009.724.014,1.063a5.068,5.068,0,0,1-.024.922,1.925,1.925,0,0,1-.777,1.187,2.7,2.7,0,0,1-1.209.4.908.908,0,0,0,.346.03,2.011,2.011,0,0,0,.952-.3,2.067,2.067,0,0,0,.912-1.269,5.019,5.019,0,0,0,.06-.968q.006-.508.014-1.063c.013-1.512.027-3.282.044-5.236,0-.987.008-2.021.012-3.091a2.2,2.2,0,0,0-2.2-2.4,2.284,2.284,0,0,0-1.7.641,2.184,2.184,0,0,0-.637,1.624c.005,1.07.009,2.1.013,3.09.015,1.954.031,3.724.044,5.236.019.75,0,1.4.051,2.025a2.032,2.032,0,0,0,.821,1.327,1.944,1.944,0,0,0,.927.36.779.779,0,0,0,.347-.009" transform="translate(936.345 2131.364)" fill="#263238"/><rect width="610" height="563.513" transform="translate(810 2119)" fill="none"/><path d="M336.9,186.957l4.62,5.661v-9.743h14.553s1.617,22.312,1.272,27.068a37.957,37.957,0,0,1-1.781,7.277,8.613,8.613,0,0,1-14.107,3.463,48.532,48.532,0,0,1-4.556-4.965c-6.468-8.154-17.214-28.013-17.214-28.013l11.208-6.637Z" transform="translate(900.93 2165.939)" fill="#ffbe9d"/><path d="M332.377,184.915a16.286,16.286,0,0,0,1.9,2.49c1.227,1.491,2.929,3.547,4.873,5.771s3.78,4.181,5.206,5.508a10.481,10.481,0,0,0,2.473,1.964,23.955,23.955,0,0,0-2.127-2.3c-1.324-1.4-3.09-3.4-5.032-5.612-3.849-4.46-7.127-7.973-7.293-7.824" transform="translate(904.537 2166.936)" fill="#eb996e"/><path d="M404.272,89.773l.656,51.829c.112,8.813-1.561,21.782-15.783,21.32-12.307-1.313-15.572-12.737-15.669-20.961-.045-3.9-.091-7.155-.123-7.557,0,0-13.472-1.077-14.61-14.124-.55-6.3-.6-19.381-.511-31.213a24.6,24.6,0,0,1,23.074-24.126l1.286-.092c13.917-.2,21.864,11.278,21.681,24.923" transform="translate(911.883 2135.812)" fill="#ffbe9d"/><path d="M370,121.375a32.7,32.7,0,0,0,16.969-6.268s-3.521,9.841-16.9,9.617Z" transform="translate(915.239 2148.84)" fill="#eb996e"/><path d="M375.946,88.8c.263.266,1.8-.949,4.029-1.006,2.227-.092,3.9,1.012,4.129.733.114-.127-.161-.608-.888-1.109A5.666,5.666,0,0,0,379.9,86.5a5.432,5.432,0,0,0-3.2,1.141c-.67.548-.889,1.044-.758,1.162" transform="translate(916.921 2141.423)" fill="#263238"/><path d="M374.987,92.873a1.791,1.791,0,0,0,1.868,1.656,1.709,1.709,0,0,0,1.737-1.724,1.791,1.791,0,0,0-1.866-1.656,1.708,1.708,0,0,0-1.738,1.724" transform="translate(916.658 2142.629)" fill="#263238"/><path d="M372.769,103.86a13.841,13.841,0,0,0-3.368-.35c-.527-.015-1.029-.082-1.143-.426a2.573,2.573,0,0,1,.235-1.543q.6-1.913,1.256-4.013c1.733-5.709,2.945-10.389,2.71-10.455s-1.83,4.508-3.563,10.216c-.415,1.408-.812,2.749-1.188,4.032a2.922,2.922,0,0,0-.121,2.03,1.309,1.309,0,0,0,.915.688,3.581,3.581,0,0,0,.9.058,13.6,13.6,0,0,0,3.37-.237" transform="translate(914.512 2141.572)" fill="#263238"/><path d="M376.679,81.28c.216.485,2,.12,4.137.228,2.14.063,3.894.569,4.142.1.109-.223-.224-.67-.949-1.1a7.116,7.116,0,0,0-6.308-.252c-.754.373-1.116.792-1.022,1.023" transform="translate(917.136 2139.646)" fill="#263238"/><path d="M360.194,83.891c.234.4,1.974-.044,4.082-.107,2.109-.1,3.858.2,4.081-.213.1-.2-.249-.55-.984-.865a7.511,7.511,0,0,0-3.119-.5,7.7,7.7,0,0,0-3.1.749c-.726.37-1.062.752-.959.941" transform="translate(912.446 2140.309)" fill="#263238"/><path d="M393.783,92.516c.218-.113,8.954-3.309,9.328,5.639s-8.866,7.471-8.893,7.215-.434-12.854-.434-12.854" transform="translate(922.005 2142.816)" fill="#ffbe9d"/><path d="M396.184,101.281c.039-.03.163.1.437.213a1.623,1.623,0,0,0,1.191-.024c.949-.385,1.7-1.919,1.675-3.533a5.058,5.058,0,0,0-.538-2.214,1.824,1.824,0,0,0-1.246-1.15.814.814,0,0,0-.921.466c-.112.254-.046.431-.094.448-.024.024-.2-.142-.144-.515a.985.985,0,0,1,.335-.574,1.214,1.214,0,0,1,.87-.263,2.229,2.229,0,0,1,1.72,1.321,5.206,5.206,0,0,1,.655,2.471c.017,1.807-.854,3.532-2.158,3.959a1.736,1.736,0,0,1-1.464-.179c-.292-.21-.348-.408-.317-.426" transform="translate(922.685 2143.402)" fill="#eb996e"/><path d="M373.267,106.51c-.1-.225,1.689-.75,2.945-2.4a9.952,9.952,0,0,0,1.264-2.337c.266-.65.468-1.058.566-1.028s.069.468-.077,1.175a6.555,6.555,0,0,1-1.174,2.618,5.451,5.451,0,0,1-2.333,1.749c-.7.277-1.168.295-1.192.218" transform="translate(916.168 2145.118)" fill="#263238"/><path d="M344.479,78.974a2.126,2.126,0,0,1,1.012-1.234,6.755,6.755,0,0,1,3.4-.541A19.5,19.5,0,0,0,358.9,74.216a44.161,44.161,0,0,1,4.657-5.534c4.034-4.077,7.353-6.853,10.787-8.208,4.44-1.753,11.868-2.463,16.5-1.272s8.788,4.874,9.432,9.525c2.6-2.152,6.5-2.134,9.659-.888l.078-.034c3.523,1.232,5.524,4.88,6.563,8.4s1.482,7.287,3.384,10.444c.4.66.87,1.451.523,2.137a1.5,1.5,0,0,1-1.555.665,4.411,4.411,0,0,1-1.639-.728q.589,1.383,1.178,2.767a8.487,8.487,0,0,1-3.831-.251,78.789,78.789,0,0,1-2.5,9.286,5.514,5.514,0,0,0-3.729.9c-1.233,1.088-1.785,3.134-3.835,2.357-1.043-.4-1.995-2.541-2.344-3.584a49.972,49.972,0,0,1-2.249-21.554A16.717,16.717,0,0,0,394.819,75l.158.14c-3.72-1.267-7.926-2.512-11.456-.8-2.736,1.328-4.345,4.113-6.393,6.335a21.073,21.073,0,0,1-14.892,6.743c-.2,3.674.118,8.866-.078,12.541L359,94.068l0,.03a14.62,14.62,0,0,1-.677-1.3l-.071-.132v-.016a22.762,22.762,0,0,0-1.055-2.09c-.012.011-.024.021-.036.031-2.031,1.757-5.022-.928-3.42-3.069a5.229,5.229,0,0,1,1.132-1.116,3.752,3.752,0,0,1-3.528.9,2.854,2.854,0,0,1-2.055-2.817,2.429,2.429,0,0,1,1.473-1.944,8.472,8.472,0,0,1-4.747-1.025c-.938-.524-1.857-1.386-1.539-2.542" transform="translate(907.963 2134.195)" fill="#263238"/><path d="M384.644,67.835a11.523,11.523,0,0,1,1.336,1.2,9.294,9.294,0,0,1,2.044,4.333,16.114,16.114,0,0,1,.339,3.317c.006,1.2-.092,2.49-.186,3.846a33.655,33.655,0,0,0-.1,4.28,14.834,14.834,0,0,0,.3,2.258,4.649,4.649,0,0,0,.939,2.19,2.034,2.034,0,0,0,1.879.62,3.005,3.005,0,0,0,1.69-.937,6.687,6.687,0,0,0,1.283-3.318l-.28.033a10.9,10.9,0,0,0,1.62,2.734A3.988,3.988,0,0,0,398.1,89.77a2.6,2.6,0,0,0,1.373-.235,2.237,2.237,0,0,0,1.215-2.058,1.6,1.6,0,0,0-.428-1.015l-.141.123a8.575,8.575,0,0,0,2.86,2.1,8.036,8.036,0,0,0,.886.337,1.607,1.607,0,0,0,.317.077,1.6,1.6,0,0,0-.3-.126c-.2-.079-.492-.2-.859-.378a8.837,8.837,0,0,1-2.76-2.136l-.141.125a1.646,1.646,0,0,1,.089,1.939,1.969,1.969,0,0,1-.843.8,2.345,2.345,0,0,1-1.245.2,3.731,3.731,0,0,1-2.4-1.313,10.731,10.731,0,0,1-1.561-2.676l-.191-.418-.087.452a6.475,6.475,0,0,1-1.222,3.171,2.707,2.707,0,0,1-1.513.837,1.714,1.714,0,0,1-1.6-.525A4.4,4.4,0,0,1,388.679,87a14.769,14.769,0,0,1-.3-2.211,34.255,34.255,0,0,1,.082-4.245c.086-1.355.175-2.648.158-3.866a15.962,15.962,0,0,0-.383-3.36,9.174,9.174,0,0,0-2.168-4.367,5.418,5.418,0,0,0-1.426-1.118" transform="translate(919.405 2136.586)" fill="#455a64"/><path d="M352.581,82.042s.033.034.107.089l.333.238a4.556,4.556,0,0,0,.564.354,6.989,6.989,0,0,0,.811.418,11.994,11.994,0,0,0,5.7,1,15.268,15.268,0,0,0,8.034-2.909,25.767,25.767,0,0,0,6.9-7.8c.968-1.58,1.757-3.2,2.628-4.7a17.3,17.3,0,0,1,2.975-3.973,9.123,9.123,0,0,1,3.835-2.282,6.622,6.622,0,0,1,2.023-.229,7.314,7.314,0,0,1,1.852.349,7.748,7.748,0,0,1,2.776,1.638,7.53,7.53,0,0,1,1.5,1.91,8.856,8.856,0,0,1,.687,1.957.421.421,0,0,0-.01-.136c-.017-.108-.037-.239-.063-.4a6.467,6.467,0,0,0-.5-1.475,7.443,7.443,0,0,0-1.491-1.981,7.817,7.817,0,0,0-2.824-1.719,7.465,7.465,0,0,0-1.91-.379,6.826,6.826,0,0,0-2.105.219,9.346,9.346,0,0,0-3.966,2.325,17.481,17.481,0,0,0-3.04,4.027c-.88,1.507-1.67,3.123-2.629,4.688a25.8,25.8,0,0,1-6.8,7.729,15.179,15.179,0,0,1-7.88,2.92,12.179,12.179,0,0,1-5.633-.9,19.271,19.271,0,0,1-1.864-.991" transform="translate(910.285 2135.077)" fill="#455a64"/><path d="M351.638,73.366a2.076,2.076,0,0,0,.478.326,10.348,10.348,0,0,0,1.413.7,13.98,13.98,0,0,0,2.239.72,14.735,14.735,0,0,0,5.744.18,13.946,13.946,0,0,0,2.281-.578,10.431,10.431,0,0,0,1.457-.615,2.076,2.076,0,0,0,.5-.295c-.026-.052-.762.319-2.023.7a15.861,15.861,0,0,1-2.257.506,15.86,15.86,0,0,1-5.636-.178,15.955,15.955,0,0,1-2.219-.646c-1.234-.463-1.943-.88-1.973-.83" transform="translate(910.017 2138.019)" fill="#455a64"/><path d="M360.12,88.8c.265.266,1.8-.949,4.032-1.006,2.226-.091,3.893,1.012,4.128.73.116-.125-.161-.606-.888-1.107a5.666,5.666,0,0,0-3.314-.921,5.433,5.433,0,0,0-3.2,1.141c-.67.548-.889,1.044-.759,1.162" transform="translate(912.42 2141.423)" fill="#263238"/><path d="M360.478,92.873a1.792,1.792,0,0,0,1.868,1.656,1.708,1.708,0,0,0,1.735-1.724,1.789,1.789,0,0,0-1.865-1.656,1.708,1.708,0,0,0-1.738,1.724" transform="translate(912.531 2142.629)" fill="#263238"/><path d="M419.884,397.838l2.762,32.586,9.764,25.156a3.337,3.337,0,0,1-2.2,4.4,3.451,3.451,0,0,1-3.077-.549c-5.577-4.232-25.68-19.788-25.9-21.815-.29-2.624-5.414-34.665-5.414-34.665Z" transform="translate(922.583 2222.133)" fill="#455a64"/><path d="M429.134,452.553,399.6,426.477l.289,2.414c.2,1.321.221,2.037,1.107,2.863a285.49,285.49,0,0,0,24.746,20.8c.9.689,2.311.351,3.392,0" transform="translate(923.659 2229.557)" fill="#263238"/><path d="M404.757,418.454a1.92,1.92,0,1,1-1.747,3.42,2.116,2.116,0,0,1-.884-2.73,2.087,2.087,0,0,1,2.8-.587" transform="translate(924.314 2227.419)" fill="#fff"/><path d="M415.506,437.407c.2.071.76-1.71,2.634-2.832,1.839-1.176,3.721-.908,3.742-1.113.019-.083-.428-.292-1.215-.319a5.41,5.41,0,0,0-2.918.825,5.273,5.273,0,0,0-2.014,2.226c-.313.709-.313,1.2-.229,1.213" transform="translate(928.17 2231.284)" fill="#263238"/><path d="M417.707,440.365c.173.123,1.123-1.044,2.786-1.7,1.649-.7,3.164-.539,3.194-.747.078-.176-1.593-.7-3.477.084-1.891.763-2.686,2.3-2.5,2.366" transform="translate(928.802 2232.436)" fill="#263238"/><path d="M411.6,433.424c.172.137,1.624-1.666,4.119-2.914,2.475-1.288,4.815-1.419,4.8-1.637.036-.179-2.478-.374-5.135,1-2.672,1.346-3.951,3.477-3.781,3.551" transform="translate(927.069 2230.146)" fill="#263238"/><path d="M410.29,425.042c.11.186,1.861-.756,4.236-1.088,2.371-.365,4.325.033,4.375-.176.074-.169-1.934-.919-4.484-.534-2.551.364-4.248,1.658-4.127,1.8" transform="translate(926.698 2228.69)" fill="#263238"/><path d="M409.467,417.477c.123.178,1.848-1.1,4.379-1.248,2.526-.2,4.418.818,4.515.626.046-.074-.36-.445-1.171-.8a7.577,7.577,0,0,0-6.679.467c-.751.463-1.1.886-1.043.953" transform="translate(926.464 2226.71)" fill="#263238"/><path d="M413.821,415.886a2.753,2.753,0,0,0-.087-1.234,8.506,8.506,0,0,0-1.346-3.118,3.864,3.864,0,0,0-1.853-1.637,1.392,1.392,0,0,0-1.507.458,2.153,2.153,0,0,0-.366,1.522,4.8,4.8,0,0,0,4.682,3.92,5.605,5.605,0,0,0,5.164-3.428,1.869,1.869,0,0,0-.08-1.585,1.361,1.361,0,0,0-1.477-.55,4.785,4.785,0,0,0-2.064,1.341,9.588,9.588,0,0,0-1.991,2.761,2.89,2.89,0,0,0-.388,1.177,15.257,15.257,0,0,1,2.735-3.57,4.469,4.469,0,0,1,1.829-1.126.725.725,0,0,1,.807.295,1.283,1.283,0,0,1-.01,1.045,5,5,0,0,1-4.511,2.92,4.169,4.169,0,0,1-4.023-3.27,1.559,1.559,0,0,1,.209-1.074.752.752,0,0,1,.827-.264,3.5,3.5,0,0,1,1.6,1.357,12.578,12.578,0,0,1,1.856,4.059" transform="translate(926.233 2225.242)" fill="#263238"/><path d="M359.3,399.231l1.23,27.595s-28.2,10.494-28.476,15.616l54.662-.418L386.6,398.95Z" transform="translate(904.448 2222.421)" fill="#455a64"/><path d="M367.962,419.159a2.185,2.185,0,0,1,1.563,2.486,2.148,2.148,0,0,1-2.5,1.541,2.306,2.306,0,0,1-1.641-2.642,2.24,2.24,0,0,1,2.782-1.32" transform="translate(913.905 2227.638)" fill="#e0e0e0"/><path d="M386.726,434.051l-.185-4.342L334.2,431.733s-2.426,1.058-2.137,2.735Z" transform="translate(904.443 2230.395)" fill="#263238"/><path d="M353.538,420.928c.01.262,1.346.37,2.667,1.2,1.342.8,2.028,1.927,2.273,1.821.245-.053-.166-1.614-1.781-2.594s-3.219-.667-3.158-.428" transform="translate(910.557 2228.055)" fill="#263238"/><path d="M349.09,422.78c-.059.253,1.1.69,2.017,1.789.948,1.074,1.186,2.269,1.451,2.255.252.039.424-1.495-.741-2.841s-2.723-1.453-2.727-1.2" transform="translate(909.292 2228.57)" fill="#263238"/><path d="M347.076,429.046c.243.054.6-1.257-.092-2.685s-1.95-1.988-2.062-1.769c-.149.217.668.98,1.221,2.16.582,1.167.667,2.27.933,2.294" transform="translate(908.102 2229.057)" fill="#263238"/><path d="M353.876,416.056c.114.238,1.336-.132,2.845-.044,1.512.059,2.69.547,2.826.321.154-.19-1-1.15-2.78-1.23s-3.024.749-2.891.953" transform="translate(910.651 2226.606)" fill="#263238"/><path d="M345.863,243.279c.031,1.6,6.349,222.131,6.349,222.131H386l6.845-188.651s7.993,98.637,7.993,100.768,7.052,88.945,7.052,88.945l31.326-2.506-2.054-198.621-3.828-29.12Z" transform="translate(908.375 2180.237)" fill="#263238"/><path d="M386.646,267.753a6.248,6.248,0,0,1-1.372.565c-.9.322-2.2.766-3.815,1.3l-.308.1-.022-.311c-.188-2.653-.4-6.2-.6-10.089-.214-4.216-.372-8.033-.452-10.8-.041-1.383-.062-2.5-.06-3.275a4.207,4.207,0,0,1,.068-1.205,4.239,4.239,0,0,1,.191,1.194c.08.771.172,1.886.274,3.266.2,2.759.433,6.573.647,10.788.2,3.888.348,7.438.43,10.1l-.329-.209c1.632-.48,2.962-.858,3.885-1.106a6.394,6.394,0,0,1,1.46-.319" transform="translate(918.089 2182.264)" fill="#455a64"/><path d="M383.516,244.783c-.022-.029.109-.176.448-.288a2.108,2.108,0,0,1,1.493.127,1.823,1.823,0,0,1,1.13,1.812,2.236,2.236,0,0,1-1.8,1.952,2.487,2.487,0,0,1-2.491-1.106,1.939,1.939,0,0,1,.027-2.094,2.241,2.241,0,0,1,1.117-.917c.333-.115.532-.1.538-.06.05.093-.762.253-1.236,1.181a1.539,1.539,0,0,0,.081,1.593,1.909,1.909,0,0,0,1.832.792,1.7,1.7,0,0,0,1.317-1.4,1.368,1.368,0,0,0-.746-1.373,2.7,2.7,0,0,0-1.712-.224" transform="translate(918.654 2182.301)" fill="#455a64"/><path d="M395.4,247.348c-.184.018-.439-.938-.572-2.134s-.091-2.182.094-2.2.439.938.572,2.136.09,2.181-.094,2.2" transform="translate(922.28 2181.998)" fill="#455a64"/><path d="M397.157,247.217c-.185,0-.339-1.017-.347-2.274s.139-2.277.324-2.278.339,1.017.345,2.274-.137,2.277-.322,2.278" transform="translate(922.866 2181.907)" fill="#455a64"/><path d="M365.539,248.556c-.184.019-.469-1.127-.638-2.56s-.157-2.609.027-2.628.469,1.127.638,2.56.157,2.609-.027,2.628" transform="translate(913.756 2182.09)" fill="#455a64"/><path d="M367.767,248.772c-.164.06-.762-1.111-.826-2.682s.42-2.785.588-2.738c.188.043.009,1.243.08,2.711s.342,2.652.158,2.709" transform="translate(914.368 2182.085)" fill="#455a64"/><path d="M362.567,245.316a3.057,3.057,0,0,1-.113.972,18.628,18.628,0,0,1-.679,2.585,27.192,27.192,0,0,1-4.183,7.859,29.056,29.056,0,0,1-6.6,6.261,21.394,21.394,0,0,1-2.4,1.444,3.724,3.724,0,0,1-.949.418c-.054-.086,1.225-.792,3.089-2.177a32.858,32.858,0,0,0,6.368-6.271,30.976,30.976,0,0,0,4.271-7.659c.8-2.094,1.092-3.453,1.2-3.433" transform="translate(908.881 2182.594)" fill="#455a64"/><path d="M420.416,259.851a3.336,3.336,0,0,1-1.024.157,16.352,16.352,0,0,1-2.83-.052,18.783,18.783,0,0,1-8.655-3.138,16.974,16.974,0,0,1-5.767-6.783,13.462,13.462,0,0,1-.885-2.5,2.744,2.744,0,0,1-.14-.958c.107-.026.394,1.326,1.412,3.3a18.026,18.026,0,0,0,5.738,6.5,19.81,19.81,0,0,0,8.353,3.2c2.321.326,3.793.184,3.8.287" transform="translate(924.087 2182.92)" fill="#455a64"/><path d="M378.789,347.081c-.042.15-5.643-1.113-12.507-2.819s-12.395-3.211-12.352-3.361,5.641,1.113,12.508,2.819,12.393,3.211,12.351,3.361" transform="translate(910.669 2207.37)" fill="#455a64"/><path d="M420.553,339.433c.081.135-4.794,2.79-10.884,5.928s-11.095,5.575-11.176,5.44,4.792-2.79,10.885-5.93,11.094-5.573,11.175-5.439" transform="translate(923.344 2206.991)" fill="#455a64"/><path d="M358.941,132.837l15.348-5.9,28.272-1.569,13.289,4.954-18.209,9.913-15.7-.564Z" transform="translate(912.094 2151.5)" fill="#ffbe9d"/><path d="M348.368,274.43c1.389.234,94.022,4.091,94.022,4.091l-3.254-81.656-.267-16.033-5.262-48.57s-13.846-4.667-20.911-6.9c0,0-7.436,7.6-21.572,7.392-13.822-.2-16.709-3.255-16.709-3.255l-19.323,7.262s-13.74,4.83-16.1,10.79c-2.3,5.8-6.519,38.937-6.519,38.937H352.5l-.379,58.533Z" transform="translate(904.565 2151.5)" fill="#a3314f"/><g transform="translate(1311.175 2315.924)" opacity="0.2"><g clip-path="url(#d)"><path d="M390.192,157.407l2.872,20.586,13.895,6.083,10.272-8.582v-19.11Z" transform="translate(-390.192 -156.384)"/></g></g><path d="M416.672,161.9c0,.171-5.775.31-12.9.31s-12.9-.139-12.9-.31,5.774-.31,12.9-.31,12.9.139,12.9.31" transform="translate(921.178 2160.889)" fill="#263238"/><path d="M339.989,149.744a2.515,2.515,0,0,1,.148.541c.1.407.218.928.37,1.578a51.2,51.2,0,0,0,1.844,5.794c.922,2.438,2.226,5.3,3.82,8.514,1.508,3.275,2.872,7.044,4.3,11.128l.015.042v.048c-.033,4.891-.071,10.245-.109,15.839-.134,12.487-.256,23.788-.344,32.039-.073,4.053-.132,7.354-.173,9.706-.033,1.1-.059,1.981-.078,2.638a5.093,5.093,0,0,1-.068.918,5.322,5.322,0,0,1-.053-.922c-.009-.659-.021-1.538-.035-2.642-.005-2.352-.01-5.655-.018-9.71.044-8.251.1-19.55.168-32.035.053-5.592.1-10.945.146-15.835l.014.088c-1.4-4.075-2.738-7.858-4.195-11.106a90.512,90.512,0,0,1-3.715-8.593,43.9,43.9,0,0,1-1.7-5.871c-.137-.7-.236-1.234-.283-1.6a2.6,2.6,0,0,1-.055-.559" transform="translate(906.702 2157.818)" fill="#263238"/><path d="M416.9,142.157a10.133,10.133,0,0,1-.018,1.743c-.046,1.227-.107,2.821-.18,4.741-.166,4.106-.387,9.584-.631,15.64-.279,6.057-.532,11.535-.722,15.641-.113,1.919-.206,3.513-.277,4.738a9.508,9.508,0,0,1-.184,1.734,9.662,9.662,0,0,1-.05-1.743c.022-1.228.051-2.823.086-4.745.1-4.007.288-9.54.547-15.65s.542-11.638.807-15.637c.132-2,.261-3.619.371-4.735a9.256,9.256,0,0,1,.251-1.728" transform="translate(927.994 2155.852)" fill="#263238"/><g transform="translate(1246.703 2310.529)" opacity="0.3"><g clip-path="url(#e)"><path d="M340.037,152.1a33.739,33.739,0,0,0,9.1,24.327c-1.884-8.424-6.589-16.266-9.1-24.327" transform="translate(-339.997 -152.1)"/></g></g><g transform="translate(1287.429 2358.043)" opacity="0.3"><g clip-path="url(#f)"><path d="M371.7,223.159c4.33-.36,8.234-2.877,11.117-6.064a51.516,51.516,0,0,0,7.466-10.6,41.143,41.143,0,0,0,4.379-16.663c-5.4,14.179-13.309,25.4-22.962,33.327" transform="translate(-371.704 -189.832)"/></g></g><path d="M397.273,184.92a1.72,1.72,0,0,1-.077.523c-.091.405-.2.892-.333,1.475-.143.642-.344,1.419-.624,2.311s-.557,1.918-.974,3.02a69.453,69.453,0,0,1-3.2,7.626,80.033,80.033,0,0,1-5.1,8.777,79.074,79.074,0,0,1-6.283,8.007,66.866,66.866,0,0,1-5.971,5.809c-.881.8-1.744,1.441-2.488,2.021s-1.4,1.064-1.955,1.429l-1.273.851a1.845,1.845,0,0,1-.466.263c-.012-.016.126-.141.4-.36l1.2-.938c.533-.392,1.171-.889,1.883-1.5s1.558-1.266,2.416-2.075a74,74,0,0,0,5.839-5.858,84.962,84.962,0,0,0,6.2-7.973,86.393,86.393,0,0,0,5.1-8.69,77.579,77.579,0,0,0,3.293-7.528c.439-1.087.753-2.1,1.052-2.977s.545-1.643.721-2.273c.175-.572.32-1.048.442-1.443a1.8,1.8,0,0,1,.194-.495" transform="translate(914.823 2166.938)" fill="#263238"/><path d="M398.337,164.625a4.329,4.329,0,0,1-.108.834c-.108.6-.249,1.386-.426,2.371-.178,1.031-.426,2.288-.8,3.727s-.718,3.1-1.293,4.887q-.407,1.347-.849,2.817c-.3.978-.687,1.972-1.048,3.013-.7,2.094-1.63,4.261-2.575,6.557a117.968,117.968,0,0,1-7.513,14.31,118.8,118.8,0,0,1-9.581,13.072c-1.654,1.87-3.2,3.671-4.785,5.232-.782.79-1.509,1.579-2.261,2.287l-2.172,2.022c-1.36,1.315-2.706,2.379-3.851,3.352s-2.164,1.772-3.02,2.4l-1.96,1.451a4.564,4.564,0,0,1-.708.473,4.657,4.657,0,0,1,.634-.568l1.887-1.535c.831-.652,1.835-1.463,2.948-2.468s2.44-2.076,3.776-3.4l2.137-2.041c.74-.714,1.455-1.509,2.226-2.3,1.563-1.569,3.085-3.375,4.722-5.243a123.9,123.9,0,0,0,9.493-13.034,122.737,122.737,0,0,0,7.516-14.215c.953-2.278,1.9-4.429,2.614-6.506.37-1.034.767-2.02,1.078-2.989s.6-1.9.881-2.8c.6-1.77.98-3.416,1.376-4.847s.686-2.673.9-3.7c.222-.975.4-1.754.536-2.346a4.509,4.509,0,0,1,.227-.812" transform="translate(911.083 2161.677)" fill="#263238"/><path d="M342.382,145.512c5.709,8.507,28.828,42.971,35.664,53.164A1.578,1.578,0,0,1,376.5,201.1l-41.071-5.066a1.615,1.615,0,0,1-1.1-.633L295.1,142.875a1.576,1.576,0,0,1,1.417-2.5l42.258,3.064a4.745,4.745,0,0,1,3.605,2.075" transform="translate(893.847 2155.389)" fill="#e0e0e0"/><path d="M342.443,145.567a2.756,2.756,0,0,0-.328-.482,4.574,4.574,0,0,0-1.328-1.1,5.878,5.878,0,0,0-2.737-.651l-3.821-.309-24.361-1.874-8.073-.607-4.3-.321c-.379-.021-.7-.069-1.133-.069a1.852,1.852,0,0,0-1.182.481,1.822,1.822,0,0,0-.311,2.365c3.577,4.812,7.4,9.949,11.419,15.355l26.193,35.117c.6.79,1.128,1.531,1.774,2.351a1.956,1.956,0,0,0,.73.485,3.243,3.243,0,0,0,.8.154l1.449.179,5.747.708,11.235,1.38,21.239,2.6c.441.047.807.115,1.3.142a1.909,1.909,0,0,0,1.924-1.879,2.188,2.188,0,0,0-.495-1.291q-1.374-2.04-2.708-4.023l-5.18-7.691-9.308-13.8c-5.693-8.405-10.306-15.217-13.517-19.955-1.593-2.327-2.837-4.143-3.7-5.407l-.977-1.4a3.645,3.645,0,0,0-.353-.463,3.586,3.586,0,0,0,.294.5l.921,1.433c.84,1.281,2.049,3.12,3.6,5.476,3.167,4.766,7.718,11.618,13.336,20.072l9.236,13.845q2.495,3.73,5.152,7.71l2.7,4.031a1.575,1.575,0,0,1,.389.957,1.288,1.288,0,0,1-.387.894,1.273,1.273,0,0,1-.913.371c-.348-.019-.822-.1-1.229-.141L354.3,198.078l-11.234-1.39-5.745-.71-1.449-.179a2.718,2.718,0,0,1-.637-.115,1.26,1.26,0,0,1-.474-.315q-.857-1.143-1.722-2.292L306.8,157.992,295.35,142.7a1.3,1.3,0,0,1,1.042-2c.3,0,.718.043,1.069.062l4.3.3,8.076.564,24.377,1.661,3.826.247a5.814,5.814,0,0,1,2.684.57,5.377,5.377,0,0,1,1.722,1.462" transform="translate(893.786 2155.334)" fill="#263238"/><path d="M295.033,142.362a4.825,4.825,0,0,0,.861.126l2.493.247,9.281.807,31.561,2.526-.25-.142c1.975,2.877,4.014,5.866,6.06,8.952,8.328,12.551,15.6,24.088,21.1,32.3,2.732,4.114,5,7.406,6.584,9.671l1.853,2.586a6.849,6.849,0,0,0,.685.876,6.841,6.841,0,0,0-.57-.952l-1.746-2.657-6.4-9.782c-5.388-8.269-12.6-19.843-20.932-32.408-2.047-3.089-4.093-6.077-6.078-8.954l-.091-.131-.161-.011-31.58-2.3-9.3-.611-2.5-.136a4.817,4.817,0,0,0-.871-.006" transform="translate(893.917 2155.902)" fill="#263238"/><path d="M314.862,148.325h0l-.017-.005Z" transform="translate(899.552 2157.449)" fill="#fff"/><path d="M314.071,148.927a.831.831,0,0,1,1.016-.6,2.222,2.222,0,0,1,1.1.607,1.063,1.063,0,0,1,.2,1.38c-.411.5-1.254.314-1.748-.1a1.4,1.4,0,0,1-.57-1.283" transform="translate(899.326 2157.447)" fill="#fff"/><path d="M334.368,173.387s1.621-3.788-2.493-4.278-14.912,0-14.912,0-5.9.612-4.659,4.766c0,0-3.49,3.055-1.62,6.355s2.618,2.322,2.618,2.322-.5,4.032,2.618,4.643c0,0,3.378,3.911,6.489,3.667s16.323-6.477,17.195-7.7,2.119-1.918,1.372-3.28c0,0,1.62-3.576-1.87-4.12,0,0-.249-2.987-4.737-2.376" transform="translate(898.212 2162.783)" fill="#ffbe9d"/><path d="M314.41,173.889a11.449,11.449,0,0,0,2.78.2c1.715.035,4.085.038,6.7,0a40.547,40.547,0,0,0,6.73-.393c1.775-.4,2.47-1.424,2.386-1.446a7.139,7.139,0,0,1-2.487.981c-1.631.269-4.029.1-6.642.186-2.615.039-4.984.112-6.7.2a11.469,11.469,0,0,0-2.772.278" transform="translate(899.428 2163.65)" fill="#eb996e"/><path d="M316.7,179.677a2.1,2.1,0,0,0,.894.3,9.736,9.736,0,0,0,2.57.156,18.472,18.472,0,0,0,3.748-.666c1.381-.373,2.848-.894,4.4-1.36a20.046,20.046,0,0,1,4.425-.894c1.346-.059,2.8-.024,3.769-.747a2.116,2.116,0,0,0,.9-1.259,1.711,1.711,0,0,0-.157-1.145c-.325-.582-.767-.616-.755-.583-.035.053.319.175.512.69a1.565,1.565,0,0,1-.772,1.9c-.839.562-2.086.5-3.531.523a18.658,18.658,0,0,0-4.589.87l-4.372,1.407a21.277,21.277,0,0,1-3.616.788,24.05,24.05,0,0,1-3.422.014" transform="translate(900.08 2163.971)" fill="#eb996e"/><path d="M320.142,183.714a11.268,11.268,0,0,0,2.776-.526c1.689-.418,4-1.067,6.53-1.876s4.785-1.632,6.4-2.274a11.076,11.076,0,0,0,2.555-1.184c-.071-.178-4.129,1.208-9.167,2.819s-9.143,2.857-9.093,3.041" transform="translate(901.059 2165.102)" fill="#eb996e"/><path d="M319.318,187.485a6.186,6.186,0,0,0,2.3-.261,27.82,27.82,0,0,0,5.262-1.816c1.981-.883,3.709-1.786,4.962-2.437a8.248,8.248,0,0,0,1.972-1.17c-.087-.2-3.32,1.2-7.216,3-3.889,1.828-7.308,2.512-7.283,2.687" transform="translate(900.824 2166.125)" fill="#eb996e"/><path d="M436.136,162.081s-8.4,32.984-18.89,45.159c-10.161,11.79-26.087,6.37-31.6-8.884s-15.34-50.1-15.34-50.1l12.067-9.045,20.848,39.612,9.4-27Z" transform="translate(915.327 2155.089)" fill="#ffbe9d"/><path d="M374.233,155.252l-8.848-12.573a23.4,23.4,0,0,1-3.77-1.146c-1-.575-1.99-5.57-1.969-6.544s-1.716-3.254-1.012-3.895,3.075-.69,2.947-1.627c-.027-.2-1.758-2.283-.385-3.813a7.417,7.417,0,0,1,2.5-1.039l-.144-4.8s2.643-5.665,5.345-3.614c0,0,10.184,7.67,11.211,8.9s4.944,17.2,5.639,20.194" transform="translate(911.959 2149.008)" fill="#ffbe9d"/><path d="M385.806,145.352a4.388,4.388,0,0,0-.136-.847c-.132-.606-.307-1.4-.524-2.4-.477-2.082-1.189-5.092-2.154-8.8-.488-1.854-1.026-3.883-1.7-6.048-.18-.54-.353-1.088-.588-1.645a3.721,3.721,0,0,0-1.2-1.447c-.927-.8-1.9-1.585-2.911-2.386-2.015-1.6-4.155-3.249-6.386-4.95a7.5,7.5,0,0,0-1.864-1.205,2.588,2.588,0,0,0-2.3.535,10.3,10.3,0,0,0-2.714,3.594l-.031.059,0,.077c.014.465.028.966.044,1.468.033,1.122.067,2.235.1,3.329l.238-.306a11.953,11.953,0,0,0-1.794.592,2.639,2.639,0,0,0-.87.555,2.421,2.421,0,0,0-.493.888,2.925,2.925,0,0,0,.155,1.909,5.663,5.663,0,0,0,.4.825l.225.377.046.079c-.012-.014,0-.05-.009-.018a.136.136,0,0,1-.014.082c-.026.108-.265.256-.5.349s-.518.18-.79.262-.554.161-.836.271a1.649,1.649,0,0,0-.849.586,1.349,1.349,0,0,0-.023,1.021,6.321,6.321,0,0,0,.3.806c.221.509.468.989.649,1.464a1.963,1.963,0,0,1,.154.674,6.928,6.928,0,0,0,.08.818c.077.524.176,1.034.283,1.536a20.135,20.135,0,0,0,.831,2.9,3.633,3.633,0,0,0,.777,1.336,4.574,4.574,0,0,0,1.379.594c.9.273,1.77.487,2.62.681l-.141-.094c2.731,3.807,4.962,6.914,6.553,9.132l1.818,2.472a6.336,6.336,0,0,0,.673.837,6.382,6.382,0,0,0-.56-.914l-1.712-2.544c-1.549-2.244-3.721-5.393-6.381-9.247l-.05-.073-.091-.023c-.835-.2-1.7-.424-2.574-.7a4.411,4.411,0,0,1-1.192-.506,3.375,3.375,0,0,1-.622-1.138,20,20,0,0,1-.783-2.824c-.1-.494-.193-.995-.263-1.5A6.188,6.188,0,0,1,360,135.1a2.57,2.57,0,0,0-.184-.868c-.2-.523-.443-1-.652-1.5a5.8,5.8,0,0,1-.268-.73.867.867,0,0,1-.026-.591,1.318,1.318,0,0,1,.543-.319c.248-.094.519-.17.794-.252s.559-.162.849-.28a1.415,1.415,0,0,0,.835-.674.706.706,0,0,0,.059-.336.467.467,0,0,0-.057-.224l-.062-.108-.22-.37a5.194,5.194,0,0,1-.358-.743,2.343,2.343,0,0,1-.135-1.526,1.776,1.776,0,0,1,.367-.657,2.139,2.139,0,0,1,.655-.4,11.539,11.539,0,0,1,1.689-.554l.245-.063-.008-.244c-.032-1.094-.066-2.207-.1-3.329-.015-.5-.031-1-.045-1.468L363.9,120a9.814,9.814,0,0,1,2.518-3.362,1.961,1.961,0,0,1,1.743-.443,7.333,7.333,0,0,1,1.67,1.1c2.235,1.691,4.381,3.329,6.4,4.912,1.01.792,1.991,1.569,2.909,2.35a3.215,3.215,0,0,1,1.075,1.252c.225.519.4,1.064.587,1.593.694,2.137,1.256,4.161,1.77,6,.977,3.651,1.774,6.621,2.344,8.748.263.986.475,1.776.636,2.374a4.538,4.538,0,0,0,.257.82" transform="translate(911.893 2148.949)" fill="#eb996e"/><path d="M362.532,122.845c0,.106,1.034.025,2.639.178a19.207,19.207,0,0,1,2.785.623,13.03,13.03,0,0,0,3.6.03,6.881,6.881,0,0,1,5.673,1.8,7.146,7.146,0,0,1,1.369,2.136,3.255,3.255,0,0,0-1.044-2.433,6.6,6.6,0,0,0-2.435-1.676,7.546,7.546,0,0,0-3.605-.445,14.071,14.071,0,0,1-3.445.028,15.643,15.643,0,0,0-2.864-.5,7.157,7.157,0,0,0-2.674.257" transform="translate(913.116 2150.777)" fill="#eb996e"/><path d="M365.388,123.122c.15.076.561-.509.509-1.337s-.528-1.361-.668-1.268.008.636.041,1.3-.046,1.233.118,1.3" transform="translate(913.864 2150.239)" fill="#eb996e"/><path d="M360.644,127.111c-.009.157,3.485.3,7.671-.589a7.76,7.76,0,0,1,2.819-.35,3.067,3.067,0,0,1,1.826,1.181,17.477,17.477,0,0,1,1.007,1.908,3.3,3.3,0,0,0-.642-2.156,3.373,3.373,0,0,0-2.076-1.488,7.54,7.54,0,0,0-3.067.3c-4.11.88-7.543,1.009-7.538,1.191" transform="translate(912.579 2151.545)" fill="#eb996e"/><path d="M359.591,130.734a4.2,4.2,0,0,0,1.886.009c1.159-.126,2.713-.518,4.409-.844a10.158,10.158,0,0,1,2.374-.233,2.889,2.889,0,0,1,1.71.606,2.655,2.655,0,0,1,.834,1.467c.036.006.123-.167.105-.509a2.09,2.09,0,0,0-.636-1.276,3.15,3.15,0,0,0-1.963-.852,9.184,9.184,0,0,0-2.539.193c-1.746.336-3.256.788-4.37,1.02a9.167,9.167,0,0,0-1.81.419" transform="translate(912.279 2152.461)" fill="#eb996e"/><path d="M361.955,133.254c-.107.078.757.966,2.345.962l-.313-.266c.032.273.062.535.094.8.23,1.777.555,3.195.726,3.169s.126-1.476-.1-3.24c-.037-.267-.074-.526-.113-.8l-.04-.282-.274.016a11.008,11.008,0,0,1-2.322-.366" transform="translate(912.949 2153.539)" fill="#eb996e"/><path d="M415.581,130.843s17.2,4.086,17.164,26.446c-.036,22.275-5.194,33.407-5.194,33.407l-31.706-16.918,7.075-17.414Z" transform="translate(922.591 2152.919)" fill="#a3314f"/><path d="M427.642,189.731a3.158,3.158,0,0,1-.659-.282c-.48-.238-1.089-.541-1.839-.915l-6.759-3.492c-5.772-3.05-13.689-7.231-22.609-11.941l-.256-.136.1-.264c.543-1.393,1.117-2.866,1.7-4.358,2.026-5.16,3.955-10.073,5.714-14.554.884-2.23,1.724-4.353,2.512-6.344a37.973,37.973,0,0,1,2.51-5.427,16.938,16.938,0,0,1,5.722-6.491,7.019,7.019,0,0,1,2.228-.875,4.26,4.26,0,0,1,.619-.079c.141-.006.213-.005.214.006a8.618,8.618,0,0,0-2.925,1.165,17.258,17.258,0,0,0-5.445,6.5,38.909,38.909,0,0,0-2.4,5.395c-.771,2-1.591,4.126-2.455,6.365l-5.666,14.571c-.584,1.493-1.16,2.965-1.706,4.358l-.152-.4,22.5,12.13,6.661,3.667,1.783,1.016a3.055,3.055,0,0,1,.6.39" transform="translate(922.499 2153.885)" fill="#263238"/><rect width="610" height="563.513" transform="translate(810 2119)" fill="none"/><path d="M99.765,380.65l-29.78,26.7,33.7,36.493c3.359-3.368-6.936-28.585-6.936-28.585l18.6-17.639Z" transform="translate(829.906 2217.677)" fill="#455a64"/><path d="M84.631,398.1a2.079,2.079,0,0,0-2.687.509,1.91,1.91,0,0,0,.492,2.615,2.192,2.192,0,0,0,2.842-.554A1.985,1.985,0,0,0,84.459,398" transform="translate(833.217 2222.125)" fill="#fff"/><path d="M69.986,402.437l3.11-2.821,31.04,36.3s.764,2.27-.578,3.114Z" transform="translate(829.906 2222.594)" fill="#263238"/><path d="M92.537,408.88c-.188.155-1.092-.662-2.487-1.02-1.385-.394-2.589-.147-2.669-.375-.116-.2,1.216-.894,2.9-.432s2.462,1.718,2.259,1.827" transform="translate(834.852 2224.48)" fill="#fff"/><path d="M93.99,412.867c-.139.2-1.161-.3-2.488-.223-1.329.039-2.3.623-2.458.439-.182-.142.683-1.2,2.335-1.266s2.781.892,2.611,1.049" transform="translate(835.32 2225.756)" fill="#fff"/><path d="M90.825,418.037c-.231-.156.307-1.127,1.909-1.607,1.415-.437,2.584.055,2.5.264-.057.234-1.09.166-2.249.534-1.166.34-1.981.97-2.162.808" transform="translate(835.819 2226.906)" fill="#fff"/><path d="M95.4,405.881c-.235.072-.739-.968-1.739-1.913-.98-.966-2.049-1.443-1.978-1.675.036-.219,1.415-.052,2.577,1.078s1.364,2.471,1.141,2.51" transform="translate(836.077 2223.266)" fill="#fff"/><path d="M98.13,402.913c-.073.069-.836-.536-1.679-1.836a11.045,11.045,0,0,1-1.166-2.444,11.346,11.346,0,0,1-.4-1.554,2.951,2.951,0,0,1-.071-.941,1.055,1.055,0,0,1,.891-.939,1.358,1.358,0,0,1,1.137.412,3.221,3.221,0,0,1,.536.771,8.649,8.649,0,0,1,.651,1.49,8.513,8.513,0,0,1,.429,2.686,4.061,4.061,0,0,1-.521,2.419c-.135-.028.054-.946-.082-2.393a9.674,9.674,0,0,0-.568-2.462,9.141,9.141,0,0,0-.64-1.341c-.253-.48-.554-.811-.821-.754-.1.024-.131.043-.172.225a2.4,2.4,0,0,0,.055.69,12.765,12.765,0,0,0,.329,1.466,13.494,13.494,0,0,0,.94,2.38,16.857,16.857,0,0,1,1.152,2.126" transform="translate(836.964 2221.445)" fill="#fff"/><path d="M97.025,402.2c-.086-.038.239-.97,1.355-2.08a8.2,8.2,0,0,1,2.271-1.563,8.365,8.365,0,0,1,1.562-.538,2.109,2.109,0,0,1,2.018.33,1.129,1.129,0,0,1,.185,1.224,3.3,3.3,0,0,1-.51.795,5.532,5.532,0,0,1-1.255,1.116,5.857,5.857,0,0,1-2.646.929,3.293,3.293,0,0,1-2.479-.477,21.235,21.235,0,0,0,2.392-.108,5.845,5.845,0,0,0,2.285-.977,5.1,5.1,0,0,0,1.047-.99c.343-.408.528-.836.353-.946a1.464,1.464,0,0,0-1.2-.1,8.369,8.369,0,0,0-1.428.443,9.076,9.076,0,0,0-2.187,1.3c-1.139.921-1.644,1.715-1.761,1.642" transform="translate(837.593 2222.151)" fill="#fff"/><path d="M87.572,401.095l.378,39.564,50.211-.209c-.315-4.7-26.331-14.034-26.331-14.034l.818-25.358Z" transform="translate(834.908 2222.967)" fill="#455a64"/><path d="M94.685,419.571a2.007,2.007,0,0,0-1.408,2.3,1.974,1.974,0,0,0,2.313,1.388,2.115,2.115,0,0,0,1.477-2.443,2.055,2.055,0,0,0-2.569-1.182" transform="translate(836.518 2227.744)" fill="#fff"/><path d="M87.877,433.444l-.06-4.236,48.291,1.6s2.234.96,1.977,2.5Z" transform="translate(834.978 2230.265)" fill="#263238"/><path d="M108.1,421.038c-.008.241-1.233.355-2.435,1.132-1.224.748-1.842,1.792-2.068,1.7-.226-.047.134-1.485,1.607-2.4s2.948-.649,2.9-.428" transform="translate(839.449 2228.09)" fill="#fff"/><path d="M111.932,422.692c.057.233-1,.646-1.832,1.666-.858,1-1.064,2.1-1.308,2.087-.231.039-.407-1.368.647-2.617s2.485-1.365,2.492-1.136" transform="translate(840.894 2228.551)" fill="#fff"/><path d="M113.614,428.424c-.222.052-.569-1.147.055-2.467s1.769-1.847,1.873-1.647c.139.2-.6.907-1.1,2-.521,1.078-.588,2.092-.831,2.117" transform="translate(842.231 2228.984)" fill="#fff"/><path d="M107.883,416.564c-.1.219-1.228-.107-2.614-.009-1.387.071-2.464.53-2.592.325-.143-.174.907-1.067,2.539-1.161s2.786.656,2.666.845" transform="translate(839.201 2226.766)" fill="#fff"/><path d="M94.988,221.862s-7.036,7.387-10.491,14.465-8.769,22.156-8.769,22.156-6.615,23.03-5.138,33.886,11.372,85.1,11.372,85.1-1.946,58.859,6.52,85.045l1.563,6.946,28.306-4.927,6.271-145.7,17.272-96.33Z" transform="translate(830.017 2176.514)" fill="#263238"/><path d="M118.787,227.311c-.119.042-.08-.907-1.089-1.6a2.126,2.126,0,0,0-1.939-.193,1.959,1.959,0,0,0,.064,3.683,2.129,2.129,0,0,0,1.932-.259c.984-.724.912-1.67,1.033-1.633.04,0,.11.2.067.586a2.252,2.252,0,0,1-.8,1.42,2.564,2.564,0,1,1-.071-3.987,2.256,2.256,0,0,1,.849,1.394c.058.382-.006.588-.046.587" transform="translate(842.372 2177.273)" fill="#455a64"/><path d="M158.8,241.774S169.179,334.139,170.671,350s-57.234,100.453-57.234,100.453l-24.778-28.7,37.806-68.9-12.731-68.628L130.5,222.3l26.06.3Z" transform="translate(835.217 2176.629)" fill="#263238"/><path d="M81.1,429.421a18.834,18.834,0,0,0,.2,2.02c.173,1.324.506,3.27.975,5.784.941,5.027,2.469,12.317,4.519,21.423l.042.189.2-.033,28.317-4.866.214-.037.009-.214c.786-19.047,1.728-41.813,2.737-66.226,1.044-26.269,2.013-50.626,2.808-70.609v.023l5.1-38.617c.593-4.614,1.057-8.237,1.378-10.735q.222-1.825.342-2.821c.073-.638.091-.97.091-.97s-.072.325-.171.96q-.146.992-.419,2.811c-.353,2.493-.867,6.11-1.521,10.716-1.282,9.283-3.113,22.548-5.328,38.589l0,.011v.013c-.827,19.981-1.834,44.336-2.922,70.6-.972,24.415-1.879,47.182-2.638,66.229l.224-.251c-10.7,1.886-20.3,3.577-28.295,4.988l.239.155c-2.1-9.09-3.693-16.365-4.7-21.375-.5-2.5-.871-4.443-1.081-5.758-.116-.657-.181-1.159-.227-1.5s-.089-.507-.089-.507" transform="translate(833.067 2187.368)" fill="#455a64"/><path d="M114.476,258.42a10.075,10.075,0,0,1,1.549.076,7.241,7.241,0,0,0,3.983-.666,3.628,3.628,0,0,0,1.6-2.1,14.4,14.4,0,0,0,.487-3.18c.2-2.3.4-4.838.582-7.5.363-5.327.563-10.156.686-13.653.06-1.642.112-3.028.153-4.143a6.674,6.674,0,0,1,.132-1.52,6.666,6.666,0,0,1,.128,1.521c.036.98.062,2.4.059,4.15,0,3.5-.127,8.349-.491,13.688-.181,2.668-.4,5.208-.636,7.514a14.236,14.236,0,0,1-.575,3.3,4.088,4.088,0,0,1-1.887,2.328,5.373,5.373,0,0,1-2.4.616,10.521,10.521,0,0,1-1.843-.1,5.47,5.47,0,0,1-1.525-.329" transform="translate(842.561 2177.518)" fill="#455a64"/><path d="M145.358,240.911a10.028,10.028,0,0,1-2.705-1.4,27.812,27.812,0,0,1-5.565-4.769,27.411,27.411,0,0,1-4.1-6.029,9.624,9.624,0,0,1-1.07-2.812c.2-.1,1.886,4.222,5.676,8.409,3.743,4.225,7.893,6.425,7.768,6.6" transform="translate(847.518 2177.56)" fill="#455a64"/><path d="M72.992,158.885,84.273,199.05l4.987,21.369c0,18.412-4.987,26.8-4.987,26.8l76.794-3.756s1.26-50.947,0-60.584l-9.353-33.357-24.354-5.86-30.4.57Z" transform="translate(830.761 2156.242)" fill="#a3314f"/><path d="M155.2,203.123a4.7,4.7,0,0,1-.288-1.983,13.312,13.312,0,0,1,.859-4.766,13.492,13.492,0,0,1,2.5-4.172,4.857,4.857,0,0,1,1.532-1.325c.148.123-2.191,2.216-3.472,5.7-1.335,3.464-.943,6.545-1.137,6.545" transform="translate(854.06 2168.48)" fill="#263238"/><path d="M187.277,187.786l-19.949,11.682-11.315-28.422a131.314,131.314,0,0,0-6.538-12.187c-6.625-11.4-15.038-10.8-15.038-10.8l-10.147,14.772,10.773,22.627s6.553,41.966,19.268,45.222c19.4,4.969,32.946-42.892,32.946-42.892" transform="translate(845.352 2157.38)" fill="#a3314f"/><g transform="translate(908.075 2350.927)" opacity="0.3"><g clip-path="url(#g)"><path d="M76.356,261.849c9.037-.351,18.428-4.119,26.2-8.647s14.825-10.142,22.158-15.332c17.566-12.434,52.432-39.686,68.724-53.689l-4.722,1.043L79.058,254.8Z" transform="translate(-76.357 -184.181)"/></g></g><path d="M144.131,228.478a2.949,2.949,0,0,1-.062-.742c-.012-.558-.027-1.263-.044-2.128-.009-1.935-.023-4.586-.039-7.822.033-6.684.08-15.768.13-25.807.012-2.523.1-4.978-.067-7.331a41.984,41.984,0,0,0-.944-6.731c-.921-4.25-3.034-7.642-4.716-10.484-1.719-2.837-3.086-5.162-3.9-6.835-.408-.835-.7-1.5-.877-1.952a3.281,3.281,0,0,1-.235-.708,3.051,3.051,0,0,1,.36.655c.218.437.543,1.077.985,1.889.88,1.628,2.3,3.9,4.073,6.713,1.73,2.8,3.933,6.239,4.913,10.586a41.774,41.774,0,0,1,1,6.826c.173,2.391.094,4.863.081,7.378-.126,10.037-.239,19.12-.325,25.8-.072,3.236-.13,5.886-.175,7.821-.033.865-.06,1.569-.08,2.127a3.339,3.339,0,0,1-.075.74" transform="translate(847.936 2159.942)" fill="#263238"/><path d="M144.584,130.061a5.173,5.173,0,0,1-4.82-2.11,6.233,6.233,0,0,0,3.7-.2c1.121-.56,1.756-2.178.877-3.062-.686-.689-1.816-.569-2.795-.64a6.033,6.033,0,0,1-5.143-3.87c-.828-2.335-.071-4.881.227-7.336a20.05,20.05,0,0,0-8.628-18.649L112.32,85.3c-5.689,7.139-7.463,16.758-6.282,25.742s5.067,17.429,9.74,25.244a30.04,30.04,0,0,0,4.732,6.384,12.209,12.209,0,0,0,7.05,3.546,7.02,7.02,0,0,0-1.161-6.436,16.013,16.013,0,0,0,11.664-4.1l-3.361-2.527a12.436,12.436,0,0,0,9.882-3.1" transform="translate(840.062 2141.113)" fill="#263238"/><path d="M88.95,104.874A14.461,14.461,0,0,1,99.616,91.3l19.665-5.509c8.534-1.146,14.55,9.019,15.357,17.425.9,9.341,1.566,19.206.654,26.224-1.834,14.11-12.756,16.228-12.756,16.228,0-.02.185,6.4.3,10.5l-.186,31.326L93.628,156.766l-4.723-51.719c-.013-.241.031.149.045-.173" transform="translate(835.287 2141.217)" fill="#ae7461"/><path d="M123.384,108.459a1.815,1.815,0,0,1-1.715,1.871,1.748,1.748,0,0,1-1.943-1.568,1.814,1.814,0,0,1,1.712-1.87,1.748,1.748,0,0,1,1.946,1.566" transform="translate(844.053 2146.708)" fill="#263238"/><path d="M124.568,104.4c-.221.242-1.644-.725-3.62-.661-1.975.037-3.395,1.078-3.617.846-.109-.1.11-.533.727-1a5.109,5.109,0,0,1,2.886-.968,4.908,4.908,0,0,1,2.89.82c.623.438.843.858.733.966" transform="translate(843.365 2145.601)" fill="#263238"/><path d="M109.907,108.477a1.815,1.815,0,0,1-1.715,1.87,1.748,1.748,0,0,1-1.943-1.566,1.816,1.816,0,0,1,1.712-1.871,1.749,1.749,0,0,1,1.946,1.568" transform="translate(840.22 2146.713)" fill="#263238"/><path d="M109.953,104.816c-.221.242-1.645-.725-3.621-.661-1.975.037-3.395,1.078-3.617.846-.108-.1.108-.533.728-1a5.115,5.115,0,0,1,2.886-.968,4.914,4.914,0,0,1,2.89.82c.62.438.841.858.733.966" transform="translate(839.208 2145.709)" fill="#263238"/><path d="M113.818,119.715a13.458,13.458,0,0,1,3.193-.664c.5-.065.977-.179,1.052-.519a2.486,2.486,0,0,0-.383-1.457q-.769-1.774-1.611-3.722c-2.241-5.3-3.88-9.668-3.662-9.755s2.212,4.142,4.453,9.442q.811,1.963,1.549,3.749a2.809,2.809,0,0,1,.322,1.934,1.256,1.256,0,0,1-.807.749,3.548,3.548,0,0,1-.854.141,12.888,12.888,0,0,1-3.253.1" transform="translate(841.967 2145.855)" fill="#263238"/><path d="M100.184,129.78s4.942,9.515,19.236,7.768l-.091-3.3a36.724,36.724,0,0,1-19.144-4.465" transform="translate(838.496 2152.643)" fill="#6f4439"/><path d="M109.694,99.76c-.179.533-2.159.343-4.47.686-2.318.3-4.167,1.02-4.489.558-.145-.223.166-.728.906-1.26a8,8,0,0,1,6.825-.948c.862.311,1.3.711,1.228.965" transform="translate(838.642 2144.514)" fill="#263238"/><path d="M123.817,99.729c-.334.451-1.71.037-3.349.064-1.639-.029-3.015.387-3.347-.064-.148-.219.058-.667.65-1.1a4.932,4.932,0,0,1,5.4,0c.592.434.8.884.65,1.1" transform="translate(843.3 2144.359)" fill="#263238"/><path d="M107.737,119.815a2.57,2.57,0,0,1,2.609-1.995,2.7,2.7,0,0,1,2.115,1.388,3.187,3.187,0,0,1,.191,2.526l-.036.183a2.977,2.977,0,0,1-3.286.782,2.681,2.681,0,0,1-1.594-2.884" transform="translate(840.632 2149.541)" fill="#6f4439"/><path d="M113.893,122.178c-.006-.295-2-.145-3.553-1.71s-1.5-3.667-1.779-3.661c-.127-.018-.351.495-.3,1.378a4.836,4.836,0,0,0,1.372,3.062,4.381,4.381,0,0,0,2.97,1.31c.84.01,1.318-.246,1.295-.379" transform="translate(840.79 2149.28)" fill="#263238"/><path d="M94.086,84.819c2.213-3.445,7.439-7.043,11.53-7.744,4.662-.8,7.473-.015,10.54,2.73,0,0,2.386,2.258,4.623,2.683s4.106.065,6.775,1.4c3.644,1.828,5.242,6.606,6.931,10.261,2.1,4.543,5.089,8.724,6.457,13.528s.641,10.7-3.487,13.619c.789-4.1,1.439-8.661-.858-12.173-1.752-2.678-4.872-4.162-7.118-6.459-2.71-2.77-3.065-6.476-5.9-9.119-6.483-6.035-17.9,4.582-29.489-8.729" transform="translate(836.761 2138.903)" fill="#263238"/><path d="M134.443,102.333c-1.686-4.013-3.509-8.054-6.391-11.348a22.823,22.823,0,0,0-29.922-3.76L97,87.318a19.132,19.132,0,0,0,14.763,6.974c3.368-.015,7.022-.863,9.911.835,2.777,1.632,3.829,5.06,6.114,7.307,1.555,1.53,3.643,2.471,5.153,4.045a16.431,16.431,0,0,1,3.188,6.061c1.006-3.376-.319-6.955-1.685-10.206" transform="translate(837.59 2140.591)" fill="#263238"/><path d="M110,90.226l-9.182-7.917c-7.157-.365-11.75,6.266-14.207,11.385-1.826,3.805-2.394,8.063-3.77,12.047-1.413,4.09-3.67,7.87-4.955,12s-1.462,8.93,1.074,12.46l1.6-2.886a17.277,17.277,0,0,0,4.815,10.777q.308-1.5.615-3.008a17.074,17.074,0,0,0,6.909,7.3l4.3,11.271c6.353-18.97-10-20.408,12.8-63.426" transform="translate(831.894 2140.334)" fill="#263238"/><path d="M107.686,91.811a40.2,40.2,0,0,1-2.157,7.534,14.507,14.507,0,0,1-4.725,6.2c-3.14,2.234-7.186,2.693-10.96,3.583s-7.791,2.6-9.346,6.083a85.794,85.794,0,0,1,3.219-15.1c1.683-5.432,4.109-10.969,8.728-14.4a16.258,16.258,0,0,1,15.075-2.2" transform="translate(832.896 2140.4)" fill="#263238"/><path d="M96.045,109.768c-.191-.471-9.1-3.345-8.951,5.849.146,8.932,9.284,6.917,9.3,6.66s-.344-12.509-.344-12.509" transform="translate(834.772 2147.25)" fill="#ae7461"/><path d="M93.005,118.342c-.041-.028-.157.112-.423.237a1.606,1.606,0,0,1-1.186.047c-.97-.327-1.808-1.811-1.884-3.419a5.04,5.04,0,0,1,.4-2.236,1.812,1.812,0,0,1,1.17-1.216.811.811,0,0,1,.944.409c.127.247.073.426.122.441.026.021.193-.154.112-.52a.986.986,0,0,0-.37-.554,1.211,1.211,0,0,0-.881-.21,2.219,2.219,0,0,0-1.631,1.415,5.21,5.21,0,0,0-.5,2.5c.094,1.8,1.066,3.465,2.39,3.814a1.725,1.725,0,0,0,1.446-.264c.277-.225.322-.427.29-.442" transform="translate(835.278 2147.854)" fill="#6f4439"/><path d="M91.778,118.175a1.859,1.859,0,0,0-2.029,1.359A1.82,1.82,0,0,0,91,121.6a1.869,1.869,0,0,0,2.186-1.1,1.811,1.811,0,0,0-.984-2.207" transform="translate(835.517 2149.63)" fill="#fff"/><path d="M92.248,118.309a2.422,2.422,0,0,1,.854,1.176,1.491,1.491,0,0,1-.316,1.412,1.721,1.721,0,0,1-1.683.525,1.683,1.683,0,0,1-1.143-1.321,1.5,1.5,0,0,1,.5-1.36,2.49,2.49,0,0,1,1.361-.553c.005-.021-.143-.088-.43-.086a1.879,1.879,0,0,0-1.124.421,1.771,1.771,0,0,0-.683,1.631,2.019,2.019,0,0,0,1.406,1.66,2.078,2.078,0,0,0,2.092-.674,1.76,1.76,0,0,0,.3-1.738,1.832,1.832,0,0,0-.724-.943c-.243-.151-.4-.171-.411-.15" transform="translate(835.475 2149.615)" fill="#263238"/><path d="M104.1,92.433c-.181.071-1.022-2.957-3.56-5.765-2.5-2.847-5.442-4.072-5.347-4.239a5.142,5.142,0,0,1,1.922.754,14.617,14.617,0,0,1,3.879,3.1,14.323,14.323,0,0,1,2.6,4.186,4.886,4.886,0,0,1,.5,1.968" transform="translate(837.074 2140.365)" fill="#455a64"/><path d="M291.765,112.568a6.838,6.838,0,0,1,.271,1.087c.137.72.416,1.77.609,3.152a73.305,73.305,0,0,1,.953,11.759,78.781,78.781,0,0,1-1.842,17.4,71.841,71.841,0,0,1-2.887,9.955,66.332,66.332,0,0,1-4.654,10.137,67.177,67.177,0,0,1-6.35,9.218,78.475,78.475,0,0,1-7.245,7.538,73.283,73.283,0,0,1-14.553,10.129,58.6,58.6,0,0,1-11.121,4.507c-1.351.438-2.444.621-3.169.8a7.571,7.571,0,0,1-1.12.212,7.328,7.328,0,0,1,1.088-.34c.712-.219,1.79-.442,3.124-.915a62.672,62.672,0,0,0,10.972-4.67A74.729,74.729,0,0,0,270.2,182.371a79.383,79.383,0,0,0,7.154-7.5,67.685,67.685,0,0,0,6.274-9.131,66.948,66.948,0,0,0,4.623-10.037,72.829,72.829,0,0,0,2.9-9.866,82.615,82.615,0,0,0,1.233-29c-.152-1.381-.389-2.437-.483-3.164a6.9,6.9,0,0,1-.139-1.111" transform="translate(878.451 2148.182)" fill="#263238"/><path d="M319.542,110.339A81.007,81.007,0,0,0,270.258,72.5a82.681,82.681,0,0,0-62.137,7.411,80.185,80.185,0,0,0-33.921,36,79.067,79.067,0,0,0,2.887,73.242,81.008,81.008,0,0,0,49.284,37.834,83.708,83.708,0,0,0,22.068,2.977,82.6,82.6,0,0,0,40.069-10.387,79.906,79.906,0,0,0,38.557-48.328,78.26,78.26,0,0,0-7.524-60.908M268.189,79.79a73.368,73.368,0,0,1,44.634,34.266,71.6,71.6,0,0,1,2.614,66.335,72.6,72.6,0,0,1-30.718,32.6,74.88,74.88,0,0,1-56.275,6.714,73.372,73.372,0,0,1-44.634-34.266,70.878,70.878,0,0,1-6.847-55.171A72.381,72.381,0,0,1,211.913,86.5,74.807,74.807,0,0,1,248.2,77.095a75.856,75.856,0,0,1,19.987,2.695" transform="translate(857.382 2137.023)" fill="#263238"/><path d="M182.653,166.242a2.614,2.614,0,0,1-.327-.591L181.5,163.9a25.6,25.6,0,0,1-1.164-2.826c-.4-1.122-.921-2.38-1.292-3.834q-.31-1.086-.646-2.264c-.217-.79-.36-1.631-.552-2.491-.416-1.716-.638-3.589-.918-5.551a63.021,63.021,0,0,1,2.288-25.528c.625-1.885,1.177-3.69,1.892-5.309.343-.815.632-1.618.988-2.359l1.038-2.119c.624-1.368,1.364-2.517,1.955-3.555a25.74,25.74,0,0,1,1.648-2.583l1.12-1.58a2.523,2.523,0,0,1,.428-.525,2.578,2.578,0,0,1-.316.6c-.27.439-.6.982-1.012,1.643a30.028,30.028,0,0,0-1.543,2.627c-.556,1.048-1.261,2.2-1.853,3.575l-.992,2.121c-.34.739-.615,1.541-.944,2.352-.687,1.614-1.214,3.41-1.816,5.282a65,65,0,0,0-2.267,25.293c.261,1.946.46,3.8.849,5.51.18.855.308,1.691.511,2.478s.407,1.535.6,2.257c.34,1.452.828,2.711,1.191,3.838a29.788,29.788,0,0,0,1.052,2.851c.283.72.515,1.312.7,1.791a2.614,2.614,0,0,1,.2.645" transform="translate(860.213 2145.799)" fill="#263238"/><path d="M191.014,165.013c-.081.155-1.39-.383-2.656-1.534s-1.923-2.382-1.773-2.474,1.02.908,2.226,1.992,2.3,1.852,2.2,2.016" transform="translate(863.065 2160.735)" fill="#263238"/><path d="M174.131,110.855a79.225,79.225,0,0,1,33.44-35.484,81.509,81.509,0,0,1,61.256-7.306,79.861,79.861,0,0,1,48.586,37.3c21.851,37.957,8.127,86.266-30.593,107.69a81.517,81.517,0,0,1-61.258,7.306,79.861,79.861,0,0,1-48.585-37.3,77.635,77.635,0,0,1-2.846-72.206m141.236,64.481a72.431,72.431,0,0,0-2.655-67.37,74.525,74.525,0,0,0-45.333-34.8,76.047,76.047,0,0,0-57.155,6.817,73.507,73.507,0,0,0-35.5,44.443,72.006,72.006,0,0,0,6.954,56.035,74.513,74.513,0,0,0,45.331,34.8,76.05,76.05,0,0,0,57.156-6.816,73.928,73.928,0,0,0,31.2-33.108" transform="translate(857.382 2135.884)" fill="#455a64"/><path d="M247.6,224.812a83.811,83.811,0,0,1-22.1-2.979,81.141,81.141,0,0,1-49.359-37.893,79.185,79.185,0,0,1-2.894-73.355,80.3,80.3,0,0,1,33.976-36.051,82.818,82.818,0,0,1,62.232-7.423A81.138,81.138,0,0,1,318.81,105c22.2,38.561,8.255,87.641-31.082,109.406a82.743,82.743,0,0,1-40.131,10.4M247.35,66.649A80.121,80.121,0,0,0,208.48,76.727a77.759,77.759,0,0,0-32.907,34.917,76.7,76.7,0,0,0,2.8,71.057,78.59,78.59,0,0,0,47.81,36.7,80.226,80.226,0,0,0,60.284-7.189c38.1-21.082,51.608-68.623,30.1-105.974a78.594,78.594,0,0,0-47.812-36.707,81.249,81.249,0,0,0-21.409-2.886m.24,152.867a78.278,78.278,0,0,1-20.647-2.784,75.78,75.78,0,0,1-46.1-35.395,73.23,73.23,0,0,1-7.073-56.992,74.76,74.76,0,0,1,36.105-45.2A77.339,77.339,0,0,1,268,72.21a75.788,75.788,0,0,1,46.106,35.4,73.957,73.957,0,0,1,2.7,68.519A74.99,74.99,0,0,1,285.074,209.8a77.268,77.268,0,0,1-37.484,9.717m-.232-147.571a74.668,74.668,0,0,0-36.226,9.393,72.248,72.248,0,0,0-34.892,43.684,70.765,70.765,0,0,0,6.836,55.078,73.232,73.232,0,0,0,44.557,34.206,74.744,74.744,0,0,0,56.179-6.7,72.458,72.458,0,0,0,30.666-32.54,71.477,71.477,0,0,0-2.607-66.222,73.244,73.244,0,0,0-44.558-34.207,75.665,75.665,0,0,0-19.954-2.691" transform="translate(857.106 2135.625)" fill="#455a64"/><path d="M54.7,268.93l-1.45-2.254c-3.1-4.825.419-12.474,3.852-14.6L209.23,157.951c.766-.473,1.948.015,2.642,1.09l10.189,15.829c.694,1.077.633,2.333-.132,2.808L70.684,271.261c-3.433,2.124-12.874,2.495-15.98-2.331" transform="translate(824.807 2159.899)" fill="#455a64"/><path d="M164.464,193.327l4.614-4.79s-.542-10.909,1.358-13.569l.99-1.608s-.988-5.305,1.923-6.532c.823-2,1.883-2.821,3.329-1.705,0,0-.814-3.992,2.985-4.523s4.886,16.364,4.886,16.364,1.9,7.583-2.443,7.583c0,0-2.443,2.661-5.157,2.926,0,0-.814,4.523-4.614,4.257Z" transform="translate(856.779 2160.629)" fill="#ae7461"/><path d="M176.481,180.377c.024-.02.227.137.434.54a3,3,0,0,1,.218,1.871,4.184,4.184,0,0,1-1.426,2.424,8.893,8.893,0,0,1-3.03,1.624,22.01,22.01,0,0,1-6.046,1.176,7.59,7.59,0,0,1-2.548-.132c-.014-.189,3.923-.039,8.394-1.6a9,9,0,0,0,2.864-1.478,3.953,3.953,0,0,0,1.376-2.1,3.71,3.71,0,0,0-.236-2.326" transform="translate(856.671 2165.76)" fill="#6f4439"/><path d="M177.026,178.649c-.185,0-.194-3.395-1.026-7.471-.808-4.082-2.114-7.227-1.942-7.295a6.993,6.993,0,0,1,1.007,2,30.53,30.53,0,0,1,2.117,10.532,6.923,6.923,0,0,1-.155,2.229" transform="translate(859.503 2161.483)" fill="#6f4439"/><path d="M174.51,180.077c-.179.013-.506-3.3-1.374-7.3s-1.919-7.17-1.751-7.229a25.879,25.879,0,0,1,2.34,7.107,25.735,25.735,0,0,1,.785,7.427" transform="translate(858.742 2161.914)" fill="#6f4439"/><path d="M178.79,176.982c.137-.086.706.96.335,2.278s-1.386,1.944-1.462,1.8c-.114-.128.586-.836.88-1.956.322-1.112.082-2.069.247-2.124" transform="translate(860.53 2164.878)" fill="#6f4439"/><path d="M170.4,179.291c-.172-.009-.2-1.867-.348-4.144s-.344-4.126-.175-4.155a17.033,17.033,0,0,1,.523,8.3" transform="translate(858.301 2163.326)" fill="#6f4439"/><path d="M93.556,210.734a13.824,13.824,0,0,1,4.462-4c3.029-1.755,9.084-2.445,10.225-4.443s3.006.048,2,2.61c-.64,1.633-5.02,5.425-5.02,5.425s3.977,1.774,7.045.705,13.312-2.137,14.1-.62c.893,1.718-1.746,1.763-2.952,2.173-.917.312-7.961,2.291-7.961,2.291s12.932,1.883,14.437,2.773c1.639.968-.45,2.168-1.265,2.054-.514-.072-3.076,1.461-4.9,2.6a6.031,6.031,0,0,1-4.181.832l-3-.495,8.9,2.566s1.3,1.689-1.015,2.029c-1.034.152-29.263-.912-31.418-1.174-3.726-.452-9.732-.617-9.732-.617l4.625-16.514Z" transform="translate(833.688 2171.231)" fill="#ae7461"/><path d="M121.6,216.132a20.415,20.415,0,0,1-6.45.718,20.376,20.376,0,0,1-6.443-.779c.027-.173,2.9.179,6.445.188,3.55.025,6.422-.3,6.448-.126" transform="translate(840.919 2175)" fill="#6f4439"/><path d="M81.719,214.507l12.929-26.13-11.422-33.93a23.137,23.137,0,0,0-8.592,7.321c-4.074,5.415-8.473,16.927-8.473,16.927S52.068,210.3,49.75,215.02s-6.059,13.452,0,18.344S96.36,238.42,96.36,238.42l4.3-17.578Z" transform="translate(823.216 2159.037)" fill="#a3314f"/><path d="M75.1,168.54c.176-.055,3.2,8.779,6.745,19.73s6.283,19.874,6.107,19.929-3.2-8.777-6.745-19.731S74.923,168.594,75.1,168.54" transform="translate(831.358 2162.691)" fill="#263238"/><path d="M97.031,208.78a7.006,7.006,0,0,1-1.5-.322L91.5,207.351c-3.395-.949-8.068-2.327-13.269-3.659-5.2-1.317-9.989-2.323-13.489-2.215a17.68,17.68,0,0,0-5.518,1.069,5.2,5.2,0,0,1,1.367-.705,13.285,13.285,0,0,1,4.133-.827c3.594-.229,8.458.722,13.675,2.044,5.224,1.339,9.877,2.787,13.239,3.849,1.683.531,3.034.986,3.966,1.307a6.867,6.867,0,0,1,1.427.567" transform="translate(826.845 2171.1)" fill="#263238"/><g transform="translate(909.282 2339.869)" opacity="0.3"><g clip-path="url(#h)"><path d="M77.409,175.4a128.342,128.342,0,0,0,1.161,22.115l3.639-7.151c-.593-3.662-3.3-11.017-4.6-14.5" transform="translate(-77.296 -175.4)"/></g></g><rect width="16.789" height="59.32" transform="translate(1119.108 2254.066)" fill="#ff725e"/><rect width="16.789" height="26.93" transform="translate(1066.509 2288.975)" fill="#ff725e"/><rect width="16.789" height="41.572" transform="translate(1092.453 2274.332)" fill="#ff725e"/><path d="M263.682,91.7a2.978,2.978,0,0,1-.4.523l-1.246,1.443c-1.152,1.3-2.751,3.093-4.738,5.324l-16.464,18.2-.184.2-.232-.15c-3.237-2.071-6.711-4.3-10.3-6.6l.438-.062-.393.455L208.37,136.086l-.144.165-.176-.127-8.192-5.964-2.207-1.648a5.36,5.36,0,0,1-.744-.611,5.1,5.1,0,0,1,.822.5c.575.389,1.333.9,2.281,1.549l8.318,5.794-.32.038,21.638-25.18.393-.455.191-.222.247.16,10.288,6.617-.416.054,16.642-18.041c2.044-2.181,3.69-3.936,4.877-5.2.546-.564.984-1.017,1.326-1.373a3.009,3.009,0,0,1,.487-.45" transform="translate(866.007 2142.771)" fill="#263238"/><path d="M252.348,104.389a21.591,21.591,0,0,1-.234-3.785c-.06-2.341-.1-5.582-.1-9.18l.388.324-.334.054c-3.7.6-7.048,1.1-9.479,1.437a24.182,24.182,0,0,1-3.959.405,23.851,23.851,0,0,1,3.882-.864c2.412-.451,5.752-1.028,9.448-1.626l.333-.054.389-.063v.387c0,3.6-.04,6.839-.1,9.18a21.578,21.578,0,0,1-.234,3.785" transform="translate(877.874 2142.6)" fill="#263238"/><rect width="610" height="563.513" transform="translate(810 2119)" fill="none"/><rect width="610" height="563.513" transform="translate(810 2119)" fill="none"/></g></svg>