<svg xmlns="http://www.w3.org/2000/svg" xmlns:xlink="http://www.w3.org/1999/xlink" width="400" height="390.289" viewBox="0 0 400 390.289"><defs><clipPath id="a"><rect width="400" height="390.289" fill="none"/></clipPath><clipPath id="e"><rect width="29.282" height="11.88" fill="none"/></clipPath><clipPath id="g"><rect width="16.238" height="57.816" fill="none"/></clipPath><clipPath id="h"><rect width="17.971" height="74.718" fill="none"/></clipPath><clipPath id="j"><rect width="88.467" height="31.396" fill="none"/></clipPath><clipPath id="k"><rect width="22.015" height="18.286" fill="none"/></clipPath><clipPath id="l"><rect width="12.201" height="44.398" fill="none"/></clipPath><clipPath id="m"><rect width="10.3" height="8.285" fill="none"/></clipPath><clipPath id="n"><rect width="6.336" height="10.834" fill="none"/></clipPath><clipPath id="o"><rect width="6.842" height="9.708" fill="none"/></clipPath><clipPath id="p"><rect width="11.591" height="9.901" fill="none"/></clipPath><clipPath id="q"><rect width="10.062" height="3.591" fill="none"/></clipPath><clipPath id="r"><rect width="9.046" height="7.522" fill="none"/></clipPath><clipPath id="s"><rect width="12.933" height="3.423" fill="none"/></clipPath><clipPath id="t"><rect width="4.938" height="15.847" fill="none"/></clipPath><clipPath id="u"><rect width="1.012" height="13.823" fill="none"/></clipPath><clipPath id="v"><rect width="7.886" height="11.371" fill="none"/></clipPath><clipPath id="w"><rect width="1.838" height="9.709" fill="none"/></clipPath><clipPath id="x"><rect width="7.214" height="12.596" fill="none"/></clipPath><clipPath id="y"><rect width="11.39" height="14.867" fill="none"/></clipPath><clipPath id="z"><rect width="14.12" height="2.263" fill="none"/></clipPath></defs><g clip-path="url(#a)"><g clip-path="url(#a)"><path d="M16.857,73.718,3.049,140.372C9.191,146.6,15.7,152.5,26.219,154.72L76.8,163.609,88.676,85.261Z" transform="translate(-0.167 -4.028)" fill="#fafafa"/><path d="M13.808,69.368,0,136.022l23.169,14.349L73.75,159.26,88.681,84.05Z" transform="translate(0 -3.79)" fill="#f5f5f5"/><path d="M9.428,136.112,0,139.669s3.406,5.55,8.366,8.556a42.289,42.289,0,0,0,14.8,5.791s-11.045-5.493-13.741-17.905" transform="translate(0 -7.437)" fill="#e0e0e0"/><path d="M6.314,83.465,40.882,72.741l-2.207-7.278L3.539,75.678Z" transform="translate(-0.193 -3.577)" fill="#ebebeb"/><path d="M98.494,102.278,76.087,73.856l-6,4.67,22.136,29.135Z" transform="translate(-3.829 -4.035)" fill="#ebebeb"/><path d="M76.759,107.676c-.026.133-12.793-2.251-28.51-5.325S19.8,96.676,19.829,96.542s12.79,2.251,28.513,5.326,28.443,5.675,28.417,5.808" transform="translate(-1.083 -5.275)" fill="#e0e0e0"/><path d="M74.369,118.485c-.026.133-12.793-2.251-28.51-5.325s-28.445-5.675-28.419-5.809,12.79,2.251,28.513,5.326,28.443,5.675,28.417,5.808" transform="translate(-0.953 -5.865)" fill="#e0e0e0"/><path d="M72.824,128.179c-.027.133-12.793-2.251-28.51-5.325s-28.446-5.675-28.419-5.809,12.79,2.251,28.513,5.326,28.443,5.675,28.417,5.808" transform="translate(-0.868 -6.395)" fill="#e0e0e0"/><path d="M70.947,137.436c-.026.133-12.793-2.251-28.511-5.325s-28.445-5.675-28.418-5.809,12.79,2.251,28.513,5.326,28.442,5.675,28.417,5.808" transform="translate(-0.766 -6.901)" fill="#e0e0e0"/><path d="M356,40.076,338.128,83.654c-5.935,1.2-11.95,2.059-18.842-.735L286.831,68.446l23.506-49.54Z" transform="translate(-15.672 -1.033)" fill="#fafafa"/><path d="M359.433,38.8,341.56,82.375l-18.843-.735L290.263,67.166,310.8,18.245Z" transform="translate(-15.86 -0.997)" fill="#f5f5f5"/><path d="M339.4,80.064l4.032,5.689a20.276,20.276,0,0,1-8.11,1.67,29.265,29.265,0,0,1-10.733-2.406s8.461,1.123,14.811-4.954" transform="translate(-17.736 -4.375)" fill="#e0e0e0"/><path d="M361.332,50.494l-15.68-19.527,4.083-3.321,16.2,19.456Z" transform="translate(-18.886 -1.511)" fill="#ebebeb"/><path d="M301,26.266l23.851-7.633,1.636,5-23.972,8.146Z" transform="translate(-16.446 -1.018)" fill="#ebebeb"/><path d="M310.818,37c.053-.125,8.371,3.277,18.577,7.6s18.44,7.922,18.387,8.048-8.369-3.276-18.579-7.6S310.765,37.13,310.818,37" transform="translate(-16.983 -2.022)" fill="#e0e0e0"/><path d="M308.006,44.129c.053-.126,8.371,3.277,18.577,7.6s18.44,7.922,18.387,8.048-8.369-3.276-18.579-7.6-18.438-7.922-18.385-8.048" transform="translate(-16.829 -2.411)" fill="#e0e0e0"/><path d="M305.142,50.288c.053-.125,8.371,3.276,18.577,7.6s18.44,7.923,18.387,8.048-8.369-3.275-18.579-7.6-18.438-7.923-18.385-8.048" transform="translate(-16.673 -2.748)" fill="#e0e0e0"/><path d="M302.636,56.324c.053-.124,8.371,3.277,18.577,7.6s18.44,7.923,18.387,8.048-8.369-3.275-18.579-7.6-18.438-7.922-18.385-8.048" transform="translate(-16.536 -3.077)" fill="#e0e0e0"/><path d="M338.562,231.878c-14.479-11.8-16.475-31.86-14.551-49.614.32-2.964.227-6.12,1.833-8.624s5.037-4.039,7.6-2.589c2.13,1.2,2.9,3.84,3.978,6.054a17.416,17.416,0,0,0,6.475,7.172c1.82,1.122,4.116,1.9,6.06,1,2.668-1.224,3.232-4.742,3.434-7.7q.56-8.267,1.121-16.531a27.65,27.65,0,0,1,1.543-8.711c1.127-2.737,3.351-5.191,6.22-5.77s6.226,1.3,6.605,4.236a27.282,27.282,0,0,1-.189,3.686c-.009,1.234.462,2.633,1.6,3.061s2.4-.317,3.346-1.116c3.272-2.758,5.626-6.448,7.844-10.128s4.386-7.453,7.395-10.5,7.029-5.344,11.278-5.27,8.566,3.02,9.327,7.255-1.98,8.293-4.875,11.469a66.138,66.138,0,0,1-14.705,12.073,5.447,5.447,0,0,0-2.481,2.3c-.787,1.923.934,4.018,2.831,4.81,2.148.9,4.556.845,6.84,1.288s4.705,1.644,5.415,3.886c.986,3.109-1.774,6.088-4.414,7.978a56.673,56.673,0,0,1-17.439,8.414c-2.233.634-4.573,1.163-6.439,2.56S371.1,196.545,372,198.7s3.574,3.031,5.883,2.777,4.438-1.339,6.669-2c4.175-1.232,9.4-.562,11.739,3.14a9.378,9.378,0,0,1,.382,8.344,21.6,21.6,0,0,1-5.022,6.971,56.967,56.967,0,0,1-25.527,15.252c-9.663,2.568-18.457,2.8-27.566-1.313" transform="translate(-17.67 -7.132)" fill="#f5f5f5"/><path d="M338.157,245.224a130.068,130.068,0,0,1,6.635-24,265.391,265.391,0,0,1,12.624-27.73q1.866-3.595,3.683-7.1c1.214-2.327,2.418-4.634,3.735-6.819a132.461,132.461,0,0,1,8.286-12.119c2.823-3.728,5.637-7.162,8.291-10.354s5.2-6.112,7.627-8.677a105.176,105.176,0,0,1,12.341-11.247c1.555-1.21,2.792-2.108,3.639-2.706l.968-.674a2.292,2.292,0,0,1,.339-.214,1.966,1.966,0,0,1-.307.26l-.936.718c-.824.627-2.04,1.551-3.574,2.785a111.224,111.224,0,0,0-12.19,11.345c-2.4,2.576-4.917,5.508-7.56,8.7s-5.435,6.641-8.239,10.368a133.826,133.826,0,0,0-8.227,12.089c-1.306,2.174-2.5,4.463-3.712,6.8l-3.679,7.1a272.055,272.055,0,0,0-12.639,27.657,132.4,132.4,0,0,0-6.723,23.884" transform="translate(-18.477 -7.299)" fill="#e0e0e0"/><path d="M366.431,180.328a6.039,6.039,0,0,1-.195-1.282c-.1-.828-.193-2.031-.291-3.518-.2-2.973-.335-7.089-.467-11.627s-.326-8.642-.571-11.6c-.118-1.481-.225-2.68-.31-3.507a5.888,5.888,0,0,1-.07-1.3,6,6,0,0,1,.28,1.267c.149.82.316,2.016.483,3.5.344,2.963.6,7.079.732,11.623.119,4.479.227,8.53.308,11.626.046,1.4.086,2.576.118,3.522a5.923,5.923,0,0,1-.017,1.3" transform="translate(-19.917 -8.059)" fill="#e0e0e0"/><path d="M405.063,177.682a8.215,8.215,0,0,1-1.529.069c-.981.015-2.4.028-4.155.1-3.508.117-8.348.449-13.672,1.049s-10.118,1.367-13.571,2.015c-1.729.311-3.121.6-4.085.8a8.092,8.092,0,0,1-1.51.253A8.27,8.27,0,0,1,368,181.5c.951-.258,2.334-.607,4.058-.969,3.443-.748,8.245-1.568,13.586-2.18a134.483,134.483,0,0,1,13.722-.891c1.76-.023,3.185.023,4.168.076a8.017,8.017,0,0,1,1.524.145" transform="translate(-20.028 -9.696)" fill="#e0e0e0"/><path d="M344.826,222.7a1.965,1.965,0,0,1-.226-.482l-.548-1.423c-.47-1.237-1.1-3.047-1.858-5.291-1.51-4.489-3.4-10.754-5.394-17.7s-3.825-13.22-5.24-17.733c-.694-2.194-1.266-4-1.69-5.341-.182-.582-.33-1.062-.452-1.457a1.97,1.97,0,0,1-.123-.52,1.988,1.988,0,0,1,.226.483l.548,1.422c.47,1.237,1.1,3.046,1.858,5.291,1.51,4.489,3.4,10.753,5.4,17.7s3.825,13.217,5.239,17.731c.695,2.193,1.266,4,1.69,5.34.182.582.33,1.063.452,1.456a1.95,1.95,0,0,1,.123.521" transform="translate(-17.992 -9.439)" fill="#e0e0e0"/><path d="M397.418,212.336a2.021,2.021,0,0,1-.516.169l-1.5.383-5.536,1.351c-4.675,1.143-11.113,2.794-18.225,4.628s-13.574,3.43-18.274,4.474c-2.349.524-4.255.928-5.577,1.181l-1.525.282a2.041,2.041,0,0,1-.539.061,2.061,2.061,0,0,1,.516-.171l1.5-.381,5.535-1.352c4.675-1.141,11.114-2.793,18.227-4.628s13.571-3.429,18.27-4.474c2.35-.524,4.255-.927,5.579-1.18.611-.113,1.114-.207,1.525-.282a1.984,1.984,0,0,1,.539-.061" transform="translate(-18.89 -11.602)" fill="#e0e0e0"/></g><g clip-path="url(#a)"><path d="M400.027,412.381c0,.136-89.445.246-199.756.246C89.923,412.627.5,412.517.5,412.381s89.426-.246,199.775-.246c110.31,0,199.756.11,199.756.246" transform="translate(-0.027 -22.519)" fill="#263238"/></g><g clip-path="url(#a)"><path d="M128.144,29.735l22.8,69.535c9.062,2.524,18.289,4.531,29.282.976l51.917-18.787L201.283,2.053Z" transform="translate(-7.002 -0.112)" fill="#e0e0e0"/><path d="M122.972,27.387l22.8,69.535,29.282.976L226.976,79.11,200.638,1Z" transform="translate(-6.719 -0.054)" fill="#e8505b"/><path d="M153.981,93.619l-6.886,8.363s6.147,3.353,12.38,3.5a45.442,45.442,0,0,0,16.9-2.524s-13.237.79-22.4-9.338" transform="translate(-8.037 -5.115)" fill="#e8505b"/><g transform="translate(139.058 88.504)" opacity="0.3"><g clip-path="url(#e)"><path d="M153.981,93.619c-2.093,4.231-4.2,9.189-6.886,8.363,0,0,6.147,3.353,12.38,3.5a45.442,45.442,0,0,0,16.9-2.524s-13.237.79-22.4-9.338" transform="translate(-147.095 -93.619)"/></g></g><path d="M123.1,45.406l26.489-28.5-5.953-5.6L116.348,39.632Z" transform="translate(-6.357 -0.617)" fill="#e0e0e0"/><path d="M218.945,14.505,182.84,0l-3.1,7.568,36.234,15.315Z" transform="translate(-9.821 0)" fill="#e0e0e0"/><path d="M201.426,30.2c.043.129-13.138,4.732-29.438,10.279s-29.556,9.942-29.6,9.814,13.135-4.731,29.441-10.28,29.553-9.941,29.6-9.813" transform="translate(-7.78 -1.65)" fill="#263238"/><path d="M204.983,41.555c.043.129-13.138,4.732-29.438,10.279s-29.556,9.942-29.6,9.814,13.136-4.731,29.441-10.28,29.553-9.941,29.6-9.813" transform="translate(-7.974 -2.27)" fill="#263238"/><path d="M208.731,51.42c.043.129-13.138,4.732-29.438,10.279s-29.556,9.942-29.6,9.814,13.136-4.731,29.441-10.28,29.553-9.941,29.6-9.813" transform="translate(-8.179 -2.809)" fill="#263238"/><path d="M211.936,61.055c.043.129-13.138,4.732-29.438,10.279s-29.556,9.942-29.6,9.814,13.136-4.731,29.441-10.28,29.553-9.941,29.6-9.813" transform="translate(-8.354 -3.336)" fill="#263238"/></g><g clip-path="url(#a)"><path d="M250.338,269.874l-4.574,42.584s-8.912-13.475-14.944-7.469c-5.748,5.722-15.9,47.5-15.9,47.5s-.141,13.625,7.108,17.223c23.206,11.52,49.055-10.2,49.055-10.2l-3.664-121.769a48.845,48.845,0,0,0-17.085,32.131" transform="translate(-11.743 -12.99)" fill="#e8505b"/><path d="M331.967,234.376l-40.19-3.21c-.25-4.693.085-22.847.085-22.847s-16.722-2.6-16.928-19.318,2.691-55.11,2.691-55.11a58.109,58.109,0,0,1,58.386,7.339l2.478,1.908Z" transform="translate(-15.022 -7.058)" fill="#b78876"/><path d="M292.81,212.283a38.881,38.881,0,0,0,21.8-6.194s-5.152,12.032-21.835,10.526Z" transform="translate(-15.997 -11.261)" fill="#aa6550"/><path d="M339.946,162.235c.285-.124,11.488-3.4,11.122,8.033s-11.765,8.706-11.774,8.377.652-16.41.652-16.41" transform="translate(-18.539 -8.836)" fill="#b78876"/><path d="M343.133,174.641c.051-.035.195.146.527.311a1.99,1.99,0,0,0,1.487.078c1.221-.4,2.3-2.289,2.421-4.347a6.582,6.582,0,0,0-.466-2.869,2.3,2.3,0,0,0-1.449-1.576,1.013,1.013,0,0,0-1.192.508c-.164.315-.1.545-.16.563-.033.028-.239-.2-.132-.668a1.275,1.275,0,0,1,.473-.7,1.508,1.508,0,0,1,1.111-.256,2.8,2.8,0,0,1,2.023,1.839,6.769,6.769,0,0,1,.589,3.209c-.147,2.3-1.4,4.419-3.062,4.843a2.131,2.131,0,0,1-1.812-.361c-.345-.293-.4-.55-.356-.57" transform="translate(-18.748 -9.052)" fill="#aa6550"/><path d="M281.68,161.448a2.387,2.387,0,0,0,2.3,2.409,2.284,2.284,0,0,0,2.462-2.153,2.389,2.389,0,0,0-2.3-2.411,2.285,2.285,0,0,0-2.464,2.154" transform="translate(-15.391 -8.704)" fill="#263238"/><path d="M281.127,158.9c.3.311,2.105-1.028,4.674-1.02,2.567-.03,4.453,1.291,4.732.977.136-.139-.165-.7-.986-1.3a6.55,6.55,0,0,0-3.787-1.168,6.292,6.292,0,0,0-3.72,1.2c-.79.606-1.058,1.169-.912,1.308" transform="translate(-15.359 -8.545)" fill="#263238"/><path d="M308.3,162.4a2.388,2.388,0,0,0,2.3,2.409,2.284,2.284,0,0,0,2.462-2.153,2.389,2.389,0,0,0-2.3-2.411A2.285,2.285,0,0,0,308.3,162.4" transform="translate(-16.845 -8.755)" fill="#263238"/><path d="M307.842,159.406c.3.311,2.107-1.028,4.674-1.02,2.567-.03,4.454,1.291,4.732.977.137-.139-.163-.7-.987-1.3a6.542,6.542,0,0,0-3.786-1.168,6.3,6.3,0,0,0-3.72,1.2c-.788.606-1.058,1.169-.912,1.308" transform="translate(-16.818 -8.573)" fill="#263238"/><path d="M297.6,178.469c.012-.147-1.585-.422-4.173-.753-.656-.068-1.277-.2-1.388-.646a3.337,3.337,0,0,1,.438-1.945l1.941-5c2.694-7.113,4.645-12.961,4.357-13.068s-2.7,5.574-5.4,12.687q-.973,2.63-1.859,5.026a3.8,3.8,0,0,0-.34,2.574,1.644,1.644,0,0,0,1.079.96,4.46,4.46,0,0,0,1.115.155c2.6.14,4.22.152,4.23.006" transform="translate(-15.903 -8.582)" fill="#263238"/><path d="M307.141,148.789c.253.7,2.819.368,5.833.731,3.021.3,5.453,1.185,5.853.559.178-.3-.246-.957-1.229-1.634a10.218,10.218,0,0,0-8.9-.982c-1.107.446-1.664.995-1.555,1.326" transform="translate(-16.781 -8.025)" fill="#263238"/><path d="M282.124,151.024c.452.583,2.222-.023,4.351-.05,2.127-.1,3.93.391,4.345-.218.182-.3-.1-.881-.89-1.434a6.3,6.3,0,0,0-7.006.217c-.753.6-1,1.2-.8,1.485" transform="translate(-15.411 -8.106)" fill="#263238"/><path d="M269.165,122.183a6.17,6.17,0,0,1,2.279-5.514,4.378,4.378,0,0,1,5.672.424,5.109,5.109,0,0,1,4.391-6.2c2.726-.173,5.052,1.887,7.687,2.609a12.409,12.409,0,0,0,7.807-.9c2.474-1,4.786-2.371,7.292-3.286a21.378,21.378,0,0,1,27.344,12.553c3.657-1.142,7.812.714,10.066,3.811s2.833,7.165,2.384,10.97a34.831,34.831,0,0,1-1.911,7.5c0,.215.022.425.018.641-.173,9.194-1.212,19.99-5.134,20.05-6.837.1-5.208-12.776-5.208-12.776-8.389-3.242-5.264-15.811-7.362-17.718s-6.486-6.338-24.051,2.639c-6.821,3.486-15.89,3.377-20.84,2.255-.145-.032-.292-.054-.437-.089-.03-.009-.071-.013-.1-.021-.055-.014-.093-.043-.146-.059a15.814,15.814,0,0,1-4.5-1.912,8.9,8.9,0,0,1-3.712-4.127,4.872,4.872,0,0,1,.959-5.234,10.717,10.717,0,0,1-2.491-5.624" transform="translate(-14.706 -5.903)" fill="#263238"/><path d="M363.811,344.813l1.264,23.725,2.825,34.079H260.483l4.664-50.353L256,272.713c.794-28.11,11.589-39.8,33.675-42.485l-1.74.217c3.041-.359,0,0,1.74-.217a71.106,71.106,0,0,0,42.853-.026h0c6.622.281,12.108,2.32,17.742,3.4,17.743,3.4,32.35,17.11,35.9,29.042,2.921,9.824,24.049,95.026,24.049,95.026H368.186Z" transform="translate(-13.988 -12.578)" fill="#e8505b"/><path d="M295.653,187.9a11.5,11.5,0,0,0,1.49,2.92,3.88,3.88,0,0,0,2.758,1.6,3.481,3.481,0,0,0,2.944-1.605,5.555,5.555,0,0,0,.821-3.348c-.047-1.056-.53-2.316-1.58-2.44a2.634,2.634,0,0,0-1.273.282l-5.515,2.237" transform="translate(-16.135 -10.109)" fill="#aa6550"/><path d="M297.8,192.4a7.99,7.99,0,0,0,2.941-.363,4.2,4.2,0,0,0,2.224-2.02,4.427,4.427,0,0,0,.073-3.607,3.929,3.929,0,0,0-.481-.824c-.218-.23-.178-.219-.416-.184-.225.061-.588.232-.884.347l-.906.369c-1.18.477-2.249.9-3.152,1.232a10.043,10.043,0,0,1-3,.9,10.063,10.063,0,0,1,2.729-1.545c.868-.419,1.908-.9,3.069-1.426l.893-.4a9.889,9.889,0,0,1,1.007-.415,1.294,1.294,0,0,1,.819.024,1.51,1.51,0,0,1,.608.481,4.728,4.728,0,0,1,.62,1.046,5.169,5.169,0,0,1-.169,4.412,4.715,4.715,0,0,1-2.8,2.263,4.448,4.448,0,0,1-2.39.093c-.548-.145-.8-.331-.784-.386" transform="translate(-16.074 -10.076)" fill="#263238"/><path d="M252.139,339.106l-25.3-77.671-2.29-13.041s-6.884-29.072-7.189-31.949c-.354-3.325-2.041-3.953-3.258-3.74-1.9.333-3,2.83-2.78,5.693.075.99,1.876,16.55,1.876,16.55a37.039,37.039,0,0,0-3.469-3.88c-2.619-2.667-8.206-3.75-13.737-2.974s-7.012,1.482-6.81,3.644a2.768,2.768,0,0,0,1.315,1.979,5.466,5.466,0,0,0,3.8.868c8.876-1.121,11.781,3.373,11.781,3.373l.3,1.706s-5.822-3.278-9.949-1.185a5.249,5.249,0,0,0-1.6,1.244,7,7,0,0,0-4.911,11.027c.687.963,1.855,1.8,2.983,1.444a3.716,3.716,0,0,0,1.47-1.124,5.622,5.622,0,0,1,.728-.671l1.509,4.662s3.949,10.292,5.16,14.965L214.08,348.24a19.631,19.631,0,0,0,22.788,16.281h0a19.631,19.631,0,0,0,15.27-25.415" transform="translate(-10.307 -11.62)" fill="#b78876"/><path d="M225.148,262.339c-1.584.622-3.386-.392-4.423-1.741s-1.585-3.013-2.522-4.434c-2.8-4.249-8.635-5.792-11.229-10.171-.362-.611-.616-1.477-.1-1.96.482-.448,1.253-.217,1.86.037q7.769,3.27,15.539,6.538" transform="translate(-11.288 -13.32)" fill="#b78876"/><path d="M224.247,250.583a6.734,6.734,0,0,0-1.608-.879c-1.06-.509-2.605-1.215-4.523-2.069l-6.757-2.954-1.958-.841a3.343,3.343,0,0,0-2.491-.426,1.419,1.419,0,0,0-.83,1.361,2.912,2.912,0,0,0,.389,1.324,11.056,11.056,0,0,0,1.493,1.987c2.315,2.419,5.113,3.795,7.215,5.516a12.7,12.7,0,0,1,2.644,2.729c.668.978,1.134,2.033,1.666,2.959a5.935,5.935,0,0,0,3.8,3.292,2.132,2.132,0,0,0,1.837-.267,4.932,4.932,0,0,1-1.745-.1,5.749,5.749,0,0,1-3.291-3.252c-.476-.913-.9-1.992-1.6-3.077a13.1,13.1,0,0,0-2.75-2.975c-2.164-1.822-4.94-3.239-7.07-5.485a10.267,10.267,0,0,1-1.357-1.791c-.348-.608-.38-1.259-.018-1.363.377-.175,1.092.125,1.755.411l1.971.811,6.836,2.764c1.951.774,3.538,1.385,4.642,1.788a6.752,6.752,0,0,0,1.753.534" transform="translate(-11.26 -13.293)" fill="#aa6550"/><path d="M206.617,240.767a6.942,6.942,0,0,0-1.344-2.887,5.372,5.372,0,0,0-2.919-1.672,13.736,13.736,0,0,0-4.272-.154,21.914,21.914,0,0,1-4.438.09,7.065,7.065,0,0,1-3.446-1.281,2.758,2.758,0,0,1-1.125-2.207,1.629,1.629,0,0,1,.2-.886c.06.01-.009.327.04.875a2.608,2.608,0,0,0,1.15,1.869,7.018,7.018,0,0,0,3.245,1.062,24.152,24.152,0,0,0,4.324-.14,13.348,13.348,0,0,1,4.458.217,5.637,5.637,0,0,1,3.121,1.948,5.006,5.006,0,0,1,1,2.262,1.733,1.733,0,0,1,0,.9" transform="translate(-10.331 -12.664)" fill="#aa6550"/><path d="M212.561,217.56a17.5,17.5,0,0,1,.378,3.091c.206,2.126.451,4.661.722,7.461.313,2.8.6,5.327.834,7.45a17.437,17.437,0,0,1,.268,3.1,13.97,13.97,0,0,1-.7-3.039c-.337-1.9-.711-4.528-1.017-7.449s-.48-5.573-.543-7.5a13.994,13.994,0,0,1,.06-3.119" transform="translate(-11.609 -11.887)" fill="#aa6550"/><path d="M203.718,245.223a3.737,3.737,0,0,1-.942-.253,2.891,2.891,0,0,0-2.4.143,1.547,1.547,0,0,0-.666,1.38,8.251,8.251,0,0,0,.362,2,3.486,3.486,0,0,1-.107,2.477,2.972,2.972,0,0,1-2.239,1.487,3.374,3.374,0,0,1-2.551-.793,4.218,4.218,0,0,1-1.384-2.042,13.7,13.7,0,0,1-.367-3.99,8.044,8.044,0,0,1,.515-2.648c.26-.595.531-.846.552-.825.045.033-.147.321-.324.907a9.512,9.512,0,0,0-.3,2.578,14.659,14.659,0,0,0,.476,3.815,3.338,3.338,0,0,0,3.3,2.383,2.389,2.389,0,0,0,1.783-1.156,2.984,2.984,0,0,0,.087-2.067,8.2,8.2,0,0,1-.32-2.142,2.008,2.008,0,0,1,.947-1.733,3.022,3.022,0,0,1,2.719,0,2.527,2.527,0,0,1,.861.481" transform="translate(-10.568 -13.231)" fill="#aa6550"/><path d="M195.076,251.125c.029-.009.15.313.009.889a2.712,2.712,0,0,1-1.635,1.792,3.615,3.615,0,0,1-3.522-.685,5.916,5.916,0,0,1-1.963-3.934,7.153,7.153,0,0,1,.884-4.3,6.832,6.832,0,0,1,2.538-2.527,6.465,6.465,0,0,1,2.264-.8,1.855,1.855,0,0,1,.878-.008,11.254,11.254,0,0,0-2.915,1.182,6.661,6.661,0,0,0-3.033,6.385,5.5,5.5,0,0,0,1.712,3.563,3.208,3.208,0,0,0,3.009.711,2.57,2.57,0,0,0,1.552-1.455c.2-.493.167-.812.221-.813" transform="translate(-10.268 -13.196)" fill="#aa6550"/><path d="M208.016,261.049a2.539,2.539,0,0,1,1.489-.14,5.876,5.876,0,0,1,3.452,1.613l-.508.209a17.667,17.667,0,0,1,.121-2.112c.472-4.107,2.4-6.952,2.511-6.844.173.078-1.446,2.965-1.895,6.917-.085.712-.129,1.4-.143,2.043l-.016.706-.491-.5a6.156,6.156,0,0,0-3.089-1.666c-.876-.184-1.427-.147-1.432-.229" transform="translate(-11.366 -13.866)" fill="#aa6550"/><path d="M204.448,233.471c.154.057-.326,1.237-1.632,1.971s-2.559.551-2.529.389c0-.181,1.1-.275,2.223-.929,1.139-.632,1.783-1.525,1.938-1.431" transform="translate(-10.944 -12.756)" fill="#aa6550"/><path d="M275.55,233.464c.024.027-.346.377-.979,1.1a11.33,11.33,0,0,0-2.194,3.521,4.685,4.685,0,0,0-.249,1.363,3.134,3.134,0,0,0,.361,1.43,5.039,5.039,0,0,0,2.726,2.025,26.963,26.963,0,0,0,8.646,1.221c1.631.031,3.384.093,5.184.2l2.752.322c.937.1,1.869.353,2.83.528a28.66,28.66,0,0,1,11.365,5.048,20.923,20.923,0,0,1,4.694,4.923,16.95,16.95,0,0,1,.891,1.533c.274.552.467,1.1.695,1.639a19.962,19.962,0,0,1,.984,3.456,21.921,21.921,0,0,1-2.225,14.528,21.176,21.176,0,0,1-11.171,9.54,22,22,0,0,1-6.96,1.382,26.842,26.842,0,0,1-6.727-.82,42.867,42.867,0,0,0-6.186-1.1,10.742,10.742,0,0,0-5.616.991,14.506,14.506,0,0,0-4.206,3.412c-1.178,1.324-2.181,2.715-3.173,4.034-1.963,2.634-4.039,4.957-6.462,6.176a7.928,7.928,0,0,1-3.6.942,8.081,8.081,0,0,1-3.071-.573,6.668,6.668,0,0,1-2.108-1.332,5.027,5.027,0,0,1-1.057-1.491,3.3,3.3,0,0,1-.333-1.451,14.266,14.266,0,0,0,.511,1.364,5.077,5.077,0,0,0,1.078,1.363,6.528,6.528,0,0,0,2.046,1.188,7.5,7.5,0,0,0,6.281-.5c2.273-1.2,4.246-3.461,6.159-6.1.967-1.323,1.965-2.746,3.162-4.121A15.147,15.147,0,0,1,274,285.567a11.545,11.545,0,0,1,6.039-1.127,43.235,43.235,0,0,1,6.325,1.082,26.047,26.047,0,0,0,6.506.766,21.13,21.13,0,0,0,6.648-1.343,20.283,20.283,0,0,0,10.648-9.11,21.033,21.033,0,0,0,2.141-13.875,19.017,19.017,0,0,0-.929-3.3c-.22-.528-.414-1.076-.651-1.554a16.064,16.064,0,0,0-.828-1.437,20.083,20.083,0,0,0-4.461-4.719,28.008,28.008,0,0,0-10.993-4.972c-.94-.18-1.849-.436-2.768-.545l-2.7-.345c-1.781-.124-3.475-.206-5.132-.26a26.959,26.959,0,0,1-8.833-1.406,5.485,5.485,0,0,1-2.937-2.315,3.561,3.561,0,0,1-.373-1.659,4.99,4.99,0,0,1,.314-1.482,10.7,10.7,0,0,1,2.41-3.529,5.259,5.259,0,0,1,1.125-.969" transform="translate(-13.679 -12.756)" fill="#fafafa"/><path d="M353.044,298.516a7.046,7.046,0,0,1-.453-2.126,17.53,17.53,0,0,1,.393-5.928,22.82,22.82,0,0,1,3.67-8.02,26.375,26.375,0,0,1,7.94-7.322,33.524,33.524,0,0,1,10.093-3.812,43.84,43.84,0,0,1,8.74-.9,49.432,49.432,0,0,1,5.9.3,8.514,8.514,0,0,1,2.135.372c-.013.175-3.081-.164-8.017.026a47.9,47.9,0,0,0-8.566,1.09,34.174,34.174,0,0,0-9.785,3.773,26.38,26.38,0,0,0-7.7,7,23.2,23.2,0,0,0-3.73,7.659,19.579,19.579,0,0,0-.686,5.734,13.189,13.189,0,0,1,.07,2.152" transform="translate(-19.26 -14.775)" fill="#fafafa"/><path d="M405.119,317.523a6.766,6.766,0,0,1-1.111,1.662,27.264,27.264,0,0,1-3.807,3.906,30.98,30.98,0,0,1-6.816,4.389,30.493,30.493,0,0,1-19.472,2.35,30.922,30.922,0,0,1-7.665-2.642,27.27,27.27,0,0,1-4.627-2.888,6.779,6.779,0,0,1-1.475-1.35c.114-.157,2.275,1.727,6.4,3.609a31.744,31.744,0,0,0,33.214-4.008c3.558-2.809,5.21-5.154,5.357-5.028" transform="translate(-19.678 -17.349)" fill="#fafafa"/><path d="M354.265,314.326a4.75,4.75,0,0,1-.862.353,6.472,6.472,0,0,0-2.163,1.44,10.479,10.479,0,0,0-2.178,3.491,32.359,32.359,0,0,0-1.518,5.335A62.682,62.682,0,0,1,346,331.607a15.555,15.555,0,0,1-1.635,3.522,13.72,13.72,0,0,1-2.757,3.08,21.6,21.6,0,0,1-7.811,3.948c-2.911.862-6,1.337-9.092,1.943a38.182,38.182,0,0,0-16.162,6.733,26.462,26.462,0,0,0-5.386,5.429,23.9,23.9,0,0,0-3.073,5.913,20.467,20.467,0,0,0-1,9.568c.341,2.278.856,3.475.758,3.508a3.375,3.375,0,0,1-.4-.85,8.558,8.558,0,0,1-.366-1.081,12.369,12.369,0,0,1-.37-1.514,19.925,19.925,0,0,1,.716-9.852,24.081,24.081,0,0,1,3.069-6.167,26.833,26.833,0,0,1,5.5-5.676,38.391,38.391,0,0,1,16.523-6.978c3.125-.612,6.178-1.077,9.011-1.9a20.939,20.939,0,0,0,7.5-3.721,12.929,12.929,0,0,0,2.609-2.854,14.938,14.938,0,0,0,1.588-3.311,66.362,66.362,0,0,0,1.632-6.551,31.159,31.159,0,0,1,1.692-5.4,10.475,10.475,0,0,1,2.421-3.554,6.063,6.063,0,0,1,2.36-1.349,2.654,2.654,0,0,1,.929-.165" transform="translate(-16.304 -17.174)" fill="#fafafa"/><path d="M329.777,309.812a3.976,3.976,0,0,1,.491,1.934,8.3,8.3,0,0,1-1.509,5.231,8.1,8.1,0,0,1-2.848,2.585,7.549,7.549,0,0,1-2.05.745,8.308,8.308,0,0,1-2.31.1,9.045,9.045,0,0,1-4.539-1.838,8.116,8.116,0,0,1-2.928-4.383,7.108,7.108,0,0,1,1.462-6.447,15.732,15.732,0,0,1,2.074-2.266,7.783,7.783,0,0,1,1.2-.9,3.208,3.208,0,0,1,1.482-.518l.127.844-.468.117-.234-.814a8.036,8.036,0,0,1,5.21.283,8.533,8.533,0,0,1,3.289,2.274,7.131,7.131,0,0,1,1.345,2.176,2.148,2.148,0,0,1,.2.881,12.81,12.81,0,0,0-1.907-2.717,8.419,8.419,0,0,0-3.171-1.964,7.462,7.462,0,0,0-4.715-.125l-.234-.814.464-.128.127.844a4.3,4.3,0,0,0-2.111,1.238,15.252,15.252,0,0,0-1.921,2.157,6.211,6.211,0,0,0-1.269,5.64,7.231,7.231,0,0,0,2.567,3.861,8.234,8.234,0,0,0,4.044,1.7,7.527,7.527,0,0,0,2.051-.044,6.866,6.866,0,0,0,1.831-.618,7.541,7.541,0,0,0,2.66-2.267,8.379,8.379,0,0,0,1.69-4.816c.019-1.238-.2-1.919-.107-1.943" transform="translate(-17.149 -16.604)" fill="#fafafa"/><path d="M266.022,277.491a.978.978,0,0,1,.009.254c-.006.2-.014.44-.024.742-.034.69-.081,1.643-.14,2.851-.148,2.474-.3,6.058-.493,10.485-.371,8.855-.733,21.095-1.019,34.615s-.467,25.771-.594,34.635c-.067,4.4-.121,7.979-.16,10.5-.026,1.209-.046,2.164-.06,2.854-.011.3-.021.546-.027.742a.992.992,0,0,1-.026.252.951.951,0,0,1-.025-.252c-.006-.2-.012-.441-.021-.743-.008-.69-.018-1.644-.031-2.854,0-2.518,0-6.095,0-10.5.038-8.865.159-21.113.449-34.642s.7-25.766,1.164-34.621c.242-4.427.443-8.009.649-10.481.1-1.206.177-2.157.233-2.846.029-.3.054-.544.073-.739a.953.953,0,0,1,.042-.251" transform="translate(-14.393 -15.162)" fill="#263238"/><g transform="translate(233.56 293.102)" opacity="0.2"><g clip-path="url(#g)"><path d="M247.059,367.171c5.273,2.522,12.171-2.324,14.865-7.511,0,0,1.408-11.435,1.212-17.277-.364-10.816.426-21.525.063-32.34a34.023,34.023,0,0,1-7.718,17.569c-1.158,1.369-2.468,2.727-2.9,4.468-.773,3.116,1.608,8.729,3.14,11.552,4.686,8.64-5.578,23.6-8.32,23.319" transform="translate(-247.059 -310.043)"/></g></g><g transform="translate(332.281 279.661)" opacity="0.2"><g clip-path="url(#h)"><path d="M351.486,295.825l5.182,64.666a19.045,19.045,0,0,0,1.135,5.992,6.451,6.451,0,0,0,4.352,3.968c3.065.624,6.035-2.012,6.9-5.017s.174-6.215-.578-9.25c-1.282-5.17-2.737-10.3-4.191-15.422l-12.656-44.6" transform="translate(-351.486 -295.825)"/></g></g><path d="M287.48,407.885a12.492,12.492,0,0,0,1.438-3.433c.536-2.331.2-5.943-1.608-9.855-.892-1.952-2.149-3.981-3.416-6.219a27.071,27.071,0,0,1-3.2-7.639,18.178,18.178,0,0,1,.67-9.147c.926-3.049,2.308-6.008,3.421-9.107a27.227,27.227,0,0,0,.472-18.08,26.576,26.576,0,0,0-3.583-7.173,27.816,27.816,0,0,0-4.78-5.128,28.282,28.282,0,0,0-8.877-4.951c-2.3-.77-3.637-.977-3.62-1.068a3.725,3.725,0,0,1,.981.087,20.382,20.382,0,0,1,2.754.615,26.943,26.943,0,0,1,9.2,4.775,27.874,27.874,0,0,1,5,5.191,27.023,27.023,0,0,1,3.784,7.369,27.809,27.809,0,0,1-.407,18.694c-1.137,3.158-2.517,6.1-3.427,9.057a17.406,17.406,0,0,0-.7,8.683,26.706,26.706,0,0,0,3.026,7.424c1.226,2.24,2.458,4.3,3.338,6.334,1.777,4.054,2.021,7.825,1.345,10.227a9.006,9.006,0,0,1-1.166,2.593,3.541,3.541,0,0,1-.646.75" transform="translate(-14.447 -17.816)" fill="#fafafa"/><path d="M380.6,247.356a5.3,5.3,0,0,1-.917,1.882,13.782,13.782,0,0,1-4.1,3.983,17.48,17.48,0,0,1-8.059,2.666,26.683,26.683,0,0,1-10.3-1.314,21.46,21.46,0,0,1-8.987-5.217,13.344,13.344,0,0,1-2.621-3.785A12.416,12.416,0,0,1,344.6,241.7a9.849,9.849,0,0,1,1.05-5.626,5.55,5.55,0,0,1,.479-.768,3.335,3.335,0,0,1,.411-.516c.243-.263.381-.388.406-.365.073.058-.42.624-.952,1.817a10.107,10.107,0,0,0-.7,5.382,12.147,12.147,0,0,0,1.066,3.608,12.851,12.851,0,0,0,2.527,3.491,21.2,21.2,0,0,0,8.639,4.916,26.825,26.825,0,0,0,9.926,1.347,17.428,17.428,0,0,0,7.764-2.353,14.9,14.9,0,0,0,4.161-3.615c.809-1.038,1.153-1.7,1.228-1.658" transform="translate(-18.826 -12.808)" fill="#fafafa"/><path d="M367.675,349.73a1.2,1.2,0,0,1-.1-.266c-.062-.2-.144-.465-.246-.792l-.9-3.058c-.77-2.7-1.866-6.54-3.218-11.275-2.68-9.562-6.366-22.717-10.438-37.247-2.017-7.279-3.94-14.214-5.69-20.525a70.536,70.536,0,0,1-2.012-9.094,27.847,27.847,0,0,1-.026-8.123,17.487,17.487,0,0,1,5.347-10.287,13.017,13.017,0,0,1,2.655-1.784l.767-.324a1.16,1.16,0,0,1,.267-.094,14.761,14.761,0,0,0-3.559,2.345,17.51,17.51,0,0,0-5.131,10.2,27.771,27.771,0,0,0,.086,8.012,71.55,71.55,0,0,0,2.046,9.029c1.761,6.308,3.7,13.238,5.726,20.514l10.3,37.285c1.288,4.753,2.333,8.61,3.069,11.317.343,1.313.615,2.345.808,3.084.082.332.147.6.2.805a1.34,1.34,0,0,1,.052.279" transform="translate(-18.837 -13.488)" fill="#263238"/><path d="M325.675,133.667a10.006,10.006,0,0,0,.009-2.023,7.891,7.891,0,0,0-2.614-4.7,10.629,10.629,0,0,0-7.527-2.485c-3.093.025-6.38,1.042-9.78,2.187-1.708.562-3.391,1.1-5.061,1.468a26.177,26.177,0,0,1-4.889.595,26.542,26.542,0,0,1-8.236-1.082,25.571,25.571,0,0,1-5.155-2.186c-.579-.32-1.009-.6-1.3-.8a2.206,2.206,0,0,1-.425-.319c.027-.043.638.357,1.811.949a28.426,28.426,0,0,0,5.161,2.02,27.1,27.1,0,0,0,8.125.964,26.358,26.358,0,0,0,4.8-.612c1.641-.37,3.307-.9,5.014-1.466,3.392-1.142,6.749-2.171,9.928-2.172a10.894,10.894,0,0,1,7.768,2.683,7.907,7.907,0,0,1,2.568,4.93,4.6,4.6,0,0,1-.2,2.045" transform="translate(-15.337 -6.776)" fill="#455a64"/><path d="M341.423,162.228a1.318,1.318,0,0,1-.22-.352c-.133-.236-.308-.6-.519-1.065a21.46,21.46,0,0,1-1.332-4.156,22.919,22.919,0,0,1-.431-6.463,57.38,57.38,0,0,1,1.492-7.766,15.211,15.211,0,0,0,.015-7.685,7.776,7.776,0,0,0-1.6-2.912,5.854,5.854,0,0,0-2.4-1.575,5.487,5.487,0,0,0-4.126.1,7.952,7.952,0,0,0-1.284.9,3.19,3.19,0,0,1,1.2-1.069,5.551,5.551,0,0,1,4.326-.265,6.13,6.13,0,0,1,2.593,1.631,8.089,8.089,0,0,1,1.732,3.05,15.4,15.4,0,0,1,.034,7.92,61.836,61.836,0,0,0-1.522,7.7,23.673,23.673,0,0,0,.32,6.358,25.06,25.06,0,0,0,1.168,4.151,15.2,15.2,0,0,1,.563,1.49" transform="translate(-18.086 -7.082)" fill="#455a64"/><path d="M327.177,131.71a3.526,3.526,0,0,1,.007-.671c.019-.488.043-1.124.072-1.917a22.226,22.226,0,0,0-.772-6.944,12.252,12.252,0,0,0-2.234-4.217A8.631,8.631,0,0,0,319.767,115a11.325,11.325,0,0,0-5.983.245,27.669,27.669,0,0,0-5.983,2.712,49.392,49.392,0,0,1-5.932,3.053,18.143,18.143,0,0,1-6.115,1.227,19.268,19.268,0,0,1-5.6-.687,21.705,21.705,0,0,1-4.543-1.872,18.555,18.555,0,0,1-5.378-4.592,11.621,11.621,0,0,1-1.091-1.589,3.488,3.488,0,0,1-.323-.588,3.455,3.455,0,0,1,.407.535,14.631,14.631,0,0,0,1.155,1.522,19.244,19.244,0,0,0,5.4,4.407,21.648,21.648,0,0,0,4.479,1.782,19.114,19.114,0,0,0,5.481.629,17.848,17.848,0,0,0,5.948-1.222,50.217,50.217,0,0,0,5.87-3.034,27.826,27.826,0,0,1,6.093-2.747,11.732,11.732,0,0,1,6.232-.219,9.02,9.02,0,0,1,4.681,3.141,12.5,12.5,0,0,1,2.251,4.377,21.257,21.257,0,0,1,.631,7.05c-.049.835-.114,1.48-.164,1.917a3.323,3.323,0,0,1-.106.664" transform="translate(-15.234 -6.169)" fill="#455a64"/><path d="M303.435,381.868l70.7-10.545-1.142-6.288H411.04l1.115,9.673a29.254,29.254,0,0,1-28.431,34.775l-82.456-.916Z" transform="translate(-16.461 -19.945)" fill="#b78876"/><path d="M306.006,383.732c-.378.126-5.14-2.009-9.406-3.983a30.77,30.77,0,0,0-14.481-2.807l-19.656,1s1.214,3.244,3.3,4.4,14.3,1.4,14.3,1.4l-.626.644a14.138,14.138,0,0,1-9.784,4.282l-1.878.047a18.374,18.374,0,0,1-4.1-.8l-4.848-1.96c-1.467-.662-3.018-.554-3.655.924-.578,1.337-.154,3.177,3.848,5.194,2.238,1.127,10.533,4,10.533,4a19.941,19.941,0,0,0,.483,3.5c.362,1.207,3.622,2.414,3.622,2.414a42.984,42.984,0,0,0,2.9,5.191c.378.433,3.33,1.352,6.471,2.233a27.833,27.833,0,0,0,15.488-.117l7.491-2.236V384.23" transform="translate(-13.931 -20.594)" fill="#b78876"/><path d="M279.941,399.744a22.352,22.352,0,0,1-9.919-2.609c.056-.133,2.2.692,4.933,1.4s5,1.061,4.986,1.2" transform="translate(-14.754 -21.698)" fill="#aa6550"/><path d="M279.479,404.681a7.23,7.23,0,0,1-5.251-1.427,18.123,18.123,0,0,1,2.615.751,18.3,18.3,0,0,1,2.636.676" transform="translate(-14.984 -22.032)" fill="#aa6550"/><path d="M397.015,388.156c-.09.033-.559-1.367-1.694-3.438a27.648,27.648,0,0,0-2.263-3.462,27.363,27.363,0,0,0-7.5-6.729,27.656,27.656,0,0,0-3.685-1.878c-2.18-.9-3.623-1.22-3.6-1.313a4.178,4.178,0,0,1,1.023.169,9.863,9.863,0,0,1,1.177.307c.452.144.977.282,1.529.513a24.47,24.47,0,0,1,3.79,1.813,25.831,25.831,0,0,1,7.625,6.843,24.565,24.565,0,0,1,2.208,3.573c.289.524.485,1.03.675,1.464a10.074,10.074,0,0,1,.432,1.137,4.222,4.222,0,0,1,.279,1" transform="translate(-20.669 -20.289)" fill="#aa6550"/><path d="M282.828,382.258a8.647,8.647,0,0,1-1.518,1.621,24.429,24.429,0,0,1-4.283,3.243,17.023,17.023,0,0,1-5.019,1.937,7.188,7.188,0,0,1-2.213.24c-.046-.18,3.407-.5,6.985-2.6a33.425,33.425,0,0,0,4.3-3.078,11.633,11.633,0,0,1,1.748-1.359" transform="translate(-14.741 -20.886)" fill="#aa6550"/></g><g clip-path="url(#a)"><path d="M67.444,351.681c1.686,0-12.876,39.115-16.624,49.107-.414,1.107-.705,2.081-.705,2.081l101.932.176-1.2-94.84a1.75,1.75,0,0,0-.013-.187l-8.525-67.842a1.668,1.668,0,0,0-1.218-1.406c-4.036-1.095-18.58-4.848-29.706-5.26-13.045-.483-31.908,2.1-31.908,2.1s-16.927,1.746-26.241,5.106a1.673,1.673,0,0,0-1.093,1.809Z" transform="translate(-2.738 -12.756)" fill="#e8505b"/><path d="M116.688,314.046a6.789,6.789,0,0,1-.51,1.232,12,12,0,0,1-.717,1.391,19.778,19.778,0,0,1-1.081,1.771,22.036,22.036,0,0,1-1.489,2.03c-.545.726-1.219,1.421-1.911,2.169a30.576,30.576,0,0,1-11.01,7.21c-.962.336-1.869.676-2.752.886a22.334,22.334,0,0,1-2.455.554,19.931,19.931,0,0,1-2.056.283,11.928,11.928,0,0,1-1.561.1,6.82,6.82,0,0,1-1.333-.025c-.006-.108,1.9-.1,4.884-.7a23.75,23.75,0,0,0,2.41-.605c.867-.223,1.756-.574,2.7-.915a31.8,31.8,0,0,0,10.851-7.107c.69-.729,1.367-1.4,1.917-2.108a23.778,23.778,0,0,0,1.518-1.967c1.747-2.493,2.5-4.245,2.6-4.2" transform="translate(-4.907 -17.159)" fill="#263238"/><g transform="translate(50.838 351.51)" opacity="0.2"><g clip-path="url(#j)"><path d="M53.776,400.956A30,30,0,0,0,83.02,397.3c3.676-2.669,6.76-6.157,10.726-8.371,5.5-3.069,12.058-3.36,18.34-3.808,8.41-.6,16.884-1.632,24.79-4.56a9.918,9.918,0,0,0,4.334-2.621,3.861,3.861,0,0,0,.393-4.715c-1.092-1.362-3.1-1.439-4.847-1.387-26.36.777-50.446,2.891-76.1,8.987" transform="translate(-53.776 -371.826)"/></g></g><path d="M83.827,129.7c8.147-8.294,21-13.191,31.656-8.53,7.161,3.134,12.019,9.854,18.305,14.5,4.577,3.385,10.234,6,12.633,11.164,2.115,4.552,1.095,9.848.585,14.842s-.154,10.751,3.714,13.95c2.03,1.681,4.7,2.345,6.986,3.655,4.6,2.637,7.339,7.771,8.325,12.983s.453,10.579-.081,15.857L144.01,212.3l-3.6-6.063-1.256,9.53-28,2.527Z" transform="translate(-4.58 -6.522)" fill="#263238"/><path d="M79.9,139.732l-.047,6.1-1.727,91.516c-.15,10.608,10,19.64,21.359,19.715,11.473.074,16.152-8.544,16.48-19.258.345-11.244.914-23.076.914-23.076s14.553-2.005,18.075-20.824c1.752-9.358,1.705-24.784,1.259-37.4a19.966,19.966,0,0,0-21.5-19.214Z" transform="translate(-4.269 -7.498)" fill="#ffbe9d"/><path d="M134.013,170.348a2.426,2.426,0,0,1-2.4,2.381,2.318,2.318,0,0,1-2.438-2.255,2.425,2.425,0,0,1,2.4-2.382,2.32,2.32,0,0,1,2.441,2.256" transform="translate(-7.058 -9.184)" fill="#263238"/><path d="M135.243,165.847c-.309.307-2.108-1.1-4.717-1.167-2.6-.1-4.556,1.186-4.83.859-.135-.146.186-.708,1.037-1.291a6.659,6.659,0,0,1,3.878-1.08,6.386,6.386,0,0,1,3.743,1.324c.786.637,1.042,1.216.89,1.354" transform="translate(-6.866 -8.915)" fill="#263238"/><path d="M106.833,170.348a2.425,2.425,0,0,1-2.4,2.381,2.319,2.319,0,0,1-2.438-2.255,2.425,2.425,0,0,1,2.4-2.382,2.32,2.32,0,0,1,2.441,2.256" transform="translate(-5.573 -9.184)" fill="#263238"/><path d="M108.106,165.614c-.31.307-2.111-1.1-4.717-1.167-2.6-.1-4.557,1.186-4.831.859-.134-.146.184-.707,1.038-1.291a6.649,6.649,0,0,1,3.877-1.08,6.4,6.4,0,0,1,3.744,1.324c.783.638,1.041,1.218.89,1.355" transform="translate(-5.384 -8.903)" fill="#263238"/><path d="M118.073,185.25c-.009-.148,1.621-.384,4.258-.648.667-.05,1.3-.165,1.427-.616a3.4,3.4,0,0,0-.389-1.987q-.874-2.443-1.83-5.126c-2.536-7.3-4.352-13.29-4.058-13.389s2.59,5.734,5.127,13.031q.913,2.7,1.746,5.154a3.86,3.86,0,0,1,.273,2.624,1.672,1.672,0,0,1-1.122.943,4.525,4.525,0,0,1-1.135.126c-2.648.07-4.289.036-4.295-.112" transform="translate(-6.417 -8.933)" fill="#263238"/><path d="M117.663,218.782a48.1,48.1,0,0,1-25.128-7.451s5.783,13.155,24.75,11.907Z" transform="translate(-5.056 -11.547)" fill="#eb996e"/><path d="M116.307,193.018a4.7,4.7,0,0,0-4.165-1.861,4.286,4.286,0,0,0-3.007,1.508,2.72,2.72,0,0,0-.293,3.1,3.157,3.157,0,0,0,3.4.959,9.873,9.873,0,0,0,3.389-1.9,2.884,2.884,0,0,0,.767-.751.872.872,0,0,0,.023-.971" transform="translate(-5.927 -10.444)" fill="#eb996e"/><path d="M109.91,188.193c.424-.013.353,2.818,2.721,4.9s5.39,1.848,5.4,2.245c.035.178-.686.53-1.962.53a7.049,7.049,0,0,1-4.513-1.714,6.143,6.143,0,0,1-2.1-4.1c-.076-1.187.26-1.879.453-1.858" transform="translate(-5.98 -10.283)" fill="#263238"/><path d="M108.847,157.622c-.277.7-2.872.294-5.943.579-3.076.223-5.569,1.05-5.958.4-.172-.309.276-.964,1.293-1.623a10.374,10.374,0,0,1,9.065-.749c1.112.484,1.661,1.057,1.542,1.391" transform="translate(-5.295 -8.498)" fill="#263238"/><path d="M135.275,160.263c-.575.577-2.745-.1-5.374-.2-2.625-.178-4.868.264-5.364-.37-.216-.307.15-.891,1.14-1.425a8.663,8.663,0,0,1,4.4-.851,8.513,8.513,0,0,1,4.254,1.309c.913.634,1.2,1.253.947,1.535" transform="translate(-6.801 -8.601)" fill="#263238"/><path d="M57.133,239.309s-30.4,7.134-36.3,35.963C18.126,288.52,14.33,364.585,32.048,376.4c22.871,15.251,51.944,1.373,51.944,1.373l-3.733-36.793H61.382l-2.547-40.306c.711,3.091-1.7-61.366-1.7-61.366" transform="translate(-1.011 -13.076)" fill="#e8505b"/><path d="M172.332,365.94a23.511,23.511,0,0,0,21.089-24.405L181,288.763s-8.053-45.288-33.517-49.371l8.677,69.043-.828,14.549s.394,9.626,1.374,27.659Z" transform="translate(-8.059 -13.08)" fill="#e8505b"/><path d="M176.111,338.316a32.2,32.2,0,0,0-4.584.5,18.62,18.62,0,0,0-14.609,14.914,32.207,32.207,0,0,0-.408,4.593,5.077,5.077,0,0,1-.145-1.243,16.542,16.542,0,0,1,.211-3.411,18.3,18.3,0,0,1,14.883-15.194,16.58,16.58,0,0,1,3.406-.281,5.112,5.112,0,0,1,1.246.119" transform="translate(-8.543 -18.478)" fill="#263238"/><path d="M91.052,127.991c3.424,4.6,5.051,8.127,7.1,16.3,1,4-2.25,6.831-5.483,9.275a2.608,2.608,0,0,1-4.121-1.509s1.123,12.526-3.405,18.142c-2.123,2.632-2.213,6.01-1.709,8.855a15.007,15.007,0,0,0,4.045,7.659c5.251,5.521,6.709,14.526,3.087,21.3a56.508,56.508,0,0,0-2.879,5.142,7.77,7.77,0,0,0-.6,3.325,2.634,2.634,0,0,1-2.233,2.8,206.751,206.751,0,0,1-46.986,1.412,2.577,2.577,0,0,1-2.3-1.948c-1.226-5.19.819-10.849,3.442-15.629,2.929-5.338,6.659-10.459,7.667-16.463.949-5.65-.594-11.743,1.677-17,2.786-6.456,10.359-9.509,14.151-15.432,3.576-5.586,3.29-12.915,6.495-18.725,4.114-7.459,14.245-10.9,22.052-7.5" transform="translate(-1.923 -6.921)" fill="#263238"/><path d="M95.161,134.978c5.945,3.056,8.692,10.327,14.468,13.694,5.26,3.066,11.824,2.257,17.844,1.352q-.335-2-.67-4.006a10.8,10.8,0,0,0,2.231,3.244,3.667,3.667,0,0,0,3.66.866c2.019-.813,2.288-3.592,1.769-5.707a19.589,19.589,0,0,0-5.255-8.9,26.659,26.659,0,0,0-34.774-2.779" transform="translate(-5.16 -6.97)" fill="#263238"/><path d="M154.169,277.756a4.2,4.2,0,0,1,.056.743c.017.533.039,1.241.065,2.129.037,1.849.13,4.524.271,7.829.271,6.608.889,15.724,1.633,25.792s1.308,19.2,1.491,25.819c.1,3.309.136,5.988.113,7.839-.011.888-.02,1.6-.026,2.131a4.246,4.246,0,0,1-.043.743,4.2,4.2,0,0,1-.056-.743c-.017-.533-.039-1.241-.065-2.129-.037-1.849-.13-4.525-.27-7.828-.271-6.608-.89-15.726-1.634-25.8s-1.307-19.2-1.49-25.815c-.1-3.308-.137-5.987-.114-7.838q.017-1.333.027-2.132a4.2,4.2,0,0,1,.043-.743" transform="translate(-8.42 -15.176)" fill="#263238"/><path d="M63.664,343.849a2.2,2.2,0,0,1-.068-.528c-.026-.4-.059-.9-.1-1.517-.078-1.388-.182-3.278-.311-5.582-.268-4.714-.683-11.222-1.173-18.409-.5-7.157-.948-13.633-1.28-18.406-.151-2.3-.276-4.194-.367-5.579-.031-.614-.058-1.117-.078-1.519a2.189,2.189,0,0,1,.006-.532,2.121,2.121,0,0,1,.094.524c.045.4.1.9.17,1.512.13,1.384.307,3.269.523,5.569.414,4.7.934,11.208,1.424,18.4s.851,13.7,1.03,18.425c.083,2.361.146,4.271.155,5.592,0,.616,0,1.119.006,1.522a2.158,2.158,0,0,1-.031.531" transform="translate(-3.294 -15.942)" fill="#263238"/><path d="M63.263,346.857c.009.088-.987.131-2.475.633a11,11,0,0,0-7.459,8.85c-.243,1.551-.117,2.54-.205,2.546a1.768,1.768,0,0,1-.147-.684,9.021,9.021,0,0,1,.007-1.907,10.6,10.6,0,0,1,7.7-9.138,9.1,9.1,0,0,1,1.878-.329,1.754,1.754,0,0,1,.7.028" transform="translate(-2.892 -18.95)" fill="#263238"/><path d="M86.342,383.638a2.659,2.659,0,0,1-.109-.582c-.057-.436-.129-.992-.216-1.678-.175-1.523-.414-3.62-.706-6.183-.555-5.282-1.31-12.472-2.144-20.417-.277-2.761-.545-5.431-.793-7.909l.235.213-15.119-.087-4.39-.069-1.173-.039a.2.2,0,1,1,0-.083l1.173-.039,4.39-.069,15.119-.087.214,0,.022.215c.254,2.477.528,5.146.812,7.906.778,7.951,1.482,15.147,2,20.431.228,2.57.415,4.672.55,6.2.051.691.093,1.25.125,1.688a2.635,2.635,0,0,1,.01.592" transform="translate(-3.361 -18.938)" fill="#263238"/><path d="M84.229,384.644a4.409,4.409,0,0,1-.714.264l-2.074.662c-1.807.559-4.425,1.358-7.7,2.231A96.817,96.817,0,0,1,62.1,390.219a40.251,40.251,0,0,1-14.525-.688,61.76,61.76,0,0,1-7.273-2.05c-1.151-.409-2.273-.832-3.357-1.283-.541-.23-1.08-.439-1.6-.718l-.775-.391-.72-.464a17.744,17.744,0,0,1-4.559-4.471,31.054,31.054,0,0,1-2.808-4.794,56.4,56.4,0,0,1-2.86-7.492c-.275-.906-.483-1.61-.61-2.092a4.395,4.395,0,0,1-.175-.74,4.457,4.457,0,0,1,.269.712c.174.514.407,1.2.7,2.061a63.687,63.687,0,0,0,2.99,7.4,31.481,31.481,0,0,0,2.824,4.7,17.451,17.451,0,0,0,4.478,4.333l.7.446.751.373c.493.265,1.035.473,1.572.7,1.079.443,2.194.858,3.337,1.262a62.5,62.5,0,0,0,7.217,2.023,40.371,40.371,0,0,0,14.362.72,102.391,102.391,0,0,0,11.617-2.306c3.274-.827,5.906-1.575,7.727-2.078l2.1-.573a4.49,4.49,0,0,1,.742-.168" transform="translate(-1.248 -19.945)" fill="#263238"/><path d="M69.484,150.793a12.084,12.084,0,0,0-2.763-13.222,13.6,13.6,0,0,0-13.385-2.9,10.312,10.312,0,0,0-5.225,3.574c-2.318,3.2-1.866,7.909.53,11.052a13.926,13.926,0,0,0,10.335,5.022,26.48,26.48,0,0,0,11.513-2.382" transform="translate(-2.546 -7.322)" fill="#263238"/><path d="M103.988,310.006c6.612,5.456,22.172,18.368,22.172,18.368l8.712-1.551-26.394-22.2a3.506,3.506,0,1,0-4.49,5.387" transform="translate(-5.612 -16.599)" fill="#455a64"/><path d="M103.093,307.018l-3.427-3.093a1.674,1.674,0,1,1,2.253-2.477l3.3,3.02Z" transform="translate(-5.416 -16.447)" fill="#455a64"/><path d="M113.842,309.124a11.564,11.564,0,0,1-2.123,2.6,11.562,11.562,0,0,1-2.482,2.262,22.939,22.939,0,0,1,4.6-4.863" transform="translate(-5.968 -16.89)" fill="#263238"/><path d="M113.712,319.734a16.874,16.874,0,0,1-2.634-1.722c-1.576-1.135-3.7-2.78-5.938-4.73a9.825,9.825,0,0,1-2.778-3.2,4.581,4.581,0,0,1-.089-3.473,4.351,4.351,0,0,1,1.4-1.879,1.772,1.772,0,0,1,.752-.409c.02.035-.239.191-.627.556a4.571,4.571,0,0,0-1.195,1.851,4.324,4.324,0,0,0,.175,3.168,9.838,9.838,0,0,0,2.689,3.015c2.226,1.94,4.307,3.621,5.824,4.824a24.086,24.086,0,0,1,2.424,2" transform="translate(-5.572 -16.628)" fill="#263238"/><path d="M84.144,348.764c6.269-2.106,12.93-.688,19.2-2.794a16.615,16.615,0,0,0,5.925-2.921c1.991-1.769,3-4.368,4.592-6.506,4.745-6.39,13.609-7.714,21.527-8.525a16.019,16.019,0,0,1,5.544.079,5.432,5.432,0,0,1,4.029,3.475c.506,1.789-.649,4.02-2.5,4.206,1.735.076,2.95,1.838,3.268,3.545s.035,3.474.265,5.2c.322,2.418,1.645,4.681,1.568,7.12-.1,3.338-2.871,6.085-5.953,7.37s-6.493,1.451-9.8,1.916c-16.233,2.284-28.581,11.5-44.232,18.464" transform="translate(-4.598 -17.912)" fill="#ffbe9d"/><path d="M149.061,341.724a2.239,2.239,0,0,0,3.2.658,3.425,3.425,0,0,0,1.227-3.3,7.7,7.7,0,0,0-1.566-3.324,42.894,42.894,0,0,0-4.542-5.017l-5.029,4.211Z" transform="translate(-7.778 -18.071)" fill="#ffbe9d"/><path d="M146.711,336.528c-.009.155-3.081-.1-6.8.478-3.725.549-6.584,1.7-6.638,1.551a6.623,6.623,0,0,1,1.835-.847,25.259,25.259,0,0,1,9.6-1.449,6.6,6.6,0,0,1,2,.267" transform="translate(-7.282 -18.372)" fill="#eb996e"/><path d="M149.165,346.918c-.03.149-2.586-.375-5.77-.285-3.187.067-5.713.718-5.75.57a18.518,18.518,0,0,1,11.52-.286" transform="translate(-7.521 -18.913)" fill="#eb996e"/><path d="M149.124,343.182c-.079-.009,0-.739-.138-1.894a9.728,9.728,0,0,0-2.169-5.075l-.142-.176.157-.155a4.55,4.55,0,0,0,1.307-3.326c-.024-.939-.283-1.479-.211-1.508a2.49,2.49,0,0,1,.528,1.487,4.589,4.589,0,0,1-1.286,3.694l.015-.33a9.038,9.038,0,0,1,2.146,5.359,4.213,4.213,0,0,1-.209,1.923" transform="translate(-8.014 -18.088)" fill="#eb996e"/><path d="M149.452,341.79l8.247,7.739,1.054,4.6-7.626-1.721c-1.092-3.882-1.9-7.579-1.675-10.614" transform="translate(-8.164 -18.675)" fill="#455a64"/><path d="M135.073,352.094c-.169.3-44.5,22.159-44.5,22.159v4.7l45.238-23.532,56.133-2.119v-3.329Z" transform="translate(-4.949 -19.122)" fill="#f5f5f5"/><path d="M90.573,379.822c.31-.211,48.946-4.6,48.946-4.6l52.425-21.73-56.132,2.119L90.573,379.146Z" transform="translate(-4.949 -19.315)" fill="#263238"/><path d="M139.831,368.377c-.4-2.547,2.045-4.73,4.531-5.41s5.145-.411,7.658-.983a34.791,34.791,0,0,0,4.672-1.665c7.753-2.975,16.259-3.129,24.563-3.245a5.272,5.272,0,0,1-1.883,6.444,8.683,8.683,0,0,1-.258,6.226,19.435,19.435,0,0,1-3.464,5.32,12.091,12.091,0,0,1-4.1,3.435,13.66,13.66,0,0,1-5.259.807c-5.57.118-11.546.122-16.152-3.009-3.581-2.434-6.065-6.61-10.214-7.844l.984.039" transform="translate(-7.638 -19.51)" fill="#ffbe9d"/><path d="M177.784,365.5a4.493,4.493,0,0,1-1.066.1l-2.909.093c-2.456.057-5.849.1-9.6.12l-5.289,0a7.286,7.286,0,0,1-2.337-.358,3.584,3.584,0,0,1-1.689-1.231,2.243,2.243,0,0,1-.441-1.674,2.1,2.1,0,0,1,.586-1.163c.545-.511,1.017-.428,1-.415a2.134,2.134,0,0,0-.857.545,1.939,1.939,0,0,0-.006,2.5,3.285,3.285,0,0,0,1.545,1.053,7.062,7.062,0,0,0,2.209.29l5.28-.041c3.747-.019,7.141-.008,9.6.025l2.909.063a4.5,4.5,0,0,1,1.067.091" transform="translate(-8.438 -19.723)" fill="#eb996e"/><path d="M174.127,370.578a7.166,7.166,0,0,1-1.339.262c-.867.133-2.124.313-3.689.463a35.773,35.773,0,0,1-5.527.132,40.724,40.724,0,0,1-6.673-1.122,51.955,51.955,0,0,0-12.075-1.482c-1.561-.007-2.825.055-3.7.1a8.214,8.214,0,0,1-1.362.041,6.571,6.571,0,0,1,1.345-.232c.872-.107,2.139-.222,3.712-.26a47.03,47.03,0,0,1,12.186,1.35,43.3,43.3,0,0,0,6.6,1.15,39.426,39.426,0,0,0,5.468-.026c1.559-.1,2.82-.232,3.693-.306a7.4,7.4,0,0,1,1.362-.072" transform="translate(-7.637 -20.133)" fill="#eb996e"/><path d="M169.711,375.723a4.424,4.424,0,0,1-1.044.195c-.675.089-1.653.209-2.868.313a34.5,34.5,0,0,1-9.53-.308c-3.732-.713-6.635-2.614-8.859-3.5a22.569,22.569,0,0,0-3.733-1.147,3.245,3.245,0,0,1,1.063.056,13.49,13.49,0,0,1,2.8.768c2.31.827,5.2,2.652,8.828,3.339a39.049,39.049,0,0,0,9.409.443l2.875-.157a4.423,4.423,0,0,1,1.061,0" transform="translate(-7.85 -20.285)" fill="#eb996e"/><g transform="translate(149.288 311.774)" opacity="0.2"><g clip-path="url(#k)"><path d="M157.916,348.08a31.863,31.863,0,0,1,2.763-9.992,15.425,15.425,0,0,1,7.138-7.3,10.259,10.259,0,0,1,9.936.61,5.16,5.16,0,0,1,1.981,2.364,2.9,2.9,0,0,1-.477,2.937c-1.046,1.109-2.809.932-4.332.865a18.231,18.231,0,0,0-16.854,10.155" transform="translate(-157.916 -329.794)"/></g></g><g transform="translate(57.297 283.488)" opacity="0.2"><g clip-path="url(#l)"><path d="M70.506,343.567c3.756-6.774,2.425-15.273-.458-22.464s-7.189-13.8-9.389-21.23a131.087,131.087,0,0,0,6.474,44.4" transform="translate(-60.609 -299.873)"/></g></g><path d="M77.517,236.224s4.585,10.807,21.125,10.12,17.075-13.522,17.075-13.522l11.065,11.765-10.511,21.668L102.15,276.8l-19.239-7.906-15.849-12.3Z" transform="translate(-3.664 -12.721)" fill="#e8505b"/><g transform="translate(24.824 269.675)" opacity="0.5"><g clip-path="url(#m)"><path d="M36.549,285.28c.17.212-1.994,2.231-4.833,4.508s-5.279,3.953-5.449,3.741,1.994-2.23,4.833-4.509,5.279-3.952,5.449-3.74" transform="translate(-26.258 -285.262)" fill="#fafafa"/></g></g><path d="M44.761,272.594c-.085.246-2.7-.492-5.523-2.235s-4.674-3.728-4.493-3.914c.19-.212,2.264,1.4,5.009,3.074s5.11,2.81,5.008,3.074" transform="translate(-1.898 -14.557)" fill="#fafafa"/><path d="M59.868,274.288c.223.172-1.865,3.21-4.245,7.067s-4.176,7.075-4.43,6.952c-.237-.111,1.171-3.569,3.593-7.47s4.876-6.711,5.081-6.548" transform="translate(-2.796 -14.987)" fill="#fafafa"/><path d="M47.133,308.359c-.194.172-2.376-2.052-4.285-5.358-1.925-3.3-2.774-6.3-2.529-6.379.267-.1,1.5,2.673,3.38,5.885,1.86,3.221,3.654,5.671,3.434,5.853" transform="translate(-2.201 -16.207)" fill="#fafafa"/><path d="M34.016,325.225c-.269.037-.82-2.369-1.228-5.373s-.523-5.47-.253-5.507.82,2.369,1.229,5.374.522,5.469.252,5.506" transform="translate(-1.77 -17.176)" fill="#fafafa"/><g transform="translate(44.165 301.552)" opacity="0.5"><g clip-path="url(#n)"><path d="M46.746,329.808c-.235-.136.979-2.67,2.713-5.658s3.33-5.3,3.565-5.165-.979,2.67-2.713,5.659-3.33,5.3-3.565,5.164" transform="translate(-46.717 -318.98)" fill="#fafafa"/></g></g><path d="M31.64,347.227c-.2.176-2.3-1.89-4.351-4.881s-3.223-5.7-2.988-5.816,1.782,2.327,3.8,5.259,3.75,5.253,3.538,5.438" transform="translate(-1.326 -18.388)" fill="#fafafa"/><path d="M51.414,344.972c.193.191-1.977,2.694-4.846,5.591s-5.354,5.089-5.547,4.9,1.977-2.694,4.848-5.591,5.353-5.089,5.545-4.9" transform="translate(-2.241 -18.848)" fill="#fafafa"/><g transform="translate(31.627 350.4)" opacity="0.5"><g clip-path="url(#o)"><path d="M40.28,380.347c-.179.189-2.271-1.558-4.179-4.295s-2.848-5.291-2.609-5.4c.256-.12,1.551,2.185,3.416,4.831s3.574,4.66,3.373,4.859" transform="translate(-33.455 -370.652)" fill="#fafafa"/></g></g><path d="M65.788,373.631c.135.236-2.189,1.815-5.19,3.526s-5.544,2.908-5.679,2.673,2.189-1.815,5.191-3.527,5.543-2.908,5.678-2.672" transform="translate(-3 -20.413)" fill="#fafafa"/><path d="M76.04,364.791c-.167.2-2.379-1.486-4.376-4.234s-2.94-5.358-2.7-5.458c.258-.12,1.552,2.232,3.5,4.877,1.927,2.656,3.773,4.6,3.58,4.815" transform="translate(-3.766 -19.402)" fill="#fafafa"/><path d="M93.463,307.764c.163.217-2.34,2.367-5.59,4.8s-6.018,4.23-6.181,4.012,2.34-2.366,5.591-4.8,6.017-4.23,6.18-4.012" transform="translate(-4.463 -16.815)" fill="#fafafa"/><path d="M75.486,305.9c-.27-.027-.227-2.618.1-5.785s.807-5.713,1.078-5.685.226,2.618-.1,5.786-.807,5.712-1.078,5.684" transform="translate(-4.115 -16.087)" fill="#fafafa"/><g transform="translate(76.043 257.781)" opacity="0.5"><g clip-path="url(#p)"><path d="M92.022,282.563c-.151.216-3.081-1.587-6.3-4.336s-5.465-5.351-5.275-5.535,2.729,2.075,5.914,4.785,5.82,4.858,5.658,5.086" transform="translate(-80.438 -272.68)" fill="#fafafa"/></g></g><path d="M79.2,253.915c.207.176-1.86,2.954-4.618,6.205s-5.162,5.745-5.37,5.568,1.86-2.953,4.619-6.2,5.162-5.745,5.369-5.569" transform="translate(-3.781 -13.873)" fill="#fafafa"/><g transform="translate(51.382 233.527)" opacity="0.5"><g clip-path="url(#q)"><path d="M64.407,250.581c-.149.243-2.262-.844-5.007-1.764-2.74-.94-5.077-1.361-5.048-1.645.014-.258,2.5-.268,5.364.713,2.871.964,4.836,2.483,4.691,2.7" transform="translate(-54.352 -247.024)" fill="#fafafa"/></g></g><path d="M102.577,263.679c-.261-.077.186-2.378,1-5.138s1.682-4.939,1.943-4.861-.186,2.377-1,5.138-1.681,4.938-1.942,4.861" transform="translate(-5.601 -13.861)" fill="#fafafa"/><path d="M111.55,286.7c-.271-.015-.363-2.267-.2-5.028s.508-4.987.779-4.972.363,2.267.2,5.028-.508,4.987-.779,4.972" transform="translate(-6.08 -15.118)" fill="#fafafa"/><path d="M125.841,304.143c-.17.212-2.24-1.168-4.622-3.084s-4.176-3.64-4.005-3.851,2.24,1.168,4.623,3.084,4.175,3.64,4,3.851" transform="translate(-6.404 -16.238)" fill="#fafafa"/><path d="M141.565,280.427c.18.2-1.667,2.127-4.125,4.3s-4.6,3.761-4.776,3.556,1.667-2.126,4.125-4.3,4.6-3.761,4.776-3.556" transform="translate(-7.248 -15.321)" fill="#fafafa"/><g transform="translate(118.439 246.845)" opacity="0.5"><g clip-path="url(#r)"><path d="M134.323,268.61c-.145.222-2.483-1.06-5-3.152s-4.214-4.147-4.023-4.331,2.174,1.525,4.652,3.573,4.525,3.678,4.371,3.91" transform="translate(-125.285 -261.112)" fill="#fafafa"/></g></g><path d="M152.618,248.745c.215.149-.93,2.106-2.953,4s-4.04,2.924-4.176,2.7c-.153-.236,1.563-1.586,3.5-3.417s3.4-3.45,3.628-3.282" transform="translate(-7.949 -13.591)" fill="#fafafa"/><g transform="translate(119.916 230.037)" opacity="0.5"><g clip-path="url(#s)"><path d="M139.779,246.653c-.036.262-3.054.046-6.658-.87s-6.364-2.153-6.272-2.4c.095-.263,2.962.552,6.513,1.445s6.459,1.548,6.417,1.825" transform="translate(-126.847 -243.333)" fill="#fafafa"/></g></g><g transform="translate(154.745 248.063)" opacity="0.5"><g clip-path="url(#t)"><path d="M163.749,278.246c-.259-.056.331-3.749,1.68-8.148s2.915-7.794,3.16-7.7-.891,3.623-2.219,7.984-2.349,7.921-2.621,7.861" transform="translate(-163.689 -262.4)" fill="#fafafa"/></g></g><path d="M168.334,300.624c-.2.186-2.532-1.965-5.213-4.806s-4.7-5.3-4.5-5.482,2.531,1.964,5.213,4.806,4.695,5.3,4.5,5.482" transform="translate(-8.666 -15.863)" fill="#fafafa"/><g transform="translate(166.814 282.753)" opacity="0.5"><g clip-path="url(#u)"><path d="M176.844,312.918c-.272,0-.44-3.1-.374-6.92s.338-6.908.61-6.9.44,3.1.374,6.92-.338,6.908-.61,6.9" transform="translate(-176.455 -299.095)" fill="#fafafa"/></g></g><path d="M168.386,333.576c-.213.154-2.241-2.325-4.109-5.787s-2.846-6.51-2.6-6.6c.261-.1,1.618,2.736,3.467,6.134s3.474,6.094,3.244,6.255" transform="translate(-8.832 -17.549)" fill="#fafafa"/><path d="M189.055,338.048c.19.195-1.121,1.783-2.929,3.548s-3.427,3.038-3.617,2.845,1.121-1.783,2.929-3.549,3.427-3.038,3.617-2.844" transform="translate(-9.971 -18.47)" fill="#fafafa"/><g transform="translate(131.505 286.04)" opacity="0.5"><g clip-path="url(#v)"><path d="M139.146,313.94c-.243-.074.625-3.175,2.866-6.4,2.223-3.241,4.813-5.153,4.967-4.953.2.216-2.019,2.389-4.156,5.511-2.162,3.106-3.407,5.947-3.677,5.842" transform="translate(-139.106 -302.572)" fill="#fafafa"/></g></g><path d="M80.831,341.323c-.265-.065.2-2.878,1.039-6.282s1.732-6.112,2-6.047-.2,2.877-1.039,6.282-1.732,6.112-2,6.047" transform="translate(-4.412 -17.976)" fill="#fafafa"/><path d="M104.821,344.1c-.148.228-2.5-1.044-5.257-2.839s-4.869-3.437-4.72-3.665,2.5,1.044,5.258,2.84,4.868,3.436,4.719,3.664" transform="translate(-5.182 -18.445)" fill="#fafafa"/><path d="M103.925,326.4c-.226.151-1.333-1.108-2.471-2.811s-1.879-3.209-1.653-3.36,1.333,1.108,2.472,2.812,1.878,3.208,1.652,3.359" transform="translate(-5.451 -17.497)" fill="#fafafa"/><path d="M114.708,330.8c.156.222-.839,1.19-2.221,2.161s-2.631,1.579-2.788,1.356.839-1.189,2.222-2.161,2.631-1.578,2.787-1.356" transform="translate(-5.993 -18.072)" fill="#fafafa"/><g transform="translate(81.896 370.982)" opacity="0.5"><g clip-path="url(#w)"><path d="M86.711,402.131c-.268-.081.168-2.228.558-4.878s.609-4.829.889-4.829c.264,0,.5,2.241.085,4.974s-1.281,4.814-1.531,4.732" transform="translate(-86.629 -392.423)" fill="#fafafa"/></g></g><g transform="translate(98.35 360.427)" opacity="0.5"><g clip-path="url(#x)"><path d="M111.223,393.85c-.236.134-2.032-2.574-4.009-6.049s-3.389-6.4-3.153-6.537,2.031,2.574,4.009,6.05,3.389,6.4,3.153,6.536" transform="translate(-104.034 -381.259)" fill="#fafafa"/></g></g><g transform="translate(119.152 362.471)" opacity="0.5"><g clip-path="url(#y)"><path d="M137.415,383.428c.216.165-2.153,3.624-5.29,7.726s-5.857,7.293-6.073,7.129,2.153-3.625,5.291-7.727,5.857-7.293,6.072-7.128" transform="translate(-126.039 -383.421)" fill="#fafafa"/></g></g><g transform="translate(123.45 382.439)" opacity="0.5"><g clip-path="url(#z)"><path d="M144.7,404.653c.039.269-3.09.944-6.989,1.508s-7.091.8-7.13.534,3.089-.944,6.989-1.508,7.091-.8,7.13-.534" transform="translate(-130.585 -404.542)" fill="#fafafa"/></g></g><path d="M146.659,393.436c-.274-.062-.027-2.079.074-4.557s.043-4.508.322-4.546c.259-.043.779,2.008.662,4.589s-.8,4.578-1.058,4.514" transform="translate(-8.007 -21)" fill="#fafafa"/><path d="M110.43,406.031c-.095.24-2.649-.608-5.315-2.535s-4.294-4.063-4.1-4.23c.21-.193,2.093,1.589,4.671,3.43,2.566,1.857,4.856,3.073,4.74,3.334" transform="translate(-5.519 -21.815)" fill="#fafafa"/><path d="M68.561,404.3c-.264-.066.052-2.226.706-4.823s1.4-4.65,1.661-4.584-.052,2.225-.706,4.824-1.4,4.649-1.661,4.583" transform="translate(-3.741 -21.577)" fill="#fafafa"/><path d="M63.957,151.9c.061-.078,1.135.847,3.114,1.933a22.821,22.821,0,0,0,3.623,1.581,23.079,23.079,0,0,0,9.548,1.1,22.766,22.766,0,0,0,3.886-.717c2.174-.609,3.43-1.265,3.472-1.175a3.843,3.843,0,0,1-.859.5,8.416,8.416,0,0,1-1.061.482,13.817,13.817,0,0,1-1.453.527,20.615,20.615,0,0,1-3.939.834,21.908,21.908,0,0,1-9.743-1.121,20.58,20.58,0,0,1-3.646-1.707,13.878,13.878,0,0,1-1.3-.844,8.3,8.3,0,0,1-.924-.711,3.831,3.831,0,0,1-.723-.681" transform="translate(-3.494 -8.3)" fill="#455a64"/><path d="M88.411,162.986a4.394,4.394,0,0,1-1.03.319c-.671.171-1.65.392-2.873.605a26.184,26.184,0,0,1-9.683.058,15.067,15.067,0,0,1-8.366-4.77,10.248,10.248,0,0,1-1.585-2.493,3.652,3.652,0,0,1-.346-1.025,16.863,16.863,0,0,0,2.192,3.289,15.446,15.446,0,0,0,8.206,4.517,28.379,28.379,0,0,0,9.53.081c1.22-.168,2.206-.337,2.887-.449a4.738,4.738,0,0,1,1.069-.131" transform="translate(-3.526 -8.506)" fill="#455a64"/><path d="M54.106,221.361c-.007.006-.048-.039-.125-.13a4.8,4.8,0,0,1-.321-.422,5.466,5.466,0,0,1-.753-1.893,8.675,8.675,0,0,1,2.078-7.023,17.82,17.82,0,0,1,3.954-3.336c1.549-1.023,3.294-1.964,5-3.114a15.242,15.242,0,0,0,4.555-4.448,8.061,8.061,0,0,0,1.133-3.124,9.754,9.754,0,0,0-.182-3.438,42.71,42.71,0,0,0-2.394-6.52,18.059,18.059,0,0,1-1.6-6.363A16.976,16.976,0,0,1,68.7,171.069a15.892,15.892,0,0,1,5.576-4.915l1.059-.507.812-.285a3.652,3.652,0,0,1,.677-.2,3.935,3.935,0,0,1-.643.295l-.787.325-1.027.542a16.233,16.233,0,0,0-5.384,4.947,16.779,16.779,0,0,0-3.073,10.257,17.781,17.781,0,0,0,1.592,6.2,42.107,42.107,0,0,1,2.428,6.6,10.185,10.185,0,0,1,.187,3.612,8.531,8.531,0,0,1-1.205,3.307,15.588,15.588,0,0,1-4.713,4.572c-1.745,1.16-3.49,2.084-5.033,3.082a17.686,17.686,0,0,0-3.912,3.22,8.57,8.57,0,0,0-2.154,6.761,6.528,6.528,0,0,0,1.011,2.48" transform="translate(-2.884 -9.024)" fill="#455a64"/><path d="M80.432,221.84a2.95,2.95,0,0,1-.547-.308,4.461,4.461,0,0,1-1.22-1.328,6.346,6.346,0,0,1-.851-2.724,10.308,10.308,0,0,1,.412-3.759c.768-2.776,3.088-5.3,4.829-8.47a10.6,10.6,0,0,0,1.421-5.387,14.46,14.46,0,0,0-1.518-5.835c-1.8-3.8-4.557-6.824-6.463-9.987a20.574,20.574,0,0,1-2.231-4.752,11.486,11.486,0,0,1-.463-4.558,9.015,9.015,0,0,1,2.753-5.911,6.346,6.346,0,0,1,1.515-.973,2.949,2.949,0,0,1,.591-.211,9.638,9.638,0,0,0-1.978,1.325,8.992,8.992,0,0,0-2.535,5.8,11.245,11.245,0,0,0,.508,4.4A20.43,20.43,0,0,0,76.88,183.8c.965,1.547,2.112,3.089,3.277,4.715a33.534,33.534,0,0,1,3.246,5.3,14.814,14.814,0,0,1,1.555,6.038,11.007,11.007,0,0,1-1.5,5.609c-1.809,3.227-4.124,5.7-4.9,8.356a10.234,10.234,0,0,0-.471,3.636,6.315,6.315,0,0,0,.742,2.649,5.606,5.606,0,0,0,1.6,1.733" transform="translate(-4.029 -9.16)" fill="#455a64"/><path d="M118.747,148.55a1.141,1.141,0,0,1-.357-.15,7.323,7.323,0,0,1-.936-.6,11.437,11.437,0,0,1-2.719-3.033,33.764,33.764,0,0,1-2.618-5.428c-.435-1.04-.9-2.125-1.47-3.2a19.82,19.82,0,0,0-2.087-3.117,21.388,21.388,0,0,0-10.926-7.043A29.6,29.6,0,0,0,92.2,125.2a8.049,8.049,0,0,1,1.488-.083,19.632,19.632,0,0,1,4.035.526,20.969,20.969,0,0,1,11.222,7.068,19.717,19.717,0,0,1,2.131,3.2c.579,1.1,1.039,2.2,1.464,3.251a36.406,36.406,0,0,0,2.493,5.417,12.28,12.28,0,0,0,2.543,3.067c.726.609,1.2.857,1.174.9" transform="translate(-5.038 -6.837)" fill="#455a64"/><path d="M131.952,148.411a1.978,1.978,0,0,1-.509-.053,7.782,7.782,0,0,1-1.419-.369,12.3,12.3,0,0,1-4.507-2.929,27.217,27.217,0,0,1-4.677-6.462,49.647,49.647,0,0,0-5.141-8.186,16.14,16.14,0,0,0-8.021-5.006,31.291,31.291,0,0,0-7.8-1.041c-2.255-.05-4.084.044-5.348.094l-1.456.055a1.986,1.986,0,0,1-.51-.012,2.025,2.025,0,0,1,.5-.086c.331-.04.82-.1,1.451-.147,1.262-.109,3.092-.256,5.364-.251a30.392,30.392,0,0,1,7.925.954,16.4,16.4,0,0,1,8.271,5.118,48.059,48.059,0,0,1,5.164,8.288,27.85,27.85,0,0,0,4.526,6.436,12.74,12.74,0,0,0,4.329,3c1.168.46,1.872.546,1.86.6" transform="translate(-5.057 -6.776)" fill="#455a64"/><path d="M156.94,212.107c-.055-.021.242-.671.556-1.909a17.894,17.894,0,0,0-4.144-16.8c-1.094-1.217-2.346-2.372-3.613-3.582a32.9,32.9,0,0,1-3.5-3.76,23.317,23.317,0,0,1-2.521-4.082,23.952,23.952,0,0,1-2.235-7.77,22.077,22.077,0,0,1,.054-5.449,13.369,13.369,0,0,1,.26-1.459,2.03,2.03,0,0,1,.137-.5c.051.009-.095.706-.207,1.979a24.2,24.2,0,0,0,.1,5.387,22.915,22.915,0,0,0,.758,3.64,22.654,22.654,0,0,0,1.538,3.973,23.36,23.36,0,0,0,2.494,3.984,33.317,33.317,0,0,0,3.464,3.7c1.262,1.206,2.522,2.372,3.632,3.615a18.25,18.25,0,0,1,2.747,3.939,17.968,17.968,0,0,1,1.954,7.837,17.032,17.032,0,0,1-.732,5.4,11.177,11.177,0,0,1-.512,1.393,2.011,2.011,0,0,1-.228.464" transform="translate(-7.723 -9.114)" fill="#455a64"/><path d="M48.293,148.532a2.834,2.834,0,0,1,.12-.926,9.074,9.074,0,0,1,.929-2.379,10.1,10.1,0,0,1,14.686-3.513,9.067,9.067,0,0,1,1.9,1.7,2.815,2.815,0,0,1,.527.771,17.039,17.039,0,0,0-2.62-2.18,10.054,10.054,0,0,0-14.2,3.4,16.988,16.988,0,0,0-1.35,3.13" transform="translate(-2.638 -7.645)" fill="#455a64"/><path d="M57.983,152.757a7.743,7.743,0,0,1,.264-2.146,9.46,9.46,0,0,1,2.235-4.739,5.007,5.007,0,0,1,5.01-1.269,2.934,2.934,0,0,1,1.34.917c.237.3.31.5.288.517a4.413,4.413,0,0,0-1.734-1.1,4.857,4.857,0,0,0-4.553,1.281,10.2,10.2,0,0,0-2.248,4.477,12.109,12.109,0,0,1-.6,2.064" transform="translate(-3.167 -7.889)" fill="#455a64"/><path d="M70.464,138.593a42.405,42.405,0,0,0-2.483,5.149,42.481,42.481,0,0,0-1.283,5.572,14.867,14.867,0,0,1,3.766-10.721" transform="translate(-3.64 -7.572)" fill="#e8505b"/></g><g clip-path="url(#a)"><path d="M230.667,162.8a2.942,2.942,0,1,0,2.942-2.942,2.942,2.942,0,0,0-2.942,2.942" transform="translate(-12.604 -8.735)" fill="#455a64"/><path d="M218.212,162.8a2.942,2.942,0,1,0,2.942-2.942,2.942,2.942,0,0,0-2.942,2.942" transform="translate(-11.923 -8.735)" fill="#455a64"/><path d="M205.766,161.329a2.942,2.942,0,1,0,4.019-1.077,2.943,2.943,0,0,0-4.019,1.077" transform="translate(-11.221 -8.735)" fill="#455a64"/><path d="M219.127,126.617a3.3,3.3,0,0,0-.595-.009l-1.749.049c-.384.018-.816.017-1.289.057l-1.542.216-1.8.259-2.011.5a32.587,32.587,0,0,0-9.746,4.249,34.4,34.4,0,0,0-15.8,25.851,35.637,35.637,0,0,0-.095,4.713c.055.8.039,1.607.156,2.411l.366,2.428a34.538,34.538,0,0,0,3.275,9.59,36.943,36.943,0,0,0,6.264,8.62,36.22,36.22,0,0,0,9.024,6.483,32.788,32.788,0,0,0,11,3.376,21.8,21.8,0,0,0,2.933.25,26.277,26.277,0,0,0,2.966.054,35.253,35.253,0,0,0,5.942-.75,34.724,34.724,0,0,0,11.826-4.977l-.359.036,12.048,4.836.713.286-.2-.741q-1.824-6.631-3.541-12.879l-.061.318a34.561,34.561,0,0,0,6.428-14.716,31.317,31.317,0,0,0,.468-7.54,24.031,24.031,0,0,0-.342-3.621q-.136-.888-.273-1.762c-.108-.579-.284-1.141-.421-1.706A34.452,34.452,0,0,0,239.272,132.9a32.945,32.945,0,0,0-8-4.22l-1.8-.645-1.71-.435-1.565-.388c-.5-.1-.987-.147-1.441-.217-.91-.115-1.711-.273-2.412-.307l-1.771-.06-1.081-.025a1.6,1.6,0,0,0-.366.013,1.662,1.662,0,0,0,.366.05l1.076.085,1.759.118c.7.055,1.488.231,2.39.364a34.26,34.26,0,0,1,27.393,25.411c.131.556.3,1.107.406,1.676q.129.861.26,1.732a23.682,23.682,0,0,1,.319,3.556,30.732,30.732,0,0,1-.488,7.392,33.942,33.942,0,0,1-6.341,14.4l-.109.145.047.174q1.7,6.242,3.515,12.886l.51-.454L238.188,189.3l-.188-.077-.171.113a34.011,34.011,0,0,1-11.563,4.861,34.522,34.522,0,0,1-5.807.735,25.767,25.767,0,0,1-2.9-.052,21.3,21.3,0,0,1-2.869-.242,32.107,32.107,0,0,1-10.758-3.29,35.557,35.557,0,0,1-8.84-6.327,36.32,36.32,0,0,1-6.152-8.422,33.971,33.971,0,0,1-3.239-9.385q-.184-1.2-.368-2.378c-.117-.787-.1-1.583-.162-2.363a33.51,33.51,0,0,1,5.605-20.411,34.751,34.751,0,0,1,9.857-9.756,32.78,32.78,0,0,1,9.588-4.323l1.985-.528,1.781-.293,1.528-.251c.469-.052.9-.064,1.279-.095l1.739-.127a3.456,3.456,0,0,0,.594-.07" transform="translate(-10.078 -6.918)" fill="#455a64"/></g></g></svg>