<svg xmlns="http://www.w3.org/2000/svg" xmlns:xlink="http://www.w3.org/1999/xlink" width="100.277" height="100.461" viewBox="0 0 100.277 100.461"><defs><clipPath id="a"><rect width="100.277" height="100.461" fill="none"/></clipPath></defs><g clip-path="url(#a)"><path d="M68.507,54.12c0-.907.064-1.82-.025-2.718-.05-.517.349-.781.416-1.2a5.42,5.42,0,0,1-1.332-4.121c.048-4.818.03-9.638.009-14.457a4.62,4.62,0,0,0-.6-3,4.129,4.129,0,0,0-2.8-.61q-11.607-.024-23.214,0a4.318,4.318,0,0,0-2.637.506c-1.1,2.088-.458,4.338-.553,6.512-.057,1.319-.368,2.757.67,3.917,2.834.375,5.68-.061,8.521.082.972.049,1.949-.033,2.92.056a2.083,2.083,0,0,1,1.975,1.021c-.51,1-1.426.853-2.219.861-3.117.034-6.235.029-9.352.006-.7-.005-1.434-.213-2.073.278-.519,1.112-.619,2.154.494,2.994a7.2,7.2,0,0,0,2.886.305c5.592.012,11.185-.012,16.777.021.853,0,1.831-.228,2.53.7-.639,1-1.631.75-2.473.756-5.592.036-11.184.011-16.776.023a7.833,7.833,0,0,0-2.9.276c-1.149.868-1.1,1.84-.253,2.881,2.409.814,4.9.212,7.348.41.848.068,1.826-.195,2.478.838-.738.859-1.687.661-2.554.72-2.389.161-4.81-.344-7.179.337a2.218,2.218,0,0,0-.33,3.006,3.321,3.321,0,0,0,1.9.236c6.044-.049,12.088-.019,18.132-.008.873,0,1.835-.211,2.6.627-.335,1.4-1.518,1.23-2.471,1.23-6.173,0-12.347.164-18.518-.086a3.519,3.519,0,0,0-1.162.068c-1.2.775-1.021,1.825-.579,2.924.59.607,1.329.366,2.024.338,2.531-.1,5.063-.056,7.594-.03.806.008,1.729-.113,2.2.957-.4,1.108-1.4.937-2.254.967-3.044.11-6.092-.1-9.141.035-1.041,1.083-1.113,2.133.1,3.14,6.505.028,13.012-.024,19.519.022.969.006,2.094-.219,2.734.959-.545,1.024-1.462.9-2.26.9-6.12.015-12.239.069-18.359-.021-.705-.011-1.433-.22-2.086.244a5.4,5.4,0,0,0,.04,4.827,3.775,3.775,0,0,0,2.432.53q11.811.028,23.624,0a4.047,4.047,0,0,0,2.584-.556A4.175,4.175,0,0,0,67.574,69c.025-3.324.038-6.649,0-9.973a9.187,9.187,0,0,1,.936-4.9" fill="#d8eff8"/><path d="M38.38,28.65H66.9V49.176L67.923,50.2H68.9c.567-.109.741-.689,1.174-.972,0-6.852-.026-13.706.021-20.559.01-1.468-.344-2.579-2.027-3.155H31.937a3.857,3.857,0,0,0-1.773,1.769V72.876a2.857,2.857,0,0,0,2,2.012h35.9c1.68-.577,2.041-1.687,2.026-3.154-.053-5.417-.021-10.835-.021-16.245a.875.875,0,0,1-.423-.819l-1.142-.55a4.734,4.734,0,0,0-1.54.978V71.753H38.38c-1.171-1.073-2.836-.228-4.441-1.269-.019-13.45-.019-27.115,0-40.565,1.6-1.041,3.27-.2,4.441-1.269" fill="#050607"/><path d="M21.556,76.847V75.476c-1.323-1.283-2.762-1.9-6.2-2.642v-6.8c3.866-2.038,8-3.6,11.987-5.839.1-.2.292-.575.477-.939a2.9,2.9,0,0,0-1.137-1.6c-2.2-.54-4.038-1.9-6.076-2.8a30.6,30.6,0,0,1-5.279-2.539v-1.56l-1.278-.908h-.931a3.18,3.18,0,0,0-.962,2.6c.026,6.136.013,12.273.013,18.409v2.024a13.051,13.051,0,0,0-6.4,2.475,14.021,14.021,0,0,0-5.392,8.3,13.7,13.7,0,0,0-.278,4.739,13.7,13.7,0,0,0,9.6,11.3c4.271,1.419,8.052.479,11.517-1.54a10.983,10.983,0,0,0,3.523-3.216,14.078,14.078,0,0,0,2.37-5.088c.183-.88.111-2.026,1.084-2.692.152-.1.021-.621.021-1.172l-.615-.35c-.6-2.308-.532-4.534-2.319-6.042H23.9c-1.246.585-1.175,1.583-.808,2.65A12.382,12.382,0,0,1,24.066,87a10.183,10.183,0,0,1-10.308,9.683c-4.807.522-9.6-3.889-10.037-8.531-.561-5.991,2.8-10.634,8.346-11.6a4.814,4.814,0,0,1,2.877-.12,15,15,0,0,1,4.063,1.244c1.059.474,2.032.466,2.549-.832" fill="#050506"/><path d="M72.739,85.517c-.942-.785-1.947-.27-2.836-.469l-1,1.008V87.21c.253.591.983.526,1.382,1.031.741-.218,1.641.372,2.433-.54a13.774,13.774,0,0,0,24.472,7.588A13.563,13.563,0,0,0,100.155,85a14.257,14.257,0,0,0-5.129-9.208,13.058,13.058,0,0,0-9.367-2.879A12.117,12.117,0,0,0,77.9,75.891c-4.252,3.8-4.489,5.91-5.161,9.626" fill="#050506"/><path d="M28.216,13.781a21.677,21.677,0,0,1-.85-2.379c-.883-3.385-1.815-5.679-4.807-8.152A14.641,14.641,0,0,0,16.715.381,12.729,12.729,0,0,0,11.987.1a13.5,13.5,0,0,0-5.732,2.15A13.932,13.932,0,0,0,.707,9.7,13.524,13.524,0,0,0,2.478,21.511a12.831,12.831,0,0,0,5.746,4.93A12.2,12.2,0,0,0,12.68,27.49a17.791,17.791,0,0,0,5.936-.768,9.546,9.546,0,0,0,3.172-1.729,15.79,15.79,0,0,0,4.632-5.674A20.434,20.434,0,0,0,27.355,16a12.106,12.106,0,0,1,.861-2.221" fill="#040506"/><path d="M93.939,3.572v-.9C93.035,1.272,91.4.935,89.921.5A5.623,5.623,0,0,0,88.146.036c-1.042.036-2.1-.1-3.127.032a15.66,15.66,0,0,0-5.953,2.144,11,11,0,0,0-3.521,3.219C74.5,6.959,73.28,8.484,73.174,10.516c-.033.649-.65,1.218-.322,1.854-.7.576-.923-.4-1.494-.2a5.486,5.486,0,0,1-1.539.027l-.873,1.26v.955l1.122.919c.763-.172,1.756.347,2.6-.354.586,2.252.936,4.5,2.444,6.468A14.034,14.034,0,0,0,82.1,26.787a8.635,8.635,0,0,0,3.628.688,1.073,1.073,0,0,0,1.565,0,12.274,12.274,0,0,0,8.471-3.563A14.654,14.654,0,0,0,99.6,17.694a12.968,12.968,0,0,0-.972-10.227,2.188,2.188,0,0,0-.294-.461c-.213-.244-.451-.467-.671-.691h-.989c-1.542.67-1.418,1.924-.923,3.117a12.248,12.248,0,0,1,.763,5.54c-.315,5.308-5.8,9.753-11.122,9.02-5.166-.931-8.058-3.646-9-8.455A10.041,10.041,0,0,1,86.047,3.7c.326,0,.651.017.978.029a10.068,10.068,0,0,1,3.789.79c1.23.427,2.457.6,3.125-.946" fill="#040506"/><path d="M85.331,24.34c.387.853,1.225.48,1.649.335A28.268,28.268,0,0,1,90,24.027a7.05,7.05,0,0,0,2.831-1.611A12.733,12.733,0,0,0,95.8,19.208a9.1,9.1,0,0,0,1.22-3.386,16.53,16.53,0,0,0,.022-4.081,6.415,6.415,0,0,0-1.127-2.948V7.316c.167-.366.695-.51.765-1a11.017,11.017,0,0,1-2.739-2.743c-.462,0-.527.519-1.189.73H91.393A6.949,6.949,0,0,0,86.9,3.18a6.651,6.651,0,0,0-3.522,2.492c-.384.57-.882,1.149-.439,1.923a1.446,1.446,0,0,0,.515.287,18.841,18.841,0,0,0,2.918.16,3.589,3.589,0,0,1,3.424,2.173c.592,1.462-.017,2.655-.951,3.762-.735.87-1.823,1.5-2.006,2.731.9,1.243,2.9.11,3.517,1.788-.329,1.127-1.278.936-2.08,1-1.811.135-3.646-.236-5.44.253-.788.752.049,1.228.31,1.8.505,1.107,1.832,1.569,2.189,2.794" fill="#2bb5e7"/><path d="M21.556,76.847c-.5.063-.631.61-1.2.847-1.738-.51-3.357-1.932-5.455-1.631-2.6-.2-5.479,2.549-5.44,5.191.845.365,1.493-.248,2.215-.467a6.359,6.359,0,0,1,7.148,2.226,6.655,6.655,0,0,1-.148,7.353,6.07,6.07,0,0,1-7.005,2.011A6.154,6.154,0,0,0,9.992,91.9c-1.142.369-.587,1.1-.278,1.654a7.549,7.549,0,0,0,4.017,3.667,9.181,9.181,0,0,0,5-1.127,12.709,12.709,0,0,0,4-3.631A6.352,6.352,0,0,0,24.3,88.223c.81-1.194.22-2.383.012-3.585a13.848,13.848,0,0,0-1.2-3.439c.26-.528.527-1.069.794-1.609-.569-1.1-1.779-1.645-2.348-2.743" fill="#de1d30"/><path d="M87.288,27.475H85.723c-.054.429-.463.582-.733.95v2.829a4.739,4.739,0,0,0,1.5.928c.69-.267,1.337-.562,1.5-1.392a4.248,4.248,0,0,0-.708-3.315" fill="#101010"/><path d="M40.093,15.327c.648-.471.728-1.06,1.026-1.516.121-.432-.625-.526-.388-1.009a3.3,3.3,0,0,0-4.258.282V14.4l1.281.925Z" fill="#131313"/><path d="M53.654,12.751a3.43,3.43,0,0,0-4.279.353v1.3l1.109.92h2.554c.67-.312.48-1.149.957-1.366.118-.593-.606-.694-.341-1.206" fill="#131313"/><path d="M62.295,13.087v1.357l1.155.673-.207.211h2.71c.563-.355.677-1,.989-1.522.114-.429-.627-.523-.387-1.008a3.314,3.314,0,0,0-4.26.29" fill="#131313"/><path d="M86.361,45.216c.555-.216.681-.642,1.083-.5a3.347,3.347,0,0,0,.144-3.8c-.512-.094-.869-.718-1.827-.339-.075.133-.328.587-.581,1.041l-.24-.236v2.695c.284.679,1.124.508,1.421,1.134" fill="#111212"/><path d="M87.439,57.583c.841-.979.578-1.95.638-2.868-.241-.226-.5-.43-.414-.822-.554-.048-.884-.695-1.519-.567-.554.1-.746.659-1.171.943v2.893l1.463.916,1-.495" fill="#111212"/><path d="M84.94,69.944c.464.643,1.058.717,1.506,1.026.436.13.527-.619,1-.392a3.357,3.357,0,0,0,.141-3.8c-.51-.1-.895-.647-1.776-.453-.136.243-.39.7-.643,1.15-.076-.075-.153-.15-.229-.226Z" fill="#111212"/><path d="M38.077,88.2h1.592l1.257-.74c.338-.49.133-.95.2-1.416l-1.045-.968c-1,.041-2.145-.215-3.154.487-.168.376-.338.756-.488,1.089L38.077,88.2" fill="#111212"/><path d="M52.81,85.084a4.637,4.637,0,0,0-2.956.506l-.505.985,1.576,1.332a2.592,2.592,0,0,0,3.063-.636V86l-1.178-.916" fill="#111212"/><path d="M63.809,88.206a3.429,3.429,0,0,0,3.047-.9,2.933,2.933,0,0,0,.064-1.276l-.976-.977c-1.018.163-2.139-.347-3.294.768l-.477.967,1.636,1.415" fill="#111212"/><path d="M30.209,86.074v1.194c.9,1,2.03,1,3.329.923.164-.283.393-.679.623-1.074.086.07.172.14.259.209v-1.72c-.2-.332-.885.128-.827-.527H31.121l-.912.995" fill="#0f1010"/><path d="M44.436,88.211h2l.908-1.3V85.623c-1.019-.787-2.185-.491-3.283-.554l-.979.98V87.2c.24.6.97.526,1.354,1.014" fill="#0f1010"/><path d="M84.94,37.478l1,.952h1.194l.9-1.206V35.038l-1.2-.851h-.972l-.925,1.3Z" fill="#0e0f0f"/><path d="M88.07,60.964l-1.01-.948H85.873c-.213.29-.48.653-.9,1.227v2.141l1.069.587-.228.285h1.33l.926-1.332Z" fill="#0f1010"/><path d="M84.94,48.112v2.322l1.154.9h1.077l.894-1.389V48.042l-.968-.97H85.9l-.957,1.04" fill="#0e0f0f"/><path d="M60.291,85.679c-1.1-.8-2.19-.56-3.375-.614-.209.3-.467.67-.891,1.276v.926c.913,1.056,2.108,1,3.3.922l.97-.953Z" fill="#0f1010"/><path d="M43.11,13.342v1.443c1.041.741,2.189.534,3.306.527q.481-.48.961-.962c0-.388,0-.776,0-1.149-.259-.6-.984-.529-1.351-.993H44c-.224.284-.5.639-.891,1.134" fill="#0e0f0f"/><path d="M55.992,13.592v1.126c.987.811,2.146.582,3.349.613l.914-1.229v-.958c-.877-1.02-2.008-1.006-3.364-.929l-.9,1.377" fill="#0e0f0f"/><path d="M34.431,14.242v-1.1c-.879-1.023-2.011-1-3.369-.93-.129.254-.337.666-.546,1.077l-.3-.239v1.7c.937.791,2.1.545,3.3.582l.916-1.089" fill="#0e0f0f"/><path d="M38.38,28.65H33.492c-.3,1.729-.408,36.138-.133,43.1H38.38v-4.7a2.205,2.205,0,0,0,.391-2.351,2.509,2.509,0,0,1,0-2.743,2.2,2.2,0,0,0-.391-2.351V57.341c0-.267.034-.505.391-.478a2.183,2.183,0,0,0-.391-2.351V52.247c0-.267.034-.505.391-.478a4.976,4.976,0,0,0,0-2.743,1.873,1.873,0,0,1,0-2.351,4.976,4.976,0,0,0,0-2.743c-.357.027-.391-.211-.391-.478V41.189a2.183,2.183,0,0,0,.391-2.351c-.648-.066-.377-.574-.379-.886-.02-3.1-.012-6.2-.012-9.3" fill="#bee4f8"/><path d="M38.771,64.7c-.576.709-.36,1.551-.391,2.351.61-.186.978.511,1.6.411a11.321,11.321,0,0,1,1.758-.019c5.933,0,11.867-.008,17.8.009a3.624,3.624,0,0,0,2.241-.566v-1.68l-.942-.9c-6.782,0-13.625,0-20.469,0a2.272,2.272,0,0,0-1.6.4" fill="#090a0a"/><path d="M38.38,54.512c.031.8-.185,1.642.391,2.351.61-.186.978.511,1.6.411a11.306,11.306,0,0,1,1.757-.019H60.4l1.4-.834V54.645l-.523-.525q-10.623,0-21.291,0a2.272,2.272,0,0,0-1.6.4" fill="#090c0c"/><path d="M38.771,43.932a2.428,2.428,0,0,0,0,2.743q10.639,0,21.279-.005c.62,0,1.327.224,1.771-.591V44.5a1.333,1.333,0,0,0-1.185-.578c-1.366.041-2.733.014-4.1.014Z" fill="#040506"/><path d="M38.771,38.838c-.576.709-.36,1.551-.391,2.351a2.272,2.272,0,0,0,1.6.4q5.956-.013,11.9,0l.964-.966c.282-.649-.4-1.037-.4-1.6-1.351-.714-2.817-.558-4.26-.563-2.019-.007-4.038,0-6.057,0a11.3,11.3,0,0,1-1.756-.019c-.622-.1-.99.6-1.6.411" fill="#0a0d0d"/><path d="M57.425,35.243l.507-.508c-.068-.71.329-1.545-.56-2.132H42.864c-.889.587-.492,1.422-.56,2.132l.507.508Z" fill="#050607"/><path d="M38.38,59.606c.031.8-.185,1.642.391,2.351a2.279,2.279,0,0,0,1.6.4c3.189-.01,6.378-.005,9.553-.005l.98-.981q0-.586,0-1.174l-.98-.98H41.734a11.282,11.282,0,0,1-1.755-.019c-.623-.1-.99.6-1.6.411" fill="#090b0c"/><path d="M51.512,51.767h9.76l.6-.6c-.167-.668.372-1.535-.678-2.1H51.435c-.229.27-.555.654-.958,1.132-.188.764.592,1.071,1.035,1.573" fill="#050607"/><path d="M38.771,49.026a2.428,2.428,0,0,0,0,2.743H48.3c.473-.466,1.186-.791,1-1.841l-1.39-.9Z" fill="#050607"/><path d="M53.115,59.214c-.7.478-.7,1.11-1.035,1.514-.089.451.638.552.389,1.037a4.012,4.012,0,0,0,2.486.6c1.946-.046,3.895-.014,5.958-.014L61.82,61.2V59.76a3.456,3.456,0,0,0-2.341-.554c-2.142.024-4.284.008-6.364.008" fill="#0a0c0d"/><path d="M61.269,41.581l.54-.541V39.385a2.881,2.881,0,0,0-2.41-.947c-.842.038-1.69.04-2.532,0a2.889,2.889,0,0,0-2.4.949v1.65a3.485,3.485,0,0,0,2.316.553c1.493-.032,2.988-.009,4.488-.009" fill="#0c0f0f"/><path d="M9.427,81.158a10.434,10.434,0,0,1,4.068-4.721,2.343,2.343,0,0,1,1.41-.373c-.509-.726-1.215-.373-1.837-.283-.195.028-.367.275-.657.293-4.8.287-7.833,4.031-9.228,8.007.032,1.743-.322,3.539.151,5.217a10.9,10.9,0,0,0,2.683,4.776,12.735,12.735,0,0,0,5.035,3.006,9.765,9.765,0,0,0,2.679.144c-.6-.99-1.76-1.344-2.465-2.24a20.644,20.644,0,0,1-1.773-2.722c-.008-.015.078-.105.133-.127a.534.534,0,0,1,.192-.005c.177-.62-.312-.95-.621-1.326-2.078-2.522-2.121-5.142-.449-7.877a2.78,2.78,0,0,0,.679-1.769" fill="#da0022"/><path d="M17.252,61.565a25.309,25.309,0,0,0,5.426-2.379c-1.858-.846-3.294-1.89-5.035-2.323-1.243,1.038-1.382,2.713-.391,4.7" fill="#dc1c2f"/><path d="M17.252,61.565V57.352c0-.267.022-.518.391-.489-.527-.732-1.633-.4-2.124-1.179a.934.934,0,0,0-.153.133.313.313,0,0,0-.067.166c0,2.21,0,4.42,0,6.756a3.738,3.738,0,0,0,1.125-.584c.247-.283.868.018.831-.59" fill="#d90022"/><path d="M86.5,97.223a9.083,9.083,0,0,0,5-1.136A10.877,10.877,0,0,0,96.683,90a12.676,12.676,0,0,0,.307-5.7,10.191,10.191,0,0,0-1.507-3.649c-.827-1.537-4.514-4.277-6.05-4.574a9.411,9.411,0,0,0-1.754-.018c-1.91-.173-4.873,1.979-5.151,3.738a.773.773,0,0,0,.526.909,15.2,15.2,0,0,0,3.488.218c2.912.194,4.107,1.688,3.5,4.537a6.227,6.227,0,0,0,.081,2.5c.448,2.523-.843,4.16-3.414,4.387a25.749,25.749,0,0,0-3.5.172c-1.059.39-.66,1.071-.3,1.686A6.926,6.926,0,0,0,86.5,97.223" fill="#ffb800"/><path d="M86.5,97.223c-.106-.791-.95-.71-1.361-1.154a9.607,9.607,0,0,1-2.406-3.055l.246-.1c.225-.9-.322-1.608-.616-2.378a8.387,8.387,0,0,1,0-7.831,4.7,4.7,0,0,0,.617-2.33l-.329-.134a10.83,10.83,0,0,1,4.076-4.157c.229-.145.628-.02.948-.02a.3.3,0,0,0-.31-.385A12.763,12.763,0,0,0,81.8,76.857a11.67,11.67,0,0,0-5.812,6.8,13.293,13.293,0,0,0,.376,7.108,9.265,9.265,0,0,0,1.373,2.165,12.2,12.2,0,0,0,6.085,4.164,12.871,12.871,0,0,0,2.68.132" fill="#e8a700"/><path d="M14.9,24.34a7.532,7.532,0,0,0,5.4-2.055,11.541,11.541,0,0,0,3.393-4.23,4.284,4.284,0,0,0,.586-2.29c-.123-.679.523-1.084.435-1.8-.338-2.745-.956-5.3-3.022-7.366A12.76,12.76,0,0,0,16.56,3.4a15.312,15.312,0,0,0-2.83-.225C6.665,6.346,5.32,17.829,11.945,23.391c.792.664,1.7,1.489,2.959.949" fill="#5ea31e"/><path d="M14.9,24.34c-1.071.383-1.682-.557-2.3-1.017-2.213-1.644-3.309-4.115-4.308-6.6a2.736,2.736,0,0,1-.041-.962c0-1.044-.01-2.089,0-3.133.031-3.348,1.714-5.91,4.011-8.108.468-.448,1.166-.673,1.465-1.338A8.662,8.662,0,0,0,8.093,4.688,12.581,12.581,0,0,0,4.645,8.123C2.883,10.6,3.176,13.377,3.166,16.134c.721,1.537,1.056,3.287,2.373,4.495.8.73,1.524,1.521,2.4,2.194A8.282,8.282,0,0,0,11.1,24.17a9.3,9.3,0,0,0,3.494.558c.2-.027.355-.14.31-.388" fill="#4d9c23"/><path d="M82.984,7.491a3.958,3.958,0,0,1,1.8-2.7c.775-.474,1.359-1.142,2.111-1.612a8.6,8.6,0,0,0-4.749.783c-.791-.257-.932.839-1.627.784-1.764,1.683-3.655,3.231-4.325,5.783a11,11,0,0,0-.308,4.65A11.727,11.727,0,0,0,77.1,19.19c1.332,2.784,3.865,4.019,6.486,5.12a4.851,4.851,0,0,0,1.744.03h1.13c-1.761-1.1-2.718-2.8-3.869-4.31.242-.929-.4-1.689-.484-2.556-1.2-3.46-.394-6.742.875-9.983" fill="#0fb2ed"/><path d="M81.81,17.679v1.338c.216.372.7.535.783,1.013h7.458l1.062-1.213c.4-.494-.4-.771-.306-1.305-1.124-.974-2.519-.47-4.024-.7.427-.428.75-.766,1.089-1.088,1.274-1.211,2.615-2.372,2.812-4.523a1.736,1.736,0,0,1-.2-1.506l-2-1.822c-1.428-.639-3.285-.327-5.105-.383-.827.537-1.38,1.234-.983,2.26A2.293,2.293,0,0,0,84.563,11.1c.677.069,1.431-.176,2.1.488a13.885,13.885,0,0,1-2.55,3.3c-.816.888-1.945,1.528-2.3,2.8" fill="#030708"/><path d="M81.81,17.679a22.881,22.881,0,0,0,4.5-4.674,9.4,9.4,0,0,1,1.367-1.4c.007-.582-.385-.679-.56-.962H83.559l-.943-1.1V8.481c.149-.358.7-.492.759-.99h-.391c-1.123.423-1.059,1.57-1.422,2.429a12.225,12.225,0,0,0,.059,7.756c.011.025.124,0,.189,0" fill="#2bb5e6"/><path d="M9.427,81.158A12.552,12.552,0,0,0,7.447,84.3a2.944,2.944,0,0,0-.368,1.6c0,.84,0,1.68,0,2.363.79,1.493,1.431,2.922,2.739,3.86,1.866,1.015,2.626,1.175,5.521,1.175l1.964-1.03a5.526,5.526,0,0,0,3.055-4.948,7.641,7.641,0,0,0-.156-2.659,5.91,5.91,0,0,0-4.515-4.461c-1.91-.427-3.864-.6-5.529.821-.247.211-.491.077-.731.13" fill="#070506"/><path d="M82.2,90.562V91.9c.216.372.7.535.783,1.013,1.1,0,2.213-.069,3.31.019a6.191,6.191,0,0,0,3-.784c.792-.338.688-1.341,1.518-1.679V87.607c-.508-.208-.259-.873-.9-1.181l.847-.5c.2-2.141.16-3.971-1.845-5.156-1.839-.707-3.9-.3-5.922-.4.04.526-.447.3-.783.561v1.79c.311,1.113,1.238,1.183,2.153,1.287a6.521,6.521,0,0,1,2.517.321c-1.59.372-3.435.358-3.316,2.4.1,1.767,1.733,1.839,3.439,2.173a9.438,9.438,0,0,1-2.762.384c-.827.15-1.9-.035-2.031,1.268" fill="#070705"/><path d="M82.2,90.562a1.785,1.785,0,0,1,1.7-.786c1.219.009,2.439,0,3.613,0l.5-1.037-.522-.523c-1.056-.06-2.154.217-3.135-.428-.4-.239.006-.927-.7-.953.43-.649.5-1.307,1.109-1.761h2.742c.188-.383.344-.7.508-1.035l-.524-.524H83.255c-.419-.2-.566-.72-1.054-.792-.325.074-.362-.313-.709-.362a17.661,17.661,0,0,0,.012,8.608c.316-.125.381-.469.7-.409" fill="#ffb700"/><path d="M15.686,7.9a.944.944,0,0,1-.968-.4H11.166l-.942,1.016V9.682l1.182.971H12.9v8.438l1.063.666c.269.383.719.244,1.169.255a2.861,2.861,0,0,0,.947-1.951c0-2.87-.028-5.74.026-8.609.01-.562-.5-.869-.417-1.551" fill="#050a05"/><path d="M14.122,90.17c1.484-.115,1.484-.115,3.13-1.763-.29-.678.423-1.1.435-1.76s-.812-1.066-.4-1.691l-1.8-1.839h-.979c-1.97.648-2.759,3.58-1.586,5.822a3.072,3.072,0,0,0,1.195,1.231" fill="#fdfdfd"/><path d="M14.122,90.17a6.193,6.193,0,0,1-1.174-4.148c.191-1.148.3-2.338,1.565-2.905a1.028,1.028,0,0,0-1.571-.162c-.313.224-.611.106-.953.177a4.508,4.508,0,0,0-1.687,2.18c-.2,1.95-.306,3.947,2.3,4.858Z" fill="#ecf5fc"/></g></svg>